<svg width="727" height="529" viewBox="0 0 727 529" fill="none" xmlns="http://www.w3.org/2000/svg">
<rect width="727" height="529" fill="white"/>
<g opacity="0.6">
<rect x="37" y="42" width="421" height="48" rx="4" fill="#98A2B3"/>
<rect opacity="0.6" x="37" y="110" width="100" height="8" rx="2" fill="#98A2B3"/>
<rect x="38" y="131" width="378" height="38" rx="2" fill="white" stroke="#98A2B3" stroke-width="2"/>
<rect opacity="0.5" x="37" y="182" width="120" height="6" rx="3" fill="#D3DAE6"/>
<rect opacity="0.6" x="37" y="216" width="100" height="8" rx="2" fill="#98A2B3"/>
<rect x="38" y="237" width="378" height="38" rx="2" fill="white" stroke="#98A2B3" stroke-width="2"/>
<rect opacity="0.5" x="37" y="288" width="120" height="6" rx="3" fill="#D3DAE6"/>
<rect opacity="0.6" x="37" y="322" width="100" height="8" rx="2" fill="#98A2B3"/>
<rect x="38" y="343" width="378" height="38" rx="2" fill="white" stroke="#98A2B3" stroke-width="2"/>
<rect opacity="0.5" x="37" y="394" width="120" height="6" rx="3" fill="#D3DAE6"/>
</g>
<rect x="482" y="42" width="213" height="358" rx="6" fill="#F8E9E9"/>
<path d="M393.873 458.435C393.336 454.557 390.353 452.307 386.484 452.307C381.924 452.307 378.489 455.631 378.489 461.273C378.489 466.906 381.881 470.239 386.484 470.239C390.634 470.239 393.387 467.554 393.873 464.222L390.685 464.205C390.285 466.25 388.614 467.401 386.526 467.401C383.697 467.401 381.668 465.278 381.668 461.273C381.668 457.335 383.68 455.145 386.535 455.145C388.657 455.145 390.319 456.347 390.685 458.435H393.873ZM400.399 470.264C402.453 470.264 403.68 469.301 404.243 468.202H404.345V470H407.311V461.239C407.311 457.778 404.49 456.739 401.993 456.739C399.24 456.739 397.126 457.966 396.445 460.352L399.325 460.761C399.632 459.866 400.501 459.099 402.01 459.099C403.442 459.099 404.226 459.832 404.226 461.119V461.17C404.226 462.057 403.297 462.099 400.987 462.347C398.447 462.619 396.018 463.378 396.018 466.327C396.018 468.901 397.902 470.264 400.399 470.264ZM401.2 467.997C399.913 467.997 398.993 467.409 398.993 466.276C398.993 465.091 400.024 464.597 401.405 464.401C402.214 464.29 403.834 464.085 404.234 463.761V465.304C404.234 466.761 403.058 467.997 401.2 467.997ZM413.499 462.33C413.499 460.438 414.641 459.347 416.268 459.347C417.862 459.347 418.817 460.395 418.817 462.142V470H421.902V461.665C421.911 458.528 420.121 456.739 417.419 456.739C415.459 456.739 414.112 457.676 413.516 459.134H413.362V456.909H410.413V470H413.499V462.33ZM430.749 470.256C434.038 470.256 436.135 468.304 436.357 465.526H433.408C433.143 466.932 432.129 467.741 430.774 467.741C428.848 467.741 427.604 466.131 427.604 463.455C427.604 460.812 428.874 459.227 430.774 459.227C432.257 459.227 433.169 460.182 433.408 461.443H436.357C436.143 458.605 433.928 456.739 430.732 456.739C426.896 456.739 424.476 459.509 424.476 463.506C424.476 467.469 426.837 470.256 430.749 470.256ZM444.685 470.256C447.737 470.256 449.833 468.764 450.379 466.489L447.498 466.165C447.08 467.273 446.058 467.852 444.728 467.852C442.734 467.852 441.413 466.54 441.387 464.298H450.506V463.352C450.506 458.759 447.745 456.739 444.523 456.739C440.773 456.739 438.327 459.491 438.327 463.531C438.327 467.639 440.739 470.256 444.685 470.256ZM441.396 462.219C441.489 460.548 442.725 459.142 444.566 459.142C446.339 459.142 447.532 460.438 447.549 462.219H441.396ZM456.202 452.545H453.116V470H456.202V452.545Z" fill="#BD271E"/>
<rect x="501" y="430" width="194" height="62" rx="10" fill="#BD271E"/>
<path d="M581.453 457.344H584.496C584.436 454.395 581.922 452.307 578.206 452.307C574.542 452.307 571.789 454.369 571.797 457.455C571.797 459.96 573.578 461.401 576.451 462.142L578.436 462.653C580.32 463.131 581.564 463.719 581.573 465.074C581.564 466.565 580.15 467.562 578.087 467.562C576.11 467.562 574.576 466.676 574.448 464.844H571.337C571.465 468.312 574.047 470.264 578.113 470.264C582.297 470.264 584.726 468.176 584.735 465.099C584.726 462.074 582.229 460.693 579.604 460.071L577.968 459.662C576.536 459.321 574.985 458.716 575.002 457.259C575.01 455.946 576.186 454.983 578.164 454.983C580.047 454.983 581.292 455.861 581.453 457.344ZM591.184 470.264C593.238 470.264 594.466 469.301 595.028 468.202H595.13V470H598.096V461.239C598.096 457.778 595.275 456.739 592.778 456.739C590.025 456.739 587.912 457.966 587.23 460.352L590.11 460.761C590.417 459.866 591.287 459.099 592.795 459.099C594.227 459.099 595.011 459.832 595.011 461.119V461.17C595.011 462.057 594.082 462.099 591.772 462.347C589.233 462.619 586.804 463.378 586.804 466.327C586.804 468.901 588.687 470.264 591.184 470.264ZM591.985 467.997C590.699 467.997 589.778 467.409 589.778 466.276C589.778 465.091 590.809 464.597 592.19 464.401C593 464.29 594.619 464.085 595.02 463.761V465.304C595.02 466.761 593.843 467.997 591.985 467.997ZM612.423 456.909H609.142L606.125 466.634H605.988L602.98 456.909H599.69L604.352 470H607.761L612.423 456.909ZM619.908 470.256C622.959 470.256 625.056 468.764 625.601 466.489L622.721 466.165C622.303 467.273 621.28 467.852 619.951 467.852C617.956 467.852 616.635 466.54 616.61 464.298H625.729V463.352C625.729 458.759 622.968 456.739 619.746 456.739C615.996 456.739 613.55 459.491 613.55 463.531C613.55 467.639 615.962 470.256 619.908 470.256ZM616.618 462.219C616.712 460.548 617.948 459.142 619.789 459.142C621.561 459.142 622.755 460.438 622.772 462.219H616.618Z" fill="white"/>
</svg>
