<svg width="727" height="529" viewBox="0 0 727 529" fill="none" xmlns="http://www.w3.org/2000/svg">
<rect width="727" height="529" fill="white"/>
<rect opacity="0.6" x="32" y="37" width="445" height="62" rx="4" fill="#98A2B3"/>
<rect x="501" y="37" width="194" height="62" rx="10" fill="#0077CC"/>
<path d="M576.15 65.4347C575.613 61.5568 572.63 59.3068 568.761 59.3068C564.201 59.3068 560.767 62.6307 560.767 68.2727C560.767 73.9062 564.159 77.2386 568.761 77.2386C572.912 77.2386 575.664 74.554 576.15 71.2216L572.963 71.2045C572.562 73.25 570.892 74.4006 568.804 74.4006C565.974 74.4006 563.946 72.2784 563.946 68.2727C563.946 64.3352 565.957 62.1449 568.812 62.1449C570.934 62.1449 572.596 63.3466 572.963 65.4347H576.15ZM578.909 77H581.995V69.304C581.995 67.642 583.248 66.4659 584.944 66.4659C585.463 66.4659 586.111 66.5597 586.375 66.6449V63.8068C586.094 63.7557 585.608 63.7216 585.267 63.7216C583.767 63.7216 582.515 64.5739 582.037 66.0909H581.901V63.9091H578.909V77ZM593.681 77.2557C596.733 77.2557 598.829 75.7642 599.375 73.4886L596.494 73.1648C596.076 74.2727 595.054 74.8523 593.724 74.8523C591.73 74.8523 590.409 73.5398 590.383 71.2983H599.502V70.3523C599.502 65.7585 596.741 63.7386 593.52 63.7386C589.77 63.7386 587.324 66.4915 587.324 70.5312C587.324 74.6392 589.735 77.2557 593.681 77.2557ZM590.392 69.2188C590.485 67.5483 591.721 66.142 593.562 66.142C595.335 66.142 596.528 67.4375 596.545 69.2188H590.392ZM605.88 77.2642C607.934 77.2642 609.161 76.3011 609.723 75.2017H609.826V77H612.792V68.2386C612.792 64.7784 609.971 63.7386 607.473 63.7386C604.721 63.7386 602.607 64.9659 601.925 67.3523L604.806 67.7614C605.113 66.8665 605.982 66.0994 607.49 66.0994C608.922 66.0994 609.706 66.8324 609.706 68.1193V68.1705C609.706 69.0568 608.777 69.0994 606.468 69.3466C603.928 69.6193 601.499 70.3778 601.499 73.3267C601.499 75.9006 603.382 77.2642 605.88 77.2642ZM606.681 74.9972C605.394 74.9972 604.473 74.4091 604.473 73.2756C604.473 72.0909 605.505 71.5966 606.885 71.4006C607.695 71.2898 609.314 71.0852 609.715 70.7614V72.304C609.715 73.7614 608.539 74.9972 606.681 74.9972ZM622.431 63.9091H619.848V60.7727H616.763V63.9091H614.905V66.2955H616.763V73.5739C616.746 76.0369 618.536 77.2472 620.854 77.179C621.732 77.1534 622.337 76.983 622.669 76.8722L622.15 74.4602C621.979 74.5028 621.63 74.5795 621.246 74.5795C620.471 74.5795 619.848 74.3068 619.848 73.0625V66.2955H622.431V63.9091ZM630.666 77.2557C633.717 77.2557 635.814 75.7642 636.359 73.4886L633.478 73.1648C633.061 74.2727 632.038 74.8523 630.708 74.8523C628.714 74.8523 627.393 73.5398 627.368 71.2983H636.487V70.3523C636.487 65.7585 633.725 63.7386 630.504 63.7386C626.754 63.7386 624.308 66.4915 624.308 70.5312C624.308 74.6392 626.72 77.2557 630.666 77.2557ZM627.376 69.2188C627.47 67.5483 628.706 66.142 630.547 66.142C632.319 66.142 633.512 67.4375 633.529 69.2188H627.376Z" fill="white"/>
<g opacity="0.6">
<rect x="32" y="123" width="151" height="24" rx="4" fill="#D3DAE6"/>
<rect x="209" y="123" width="309" height="24" rx="4" fill="#D3DAE6"/>
<rect x="544" y="123" width="151" height="24" rx="4" fill="#D3DAE6"/>
</g>
<g opacity="0.6">
<rect x="32" y="171" width="151" height="24" rx="4" fill="#D3DAE6"/>
<rect x="209" y="171" width="309" height="24" rx="4" fill="#D3DAE6"/>
<rect x="544" y="171" width="151" height="24" rx="4" fill="#D3DAE6"/>
</g>
<g opacity="0.6">
<rect x="32" y="219" width="151" height="24" rx="4" fill="#D3DAE6"/>
<rect x="209" y="219" width="309" height="24" rx="4" fill="#D3DAE6"/>
<rect x="544" y="219" width="151" height="24" rx="4" fill="#D3DAE6"/>
</g>
<g opacity="0.6">
<rect x="32" y="267" width="151" height="24" rx="4" fill="#D3DAE6"/>
<rect x="209" y="267" width="309" height="24" rx="4" fill="#D3DAE6"/>
<rect x="544" y="267" width="151" height="24" rx="4" fill="#D3DAE6"/>
</g>
<g opacity="0.6">
<rect x="32" y="315" width="151" height="24" rx="4" fill="#D3DAE6"/>
<rect x="209" y="315" width="309" height="24" rx="4" fill="#D3DAE6"/>
<rect x="544" y="315" width="151" height="24" rx="4" fill="#D3DAE6"/>
</g>
<g opacity="0.6">
<rect x="32" y="363" width="151" height="24" rx="4" fill="#D3DAE6"/>
<rect x="209" y="363" width="309" height="24" rx="4" fill="#D3DAE6"/>
<rect x="544" y="363" width="151" height="24" rx="4" fill="#D3DAE6"/>
</g>
<g opacity="0.6">
<rect x="32" y="411" width="151" height="24" rx="4" fill="#D3DAE6"/>
<rect x="209" y="411" width="309" height="24" rx="4" fill="#D3DAE6"/>
<rect x="544" y="411" width="151" height="24" rx="4" fill="#D3DAE6"/>
</g>
<g opacity="0.6">
<rect x="32" y="459" width="151" height="24" rx="4" fill="#D3DAE6"/>
<rect x="209" y="459" width="309" height="24" rx="4" fill="#D3DAE6"/>
<rect x="544" y="459" width="151" height="24" rx="4" fill="#D3DAE6"/>
</g>
</svg>
