<svg width="300" height="150" viewBox="0 0 300 150" fill="none" xmlns="http://www.w3.org/2000/svg">
<path opacity="0.18" d="M300 0H0V150H300V0Z" fill="#5A77AD"/>
<g style="mix-blend-mode:luminosity">
<path fill-rule="evenodd" clip-rule="evenodd" d="M211 27C211 24.7909 212.791 23 215 23H271C273.209 23 275 24.7909 275 27V123C275 125.209 273.209 127 271 127H215C212.791 127 211 125.209 211 123V27Z" fill="#F04E98"/>
<path fill-rule="evenodd" clip-rule="evenodd" d="M25 27C25 24.7909 26.7909 23 29 23H188C190.209 23 192 24.7909 192 27V123C192 125.209 190.209 127 188 127H29C26.7909 127 25 125.209 25 123V27Z" fill="#F04E98"/>
<g opacity="0.5">
<path fill-rule="evenodd" clip-rule="evenodd" d="M33.5641 99C33.5641 96.7909 35.355 95 37.5641 95H58.468C60.6771 95 62.4679 96.7909 62.4679 99V115C62.4679 117.209 60.6771 119 58.4679 119H37.5641C35.355 119 33.5641 117.209 33.5641 115V99ZM33.5641 35C33.5641 32.7909 35.355 31 37.5641 31H100.218C102.427 31 104.218 32.7909 104.218 35V51C104.218 53.2091 102.427 55 100.218 55H37.5641C35.355 55 33.5641 53.2091 33.5641 51V35ZM33.5641 67C33.5641 64.7909 35.355 63 37.5641 63H179.436C181.645 63 183.436 64.7909 183.436 67V83C183.436 85.2091 181.645 87 179.436 87H37.5641C35.355 87 33.5641 85.2091 33.5641 83V67ZM112.782 35C112.782 32.7909 114.573 31 116.782 31H179.436C181.645 31 183.436 32.7909 183.436 35V51C183.436 53.2091 181.645 55 179.436 55H116.782C114.573 55 112.782 53.2091 112.782 51V35ZM71.0321 99C71.0321 96.7909 72.8229 95 75.0321 95H179.436C181.645 95 183.436 96.7909 183.436 99V115C183.436 117.209 181.645 119 179.436 119H75.0321C72.8229 119 71.0321 117.209 71.0321 115V99Z" fill="white"/>
</g>
</g>
</svg>
