<svg width="938" height="500" viewBox="0 0 938 500" fill="none" xmlns="http://www.w3.org/2000/svg">
<rect width="938" height="500" fill="white"/>
<g opacity="0.6">
<rect x="64" y="73" width="277.333" height="18" rx="3" fill="#98A2B3"/>
<rect x="64" y="107" width="286.623" height="10" rx="3" fill="#D3DAE6"/>
<rect x="64" y="125" width="242.471" height="10" rx="3" fill="#D3DAE6"/>
</g>
<rect opacity="0.6" x="496" y="81" width="100" height="8" rx="2" fill="#98A2B3"/>
<rect x="497" y="102" width="378" height="38" rx="2" fill="white" stroke="#98A2B3" stroke-width="2"/>
<rect opacity="0.5" x="496" y="153" width="120" height="6" rx="3" fill="#D3DAE6"/>
<rect opacity="0.6" x="494" y="204" width="100" height="8" rx="2" fill="#98A2B3"/>
<rect x="495" y="225" width="180" height="38" rx="2" fill="white" stroke="#98A2B3" stroke-width="2"/>
<rect opacity="0.5" x="494" y="276" width="120" height="6" rx="3" fill="#D3DAE6"/>
<rect opacity="0.6" x="692" y="204" width="100" height="8" rx="2" fill="#98A2B3"/>
<rect x="693" y="225" width="180" height="38" rx="2" fill="white" stroke="#98A2B3" stroke-width="2"/>
<rect opacity="0.5" x="692" y="276" width="120" height="6" rx="3" fill="#D3DAE6"/>
<g opacity="0.6">
<rect x="64" y="338" width="277.333" height="18" rx="3" fill="#98A2B3"/>
<rect x="64" y="372" width="286.623" height="10" rx="3" fill="#D3DAE6"/>
<rect x="64" y="390" width="242.471" height="10" rx="3" fill="#D3DAE6"/>
</g>
<rect opacity="0.6" x="496" y="346" width="100" height="8" rx="2" fill="#98A2B3"/>
<rect x="497" y="367" width="378" height="38" rx="2" fill="white" stroke="#98A2B3" stroke-width="2"/>
<rect opacity="0.5" x="496" y="418" width="120" height="6" rx="3" fill="#D3DAE6"/>
</svg>
