<svg width="939" height="513" viewBox="0 0 939 513" fill="none" xmlns="http://www.w3.org/2000/svg">
<rect width="939" height="513" fill="white"/>
<g opacity="0.6">
<rect x="64" y="72" width="277.333" height="18" rx="3" fill="#98A2B3"/>
<rect x="64" y="106" width="286.623" height="10" rx="3" fill="#D3DAE6"/>
<rect x="64" y="124" width="242.471" height="10" rx="3" fill="#D3DAE6"/>
</g>
<rect opacity="0.6" x="496" y="80" width="100" height="8" rx="2" fill="#98A2B3"/>
<rect x="497" y="101" width="378" height="38" rx="2" fill="white" stroke="#98A2B3" stroke-width="2"/>
<rect opacity="0.5" x="496" y="152" width="120" height="6" rx="3" fill="#D3DAE6"/>
<g opacity="0.6">
<rect x="495" y="195" width="119.172" height="18" rx="3" fill="#98A2B3"/>
<rect x="495" y="229" width="123.164" height="10" rx="3" fill="#D3DAE6"/>
<rect x="495" y="247" width="104.192" height="10" rx="3" fill="#D3DAE6"/>
</g>
<rect opacity="0.6" x="712" y="203" width="100" height="8" rx="2" fill="#98A2B3"/>
<rect x="713" y="224" width="163" height="38" rx="2" fill="white" stroke="#98A2B3" stroke-width="2"/>
<rect opacity="0.5" x="712" y="275" width="120" height="6" rx="3" fill="#D3DAE6"/>
<g opacity="0.6">
<rect x="64" y="195" width="119.172" height="18" rx="3" fill="#98A2B3"/>
<rect x="64" y="229" width="123.164" height="10" rx="3" fill="#D3DAE6"/>
<rect x="64" y="247" width="104.192" height="10" rx="3" fill="#D3DAE6"/>
</g>
<rect opacity="0.6" x="281" y="203" width="100" height="8" rx="2" fill="#98A2B3"/>
<rect x="282" y="224" width="163" height="38" rx="2" fill="white" stroke="#98A2B3" stroke-width="2"/>
<rect opacity="0.5" x="281" y="275" width="120" height="6" rx="3" fill="#D3DAE6"/>
<g opacity="0.6">
<rect x="64.5" y="350" width="277.333" height="18" rx="3" fill="#98A2B3"/>
<rect x="64.5" y="384" width="286.623" height="10" rx="3" fill="#D3DAE6"/>
<rect x="64.5" y="402" width="242.471" height="10" rx="3" fill="#D3DAE6"/>
</g>
<rect opacity="0.6" x="496.5" y="358" width="100" height="8" rx="2" fill="#98A2B3"/>
<rect x="497.5" y="379" width="378" height="38" rx="2" fill="white" stroke="#98A2B3" stroke-width="2"/>
<rect opacity="0.5" x="496.5" y="430" width="120" height="6" rx="3" fill="#D3DAE6"/>
</svg>
