<svg width="923" height="506" viewBox="0 0 923 506" fill="none" xmlns="http://www.w3.org/2000/svg">
<rect width="923" height="506" fill="white"/>
<rect width="818" height="391" transform="translate(53 58)" fill="white"/>
<g opacity="0.6">
<rect x="77" y="82" width="262.621" height="18" rx="3" fill="#98A2B3"/>
</g>
<g opacity="0.6">
<rect x="77" y="157" width="262.621" height="18" rx="3" fill="#98A2B3"/>
<rect x="77" y="191" width="271.418" height="10" rx="3" fill="#D3DAE6"/>
<rect x="77" y="209" width="229.608" height="10" rx="3" fill="#D3DAE6"/>
</g>
<rect opacity="0.6" x="489" y="165" width="100" height="8" rx="2" fill="#98A2B3"/>
<rect x="490" y="186" width="358" height="38" rx="2" fill="white" stroke="#98A2B3" stroke-width="2"/>
<rect opacity="0.5" x="489" y="237" width="120" height="6" rx="3" fill="#D3DAE6"/>
<rect x="77" y="294" width="770" height="4" fill="#D3DAE6"/>
<g opacity="0.6">
<rect x="77" y="337" width="262.621" height="18" rx="3" fill="#98A2B3"/>
<rect x="77" y="371" width="271.418" height="10" rx="3" fill="#D3DAE6"/>
<rect x="77" y="389" width="229.608" height="10" rx="3" fill="#D3DAE6"/>
</g>
<rect opacity="0.6" x="489" y="345" width="100" height="8" rx="2" fill="#98A2B3"/>
<rect x="490" y="366" width="358" height="38" rx="2" fill="white" stroke="#98A2B3" stroke-width="2"/>
<rect opacity="0.5" x="489" y="417" width="120" height="6" rx="3" fill="#D3DAE6"/>
</svg>
