<svg width="300" height="150" viewBox="0 0 300 150" fill="none" xmlns="http://www.w3.org/2000/svg">
<path opacity="0.18" d="M300 0H0V150H300V0Z" fill="#5A77AD"/>
<rect x="25" y="16" width="66.0526" height="6" rx="2" fill="#7D869C" fill-opacity="0.5"/>
<rect x="25" y="30" width="250" height="24" rx="2" fill="white"/>
<rect x="25.5" y="30.5" width="249" height="23" rx="1.5" stroke="#7D869C" stroke-opacity="0.5"/>
<rect x="25" y="70" width="120" height="24" rx="2" fill="white"/>
<rect x="25.5" y="70.5" width="119" height="23" rx="1.5" stroke="#7D869C" stroke-opacity="0.5"/>
<rect x="169" y="70" width="106" height="24" rx="2" fill="white"/>
<rect x="169.5" y="70.5" width="105" height="23" rx="1.5" stroke="#7D869C" stroke-opacity="0.5"/>
<path d="M266.379 80.1048L263.256 83.1788C263.114 83.3191 262.887 83.3194 262.744 83.1788L259.621 80.1048C259.479 79.9651 259.249 79.9651 259.107 80.1048C258.964 80.2446 258.964 80.4712 259.107 80.611L262.23 83.685C262.657 84.1055 263.344 84.1045 263.77 83.685L266.893 80.611C267.036 80.4712 267.036 80.2446 266.893 80.1048C266.751 79.9651 266.521 79.9651 266.379 80.1048Z" fill="#7D869C" fill-opacity="0.5"/>
<rect x="25" y="110" width="72" height="24" rx="3.64534" fill="#0077CC"/>
<rect x="43" y="120" width="36" height="4" rx="1.2" fill="white"/>
</svg>
