<svg width="300" height="150" viewBox="0 0 300 150" fill="none" xmlns="http://www.w3.org/2000/svg">
<g clip-path="url(#clip0)">
<path opacity="0.18" d="M300 0H0V150H300V0Z" fill="#5A77AD"/>
<path d="M307.887 137.068L299.785 137.821C299.479 137.849 299.252 138.095 299.278 138.37C299.303 138.645 299.572 138.845 299.877 138.817L307.979 138.064L304.279 142.522C304.103 142.734 304.132 143.049 304.345 143.226C304.557 143.402 304.873 143.373 305.049 143.16L308.881 138.543C309.114 138.262 309.227 137.922 309.227 137.583C309.236 137.539 309.239 137.492 309.235 137.445C309.231 137.398 309.219 137.353 309.202 137.312C309.14 136.979 308.966 136.664 308.685 136.431L304.068 132.599C303.855 132.423 303.54 132.452 303.364 132.665C303.187 132.877 303.217 133.192 303.429 133.369L307.887 137.068Z" fill="#5B6272"/>
<path fill-rule="evenodd" clip-rule="evenodd" d="M268.671 140.712L276.773 139.959C277.078 139.93 277.347 140.13 277.372 140.405C277.398 140.68 277.171 140.926 276.865 140.955L268.763 141.707L273.221 145.407C273.433 145.583 273.463 145.899 273.286 146.111C273.11 146.324 272.795 146.353 272.582 146.176L267.965 142.344C267.684 142.111 267.51 141.797 267.448 141.464C267.431 141.422 267.419 141.377 267.415 141.33C267.411 141.283 267.414 141.237 267.423 141.193C267.422 140.854 267.536 140.513 267.769 140.232L271.601 135.615C271.777 135.403 272.093 135.374 272.305 135.55C272.518 135.726 272.547 136.041 272.37 136.254L268.671 140.712Z" fill="#5B6272"/>
<path d="M239.923 148.095L239.17 139.993C239.142 139.687 239.342 139.419 239.617 139.393C239.892 139.368 240.137 139.595 240.166 139.9L240.919 148.002L244.618 143.545C244.795 143.332 245.11 143.303 245.322 143.479C245.535 143.656 245.564 143.971 245.388 144.183L241.556 148.8C241.323 149.081 241.008 149.255 240.675 149.317C240.634 149.335 240.589 149.346 240.542 149.35C240.495 149.355 240.448 149.352 240.404 149.342C240.065 149.343 239.724 149.23 239.444 148.996L234.827 145.164C234.614 144.988 234.585 144.673 234.761 144.46C234.938 144.248 235.253 144.219 235.465 144.395L239.923 148.095Z" fill="#5B6272"/>
<path d="M208.161 152.143L207.274 142.598L204.207 146.295C204.03 146.507 203.715 146.536 203.503 146.36C203.29 146.184 203.261 145.868 203.437 145.656L206.631 141.808C207.16 141.171 208.105 141.083 208.743 141.612L212.59 144.806C212.803 144.982 212.832 145.297 212.656 145.51C212.479 145.722 212.164 145.751 211.952 145.575L208.272 142.521L209.155 152.036L212.21 148.356C212.386 148.143 212.701 148.114 212.914 148.291C213.126 148.467 213.156 148.782 212.979 148.995L209.786 152.842C209.257 153.48 208.311 153.567 207.674 153.038L203.826 149.845C203.614 149.669 203.585 149.353 203.761 149.141C203.937 148.928 204.253 148.899 204.465 149.075L208.161 152.143Z" fill="#5B6272"/>
<g clip-path="url(#clip1)">
<path fill-rule="evenodd" clip-rule="evenodd" d="M175.168 142.87C175.143 142.595 175.345 142.351 175.62 142.326C175.895 142.3 176.139 142.502 176.164 142.777L176.351 144.792C176.445 144.726 176.528 144.642 176.597 144.542L177.507 143.219C177.663 142.991 177.974 142.934 178.202 143.09C178.429 143.246 178.487 143.558 178.331 143.785L176.742 146.097C176.673 146.198 176.589 146.281 176.496 146.347L176.732 148.885L178.811 147.412C178.801 147.298 178.81 147.18 178.841 147.062L179.562 144.351C179.633 144.084 179.906 143.926 180.173 143.997C180.44 144.067 180.599 144.341 180.528 144.608L180.116 146.159C180.084 146.277 180.075 146.395 180.086 146.509L181.737 145.34C181.963 145.18 182.275 145.233 182.434 145.459C182.594 145.684 182.541 145.996 182.315 146.156L180.664 147.325C180.768 147.373 180.882 147.404 181.004 147.413L182.604 147.539C182.879 147.561 183.085 147.802 183.063 148.077C183.041 148.352 182.801 148.558 182.525 148.536L179.729 148.316C179.607 148.306 179.493 148.276 179.389 148.228L177.31 149.701L179.625 150.766C179.718 150.699 179.825 150.648 179.943 150.616L182.651 149.885C182.917 149.813 183.192 149.971 183.264 150.237C183.336 150.504 183.178 150.778 182.911 150.85L181.362 151.269C181.244 151.301 181.137 151.352 181.044 151.418L182.883 152.263C183.134 152.379 183.243 152.676 183.128 152.927C183.013 153.177 182.716 153.287 182.465 153.172L180.626 152.327C180.637 152.44 180.667 152.555 180.72 152.665L181.411 154.114C181.53 154.363 181.424 154.661 181.175 154.78C180.926 154.899 180.627 154.793 180.509 154.544L179.301 152.012C179.248 151.902 179.218 151.788 179.207 151.674L176.892 150.609L177.127 153.147C177.231 153.195 177.329 153.261 177.415 153.348L179.403 155.327C179.599 155.522 179.599 155.839 179.404 156.034C179.209 156.23 178.893 156.231 178.697 156.036L177.56 154.903C177.473 154.817 177.376 154.75 177.272 154.702L177.459 156.717C177.485 156.992 177.283 157.236 177.008 157.261C176.733 157.287 176.489 157.085 176.463 156.81L176.276 154.795C176.183 154.861 176.099 154.944 176.03 155.045L175.121 156.368C174.965 156.595 174.653 156.653 174.426 156.497C174.198 156.34 174.14 156.029 174.297 155.802L175.886 153.49C175.955 153.389 176.039 153.305 176.132 153.239L175.896 150.702L173.816 152.175C173.827 152.289 173.818 152.407 173.787 152.525L173.066 155.236C172.995 155.502 172.721 155.661 172.454 155.59C172.187 155.519 172.029 155.246 172.1 154.979L172.512 153.427C172.543 153.309 172.552 153.191 172.542 153.078L170.89 154.247C170.665 154.407 170.353 154.353 170.193 154.128C170.034 153.903 170.087 153.591 170.312 153.431L171.964 152.262C171.86 152.214 171.746 152.183 171.624 152.174L170.024 152.048C169.748 152.026 169.543 151.785 169.564 151.51C169.586 151.235 169.827 151.029 170.102 151.051L172.899 151.271C173.02 151.28 173.135 151.311 173.238 151.359L175.318 149.886L173.003 148.821C172.909 148.887 172.803 148.939 172.685 148.97L169.977 149.702C169.71 149.774 169.436 149.616 169.364 149.349C169.292 149.083 169.45 148.808 169.716 148.736L171.266 148.318C171.384 148.286 171.49 148.235 171.583 148.169L169.745 147.323C169.494 147.208 169.384 146.911 169.5 146.66C169.615 146.409 169.912 146.3 170.163 146.415L172.001 147.26C171.991 147.146 171.96 147.032 171.908 146.922L171.216 145.473C171.098 145.224 171.203 144.926 171.453 144.807C171.702 144.688 172 144.793 172.119 145.043L173.327 147.574C173.379 147.685 173.41 147.799 173.42 147.913L175.736 148.977L175.5 146.44C175.396 146.392 175.299 146.325 175.212 146.239L173.225 144.26C173.029 144.065 173.028 143.748 173.223 143.553C173.418 143.357 173.735 143.356 173.93 143.551L175.068 144.684C175.154 144.77 175.252 144.837 175.356 144.885L175.168 142.87Z" fill="#5B6272"/>
</g>
<g clip-path="url(#clip2)">
<path d="M139.9 152.484L140.49 158.835C140.536 159.327 141.019 159.692 141.561 159.641L148.547 158.992C149.088 158.942 149.497 158.495 149.451 158.002L148.861 151.652C148.816 151.16 148.332 150.795 147.79 150.845L140.804 151.494C140.264 151.545 139.854 151.991 139.9 152.484ZM142.72 150.403L142.804 151.309L145.791 151.031L145.707 150.126L147.706 149.94C148.802 149.838 149.765 150.571 149.857 151.559L150.447 157.91C150.54 158.906 149.718 159.796 148.631 159.897L141.645 160.546C140.55 160.648 139.586 159.916 139.494 158.927L138.904 152.577C138.812 151.581 139.633 150.69 140.72 150.589L142.72 150.403ZM144.38 146.682C144.383 146.699 144.386 146.716 144.387 146.733L145.127 154.699C145.153 154.974 144.951 155.218 144.676 155.243C144.401 155.269 144.157 155.067 144.132 154.792L143.392 146.826C143.391 146.82 143.391 146.815 143.39 146.809L141.755 148.88C141.564 149.127 141.22 149.159 140.988 148.952C140.754 148.744 140.72 148.373 140.911 148.126L142.663 145.905C143.238 145.16 144.264 145.067 144.964 145.692L147.095 147.552C147.329 147.759 147.363 148.13 147.172 148.377C146.982 148.624 146.638 148.656 146.404 148.448L144.38 146.682Z" fill="#5B6272"/>
</g>
<g clip-path="url(#clip3)">
<path d="M110.182 155.466L113.566 160.909L115.89 154.936L112.572 150.207L110.182 155.466ZM112.386 148.2L117.016 154.8L113.773 163.136L109.05 155.54L112.386 148.2Z" fill="#5B6272"/>
</g>
<g clip-path="url(#clip4)">
<path d="M304.089 101.208C304.335 101.334 304.431 101.636 304.304 101.881C304.178 102.127 303.876 102.223 303.631 102.096C302.79 101.663 301.843 101.475 300.88 101.564C298.131 101.82 296.109 104.256 296.364 107.005C296.619 109.755 299.056 111.777 301.805 111.521C304.555 111.266 306.577 108.83 306.321 106.08C306.296 105.805 306.498 105.562 306.773 105.536C307.048 105.511 307.291 105.713 307.317 105.988C307.623 109.287 305.197 112.211 301.898 112.517C298.598 112.824 295.675 110.397 295.368 107.098C295.062 103.798 297.488 100.875 300.788 100.569C301.942 100.461 303.08 100.687 304.089 101.208ZM306.716 99.5158L306.993 102.503C307.07 103.328 306.463 104.059 305.638 104.135L302.651 104.413C302.376 104.438 302.133 104.236 302.107 103.961C302.082 103.686 302.284 103.443 302.559 103.417L305.546 103.14C305.821 103.114 306.023 102.87 305.997 102.595L305.72 99.6083C305.694 99.3333 305.897 99.0897 306.172 99.0642C306.447 99.0386 306.69 99.2408 306.716 99.5158Z" fill="#5B6272"/>
</g>
<path d="M270.035 115.477C266.735 115.784 263.812 113.357 263.506 110.058C263.199 106.758 265.625 103.835 268.925 103.529C272.224 103.222 275.148 105.648 275.454 108.948C275.761 112.247 273.334 115.171 270.035 115.477ZM269.942 114.481C272.692 114.226 274.714 111.79 274.458 109.04C274.203 106.291 271.767 104.269 269.017 104.524C266.268 104.78 264.246 107.216 264.501 109.965C264.757 112.715 267.193 114.737 269.942 114.481ZM269.659 113.438C269.186 113.482 268.817 113.175 268.773 112.702C268.728 112.224 269.035 111.854 269.508 111.81C269.98 111.766 270.344 112.074 270.389 112.552C270.433 113.025 270.132 113.394 269.659 113.438ZM267.233 108.022C267.185 106.872 267.907 106.034 269.194 105.914C270.407 105.801 271.347 106.476 271.443 107.513C271.511 108.246 271.205 108.844 270.575 109.307C270.048 109.688 269.913 109.932 269.956 110.392L269.984 110.695L269.894 110.804L269.076 110.88L268.967 110.79L268.927 110.361C268.862 109.718 269.125 109.234 269.77 108.762C270.264 108.392 270.42 108.108 270.378 107.654C270.329 107.121 269.879 106.787 269.248 106.846C268.598 106.906 268.223 107.316 268.233 107.941L268.142 108.043L267.342 108.117L267.233 108.022Z" fill="#5B6272"/>
<g clip-path="url(#clip5)">
<path fill-rule="evenodd" clip-rule="evenodd" d="M242.642 112.498C242.616 112.223 242.818 111.98 243.093 111.954C243.368 111.929 243.612 112.131 243.638 112.406L243.961 115.891C244.063 116.991 243.255 117.965 242.155 118.067L234.189 118.807C233.089 118.909 232.115 118.101 232.013 117.001L231.273 109.035C231.171 107.935 231.979 106.961 233.079 106.859L236.564 106.535C236.839 106.509 237.083 106.711 237.108 106.986C237.134 107.261 236.932 107.505 236.657 107.531L233.172 107.854C232.622 107.905 232.217 108.393 232.268 108.943L233.008 116.908C233.06 117.458 233.547 117.863 234.097 117.811L242.062 117.071C242.612 117.02 243.017 116.533 242.966 115.983L242.642 112.498ZM237.576 113.309C237.399 113.522 237.084 113.551 236.872 113.375C236.659 113.198 236.63 112.883 236.806 112.67L242.345 105.998L239.551 106.257C239.276 106.283 239.033 106.081 239.007 105.806C238.982 105.531 239.184 105.287 239.459 105.262L242.944 104.938C243.494 104.887 243.981 105.291 244.032 105.841L244.356 109.326C244.381 109.601 244.179 109.845 243.904 109.87C243.629 109.896 243.386 109.694 243.36 109.419L243.103 106.65L237.576 113.309Z" fill="#5B6272"/>
</g>
<g clip-path="url(#clip6)">
<path d="M205.662 114.427L205.338 110.942C205.312 110.667 205.069 110.465 204.794 110.491C204.519 110.516 204.317 110.76 204.342 111.035L204.666 114.52L201.181 114.843C200.906 114.869 200.704 115.113 200.729 115.387C200.755 115.662 200.999 115.865 201.273 115.839L204.758 115.515L205.082 119C205.108 119.275 205.351 119.477 205.626 119.452C205.901 119.426 206.103 119.183 206.078 118.908L205.754 115.423L209.239 115.099C209.514 115.074 209.716 114.83 209.691 114.555C209.665 114.28 209.422 114.078 209.147 114.103L205.662 114.427ZM205.904 122.439C201.779 122.822 198.125 119.789 197.742 115.665C197.359 111.541 200.392 107.887 204.516 107.503C208.641 107.12 212.295 110.153 212.678 114.277C213.061 118.402 210.028 122.056 205.904 122.439Z" fill="#5B6272"/>
</g>
<g clip-path="url(#clip7)">
<path fill-rule="evenodd" clip-rule="evenodd" d="M173.799 117.387L177.284 117.063C177.559 117.038 177.802 117.24 177.828 117.515C177.854 117.79 177.651 118.034 177.376 118.059L173.891 118.383L174.215 121.868C174.241 122.143 174.038 122.386 173.764 122.412C173.489 122.437 173.245 122.235 173.219 121.96L172.896 118.475L169.411 118.799C169.136 118.825 168.892 118.622 168.867 118.347C168.841 118.073 169.043 117.829 169.318 117.803L172.803 117.48L172.479 113.995C172.454 113.72 172.656 113.476 172.931 113.451C173.206 113.425 173.45 113.627 173.475 113.902L173.799 117.387ZM172.654 110.463C176.771 110.081 180.433 113.12 180.815 117.237C181.198 121.355 178.159 125.017 174.041 125.399C169.923 125.782 166.262 122.743 165.879 118.625C165.497 114.507 168.536 110.846 172.654 110.463ZM172.735 111.342C169.096 111.68 166.42 114.904 166.758 118.543C167.096 122.182 170.32 124.859 173.959 124.52C177.598 124.182 180.275 120.958 179.937 117.319C179.599 113.68 176.374 111.004 172.735 111.342Z" fill="#5B6272"/>
</g>
<path d="M138.195 116.74C137.917 116.598 137.592 116.823 137.622 117.151L138.47 126.278C138.5 126.606 138.862 126.767 139.109 126.576L145.854 121.346C146.093 121.161 146.057 120.776 145.788 120.638L138.195 116.74ZM138.652 115.851L146.245 119.748C147.165 120.221 147.284 121.503 146.467 122.136L139.721 127.366C138.845 128.046 137.577 127.477 137.474 126.371L136.626 117.243C136.523 116.137 137.665 115.344 138.652 115.851Z" fill="#5B6272"/>
<g clip-path="url(#clip8)">
<path d="M110.351 126.294L114.831 125.878C115.106 125.852 115.309 125.609 115.283 125.334C115.258 125.059 115.014 124.857 114.739 124.882L104.782 125.807C104.507 125.833 104.305 126.076 104.33 126.351C104.356 126.626 104.599 126.829 104.874 126.803L109.355 126.387L109.748 130.619C109.787 131.031 110.04 131.345 110.315 131.319C110.59 131.293 110.782 130.938 110.744 130.526L110.351 126.294ZM105.72 119.694L112.69 119.047L113.245 125.021L106.275 125.669L105.72 119.694ZM105.727 116.681L112.128 116.086C112.835 116.02 113.45 116.413 113.501 116.963L113.594 117.959C113.645 118.508 113.113 119.007 112.406 119.073L106.005 119.668C105.298 119.733 104.683 119.341 104.632 118.791L104.54 117.795C104.489 117.245 105.02 116.746 105.727 116.681Z" fill="#5B6272"/>
</g>
<g clip-path="url(#clip9)">
<path fill-rule="evenodd" clip-rule="evenodd" d="M78.488 129.254L82.9687 128.838C83.2436 128.812 83.4458 128.569 83.4203 128.294C83.3947 128.019 83.1511 127.817 82.8762 127.842L72.9191 128.767C72.6441 128.793 72.4419 129.036 72.4674 129.311C72.493 129.586 72.7366 129.789 73.0116 129.763L77.4923 129.347L77.8854 133.578C77.9237 133.991 78.1777 134.305 78.4526 134.279C78.7276 134.253 78.9194 133.898 78.8811 133.486L78.488 129.254ZM73.8576 122.654L74.8533 122.562L75.4083 128.536L74.4126 128.628L73.8576 122.654ZM79.8319 122.099L80.8276 122.007L81.3826 127.981L80.3869 128.073L79.8319 122.099ZM73.9571 120.636C73.753 120.655 73.6784 120.725 73.6726 120.663L73.7651 121.659C73.7593 121.596 73.8455 121.651 74.0496 121.632L80.4506 121.037C80.6547 121.018 80.7293 120.948 80.7351 121.011L80.6426 120.015C80.6484 120.078 80.5622 120.023 80.3581 120.042L73.9571 120.636ZM73.8646 119.641L80.2656 119.046C80.9727 118.98 81.5872 119.373 81.6383 119.923L81.7308 120.919C81.7819 121.468 81.2502 121.967 80.5431 122.033L74.1421 122.628C73.4351 122.693 72.8205 122.301 72.7694 121.751L72.6769 120.755C72.6258 120.205 73.1576 119.706 73.8646 119.641Z" fill="#5B6272"/>
</g>
<g clip-path="url(#clip10)">
<path d="M50.1217 125.008L48.8723 123.971L40.7434 133.765L41.0209 136.752L44.008 136.475L52.1369 126.681L50.8921 125.647L43.6641 134.351C43.5755 134.457 43.4526 134.518 43.3252 134.529C43.1977 134.541 43.0657 134.504 42.9592 134.417C42.7469 134.24 42.7177 133.925 42.8937 133.712L50.1217 125.008ZM48.7798 122.975C49.0347 122.952 49.2987 123.026 49.5109 123.202L52.7755 125.911C53.2009 126.263 53.2596 126.895 52.9063 127.319L44.7774 137.113C44.6086 137.318 44.3644 137.446 44.1005 137.47L41.1134 137.748C40.5637 137.799 40.0762 137.394 40.0252 136.845L39.7477 133.857C39.7232 133.594 39.8041 133.33 39.974 133.126L48.1029 123.332C48.2791 123.12 48.5249 122.999 48.7798 122.975ZM44.008 136.475L41.0209 136.752L40.7434 133.765L44.008 136.475Z" fill="#5B6272"/>
</g>
<path fill-rule="evenodd" clip-rule="evenodd" d="M10.0858 128.077C10.0602 127.802 10.2704 127.557 10.5374 127.532C10.8123 127.507 11.0564 127.714 11.0815 127.984L12.0989 138.936C12.1245 139.211 11.9143 139.456 11.6474 139.481C11.3724 139.506 11.1283 139.299 11.1032 139.029L10.0858 128.077ZM17.0558 127.429C17.0302 127.154 17.2404 126.91 17.5074 126.885C17.7823 126.859 18.0264 127.066 18.0515 127.337L19.0689 138.289C19.0945 138.564 18.8843 138.808 18.6173 138.833C18.3424 138.859 18.0983 138.652 18.0732 138.381L17.0558 127.429Z" fill="#5B6272"/>
<g clip-path="url(#clip11)">
<path d="M298.938 80.6544C298.113 80.731 297.382 80.1244 297.305 79.2995C297.229 78.4747 297.835 77.7439 298.66 77.6672C299.485 77.5906 300.216 78.1972 300.292 79.022C300.369 79.8469 299.763 80.5777 298.938 80.6544ZM298.845 79.6587C299.12 79.6331 299.322 79.3895 299.297 79.1145C299.271 78.8396 299.028 78.6374 298.753 78.6629C298.478 78.6885 298.275 78.9321 298.301 79.207C298.327 79.482 298.57 79.6842 298.845 79.6587ZM301.684 75.7388C301.893 75.9194 301.915 76.2352 301.735 76.444C301.554 76.6529 301.238 76.6757 301.029 76.495C300.329 75.8892 299.415 75.5884 298.475 75.6758C297.542 75.7625 296.705 76.2198 296.129 76.9349C295.955 77.1499 295.641 77.1837 295.426 77.0104C295.211 76.837 295.177 76.5223 295.35 76.3073C296.095 75.3839 297.178 74.792 298.383 74.6801C299.597 74.5673 300.78 74.9566 301.684 75.7388ZM303.497 73.4223C303.706 73.603 303.729 73.9187 303.548 74.1276C303.368 74.3364 303.052 74.3593 302.843 74.1786C301.57 73.0771 299.908 72.5298 298.198 72.6887C296.501 72.8463 294.979 73.6783 293.93 74.9786C293.757 75.1936 293.442 75.2274 293.227 75.054C293.012 74.8807 292.978 74.5659 293.152 74.351C294.368 72.8424 296.137 71.8758 298.105 71.6929C300.089 71.5087 302.02 72.1444 303.497 73.4223ZM305.311 71.1059C305.52 71.2865 305.543 71.6023 305.362 71.8111C305.181 72.02 304.866 72.0428 304.657 71.8621C302.811 70.2649 300.4 69.4712 297.92 69.7015C295.46 69.93 293.252 71.1368 291.732 73.0223C291.558 73.2373 291.244 73.271 291.029 73.0977C290.814 72.9244 290.78 72.6096 290.953 72.3947C292.641 70.301 295.096 68.9596 297.828 68.7058C300.581 68.45 303.261 69.3323 305.311 71.1059Z" fill="#5B6272"/>
</g>
<g clip-path="url(#clip12)">
<path d="M265.439 82.0301L266.571 80.6656C266.644 80.6474 266.72 80.6344 266.797 80.6272C267.622 80.5506 268.353 81.1571 268.43 81.982C268.506 82.8069 267.9 83.5377 267.075 83.6143C266.25 83.691 265.519 83.0844 265.443 82.2595C265.435 82.1821 265.434 82.1055 265.439 82.0301ZM268.098 78.8261L268.767 78.0205C269.146 78.1941 269.501 78.4218 269.821 78.6987C270.03 78.8794 270.053 79.1952 269.872 79.404C269.691 79.6128 269.375 79.6357 269.167 79.455C268.849 79.1799 268.487 78.9676 268.098 78.8261ZM270.051 76.4725L270.697 75.6942C271.026 75.897 271.339 76.1268 271.635 76.3823C271.843 76.563 271.866 76.8787 271.686 77.0876C271.505 77.2964 271.189 77.3192 270.98 77.1386C270.69 76.887 270.379 76.6644 270.051 76.4725ZM265.407 75.8056C264.087 76.1325 262.92 76.8805 262.067 77.9386C261.894 78.1536 261.579 78.1873 261.364 78.014C261.149 77.8407 261.116 77.5259 261.289 77.3109C262.505 75.8024 264.274 74.8358 266.242 74.6529C266.286 74.6489 266.329 74.6453 266.372 74.642L265.407 75.8056ZM271.956 74.178L272.597 73.4053C272.891 73.6093 273.175 73.8297 273.448 74.0658C273.657 74.2465 273.68 74.5623 273.499 74.7711C273.319 74.9799 273.003 75.0028 272.794 74.8221C272.526 74.5902 272.246 74.3753 271.956 74.178ZM267.994 72.6887C267.359 72.6112 266.711 72.6008 266.057 72.6615C263.597 72.89 261.389 74.0968 259.869 75.9823C259.696 76.1972 259.381 76.231 259.166 76.0577C258.951 75.8844 258.917 75.5696 259.09 75.3546C260.778 73.2609 263.233 71.9196 265.965 71.6658C266.905 71.5784 267.837 71.6238 268.738 71.7921L267.994 72.6887ZM266.982 82.6186C267.257 82.5931 267.459 82.3495 267.434 82.0745C267.408 81.7996 267.165 81.5974 266.89 81.6229C266.615 81.6485 266.413 81.8921 266.438 82.167C266.464 82.442 266.707 82.6442 266.982 82.6186ZM261.674 84.1161C261.497 84.3286 261.182 84.3579 260.97 84.1815C260.757 84.0051 260.728 83.6899 260.904 83.4774L272.006 70.2473C272.182 70.0349 272.498 70.0056 272.71 70.1819C272.923 70.3583 272.952 70.6735 272.775 70.886L261.674 84.1161Z" fill="#5B6272"/>
</g>
<path fill-rule="evenodd" clip-rule="evenodd" d="M234.669 82.8054L233.661 82.899L232.988 85.7767L231.62 85.9037L232.293 83.0261L230.844 83.1608L230.946 81.8959L232.586 81.7435L233.024 79.89L231.582 80.0241L231.691 78.7575L233.324 78.6058L234.007 75.6861L235.369 75.5596L234.686 78.4793L235.7 78.3851L236.382 75.4654L237.751 75.3383L237.068 78.258L238.571 78.1183L238.47 79.3832L236.775 79.5406L236.337 81.3941L237.827 81.2556L237.725 82.5215L236.037 82.6783L235.37 85.5553L234.002 85.6824L234.669 82.8054ZM233.954 81.6164L234.962 81.5228L235.407 79.6687L234.392 79.7629L233.954 81.6154L233.954 81.6164Z" fill="#5B6272"/>
<g clip-path="url(#clip13)">
<path d="M202.686 76.9853C202.361 76.836 201.981 76.8713 201.69 77.0778L197.046 80.3667C196.754 80.5732 196.595 80.9196 196.628 81.2753L197.155 86.9415C197.188 87.2972 197.408 87.6083 197.733 87.7576L202.903 90.1348C203.227 90.2841 203.607 90.2488 203.899 90.0423L208.542 86.7534C208.834 86.5469 208.993 86.2005 208.96 85.8448L208.434 80.1786C208.401 79.8229 208.18 79.5118 207.856 79.3625L202.686 76.9853ZM203.103 76.0767L208.274 78.454C208.923 78.7525 209.363 79.3746 209.43 80.0861L209.956 85.7523C210.022 86.4638 209.704 87.1564 209.12 87.5694L204.477 90.8584C203.893 91.2713 203.134 91.3419 202.485 91.0434L197.315 88.6661C196.666 88.3676 196.225 87.7455 196.159 87.034L195.633 81.3678C195.566 80.6563 195.885 79.9636 196.468 79.5507L201.112 76.2617C201.695 75.8487 202.454 75.7782 203.103 76.0767Z" fill="#5B6272"/>
</g>
<g clip-path="url(#clip14)">
<path d="M171.821 87.4903C170.068 85.4049 170.135 82.3004 171.68 79.3683C168.213 79.5695 165.314 82.201 164.966 85.6882C164.58 89.5597 167.485 93.0193 171.457 93.4153C174.432 93.7303 177.294 92.1794 178.654 89.5148C175.888 89.9493 173.341 89.2938 171.821 87.4903Z" fill="#5B6272"/>
</g>
<g clip-path="url(#clip15)">
<path fill-rule="evenodd" clip-rule="evenodd" d="M137.831 81.5606C141.949 81.178 145.61 84.2168 145.992 88.3347C146.375 92.4525 143.336 96.1137 139.218 96.4962C135.1 96.8788 131.439 93.84 131.057 89.7221C130.674 85.6043 133.713 81.9431 137.831 81.5606ZM134.495 88.9005C134.22 88.9261 134.018 89.1697 134.044 89.4447C134.069 89.7196 134.313 89.9218 134.588 89.8963L142.554 89.1563C142.829 89.1307 143.031 88.8871 143.005 88.6122C142.98 88.3372 142.736 88.135 142.461 88.1605L134.495 88.9005Z" fill="#5B6272"/>
</g>
<g clip-path="url(#clip16)">
<path fill-rule="evenodd" clip-rule="evenodd" d="M105.968 84.5205C110.086 84.138 113.747 87.1768 114.13 91.2946C114.512 95.4125 111.473 99.0737 107.355 99.4562C103.238 99.8388 99.5764 96.8 99.1938 92.6821C98.8113 88.5643 101.85 84.9031 105.968 84.5205ZM106.05 85.3991C102.411 85.7372 99.7343 88.9615 100.072 92.6005C100.41 96.2395 103.635 98.9157 107.274 98.5777C110.913 98.2396 113.589 95.0153 113.251 91.3762C112.913 87.7372 109.689 85.061 106.05 85.3991ZM102.633 91.8605L110.598 91.1205C110.873 91.095 111.117 91.2972 111.142 91.5721C111.168 91.8471 110.966 92.0907 110.691 92.1162L102.725 92.8562C102.45 92.8818 102.207 92.6796 102.181 92.4046C102.155 92.1297 102.358 91.8861 102.633 91.8605Z" fill="#5B6272"/>
</g>
<path d="M74.5126 93.4685L69.6816 93.9173C69.4068 93.9428 69.163 93.7405 69.1375 93.4657C69.1119 93.1909 69.3143 92.9471 69.5891 92.9216L74.4207 92.4727L71.9871 90.4103C71.7909 90.2449 71.7902 89.9672 71.9848 89.7918C72.1775 89.6166 72.493 89.6075 72.6912 89.7737L75.9616 92.5458C76.1361 92.6939 76.1584 92.9344 76.0142 93.1122L73.3104 96.4393C73.2202 96.5496 73.0866 96.6139 72.9462 96.6269C72.8317 96.6376 72.713 96.6135 72.6128 96.5516C72.3892 96.415 72.3387 96.142 72.5011 95.9432L74.5126 93.4685ZM76.1732 97.3315L81.0044 96.8827C81.2792 96.8571 81.523 97.0594 81.5485 97.3343C81.574 97.6091 81.3717 97.8528 81.0969 97.8784L76.2655 98.3272L78.6989 100.389C78.895 100.555 78.8957 100.833 78.7011 101.008C78.6141 101.087 78.5018 101.133 78.3873 101.143C78.2469 101.156 78.1037 101.118 77.9948 101.026L74.7243 98.2539C74.5499 98.1058 74.5275 97.8653 74.6717 97.6876L77.3755 94.3604C77.5398 94.1606 77.8516 94.1114 78.0732 94.2482C78.2967 94.3847 78.3472 94.6577 78.1849 94.8565L76.1732 97.3315Z" fill="#5B6272"/>
<path d="M50.3789 97.098C50.3916 97.135 50.4001 97.174 50.4039 97.2146C50.405 97.226 50.4056 97.2373 50.4059 97.2485C50.4567 97.6464 50.3486 98.0635 50.0722 98.3965L48.1562 100.705C47.9799 100.917 47.6646 100.947 47.4522 100.77C47.2397 100.594 47.2104 100.279 47.3867 100.066L49.2477 97.8242L37.008 98.9612C36.7331 98.9867 36.4895 98.7846 36.4639 98.5096C36.4384 98.2346 36.6406 97.991 36.9155 97.9655L48.9849 96.8443L46.9289 95.1378C46.7164 94.9614 46.6871 94.6462 46.8635 94.4337C47.0399 94.2212 47.3551 94.1919 47.5676 94.3683L49.876 96.2843C50.1382 96.5019 50.3074 96.79 50.3789 97.098ZM36.5455 93.9826L43.5155 93.3351C43.7905 93.3096 44.0341 93.5118 44.0596 93.7867C44.0852 94.0617 43.883 94.3053 43.608 94.3309L36.638 94.9783C36.3631 95.0039 36.1195 94.8017 36.0939 94.5267C36.0684 94.2518 36.2706 94.0082 36.5455 93.9826ZM37.2855 101.948L44.2555 101.301C44.5305 101.275 44.7741 101.477 44.7996 101.752C44.8252 102.027 44.623 102.271 44.348 102.297L37.378 102.944C37.1031 102.97 36.8595 102.767 36.8339 102.492C36.8084 102.217 37.0106 101.974 37.2855 101.948Z" fill="#5B6272"/>
<g clip-path="url(#clip17)">
<path fill-rule="evenodd" clip-rule="evenodd" d="M4.60421 101.35C4.59855 101.389 4.59736 101.429 4.60113 101.47C4.60219 101.481 4.60361 101.492 4.6054 101.503C4.62883 101.904 4.81185 102.294 5.14486 102.57L7.45331 104.486C7.66579 104.663 7.98102 104.633 8.15738 104.421C8.33375 104.208 8.30446 103.893 8.09198 103.717L5.84981 101.856L18.0895 100.719C18.3645 100.693 18.5667 100.45 18.5411 100.175C18.5156 99.8996 18.272 99.6974 17.997 99.723L5.92765 100.844L7.63413 98.7882C7.81049 98.5757 7.78121 98.2605 7.56872 98.0841C7.35623 97.9078 7.04101 97.937 6.86464 98.1495L4.94864 100.458C4.73105 100.72 4.6178 101.034 4.60421 101.35ZM17.627 95.7401L10.657 96.3876C10.3821 96.4132 10.1799 96.6568 10.2054 96.9317C10.231 97.2067 10.4746 97.4089 10.7495 97.3833L17.7195 96.7358C17.9945 96.7103 18.1967 96.4667 18.1711 96.1917C18.1456 95.9168 17.902 95.7146 17.627 95.7401ZM18.367 103.706L11.397 104.353C11.1221 104.379 10.9199 104.622 10.9454 104.897C10.9709 105.172 11.2146 105.375 11.4895 105.349L18.4595 104.702C18.7345 104.676 18.9366 104.432 18.9111 104.157C18.8856 103.882 18.642 103.68 18.367 103.706Z" fill="#5B6272"/>
</g>
<g clip-path="url(#clip18)">
<path d="M294.612 44.9012L296.603 44.7162L296.233 40.7334L294.242 40.9184L294.612 44.9012Z" fill="#5B6272"/>
<path d="M290.629 45.2712L292.62 45.0862L292.25 41.1033L290.259 41.2883L290.629 45.2712Z" fill="#5B6272"/>
<path d="M298.62 44.5289L300.611 44.3439L300.241 40.361L298.25 40.546L298.62 44.5289Z" fill="#5B6272"/>
<path d="M291.474 48.9589L292.47 48.8664L292.248 46.4767L291.252 46.5692L291.474 48.9589Z" fill="#5B6272"/>
<path d="M294.137 48.7114L295.134 48.6188L294.912 46.2291L293.915 46.3217L294.137 48.7114Z" fill="#5B6272"/>
<path d="M296.801 48.464L297.797 48.3715L297.575 45.9818L296.579 46.0743L296.801 48.464Z" fill="#5B6272"/>
<path d="M299.464 48.2166L300.46 48.1241L300.238 45.7343L299.242 45.8268L299.464 48.2166Z" fill="#5B6272"/>
<path d="M286.994 38.5791L287.646 45.5977L288.642 45.5052L288.984 49.1877L289.98 49.0952L289.638 45.4127L301.586 44.3027L301.929 47.9852L302.924 47.8927L302.582 44.2102L303.578 44.1177L302.926 37.0991L286.994 38.5791ZM288.545 44.4609L302.485 43.1659L302.023 38.1873L288.083 39.4823L288.545 44.4609Z" fill="#5B6272"/>
</g>
<path d="M263.687 52.0158C263.905 52.3657 264.431 52.3168 264.581 51.9328L267.824 43.5971C267.853 43.5211 267.864 43.4391 267.854 43.3582C267.837 43.2089 267.792 42.967 267.706 42.6641C267.563 42.1619 267.354 41.6652 267.063 41.2059C266.214 39.8683 264.857 39.1288 262.959 39.3051C261.06 39.4814 259.863 40.4584 259.275 41.9294C259.073 42.4345 258.959 42.9612 258.911 43.481C258.883 43.7946 258.883 44.0407 258.893 44.1906C258.899 44.2719 258.924 44.3506 258.967 44.4198L263.687 52.0158ZM263.282 42.7901C262.732 42.8412 262.328 43.3284 262.379 43.8783C262.43 44.4282 262.917 44.8326 263.467 44.7815C264.017 44.7304 264.422 44.2432 264.371 43.6933C264.319 43.1434 263.832 42.739 263.282 42.7901ZM259.887 44.0047C259.886 43.8978 259.891 43.7501 259.907 43.572C259.946 43.1422 260.041 42.7081 260.203 42.3005C260.658 41.164 261.544 40.4408 263.051 40.3008C264.558 40.1608 265.563 40.7083 266.218 41.7417C266.454 42.1123 266.626 42.5217 266.744 42.9369C266.793 43.1089 266.825 43.2532 266.844 43.3585L264.011 50.6383L259.887 44.0047Z" fill="#5B6272"/>
<g clip-path="url(#clip19)">
<path d="M234.549 45.4594C235.02 45.4156 235.444 45.8262 235.495 46.3758L236.327 55.3372C236.378 55.8869 236.038 56.3685 235.566 56.4122L225.325 57.3637C224.854 57.4074 224.43 56.9969 224.379 56.4472L223.546 47.4858C223.495 46.9362 223.836 46.4546 224.307 46.4108L231.42 45.7501L231.346 44.9535C231.131 42.6439 232.74 40.6059 234.94 40.4015C237.14 40.1972 239.097 41.9039 239.311 44.2135L239.385 45.0101L238.39 45.1026L238.33 44.4654C238.159 42.6176 236.682 41.244 235.032 41.3973C233.383 41.5505 232.184 43.1726 232.356 45.0203L232.415 45.6576L234.549 45.4594ZM225.375 56.3547L235.332 55.4297L234.499 46.4683L224.542 47.3933L225.375 56.3547ZM231.004 52.1103L231.615 53.2642L228.628 53.5417L229.017 52.2949C228.683 52.0315 228.45 51.6247 228.406 51.152C228.325 50.2726 228.927 49.4967 229.752 49.4201C230.576 49.3435 231.312 49.9951 231.393 50.8745C231.437 51.3472 231.284 51.7899 231.004 52.1103Z" fill="#5B6272"/>
</g>
<g clip-path="url(#clip20)">
<path d="M195.574 49.0801L195.5 48.2835C195.285 45.9739 196.895 43.9359 199.094 43.7315C201.294 43.5272 203.251 45.2339 203.466 47.5435L203.54 48.3401L204.678 48.2344C205.149 48.1906 205.572 48.6012 205.624 49.1508L206.456 58.1122C206.507 58.6619 206.166 59.1435 205.695 59.1872L195.453 60.1386C194.982 60.1824 194.559 59.7719 194.507 59.2222L193.675 50.2608C193.624 49.7112 193.965 49.2296 194.436 49.1858L195.574 49.0801ZM195.503 59.1297L205.46 58.2047L204.628 49.2433L194.671 50.1683L195.503 59.1297ZM201.132 54.8853L201.744 56.0392L198.757 56.3167L199.146 55.0699C198.812 54.8065 198.579 54.3997 198.535 53.927C198.453 53.0476 199.056 52.2717 199.88 52.1951C200.705 52.1185 201.44 52.7701 201.522 53.6495C201.566 54.1222 201.412 54.5649 201.132 54.8853ZM202.485 47.7953C202.313 45.9476 200.836 44.574 199.187 44.7272C197.537 44.8805 196.339 46.5026 196.51 48.3503L196.57 48.9876L202.544 48.4326L202.485 47.7953Z" fill="#5B6272"/>
</g>
<g clip-path="url(#clip21)">
<path d="M171.236 57.3668L169.245 57.5518L169.337 58.5476L171.329 58.3626L171.514 60.354L172.509 60.2615L172.324 58.2701L174.316 58.0851L174.223 57.0894L172.232 57.2743L172.047 55.2829L171.051 55.3754L171.236 57.3668ZM167.823 55.6753C168.515 54.3999 169.811 53.482 171.364 53.3377C173.838 53.1079 176.031 54.9279 176.261 57.4022C176.491 59.8766 174.671 62.0693 172.196 62.2992C170.246 62.4804 168.47 61.3876 167.693 59.7046L166.442 59.8208L166.35 58.8251L167.373 58.73C167.34 58.5682 167.315 58.403 167.299 58.2347C167.251 57.711 167.294 57.2 167.416 56.7174L166.165 56.8336L166.073 55.8379L167.823 55.6753ZM161.627 51.2294L161.535 50.2336L163.526 50.0486L163.619 51.0444L161.627 51.2294ZM165.61 50.8594L165.518 49.8636L173.483 49.1236L173.576 50.1194L165.61 50.8594ZM165.888 53.8465L165.795 52.8508L173.761 52.1108L173.853 53.1065L165.888 53.8465ZM161.905 54.2165L161.812 53.2208L163.804 53.0358L163.896 54.0315L161.905 54.2165ZM162.182 57.2036L162.09 56.2079L164.081 56.0229L164.174 57.0186L162.182 57.2036ZM162.46 60.1908L162.367 59.1951L164.359 59.0101L164.451 60.0058L162.46 60.1908Z" fill="#5B6272"/>
</g>
<path d="M129.764 54.1893L129.672 53.1936L131.663 53.0086L131.756 54.0043L129.764 54.1893ZM133.747 53.8193L133.655 52.8236L141.62 52.0836L141.713 53.0794L133.747 53.8193ZM134.025 56.8065L133.932 55.8108L141.898 55.0708L141.99 56.0665L134.025 56.8065ZM134.302 59.7936L134.21 58.7979L142.175 58.0579L142.268 59.0536L134.302 59.7936ZM130.042 57.1765L129.949 56.1808L131.941 55.9958L132.033 56.9915L130.042 57.1765ZM130.319 60.1636L130.227 59.1679L132.218 58.9829L132.311 59.9786L130.319 60.1636ZM134.58 62.7808L134.487 61.7851L142.453 61.0451L142.545 62.0408L134.58 62.7808ZM130.597 63.1508L130.504 62.155L132.496 61.97L132.588 62.9658L130.597 63.1508Z" fill="#5B6272"/>
<g clip-path="url(#clip22)">
<path d="M103.52 56.4294C103.343 56.6418 103.028 56.6711 102.816 56.4948C102.603 56.3184 102.574 56.0032 102.75 55.7907L104.841 53.2722C105.913 51.9802 107.976 51.9761 109.45 53.1991C110.923 54.4221 111.299 56.4509 110.227 57.7429L107.034 61.5903C105.961 62.8823 103.898 62.8864 102.424 61.6634C102.212 61.487 102.183 61.1718 102.359 60.9593C102.535 60.7468 102.851 60.7176 103.063 60.8939C104.139 61.7873 105.573 61.7845 106.264 60.9516L109.457 57.1042C110.149 56.2714 109.887 54.862 108.811 53.9686C107.735 53.0752 106.301 53.078 105.61 53.9109L103.52 56.4294ZM103.884 63.8195C104.06 63.607 104.375 63.5777 104.588 63.7541C104.8 63.9305 104.83 64.2457 104.653 64.4582L102.563 66.9767C101.491 68.2687 99.4272 68.2728 97.9537 67.0498C96.4802 65.8268 96.1041 63.798 97.1765 62.506L100.37 58.6586C101.442 57.3666 103.506 57.3625 104.979 58.5855C105.192 58.7618 105.221 59.0771 105.044 59.2896C104.868 59.502 104.553 59.5313 104.34 59.355C103.264 58.4616 101.831 58.4644 101.139 59.2973L97.946 63.1447C97.2547 63.9775 97.516 65.3869 98.5924 66.2803C99.6687 67.1737 101.102 67.1709 101.793 66.338L103.884 63.8195Z" fill="#5B6272"/>
</g>
<path d="M72.8686 68.7647C75.7557 68.4965 77.8787 65.9386 77.6105 63.0515C77.3423 60.1645 74.7844 58.0415 71.8974 58.3097C69.0103 58.5779 66.8873 61.1357 67.1555 64.0228C67.4237 66.9099 69.9816 69.0329 72.8686 68.7647ZM72.938 69.5114C69.6385 69.818 66.7152 67.3917 66.4087 64.0922C66.1022 60.7927 68.5285 57.8694 71.828 57.5629C75.1275 57.2564 78.0508 59.6827 78.3573 62.9822C78.6638 66.2817 76.2375 69.2049 72.938 69.5114Z" fill="#5B6272"/>
<path d="M71.828 57.5629C68.5285 57.8694 66.1022 60.7927 66.4087 64.0922C66.7152 67.3917 69.6385 69.818 72.938 69.5114L71.828 57.5629Z" fill="#5B6272"/>
<g clip-path="url(#clip23)">
<path d="M48.4678 72.4456C48.6787 72.6239 48.7051 72.9394 48.5268 73.1502C48.3484 73.3611 48.033 73.3875 47.8221 73.2092L44.5863 70.473C44.378 70.297 44.3493 69.9865 44.5217 69.7752C45.1644 68.9874 45.4788 67.9821 45.3829 66.9493C45.1836 64.8046 43.2835 63.2275 41.1388 63.4268C38.9942 63.626 37.4171 65.5261 37.6163 67.6708C37.8155 69.8155 39.7157 71.3926 41.8603 71.1933C42.1353 71.1678 42.3789 71.37 42.4044 71.6449C42.43 71.9199 42.2278 72.1635 41.9528 72.189C39.2582 72.4394 36.8709 70.4579 36.6206 67.7633C36.3703 65.0687 38.3517 62.6814 41.0463 62.431C43.7409 62.1807 46.1283 64.1622 46.3786 66.8568C46.4835 67.986 46.197 69.091 45.5884 70.0108L48.4678 72.4456ZM36.0978 71.9295C36.3728 71.904 36.6164 72.1061 36.6419 72.3811C36.6675 72.6561 36.4653 72.8997 36.1903 72.9252L35.5988 72.9802C34.224 73.1079 33.006 72.0969 32.8782 70.7221L32.0457 61.7607C31.918 60.3859 32.929 59.1679 34.3038 59.0402L43.2652 58.2077C44.64 58.08 45.858 59.0909 45.9857 60.4657L46.0411 61.0621C46.0667 61.337 45.8645 61.5807 45.5895 61.6062C45.3146 61.6317 45.071 61.4295 45.0454 61.1546L44.99 60.5582C44.9134 59.7334 44.1826 59.1268 43.3577 59.2034L34.3963 60.0359C33.5714 60.1125 32.9648 60.8433 33.0415 61.6682L33.874 70.6296C33.9506 71.4545 34.6814 72.0611 35.5063 71.9845L36.0978 71.9295ZM34.5813 62.0273C34.3065 62.0529 34.0627 61.8505 34.0372 61.5757C34.0116 61.3009 34.214 61.0571 34.4888 61.0316C34.7636 61.0061 35.0074 61.2084 35.0329 61.4832C35.0584 61.758 34.8561 62.0018 34.5813 62.0273ZM36.5727 61.8423C36.2979 61.8679 36.0541 61.6655 36.0286 61.3907C36.0031 61.1159 36.2054 60.8721 36.4802 60.8466C36.755 60.8211 36.9988 61.0234 37.0243 61.2982C37.0498 61.573 36.8475 61.8168 36.5727 61.8423ZM38.5641 61.6573C38.2893 61.6829 38.0455 61.4805 38.02 61.2057C37.9945 60.9309 38.1968 60.6871 38.4716 60.6616C38.7464 60.6361 38.9902 60.8384 39.0157 61.1132C39.0413 61.388 38.8389 61.6318 38.5641 61.6573ZM34.7663 64.0188C34.4915 64.0443 34.2477 63.842 34.2222 63.5671C34.1966 63.2923 34.399 63.0486 34.6738 63.023C34.9486 62.9975 35.1923 63.1998 35.2179 63.4746C35.2434 63.7495 35.0411 63.9932 34.7663 64.0188ZM36.7577 63.8338C36.4829 63.8593 36.2391 63.657 36.2136 63.3821C36.1881 63.1073 36.3904 62.8636 36.6652 62.838C36.94 62.8125 37.1838 63.0148 37.2093 63.2896C37.2348 63.5645 37.0325 63.8082 36.7577 63.8338ZM34.8588 65.0145C35.1336 64.9889 35.3773 65.1913 35.4029 65.4661C35.4284 65.7409 35.2261 65.9846 34.9513 66.0102C34.6765 66.0357 34.4327 65.8334 34.4072 65.5586C34.3816 65.2838 34.584 65.04 34.8588 65.0145ZM35.1363 68.0016C34.8615 68.0271 34.6177 67.8248 34.5922 67.55C34.5666 67.2752 34.769 67.0314 35.0438 67.0059C35.3186 66.9804 35.5623 67.1827 35.5879 67.4575C35.6134 67.7323 35.4111 67.9761 35.1363 68.0016ZM40.5556 61.4723C40.2807 61.4979 40.037 61.2955 40.0114 61.0207C39.9859 60.7459 40.1882 60.5021 40.4631 60.4766C40.7379 60.4511 40.9816 60.6534 41.0072 60.9282C41.0327 61.203 40.8304 61.4468 40.5556 61.4723ZM42.547 61.2873C42.2722 61.3129 42.0284 61.1105 42.0029 60.8357C41.9773 60.5609 42.1797 60.3171 42.4545 60.2916C42.7293 60.2661 42.9731 60.4684 42.9986 60.7432C43.0241 61.018 42.8218 61.2618 42.547 61.2873ZM35.3213 69.993C35.0465 70.0186 34.8027 69.8162 34.7772 69.5414C34.7516 69.2666 34.954 69.0228 35.2288 68.9973C35.5036 68.9718 35.7473 69.1741 35.7729 69.4489C35.7984 69.7237 35.5961 69.9675 35.3213 69.993Z" fill="#5B6272"/>
</g>
<g clip-path="url(#clip24)">
<path d="M11.2037 75.2454L10.9271 72.2682L11.9229 72.1757L12.292 76.1496L1.33918 77.1671L0.0441852 63.2271L10.997 62.2096L11.3669 66.1915L10.3712 66.284L10.0939 63.2989L1.13249 64.1314L2.2423 76.0779L11.2037 75.2454Z" fill="#5B6272"/>
<path d="M5.35739 71.7723L5.26489 70.7766L11.737 70.1753L11.8295 71.1711L5.35739 71.7723Z" fill="#5B6272"/>
<path d="M13.7747 70.4882L16.4843 67.2236L13.2197 64.5139L13.7747 70.4882Z" fill="#5B6272"/>
<path d="M6.02935 68.1948L6.58435 74.1691L3.31971 71.4595L6.02935 68.1948Z" fill="#5B6272"/>
<path d="M7.56917 68.5539L7.47667 67.5582L13.9488 66.957L14.0413 67.9527L7.56917 68.5539Z" fill="#5B6272"/>
</g>
<g clip-path="url(#clip25)">
<path d="M293.654 12.9672L295.316 10.8613C295.507 10.6144 295.852 10.5824 296.084 10.79C296.317 10.9975 296.351 11.3682 296.16 11.6152L294.408 13.8363C293.836 14.5793 292.809 14.6768 292.107 14.0501L289.976 12.1897C289.743 11.9822 289.708 11.6114 289.899 11.3645C290.089 11.1176 290.434 11.0856 290.667 11.2932L292.655 13.0278L291.867 4.53765C291.838 4.23214 292.038 3.96377 292.313 3.93823C292.588 3.91268 292.834 4.13964 292.862 4.44515L293.654 12.9672ZM288.474 9.31641C288.004 9.3601 287.63 9.73273 287.581 10.2067L286.952 16.291C286.945 16.3565 286.945 16.4225 286.951 16.488C287.002 17.0379 287.485 17.4427 288.03 17.3921L299.001 16.3729C299.066 16.3669 299.13 16.3544 299.193 16.3356C299.717 16.1781 300.015 15.6214 299.858 15.0921L298.119 9.22775C297.983 8.7709 297.547 8.4735 297.077 8.51718L288.474 9.31641ZM290.194 8.15233L290.286 9.14804L295.265 8.68554L295.172 7.68983L296.99 7.52099C297.931 7.43351 298.804 8.02823 299.076 8.94192L300.816 14.8061C301.13 15.8647 300.534 16.9783 299.484 17.2933C299.359 17.3309 299.23 17.3559 299.1 17.368L288.116 18.3884C287.025 18.4898 286.057 17.6804 285.955 16.5805C285.943 16.4494 285.944 16.3174 285.957 16.1864L286.588 10.102C286.686 9.15403 287.434 8.40868 288.376 8.3212L290.194 8.15233Z" fill="#5B6272"/>
</g>
<path fill-rule="evenodd" clip-rule="evenodd" d="M260.426 17.454L260.071 13.9636L258.857 14.0763L258.765 13.0806L261.156 12.8585L261.51 16.349L262.624 16.2455L262.717 17.2412L260.426 17.454ZM259.604 11.3016C259.582 11.071 259.633 10.8732 259.756 10.7082C259.879 10.5431 260.068 10.4488 260.323 10.4251C260.578 10.4014 260.782 10.4593 260.935 10.5987C261.088 10.7381 261.176 10.923 261.197 11.1536C261.218 11.38 261.166 11.5748 261.041 11.738C260.916 11.9011 260.726 11.9946 260.471 12.0182C260.216 12.0419 260.013 11.985 259.862 11.8475C259.711 11.71 259.625 11.528 259.604 11.3016ZM261.062 18.893C263.812 18.6376 265.834 16.2015 265.578 13.4519C265.323 10.7024 262.887 8.68045 260.137 8.93588C257.388 9.19131 255.366 11.6274 255.621 14.3769C255.877 17.1265 258.313 19.1484 261.062 18.893ZM261.155 19.8887C257.855 20.1952 254.932 17.7689 254.626 14.4694C254.319 11.1699 256.745 8.24668 260.045 7.94017C263.344 7.63365 266.268 10.0599 266.574 13.3594C266.881 16.6589 264.454 19.5822 261.155 19.8887Z" fill="#5B6272"/>
<g clip-path="url(#clip26)">
<path d="M234.701 20.5247L233.223 19.2982C233.196 19.2756 233.162 19.2697 233.134 19.2502C233.589 18.4105 233.81 17.4339 233.715 16.4113C233.621 15.3907 233.223 14.4705 232.622 13.7289C232.646 13.7056 232.677 13.6926 232.7 13.6654L233.927 12.1876C234.906 13.2707 235.561 14.662 235.707 16.2263C235.852 17.7925 235.464 19.2808 234.701 20.5247ZM229.384 23.8438C227.819 23.9892 226.331 23.6012 225.087 22.838L226.313 21.3602C226.336 21.333 226.342 21.3003 226.36 21.2714C227.2 21.7257 228.178 21.9472 229.199 21.8523C230.221 21.7574 231.141 21.3596 231.883 20.7584C231.906 20.7834 231.919 20.8143 231.946 20.8369L233.423 22.0635C232.341 23.0428 230.95 23.6983 229.384 23.8438ZM223.547 21.5609C222.569 20.4788 221.912 19.0875 221.767 17.5213C221.621 15.957 222.01 14.4686 222.773 13.2238L224.251 14.4503C224.278 14.4729 224.311 14.4798 224.34 14.4983C223.885 15.338 223.663 16.3157 223.758 17.3363C223.853 18.3589 224.251 19.278 224.853 20.0195C224.828 20.0439 224.796 20.0559 224.775 20.083L223.547 21.5609ZM229.107 20.8566C226.907 21.0609 224.958 19.4443 224.754 17.2438C224.55 15.0442 226.167 13.0952 228.367 12.8909C230.566 12.6866 232.515 14.3042 232.72 16.5038C232.924 18.7043 231.306 20.6523 229.107 20.8566ZM228.089 9.90377C229.655 9.75836 231.143 10.1474 232.387 10.9106L231.161 12.3883C231.139 12.4155 231.132 12.4483 231.113 12.4771C230.274 12.0228 229.296 11.8003 228.274 11.8952C227.253 11.9901 226.333 12.3889 225.591 12.9901C225.568 12.9651 225.556 12.9341 225.529 12.9115L224.051 11.685C225.133 10.7057 226.524 10.0492 228.089 9.90377ZM227.997 8.90806C223.598 9.31672 220.363 13.2157 220.771 17.6138C221.18 22.0138 225.078 25.2481 229.477 24.8395C233.876 24.4308 237.111 20.5338 236.702 16.1338C236.294 11.7357 232.396 8.4994 227.997 8.90806Z" fill="#5B6272"/>
</g>
<g clip-path="url(#clip27)">
<path d="M200.95 20.4601C202.599 20.3069 204.061 21.52 204.214 23.1698C204.367 24.8195 203.154 26.2812 201.505 26.4344C199.855 26.5877 198.393 25.3745 198.24 23.7248C198.087 22.075 199.3 20.6134 200.95 20.4601ZM201.042 21.4559C199.942 21.558 199.133 22.5324 199.236 23.6323C199.338 24.7321 200.312 25.5409 201.412 25.4387C202.512 25.3365 203.321 24.3621 203.219 23.2623C203.116 22.1624 202.142 21.3537 201.042 21.4559ZM192.336 14.2301C193.436 14.128 194.411 14.9367 194.513 16.0366C194.615 17.1364 193.806 18.1108 192.706 18.213C191.607 18.3152 190.632 17.5064 190.53 16.4066C190.428 15.3067 191.237 14.3323 192.336 14.2301ZM192.429 15.2259C191.879 15.2769 191.475 15.7642 191.526 16.3141C191.577 16.864 192.064 17.2684 192.614 17.2173C193.164 17.1662 193.568 16.679 193.517 16.1291C193.466 15.5792 192.979 15.1748 192.429 15.2259ZM192.891 20.2044C195.091 20.0001 197.04 21.6176 197.244 23.8173C197.449 26.0169 195.831 27.9658 193.631 28.1701C191.432 28.3745 189.483 26.7569 189.279 24.5573C189.074 22.3576 190.692 20.4088 192.891 20.2044ZM192.984 21.2001C191.334 21.3534 190.121 22.815 190.274 24.4648C190.428 26.1145 191.889 27.3277 193.539 27.1744C195.189 27.0212 196.402 25.5595 196.249 23.9098C196.095 22.26 194.634 21.0469 192.984 21.2001ZM200.117 11.4987C202.317 11.2944 204.266 12.9119 204.47 15.1116C204.674 17.3112 203.057 19.2601 200.857 19.4644C198.657 19.6688 196.709 18.0512 196.504 15.8516C196.3 13.6519 197.917 11.7031 200.117 11.4987ZM200.21 12.4944C198.56 12.6477 197.347 14.1093 197.5 15.7591C197.653 17.4088 199.115 18.622 200.765 18.4687C202.414 18.3155 203.627 16.8538 203.474 15.2041C203.321 13.5543 201.859 12.3412 200.21 12.4944Z" fill="#5B6272"/>
</g>
<g clip-path="url(#clip28)">
<path d="M163.962 17.9691C162.369 16.6464 160.004 16.866 158.682 18.4597C157.359 20.0533 157.579 22.4175 159.172 23.7402L165.194 28.4747L165.566 28.7678L170.916 22.6585C172.248 21.0548 172.028 18.6906 170.434 17.3679C168.841 16.0451 166.477 16.2648 165.154 17.8584L164.613 18.5095L163.962 17.9691ZM159.801 22.9624C158.642 22.0007 158.481 20.267 159.451 19.0983C160.421 17.9297 162.155 17.7686 163.324 18.7386L164.744 19.9177L165.923 18.4971C166.893 17.3284 168.627 17.1673 169.796 18.1373C170.964 19.1073 171.125 20.8411 170.155 22.0098L165.439 27.3955L159.801 22.9624Z" fill="#5B6272"/>
</g>
<g clip-path="url(#clip29)">
<path d="M125.901 23.4148L125.531 19.4319L129.514 19.0619L129.884 23.0448L125.901 23.4148ZM128.796 22.1415L128.611 20.1501L126.619 20.3351L126.804 22.3265L128.796 22.1415ZM130.88 22.9523L130.51 18.9694L134.493 18.5994L134.863 22.5823L130.88 22.9523ZM133.774 21.679L133.589 19.6876L131.598 19.8726L131.783 21.864L133.774 21.679ZM135.858 22.4898L135.488 18.5069L139.471 18.1369L139.841 22.1198L135.858 22.4898ZM136.761 21.4015L138.753 21.2165L138.568 19.2251L136.576 19.4101L136.761 21.4015ZM126.364 28.3933L125.994 24.4105L129.976 24.0405L130.346 28.0233L126.364 28.3933ZM129.258 27.1201L129.073 25.1287L127.082 25.3137L127.267 27.3051L129.258 27.1201ZM131.342 27.9308L130.972 23.948L134.955 23.578L135.325 27.5608L131.342 27.9308ZM134.237 26.6576L134.052 24.6662L132.06 24.8512L132.245 26.8426L134.237 26.6576ZM136.321 27.4683L135.951 23.4855L139.934 23.1155L140.304 27.0983L136.321 27.4683ZM139.215 26.1951L139.03 24.2037L137.039 24.3887L137.224 26.3801L139.215 26.1951ZM126.826 33.3719L126.456 29.389L130.439 29.019L130.809 33.0019L126.826 33.3719ZM127.729 32.2837L129.721 32.0987L129.536 30.1072L127.544 30.2922L127.729 32.2837ZM131.805 32.9094L131.435 28.9265L135.418 28.5565L135.788 32.5394L131.805 32.9094ZM132.708 31.8212L134.699 31.6362L134.514 29.6447L132.523 29.8297L132.708 31.8212ZM136.783 32.4469L136.413 28.464L140.396 28.094L140.766 32.0769L136.783 32.4469ZM137.686 31.3587L139.678 31.1737L139.493 29.1822L137.501 29.3672L137.686 31.3587Z" fill="#5B6272"/>
</g>
<path fill-rule="evenodd" clip-rule="evenodd" d="M98.7857 23.4233C98.7601 23.1481 98.9703 22.9036 99.2373 22.8788C99.5122 22.8533 99.7563 23.0606 99.7814 23.3308L100.799 34.2829C100.824 34.5581 100.614 34.8026 100.347 34.8274C100.072 34.8529 99.8282 34.6456 99.8031 34.3754L98.7857 23.4233ZM101.773 23.1458C101.747 22.8706 101.957 22.6261 102.224 22.6013C102.499 22.5758 102.743 22.7831 102.769 23.0533L103.786 34.0054C103.812 34.2806 103.601 34.5251 103.334 34.5499C103.059 34.5754 102.815 34.3681 102.79 34.0979L101.773 23.1458Z" fill="#5B6272"/>
<path fill-rule="evenodd" clip-rule="evenodd" d="M74.7141 29.1742C74.9892 29.1487 75.2337 29.3589 75.2585 29.6258C75.2841 29.9007 75.0768 30.1448 74.8066 30.1699L63.8544 31.1874C63.5793 31.2129 63.3348 31.0027 63.31 30.7358C63.2844 30.4608 63.4918 30.2167 63.7619 30.1916L74.7141 29.1742ZM74.9916 32.1613C75.2667 32.1358 75.5112 32.346 75.536 32.6129C75.5616 32.8879 75.3543 33.132 75.0841 33.1571L64.1319 34.1745C63.8568 34.2001 63.6123 33.9898 63.5875 33.7229C63.5619 33.448 63.7693 33.2039 64.0394 33.1788L74.9916 32.1613Z" fill="#5B6272"/>
<g clip-path="url(#clip30)">
<path d="M30.6091 35.2801C30.794 36.3666 31.2439 37.3518 31.8852 38.1745L34.2568 37.9541C33.9505 37.0727 33.7177 36.0741 33.585 35.0036L30.6091 35.2801ZM30.5166 34.2844L33.4925 34.0079C33.4257 32.9314 33.4706 31.9069 33.6093 30.9841L31.2377 31.2045C30.7589 32.1311 30.4982 33.1824 30.5166 34.2844ZM43.5156 34.0811L40.5397 34.3575C40.6065 35.4341 40.5616 36.4585 40.4229 37.3813L42.7945 37.161C43.2733 36.2343 43.534 35.1831 43.5156 34.0811ZM43.4231 33.0854C43.2382 31.9988 42.7883 31.0136 42.147 30.191L39.7754 30.4113C40.0817 31.2928 40.3145 32.2914 40.4472 33.3618L43.4231 33.0854ZM34.5813 34.9111C34.7204 36.0097 34.9715 37.0108 35.2854 37.8586L39.3943 37.4769C39.5466 36.5858 39.609 35.5555 39.5434 34.4501L34.5813 34.9111ZM34.4888 33.9154L39.4509 33.4544C39.3118 32.3558 39.0607 31.3547 38.7468 30.5069L34.6379 30.8886C34.4856 31.7797 34.4232 32.8099 34.4888 33.9154ZM29.6108 35.3728L29.5945 35.3743L29.502 34.3786L29.5183 34.3771C29.4129 30.461 32.3653 27.0825 36.3224 26.7149C40.2794 26.3473 43.8036 29.1242 44.4214 32.9926L44.4377 32.9911L44.5302 33.9868L44.5139 33.9884C44.6193 37.9044 41.6669 41.283 37.7098 41.6506C33.7528 42.0182 30.2286 39.2413 29.6108 35.3728ZM32.762 39.0973C33.5717 39.798 34.5528 40.2992 35.6242 40.5337C35.2656 40.1005 34.9342 39.5554 34.6441 38.9225L32.762 39.0973ZM42.1027 38.2296L40.2206 38.4044C40.052 39.08 39.8268 39.6768 39.5541 40.1687C40.564 39.7408 41.4359 39.0674 42.1027 38.2296ZM35.7017 38.8242C36.2984 40.0138 37.0136 40.7109 37.6173 40.6549C38.2211 40.5988 38.7956 39.7818 39.163 38.5027L35.7017 38.8242ZM31.9295 30.1359L33.8116 29.961C33.9802 29.2855 34.2054 28.6887 34.4781 28.1968C33.4682 28.6247 32.5963 29.298 31.9295 30.1359ZM41.2702 29.2682C40.4605 28.5675 39.4795 28.0663 38.408 27.8317C38.7666 28.265 39.098 28.81 39.3881 29.443L41.2702 29.2682ZM34.8692 29.8628L38.3306 29.5412C37.7338 28.3516 37.0186 27.6545 36.4149 27.7106C35.8111 27.7667 35.2366 28.5836 34.8692 29.8628Z" fill="#5B6272"/>
</g>
<g clip-path="url(#clip31)">
<path d="M6.8209 38.4943C6.90558 36.7829 8.23743 35.3498 9.99311 35.1867C10.9683 35.0961 11.8871 35.4147 12.5796 36.0014L12.3436 33.4618C12.2445 32.3945 11.5396 31.8095 10.0687 31.6548C9.79405 31.6259 9.59483 31.3799 9.62371 31.1053C9.65258 30.8306 9.89862 30.6314 10.1733 30.6603C12.083 30.8611 13.1918 31.7814 13.3394 33.3693L13.7325 37.6011C13.7391 37.6728 13.7303 37.7424 13.7088 37.8065C13.7532 37.9816 13.7846 38.1624 13.8019 38.3479C13.9807 40.2726 12.5653 41.9778 10.6406 42.1566C8.88493 42.3197 7.31187 41.1564 6.9134 39.49L4.85139 39.6815C4.76671 41.3929 3.43486 42.826 1.67919 42.9891C-0.245521 43.1679 -1.95075 41.7526 -2.12955 39.8279C-2.14678 39.6424 -2.14921 39.459 -2.1378 39.2787C-2.17085 39.2197 -2.19236 39.1529 -2.19903 39.0811L-2.59215 34.8493C-2.73966 33.2614 -1.81934 32.1526 0.0207519 31.6034C0.285361 31.5245 0.563888 31.675 0.642859 31.9396C0.72183 32.2042 0.57134 32.4827 0.306731 32.5617C-1.11055 32.9847 -1.69559 33.6895 -1.59644 34.7568L-1.36051 37.2965C-0.787934 36.5922 0.056497 36.1097 1.03169 36.0192C2.78737 35.8561 4.36043 37.0194 4.75889 38.6858L6.8209 38.4943ZM1.58669 41.9934C2.96148 41.8657 3.97244 40.6477 3.84472 39.2729C3.71701 37.8981 2.49898 36.8871 1.12419 37.0149C-0.250601 37.1426 -1.26156 38.3606 -1.13384 39.7354C-1.00613 41.1102 0.211896 42.1211 1.58669 41.9934ZM10.5481 41.1609C11.9229 41.0332 12.9339 39.8152 12.8061 38.4404C12.6784 37.0656 11.4604 36.0547 10.0856 36.1824C8.71081 36.3101 7.69986 37.5281 7.82757 38.9029C7.95529 40.2777 9.17331 41.2886 10.5481 41.1609Z" fill="#5B6272"/>
</g>
<g clip-path="url(#clip32)">
<path fill-rule="evenodd" clip-rule="evenodd" d="M130.927 1.85611C126.528 2.2648 122.63 -0.970259 122.222 -5.36959C121.813 -9.76893 125.048 -13.6666 129.447 -14.0753C133.847 -14.484 137.744 -11.2489 138.153 -6.84959C138.562 -2.45025 135.327 1.44742 130.927 1.85611ZM130.836 0.861573C134.686 0.50397 137.516 -2.90649 137.159 -6.75591C136.801 -10.6053 133.391 -13.436 129.541 -13.0784C125.692 -12.7208 122.861 -9.31034 123.219 -5.46092C123.576 -1.6115 126.987 1.21918 130.836 0.861573ZM125.43 -8.67931L134.392 -9.5118C134.667 -9.53735 134.91 -9.33515 134.936 -9.0602C134.962 -8.78524 134.759 -8.54163 134.484 -8.51609L125.523 -7.68359C125.248 -7.65805 125.004 -7.86024 124.979 -8.1352C124.953 -8.41016 125.155 -8.65376 125.43 -8.67931ZM127.699 -5.87717L132.678 -6.33967C132.953 -6.36521 133.196 -6.16302 133.222 -5.88806C133.248 -5.6131 133.045 -5.3695 132.77 -5.34395L127.792 -4.88146C127.517 -4.85591 127.273 -5.0581 127.248 -5.33306C127.222 -5.60802 127.424 -5.85162 127.699 -5.87717ZM129.968 -3.07503L130.964 -3.16753C131.239 -3.19307 131.483 -2.99088 131.508 -2.71592C131.534 -2.44096 131.331 -2.19736 131.057 -2.17182L130.061 -2.07932C129.786 -2.05377 129.542 -2.25596 129.517 -2.53092C129.491 -2.80588 129.693 -3.04949 129.968 -3.07503Z" fill="#5B6272"/>
</g>
<g clip-path="url(#clip33)">
<path d="M99.0658 4.81726C94.6665 5.22595 90.7688 1.99089 90.3601 -2.40844C89.9514 -6.80778 93.1865 -10.7055 97.5858 -11.1141C101.985 -11.5228 105.883 -8.28777 106.292 -3.88844C106.7 0.5109 103.465 4.40857 99.0658 4.81726ZM98.9672 3.75517C102.78 3.40097 105.584 0.0229879 105.229 -3.78977C104.875 -7.60253 101.497 -10.4062 97.6845 -10.052C93.8718 -9.69785 91.068 -6.31987 91.4222 -2.50711C91.7764 1.30565 95.1544 4.10937 98.9672 3.75517ZM95.5226 -4.49491C94.936 -4.44042 94.4163 -4.87176 94.3618 -5.45834C94.3074 -6.04492 94.7387 -6.56461 95.3253 -6.6191C95.9119 -6.67359 96.4315 -6.24225 96.486 -5.65567C96.5405 -5.0691 96.1092 -4.54941 95.5226 -4.49491ZM100.833 -4.98825C100.246 -4.93375 99.7268 -5.36509 99.6723 -5.95167C99.6178 -6.53825 100.049 -7.05794 100.636 -7.11243C101.222 -7.16692 101.742 -6.73558 101.797 -6.14901C101.851 -5.56243 101.42 -5.04274 100.833 -4.98825ZM103.668 -1.36689C103.905 -1.1924 103.956 -0.858575 103.782 -0.621267C103.607 -0.383959 103.273 -0.333032 103.036 -0.507519C101.41 -1.7034 99.8759 -2.22118 98.4245 -2.08635C96.9731 -1.95152 95.5611 -1.16009 94.1828 0.314926C93.9817 0.530141 93.6442 0.541578 93.4289 0.340473C93.2137 0.139367 93.2023 -0.198128 93.4034 -0.413342C94.9483 -2.06658 96.5909 -2.98727 98.3258 -3.14844C100.061 -3.30961 101.845 -2.70726 103.668 -1.36689Z" fill="#5B6272"/>
</g>
<g clip-path="url(#clip34)">
<path fill-rule="evenodd" clip-rule="evenodd" d="M67.203 7.77725C65.0904 7.97351 62.9863 7.32249 61.3537 5.96741C59.721 4.61233 58.6936 2.66418 58.4973 0.551548C58.3011 -1.56109 58.9521 -3.66516 60.3072 -5.29779C61.6623 -6.93043 63.6104 -7.95789 65.723 -8.15415C67.8357 -8.35041 69.9397 -7.69939 71.5724 -6.34431C73.205 -4.98922 74.2325 -3.04108 74.4287 -0.928445C74.625 1.18419 73.974 3.28826 72.6189 4.9209C71.2638 6.55353 69.3157 7.58099 67.203 7.77725V7.77725ZM67.1043 6.71483C68.9352 6.54474 70.6235 5.65432 71.7979 4.23944C72.9722 2.82456 73.5364 1.00112 73.3663 -0.829747C73.1962 -2.66061 72.3058 -4.34892 70.8909 -5.52327C69.476 -6.69762 67.6526 -7.26181 65.8217 -7.09172C63.9909 -6.92164 62.3026 -6.03122 61.1282 -4.61633C59.9539 -3.20145 59.3897 -1.37801 59.5598 0.452851C59.7298 2.28371 60.6203 3.97202 62.0351 5.14637C63.45 6.32072 65.2735 6.88491 67.1043 6.71483V6.71483ZM63.6595 -1.53489C63.5177 -1.51733 63.3738 -1.52842 63.2364 -1.5675C63.099 -1.60659 62.9708 -1.67287 62.8595 -1.76243C62.7482 -1.85198 62.656 -1.96298 62.5883 -2.08883C62.5207 -2.21469 62.4791 -2.35284 62.4659 -2.4951C62.4527 -2.63736 62.4681 -2.78082 62.5114 -2.91698C62.5547 -3.05314 62.6249 -3.17922 62.7178 -3.28775C62.8107 -3.39627 62.9245 -3.48503 63.0523 -3.54876C63.1802 -3.61249 63.3196 -3.64989 63.4622 -3.65875C63.739 -3.67594 64.0116 -3.58468 64.2222 -3.40431C64.4329 -3.22394 64.5651 -2.96864 64.5907 -2.6925C64.6164 -2.41635 64.5335 -2.14107 64.3597 -1.92499C64.1858 -1.7089 63.9347 -1.56899 63.6595 -1.53489V-1.53489ZM68.9706 -2.02828C68.8288 -2.01072 68.6849 -2.02181 68.5475 -2.0609C68.4101 -2.09998 68.2819 -2.16627 68.1706 -2.25582C68.0593 -2.34537 67.9671 -2.45637 67.8995 -2.58223C67.8319 -2.70808 67.7902 -2.84624 67.777 -2.98849C67.7638 -3.13075 67.7793 -3.27421 67.8225 -3.41037C67.8658 -3.54653 67.936 -3.67261 68.0289 -3.78114C68.1218 -3.88966 68.2356 -3.97842 68.3635 -4.04215C68.4913 -4.10588 68.6307 -4.14329 68.7733 -4.15214C69.0501 -4.16933 69.3227 -4.07807 69.5334 -3.8977C69.744 -3.71733 69.8762 -3.46203 69.9019 -3.18589C69.9275 -2.90975 69.8446 -2.63447 69.6708 -2.41838C69.497 -2.20229 69.2458 -2.06238 68.9706 -2.02828V-2.02828ZM61.9303 2.91112C61.7894 2.9242 61.6491 2.88079 61.5402 2.79042C61.4314 2.70005 61.3628 2.57014 61.3497 2.42925C61.3367 2.28836 61.3801 2.14805 61.4704 2.03917C61.5608 1.9303 61.6907 1.86178 61.8316 1.84869L71.3905 0.960695C71.5313 0.947607 71.6717 0.991022 71.7805 1.08139C71.8894 1.17176 71.9579 1.30167 71.971 1.44256C71.9841 1.58345 71.9407 1.72376 71.8503 1.83264C71.76 1.94151 71.63 2.01003 71.4891 2.02312L61.9303 2.91112Z" fill="#5B6272"/>
</g>
<g clip-path="url(#clip35)">
<path d="M35.3402 10.7372C30.9409 11.1459 27.0432 7.91086 26.6345 3.51152C26.2258 -0.887812 29.4609 -4.78549 33.8602 -5.19417C38.2596 -5.60286 42.1572 -2.3678 42.5659 2.03153C42.9746 6.43087 39.7396 10.3285 35.3402 10.7372ZM35.2416 9.67514C39.0543 9.32094 41.858 5.94296 41.5038 2.1302C41.1496 -1.68256 37.7716 -4.48628 33.9589 -4.13208C30.1461 -3.77788 27.3424 -0.3999 27.6966 3.41286C28.0508 7.22562 31.4288 10.0293 35.2416 9.67514ZM31.797 1.42505C31.2104 1.47954 30.6907 1.0482 30.6362 0.461626C30.5817 -0.124952 31.0131 -0.644642 31.5997 -0.699134C32.1862 -0.753626 32.7059 -0.322285 32.7604 0.264293C32.8149 0.850871 32.3836 1.37056 31.797 1.42505ZM37.1075 0.931722C36.5209 0.986214 36.0012 0.554873 35.9467 -0.0317052C35.8922 -0.618283 36.3235 -1.13797 36.9101 -1.19246C37.4967 -1.24696 38.0164 -0.815616 38.0709 -0.229038C38.1254 0.357541 37.694 0.87723 37.1075 0.931722ZM29.4363 4.05676C29.265 3.81716 29.3203 3.48404 29.5599 3.31272C29.7996 3.14141 30.1327 3.19677 30.304 3.43638C31.6369 5.3007 33.1528 6.11976 34.8962 5.95781C36.6396 5.79585 37.9787 4.71157 38.9454 2.63361C39.0697 2.36655 39.3869 2.25077 39.6539 2.37501C39.921 2.49926 40.0368 2.81648 39.9125 3.08354C38.7957 5.48418 37.1459 6.82008 34.9949 7.0199C32.8439 7.21972 30.9762 6.2106 29.4363 4.05676Z" fill="#5B6272"/>
</g>
<g clip-path="url(#clip36)">
<path d="M0.573044 11.4266L1.27406 10.582C1.89671 10.7254 2.53881 10.7715 3.19956 10.7101C5.19014 10.5252 6.83469 9.41269 8.16309 7.65091C8.6426 7.01496 9.04496 6.33914 9.3709 5.66949C9.478 5.44943 9.56733 5.24953 9.63377 5.09118C9.53974 4.94865 9.41422 4.76717 9.2689 4.57122C8.82522 3.973 8.30522 3.38274 7.71674 2.8459L7.70436 2.83463L8.34363 2.06442C9.83291 3.40846 10.6548 4.83796 10.6706 4.86656C10.6871 4.89557 10.6973 4.92871 10.7004 4.96271L10.7059 5.02151C10.709 5.05531 10.7051 5.08976 10.6943 5.12131C10.6737 5.18253 8.56163 11.2163 3.29206 11.7058C2.31128 11.7969 1.40263 11.6791 0.573044 11.4266ZM-2.9109 9.36111C-4.37352 8.0285 -5.18002 6.62579 -5.1957 6.59746C-5.21214 6.56844 -5.22236 6.5353 -5.2255 6.5015L-5.23097 6.4427C-5.23412 6.40871 -5.23018 6.37425 -5.21936 6.3427C-5.19882 6.28129 -3.08716 0.246775 2.18206 -0.242725C3.13998 -0.331713 4.02909 -0.221384 4.84296 0.0190779L4.13889 0.867353C3.53538 0.734816 2.91369 0.693615 2.27456 0.752988C0.284183 0.93789 -1.36017 2.05049 -2.68837 3.81247C-3.16783 4.4485 -3.57013 5.12444 -3.896 5.79418C-4.00292 6.01391 -4.09238 6.21423 -4.15888 6.37277C-4.06487 6.51528 -3.93937 6.69672 -3.79407 6.89263C-3.35785 7.48076 -2.84784 8.06121 -2.27149 8.59073L-2.9109 9.36111ZM2.79876 2.48198L1.79937 3.68607C1.18064 3.9705 0.719959 4.52555 0.554287 5.18617L-0.445252 6.39044C-0.46943 6.27325 -0.487374 6.15355 -0.498696 6.03167C-0.664476 4.24714 0.651546 2.6613 2.43585 2.49554C2.55788 2.4842 2.67898 2.47979 2.79876 2.48198ZM5.90494 5.00261C5.93683 5.14171 5.95988 5.2845 5.97344 5.43043C6.13925 7.21532 4.82236 8.80183 3.0371 8.96767C2.89133 8.98121 2.74688 8.98486 2.60442 8.97916L3.56266 7.82465C4.27583 7.54272 4.8012 6.90971 4.94684 6.15696L5.90494 5.00261ZM-2.74873 13.1242C-2.92509 13.3367 -3.24032 13.366 -3.45281 13.1896C-3.66529 13.0133 -3.69458 12.6981 -3.51821 12.4856L8.22356 -1.6612C8.39992 -1.87368 8.71515 -1.90297 8.92763 -1.7266C9.14012 -1.55024 9.1694 -1.23501 8.99304 -1.02253L-2.74873 13.1242Z" fill="#5B6272"/>
</g>
</g>
<defs>
<clipPath id="clip0">
<rect width="300" height="150" fill="white"/>
</clipPath>
<clipPath id="clip1">
<rect width="16" height="16" fill="white" transform="translate(168.146 143.02) rotate(-5.30742)"/>
</clipPath>
<clipPath id="clip2">
<rect width="16" height="16" fill="white" transform="translate(136.283 145.98) rotate(-5.30742)"/>
</clipPath>
<clipPath id="clip3">
<rect width="16" height="16" fill="white" transform="translate(104.42 148.94) rotate(-5.30742)"/>
</clipPath>
<clipPath id="clip4">
<rect width="16" height="16" fill="white" transform="translate(292.637 99.3172) rotate(-5.30742)"/>
</clipPath>
<clipPath id="clip5">
<rect width="16" height="16" fill="white" transform="translate(228.911 105.237) rotate(-5.30742)"/>
</clipPath>
<clipPath id="clip6">
<rect width="16" height="16" fill="white" transform="translate(197.049 108.197) rotate(-5.30742)"/>
</clipPath>
<clipPath id="clip7">
<rect width="16" height="16" fill="white" transform="translate(165.186 111.157) rotate(-5.30742)"/>
</clipPath>
<clipPath id="clip8">
<rect width="16" height="16" fill="white" transform="translate(101.46 117.077) rotate(-5.30742)"/>
</clipPath>
<clipPath id="clip9">
<rect width="16" height="16" fill="white" transform="translate(69.5973 120.037) rotate(-5.30742)"/>
</clipPath>
<clipPath id="clip10">
<rect width="16" height="16" fill="white" transform="translate(37.7345 122.997) rotate(-5.30742)"/>
</clipPath>
<clipPath id="clip11">
<rect width="16" height="16" fill="white" transform="translate(289.677 67.4544) rotate(-5.30742)"/>
</clipPath>
<clipPath id="clip12">
<rect width="16" height="16" fill="white" transform="translate(257.814 70.4144) rotate(-5.30742)"/>
</clipPath>
<clipPath id="clip13">
<rect width="16" height="16" fill="white" transform="translate(194.089 76.3343) rotate(-5.30742)"/>
</clipPath>
<clipPath id="clip14">
<rect width="16" height="16" fill="white" transform="translate(162.226 79.2943) rotate(-5.30742)"/>
</clipPath>
<clipPath id="clip15">
<rect width="16" height="16" fill="white" transform="translate(130.363 82.2543) rotate(-5.30742)"/>
</clipPath>
<clipPath id="clip16">
<rect width="16" height="16" fill="white" transform="translate(98.5001 85.2143) rotate(-5.30742)"/>
</clipPath>
<clipPath id="clip17">
<rect width="16" height="16" fill="white" transform="translate(2.91167 94.0942) rotate(-5.30742)"/>
</clipPath>
<clipPath id="clip18">
<rect width="16" height="16" fill="white" transform="translate(286.717 35.5916) rotate(-5.30742)"/>
</clipPath>
<clipPath id="clip19">
<rect width="16" height="16" fill="white" transform="translate(222.991 41.5115) rotate(-5.30742)"/>
</clipPath>
<clipPath id="clip20">
<rect width="16" height="16" fill="white" transform="translate(191.129 44.4715) rotate(-5.30742)"/>
</clipPath>
<clipPath id="clip21">
<rect width="16" height="16" fill="white" transform="translate(159.266 47.4315) rotate(-5.30742)"/>
</clipPath>
<clipPath id="clip22">
<rect width="16" height="16" fill="white" transform="translate(95.5401 53.3515) rotate(-5.30742)"/>
</clipPath>
<clipPath id="clip23">
<rect width="16" height="16" fill="white" transform="translate(31.8145 59.2714) rotate(-5.30742)"/>
</clipPath>
<clipPath id="clip24">
<rect width="16" height="16" fill="white" transform="translate(-0.0483146 62.2314) rotate(-5.30742)"/>
</clipPath>
<clipPath id="clip25">
<rect width="16" height="16" fill="white" transform="translate(283.757 3.72876) rotate(-5.30742)"/>
</clipPath>
<clipPath id="clip26">
<rect width="16" height="16" fill="white" transform="translate(220.031 9.64873) rotate(-5.30742)"/>
</clipPath>
<clipPath id="clip27">
<rect width="16" height="16" fill="white" transform="translate(188.169 12.6087) rotate(-5.30742)"/>
</clipPath>
<clipPath id="clip28">
<rect width="16" height="16" fill="white" transform="translate(156.306 15.5687) rotate(-5.30742)"/>
</clipPath>
<clipPath id="clip29">
<rect width="16" height="16" fill="white" transform="translate(124.443 18.5287) rotate(-5.30742)"/>
</clipPath>
<clipPath id="clip30">
<rect width="16" height="16" fill="white" transform="translate(28.8545 27.4086) rotate(-5.30742)"/>
</clipPath>
<clipPath id="clip31">
<rect width="16" height="16" fill="white" transform="translate(-3.0083 30.3686) rotate(-5.30742)"/>
</clipPath>
<clipPath id="clip32">
<rect width="16" height="16" fill="white" transform="translate(121.483 -13.3341) rotate(-5.30742)"/>
</clipPath>
<clipPath id="clip33">
<rect width="16" height="16" fill="white" transform="translate(89.6201 -10.3741) rotate(-5.30742)"/>
</clipPath>
<clipPath id="clip34">
<rect width="16" height="16" fill="white" transform="translate(57.7573 -7.41415) rotate(-5.30742)"/>
</clipPath>
<clipPath id="clip35">
<rect width="16" height="16" fill="white" transform="translate(25.8945 -4.45418) rotate(-5.30742)"/>
</clipPath>
<clipPath id="clip36">
<rect width="16" height="16" fill="white" transform="translate(-5.96828 -1.49419) rotate(-5.30742)"/>
</clipPath>
</defs>
</svg>
