<svg xmlns="http://www.w3.org/2000/svg" width="500" height="500" fill="none" viewBox="0 0 500 500">
  <g filter="url(#filter0_d)">
    <circle cx="250" cy="250" r="85" fill="white"/>
  </g>
  <path fill="#FF957D" d="M254.75 271.375c0-13.063-13.062-26.125-26.125-26.125l16.625-16.625c0 13.063 13.062 26.125 26.125 26.125l-16.625 16.625z"/>
  <circle cx="228.625" cy="228.625" r="16.625" fill="#F04E98"/>
  <circle cx="271.375" cy="271.375" r="16.625" fill="#FEC514"/>
  <path fill="#00BFB3" d="M285.625 245.25c-17.052 0-30.875-13.823-30.875-30.874l30.875-.001v30.875z"/>
  <path fill="#1BA9F5" d="M214.375 254.75c17.052 0 30.875 13.823 30.875 30.874l-30.875.001V254.75z"/>
  <path fill="#E6EBF2" d="M489.3 271.341h-51.2v14.4h51.2v-14.4zM499 292.441h-60.9v6.5H499v-6.5zM478.7 304.941h-40.6v6.5h40.6v-6.5zM88.7 75.541H39.4v49.5h49.3v-49.5z"/>
  <path fill="#FAFBFD" d="M45.73 79.273l-2.262 2.262 38.396 38.396 2.262-2.263-38.395-38.395z"/>
  <path fill="#FAFBFD" d="M81.934 79.271L43.54 117.667l2.263 2.263 38.395-38.396-2.263-2.263z"/>
  <path fill="#E6EBF2" d="M35.8 372.441c0-.2-.2-.6-.4-.7-.2-.1-.9-.1-1 .1-.2.3.3.8.5 1 .3.2.9 0 .9-.4zM35.6 367.241c1.1-1 1.5 0 2.5-.5.2-.1.3-.3.4-.3.7-.9.3-1.8-.7-2-.6-.1-1.3-.1-2 0s-1.3 1-1.3 1.7c-.1.4.2 1.3 1.1 1.1zM35.1 358.841c.5.2 1 0 1.2-.4.2-.4 0-1.1-.4-1.3-.4-.2-1 0-1.2.5-.2.5-.1 1 .4 1.2zM40.8 394.541c-.1.2-.2.6.1.7.2.1.5-.1.6-.2.1-.1.1-.7-.1-.8-.2-.1-.6.2-.6.3zM38.9 346.741c1 .3 1.8-.5 2.1-1.3.3-.8-.6-2.3-1.7-2.5-.8-.1-1 .9-.7 1.4.2.5.1.4-.2.8-.3.5-.5 1.4.5 1.6zM39.5 348.741c-.3.5-.1 1 .4 1.4.3.2.6.4.7.7.3.6.7.9 1.3.9.5 0 1.2-1 1.1-1.6 0-.5 0-1.1-.8-1.2-.5-.1-1-.3-1.6-.4-.4-.4-.9-.2-1.1.2zM43.2 344.241c.1-.4-.1-.6-.4-.7-.4-.2-.9 0-.9.4 0 .3.1.6.2.9.4.1.9-.2 1.1-.6zM42.9 340.941c.2.1.5-.1.6-.2.1-.1.1-.7-.1-.7-.2-.1-.6.2-.7.4 0 0 0 .4.2.5zM44.1 354.741c-.2.8.1 1.7.8 2 .2-1.3.4-2.6.7-3.9-.2-.5-1-.8-1.5-.6-.5.2-1 .8-1 1.4 0 .7.7 1 1 1.1zM31.9 383.941c-.4-.2-1.2.3-1.2.6s.3.6.6.7c.3.2.7.2.9-.3.1-.4.2-.8-.3-1zM36 354.541c.4.2 1.1.1 1.1-.3.1-.3.1-1.1-.3-1.3-.4-.2-.8.4-1 .6-.1.3-.2.7.2 1zM44.2 401.741c-.5-.2-1 0-1.2.5-.2.5-.1.9.4 1.1.5.2 1 0 1.2-.4.1-.5-.1-1-.4-1.2zM37.9 397.941c0-.2 0-.5-.1-.6-.1-.1-.7 0-.7.1-.1.1.2.5.4.6.1.1.4-.1.4-.1zM37.2 394.941c-.2-.1-.3.1-.3.2s.1.3.2.3.3 0 .3-.1c0-.2-.1-.4-.2-.4zM39.1 392.541c-.4-.2-1 .1-1.2.6-.2.5.1.9.6 1.2.6.2 1 .1 1.2-.3.1-.4-.2-1.3-.6-1.5zM37.8 375.041c.3-.6-.1-1.2-.9-1.5-.6-.3-1.2-.1-1.4.4-.2.5.1 1.7.6 2 .7.2 1.3-.1 1.7-.9zM40.6 374.741c.2-.5-.1-1-.7-1.1-.5-.2-.9 0-1.1.5-.2.5.1 1 .5 1.2.6.2 1.2-.1 1.3-.6zM32.3 364.341c0 .1.1.3.2.3s.3 0 .3-.1 0-.3-.1-.4c-.2-.1-.3.1-.4.2zM31.8 376.141c-.5-.3-.9-.1-1.1.3-.3.5-.1 1 .3 1.3.4.2 1 0 1.2-.3.3-.5.1-1-.4-1.3zM34.3 351.241c.1-.2 0-.5-.1-.6-.1-.1-.6-.1-.7.1-.1.2.2.5.4.6 0 .1.4.1.4-.1zM35.6 389.241c-.3-.1-.6.2-.7.3-.1.1.1.5.2.6.1.1.5 0 .5-.2.2-.1.3-.6 0-.7zM35.4 377.841c-.5-.2-1.1.2-1.3.8-.3.8 0 1.5.7 1.7.6.3 1.4 0 1.6-.4.2-.7-.3-1.7-1-2.1zM35.4 382.241c-.5-.2-1.1.1-1.3.6-.2.4 0 .9.5 1.1.6.3 1.1.1 1.3-.5.2-.4 0-1-.5-1.2zM39.5 369.641c.8.3 1.5 0 1.8-.7.3-.8 0-1.4-.8-1.7-.7-.3-1.6 0-1.8.5-.3.6.2 1.7.8 1.9z"/>
  <path fill="#E6EBF2" d="M37.9 364.041c0 .5 1.1 1 1.4.7.3-.3 0-1.4-.5-1.4-.4-.1-.9.3-.9.7zM41.1 363.041c.2-.1.3-.5.2-.7-.2-.3-.5-.6-.8-.6-.6 0-.6.5-.7.9.4.5.8.7 1.3.4zM41.5 381.141c.4.2 1.2 0 1.4-.4.4-.9.3-1.8-.3-2-.5-.2-1.6.3-1.8.9-.3.4.1 1.3.7 1.5zM39.5 356.341c-.5-.1-1 .2-1.2.6-.2.5.1.9.6 1.2.5.2 1.1 0 1.3-.5.1-.5-.3-1.2-.7-1.3zM50.9 405.341c-.2-.1-.7 0-.8.1-.1.2.1.7.2.8.2.1.9.1 1-.1.1-.2-.2-.8-.4-.8zM61.6 405.941c-.2.2 0 .6.1.7.1.1.5.2.6 0 .1-.1.1-.3.1-.4l-.3-.3c-.2-.1-.4-.1-.5 0zM109.6 422.741c-.3.3-.3.8.1 1 .3.1.6.3.9.1.2-.2.3-1.1-.1-1.3-.4-.3-.7-.1-.9.2zM48.9 388.641c.1.5.3.8.9.8h.2c-.3-.5-.5-1.1-.8-1.7-.2.3-.3.5-.3.9zM49.9 392.441c-.1.6-.1 1 .5 1.2.2.1.6-.1.7-.3.1-.2.2-.7.1-.9-.4-.5-.8-.3-1.3 0zM48.6 333.741c.2 0 .4-.4.3-.6 0-.2-.4-.4-.6-.4-.2 0-.6.3-.6.6.1.2.8.4.9.4zM43.7 358.541c-.2.5 0 1.1.4 1.3.1.1.3.1.4 0 0-.6.1-1.2.2-1.7-.4-.2-.8 0-1 .4zM46.5 340.141c.8.4 1.9-.2 2.2-1 .3-.8-.2-2-.9-2.3-.9-.4-2 0-2.3.8-.3.6.3 2.1 1 2.5zM46.7 346.541c.1-.4-.1-.6-.4-.7-.4-.2-.9 0-.9.4 0 .3.1.6.2.9.5.1 1-.2 1.1-.6zM43.6 377.541c.7.3 1.7 0 1.9-.6.2-.6-.3-1.8-.8-2.1-.6-.3-1.4.1-1.7.8-.4.7 0 1.7.6 1.9zM41.9 363.541c.1.6.3 1 .7 1.2 0 .1-.1.1-.1.2-.4.9 0 1.5.7 2-.3.5-.8.8-.3 1.4.3.4.7.4 1.1.2.7-.3.4-.9.3-1.5.1-.1.2-.1.3-.2 0-.8-.1-1.5-.1-2.3 0-.8 0-1.5.1-2.3-.3-.4-.7-.7-1-.7-.9.1-1.9 1-1.7 2zM64.5 409.341c.3.1.6.1.9.1.1-.1.2-.3.2-.5-.3-.3-.7-.5-1-.8-.1 0-.1.1-.1.1-.4.4-.4.9 0 1.1zM77.2 416.241c-.5-.2-1-.5-1.5-.7 0 .3-.1 1 .2 1.2.3.3.9-.2 1.3-.5zM44 371.341c-.2.4 0 .9.5 1.1.1.1.3.1.5.1-.1-.6-.2-1.2-.2-1.8-.4.1-.7.4-.8.6zM111.2 425.441c-.1.2 0 .6.1.6.2.1.5.3.6.2.1-.2.1-.5 0-.6 0-.1-.5-.3-.7-.2zM99.3 421.741c-.1 0-.1-.1-.2-.1-.7 0-1.3-.1-2-.1-.3.5-.2 1.5.3 1.9.4.3 1.4.2 1.8-.2.4-.4.4-1.2.1-1.5zM105.3 421.541c-.4 0-.9.1-1.3.1-.3.5.1.9.8.5.1-.3.4-.4.5-.6zM93.2 424.541c.5-.5.4-1.2-.2-1.8-.5-.4-1.1-.3-1.7.3-.4.5-.5 1.1-.1 1.4.3.5 1.6.5 2 .1zM89.8 423.741c-.2-.1-.6 0-.8.2-.2.2-.4.8-.2 1 .2.2.8 0 1.1-.1.3-.3.2-1-.1-1.1zM85.1 424.441c-.6-1.3.5-1.4.4-2.5 0-.2-.1-.4-.2-.5-.6-.9-1.6-.9-2.1 0-.3.6-.5 1.2-.7 1.8-.2.7.5 1.6 1.2 1.8.4.3 1.3.3 1.4-.6zM104.5 424.841c-.4.6-.4 1.3 0 1.7.5.4 1.6.4 1.9 0 .3-.4 0-1.4-.5-1.9-.3-.3-1.1-.2-1.4.2zM83.3 418.741c-.4-.1-.8-.3-1.1-.4 0 .3-.1 1 .2 1 .1.1.7-.4.9-.6zM92.2 420.941c0 .2-.3.4-.2.6.1.4 1.5.1 1.8-.3 0 0 0-.1.1-.1-.6-.1-1.2-.2-1.7-.2zM41.5 386.641c-.7-.2-1.4 0-1.6.5-.2.6.1 1.6.6 1.8.4.2 1.3-.4 1.6-1.1.3-.3-.1-1-.6-1.2zM112.7 421.441c-.3.3-.3.7 0 1.1.2.3 1.2.2 1.4-.1.1-.4 0-.6-.2-.9-.3-.4-.9-.4-1.2-.1zM118.5 420.141c.3-.3.4-.7.4-1.2-1 .3-2.1.7-3.2.9l.3.3c.6.7 1.9.6 2.5 0zM47.9 392.941c.2-.2.4-.8.4-1.1-.1-.4-.5-.4-.6-.4-.3.1-.4.4-.5.7-.1.3-.2.5-.2.8.2.3.6.3.9 0zM47.2 400.441c-.2.3.2.5.4.6.1.1.5-.1.5-.2 0-.2 0-.5-.1-.6-.2 0-.6-.1-.8.2zM51.1 409.741c-.3-.1-1.1-.1-1.2.2-.1.2.3.8.6 1.1.3.3.7.1 1-.4.2-.5 0-.8-.4-.9zM50.9 397.441c.4-.8 0-1.7-1.1-2.2-.8-.4-1.7-.1-2.1.8-.4.8.1 2 .9 2.4.8.2 2-.3 2.3-1zM53.4 395.341c-.1-.2-.2-.3-.2-.4-.1-.1-.2-.1-.2-.1-.2 0-.5.2-.6.4-.1.1.1.7.4.8.2 0 .5-.5.6-.7zM56 402.041c.4-.1.8-.4.9-.6.2-.6-.3-1.4-1.1-1.7-.7-.3-1.2.1-1.5.9-.1.3 0 .7.2 1-.4.1-.7.2-.9.4-.6.7-.7 1.9 0 2.4.6.5 2.2.4 2.8-.1.5-.4.4-1.6-.4-2.3.1 0 0 0 0 0zM58.5 406.041c.1-.4.1-.8-.4-.9-.3-.1-1.2 0-1.3.3-.1.3.6.9.9 1 .3.2.7 0 .8-.4zM43.5 397.541c-.3-.1-.8.2-1 .7-.2.4 0 .6.3.8.4.1.8.2 1-.3.3-.4.1-1-.3-1.2zM44.9 382.241c.6.1 1-.1 1.1-.4.2-.6 0-1.2-.6-1.4-.5-.1-1 .1-1.1.6 0 .1-.1.3-.1.4-.1-.1-.2-.1-.4-.1-.7 0-.6.7-.8 1.2.6.4 1.1.7 1.6.2.2-.1.3-.3.3-.5zM47.5 384.341c0-.4-.3-.7-.7-.8-.5-.1-1.1.1-1.2.5-.2.7.2 1.1.7 1.5.9-.3 1.3-.6 1.2-1.2zM44.5 389.841c0 .3-.1.7.2.9.2.2 1.1-.1 1.2-.5.1-.4-.1-.6-.4-.7-.5-.3-1-.1-1 .3zM45.5 393.241c-.4-.2-.8 0-1 .3-.2.3.2 1.2.6 1.2.4 0 .6-.2.8-.5.2-.2 0-.8-.4-1zM58.3 410.841c-.1.2 0 .5.2.6.2.1.5-.1.6-.2.1-.1.1-.7-.1-.7-.2-.2-.6.1-.7.3zM76.8 419.941c.4-.4.4-1 0-1.3-.3-.3-1-.3-1.3 0-.4.3-.3.9.1 1.3.3.4.8.4 1.2 0zM73.7 415.341c-.3-.4-.7-.6-1.2-.4-.4.1-.6.4-.6.8 0 .2.1.3.1.5-.1 0-.2.1-.3.2-.3.4.1.9.2 1.1.2.3.6.5.9.2.3-.2.4-.7.3-1 .5-.5.9-.8.6-1.4zM71.2 420.841c-.2.3-.4 1.2-.2 1.4.2.3 1.1-.2 1.1-.4.1-.4.3-.9 0-1.2-.4-.4-.8 0-.9.2zM75.9 423.341c-.5.6-.5 1.4-.1 1.7.6.5 1.7.4 2.3-.2.4-.4.2-1.3-.4-1.7-.6-.5-1.3-.4-1.8.2zM80 426.841c-.1.1 0 .3.1.4.1.1.3 0 .3-.1.1-.1.1-.2 0-.3-.1-.1-.3-.2-.4 0zM71.5 413.241c-.8-.5-1.6-1-2.3-1.5l-.1.1c-.3.5-.6.9-.9 1.3-.5.4-.5.8-.2 1.2.4.4.9.4 1.4.1.3-.2.6-.4.9-.4.6-.1 1-.3 1.2-.8zM59.7 403.541c-.3.1-.6.3-.7.6-.2.4 0 .9.5 1.1.6.3 1.1.1 1.3-.5v-.1l-1.1-1.1zM59.3 413.141c-.1.1 0 .5.1.6.1.1.5.3.6.1.2-.2-.1-.6-.2-.7-.1-.1-.4-.2-.5 0zM61.7 417.141c-.2-.1-.4.1-.6.3-.1.1-.1.5.1.6.2.1.5-.3.6-.4.1-.1 0-.4-.1-.5zM64.9 414.441c-.7-.6-2.4-.2-2.9.8-.3.7.5 1.2 1.1 1.2.5-.1.4 0 .7.5.3.5 1.1.9 1.7 0 .5-.9 0-1.9-.6-2.5zM67.7 420.941c-.1.1-.3.5-.1.7.2.2.6-.1.7-.2.1-.1.2-.4 0-.5-.1 0-.4-.1-.6 0zM367.4 50.741c.6-.3 1.3-.5 1.9-.8-.4-.2-1-.2-1.4.2-.2.2-.4.4-.5.6zM369.4 37.141c.4.1.5-.3.6-.4 0-.1-.1-.5-.3-.5-.2 0-.5.1-.6.2 0 .1-.1.6.3.7zM367.8 44.741c-.2.2 0 .6.1.7.1.1.4.2.5 0 .1-.1.1-.5 0-.6 0 0-.4-.2-.6-.1zM368 42.841c.1-.2.1-.6-.2-.7-.3-.1-.6.1-.7.3-.1.2-.3.7.1.9.4.2.7-.3.8-.5zM381.5 41.941c.3.1 1.1-.3 1.3-.8.2-.5 0-1-.5-1.2-.5-.2-.9 0-1.1.4-.3.6-.1 1.4.3 1.6zM374 48.241c-.1-.5-.3-.9-.7-1-.7-.3-1.6.1-1.9.7-.1.3 0 .7.2 1.1.9-.3 1.6-.5 2.4-.8zM373.9 45.141c0 .1-.1.3.1.4.1.1.2-.1.3-.1 0-.1 0-.3-.1-.3-.1-.1-.3-.1-.3 0zM379.7 39.241c.2-.2.5-.9.3-1.1-.2-.2-.9-.1-1.2 0-.4.2-.4.6-.1 1 .4.4.7.3 1 .1zM381.1 46.341c.1 0 .2 0 .4-.1l.1-.1c.2-.3.5-1 .3-1.3-.2-.3-1 .1-1.3.3-.3.2-.3.6 0 .9.2.2.4.3.5.3zM373.6 40.741c.8.4 1.9-.2 2.2-1 .3-.8-.2-2-.9-2.3-.9-.4-2 0-2.3.8-.3.7.3 2.2 1 2.5zM364.3 47.941c.3 0 .8-.1 1-.3.3-.3-.1-1-.5-1-.3-.1-.6.1-.8.2-.2.5-.1 1.1.3 1.1zM375.4 43.041c-.5.2-.6.3-.7.7-.1.4 0 .7 0 .8.4 0 1.2.3 1.4-.1.3-.4-.3-1-.4-1.4h-.3zM365.8 41.541c.3-.2.4-1.3 0-1.5-.6-.3-1.1-.3-1.3.5-.2.9.9 1.3 1.3 1zM326.5 102.441c-.3-.1-.6.2-.7.3-.1.1.1.5.2.6.1.1.5 0 .5-.2.2-.1.3-.6 0-.7zM326.1 99.841c.1-.3.1-.7-.1-.9-.2-.3-1-.2-1.1.2-.1.2 0 .6 0 .7.5.4 1.1.3 1.2 0zM324.1 89.441c-.5-.2-1.2 0-1.3.5-.2.4.1 1.1.5 1.2.4.1 1-.1 1.2-.6.2-.4 0-.9-.4-1.1zM324.8 104.141c.3.2 1 .5 1.2.2.2-.3-.1-1.1-.3-1.3-.3-.3-.8-.2-1.1.2-.3.3-.1.7.2.9zM332.7 83.641c0-.2-.2-.6-.4-.7-.2-.1-.9-.1-1 .1-.1.2.3.8.5 1 .2.2.9-.1.9-.4zM334.8 75.241c0 .5 1.1 1 1.4.7.3-.3 0-1.4-.5-1.4-.4-.1-.9.3-.9.7zM326.3 87.741c.2-.2.1-.5 0-.6-.1-.1-.6-.3-.7-.2-.2.2 0 .6.1.7.1.2.5.3.6.1zM324.8 94.741c-.3.3-.2 1.1.4 1.7.2 0 .6 0 .8-.1.5-.4.6-1.2.2-1.5-.3-.5-1.1-.5-1.4-.1zM323.8 105.941c-.6-.5-1.6-.6-2-.1-.3.3-.4.8-.3 1.3.5.3 1.1.5 1.6.8.2-.1.4-.2.6-.4.6-.5.6-1.2.1-1.6zM337 68.741c.1-.4-.2-1.1-.7-1.3-.5-.1-1 .2-1.2.6-.2.5.1.9.6 1.2.6.3 1.2.1 1.3-.5zM320.4 104.741c.1-.1 0-.2 0-.3h-.4s-.1.3 0 .3.3.1.4 0zM329.1 88.641c.2-.4.1-1-.4-1.3-.5-.3-.9-.1-1.1.3-.3.5-.1 1 .3 1.3.5.2 1 0 1.2-.3zM327.6 95.741c0 .3.3.6.6.7.1-.5.3-.9.4-1.4-.3 0-1 .4-1 .7zM326.9 97.641c-.1.3-.4.9 0 1.2.3.2.5.1.8 0l.3-1.2c-.4-.4-.9-.4-1.1 0zM411.3 32.941c.3-.2.2-1.2 0-1.4-.3-.1-.6.1-.9.2-.3.2-.4.6-.1.9.2.4.5.6 1 .3zM404.8 43.341c.3-.1.8-.3.9-.6.3-.7-.3-.9-.8-1.2-.6.4-1.1.7-.8 1.4.1.1.5.4.7.4zM375.7 45.941c.2-.1.1-.6-.1-.8-.1-.1-.4-.2-.6-.1-.2.1-.1.5 0 .6 0 .2.5.5.7.3zM365.6 50.141c0-.3 0-.7-.2-.9-.2-.2-1.1-.1-1.2.3-.2.4 0 .9.5 1.1.3.1.8 0 .9-.5zM397 44.341c.4.1.6-.2.6-.4 0-.3-.2-.5-.4-.7-.2-.2-.3-.4-.6-.5-.3 0-.5.4-.4.7.1.4.5.8.8.9zM403.6 45.441c.6.1 1.3.1 1.9.2 0-.2-.1-.3-.2-.5-.5-.5-1.1-.3-1.6-.1 0 .2-.1.3-.1.4zM411.2 36.841c.4-.3.4-1.1 0-1.4-.3-.3-.8-.4-1.2 0-.5.4-.5 1-.2 1.4.4.3 1.1.3 1.4 0zM432.5 46.541c-.4.3-.5.9-.1 1.3.3.3 1 .4 1.3.2.4-.3.4-.9.1-1.3-.4-.4-.9-.5-1.3-.2zM385.5 37.141c.2-.2.4-.6.2-.8-.1-.2-.6-.2-.8-.1-.2.1-.5.7-.3.9.1.2.8.1.9 0zM392.1 31.841c.4-.3.4-.9.1-1.3-.3-.4-.7-.5-1.2-.1-.4.3-.5.9-.1 1.3.2.3.9.4 1.2.1zM391.7 44.941h.8c0-.2 0-.4-.2-.4-.1-.1-.5.2-.6.4zM397 41.141c.3-.3.4-.7.1-1.1-.2-.3-1.2-.3-1.4 0-.2.3-.1.6.1.9.2.5.8.5 1.2.2zM393.9 37.541c.3-.2.1-.8-.2-1.2-.3-.3-.6-.3-.8 0-.3.3-.5.7-.2 1.1.3.3 1 .4 1.2.1zM408.5 45.341c-.3-.3-.7-.6-1-.3-.3.3-.5.6-.5.8.6.1 1.2.2 1.9.3 0-.2-.1-.6-.4-.8zM389.6 40.341c.1-.1.4-.4.2-.7-.2-.3-.6 0-.7.1-.1.1-.1.4-.1.5.1.1.4.1.6.1zM390.4 45.141c.4-.6.4-1.3-.1-1.9-.6-.7-1.9-.8-2.5-.2-.6.5-.7 1.6-.2 2.3.9-.1 1.8-.2 2.8-.2zM398.9 30.741c.1-.1.3-.6.2-.7-.1-.1-.6 0-.7.1-.1.1-.1.4-.1.5.2.1.5.2.6.1zM405.4 38.741c.5-.5.6-1.3.2-1.7-.4-.5-1.5-.6-1.9-.2-.4.3-.2 1.4.3 1.9.3.4 1.1.4 1.4 0zM402.7 33.941c.3-.3.3-.9 0-1.3-.4-.4-.9-.3-1.3.1s-.6.9-.3 1.2c.3.3 1.2.3 1.6 0zM401.4 31.241c.1-.1 0-.3 0-.4-.1-.1-.3 0-.3 0-.1.1-.1.2 0 .3 0 .2.1.2.3.1zM400.3 41.341c.3.3.6.1.8-.1.4-.3.4-.8 0-1-.3-.2-.6-.4-.8-.2-.2.1-.3 1 0 1.3zM400.2 35.341c.2-.2.1-.6 0-.7-.1-.1-.5-.4-.6-.2-.2.2-.2.5-.1.6 0 .2.5.5.7.3zM326.4 75.841c.1 0 .3 0 .3-.1s0-.3-.1-.4c-.1-.1-.3.1-.3.2-.1 0 0 .2.1.3zM420.8 41.341c.2-.1.5-.7.3-1-.2-.2-.8-.1-1.1 0-.4.2-.4.9-.1 1 .3.2.7.2.9 0zM416.7 40.241c-.6.5-.5 1.2 0 1.8.4.5 1.1.4 1.7-.1.5-.4.6-1 .3-1.4-.3-.5-1.6-.7-2-.3zM415.7 43.441c-.3.3-.3 1 0 1.3.4.3.9.3 1.3-.1s.4-.8 0-1.2c-.3-.3-.9-.3-1.3 0zM420.9 45.941c-.7.6-.7 1.4-.1 1.9.6.6 1.3.6 1.8 0 .5-.5.7-1.4.3-1.9-.4-.4-1.6-.4-2 0zM426.9 48.041c.2-.3 0-.9-.3-1.1-.5-.2-1.3.6-1.2.9.1.3 1.3.6 1.5.2zM426.3 44.241c.4-.5.7-1.1.9-1.7.2-.6-.3-1.6-1-1.9-.4-.2-1.3-.3-1.5.6.4 1.4-.6 1.3-.7 2.4 0 .2.1.4.1.5.6.9 1.6 1 2.2.1zM318.6 102.541c0 .6.1.7.5.9.3.2.6.3.8.3.1-.4.7-1 .4-1.4-.3-.4-1 0-1.5 0-.1 0-.2.1-.2.2zM321.3 76.941c.1-.2 0-.6-.1-.7-.2-.2-.6-.3-.8-.2-.6.3-.5 1-.2 1.3 0 .2.8.2 1.1-.4zM412 46.241c-.2.2-.3.4-.4.6.9.2 1.8.5 2.7.7 0-.4-.1-.8-.3-1.1-.5-.5-1.5-.7-2-.2zM322.4 97.541c.3.1.9 0 1.1-.4.2-.4-.3-1-.7-1.2-.2-.2-1.3-.1-1.5.3-.2.4.7 1.1 1.1 1.3zM412.3 42.941c.4-.4.4-1.5 0-2-.3-.4-1.4-.4-1.8 0-.4.3-.5 1.1-.2 1.4.6.8 1.5 1 2 .6zM319.5 96.441c.2-.3 0-1.1-.3-1.5-.4-.4-.9-.3-1.3.1-.3.4-.3.9 0 1.2.5.4 1.3.5 1.6.2zM445.3 61.341c-.2.1-.1.5 0 .6.1.1.5.4.7.2.2-.1.1-.6-.1-.8 0 0-.4-.1-.6 0zM426.6 50.141c-.6.1-.9.4-.8 1 0 .2.4.5.5.5.3 0 .7-.2.9-.4.2-.5-.2-.8-.6-1.1zM442.2 58.841c-.4.4-.4 1 0 1.3.3.3.6.1.8-.1.4-.3.4-.8 0-1-.2-.1-.5-.1-.8-.2zM432.8 50.341c-.4-.4-.9-.3-1.3 0-.4.4-.5 1-.1 1.4.3.3 1.1.3 1.4-.1.4-.4.4-1 0-1.3zM323 82.741c.4.2 1-.1 1.2-.5.2-.6 0-1.1-.5-1.3-.5-.2-1.1.1-1.3.6-.2.4 0 1 .6 1.2zM433.8 56.041c-.3-.1-.6-.1-.8 0 .5.3 1.1.7 1.6 1-.1-.4-.4-.8-.8-1zM436.9 49.541c-.2-.3-.5-.5-.9-.3s-.6.9-.2 1.1c.3.2.9.6 1.3.3.3-.3 0-.8-.2-1.1zM439.2 52.841c-.3.1-.6.3-1 .3-.6 0-1.1.3-1.4.8-.2.4.4 1.5.9 1.7.5.2 1 .4 1.4-.2.3-.4.7-.8 1-1.2.5-.3.6-.8.3-1.2-.1-.4-.6-.5-1.2-.2zM354.9 53.741c.5-.3.7-1.1 0-1.6-.3-.2-.8-.2-1.1-.1-.2.1-.5.6-.4.9.1.8 1 1.1 1.5.8zM350.7 52.941c-.2.4 0 1 .5 1.2.5.2 1.1.1 1.3-.4.2-.5 0-1-.4-1.3-.5-.2-1.2.1-1.4.5zM350.7 57.141c-.1-.1-.2-.2-.3-.2-.4-.1-.9.2-1.1.7-.2.6 0 1.3.5 1.5.5.2 1-.1 1.2-.6.2.2.5.3.8.4.4.1.8.2 1.1.5.9-.7 1.9-1.4 2.8-2.1l-.3-.3c-.6-.4-1.3-.4-2-.4-.2 0-.5 0-.7-.1-1-.5-1.6-.3-2 .6zM335.7 78.741c-.1.1-.2.2-.2.3v.1c.1-.2.2-.3.2-.4zM348.5 51.341c.5-.2.6-.6.4-1.6-.5-.1-1.1-.4-1.5.3-.2.4-.2.9.2 1.2.3.1.7.2.9.1zM349.8 45.641c.9.4 2 0 2.3-.9.3-.8.1-1.6-.6-1.9-.9-.4-2.3.1-2.5.8-.3.8.1 1.7.8 2zM355.5 48.641c.4.2 1-.5 1-1.2s-1-.8-1.3-.7c-.3.1 0 1.7.3 1.9zM346 55.141c.5.2 1.6-.1 1.9-.5.3-.6 0-1.3-.7-1.7-.5-.3-1.2.1-1.5.8-.4.6-.2 1.2.3 1.4zM324.9 67.541c.4-.1.9 0 1.2-.4.2-.4-.3-.7-.5-.7-.4-.1-1.3 0-1.4.3-.2.2.5.8.7.8zM358.8 49.241c-.3.6-.5 1.2-.6 1.8-.1.7.5 1.6 1.2 1.8.4.1.8.1 1-.3.5-.9.9-1.9.8-3 0-.2-.1-.4-.2-.5-.7-.8-1.7-.8-2.2.2zM341.4 69.941c-.1.2-.1.5 0 .8.3-.4.7-.8 1-1.2-.4-.2-.8 0-1 .4zM347.6 63.941l1.2-1.2c.1-.6-.2-1.1-.9-1.3-.7-.3-1.5-.1-1.7.4-.2.6.3 1.7 1 2 .2.1.3.1.4.1zM359.5 47.341c.1.2.6.1.7 0 .1-.1.3-.4.2-.6-.1-.2-.5-.2-.6-.1-.2.1-.4.5-.3.7zM358.9 44.841c.4 0 .9-1.2.5-1.6-.3-.3-1-.3-1.2 0-.3.5.3 1.6.7 1.6zM358.2 38.741c.1-.2.2-.9-.3-1.1-.5-.2-.8.4-.8.6-.1.2.1.6.3.8.2.3.7 0 .8-.3zM332 70.041c.5.2 1 0 1.2-.4.2-.4 0-1.1-.4-1.3-.4-.2-1 0-1.2.5-.3.5-.1 1 .4 1.2zM330.5 79.441c1.1-1 1.5 0 2.5-.5.2-.1.3-.3.4-.3.7-.9.3-1.8-.7-2-.6-.1-1.3-.1-2 0s-1.3 1-1.3 1.7c-.1.4.2 1.3 1.1 1.1zM332.9 65.741c.4.2 1.1.1 1.1-.3.1-.3.1-1.1-.3-1.3-.4-.2-.8.4-1 .6-.1.3-.2.7.2 1zM327.7 62.541c.1.1.4 0 .5-.2.1-.2 0-.5-.1-.6-.1-.1-.6-.1-.7.1-.2.3.2.6.3.7zM327.7 72.941c.5.2 1.3-.2 1.5-.9.3-.8 0-1.4-.8-1.7-.7-.3-1.5-.1-1.7.5-.1.8.3 1.7 1 2.1zM335.4 62.041c.3.6.7.9 1.3.9.5 0 1.2-1 1.1-1.6 0-.5 0-1.1-.8-1.2-.5-.1-1-.3-1.6-.4-.5-.4-1-.2-1.2.2-.3.5-.1 1 .4 1.4.4.2.7.4.8.7zM343.6 57.741c.1-.4-.1-.6-.4-.7-.4-.2-.9 0-.9.4 0 .3.1.6.2.9.5.1 1-.2 1.1-.6zM340.9 65.941c-.2.8.1 1.7.8 2 .7.3 1.4.2 1.9-.2v.2c.6-.7 1.2-1.3 1.9-2-.5 0-.9.2-1.2.4 0 0-.1 0-.1.1 0-.6-.4-1.1-1.1-1.4-.3-.1-.5-.2-.8-.2.1-.2.2-.4.1-.6-.1-.6-1-1-1.6-.8-.5.2-1 .8-1 1.4.2.7.9 1 1.1 1.1zM342.8 62.041c-.3.5-.1 1 .4 1.2.5.2 1.1 0 1.3-.4.2-.4-.1-.9-.6-1.2-.4-.2-.9 0-1.1.4zM340.1 55.441c.1-.4-.1-.6-.4-.7-.4-.2-.9 0-.9.4 0 .3.1.6.2.9.4.1.9-.2 1.1-.6zM338.6 74.341c.2-.3.4-.6.6-.8-.2-.3-.5-.6-.8-.6-.6 0-.6.5-.7.9.3.4.6.6.9.5zM339.8 52.141c.2.1.5-.1.6-.2.1-.1.1-.7-.1-.7s-.6.2-.7.4c0 0 0 .4.2.5z"/>
  <path fill="#ECF0F6" d="M395.3 58.541c-30.8 0-55.7 24.9-55.7 55.7 0 1.2 0 2.3.1 3.5 19.8 13.4 36.4 31.1 48.6 51.8 2.3.3 4.6.5 7 .5 30.8 0 55.7-24.9 55.7-55.7 0-30.8-24.9-55.8-55.7-55.8z"/>
  <path fill="#DCE2EA" d="M90.9 234.341h.2c.7 0 1.4-.6 1.5-1.3.3-2.9.7-5.8 1.2-8.6.1-.8-.4-1.6-1.2-1.7-.8-.1-1.6.4-1.7 1.2-.5 2.9-.9 5.8-1.2 8.7-.2.9.4 1.6 1.2 1.7zM122.4 154.041c.3.2.6.3.9.3.4 0 .9-.2 1.2-.6 1.7-2.3 3.6-4.5 5.5-6.7.5-.6.5-1.6-.2-2.1-.6-.5-1.6-.5-2.1.2-1.9 2.2-3.8 4.5-5.6 6.8-.5.6-.4 1.6.3 2.1zM112.6 168.441c.2.1.5.2.8.2.5 0 1-.3 1.3-.7 1.5-2.5 3.1-4.9 4.7-7.3.5-.7.3-1.6-.4-2.1s-1.6-.3-2.1.4c-1.7 2.4-3.3 4.9-4.8 7.4-.4.8-.2 1.7.5 2.1zM98.1 200.241c.2.1.3.1.5.1.6 0 1.2-.4 1.4-1 .9-2.7 1.9-5.5 3-8.1.3-.8-.1-1.6-.8-1.9-.8-.3-1.6.1-1.9.8-1.1 2.7-2.1 5.5-3.1 8.3-.3.7.2 1.5.9 1.8zM104.5 183.941c.2.1.4.1.6.1.6 0 1.1-.3 1.3-.9 1.2-2.6 2.5-5.2 3.9-7.7.4-.7.1-1.6-.6-2-.7-.4-1.6-.1-2 .6-1.4 2.6-2.7 5.2-4 7.9-.3.8.1 1.7.8 2zM93.6 217.041h.3c.7 0 1.3-.5 1.4-1.2.6-2.8 1.3-5.6 2.1-8.4.2-.8-.2-1.6-1-1.8-.8-.2-1.6.2-1.8 1-.8 2.8-1.5 5.7-2.1 8.6-.2.9.3 1.7 1.1 1.8zM252.5 88.841c-2.9 0-5.9 0-8.8.1-.8 0-1.5.7-1.4 1.5 0 .8.7 1.4 1.5 1.4h.1c2.9-.1 5.8-.2 8.7-.1.8 0 1.5-.6 1.5-1.5-.2-.7-.8-1.3-1.6-1.4zM269.6 407.841c-2.9.3-5.8.6-8.6.8-.8.1-1.4.8-1.4 1.6.1.8.7 1.4 1.5 1.4h.1c2.9-.2 5.9-.5 8.8-.8.8-.1 1.4-.8 1.3-1.7-.1-.9-.9-1.4-1.7-1.3zM88.6 250.441h3c0-2.9.1-5.8.2-8.7 0-.8-.6-1.5-1.4-1.6-.8 0-1.5.6-1.6 1.4-.2 2.9-.2 5.9-.2 8.8v.1zM252.3 409.041h-2.1v3h2.2c.8 0 1.5-.7 1.5-1.5-.1-.9-.8-1.5-1.6-1.5zM401.7 203.541c.9 2.8 1.6 5.6 2.3 8.3.2.7.8 1.1 1.4 1.1h.4c.8-.2 1.3-1 1.1-1.8-.7-2.8-1.5-5.7-2.4-8.5-.2-.8-1.1-1.2-1.9-1-.7.3-1.1 1.1-.9 1.9zM209.2 97.141h.4c2.8-.7 5.6-1.4 8.4-2 .8-.2 1.3-.9 1.2-1.8-.2-.8-1-1.3-1.8-1.2-2.9.6-5.8 1.3-8.6 2-.8.2-1.3 1-1.1 1.8.2.8.8 1.2 1.5 1.2zM226.3 93.641h.2c2.8-.4 5.7-.8 8.6-1 .8-.1 1.4-.8 1.3-1.6-.1-.8-.8-1.4-1.6-1.3-2.9.3-5.9.6-8.8 1.1-.8.1-1.4.9-1.2 1.7.1.5.8 1.1 1.5 1.1zM270.1 90.041c-2.9-.4-5.9-.6-8.8-.8-.8 0-1.5.6-1.6 1.4-.1.8.6 1.5 1.4 1.6 2.9.2 5.8.5 8.6.8h.2c.7 0 1.4-.5 1.5-1.3 0-.8-.5-1.6-1.3-1.7zM405.9 220.341c.5 2.8 1 5.7 1.4 8.5.1.7.7 1.3 1.5 1.3h.2c.8-.1 1.4-.9 1.3-1.7-.4-2.9-.9-5.8-1.4-8.7-.2-.8-.9-1.3-1.7-1.2-.9.2-1.4 1-1.3 1.8zM134.7 141.041c.4 0 .8-.2 1.1-.5 2-2.1 4.1-4.1 6.2-6.1.6-.6.6-1.5.1-2.1-.6-.6-1.5-.6-2.1-.1-2.1 2-4.3 4.1-6.3 6.2-.6.6-.5 1.5 0 2.1.3.4.6.5 1 .5zM408.3 237.441c.2 2.9.4 5.8.5 8.7 0 .8.7 1.4 1.5 1.4s1.5-.7 1.4-1.5c-.1-2.9-.2-5.9-.5-8.8-.1-.8-.8-1.4-1.6-1.4-.8.1-1.4.8-1.3 1.6zM192.5 102.541c.2 0 .4 0 .5-.1 2.7-1 5.4-2 8.2-2.9.8-.3 1.2-1.1 1-1.9-.3-.8-1.1-1.2-1.9-1-2.8.9-5.6 1.9-8.3 3-.8.3-1.1 1.2-.8 1.9.2.6.7 1 1.3 1zM147.5 129.141c.3 0 .7-.1 1-.3 2.2-1.8 4.5-3.7 6.8-5.4.7-.5.8-1.4.3-2.1-.5-.7-1.4-.8-2.1-.3-2.3 1.8-4.7 3.6-6.9 5.5-.6.5-.7 1.5-.2 2.1.2.3.6.5 1.1.5zM161.5 118.641c.3 0 .6-.1.8-.2 2.4-1.6 4.9-3.1 7.3-4.6.7-.4.9-1.3.5-2s-1.3-.9-2-.5c-2.5 1.5-5 3.1-7.5 4.7-.7.5-.9 1.4-.4 2.1.3.3.8.5 1.3.5zM176.5 109.741c.2 0 .5-.1.7-.2 2.6-1.3 5.2-2.6 7.8-3.8.7-.3 1.1-1.2.7-2-.3-.7-1.2-1.1-2-.7-2.7 1.2-5.4 2.5-8 3.9-.7.4-1 1.3-.6 2 .4.5.9.8 1.4.8zM398.9 195.341c.2.6.8 1 1.4 1 .2 0 .3 0 .5-.1.8-.3 1.2-1.1.9-1.9-1-2.8-2.1-5.5-3.3-8.2-.3-.8-1.2-1.1-1.9-.8-.8.3-1.1 1.2-.8 1.9 1.1 2.6 2.2 5.4 3.2 8.1zM361.6 363.341c-2.1 2-4.2 4-6.3 5.9-.6.5-.7 1.5-.1 2.1.3.3.7.5 1.1.5.3 0 .7-.1 1-.4 2.2-1.9 4.4-4 6.4-6 .6-.6.6-1.5 0-2.1-.6-.6-1.5-.6-2.1 0zM383.4 164.341c.3.4.8.7 1.2.7.3 0 .6-.1.8-.2.7-.4.9-1.4.4-2-1.6-2.5-3.3-4.9-5-7.3-.5-.7-1.4-.8-2.1-.3-.7.5-.8 1.4-.3 2.1 1.8 2.2 3.4 4.6 5 7zM394 320.841c-.7-.4-1.6-.1-2 .7-1.3 2.6-2.7 5.1-4.1 7.6-.4.7-.2 1.6.5 2 .2.1.5.2.7.2.5 0 1-.3 1.3-.7 1.5-2.5 2.9-5.2 4.2-7.8.4-.8.1-1.7-.6-2zM373.2 150.341c.3.4.7.5 1.1.5.3 0 .7-.1.9-.3.6-.5.7-1.5.2-2.1-1.9-2.3-3.8-4.5-5.8-6.7-.6-.6-1.5-.6-2.1-.1-.6.5-.6 1.5-.1 2.1 2.1 2.1 4 4.4 5.8 6.6zM375.3 350.241c-.6-.5-1.6-.4-2.1.2-1.8 2.2-3.7 4.4-5.7 6.6-.5.6-.5 1.5.1 2.1.3.3.6.4 1 .4s.8-.2 1.1-.5c2-2.2 3.9-4.4 5.8-6.7.5-.6.4-1.5-.2-2.1zM385.5 336.041c-.7-.4-1.6-.2-2 .4-1.6 2.4-3.2 4.8-4.9 7.1-.5.7-.3 1.6.3 2.1.3.2.6.3.9.3.5 0 .9-.2 1.2-.6 1.7-2.4 3.4-4.8 5-7.3.3-.6.1-1.5-.5-2zM390.5 170.241c-.4-.7-1.3-1-2-.5-.7.4-1 1.3-.5 2 1.4 2.5 2.8 5.1 4.1 7.6.3.5.8.8 1.3.8.2 0 .5-.1.7-.2.7-.4 1-1.3.7-2-1.5-2.5-2.9-5.1-4.3-7.7zM409 270.841c-.8-.1-1.6.5-1.7 1.3-.4 2.9-.9 5.7-1.4 8.5-.2.8.4 1.6 1.2 1.7h.3c.7 0 1.3-.5 1.5-1.2.6-2.9 1-5.8 1.4-8.7.1-.8-.5-1.5-1.3-1.6zM410.2 253.341c-.8-.1-1.5.6-1.5 1.4-.1 2.9-.2 5.8-.5 8.7-.1.8.5 1.5 1.4 1.6h.1c.8 0 1.4-.6 1.5-1.4.2-2.9.4-5.9.5-8.8 0-.8-.6-1.5-1.5-1.5zM405.8 288.041c-.8-.2-1.6.3-1.8 1.1-.7 2.8-1.5 5.6-2.3 8.3-.2.8.2 1.6 1 1.9.1 0 .3.1.4.1.6 0 1.2-.4 1.4-1 .9-2.8 1.7-5.7 2.4-8.5.2-.9-.3-1.7-1.1-1.9zM400.8 304.741c-.8-.3-1.6.1-1.9.9-1 2.7-2.1 5.4-3.2 8-.3.8 0 1.6.8 1.9.2.1.4.1.6.1.6 0 1.1-.3 1.4-.9 1.2-2.7 2.3-5.4 3.3-8.2.2-.7-.2-1.5-1-1.8zM341.6 120.841c2.3 1.7 4.7 3.4 6.9 5.2.3.2.6.3.9.3.4 0 .9-.2 1.2-.6.5-.6.4-1.6-.2-2.1-2.3-1.8-4.7-3.6-7.1-5.3-.7-.5-1.6-.3-2.1.4-.4.7-.2 1.6.4 2.1zM304.4 98.141c-2.8-1-5.6-1.9-8.4-2.7-.8-.2-1.6.2-1.8 1-.2.8.2 1.6 1 1.8 2.8.8 5.5 1.7 8.2 2.7.2.1.3.1.5.1.6 0 1.2-.4 1.4-1 .2-.7-.2-1.6-.9-1.9zM319.3 393.241c-2.6 1.3-5.3 2.5-7.9 3.6-.8.3-1.1 1.2-.8 1.9.2.6.8.9 1.4.9.2 0 .4 0 .6-.1 2.7-1.1 5.4-2.4 8.1-3.6.7-.4 1-1.2.7-2-.5-.8-1.4-1.1-2.1-.7zM361.5 137.541c.3.3.7.4 1 .4.4 0 .8-.1 1.1-.4.6-.6.6-1.5 0-2.1-2.1-2.1-4.3-4.1-6.4-6-.6-.5-1.5-.5-2.1.1-.5.6-.5 1.5.1 2.1 2.2 1.9 4.3 3.8 6.3 5.9zM303.3 399.941c-2.7 1-5.5 1.9-8.2 2.7-.8.2-1.2 1.1-1 1.8.2.6.8 1.1 1.4 1.1.1 0 .3 0 .4-.1 2.8-.8 5.6-1.7 8.4-2.7.8-.3 1.2-1.1.9-1.9-.3-.8-1.2-1.2-1.9-.9zM320.6 104.941c-2.6-1.3-5.3-2.5-8-3.6-.8-.3-1.6 0-1.9.8-.3.8 0 1.6.8 1.9 2.6 1.1 5.3 2.3 7.9 3.6.2.1.4.1.6.1.5 0 1.1-.3 1.3-.8.3-.7 0-1.6-.7-2zM287.4 93.141c-2.8-.7-5.7-1.3-8.6-1.8-.8-.1-1.6.4-1.7 1.2-.1.8.4 1.6 1.2 1.7 2.8.5 5.7 1.1 8.5 1.8h.3c.7 0 1.3-.5 1.4-1.1.2-.8-.3-1.6-1.1-1.8zM327 111.641c2.5 1.4 5 2.9 7.5 4.4.2.2.5.2.8.2.5 0 1-.2 1.3-.7.4-.7.2-1.6-.5-2-2.5-1.6-5-3.1-7.6-4.5-.7-.4-1.6-.1-2 .6-.5.7-.2 1.6.5 2zM286.7 404.841c-2.8.7-5.7 1.2-8.5 1.8-.8.1-1.3.9-1.2 1.7.1.7.8 1.2 1.5 1.2h.3c2.9-.5 5.8-1.1 8.6-1.8.8-.2 1.3-1 1.1-1.8-.2-.8-1.1-1.3-1.8-1.1zM348.6 374.841c-2.3 1.8-4.6 3.5-6.9 5.2-.7.5-.8 1.4-.4 2.1.3.4.7.6 1.2.6.3 0 .6-.1.9-.3 2.4-1.7 4.8-3.5 7.1-5.3.6-.5.7-1.4.2-2.1-.5-.6-1.5-.8-2.1-.2zM334.4 384.841c-2.4 1.5-5 3-7.5 4.4-.7.4-1 1.3-.6 2 .3.5.8.8 1.3.8.2 0 .5-.1.7-.2 2.6-1.4 5.1-2.9 7.6-4.5.7-.4.9-1.3.5-2-.3-.8-1.3-1-2-.5z"/>
  <path fill="#F04E98" d="M439.7 184.141c18.502 0 33.5-14.998 33.5-33.5 0-18.501-14.998-33.5-33.5-33.5-18.502 0-33.5 14.999-33.5 33.5 0 18.502 14.998 33.5 33.5 33.5z"/>
  <path fill="#FF957D" d="M450.8 119.041c-3.5-1.2-7.2-1.9-11.1-1.9-18.5 0-33.5 15-33.5 33.5 0 6.3 1.7 12.1 4.7 17.1 21.7-6.3 37.9-25.5 39.9-48.7z"/>
  <path fill="#E32682" d="M434.1 155.241c.1-.1 0-.6-.1-.7 0 0-.1-.1-.2-.1l-.4.4v.2c.1.2.6.4.7.2zM433.3 157.441c.1-.1 0-.3 0-.3-.1-.1-.2-.1-.3 0-.1.1-.1.3 0 .4.1.1.3 0 .3-.1zM436 160.341c.6-.1.9-.9.8-1.6-.1-.5-.4-.6-.9-.6-.7.1-1.2.7-1.1 1.2 0 .4.7 1 1.2 1zM426.6 174.141c.5-.1.8-.8.7-1.6-.1-.4-.3-.7-.6-.9.4-.5.4-1.1 0-1.6-.5-.5-1.3-.6-1.6-.3-.5.5-.5 1.5-.1 2.1-.3.3-.5.6-.4 1 .1.8 1.2 1.5 2 1.3zM428.6 175.241c.4-.4.5-.9.2-1.3-.3-.3-.8-.4-1.2-.2-.4.3-.5.9-.2 1.3.4.4.8.5 1.2.2zM430.3 158.741c.3.3.9.3 1.3-.1s.3-.9-.1-1.3c-.2-.2-.4-.3-.6-.4-.2.2-.5.4-.7.6-.1.5-.1 1 .1 1.2zM436.2 162.541c.1-.1.1-.4 0-.6-.1-.1-.4-.2-.6-.1-.1.1-.4.5-.2.7.3.2.7.1.8 0zM430.1 172.741c0-.5-.5-.8-1.1-.7-.5.1-.7.5-.7.9.1.5.4.8.9.7.6 0 1-.4.9-.9zM435.2 167.041c.4 0 .7-.3.7-.8 0-.7-.3-1.2-.6-1.3-.4 0-1.1.6-1.1 1.1-.1.4.5 1 1 1zM448.8 174.141c.1-.2.2-.6.1-.8-.1-.4-.9-.4-1.1-.1-.1.2-.1.5-.2.7.5.5 1 .6 1.2.2zM452.2 178.041c.4-.3.5-1 .3-1.3-.5-.7-1.3-1.1-1.8-.7-.4.3-.6 1.4-.2 1.9.2.3 1.3.4 1.7.1zM448.6 164.741c.2-.1.2-.5.1-.6-.1-.1-.5-.4-.7-.3-.2.1-.1.6 0 .7.1.2.4.4.6.2zM446.3 162.541c-.3.1-.3.3-.3.4.1.2.2.5.5.5s.3-.5.2-.6c0-.2-.1-.4-.4-.3zM439.1 161.741c-.5.1-.8-.2-1.2-.4-.2-.1-.6.1-.8.3-.2.2-.2.6-.1.9.1.2.4.3.7.3.5 0 .9-.1 1.4-.2.4-.1.5-.3.4-.8-.2.1-.3-.1-.4-.1zM440.8 158.641c-.1-.5-.8-.9-1.3-.8-.5.1-.7.6-.6 1.1.1.5.6.9 1 .8.4-.1.9-.8.9-1.1zM437.6 170.141c.3-.3-.1-1.3-.4-1.6-.2-.2-.8-.4-1.2-.1-.3.3-.1 1 .1 1.3.2.3 1.1.7 1.5.4zM424.8 162.541c.1.1.2.1.3.2-.1.2-.2.5-.1.8.1.9 1.1 1.8 2 1.6.8-.1 1.6-1.2 1.5-2-.1-.7-.8-1.2-1.7-1.3.1-.4 0-.8-.2-1-.1-.1-.3-.2-.5-.2-.5.3-1 .7-1.6 1 0 .4.1.7.3.9zM446.9 169.541c.5-.2.7-.6.7-1 0-.3 0-1-.4-1.3-.4-.3-.7-.8-1.2-.7-.4.1-.5.2-.7.4-.1.2-.4.3-.4.7-.1.4.1 1.2.5 1.6.5.4 1 .5 1.5.3zM449.7 173.841c.5.2 1.2.6 1.5-.1.2-.4.1-.7 0-.8 0-.2-.1-.3-.2-.5-.1-.1-.2-.2-.3-.2.3 0 .5-.2.5-.9 0-.6-.2-1-.9-1.1h-.5c.1-.3.2-.6 0-.9-.2-.4-1-.6-1.4-.3-.4.3-.4 1 .1 1.7.1 0 .3.1.5.1-.1.2-.2.4-.2.6-.1.8.3.9.2 1.4 0 .5.3.7.7 1zM444.5 172.941c-.2 0-.4.1-.4.4 0 .3.1.4.4.4.3 0 .4-.1.4-.4 0-.3-.1-.4-.4-.4zM443.2 169.541c.3-.2.3-1.1 0-1.4-.3-.4-.8-.5-1.2-.2-.4.3-.5.8-.2 1.1.3.5 1.1.8 1.4.5zM459.4 166.241c0-.3-.4-.6-.7-.9-.1-.1-.3-.3-.5-.1-.3.2-.4 1.1 0 1.4.4.3 1.1.2 1.2-.4zM467 166.441c.4-.3.6-1.1.4-1.4-.3-.4-1.2-.5-1.5-.2-.4.3-.4.9-.1 1.3.2.4.8.5 1.2.3zM441.4 170.441c-.2.2-.2.4-.1.6.1.2.5.3.7.2.2-.1.2-.5 0-.6-.1-.3-.4-.4-.6-.2zM453.5 171.541c.4.6 1.2.8 1.6.4.4-.4.6-1 .6-1.6.1.2.4.3.5.3.2-.1.5-.1.4-.4-.1-.3-.3-.3-.4-.3-.2 0-.6.1-.6.4 0-.2-.1-.4-.2-.6-.3-.4-1.2-.5-1.6-.1-.7.5-.8 1.3-.3 1.9zM450.9 168.041c.6.1 1.3.3 1.9-.1.1-.2.1-.4.2-.6.1.1.3.2.5.1s.1-.4 0-.6c.5-.3.8-.8.7-1.2-.1-.4-.4-.6-.8-.6-.8 0-1 .2-1.2 1.1-.5.3-1.1.5-1.5.9-.5.2-.3.9.2 1zM426.8 168.741c.1.5.6.7 1 .6.5-.2.8-.7.7-1.1 0-.1-.1-.2-.2-.3.1-.3.1-.6-.2-.9-.4-.5-1-.5-1.4-.1-.3.3-.4 1-.1 1.3 0 0 .1.1.2.1v.4zM432.8 162.341c-.1-.8-.9-1.4-1.6-1.3-.7.1-1.3 1.1-1.1 2.1.1.7.7 1.1 1.5 1 .9-.2 1.4-.9 1.2-1.8zM420.8 169.241c.4.4 1.5.4 2 0 .4-.3.3-1.3 0-1.8-.3-.4-1.1-.5-1.4-.2l-.1.1c0-.1.1-.3.1-.4.1-.5-1-1-1.8-.7-.5.2-.7.6-.6 1 .1.6.6 1.3 1.1 1.3.3 0 .5-.1.6-.2-.2.4-.1.7.1.9zM421.6 164.041c.4-.1.9-.7.8-1.1v-.1c-.6.3-1.1.6-1.7.9.3.3.6.4.9.3zM417.2 165.741c.4.3.9.3 1.2-.1.2-.3.4-.6.4-.8-.6.3-1.2.5-1.7.8 0 0 0 .1.1.1zM430.6 169.841c-.6.3-.4.8-.2 1.3.7.2 1.1 0 1.4-.7-.2-.5-.6-1-1.2-.6zM431.6 167.141c-.2-.3-.6-.4-.9-.1-.3.3-.5.6-.2 1 .2.3 1.2.2 1.3-.1.1-.3 0-.5-.2-.8zM468.4 162.041c-.3-.4-.7-.4-1-.1-.3.2-.4.6-.2.9.2.4.6.5 1 .3s.5-.8.2-1.1zM439 172.141c-.8.1-1 .5-.9 1.4.1.8.6 1.2 1.1 1.1.5-.1 1.3-1.1 1.2-1.6 0-.7-.6-1-1.4-.9zM439.5 181.841c-.5-.4-1.3 0-1.6.5-.1.2-.2.6-.1.9-.4.1-.7.4-.8.7.8.1 1.7.1 2.6.1.4-.3.4-.7.3-1.1 0-.4.1-.8-.4-1.1zM437 181.241c-.1-.2-.4-.4-.7-.2-.3.2-.2.5-.1.7.1.2.4.6.8.4.4-.2.1-.8 0-.9zM432.3 181.541c.2-.2.3-.6.2-.9-.1-.5-.6-.8-1.1-.7-.5.1-.8.7-.7 1.2 0 .1 0 .1.1.2-.1 0-.2.1-.3.1-.3-.2-.8-.2-1.2.1-.3.3-.4.6-.3.9 1.1.4 2.3.7 3.5 1 .2-.4.3-.8.2-1.1 0-.4-.2-.6-.4-.8zM441.5 177.041c.1.1.3.3.5.4v.1c.1.1.2.2.3.1.1 0 .1-.1.1-.2.9 0 1.5-.5 1.7-1.6-.3-.2-.5-.6-.8-.8-.5-.3-1-.3-1.4 0h-.6c-.1.1-.1.2-.2.2-.1.5 0 .6.2.9-.1.2-.1.6.2.9zM433.5 177.241c.7-.2 1.2-1.1 1.1-1.9-.1-.3-.3-.6-.5-.9 0-.2-.1-.4-.2-.6-.3-.3-1-.3-1.3 0l-.2.2c-.5.2-.9.7-1.1 1.2-.8.2-1.4 1.1-1.2 1.8.2 1.1 1.1 1.7 2.1 1.5.7-.2 1.1-.6 1.2-1.3h.1zM433.6 181.641c-.6.3-.8.7-.2 1.3.6.6 1.6-.2 1.5-.6 0-.4-.9-1-1.3-.7zM437.3 180.441c.7-.1 1.2-.9 1-1.6-.4-1.3-.8-1.3-2.1-1.2-.8.1-1.3 1-1.1 1.8.1.7 1.2 1.2 2.2 1zM435.3 170.641c-.1-.4-.5-.5-1-.3-.7.3-1 .7-.9 1 .1.4 1 .8 1.4.6.4-.1.6-.9.5-1.3zM442.2 165.341c-.1-.6-1-1-1.8-.8-.7.2-1 .7-.8 1.6.1.5.8.9 1.3.8.6 0 1.4-1.1 1.3-1.6zM467.1 168.541c-.4.3-.8.2-1.2.2-.2 0-.5.4-.6.6-.1.3.1.6.3.8.1.1.5.1.7 0 .3-.2.7-.4 1-.6.2-.2.3-.4.4-.7 0-.1-.1-.2-.2-.3-.1.1-.3 0-.4 0zM462.6 166.541c-.6.3-.8 1.1-.5 1.5.3.4 1.2.7 1.6.4.5-.3.5-1.2 0-1.8-.3-.3-.7-.3-1.1-.1zM469 165.841c-.5.4-.6.9-.2 1.4.3-.5.6-1 .8-1.5-.3-.1-.5 0-.6.1zM444.9 181.041c.6-.4.7-1 .4-1.5-.4-.5-1.1-.8-1.6-.7-.3-.3-.7-.5-1.1-.5-1.1 0-1.4.8-1.6 1.5-.1.6.2 1.9 1.4 1.8.5 0 1-.2 1.3-.4.5.1.9 0 1.2-.2zM462 172.741c0-.3-.1-.7-.3-1.1-.4-.6-1.4-.9-2-.5-.6.4-.7 1.6-.2 2.4.4.6 1.1.7 1.8.3 0 0 .1 0 .1-.1 0 .1.1.2.2.3.3.2.9.1 1.1-.2.1-.3-.1-1-.7-1.1zM443.4 183.941c.7-.1 1.5-.2 2.2-.3-.3-.1-.6-.2-.9-.2-.5 0-1 .2-1.3.5zM452.1 179.941c-.1.2-.1.4-.1.6-.3.1-.5.2-.7.4-.1.1-.1.1-.1.2-.2-.6-.9-.9-1.2-1.5-.5-1.3-1.4-1.5-2.3-1.2 0 0 .1 0 .1-.1.3-.3.1-1 0-1.3-.2-.3-.6-.3-1-.1-.1-.1-.2-.2-.4-.2-.4 0-.8.5-.8 1.1.2.1.6.3.9.3.2 0 .3-.1.4-.1.2.2.5.4.8.3-.3.1-.6.2-.8.4-.4.2-.6.6-.8 1-.2.5-.1 1.1.2 1.6.3.6.1 1.2.6 1.6.1 0 .1.1.2.1v.1c1.4-.3 2.7-.7 4.1-1.2 0 0 0-.1.1-.1v.1c.8-.3 1.6-.6 2.4-1 .1-.3.2-.7.1-.9-.5-.4-1.1-.3-1.7-.1zM460.1 176.241c-.4-.6-1.2-1-1.8-.8 0-.4 0-.8-.2-1.2-.4-.7-1.4-.8-2.3-.3-.1-.2-.3-.4-.8-.6-.7.2-.7 1.1-.3 1.3.1.1.2.1.3.1-.2.4-.2.9.1 1.4.3.6 1.1.9 1.8.9-.1.2 0 .6.2.8.3.4.7.7 1.1.7.8-.5 1.6-1.1 2.4-1.8h-.2c-.1-.2-.2-.3-.3-.5zM454.8 179.141c-.4.3-.5.9-.2 1.3 0 .1.1.1.2.2.5-.2.9-.5 1.4-.8 0-.1 0-.3-.1-.4-.4-.5-.9-.6-1.3-.3zM406.2 148.441v-.4c.1.1.1.2 0 .4zM419.1 124.141c-.2.1-.4.3-.6.4.2-.1.4-.2.6-.4zM429.9 180.041c.4-.7.4-1.2-.3-1.6-.3-.2-.8-.3-1.2-.4v-.7c0-.4-.2-.8-.6-.9-.5-.2-1 .1-1.3.4-.2.2-.3.4-.3.7-.3-.3-.7-.5-1.1-.3-.4.1-.7.5-.6.9.1.3.4.8.7.9.7.2 1.2-.3 1.3-.9.2.3.3.6.3 1 0 .2.4.5.6.6l1.2.6c.4.4 1 .2 1.3-.3zM422.1 173.341c0-.3.2-.5.5-.5.5 0 1.1-.6 1-1.6-.1-1-1.3-1.7-1.9-1.2-.6.5-.5 1-.7.9-.3 0-.8-.4-1.2 0-.2.2-.1 1 .1 1.5-.3-.1-.7 0-.9.2-.3.4-.3.9.1 1.3.4.3.8.3 1.1 0 .2-.2.3-.5.2-.8.3.1.5.3.4.7-.2.5-.8.8-.7 1.4.1.6.3 1.8 1.1 2.1.8.2.8-.6 1.2-.9.2-.2.4-.5.5-.8 0 0 .1 0 .1-.1.4-.4.6-1.6.3-2-.2-.4-.7-.5-1.2-.2zM410.3 166.741l.3.6-.3-.6zM425.1 180.541c-.1 0-.2.1-.2.1 1 .5 2 .9 3 1.3v-.1c-.4-1-2.1-1.5-2.8-1.3zM422.4 176.741c-.1.2-.1.6.1.8.1.2.7.5 1 .3.3-.2.1-.8 0-1-.3-.4-.9-.4-1.1-.1zM423.5 166.141c-.5.1-.8.6-.7 1.1.1.4.5.7 1 .6.5-.1.8-.4.7-.9-.1-.5-.5-.9-1-.8zM415.9 172.441c-.4 0-.8.3-1 .7l1.5 1.5c.5-.2.9-.6.8-1.1-.1-.6-.8-1.2-1.3-1.1zM417.6 169.041c-.3-.3-.8-.5-1.2-.5-.2-.3-.4-.5-.3-.6.1-.2.6-.9 0-1.3-1.2-.8-1.7.4-2.1.3-.1 0-.2-.1-.2-.1-1 .3-1.9.7-2.9 1 .4.7.9 1.4 1.3 2.1.2-.1.3-.2.5-.3.4-.4.6-.8.5-1.3.1 0 .2 0 .3.1.7.6-.1.9.9 1.6.3.2.6.3.9.3 0 .3.1.5.2.6.4.5 1.3.5 1.9 0 .5-.4.6-1.4.2-1.9zM418.4 174.941c-.4-.1-.7.4-.6.8 0 .1 0 .3.1.3.1.1.2.2.3.2.1 0 .2.1.4 0 .3-.1.8-.3.7-.7-.1-.4-.6-.5-.9-.6z"/>
  <path fill="#DCE2EA" d="M365.2 121.241c.5-.6.4-1.6-.2-2.1-.6-.5-1.6-.3-2.3.5-.5.5-.4 1.3.2 1.8.7.6 1.7.6 2.3-.2zM364.1 118.441c.4-.2.2-1.3 0-1.6-.1-.3-.7-.6-1.1-.4-.4.2-.4.9-.2 1.3.1.2.9.9 1.3.7zM360.3 102.441c-.1-.2-.4-.3-.6-.2-.2.1-.5.4-.4.6.1.2.5.2.6.1.2-.1.5-.3.4-.5zM364.6 97.141c.5-.2.6-.6.4-1.1-.2-.5-.7-.7-1.2-.4-.4.2-.6.7-.4 1.1.2.5.7.6 1.2.4zM366.2 91.841c.2-.1.4-.5.3-.7-.1-.2-.6-.6-.8-.5-.2.1-.3.7-.2.9.2.1.5.4.7.3zM362.6 127.441c-.1.2-.2.4-.1.6.1.1.3.4.7.2.4-.2 0-.6-.1-.7-.1-.1-.5-.1-.5-.1zM360 105.541c.2.4.8.5 1.3.3.4-.3.5-.7.3-1.2-.3-.5-.7-.7-1-.5-.5.2-.8 1-.6 1.4zM363.3 131.641c.2-.2.1-.6 0-.7-.1-.1-.4-.3-.7-.1-.3.2-.3.5-.1.8.3.2.6.2.8 0zM363.3 105.041c.1 0 .1-.3.1-.3 0-.1-.2-.2-.3-.1-.1.1-.2.2-.1.4 0 .1.2 0 .3 0zM373.4 136.241c.4.4 1.1.6 1.6.4 0 0 0 .1.1.1.3.3.9.4 1.2.2.3-.3.5-1 .2-1.3-.2-.3-.6-.4-1-.2-.1-.3-.2-.5-.4-.7-.5-.4-1.2-.3-1.7.2-.4.5-.4.9 0 1.3zM373.8 125.241c.3-.3.4-.7 0-.9-.2-.2-.8-.2-.9 0-.2.2-.1.7-.2.9.5.4.8.2 1.1 0zM375.5 130.341c.1.8 1 1.5 1.7 1.3.5-.2.8-.6.8-1.1.2 0 .4-.1.5-.2.1-.1.3-.4 0-.7-.2-.2-.5-.2-.7-.1-.2-.2-.4-.3-.7-.4-.4-.1-1.3-.6-1.7 0-.4.6.1.9.1 1.2zM370.5 118.241c.2-.4.1-.8-.3-1-.2-.1-.7-.2-.9-.1-.6.3-.5.9-.2 1.6.6-.1 1.2.1 1.4-.5zM364.6 102.441c0-.1-.4-.2-.4-.2-.1.1-.3.4-.3.5 0 .1.5.4.6.4.2-.1.2-.6.1-.7zM366.3 112.541c.4-.4.5-1.3.2-1.6-.4-.5-1.3-.6-1.8-.2-.4.4-.3 1.2.2 1.8.4.3 1.1.3 1.4 0zM364.8 110.641c.1-.1.2-.4.2-.6 0-.1-.4-.3-.5-.2-.2.1-.5.4-.4.6.1.3.5.3.7.2zM375.4 128.741c.1-.2.1-.5 0-.6-.1-.1-.6-.3-.7-.2-.1.1 0 .6.1.6.1.2.4.4.6.2zM350.1 105.541c-.2 0-.6.4-.6.6 0 .3.1.8.4 1 .6.4.9-.1 1.4-.5-.2-.6-.5-1.2-1.2-1.1zM353.4 95.741c.8-.4 1.2-1.6.8-2.4-.4-.7-1.5-1.1-2.3-.7-.8.4-1 1.3-.6 2.4.4.8 1.2 1.1 2.1.7zM352 98.441c.1-.3-.2-.6-.6-.5-.3 0-.8.3-.9.6-.2.4.1.6.2.6.3.1.5-.1.8-.2.1-.1.4-.2.5-.5zM349.4 109.741c.3 0 .7-.4.7-.8 0-.5-.3-.6-1.3-.5-.5.6.1 1.3.6 1.3zM360.3 83.841c.2-.1.3-.8.2-1.1-.1-.4-.5-.5-1-.3s-.5.6-.3.9c.3.2.9.7 1.1.5zM353.4 99.241c.2.4.6.5 1 .4.4-.1.6-1.1.3-1.3-.3-.2-.6-.2-.9-.1-.4 0-.6.6-.4 1zM353.6 101.641c-.4.2-.3.5-.1.8.2.4.7.6 1 .3.2-.2.5-.5.4-.7-.1-.2-.9-.7-1.3-.4zM354 103.941c-.5.6.1 1.3.6 1.3.3 0 .7-.4.7-.8-.1-.5-.8-1-1.3-.5zM349.9 95.841c-.1-.2-.5-.3-.7-.2-.2.1-.6.4-.6.6-.1.6.4.7.9.9.5-.4.7-.8.4-1.3zM358.7 97.241c.3-.2.4-.5.2-.8-.2-.4-.5-.6-1-.4-.4.2-.6.8-.4 1.1.2.3.7.3 1.2.1zM356.6 92.741c.3-.1.1-.5.1-.7 0-.1-.4-.2-.4-.2-.1.1-.3.4-.3.5 0 .2.2.5.6.4zM350 113.741c.4-.2.7-1.2.4-1.7-.2-.4-.9-.7-1.3-.5-.9.4-1.3 1.2-1 1.7.3.5 1.4.8 1.9.5zM354 106.441c-.4.2-.6.9-.3 1.3-.4.1-.8.2-1 .5-.4.6-.4 1.4-.1 2 .1.2.4.5.6.5.9.3 1.7-.1 2.1-1 .1-.2.2-.4.2-.5.3.2.7.3 1 .5.6.2 1 .1 1.3-.5.3-.5.2-1.1-.1-1.6-.4-.5-.9-.5-1.4-.3-.1 0-.3.1-.4.2.2-.4.2-.8.1-1-.3-.4-1.3-.5-2-.1zM358.2 113.641c-.3.2-.6.5-.4 1 .2.4 1.1.5 1.3.3.2-.2.1-.6 0-.9-.1-.4-.5-.6-.9-.4zM345.9 107.441c-.5.3-.7.9-.4 1.4.3.4.8.5 1.2.2.3-.3.7-.5.5-.9-.3-.7-.8-.9-1.3-.7zM353.9 115.341c.5.5 1.5.7 1.9.4.5-.5.6-1.5.1-2.1 0 0-.1 0-.1-.1 0-.2 0-.4-.1-.6-.3-.5-.8-.7-1.3-.5-.4.2-.5.7-.4 1.1-.1.1-.2.1-.3.2-.3.4-.2 1.1.2 1.6zM347.9 105.841c.1 0 .3-.1.3-.1.1-.2.3-.4.1-.6-.1-.1-.1-.1-.2-.1v-.4c-1-.4-1.4-.4-1.7.1-.2.4-.2.7 0 1.1.3.4.9.6 1.2.4.2-.2.3-.3.3-.4zM400.5 150.941c-.2.6.1 1.4.6 1.5.7.2 1.7-.4 1.9-1.1.1-.5-.3-1.1-.9-1.2-.8-.2-1.4.1-1.6.8zM400.6 166.741c-.3.3-.1.6.1.8.3.4.8.4 1 .1.2-.3.4-.5.3-.8-.2-.3-1.1-.4-1.4-.1zM397.3 136.441c.1 0 .3-.4.2-.6-.2-.2-.6 0-.7.1-.1.1-.2.4-.1.5.1.1.5.1.6 0zM390.9 159.641c-.3 0-.7 0-.8.3-.2.2.2 1 .7 1.1h.1c0 .9.5 1.5 1.1 1.7.6.2 1.4-.6 1.7-1.4.2-.6-.4-1.7-1.1-1.8-.4-.1-.9.1-1.2.5-.1-.3-.2-.4-.5-.4zM399.9 164.441c.3.3.7.4 1.1.2.3-.2.4-1.2.1-1.3-.3-.1-.6-.1-.9 0-.5.2-.6.7-.3 1.1zM396.8 143.441c.1-.1.3-.4.1-.6-.1-.2-.5-.1-.6-.1-.1.1-.4.5-.3.7.1.2.6.1.8 0zM378 145.141c.2.3 1-.1 1.2-.3.1-.1.1-.6-.1-.8-.2-.3-.5-.4-.8-.1-.2.3-.6.9-.3 1.2zM394.5 147.541c-.3.3-.4.7-.1.9.2.2.7.4 1 .4.1.1.2.2.4.3.4.1.8.1 1-.4.1-.4-.4-1.1-.7-1.1-.2 0-.3.1-.4.3-.1-.2-.1-.3-.2-.4-.4-.4-.7-.4-1 0zM394.2 143.841c.4.1.9-.4 1.1-.8.1-.2-.1-1.3-.5-1.4-.4-.1-1 .8-1.1 1.2-.2.2 0 .8.5 1zM397 151.341c-.2.6.1 1.1.6 1.2.5.1 1-.2 1.1-.6.1-.5-.2-1.1-.7-1.2-.5-.1-.9.1-1 .6zM406 153.341h.3c-.1-.8-.1-1.5-.1-2.3-.5.1-1.1.5-1.2.8-.2.6.2 1.2 1 1.5zM402.6 147.741c.1.2.2.4.4.5.5.2 1-.1 1.2-.5.2-.5 0-.9-.5-1-.2-.1-.3-.1-.5-.1-.2-.1-.5 0-.8.1-.4.3-.3.7-.1.9.2 0 .3.1.3.1zM419.2 164.541c.1-.1.3-.1.4-.2-.1.1-.3.2-.4.2zM405.9 154.941c-.1.4.3 1 .7 1.1-.1-.5-.2-1.1-.2-1.6-.2.1-.4.3-.5.5zM354.6 78.041c.1-.1.3-.4.2-.6-.1-.2-.4-.2-.6-.2-.1.1-.5.4-.4.6.2.3.7.3.8.2zM400.6 143.941c.5.1.9-.1 1-.5.2-.5-.1-1.1-.6-1.2-.4-.1-1 .2-1.1.7-.1.3.3.9.7 1zM402.8 156.341c.2-.6-.4-1.5-1-1.7-.5-.1-1.3.4-1.5.9-.1.4.2 1.2.6 1.3h.1v.3c.1.1.3.4.7.2.2-.1.2-.3.1-.4.5.1.9-.2 1-.6zM400.4 162.041c.6.2 1.2-.2 1.3-.7.1-.5-.2-.9-.8-1-.4-.1-.9-.1-1 .3-.2.7.1 1.3.5 1.4zM395.7 153.941c.4-.3.4-1.1.1-1.5-.4-.4-1.7-.7-2.1-.3-.4.4-.3 1.4.2 2 .5.5 1.1.4 1.8-.2zM386.4 133.441c.4.1.7 0 .9-.4.3-.6-.1-1-.6-1.4-.6.2-1.2.3-1.1 1 0 .4.3.7.8.8zM382.7 134.641c.3-.1.1-.6.1-.6-.1-.1-.4-.2-.6-.1-.1 0-.2.4-.1.5 0 0 .3.3.6.2zM381.2 145.541c-.7.6-1 1.6-.6 2.2.5.7 2 1 2.6.5.6-.5.8-1.6.3-2.3-.7-.6-1.7-.8-2.3-.4zM387.5 142.141c.6-.5.6-1.2 0-1.9-.6-.6-1.3-.7-1.9-.1-.6.5-.6 1.4 0 2 .3.5 1.4.5 1.9 0zM380.8 142.441c-.8.2-1.4 1.2-1.1 1.8.3.6.8.7 1.4.7.6-.1.9-.5 1-1 0-.5.4-1.4-.2-1.7-.6-.4-.8.1-1.1.2zM380.6 139.641c.2-.2.1-.5 0-.9.2 0 .3-.1.5-.2.4-.3.4-.9.1-1.2-.4-.3-.8-.3-1.2 0-.2.2-.3.5-.2.8-.1 0-.2.1-.3.2-.3.3-.4.7-.1.9.2.2 1 .6 1.2.4zM378.5 151.141c-.2.1-.3.5-.3.8 0 .2.3.5.5.5.6.1.9-.3 1-.9-.4-.2-.7-.7-1.2-.4zM381.8 129.641c.1-.1.1-.4 0-.5-.2-.1-.5-.1-.6-.1-.1.1-.4.4-.1.7.2.4.5.1.7-.1zM391.2 146.841c.1-.1 0-.3 0-.3-.1-.1-.2-.1-.3 0-.1.1-.2.3 0 .4.2.1.3 0 .3-.1zM392.5 153.741c-.3-.1-.8-.2-1 0-.1.2-.1.7 0 .8.1.2.8.4 1 .2.2-.2.1-.9 0-1zM391.2 150.641c.3.4 1 .4 1.4.1.3-.3.4-.8.1-1.2-.4-.5-.9-.6-1.3-.2-.4.3-.5.9-.2 1.3zM395 156.441c.1-.7-.2-1.3-.7-1.5-.6-.2-1.6.3-1.7.8-.1.5.6 1.2 1.2 1.4.4.2 1.1-.2 1.2-.7zM390.5 157.941c.4.1.7 0 .9-.4.3-.6-.1-1-.6-1.4-.6.2-1.2.3-1.1 1 0 .4.3.7.8.8zM386.9 155.041c-.1.1-.2.3-.2.6-.1 0-.1.1-.1.1 0 .1 0 .3.1.4 0 .3.1.5.2.6.3.4.8.4 1.3-.1.6-.5.7-1 .4-1.4-.5-.5-1.3-.6-1.7-.2zM386.4 145.441c-.5.3-.6.8-.4 1.2.3.5 1.3.7 1.8.4.4-.3.5-.9.2-1.4-.2-.5-1-.6-1.6-.2zM388.7 147.541c.2.1.6.1.7-.2 0-.3-.3-.5-.4-.6-.1 0-.5.1-.5.3-.1.1 0 .5.2.5zM388.1 152.641c-.5-.1-.9.2-1 .7-.2.6 0 1 .4 1.1.5.1 1.3-.3 1.4-.8.1-.3-.3-.8-.8-1zM365.5 127.741c-.3-.2-.9-.7-1.2-.3-.4.4.1 1 .2 1.3.2.3.7.3 1 0 .4-.3.4-.7 0-1zM384.1 159.641c.3-.4-.2-1.1-.4-1.2-.6-.2-.5-.7-.7-1.1-.1-.4-.5-.7-.8-1-.2-.2-.5-.3-.7-.3-.3-.1-.5-.1-.8-.2-.6-.1-1 0-1.3.2.8 1.1 1.5 2.1 2.3 3.2.2.1.4.2.6.4.6.3 1.6.4 1.8 0zM386.6 151.041c-.2-.8-.6-.9-2.1-.6-.2-.6-.3-1.2-1.1-1.1-.5.1-.8.4-.9.9 0 .2 0 .5.2.5l1.2.6c.3 1.1.9 1.7 1.5 1.6.8-.1 1.4-1.2 1.2-1.9zM384.1 160.641c-.4-.1-.6 0-.7.4-.1.4 0 .8.4 1 .4.1 1-.2 1.1-.5.1-.3-.3-.7-.8-.9zM383.6 153.241c.2 0 .5-.1.6-.2.1-.1 0-.6-.2-.7-.1 0-.5.3-.6.5-.1.1.1.4.2.4zM387.8 164.141c.1 0 .1-.1 0 0-.1.5 0 1.1.4 1.5.5.6 1.7.6 2.3 0l.1-.1h.3c.4-.1.3-.5.3-.6-.1-.1-.1-.2-.2-.2 0-.4 0-.7-.3-1-.3-.3-1-.5-1.6-.5.1-.1.1-.2.2-.3.1-.4 0-.7-.3-.9.3-.2.5-.4.4-.7-.2-.7.5-1.2.1-2s-1.2-1.4-1.8-.8c-.6.6-.7 1.2-.8 1.9-.1.6.6.9 0 1.2-.6.3-1.7 1.2-.9 2.2.4.5 1.3.6 1.8.3zM391.6 168.341c-.3.2-.4.9-.3 1.3h-.9c.1-.3.1-.6 0-.8-.2-.4-1.3-.8-1.8-.6-.3.1-.6.2-.8.5.1.3.3.5.4.8 1.7.2 3.4.4 5.1.4.3-.3.2-.8-.1-1.1-.5-.8-1-.9-1.6-.5z"/>
  <path fill="#DCE2EA" d="M389.6 167.741c0 .2.2.6.3.6.2.1.7.1.8 0 .5-.4.2-.8-.1-1.2-.5-.1-.9 0-1 .6zM395.5 168.241c-.1-.5-.1-1.2-.3-1.9-.1-.4-.4-.7-.9-.6-.2-.1-.4-.3-.6-.5-.5-.6-1-.7-1.7-.4-.6.3-.7.8-.1 1.6.4.2.9.5 1.5.8v.2c-.2.8 0 1.2.6 1.6.7.4 1.2.2 1.5-.8zM387 165.441c-.3-.1-.7-.1-1.1.1.6.9 1.1 1.8 1.7 2.7.2-.2.3-.5.4-.8.3-.9-.2-1.7-1-2zM375.6 144.141c.3-.3.3-.9 0-1.2-.3-.3-1-.4-1.3-.1-.3.3-.3.9 0 1.2.3.3 1 .4 1.3.1zM369.3 143.441c.3.4.7.8 1 1.2.1-.3 0-.6-.2-.9-.2-.2-.5-.3-.8-.3zM379.8 154.441c.3.1.5 0 .7-.1 0 .3 0 .5.2.7.3.4 1 .6 1.4.3.8-.5 1.1-1.3.7-1.8-.3-.5-1.2-.6-1.8-.3-.2-.4-.4-.8-1-.7-.5.1-.7.4-.8.9 0 .6.2.9.6 1zM371.5 139.241c0-.1 0-.1 0 0-.1-.3-.3-.5-.6-.6-.4-.2-.9-.2-1.2.2-.4.6 0 1.5.2 1.6h.2c0 .1.1.2.2.3.5.5 1.5.2 1.7 0 .2-.2.1-1.2-.5-1.5zM372.6 147.341c.3.4.6.7.9 1.1.3-.2.2-.8-.1-1-.3-.2-.6-.3-.8-.1zM378.4 153.641c-.3-.1-.5-.2-.8-.2.5.6 1 1.3 1.5 1.9.3-.6 0-1.4-.7-1.7zM375.2 145.841c-.4.3-.4 1.2 0 1.7.6.7 1.1.8 1.6.4s.7-1.4.3-1.9c-.3-.5-1.4-.6-1.9-.2zM378.1 150.041c.1-.2.1-.4.1-.6 0-.1-.4-.1-.5-.1-.1.1-.4.4-.2.7.2.3.6.1.6 0zM373.1 143.341c-.3-.3-.8-.3-1.2 0-.3.3-.4 1 .1 1.5.3 0 .7 0 1-.1.5-.2.5-.9.1-1.4zM410.7 167.441c0 .1-.1.2-.1.3h-.2l-.1.1c.2-.1.4-.1.6-.2-.1 0-.1-.1-.2-.2zM409.6 165.341c0 .2-.1.4 0 .5.1.5.4.7.8.9-.3-.5-.6-1-.8-1.4zM417.2 165.441c0 .1 0 .1 0 0 .1 0 .2-.1.4-.2-.2.1-.3.2-.4.2zM407.9 166.941c-1-.3-2 .3-2.4 1.5-.1.2-.1.4-.1.6 1.2-.2 2.4-.5 3.6-.8v-.1c-.1-.6-.4-1-1.1-1.2zM421.3 163.541c.1 0 .1-.1.2-.1-.1 0-.1 0-.2.1zM426.3 160.541c.1 0 .1-.1.2-.1-.1 0-.1.1-.2.1z"/>
  <path fill="#DCE2EA" d="M406.3 166.241h.2c-.1.2-.2.4-.1.5.2.2.5.1.6 0 .1-.1.3-.4.3-.5.4-.2.7-.6.9-1.1.3-1 0-1.7-.9-2-.9-.3-1.8.2-2.1 1.3-.2.7.3 1.6 1.1 1.8zM407 159.941c.2-.6-.3-1.4-1-1.6-.6-.2-1.6.2-1.7.9-.1.4 0 .8.1 1.2-.2-.1-.4-.1-.7 0-.3.2-.4.9-.2 1.2.2.3.8.2 1.2-.2.2-.2.3-.4.2-.5.1 0 .1.1.2.1.5.1 1.7-.5 1.9-1.1zM394.7 169.941h1.1c-.1 0-.1-.1-.2-.1-.3 0-.6 0-.9.1zM398.9 162.941c.1-.5-.2-1-.7-1.1-.7-.1-1 .4-1.4.8.2.5.4.8.6 1-.3.1-.6.4-.7.7-.1.4.2.6.3.6.3 0 .5-.2.7-.4.2-.2.4-.3.5-.6v-.2c.4-.1.7-.3.7-.8zM395 161.741c-.2.1-.5.5-.5.7 0 .6.6.6 1.1.7.4-.4.5-.9.1-1.3-.1-.1-.5-.2-.7-.1zM396.9 160.741c.5.7 1.5.8 2.2.3.7-.5.9-1.8.3-2.5-.5-.6-1.7-.7-2.4-.2-.2.2-.4.4-.5.6h-.5c-.3.6-.5 1.2 0 1.6.2.1.6.1.8 0 .1.1.1.2.1.2zM402.8 163.741c-.4-.1-.8.2-.9.7-.2.8-.1 1.3.4 1.5.5.2 1.4-.3 1.5-.9.1-.4-.5-1.2-1-1.3zM398.7 166.441c.1-.5-.5-1.3-1.1-1.4-.5-.1-.9.2-1 .7-.2.9 0 1.5.7 1.6.4.2 1.3-.4 1.4-.9zM401.6 167.841c-.7.3-1.2.1-1.7-.2-.6-.2-1.4 0-1.6.4-.2.4 0 1.4.5 1.8.7 0 1.3-.1 2-.2.2-.1.5-.1.8-.1.2 0 .4-.1.6-.1.3-.1.4-.4.4-.7 0-.5-.5-1.1-1-.9zM368.1 134.541c.2-.1.5-.2.6-.4.4-.5.3-1.7-.2-2.2-.6-.6-1.6-.4-2.3.4-.6.6-.6 1.4 0 2 .3.3.7.4 1.2.4-.1.1-.2.1-.3.2-.5.4-.5 1.2 0 1.7.4.5.9.6 1.3.2.6-.5.9-1.5.5-2-.2-.2-.5-.3-.8-.3zM340.5 116.941c-.3 0-.5.2-.8.3v.5c.6.4 1.2.8 1.8 1.3.4-.5.4-1.2 0-2-.3-.1-.7-.2-1-.1zM340.8 109.041c-.2-.3-.5-.5-.9-.7-.1 1.1-.2 2.1-.2 3.2.2 0 .4-.1.5-.2.9-.4 1.2-1.3.6-2.3zM345 112.041c.5-.1 1.2-.3 1.1-1-.2-.7-.7-.7-.9-.6-.2.1-.6-.2-.4-.3.2-.2.2-.5-.1-1-.4-.5-.8-.7-1.3-.4-.6.3-.8 1.2-.5 1.9.3.4.5.5.7.7-.1 0-.2 0-.3.1-.5.3-.9 1.5-.7 2.1.3.6 1.2.8 1.8.5.6-.3 1-1.3.7-1.8 0-.1-.1-.2-.1-.2zM344 98.442c.7-.4.9-1.3.6-1.9-.3-.5-1.2-.8-1.8-.8-.3.8-.5 1.6-.8 2.4.5.6 1.4.7 2 .3zM341.1 104.141s0-.1.1-.1c.3-.2.6-.4.7-.7.2-.1.4-.1.5-.1.6-.3 1-1 .9-1.4-.1-.4-.8-.9-1.3-1 0-.1-.1-.3-.2-.3-.1-.1-.2-.1-.4-.2-.4 1.4-.6 2.8-.9 4.2.3-.1.5-.2.6-.4zM344 116.541c-.3.3-.4.9 0 1.3.3-.1.6-.1.9-.3.3-.2.3-.6 0-.9-.2-.2-.5-.4-.9-.1zM342.6 119.741l2.1 1.5c0-.4 0-.7-.2-1-.3-.4-1.2-.6-1.9-.5zM343.3 106.741c-.4-.7-.9-1-1.3-.8-.5.2-.8 1.2-.5 1.7.2.4 1.1.6 1.6.3.3-.3.4-.7.2-1.2zM340.9 116.541c.4-.2.6-.7.3-1.1-.1-.2-.3-.4-.5-.5.1-.1.1-.3 0-.4-.2-.2-.3-.2-.5-.1-.1.1-.2.2-.2.3h-.3c-.1 0-.1.1-.1.1v1.6c.5.2 1 .3 1.3.1zM349.1 84.341c.4-.2.5-.7.3-1.1 0-.1-.1-.1-.1-.2-.3.5-.6.9-.9 1.4.2 0 .5 0 .7-.1zM348.2 88.241c.2-.1.2-.9.1-1-.2-.2-.8-.4-.9-.2-.2.2-.2.6-.1.8.1.2.7.6.9.4zM349.6 87.841c.4.6 1 .7 1.7.2.4-.3.7-1 .4-1.5-.3-.5-1.6-1-2-.7-.3.4-.4 1.4-.1 2zM345.3 94.041c-.2.9.2 1.6.8 1.9.6.3 1.4-.3 1.9-1 .4-.6 0-1.8-.7-2-.7-.2-1.8.1-2 1.1zM343.8 94.041c-.1-.7.7-1.1.5-2v-.2c-.4.9-.8 1.9-1.2 2.8.4-.1.8-.2.7-.6zM344.1 103.141c.3.4 1.3.6 1.8.3.4-.2.5-.7.3-1.2-.5-.8-1-1.1-1.6-.7-.5.1-.8 1.1-.5 1.6zM346.8 100.741c.4.2.9.2 1.2-.3.2-.4.3-.8-.2-1.2-.2-.2-.4-.4-.5-.6-.4-.7-.9-.9-1.6-.7-.7.2-.9.7-.4 1.5.3.4.8.9 1.5 1.3zM345.6 90.942c.4.2.7.1.9-.2.4-.6.1-1-.3-1.5-.2 0-.5.1-.7.1-.2.4-.4.7-.5 1.1.1.2.3.4.6.5zM348.3 123.241c-.2-.1-.6-.1-.9.1.7.6 1.5 1.1 2.2 1.7 0 0 0-.1.1-.1.2-.6-.5-1.4-1.4-1.7zM362.5 134.141c-.4.5-.3 1.1.3 1.7.5.5 1.1.5 1.5.1.3-.4.4-1.7.1-2-.6-.6-1.4-.5-1.9.2zM360.7 133.741c-.1.1-.3.4-.3.6 0 0 .1.1.2.1.2.1.4 0 .5-.1.1-.1.4-.4.2-.6-.2-.2-.5-.1-.6 0zM366.7 137.641c-.4-.3-1.1-.3-1.4.1-.3.4-.2 1 .1 1.3.3.3 1 .2 1.3-.1.3-.4.3-1 0-1.3zM359.2 128.141c-.3.3-.2 1.1.1 1.4.6.5 1.4.6 1.8.1.5-.6.6-1.5.1-2-.3-.2-1.6 0-2 .5zM360.1 114.141c-.4.4-.6 1.3-.3 1.6.4.5 1.5.5 2 .1.4-.4.4-1.4-.1-1.8-.4-.5-1-.5-1.6.1zM366.6 140.541c.3.4.7.7 1 1.1.1-.3 0-.7-.3-1-.2-.1-.4-.1-.7-.1zM370.5 126.141h.3c.5.1.7-.2.9-.5.2-.4.1-.7-.2-1-.6-.8-1-.8-1.8-.2-.6.5-1.1.9-1.7 1.4-.9-1-1.1-1-1.7 0 .2.7.7.8 1.4.6.9 1.3 1.9 1.2 2.8-.3zM352.4 83.041c.3-.2.1-1 0-1.3-.1-.4-.5-.5-.9-.2-.3.2-.6.6-.3.9.3.2.9.7 1.2.6zM348.6 116.541c-.7-.4-1.3-.4-1.8-.2-.2-.4-.8-.5-1.2-.2-.4.3-.5.8-.2 1.3l.3.3c0 .1-.1.1-.1.2-.2.4-.2.8 0 1.2.2.5.6.9 1.2 1.2.4.2.6.5.9.7-.1.2-.1.5 0 .6.1.2.6.6.8.5.3-.1.3-.8.3-1 .8-.1 1.8-.6 2.2-1.8.3-.9.2-1.6-.2-2.1-.6-.6-1.5-.2-2.2-.7zM353.3 127.241c-.2.1-.3.3-.4.4.5.4.9.8 1.4 1.2.4-.3.6-.8.3-1.3-.3-.4-.9-.6-1.3-.3zM352.9 117.241c.7-.4.9-1.1.6-1.7-.3-.6-1.1-.9-1.5-.7-.1-.1-.1-.1-.2-.1-.6-.2-1 .2-1.3.7.2.4.4.8.8.9 0 .2.1.4.1.6.3.5 1 .6 1.5.3zM370.6 129.241c-.3.3-.4.7-.2 1.2.2.4.8.5 1.1.2.3-.2.4-.8.2-1.2-.2-.3-.8-.5-1.1-.2zM357.2 119.341c.3-.4.2-.9-.2-1.3-.6-.5-1.4-.6-1.8-.1-.3.4-.4.8-.4 1.2-.2 0-.5.1-.6.2-.2-.1-.5-.2-.7-.1-.5.2-.7.7-.5 1.2.2.5.6.7 1 .4.1 0 .2-.1.2-.1l.2.2c.6-.1 1.2-.2 1.2-.9v-.2c.6.1 1.3-.2 1.6-.5zM352.7 123.441c-.6.7-.7 1.7-.1 2.3.6.5 2.2.5 2.7 0 .6-.5.5-1.7-.2-2.3-.6-.5-1.9-.5-2.4 0zM356.3 127.341c-.3.3-.3 1.1 0 1.4.4.4 1 .4 1.4 0 .3-.4.4-1 0-1.3-.3-.3-1.2-.4-1.4-.1zM359.6 122.541c-.1-.1-.2-.2-.4-.2.4-.2.5-.9.3-1.2-.2-.4-.9-.5-1.3-.3s-.6.7-.4 1.1c.1.2.2.3.4.4-.3.1-.6.2-.8.5-.8.9-.8 1.7 0 2.5.6.6 1.9.5 2.5-.2.5-.7.3-2-.3-2.6z"/>
  <path fill="#ECF0F6" d="M135.9 250.541l-66.8-.1c0 100 81.1 181.1 181.1 181.1v-66.8c-63.1 0-114.3-51.1-114.3-114.2z"/>
  <path fill="#7DE2D1" d="M101.4 409.541c24.798 0 44.9-20.102 44.9-44.9 0-24.797-20.102-44.9-44.9-44.9s-44.9 20.103-44.9 44.9c0 24.798 20.102 44.9 44.9 44.9z"/>
  <path fill="#42D4C6" d="M121.5 371.141c.1-.2.1-.7-.1-.8-.2-.1-.6.2-.8.4-.2.2 0 .8.3.8.2-.1.5-.2.6-.4zM135.7 389.541c0 .2 0 .5.1.7.3.1.6.1.8-.1.1.2.3.5.5.5.4.1.8-.1 1-.4.1-.4-.1-.9-.5-1-.3-.1-.6 0-.8.2l-.2-.2c-.5-.1-.8 0-.9.3zM120.4 374.841c.2.2 1 .1 1.3-.5.2-.3.1-.7-.3-.9-.3-.2-.7-.2-1 0-.5.4-.2 1.2 0 1.4zM125 375.141c.2-.6 0-1.3-.4-1.4-.4-.2-1.3.2-1.5.7-.3.7 0 1.2.6 1.4.6.1 1.1-.1 1.3-.7zM111.4 353.341c.5-.4.6-1.2.3-1.7s-1.2-.5-1.8-.1c-.4.3-.4.8-.1 1.3.4.5 1.2.8 1.6.5zM109.7 357.541c.5-.1 1 0 1.1-.6v-.2c.4.1 1-.1 1.3-.3.3-.3.3-.7 0-1-.4-.5-1.1-.6-1.4-.3-.3.3-.4.6-.4.9-.3-.1-.5.1-.7.3-.4.4-.1.8.1 1.2zM115.3 364.941c.4.2.7 0 .9-.3.2-.4 0-.9-.4-1.1-.3-.1-.9.1-1 .4-.1.4.2.9.5 1zM131.9 378.341c-.4-.2-.9 0-1 .3-.1.4 0 .8.4 1 .4.2.7 0 .9-.3.2-.4.1-.9-.3-1zM114.7 370.441c.4.4.8.9 1.2 1.3.3-.1.6-.4.7-.7.1-.2 0-.5-.2-.8.2-.4.3-1.2.1-1.4-.4-.5-1-.5-1.5 0-.4.3-.3.7 0 1.2-.2.2-.3.3-.3.4zM109.7 363.341c-.1.2 0 .8.4.9.2.1.3 0 .5-.1.3.2.7.3 1 0 .3-.3.4-.8.2-1-.1-.2-.4-.3-.7-.3-.1-.1-.1-.3-.2-.3-.5-.2-1 .5-1.2.8zM130 382.541c-.5-.1-.8-.6-1.3-.5-.5.1-1.3.4-1.7 1.1l3.6 3.3v-.1c.1-.3-.1-.5-.2-.6.5-.3.7-.9.8-1.4.1-.4 0-.7-.1-1-.2-.4-.6-.7-1.1-.8zM137.2 390.941c-.5-.2-1-.2-1.2 0 .4.3.7.6 1.1.9.2-.2.3-.4.4-.6 0-.1-.1-.2-.3-.3zM116.9 372.241c-.1.1-.2.3-.2.5.2.2.4.5.7.7.2 0 .4-.1.6-.2.3-.3.3-.8.1-1-.4-.3-1-.3-1.2 0zM90.5 335.841c.2.5.5.9.7 1.4.3-.2.4-.7.2-.9-.1-.4-.6-.6-.9-.5zM136.6 380.041c-.3.6.1 1.8.6 2.1.1 0 .1.1.2.1-.3.2-.6.4-.7.7-.2.5 0 .9.6 1.1.6.3 1.1.1 1.4-.6.2-.6.1-1.2-.3-1.3.3-.1.6-.4.7-.7.3-.6 0-1.6-.6-1.9h-.1c-.1-.1-.1-.2-.2-.2-.3-.2-.6-.1-.8.1-.4.1-.7.3-.8.6zM130.7 386.341v.2c.1.1.2.2.4.3l.3-.3c.1-.1 0-.3-.1-.4-.2-.1-.4.1-.6.2zM131.4 387.041l2.1 1.8c0-.1.1-.1.1-.2.1-.2.1-.3.1-.5.4.4 1.3.6 1.8.4.5-.2.8-.9.6-1.6-.1-.4-.3-.8.1-1.2.3-.3.1-.7-.3-.9-.6.1-.8.4-.7.8-.5.2-.9.3-1.3.5-.3.2-.5.8-.5 1.3-.2-.2-.4-.4-.8-.5-.6-.1-.9-.1-1.2.1zM121.8 377.941h-.2l.7.7c0-.3-.2-.6-.5-.7zM102.4 353.841c.3-.2.3-.5.1-.7l-.2-.2c.1-.2.1-.5 0-.7-.2-.3-.7-.5-1-.3-.3.2-.4.7-.2.9.1.2.3.3.5.3-.1.2-.1.4 0 .6.1.1.1.2.2.2 0 0 .3 0 .6-.1zM120 374.741c.1-.4 0-.7-.4-.8-.4-.1-.8.1-1 .4-.1.1 0 .3 0 .4l.5.5c.4.2.7-.1.9-.5z"/>
  <path fill="#42D4C6" d="M119.7 371.241c-.4-.2-1.4.1-1.6.5-.2.5 0 1 .7 1.3.5.2.9-.1 1.2-.7.2-.5.1-.9-.3-1.1zM137.2 387.041c.1-.1.1-.5 0-.6-.2-.1-.5.1-.5.3-.1.1-.1.4.1.5.1.1.4 0 .4-.2zM105.4 353.341c-1.2-1-2.1-.2-2.6.8-.2.3-.2.7-.1 1 .1.4.4.8.8 1.1.5.3.6.8 1.1.9.7.1 1.9-.1 2.4-1.2.2-.5.3-1 .2-1.4 0-.1.1-.1.1-.2.1-.2.2-.5.3-.8.1 0 .2.1.3.1.4 0 .7-.2.7-.6 0-.2-.1-.6-.3-.7-.5-.2-.9 0-1.1.5-.2 0-.4.2-.6.2-.5-.2-.9.1-1.2.3 0 .1 0 0 0 0zM118.9 362.541c.1.6.5.7 1 .6.4.9.9 1.1 1.5.8 0 .3.2.6.5.7.5.2.9 0 1-.4.1-.3 0-.7-.3-.9.3 0 .5-.1.6-.4.2-.3.1-.5 0-.8-.4-.7-.7-.8-1.4-.3l-1.5.9c-.6-.9-.7-.9-1.4-.2zM101.5 336.741c0-.4-.5-.8-1-.5-.4.4 0 1 .3 1.1.4 0 .7-.3.7-.6zM105.9 343.941c-.1.1-.4.4-.2.5.1.2.5.1.5 0 .1-.1.3-.3.1-.5-.1-.1-.3 0-.4 0zM110 343.041c.1 0 .2-.3.1-.4-.1-.1-.3-.2-.5-.2-.1 0-.4.2-.3.5.2.3.5.2.7.1zM109.2 348.641c.1.2.2.4.4.5.7.3 1.4.1 1.8-.6.1-.1.2-.3.3-.4.3.2.5.3.8.5.5.2.8.2 1.1-.3.3-.4.3-.9 0-1.3s-.7-.5-1.1-.4c-.3.1-.6.2-.9.4-.1-.1-.3-.2-.4-.2-.5-.3-1.3-.2-1.6.2-.5.5-.5 1-.4 1.6zM106.7 347.941c.3 0 .6-.3.7-.6 0-.4-.2-.5-1-.5-.5.4 0 1.1.3 1.1zM106.9 348.741c-.3.1-.5.6-.3.9.2.3.6.4.9.3.3-.2.5-.6.3-.9-.2-.3-.5-.5-.9-.3zM97.1 334.741c.1-.1.3-.3.1-.5-.1-.3-.4-.3-.6-.1-.2.2-.2.4-.1.6.2.1.5.1.6 0zM127.5 366.541c0-.1-.1-.2-.1-.3-.1 0-.2.1-.2.1 0 .1 0 .2.1.2 0 .1.1.1.2 0zM132.6 382.441c.3.3.9.4 1.4.3-.1.3.1.7.4.8.3.1.8-.1 1-.4.2-.4 0-.8-.3-1h-.1c.3-.5.1-1.1-.2-1.4 0 0 0-.1-.1-.1.5 0 .8-.3 1.1-.9.1-.2.1-.4.1-.6.1.1.3.1.5.1.5-.1.8-.8.6-1.3-.1-.4-.7-.8-1.1-.8-.6 0-.8.6-.9.8-.6-.2-1.4.1-1.6.7-.2.6-.1 1.1.2 1.5-.3 0-.6.1-.8.4-.6.7-.6 1.5-.2 1.9zM134.6 365.641c0-.3 0-1-.2-1.1-.3-.1-.7.5-.7.6 0 .3 0 .7.4.9.2.2.5-.2.5-.4zM136.4 372.141c.1-.3-.3-.6-.5-.8-.2-.2-.5-.2-.7.1-.2.3-.1.8.2.9.2.1.9.1 1-.2zM138.7 375.441c.4 0 .9 0 .9-.6l.3-1.2c.3-.4.2-.8-.2-1-.4-.2-.8-.1-1.1.3-.2.2-.3.5-.6.6-.5.2-.7.6-.7 1.1.1.3.9.8 1.4.8zM123 356.841c.2-.3.1-.7-.2-.9-.2-.1-.5-.2-.7-.2-.5.2-.5.7-.3 1.2.5.2.9.4 1.2-.1zM138.2 367.641c.1-.1.1-.5-.1-.6-.2-.1-.4.2-.5.3 0 .1 0 .3.1.4.2 0 .4 0 .5-.1zM123.6 371.741c.4.5 1.3.7 1.6.4.6.2 1.1-.1 1.2-.8.1-.5.1-1 0-1.6-.1-.5-.8-1.1-1.4-1.1-.3 0-1 .3-.9.9.3.3.4.6.4.8-.3 0-.6.1-.8.3-.4.4-.4.8-.1 1.1zM125 362.841c.2-.2.4-.5.1-.7-.2-.2-.6-.2-.8-.1-.2.1-.2.5-.2.7.3.4.6.3.9.1zM100.1 342.641c.5-.2 1-.3 1.3-.9-.1-.2-.1-.5-.2-.7.4-.5.5-1.2.2-1.5-.2-.2-.5-.3-.8-.1-.5.3-.6.6-.4 1.3-.3.4-.5.8-.7 1.2-.2.4.2.9.6.7zM127.1 374.141c.2.2 1.1 0 1.1-.4 0-.3-.3-.7-.6-.7-.4.1-.7.9-.5 1.1zM118 368.041c0-.3-.1-.5-.4-.6-.4-.2-.8-.1-1 .3-.2.3 0 .8.3.9.3.2.6.1.9-.2-.1.3 0 .7.2 1 .5.6 1.5.6 2 .1.4-.4.4-1.3.1-1.8-.4-.5-1.2-.5-1.9.1l-.2.2zM90.2 329.241c-.4.4-.2.8 0 1.2.5 0 1 .1 1.2-.5v-.2c.4.1 1 .1 1.3-.1.3-.2.4-.7.1-1-.4-.5-1-.8-1.4-.5-.3.2-.5.5-.5.9-.2-.1-.5 0-.7.2zM92.2 332.441c-.8.5-1 1.2-.5 2 .4.6 1.4.8 2 .4.5-.3.6-1.4.2-2.1-.3-.6-1.1-.7-1.7-.3zM89.8 326.641c-.4.1-.7.7-.3 1.1.2.2.6 0 1-.1.1 0 .3 0 .3-.3-.1-.3-.6-.8-1-.7zM92.4 337.041c-.3.2-.4.8-.2 1.2.3.5 1 .8 1.4.5.5-.3.8-1.1.5-1.5-.2-.4-1.2-.4-1.7-.2zM97.9 347.841h.4c-.2.4-.1 1 0 1.1.2.2 1 .2 1.3-.3.2-.3.2-.7-.2-1-.2-.1-.3-.2-.5-.2l.1-.1c.3-.3.2-.7.1-1-.1-.3-.4-.7-.8-.7s-.8-.3-1.1 0c-.2.2-.3.4-.3.6 0 .2-.1.3-.1.5.2.3.3.5.5.8.2.2.4.3.6.3zM89.9 334.341c.5-.3.7-1.2.3-1.8-.3-.5-1.2-.8-1.7-.6.4.8.8 1.6 1.3 2.5 0-.1 0-.1.1-.1zM94.1 342.341c.3.5.6 1.1 1 1.6.2-.4.4-1 .2-1.2-.2-.4-.7-.6-1.2-.4zM131 366.641c-.6-.2-1.4.2-1.6.7-.2.4.2 1 .7 1.2.6.2 1.1 0 1.3-.6.3-.5.1-1.1-.4-1.3zM141.8 378.841c-.2 0-.5.1-.7.1-.2.5.1.9.4 1 .3.1.5-.1.6-.4.2-.3.1-.6-.3-.7zM132.3 373.841c-.2.4 0 .9.4 1 .4.1.9-.2 1-.6.1-.4-.1-.8-.5-.9-.4-.2-.7 0-.9.5zM132.7 370.441c-.4-.2-.8-.1-1 .3-.2.4 0 .8.3 1 .3.1.9 0 1-.3.2-.4 0-.8-.3-1zM86.5 325.741c-.5-.5-.9-.6-1.3-.6l1.8 3.9c.3-.2.5-.4.7-.7.4-.6.5-1.2.3-1.7s-1-.4-1.5-.9zM140.5 384.841c-.1.4.1.8.5.9-.1.1-.2.3-.2.5l.9-1.8c-.5-.2-1.1 0-1.2.4zM84.8 323.141c-.1 0-.3.1-.4.1.2.5.5 1 .7 1.5.3 0 .5-.3.5-.6 0-.4-.4-1-.8-1zM142.9 369.741c-.4.2-.3.1-.7-.2-.4-.2-1.1-.4-1.3.4-.2.8.4 1.4 1.1 1.7.7.2 1.9-.5 1.9-1.4.2-.5-.6-.7-1-.5zM143 376.141c-.2.5.1.9.4 1 .3.1.5-.1.6-.4.1-.3 0-.7-.3-.7s-.6.1-.7.1zM143.6 377.241c-.1 0-.5.2-.5.4s.5.4.6.4c.1 0 .3-.3.3-.5 0-.1-.2-.3-.4-.3zM125.4 365.241c-.1.1-.1.4 0 .5.1.1.4.3.5.2.1-.1.1-.4.1-.5-.1-.2-.5-.4-.6-.2zM115 352.541c-.4.3-.6 1-.4 1.3.3.4 1.2.6 1.6.2.4-.3.5-1.1.1-1.5-.3-.4-.8-.4-1.3 0zM125.9 361.341c-.2.2-.2.8.3 1 .1.1.5 0 .6-.1.1-.2.2-.5.2-.7-.3-.5-.9-.4-1.1-.2zM117.9 364.941c.3-.2.4-.6.1-.8-.2-.2-.6-.6-1-.3s0 .8.1 1.1c.1.2.5.2.8 0zM116.6 357.241c-.4.4-.5 1 0 1.5.5.6 1.3.6 1.9.1.4-.4.5-1.2 0-1.7-.4-.5-1.3-.4-1.9.1zM119.1 350.241c-.4.3-.4.9 0 1.5.2.3.8.4 1.1.2.4-.3.6-1 .3-1.3-.3-.5-1-.7-1.4-.4zM128.8 373.341c-.3.2-.4.6-.2.9.2.3.7.3 1 .1.3-.2.4-.7.2-.9-.3-.2-.7-.3-1-.1zM128.5 376.341c.1.1.4.2.5.2.2-.1.5-.4.5-.6 0-.4-.4-.5-.7-.6-.5.3-.6.6-.3 1zM125.3 378.041c-.2-.1-.4-.3-.5-.4 0-.1-.1-.2-.1-.2-.2-.3-.8-.4-1-.2-.3.2-.3.7-.1 1 .1.1.3.2.4.2 0 .1 0 .1.1.2.3.5.7.3 1.2.2.1.2.3.4.4.7-.3.2-.6.4-.8.6 0 .3 0 .6.1.8.1.4.8.9 1.1.8.4 0 .7-.5.8-1.1v-.6c.4-.2.9-.4 1.1-.8.1 0 .2.1.3.1.2.2.5.3.8.3.5 0 .8-.3.9-.8.1-.4.4-1.1 0-1.4-.3-.3-.5-.1-.7 0-.3-.3-.7-.5-1.1-.4-.5.1-.8.3-1 .5-.1 0-.1-.1-.2-.1-.8-.3-1.3 0-1.7.6zM127.7 366.941c-.2.2-.2.5 0 .6.2.2.5.1.6 0 .1-.1.2-.3.1-.5-.2-.3-.5-.3-.7-.1zM112.9 363.841c-.3.2-.3.9 0 1.2.4.5 1 .6 1.4.3.5-.4.6-1.2.3-1.6-.3-.4-1.4-.3-1.7.1zM98.7 338.241c.1-.4-.9-.8-1.3-.6l-.1.1c-.2-.2-.4-.4-.7-.2-.4.2-.1.8-.1 1.1.1.3.4.3.7.2.4.3 1.4-.1 1.5-.6zM97.1 340.041c-.2.2-.1.3 0 .4.1.1.4.3.6.1.2-.2 0-.5-.1-.5s-.3-.1-.5 0zM102.3 345.441c-.5.3-.6.6-.3 1h-.1c-.5.2-.8.9-.6 1.5.2.6.6.5.7.9.1.4.4.4.8.4s1.1-.1 1-.7c-.1-.6-.5-.6-.6-.6-.2 0-.5-.2-.3-.3.2-.1.2-.3.1-.6.2 0 .4 0 .5-.1.4-.2.4-1 .1-1.4-.2-.3-.8-.4-1.3-.1zM98.8 343.741c.5-.3.6-1.3.3-1.8-.4-.6-1.2-.7-1.9-.2-.6.4-.8 1-.4 1.6.4.7 1.4.9 2 .4zM112 359.241c-.7.6-.8 1.3-.2 2 .5.6 1.5.6 2 .1.4-.4.4-1.5-.1-2.1-.4-.5-1.1-.5-1.7 0zM108 359.341c-.6.5-.7 1.3-.3 1.8.4.5 1.7.6 2.2.3.5-.4.5-1.3.1-1.9-.4-.5-1.5-.6-2-.2zM104.7 340.241c-.1.1-.1.4-.1.5.1.1.3.4.5.3.1-.1.2-.4.1-.5 0-.2-.4-.5-.5-.3z"/>
  <path fill="#294492" fill-rule="evenodd" d="M181.3 159.141H31.8c-10.4 0-18.8 8.4-18.8 18.8s8.4 18.8 18.8 18.8h117.4c7.9-14.7 18.9-27.6 32.1-37.6z" clip-rule="evenodd"/>
  <path fill="#1BA9F5" d="M46.5 185.241l-5.3-3.9c.6-1.1.9-2.4.9-3.7 0-4.5-3.7-8.2-8.2-8.2-4.5 0-8.2 3.7-8.2 8.2 0 4.5 3.7 8.2 8.2 8.2 2.3 0 4.3-.9 5.8-2.4l5.3 3.9 1.5-2.1zm-12.7-2c-3.1 0-5.6-2.5-5.6-5.6 0-3.1 2.5-5.6 5.6-5.6 3.1 0 5.6 2.5 5.6 5.6.1 3-2.5 5.6-5.6 5.6z"/>
  <path fill="#00AAFB" d="M129.2 182.641H59.4c-2.2 0-4.1-1.8-4.1-4.1 0-2.2 1.8-4.1 4.1-4.1h69.7c2.2 0 4.1 1.8 4.1 4.1s-1.8 4.1-4 4.1z"/>
  <path fill="#DCE2EA" d="M143 296.541c.5-.5.5-1.2 0-1.8-.6-.7-1.7-.7-2.3 0-.5.5-.5 1.5 0 2.1.4.5 1.5.4 2.3-.3zM135 297.241c-.2.4-.2.8.2 1.1.2.2.6.3.9.2.7-.3.6-.8.4-1.5-.6-.2-1.1-.4-1.5.2zM138.6 303.241c-.5.4-.7 1.2-.4 1.6.4.5 1.3.7 1.7.4.5-.3.4-1.2-.1-1.8-.1-.4-.8-.4-1.2-.2zM132 278.541c-.4.4-.3 1.3.1 1.7.4.4 1.2.4 1.7 0s.6-.9.2-1.3c-.6-.6-1.6-.8-2-.4zM136.3 291.141l1.8-1.2c.8 1.1 1 1.1 1.7.2-.2-.7-.6-.9-1.3-.7-.7-1.5-1.7-1.5-2.7 0h-.3c-.5-.2-.8.1-1 .4-.2.4-.2.6.1 1 .5.8.9.9 1.7.3zM132.5 289.941c-.3.2-.5.6-.1.9.2.2.8.3.9.1.2-.2.2-.6.3-.9-.4-.4-.8-.3-1.1-.1zM236.1 373.841c.5-.6.5-1.8-.1-2.4-.6-.6-1.6-.5-2.4.3-.6.6-.6 1.6 0 2.2.7.6 1.9.5 2.5-.1zM230.1 372.141c-.4-.1-.5.3-.5.4 0 .3.2.5.5.6.2.2.4.4.7.4.3 0 .4-.4.3-.8-.3-.2-.7-.6-1-.6zM207.4 364.841c0-.5-.6-1.3-.9-1.4-.5-.1-1.1.3-1.3 1-.1.2-.2.4-.2.7-.6.1-1.2.1-1.6.5-.1-.1-.2-.2-.3-.2-.6-.3-1.8.1-2 .7-.2.6.3 1.8 1.2 2 .6.1 1 0 1.3-.2l.2.2c.7.7 1.4.5 2.1 0 .3.4.5 1 1.2.7.4-.2.6-.5.6-.9-.1-.7-.7-.7-1.3-.7-.1-.3-.2-.6-.2-.9l1.2-.3c-.1-.6 0-.9 0-1.2zM132.5 250.741s.1-.1.1-.2h-.7l.1.1c.1.1.4.2.5.1zM135.1 267.941c.2.2.5.3.8.2.3.4.7.7 1.3.7h.2c.8-.1 1.4-.9 1.2-1.7-.4-2.8-.7-5.7-.9-8.6-.1-.8-.8-1.4-1.6-1.4-.8.1-1.4.8-1.4 1.6.2 2.7.5 5.3.9 8-.2.1-.4.1-.5.2-.4.1-.3.7 0 1zM151.9 342.641c-.1.1.2.5.4.6.1.1.4-.1.5-.2 0-.2 0-.5-.1-.6-.2 0-.8.1-.8.2zM153.6 318.341c0-.2-.2-.6-.4-.7-.2-.1-.8-.1-1 .1-.2.2.3.8.4.9.3.3.9 0 1-.3zM151.9 340.241c-.2-.1-.3.1-.3.2s.1.3.2.3.3 0 .3-.1c0-.2 0-.4-.2-.4zM151.9 328.541c-.2.4 0 .9.5 1.1.5.2 1.1.1 1.3-.4.2-.4-.1-1-.5-1.2-.5-.3-1.1 0-1.3.5zM154 325.641c.3-.7-.2-1.7-.9-2-.4-.2-1.1.2-1.3.7-.3.8 0 1.4.6 1.7.7.3 1.5.1 1.6-.4zM153.3 313.941c.6.9 1.1 1.7 1.7 2.6.3.4.7.6 1.2.6.3 0 .6-.1.8-.3.7-.5.8-1.4.4-2.1-1.6-2.4-3.2-4.8-4.7-7.3-.4-.7-1.3-.9-2-.5-.2-.3-.3-.5-.5-.8h-.1c-.1-.4-.3-.7-.8-.9-.7-.3-1.4-.1-1.6.5-.1.3-.1.7 0 1-.4-.1-.7 0-1 .5-.3.5-.3 1.1 0 1.6s.9.6 1.4.5c.4-.1.7-.3 1.1-.5.2.1.3.2.5.3.2.1.4.1.7.1.4.7.9 1.4 1.3 2.2h-.3c-.7.1-1.3 1-1.3 1.7 0 .4.3 1.3 1.1 1.1 1.1-.8 1.5-.3 2.1-.3zM156.8 346.841c-.4-.2-.9 0-1.2.5-.2.5-.1.9.4 1.1.5.2 1 0 1.2-.4.2-.5 0-1-.4-1.2zM156.1 340.241c.1-.1.1-.7-.1-.7-.2-.1-.5.2-.6.3-.1.2-.1.6.1.6.3.1.5 0 .6-.2zM153.8 337.941c-.4-.2-1 .1-1.1.6-.2.5.1.9.6 1.1.5.2 1 .1 1.1-.3.1-.4-.2-1.2-.6-1.4zM154.6 319.441c-.6-.2-1.1-.1-1.4.4-.2.5.1 1.7.6 1.9.7.3 1.3 0 1.6-.8.3-.6 0-1.2-.8-1.5z"/>
  <path fill="#DCE2EA" d="M147 302.241c0-.1.1-.1 0-.2h.3c.2 0 .4 0 .7-.2.7-.4 1-1.2.7-2-1.3-2.6-2.4-5.2-3.5-7.9-.3-.8-1.2-1.1-1.9-.8-.8.3-1.1 1.2-.8 1.9 1.1 2.7 2.3 5.5 3.6 8.1 0 .1.1.2.2.3-.3 0-.6 0-.8.1.1-.3.1-.7 0-.9-.4-.5-1.5-.7-2-.2-.5.4-.5 1.3-.1 1.8s1 .5 1.7 0c.1-.1.1-.2.2-.2.1.3.6.6.7.6.3 0 .8 0 1-.4zM145.1 324.041c-.5-.2-1.1 0-1.3.4-.2.4.1 1 .5 1.2.4.1 1-.1 1.2-.5.2-.5.1-.9-.4-1.1zM141.5 310.941c-.5.2-.4 1-.2 1.2.2.2.9.2 1.2-.3.1-.2 0-.6-.1-.7-.3-.2-.7-.3-.9-.2zM144.1 317.441c.4.2 1-.1 1.2-.5.2-.6 0-1.1-.5-1.3-.5-.2-1 0-1.3.6-.2.5 0 1 .6 1.2zM147.5 336.641c-.3-.1-.6.2-.6.3-.1.1.1.5.2.5.1.1.5 0 .5-.2.1 0 .2-.5-.1-.6zM149.8 329.541c-.4-.2-1.2.3-1.2.6s.3.5.6.7c.3.2.7.1.9-.3.1-.4.1-.8-.3-1zM149.7 321.941c-.5-.3-.9-.1-1.1.3-.2.5-.1 1 .3 1.2.4.2.9 0 1.1-.3.3-.4.1-1-.3-1.2zM150.1 313.141c.5-.5 0-1.3-.4-1.3-.3 0-.8.4-.8.7 0 .4.6 1 1.2.6zM147.4 310.741c.1 0 .3 0 .3-.1s0-.3-.1-.4c-.2-.1-.3.1-.3.2-.1 0 0 .2.1.3zM228.6 379.441c.2 0 .6-.1.6-.4 0-.3-.4-.4-.5-.3-.2.1-.5.1-.4.4 0 .3.2.3.3.3zM228.2 376.241c-.3-.3-.6-.1-.8.2-.3.3-.3.8.1 1 .3.1.6.3.8.1.3-.2.3-1.1-.1-1.3zM231 370.741c.5.3.9.4 1.3-.1.1-.2.1-.6 0-.7-.2-.2-.5-.4-.8-.3-.6.1-.5.7-.5 1.1z"/>
  <path fill="#DCE2EA" d="M233.2 369.641c.1-.4.3-.8 0-1.2.5-.2 1-.8 1-1.2 0-.7-.8-1.6-1.8-1.5-1 .1-1.4.7-1.5 1.4-.1.5.4.9 1 1.2 0 0-.1 0-.1.1-.2.2-.3.7-.1.9.4.6.9.6 1.5.3zM200.4 357.441c-.5-.7-1.6-.9-2.1-.4-.4.5-.4 1-.2 1.6.3.6.8.7 1.3.6.4-.1 1.4-.1 1.6-.8.2-.7-.5-.8-.6-1zM216.6 364.641c-.7-.7-1.5-.6-2.2.2-.7.8-.7 1.5 0 2.2.7.7 1.7.6 2.4-.2.5-.6.4-1.6-.2-2.2zM217.2 382.241c.4.3.8.3 1.2-.1.4-.4.4-1 0-1.4-.4-.3-1-.3-1.3.1-.3.4-.3 1.1.1 1.4zM237.7 375.141c-.1.1-.4.4-.1.7.2.3.6 0 .7-.2.1-.1.1-.4 0-.5h-.6zM213.3 370.041c-.4.5-.3 1.4.2 1.8.5.5 1.5.5 1.9 0 .5-.6.5-1.5.1-1.9-.5-.4-1.8-.4-2.2.1zM242.9 378.941c-.2.1-.2.5-.1.6.1.1.4.3.6.2.2-.1.2-.4.1-.6-.1-.2-.4-.3-.6-.2zM243.8 373.141c-.2-.2-.6-.5-.8-.5-.9 0-1.6.4-1.9 1.6.3.3.5.6.8.8.5.4 1.3.3 1.6 0 .5-.6.7-1.3.3-1.9zM245.7 380.241c-.4.1-.9 1-.8 1.5.1.4.7.8 1.1.7.9-.2 1.4-.7 1.3-1.2-.1-.5-1-1.1-1.6-1zM248.3 376.141c.4-.2.3-.6 0-1s-.7-.2-.9.1c-.2.2-.4 1-.2 1.1.2.1.9 0 1.1-.2zM244.2 385.641c.7-.1 1-.7.8-1.6-.1-.5-.7-1-1.2-.9-.3 0-.7.4-1 .7v-.1c-.2-.2-.8 0-.9.1-.1.2-.3.6-.1.8.1.1.5.1.7.1.1.6.9 1 1.7.9zM245.8 375.641c-.5.1-1.3 1.1-1.3 1.5.1.7.6 1 1.4.9.8-.1 1-.4.9-1.3 0-.7-.4-1.2-1-1.1zM238.9 373.041c.4 0 .8-.5.8-1-.2-.1-.6-.3-.9-.4-.4 0-.6.3-.6.7.1.4.2.7.7.7zM247.6 367.941c.1-.2.2-.6.2-.9.6-.1.9-.6.8-1.1-.1-.4-.5-.8-1-.7-.4.1-.7.4-.8.7-.4-.1-.7.1-.8.1-.4.3-.4.6-.4 1-.1 0-.2.1-.2.2-.2.3-.4 1.1-.2 1.3.2.2.5 0 .8-.2.5.4 1.3.1 1.6-.4zM238.7 366.841c-.7-.6-2-1.1-3.3-.3-.8.5-1.1 1.1-1.2 1.8 0 .8.9 1.1 1.1 1.9.6 1.8 2 1.6 3.1.9.4-.2.7-.6.8-.9.2-.5.1-1.1-.1-1.6-.2-.8.1-1.4-.4-1.8zM157.1 321.141c.4.2 1-.1 1.1-.6.1-.5-.1-.9-.6-1.1-.5-.2-.9 0-1 .5-.2.5.1 1.1.5 1.2zM157.3 332.241c-.6-.2-1.4 0-1.5.5-.2.6.1 1.6.6 1.8.4.2 1.3-.4 1.6-1.1.1-.4-.3-1.1-.7-1.2zM141.1 287.241c-.4.3-.5.7-.1 1 .3.2.8.7 1.2.4.1-.1.1-.1.1-.2-.2-.4-.3-.9-.5-1.3-.2-.2-.5-.1-.7.1zM189.3 359.741c-.4.1-.6.4-.6.8.1.7.6.9 1.2 1 .4-.5.9-.8.5-1.4-.2-.4-.6-.5-1.1-.4zM192.6 356.241c-.2.2-.3.4-.3.6-.1 0-.1 0-.2.1-.1.2 0 .4.1.5 0 .2.1.3.2.4.5.4 1.7.3 2.2-.3.4-.5.3-1.1-.2-1.5-.6-.5-1.2-.5-1.8.2zM157.1 326.841c.4.2 1.2 0 1.3-.4.4-.9.3-1.8-.3-2-.5-.2-1.5.3-1.8.8-.1.5.3 1.4.8 1.6zM185.7 349.541c-.4.4-.4 1.1 0 1.4.3.3.9.3 1.3-.1s.4-1 .1-1.3c-.4-.3-1-.3-1.4 0zM187 359.241c-.3.3-.3.8.1 1 .3.1.6.1.8.1.4-.5.2-1-.1-1.3-.3-.2-.6 0-.8.2zM175.3 344.141c0-.2-.2-.6-.4-.7-.2-.1-.9.1-1 .3-.1.2.4.8.5.8.4 0 .9-.1.9-.4zM174 350.441c-.1.3.5.8.8 1 .3.2.7 0 .8-.4.1-.4.1-.8-.3-.9-.3 0-1.1 0-1.3.3zM174.9 341.841c.4-.5.9-.8.5-1.4-.1-.1-.1-.2-.2-.2.1-.2 0-.5-.2-.6-.2-.2-.8-.5-1.1 0-.2.2-.1.5 0 .7-.1.1-.2.3-.2.6 0 .5.5.7 1.2.9zM211.5 383.441c.3-.3.3-.9.1-1.2-.3-.4-.9-.4-1.3 0s-.4.8 0 1.1c.4.4.9.4 1.2.1zM218.6 371.141c-.3.4-.2.9.2 1.2.4.2.7.5 1 .2.5-.6.5-1.2.2-1.5-.4-.4-1.1-.4-1.4.1zM218.4 366.841c-.3.3-.2 1.2.3 1.6.4.3.8.2 1.1-.2.5-.6.7-1.2.3-1.5-.3-.3-1.3-.3-1.7.1zM217.4 376.841c.3-.3.4-1.1 0-1.4-.7-.7-1.6-.8-2-.4-.4.4-.3 1.5.2 2 .4.3 1.4.2 1.8-.2z"/>
  <path fill="#DCE2EA" d="M222.9 366.241c.5.5 1.2.6 1.6.3.4-.3.6-1.4.3-1.9v-.1h.2c.5 0 1.1-.5 1.2-.9.4.1.7.2 1.1.2h.1c-.4.6-.2 1.7.4 2.1.2.2.5.2.7.3-.3.2-.5.4-.6.7-.2.1-.4.2-.7.5-.1.4-.5 1.1-.6 1.8-.1.4.1.9.6 1 .4.1.9 0 1-.6.1-.2.2-.5.4-.7.1-.1.2-.2.2-.3.2.1.4.1.7.1.6 0 1-.6.9-1.3 0-.6-.5-1.2-1-1.4.1-.1.2-.1.3-.2.4-.5.4-1.6 0-2.2h.1c.2.6.7 1.1 1.2 1 .4-.1.7-.2.9-.4.2-.1.3-.1.5 0h.2c.4.1.8.1 1.2-.1.2-.1.4-.3.6-.5-1.8-.3-3.6-.5-5.4-.9.1-.8-.4-1.6-1.2-1.7-2.8-.6-5.6-1.2-8.4-2-.8-.2-1.6.2-1.8 1-.6-.3-1.3-.1-1.9.5-.9 1-1 2-.3 2.7.7.7 1.7.6 2.6-.1.2.5.7 1 1.1 1 .6 0 1-.7 1-1.6 0-.2-.1-.3-.2-.5 1.3.3 2.5.7 3.8 1-.1.2-.1.3-.1.5 0 .1 0 .2.1.3-.6.1-1.1-.1-1.6-.3-.5-.2-.9-.1-1.1.4-.2.5 0 1.3.5 1.3.8.1 1.2.5 1.4 1zm-4.2-4.3c.1 0 0 0 0 0h0zM216.3 390.341c-.2.2-.5 1.2-.2 1.5.3.3 1.3-.2 1.5-.5.2-.2.3-.9 0-1.2-.3-.3-1 0-1.3.2zM228.3 383.541c-.4-.3-1.3-.2-1.6.1-.3.3-.2.9.2 1.3.4.3.9.2 1.3-.2.4-.5.5-1 .1-1.2z"/>
  <path fill="#DCE2EA" d="M226.9 373.841c.7-.2 1.2-.8 1.4-1.5.1-.2 0-.6-.1-.8-.5-.8-1.4-1-2.3-.6-.2.1-.4.2-.5.3-.2-.3-.3-.7-.5-1-.2-.3-.3-.4-.5-.5.2 0 .5-.1.6-.4.6-.7.7-1.3.1-1.8-.4-.3-1.4-.2-1.7.2-.3.4-.1 1.4.3 1.8.1.1.2.1.2.1-.1 0-.3 0-.4.1-.3.1-.6.4-.7.6h-.1c-.4-.1-.8 0-1 .4-.3.4-.3 1 .1 1.3.5.4 1 .2 1.4 0 .1.1.2.1.3.2.4.1.8.1 1.2.2.1.2.2.4.3.5.5.7 1.3 1.1 1.9.9zM222.5 378.441c-.4.5-.4 1.3 0 1.6.5.4 1.5.4 1.9 0 .3-.4 0-1.3-.5-1.8-.4-.3-1.1-.2-1.4.2zM223.2 376.441c.7-.1.7-1.1.4-1.3 0 0-.1-.1-.2-.1.1-.2.1-.4 0-.7-.1-.2-.5-.4-.7-.4-.3.1-.7.4-.8.7-.2.5.2.7.6 1-.2.3.1.8.7.8zM223.5 389.041c-.2.2 0 .6.1.7.1.1.5.1.6 0 .1-.1.1-.5 0-.6-.1-.1-.6-.3-.7-.1zM217.5 384.641c-.3.3-.1 1.2.2 1.3.3.1.6-.1.9-.3.3-.2.4-.6 0-.9-.4-.3-.7-.5-1.1-.1zM209.1 363.241c-.2 1.1.6 1.8 1.6 2 .9.2 2.6-.9 2.9-1.7.3-.8-.7-1.4-.7-1.7 0-.2 1.4-.7 1.6-1.8.1-.4 0-.8-.2-1.1-.7-.2-1.4-.5-2.1-.7.3-.8-.1-1.6-.9-1.9-2.7-1-5.4-2.1-8-3.3-.7-.3-1.6 0-1.9.7-1.5-.7-3-1.5-4.5-2.2l-.3.3c-.2.4 0 1.1.4 1.3v.1c-.1.6 0 1-.7 1.4-.5.2-.3.7-.1 1.2.7.1 1.1-.1 1.2-.7.7 0 1.2 0 1.7-.1s.9-.7 1.1-1.3c.1.3.3.6.7.9.1.1.2.1.3.2.1.4.4.8.8 1 .3.1.6.3.9.4-.2.3-.1.5 0 .8-.6.1-1.2.7-1.5 1.3-.2.4-.3.8-.2 1.2.1.5.4 1 1 1.3.5.4.7 1 1.3 1.2.9.2 2.3 0 3-1.4.4-.8.4-1.5.1-2.1-.3-.7-1.3-.5-1.9-1-.1-.1-.2-.2-.3-.2l.3-.3 4.5 1.8c-.3.3-.3 1 .1 1.3.2.2.5.2.8.1.3.6.9 1.1.8 1.4-.2.2-1.6.5-1.8 1.6zM208.1 377.341c-.2-.1-.6 0-.8.1-.2.2-.4.8-.2 1 .2.2.8 0 1-.1.4-.2.4-.8 0-1zM202.1 371.641c-.2-.3-1.3-.4-1.4 0-.1.3.1.9.4 1 .5.2 1.2-.6 1-1zM213 379.541c-.3.4-.2 1.1.3 1.5.6.5 1.3.5 1.8 0 .4-.5.5-1.3.1-1.6-.5-.6-1.7-.5-2.2.1zM203.6 378.141c-.6-1.3.5-1.4.4-2.4 0-.2-.1-.4-.2-.5-.6-.9-1.6-.9-2.1 0-.3.6-.5 1.2-.7 1.8-.2.7.5 1.5 1.1 1.8.5.1 1.4.1 1.5-.7zM202.8 384.841c-.3.4-.3 1 .1 1.4.4.4 1 .3 1.4-.1.3-.3.2-.9-.1-1.3-.5-.5-1.1-.5-1.4 0zM212 374.941c.3-.3.2-1-.2-1.3-.4-.3-.9-.2-1.3.2-.3.4-.3.8.1 1.1.5.4 1.1.4 1.4 0zM210.8 387.141c-.4.4-.4 1.1 0 1.4.3.3 1 .2 1.3-.1.3-.3.2-1-.1-1.3-.4-.3-.9-.3-1.2 0zM211.4 378.141c.5-.5.4-1.2-.2-1.8-.5-.4-1.1-.3-1.7.3-.4.5-.5 1-.1 1.4.4.5 1.7.5 2 .1zM211.1 367.841c-.4-.4-1-.4-1.4-.1-.4.4-.3 1.3.1 1.8.3.3.8.3 1.2-.1.4-.5.4-1.2.1-1.6zM206.7 371.241c-.6-.5-1.3-.4-1.8.2-.5.6-.5 1.5-.1 1.8.4.4 1.6.3 2-.2.5-.6.5-1.3-.1-1.8zM244.7 397.541c-.2.2.1.8.2 1.2 0 .1.1.4.5.3.4-.1.8-.8.7-1.2-.2-.5-1-.7-1.4-.3zM247.5 387.841c-.1-.2-.4-.4-.7-.4-.5 0-.9 0-1.4.1-.4 0-.5.3-.4.7.1.1.2.2.3.2.5 0 .8.2 1.2.4.2.1.6-.1.8-.3.2-.1.3-.5.2-.7zM241.9 387.841c-.6.1-.9.5-.9.9 0 .5 1 1.4 1.5 1.3.7-.1 1-.6.9-1.4-.2-.7-.7-.9-1.5-.8zM248.4 390.141c-.6.1-.9.8-.8 1.6.1.5.4.7.8.6.7 0 1.3-.6 1.2-1.1-.1-.6-.7-1.2-1.2-1.1zM245.5 391.341c-.1-.5-.6-.9-1-.9-.4.1-1 .7-1 1.1.1.5.8 1 1.3.9.5-.1.8-.6.7-1.1zM248.8 384.141c0 .7.2 1.2.6 1.3.2 0 .5-.2.8-.4v-1.3c-.2-.2-.4-.3-.6-.3-.4-.1-.8.2-.8.7zM248.1 369.941c-.7.1-1.2.8-1 1.6.3 1.3.7 1.4 2 1.3.5 0 .9-.4 1.1-.9v-1.2c-.3-.5-1.2-1-2.1-.8zM250.2 366.041v-1.4h-.5c.2.6.2 1.1.5 1.4zM241.9 392.741c-.4 0-.8.5-.8.9.1.5.4.7.9.6.4 0 .6-.3.6-.7 0-.5-.3-.8-.7-.8zM249.6 379.841c.1.3.3.4.6.4v-1.8c-.4.2-.7.9-.6 1.4zM242.6 371.741c1.1 0 1.5-.7 1.6-1.4.2-.6-.1-1.9-1.3-1.9-.4 0-.8.1-1.1.2.1-.6 0-1.2-.2-1.4-.5-.4-1.4-.1-1.9.5-.5.5-.3 1.2.4 1.7.2.2.5.2.9.2v.2c-.2.7.8 1.9 1.6 1.9zM232.3 390.041c-.4.4.3 1.4.9 1.4.6 0 1.2-.6 1-1.1-.1-.4-1.5-.7-1.9-.3zM233.9 385.741c.4-.3.3-1-.2-1.1-.6-.1-1.3-.4-1.9 0l-.3.9c-.8.3-1.3.9-1.2 1.3.1.4.4.6.8.7.8.1 1-.2 1.3-1 .5-.3 1.1-.5 1.5-.8zM229 382.041c-.1.2 0 .6.1.6.2.1.5.3.6.2.1-.2.1-.5 0-.6-.1-.2-.5-.4-.7-.2zM230.4 376.241c.2.3 1.2.2 1.3-.1.1-.3 0-.6-.2-.9-.2-.3-.6-.4-.9-.2 0-.1-.1-.1-.1-.2-.3-.2-.9-.1-1.1.2-.3.4-.1.6.7 1.2.1 0 .2 0 .2-.1 0 0 .1 0 .1.1zM234.9 388.341c-.3 0-.3.5-.3.6.1.2.2.4.5.3.3 0 .3-.3.3-.4-.1-.2-.2-.5-.5-.5zM240.5 376.341c-.3 0-.4.1-.4.4 0 .3.1.4.4.4.2 0 .4-.1.4-.4 0-.3-.1-.4-.4-.4zM238 380.341c-.5.2-.7.6-.8 1-.1.3 0 1 .4 1.3.4.3.7.8 1.1.8.4 0 .5-.2.7-.4.2-.2.4-.3.5-.7.1-.4 0-1.2-.4-1.6-.5-.5-1-.6-1.5-.4zM228.3 386.041c-.1.1 0 .3.1.4.1.1.3 0 .3-.1.1-.1.1-.2 0-.3-.1-.1-.3-.1-.4 0zM236.2 383.641c-.3.3-.3.9.1 1.3s.8.4 1.1 0c.4-.4.4-.9 0-1.3-.3-.3-.9-.3-1.2 0zM235.9 376.941c.1-.5-.1-.7-.6-1-.5-.3-1.2-.6-1.5 0-.3.7 0 1 .3 1 .2.1.4.5.1.5-.3 0-.5.2-.5.8v.1c-.1.3.1.7.4 1 .2.2.5.2.7.1.6 0 1.1-.5 1.3-1.2.1-.7-.3-.9-.2-1.3zM178.5 347.041c-.5-.4-1.1-.5-1.6-.3-.4-.1-1 .1-1.2.6-.1.4 0 .8.4 1 0 .5.1 1 .4 1.2.6.5 1.5.4 2.1-.2.7-.6.7-1.7-.1-2.3zM172.5 337.541c-.5-.8-1.1-1.1-1.8-1-.6.1-.9 1.1-.8 2 .1.7 1.2 1.3 1.8 1.1.6-.2 1.2-1.3.8-2.1zM172.1 347.241c.5.2 1.8-.2 2-.7.2-.6-.3-1.4-1.1-1.6-.7-.3-1.2.1-1.5.9-.1.5.2 1.3.6 1.4zM168.5 354.641c-.3-.1-1-.1-1.1.2-.1.2.3.8.5 1 .3.3.7.1.9-.4.3-.4 0-.7-.3-.8zM169 333.141c-.5 0-1.2-.1-1.9 0-.5.1-.8.4-.7.9.1.5.3.8.9.8.3 0 .5.1.8.1.7.2 1.2.1 1.7-.4.3-.5.1-1-.8-1.4zM172.6 349.741c0-.2-.3-.5-.5-.5s-.5.2-.6.4c-.1.1.1.7.4.7.3 0 .7-.4.7-.6zM172.9 356.341c-.6.7-.7 1.9 0 2.4.6.5 2.2.4 2.7-.1.6-.6.4-1.8-.3-2.4-.7-.5-1.9-.4-2.4.1zM158.5 352.341c-.2-.1-.7 0-.8.1-.1.2.1.6.2.8.2.1.9.1 1-.1.1-.3-.2-.8-.4-.8zM178.4 367.041c-.1.1 0 .4.1.6.1.1.4.2.6.1.2-.2-.1-.5-.2-.7-.1-.1-.4-.1-.5 0zM175.5 355.741c-.1.2 0 .5.2.6.2.1.5-.1.6-.2.1-.1.1-.6-.1-.7-.3-.2-.7.1-.7.3zM167.8 338.941c.2.1.6-.1.7-.2.1-.2.2-.6.1-.8-.3-.5-.8-.3-1.2-.1-.3.5-.2.9.4 1.1zM178.9 362.341c.1-.1 0-.4-.2-.5-.2-.1-.4.1-.5.3-.1.1-.1.5.1.6.3.1.6-.2.6-.4zM163.5 327.441c0-.1 0-.2.1-.2.9 1 1.8 2 2.8 3-.1.1-.2.2-.2.3-.2.5 0 .9.6 1.1.9.3 1.5.2 1.7-.4.1-.2 0-.6-.1-.9 0 0 .1 0 .1-.1.6-.6.6-1.5.1-2.1-2-2.1-3.9-4.3-5.7-6.5-.5-.6-1.4-.7-2.1-.2l-.1-.1s0 .1-.1.1c0 .1-.1.2-.1.2-.4.5-.4 1.3 0 1.9.7.8 1.4 1.7 2.1 2.5-.3 0-.6.3-.7.7-.1.4-.2.9.2 1 .6.3 1.2.2 1.4-.3zM160.6 330.241c-.7 0-.6.7-.8 1.2.6.4 1.1.6 1.6.2.2-.2.2-.7.1-.8-.1-.3-.5-.6-.9-.6zM161.1 342.841c-.3-.1-.8.2-1 .7-.1.4 0 .6.3.8.4.1.8.1 1-.3.2-.5 0-1.1-.3-1.2zM201.5 368.641c-.1-.2-.4-.5-.6-.4-.3.1-.7.3-.8.5-.2.5.3.7.6.9.6-.2.9-.5.8-1z"/>
  <path fill="#DCE2EA" d="M164.9 329.941c0-.4-.3-.7-.7-.8-.5-.1-1 .1-1.2.5-.2.7.2 1.1.6 1.5 1.1-.4 1.4-.7 1.3-1.2zM162.9 338.641c-.4-.2-.8 0-1 .3-.2.3.2 1.2.6 1.2.4 0 .6-.2.8-.5.3-.3.1-.9-.4-1zM165.3 338.341c.2-.2.4-.7.4-1-.1-.4-.5-.4-.6-.4-.3.1-.4.4-.5.6-.1.2-.2.5-.1.7.1.4.6.3.8.1zM164.6 345.641c-.2.3.2.5.4.6.1.1.4-.1.5-.2 0-.2 0-.5-.1-.6-.2 0-.6-.2-.8.2zM168.3 342.641c.4-.8 0-1.7-1.1-2.2-.8-.4-1.7-.1-2.1.8-.4.8.1 2 .9 2.3.8.3 1.9-.1 2.3-.9zM161.2 336.941c.1-.4-.1-.6-.4-.7-.4-.2-.9 0-.9.4 0 .3-.1.7.2.8.3.1 1-.1 1.1-.5zM196 369.941c.4-.4.3-1-.1-1.4-.4-.3-1.1-.1-1.4.2-.3.4-.2 1 .2 1.3.4.4.9.4 1.3-.1zM194.6 377.041c-.5.6-.5 1.3-.1 1.7.6.5 1.7.4 2.2-.2.4-.4.2-1.3-.3-1.7-.6-.5-1.3-.4-1.8.2zM195.4 373.741c.4-.4.4-.9 0-1.3-.3-.3-1-.3-1.3 0-.3.3-.3.9.1 1.3.4.3.9.3 1.2 0zM190.6 370.241c-.3.3.1.9.2 1.1.2.3.5.5.9.2.3-.3.4-.9.1-1.1-.2-.3-.9-.6-1.2-.2zM192.7 359.841c-.3-.3-.9-.2-1.3.2-.3.4-.3.8 0 1.2.4.4.9.4 1.2 0 .5-.4.5-1.1.1-1.4zM190 378.441c-.2.3-.4 1.1-.2 1.4.2.3 1-.2 1.1-.4.1-.4.3-.9 0-1.2-.3-.3-.8 0-.9.2zM198.5 380.341c-.1.1 0 .3.1.4.1.1.3 0 .3-.1.1-.1.1-.2 0-.3-.1-.1-.2-.1-.4 0zM198.4 363.641c-.4.4-.4.9-.1 1.3.3.4 1 .4 1.3 0 .3-.4.3-1 0-1.3-.4-.3-.8-.3-1.2 0zM197.6 385.641c-.2.1-.5.5-.5.7.1.6.8.7 1.1.6.3-.1.5-.8.1-1.2-.1-.1-.5-.2-.7-.1zM198.1 362.041c1.1-.6 1.4-1.5 1-2.2-.2-.5-.9-.8-1.6-.9.2-.4.2-.8-.1-1.1-.3-.3-.9-.2-1.3.1-.3.4-.3.9 0 1.3l.1.1c-.5.5-.5 1.2-.4 1.7v.1c-.5-.2-1.1 0-1.6.6-.2.2-.3.4-.4.6-.1-.2-.3-.3-.6-.3-.6-.1-1.2.6-1.2 1.2 0 .5.4 1.2.9 1.4.7.2 1.2-.3 1.3-.6.7.5 1.7.4 2.1-.1.5-.6.6-1.2.4-1.8.6.2 1 .2 1.4-.1zM183.4 347.841c-.5-.3-1.5 0-1.8.5-.2.4 0 1.1.4 1.3.5.3 1.3 0 1.6-.6.3-.4.2-.9-.2-1.2zM181.4 360.741c.2-.2.1-.5 0-.6-.1-.1-.6-.3-.7-.1-.2.2 0 .6.1.7.1.1.4.2.6 0zM178.8 350.141c0 .1.1.3.2.3s.3 0 .3-.1 0-.3-.1-.4c-.2-.1-.4.1-.4.2zM182.2 351.641c-.3.4-.7.9-.2 1.4.3.4.8.5 1.2.2.2-.1.4-.5.4-.8-.1-.5-.4-.7-1.4-.8zM180.9 344.241c.2.2.3.3.5.4v.3c0 .4 1.6.6 1.8.3.2-.2 0-.8-.5-1.1.1-.1.2-.1.3-.2.4.4.8.9 1.4.4.1 0 .1-.1.2-.2-1-.7-2.1-1.5-3.1-2.2h-.1c.5-.6.4-1.6-.3-2.1-2.3-1.8-4.5-3.6-6.6-5.5-.6-.5-1.5-.5-2.1.1-.5-.5-1.1-1-1.6-1.5-.1.1-.2.3-.3.4-.2.7.1 1.6.7 1.8.2.1.5.1.8 0-.1.5 0 1 .4 1.4.5.4.9.8 1.4 1.2.1.3.2.5.5.8.3.2.6.3.9.4l1.5 1.2c-.3.7-.2 1.1.3 1.3.5.2.9.2 1.3-.1.3.3.6.5 1 .8.3.2.6.3.9.3.2 0 .3 0 .4-.1-.1.5-.1 1.4.3 1.9zM183.8 368.341c-.7-.5-2.4-.2-2.8.8-.3.7.5 1.2 1 1.1.5-.1.4 0 .7.5.3.4 1.1.8 1.6 0 .7-.8.2-1.8-.5-2.4zM186.6 374.641c-.1.1-.3.5-.1.7.2.2.6 0 .7-.2.1-.1.1-.4 0-.5-.1 0-.4-.1-.6 0zM186.3 354.241c.3-.1.5-.4.6-.7.3-.7-.1-1.5-.9-1.8-.6-.2-1.5.2-1.7.9-.2.6 0 1.2.6 1.5-.1.1-.2.1-.3.2-.4.4-.3 1.1.3 1.7.4.4 1 .5 1.3.1.3-.5.4-1.6.1-1.9zM190.4 367.041c.1-.4-.6-1.4-1.1-1.5-.5-.1-1-.3-1.3.3-.3.5-.6.9-.9 1.3-.5.4-.5.8-.2 1.2.4.4.9.4 1.4.1.3-.2.6-.4.9-.4.6-.2 1-.5 1.2-1zM183.8 361.741c-.3.3-.3.8.1 1 .3.1.6.1.8.1.4-.5.2-1-.1-1.3-.4-.2-.6 0-.8.2zM365.6 241.541c-.1-.8-.8-1.4-1.6-1.4-.8.1-1.4.8-1.4 1.6.2 2.9.3 5.8.3 8.6v1.1c0 .8.6 1.5 1.5 1.5.8 0 1.5-.7 1.5-1.5v-1.1c.1-2.9 0-5.8-.3-8.8zM332.6 172.741c.4 0 .7-.1 1-.4.6-.6.6-1.5 0-2.1-2-2.1-4.2-4.2-6.4-6.1-.6-.5-1.5-.5-2.1.1-.5.6-.5 1.5.1 2.1 2.1 1.9 4.2 3.9 6.2 6 .4.2.8.4 1.2.4zM228.7 139.641h.3c2.8-.5 5.7-1 8.5-1.3.8-.1 1.4-.8 1.3-1.6-.1-.8-.8-1.4-1.6-1.3-2.9.3-5.9.8-8.8 1.3-.8.2-1.3.9-1.2 1.7.2.7.8 1.2 1.5 1.2zM336.6 322.941c-1.8 2.2-3.8 4.3-5.8 6.4-.6.6-.6 1.5 0 2.1.3.3.7.4 1 .4.4 0 .8-.1 1.1-.4 2.1-2.1 4.1-4.3 6-6.6.5-.6.4-1.6-.2-2.1-.6-.5-1.6-.4-2.1.2zM356.4 292.741c-.8-.3-1.6 0-1.9.8-1.1 2.6-2.3 5.3-3.6 7.8-.4.7-.1 1.6.7 2 .2.1.4.2.7.2.5 0 1.1-.3 1.3-.8 1.3-2.6 2.6-5.3 3.7-8 .2-.8-.1-1.7-.9-2zM364.2 258.841c-.8-.1-1.5.5-1.6 1.4-.2 2.9-.6 5.7-1.1 8.6-.1.8.4 1.6 1.2 1.7h.2c.7 0 1.3-.5 1.5-1.2.5-2.9.8-5.9 1.1-8.8.1-1-.5-1.7-1.3-1.7zM348.7 308.441c-.7-.4-1.6-.2-2 .5-1.5 2.5-3.1 4.9-4.8 7.2-.5.7-.3 1.6.3 2.1.3.2.6.3.9.3.5 0 .9-.2 1.2-.6 1.7-2.4 3.4-4.9 4.9-7.4.4-.8.2-1.7-.5-2.1zM361.6 276.041c-.8-.2-1.6.3-1.8 1.1-.7 2.8-1.5 5.6-2.4 8.3-.3.8.2 1.6.9 1.9.2 0 .3.1.5.1.6 0 1.2-.4 1.4-1 .9-2.8 1.7-5.7 2.4-8.5.3-.9-.2-1.7-1-1.9zM351.3 200.441c.3.5.8.8 1.3.8.2 0 .4 0 .7-.2.7-.4 1-1.3.7-2-1.3-2.6-2.7-5.3-4.2-7.8-.4-.7-1.3-.9-2-.5s-.9 1.3-.5 2c1.4 2.6 2.8 5.1 4 7.7zM342.5 185.541c.3.4.7.6 1.2.6.3 0 .6-.1.9-.3.7-.5.8-1.4.4-2.1-1.7-2.4-3.5-4.8-5.4-7-.5-.6-1.5-.7-2.1-.2-.6.5-.7 1.5-.2 2.1 1.8 2.3 3.6 4.6 5.2 6.9zM360.1 224.741c.7 2.8 1.2 5.6 1.6 8.5.1.7.7 1.3 1.5 1.3h.2c.8-.1 1.4-.9 1.2-1.7-.4-2.9-1-5.8-1.7-8.7-.2-.8-1-1.3-1.8-1.1-.7.1-1.2.9-1 1.7zM357.8 216.441c.2.6.8 1 1.4 1 .1 0 .3 0 .4-.1.8-.2 1.2-1.1 1-1.9-.9-2.8-1.9-5.6-3-8.3-.3-.8-1.2-1.1-1.9-.8-.8.3-1.1 1.2-.8 1.9 1 2.7 2 5.5 2.9 8.2zM245 363.141c-2.9-.1-5.8-.4-8.6-.7-.8-.1-1.6.5-1.6 1.3-.1.6.2 1.1.7 1.4 0 .3.2.5.5.6.4.1.7 0 1-.3.6.1 1.2.1 1.9.2-.1.3-.1.7.1.8.2.2.9-.1 1-.2 0-.1.1-.3.1-.5 1 .1 2.1.2 3.1.2.3.2.6.2.8.1.4 0 .7.1 1.1.1h.1c.8 0 1.4-.6 1.5-1.4-.2-.9-.8-1.6-1.7-1.6zM263.4 138.341c2.9.3 5.7.8 8.5 1.3h.3c.7 0 1.3-.5 1.5-1.2.2-.8-.4-1.6-1.2-1.7-2.9-.6-5.8-1-8.8-1.4-.8-.1-1.5.5-1.6 1.3-.1.9.5 1.6 1.3 1.7zM280.3 141.641c2.8.8 5.5 1.6 8.2 2.6.2.1.3.1.5.1.6 0 1.2-.4 1.4-1 .3-.8-.1-1.6-.9-1.9-2.8-1-5.6-1.9-8.4-2.7-.8-.2-1.6.2-1.8 1-.3.9.2 1.7 1 1.9zM311.6 155.841c2.4 1.6 4.8 3.2 7 5 .3.2.6.3.9.3.4 0 .9-.2 1.2-.6.5-.6.4-1.6-.3-2.1-2.3-1.8-4.8-3.5-7.2-5.1-.7-.4-1.6-.3-2 .4-.4.7-.2 1.6.4 2.1zM296.5 147.541c2.6 1.2 5.2 2.5 7.7 3.8.2.1.5.2.7.2.5 0 1-.3 1.3-.8.4-.7.1-1.6-.6-2-2.6-1.4-5.2-2.7-7.9-3.9-.8-.3-1.6 0-2 .7-.3.8.1 1.6.8 2zM196.2 351.241c.4-.7.1-1.6-.6-2-2.5-1.4-5-2.9-7.4-4.5-.7-.4-1.6-.3-2 .4-.2-.1-.4-.3-.6-.4-.1.1-.2.2-.3.4-.3.7.1 1.7.8 2.1-.1.2-.2.5-.2.7 0 .3.4.6.7.7.5.1.9-.3 1.1-.7l2.4 1.5c0 .1-.1.2-.1.4-.1.2-.2.5-.4.6-.7.6-.8 1.3-.1 1.9-.1 0-.2.1-.3.2-.2.3-.1.9.3 1.3.5.4 1.2.4 1.5 0 .3-.4.2-.9-.2-1.3.2-.1.4-.3.6-.6 0 0 0-.1.1-.1.1.3.5.6.7.8.3.2.8-.1.9-.5.1-.4 0-.8-.4-.9h-.8c.1-.1.2-.2.4-.2.1 0 .2-.1.3-.2.5.3 1 .6 1.6.9.2.1.5.2.7.2.5.1 1-.2 1.3-.7zM147.3 200.641c.2.1.4.2.7.2.5 0 1.1-.3 1.3-.8 1.3-2.6 2.7-5.1 4.2-7.6.4-.7.2-1.6-.5-2-.7-.4-1.6-.2-2 .5-1.5 2.5-3 5.1-4.3 7.8-.5.6-.2 1.5.6 1.9zM156.1 185.541c.3.2.6.3.9.3.5 0 .9-.2 1.2-.6 1.7-2.3 3.4-4.6 5.3-6.8.5-.6.4-1.6-.2-2.1-.6-.5-1.6-.4-2.1.2-1.9 2.3-3.7 4.6-5.4 7-.6.6-.4 1.5.3 2zM181.2 160.741c.3 0 .6-.1.9-.3 2.3-1.7 4.7-3.4 7.1-5 .7-.4.9-1.4.4-2-.5-.6-1.4-.9-2-.4-2.5 1.6-4.9 3.3-7.3 5.1-.7.5-.8 1.4-.3 2.1.3.3.7.5 1.2.5zM168.1 172.341c.4 0 .8-.2 1.1-.5 2-2.1 4.1-4.1 6.2-6 .6-.5.7-1.5.1-2.1-.5-.6-1.5-.7-2.1-.1-2.2 1.9-4.4 4-6.4 6.1-.6.6-.6 1.5 0 2.1.3.4.7.5 1.1.5zM140.9 216.841c.2 0 .3.1.5.1.6 0 1.2-.4 1.4-1 .9-2.7 1.9-5.5 3-8.1.3-.8-.1-1.6-.8-1.9-.8-.3-1.6.1-1.9.8-1.1 2.7-2.1 5.5-3 8.3-.4.7 0 1.6.8 1.8zM142.4 283.941c-.8-2.7-1.6-5.5-2.2-8.3-.2-.8-1-1.3-1.8-1.1-.4.1-.7.3-.9.7-.4 0-1 .2-1.2.7-.2.4 0 .9.4 1.1.3.2.6.2.8.2.3 1.5.7 2.9 1.1 4.4-.1.1-.2.1-.2.2-.5.5-.5 1.6 0 2.2.3.3.6.5 1.1.4.1.2.1.3.2.5.2.6.8 1 1.4 1 .1 0 .3 0 .4-.1.7-.3 1.1-1.2.9-1.9zM135.9 251.341c.8 0 1.5-.7 1.5-1.5 0-2.9.1-5.8.4-8.6.1-.8-.5-1.5-1.4-1.6-.8-.1-1.5.5-1.6 1.4-.2 2.9-.4 5.9-.4 8.8 0 .8.6 1.5 1.5 1.5zM324.5 335.241c-2.2 1.9-4.4 3.7-6.7 5.4-.7.5-.8 1.4-.3 2.1.3.4.7.6 1.2.6.3 0 .6-.1.9-.3 2.3-1.8 4.7-3.6 6.9-5.6.6-.5.7-1.5.1-2.1-.5-.5-1.4-.6-2.1-.1zM137 233.941h.2c.7 0 1.3-.5 1.5-1.2.4-2.8 1-5.7 1.7-8.5.2-.8-.3-1.6-1.1-1.8-.8-.2-1.6.3-1.8 1.1-.7 2.9-1.3 5.8-1.7 8.7-.1.8.4 1.5 1.2 1.7zM279.2 359.441c-2.8.7-5.6 1.4-8.4 1.9-.8.1-1.3.9-1.2 1.7.1.7.8 1.2 1.5 1.2h.3c2.9-.5 5.8-1.2 8.6-1.9.8-.2 1.3-1 1.1-1.8-.3-.8-1.1-1.3-1.9-1.1zM295.5 353.741c-2.6 1.2-5.3 2.2-8 3.2-.8.3-1.2 1.1-.9 1.9.2.6.8 1 1.4 1 .2 0 .3 0 .5-.1 2.8-1 5.6-2.1 8.2-3.3.7-.3 1.1-1.2.8-2-.4-.7-1.2-1-2-.7zM310.7 345.641c-2.4 1.5-4.9 3-7.5 4.4-.7.4-1 1.3-.6 2 .3.5.8.8 1.3.8.2 0 .5-.1.7-.2 2.6-1.4 5.2-2.9 7.7-4.5.7-.4.9-1.4.5-2-.4-.7-1.4-.9-2.1-.5zM195.9 151.341c.2 0 .5-.1.7-.2 2.5-1.4 5.1-2.7 7.8-3.8.7-.3 1.1-1.2.8-2-.3-.7-1.2-1.1-2-.8-2.7 1.2-5.4 2.5-8 3.9-.7.4-1 1.3-.6 2 .2.6.7.9 1.3.9zM211.9 144.141c.2 0 .3 0 .5-.1 2.7-1 5.5-1.8 8.2-2.6.8-.2 1.3-1 1-1.8-.2-.8-1-1.3-1.8-1-2.8.8-5.7 1.7-8.5 2.6-.8.3-1.2 1.1-.9 1.9.3.7.8 1 1.5 1zM254.8 137.641c.8 0 1.4-.6 1.5-1.4 0-.8-.6-1.5-1.4-1.5-2.9-.1-5.9-.1-8.9 0-.8 0-1.5.7-1.4 1.5 0 .8.7 1.5 1.5 1.4 2.9-.1 5.8-.1 8.7 0zM262.3 362.641c-2.8.3-5.7.5-8.6.6-.8 0-1.5.7-1.4 1.5 0 .8.7 1.4 1.5 1.4 2.9-.1 5.9-.3 8.8-.6.8-.1 1.4-.8 1.3-1.6-.1-.8-.8-1.4-1.6-1.3z"/>
  <path fill="#FFC200" d="M482.6 91.141h-5.4v-3.9h5.4v-5.3h3.9v5.3h5.4v3.9h-5.4v5.2h-3.9v-5.2z"/>
  <path fill="#FF957D" d="M28.9 245.141h-5.4v-3.9h5.4v-5.3h3.9v5.3h5.4v3.9h-5.4v5.2h-3.9v-5.2z"/>
  <path fill="#FFC200" d="M166.3 125.141c6.959 0 12.6-5.686 12.6-12.7 0-7.014-5.641-12.7-12.6-12.7s-12.6 5.686-12.6 12.7c0 7.014 5.641 12.7 12.6 12.7z"/>
  <path fill="#00C2B3" d="M134.6 100.941h-23.4v23.5h23.4v-23.5z"/>
  <path fill="white" d="M120.9 119.841l-6.6-6.7 3.3-3.2 3.3 3.3 7.6-7.6 3.3 3.3-10.9 10.9z"/>
  <path fill="#294492" d="M323.6 409.841v-4.4c3.8 0 6-14 7.4-23.2 2.3-14.5 4.2-27.1 11.8-27.1 5.6 0 7.6 5.9 9.3 11.1 1.5 4.6 2.8 7.9 4.9 7.9 3.9 0 6.1-15.1 7.5-25 2.2-15.5 4.3-30.1 12.7-30.1 8.1 0 9.7 10.3 11.2 20.3 1.7 11.1 3.3 19 9 19v4.4c-9.8 0-11.7-12-13.3-22.7-1.2-8.2-2.5-16.6-6.9-16.6-4.5 0-6.7 15.3-8.3 26.4-2.2 15.4-4.1 28.8-11.9 28.8-5.4 0-7.3-5.8-9-10.9-1.6-4.7-2.9-8.1-5.1-8.1-3.9 0-6.1 14.1-7.5 23.4-2.3 14.3-4.2 26.8-11.8 26.8z"/>
  <path fill="#0077CC" d="M461 394.741h-79.1c-2.1 0-3.8-1.7-3.8-3.8v-19c0-2.1 1.7-3.8 3.8-3.8H461c2.1 0 3.8 1.7 3.8 3.8v19c0 2.1-1.7 3.8-3.8 3.8z"/>
  <path fill="#0066B1" d="M400 380.841c-.2.3.2.5.3.5.1.1.4-.1.4-.1 0-.2 0-.4-.1-.5-.1-.1-.4-.2-.6.1zM403.4 388.841c-.2-.1-.9-.1-1 .2-.1.2.3.7.5.9.3.2.6.1.8-.3.2-.4 0-.7-.3-.8zM398 375.641l-.3.3c-.2.3.2 1.1.5 1.1s.5-.2.7-.4c.1-.1.1-.3.1-.4-.4-.2-.8-.4-1-.6zM396.9 378.341c-.3-.1-.7.2-.8.6-.1.3 0 .6.3.7.3.1.7.1.9-.3 0-.3-.1-.9-.4-1zM396.4 368.141h-.6v.2c.2.1.4.3.6.3v-.5zM419 386.241c-.5-.2-1.3.2-1.5.8-.2.6.1 1.2.8 1.5.7.3 1.3 0 1.5-.7.2-.7-.1-1.4-.8-1.6zM396.5 373.541c-.1-.3-.1-.6-.1-.9v-.2c-.3 0-.6.1-.6.4 0 .3-.1.6.1.7.2.1.4.1.6 0zM412.6 376.441h-1.9c0 .3.1.6.4.7.6.3 1.2.1 1.4-.4.1-.2.1-.2.1-.3zM416.6 382.841c-.5-.3-1.3 0-1.6.5-.2.4 0 1 .4 1.2.5.2 1.2 0 1.4-.5.3-.6.2-1-.2-1.2zM412.5 384.841c0 .1.1.2.1.3.1 0 .2 0 .3-.1 0-.1 0-.3-.1-.3-.1-.1-.2 0-.3.1zM394.6 386.741c-.2-.1-.6 0-.7.1-.1.2.1.6.2.7.1.1.8.1.9-.1 0-.2-.3-.6-.4-.7zM408.4 381.741c.2-.5-.3-1.2-1-1.5-.6-.2-1.1.1-1.3.8-.2.4.1 1.1.5 1.2.5.3 1.7-.1 1.8-.5zM417.9 378.641c-.1-.1-.2-.3-.3-.4h-1.2c-.7-.7-1.4-1-1.8-.6-.4.4-.5 1.5-.1 1.9.4.5.8.5 1.9-.4.4.4.7.8 1.3.4.2-.2.4-.5.2-.9zM411 381.841c-.4-.2-1 .1-1.1.5-.1.4 0 .8.4.9.5.2 1 .1 1.1-.4.2-.3 0-.8-.4-1zM409.7 385.641c.1-.3.1-.7-.3-.8-.3 0-1 0-1.1.2-.1.2.5.8.7.9.3.2.6.1.7-.3zM409.6 389.841c-.1.1 0 .4.2.5.2.1.4-.1.5-.2.1-.1.1-.6-.1-.6-.2-.1-.5.1-.6.3zM403.5 377.041c-.7-.3-1.5-.1-1.8.7-.3.7.1 1.8.8 2.1.6.3 1.6-.1 2-.8.3-.8-.1-1.6-1-2zM406.2 377.041c.1.9.7 1.1 1.6 1.3.5-.6 1.1-1.1.7-1.8l-.1-.1h-2c-.1.1-.2.3-.2.6zM422.9 381.841c-.1.1 0 .4.1.5 0 .1.4.2.6.1.2-.2-.1-.5-.2-.6-.2-.1-.4-.2-.5 0zM419.9 376.441c-.1.2-.1.4-.2.6-.2.8.4 1.5 1.2 1.4.6-.1 1.1-.4 1.9-.6.6.5 1.3.9 2.1.6.3-.2.6-.5.8-.8.1-.1.1-.2.1-.3 0-.2.1-.3.1-.5l-.2-.2h-5.8v-.2zM408.2 379.241c-.1.2.3.7.5.7.3 0 .7-.2.8-.4 0-.2-.2-.6-.4-.6-.2-.1-.8 0-.9.3zM434.9 382.341c-.1.6.1 1.3.5 1.5.3.1.7 0 1-.3.3.2.7.2 1-.1.3-.3.3-.7.1-1-.9.1-1.8.1-2.6-.1zM453.8 376.841c-.6.7-.7 1.4 0 2 .6.6 1.5.5 2.1-.2.4-.5.4-1.4-.2-1.9-.1-.1-.2-.2-.4-.3h-1c-.1.1-.3.2-.5.4zM454.2 381.141c-.5-.1-1.2 0-1.5.3-.4.4-.3 1.2.1 1.6.4.4 1.3.4 1.7 0 .4.1 1 0 1.3-.3.3-.3.3-1 0-1.2-.5-.5-1.2-.6-1.6-.4zM441.3 382.141c-.1.2-.1.5.1.6.2.1.4-.1.5-.2.1-.1.1-.6-.1-.6-.2-.2-.4.1-.5.2zM388.7 378.241c-.1.1.2.5.3.5.1.1.4-.1.4-.1 0-.2 0-.4-.1-.5-.1-.1-.5 0-.6.1zM393.5 368.941c-.6-.2-1.2 0-1.4.5-.2.5.1 1.4.5 1.6.4.2 1.1-.4 1.4-.9.2-.4-.1-1-.5-1.2zM392.5 376.141c.1-.1.1-.6-.1-.6-.2-.1-.5.2-.5.3-.1.2-.1.5.1.6.2-.1.4-.2.5-.3zM390.4 374.041c-.4-.2-.9.1-1 .5-.2.4.1.8.5 1 .5.2.9.1 1-.2.2-.4-.1-1.1-.5-1.3zM393.1 381.941c-.4-.2-.8 0-1.1.4-.2.4-.1.8.3.9.4.2.9 0 1.1-.4.2-.2 0-.8-.3-.9zM388.8 376.041c-.1 0-.3.1-.3.2s.1.2.1.3c.1 0 .2 0 .3-.1 0-.2 0-.3-.1-.4zM429.9 380.141c-.2-.1-.3-.2-.5-.3v.1c.1.1.3.2.5.2zM384.9 372.941c-.2-.1-.5.2-.6.3-.1.1.1.4.2.5.1.1.4 0 .5-.1 0-.2.1-.7-.1-.7zM428.1 380.041c.4.1.8-.1.9-.5-.4-.3-.7-.6-1.1-.9l-.3.3c-.2.4.1 1 .5 1.1zM441.3 384.941c-.3-.1-.5.1-.6.3-.1.3.2.5.3.5.2 0 .4.1.6-.2.1-.2 0-.5-.3-.6zM452.5 389.841c-.3.3-.2 1 .2 1.3.6.5 1.2.4 1.6 0 .4-.4.4-1.2.1-1.4-.4-.5-1.4-.4-1.9.1zM455 386.041c-.4.3-.4.7 0 1 .4.4.8.4 1.1.1.3-.3.3-.8.1-1-.3-.4-.8-.4-1.2-.1zM457.2 387.241c-.1.2-.1.5.1.6.2.1.4.1.5 0 .2-.2.2-.4 0-.6-.2-.2-.5-.2-.6 0zM457.5 382.441c-.3.4-.2.8.2 1.1.3.2.7.4.9.1.4-.5.5-1 .1-1.3-.3-.4-.9-.3-1.2.1zM452.5 376.441h-4.7c.1.3.2.6.7.6.1 0 .3 0 .4-.1-.1 1 .6 1.6 1.4 1.8.8.2 2.3-.8 2.5-1.5 0-.3-.1-.6-.3-.8zM449.5 387.441c-.4.4-.4.9-.1 1.2.3.3 1.5.4 1.8.1.4-.5.4-1.1-.2-1.6-.5-.4-1.1-.3-1.5.3zM448.2 387.941c-.2-.1-.6 0-.7.1-.1.1-.4.7-.2.9.2.2.7 0 .9-.1.3-.2.3-.8 0-.9zM450.8 383.241c.4-.4.4-1.1.1-1.4-.3-.3-.9-.4-1.2-.1-.3.3-.3 1.2.1 1.6.2.2.7.2 1-.1zM450.4 384.941c-.3.3-.2.7.1 1 .3.3.9.2 1.1-.1.3-.3.2-.9-.1-1.1-.3-.3-.8-.2-1.1.2zM461.8 379.541c-.3.3-.1 1.2.3 1.6.3.3.8.2 1.1-.2.6-.7.6-1.2.1-1.6-.3-.3-1.2-.2-1.5.2zM457.3 378.641c-.3.3-.1 1.1.3 1.4.3.3.7.2 1-.2.5-.6.6-1 .3-1.3-.4-.3-1.3-.2-1.6.1zM464.8 381.641v-1.4c-.1.2-.1.4-.2.7-.1.3 0 .5.2.7zM460.9 388.941c-.4.5-.4 1.2 0 1.4.4.4 1.4.4 1.7 0 .3-.3 0-1.2-.4-1.6-.4-.3-1-.2-1.3.2zM461.6 385.241c-.1-.2-.5-.4-.6-.3-.3.1-.6.4-.7.6-.2.6.4.7.8 1 .5-.4.8-.8.5-1.3zM461.3 378.141c.4.4 1.1.5 1.4.3.3-.2.6-1.2.3-1.7-.1-.1-.1-.2-.2-.3h-3.3c-.1.4.1.9.5.9.8 0 1.1.3 1.3.8zM461.8 383.241c0-.9-.1-1.3-.6-1.4-.4-.1-.7 0-.9.4-.2.4-.2.9.1 1.1.5.4 1 .1 1.4-.1zM424.3 390.841c-.2.2.1.5.2.5.2 0 .4 0 .5-.1.1 0 0-.4-.1-.4-.1-.1-.4-.2-.6 0zM431.1 380.941c-.5 0-1 .5-1 .7-.1.2.4 1 1.1 1 .4 0 .7-.3.8-.8 0-.2 0-.5-.1-.6-.3 0-.5-.2-.8-.3zM427.6 382.341c-.3-.2-.7-.3-1.2-.2 0-.1.1-.1.1-.2.2-.4-.2-1.1-.7-1.3-.7-.3-1.2-.2-1.4.4-.2.6 0 1.4.5 1.6.1.1.3.1.5.1-.1.1-.2.2-.2.3-.3.6.4 1.1.9 1 .5-.1.3 0 .6.4s.9.7 1.4 0c.5-.7 0-1.6-.5-2.1zM429.7 385.641c-.1-.1-.4-.1-.5 0-.1 0-.2.2-.2.4-.3 0-.6.2-.7.4-.2.3 0 1 .3 1.1.3.2.8 0 1-.4.1-.3.1-.7-.2-1 .1 0 .1-.1.2-.1s.2-.3.1-.4zM432.3 384.841c-.1.3-.4 1-.2 1.2.2.2.9-.2.9-.3.1-.3.2-.8 0-1.1-.3-.3-.7 0-.7.2zM422.6 383.741c-.1.1.2.5.4.6.2.2.6.1.6-.3 0-.3.1-.9-.2-1-.3-.1-.7.5-.8.7zM425 385.841c-.3 0-1-.1-1.1.2-.1.3.4.8.6 1 .2.2.7-.1.8-.4.1-.3 0-.7-.3-.8zM434 382.141c-.1 0-.2 0-.3-.1-.3-.1-.7-.2-1-.4-.2.3.1.7.2.9.2.3.5.4.8.1.2-.1.3-.3.3-.5zM420.5 379.741c-.7-.3-2 .1-2.2.7-.3.7.1 1.6.7 1.9.7.3 1.6 0 1.9-.6.4-.8.2-1.8-.4-2zM436.2 387.641c-.4.5-.5 1.2-.1 1.5.5.4 1.5.3 2-.2.3-.3.2-1.1-.3-1.5-.6-.4-1.1-.3-1.6.2zM436.2 385.741c.1-.6-.4-.6-.6-.9-.4-.6-1.4-.8-1.8-.3-.4.4-.4.9-.2 1.4.2.5.7.6 1.2.5.4-.2 1.2-.1 1.4-.7z"/>
  <path fill="#0066B1" d="M442.9 382.941c-.2-.3-1.1-.4-1.3 0-.1.3.1.8.4.9.4.2 1-.6.9-.9zM447.6 381.441c.4-.2.5-.5.5-.8-.1-.7-.6-.6-1.1-.6-.1-.3-.1-.6-.2-.8.4-.1.7-.2 1.1-.3.1-.3.2-.6.2-.8 0-.4-.5-1.2-.8-1.3-.9 1.7-2.1 3.1-3.7 4.1h.5c0 .3.1.5.4.6.3.1.7.1.8-.2v-.1c.5.2.9 0 1.4-.3.1.2.3.7.9.5zM444.4 386.041c-.5-.8-1.4-.8-1.8 0-.3.5-.4 1-.6 1.6-.1.6.4 1.4 1 1.6.3.1 1.2.1 1.2-.6-.5-1.2.4-1.2.3-2.1 0-.2-.1-.4-.1-.5zM435.6 389.041c-.3-.2-.8-.1-1 .3-.2.3 0 .8.3 1 .4.2.9.1 1-.3.2-.3.1-.7-.3-1zM447.5 383.841c-.5-.4-1.1-.4-1.6.2-.4.5-.5 1.3-.1 1.6.4.3 1.4.2 1.7-.2.6-.6.6-1.2 0-1.6zM439.7 390.641c-.1.1 0 .3 0 .3.1.1.2 0 .3-.1 0-.1.1-.2 0-.3-.1-.1-.2 0-.3.1z"/>
  <path fill="#1BA9F5" d="M479.3 376.441h-79.1c-2.1 0-3.8-1.7-3.8-3.8v-19c0-2.1 1.7-3.8 3.8-3.8h79.1c2.1 0 3.8 1.7 3.8 3.8v19c0 2.1-1.7 3.8-3.8 3.8z"/>
  <path fill="#FF957D" d="M319.5 416.441a6.3 6.3 0 100-12.6 6.3 6.3 0 000 12.6z"/>
  <path fill="#FFC200" d="M69.1 346.141c6.959 0 12.6-5.686 12.6-12.7 0-7.014-5.641-12.7-12.6-12.7s-12.6 5.686-12.6 12.7c0 7.014 5.641 12.7 12.6 12.7z"/>
  <path fill="#294492" d="M452.6 352.141c-1.1-.3-2.4.4-2.7 1.6l-3 10.3-1.9-.6 4-13.6c.4-1.2-.3-2.5-1.4-2.8-1.1-.3-2.4.4-2.7 1.6l-4 13.6-1.9-.6 4.7-16.2c.4-1.2-.3-2.5-1.4-2.8-1.1-.3-2.4.4-2.7 1.6l-4.7 16.2-1.9-.6 4-13.6c.4-1.2-.3-2.5-1.4-2.8-1.1-.3-2.4.4-2.7 1.6l-4.3 14.7-1.3 4.3-.2.5-1.6-5.2c-.3-1.2-1.5-1.9-2.7-1.5-1.2.4-1.8 1.6-1.5 2.8 0 0 1.9 8.6 2.7 12.4.9 3.4 5.8 7.7 9.7 8.9 6.3 1.9 12.5-1.3 14.2-7.1l3.1-9.7 3-10.3c.4-1.1-.3-2.4-1.4-2.7z"/>
  <path fill="#F9B110" d="M61.7 343.641c2.1 1.5 4.6 2.4 7.4 2.4 7 0 12.6-5.7 12.6-12.7 0-2.9-1-5.6-2.7-7.8-7.3 4.4-13.4 10.6-17.3 18.1z"/>
  <defs>
    <filter id="filter0_d" width="210" height="210" x="145" y="148" color-interpolation-filters="sRGB" filterUnits="userSpaceOnUse">
      <feFlood flood-opacity="0" result="BackgroundImageFix"/>
      <feColorMatrix in="SourceAlpha" type="matrix" values="0 0 0 0 0 0 0 0 0 0 0 0 0 0 0 0 0 0 127 0"/>
      <feOffset dy="3"/>
      <feGaussianBlur stdDeviation="10"/>
      <feColorMatrix type="matrix" values="0 0 0 0 0 0 0 0 0 0 0 0 0 0 0 0 0 0 0.2 0"/>
      <feBlend in2="BackgroundImageFix" mode="normal" result="effect1_dropShadow"/>
      <feBlend in="SourceGraphic" in2="effect1_dropShadow" mode="normal" result="shape"/>
    </filter>
  </defs>
</svg>
