<svg width="300" height="150" viewBox="0 0 300 150" fill="none" xmlns="http://www.w3.org/2000/svg">
<path opacity="0.18" d="M300 0H0V150H300V0Z" fill="#5A77AD"/>
<rect x="85" y="21" width="130.141" height="15.9529" rx="2" fill="#7D869C" fill-opacity="0.5"/>
<rect x="227.141" y="21" width="47.8588" height="15.9529" rx="3" fill="#0077CC"/>
<rect x="239.106" y="27.6471" width="23.9294" height="2.65882" rx="1" fill="white"/>
<rect x="85" y="44.9529" width="190" height="85.0471" rx="2" fill="white"/>
<rect x="85.5" y="45.4529" width="189" height="84.0471" rx="1.5" stroke="#7D869C" stroke-opacity="0.5"/>
<g opacity="0.6">
<rect x="153.256" y="68.2475" width="54.6057" height="5.52969" rx="2" fill="#D3DAE6"/>
<rect x="143.925" y="79.3069" width="73.2684" height="5.52969" rx="2" fill="#D3DAE6"/>
<rect x="147.957" y="90.3662" width="65.2043" height="5.52969" rx="2" fill="#D3DAE6"/>
<rect x="165.237" y="101.426" width="30.6437" height="5.52969" rx="2" fill="#D3DAE6"/>
</g>
<g opacity="0.415">
<rect x="25" y="22" width="40" height="6" rx="2" fill="#7D869C" fill-opacity="0.5"/>
<rect x="25" y="36" width="40" height="6" rx="2" fill="#7D869C" fill-opacity="0.5"/>
<rect x="25" y="50" width="40" height="6" rx="2" fill="#7D869C" fill-opacity="0.5"/>
<rect x="25" y="64" width="40" height="6" rx="2" fill="#7D869C" fill-opacity="0.5"/>
<rect x="25" y="78" width="40" height="6" rx="2" fill="#7D869C" fill-opacity="0.5"/>
<rect x="25" y="92" width="40" height="6" rx="2" fill="#7D869C" fill-opacity="0.5"/>
<rect x="25" y="106" width="40" height="6" rx="2" fill="#7D869C" fill-opacity="0.5"/>
<rect x="25" y="120" width="40" height="6" rx="2" fill="#7D869C" fill-opacity="0.5"/>
</g>
</svg>
