<svg width="300" height="150" viewBox="0 0 300 150" fill="none" xmlns="http://www.w3.org/2000/svg">
<path opacity="0.18" d="M300 0H0V150H300V0Z" fill="#5A77AD"/>
<path fill-rule="evenodd" clip-rule="evenodd" d="M25 21C25 19.3431 26.3431 18 28 18H223.86C225.517 18 226.86 19.3431 226.86 21V37C226.86 38.6569 225.517 40 223.86 40H28C26.3431 40 25 38.6569 25 37V21Z" fill="#5B6272"/>
<path opacity="0.473" fill-rule="evenodd" clip-rule="evenodd" d="M25 53C25 51.3431 26.3431 50 28 50H270C271.657 50 273 51.3431 273 53V59C273 60.6569 271.657 62 270 62H28C26.3431 62 25 60.6569 25 59V53Z" fill="#7D869C" fill-opacity="0.6"/>
<path opacity="0.473" fill-rule="evenodd" clip-rule="evenodd" d="M25 74C25 72.3431 26.3431 71 28 71H161.572C163.229 71 164.572 72.3431 164.572 74V80C164.572 81.6569 163.229 83 161.572 83H28C26.3431 83 25 81.6569 25 80V74Z" fill="#7D869C" fill-opacity="0.6"/>
<path opacity="0.473" fill-rule="evenodd" clip-rule="evenodd" d="M51.5302 105C51.5302 103.343 52.8734 102 54.5302 102H236.549C238.206 102 239.549 103.343 239.549 105V111C239.549 112.657 238.206 114 236.549 114H54.5302C52.8734 114 51.5302 112.657 51.5302 111V105Z" fill="#7D869C" fill-opacity="0.6"/>
<path opacity="0.473" d="M34 102H28C26.3431 102 25 103.343 25 105V111C25 112.657 26.3431 114 28 114H34C35.6569 114 37 112.657 37 111V105C37 103.343 35.6569 102 34 102Z" fill="#7D869C" fill-opacity="0.6"/>
<path opacity="0.473" fill-rule="evenodd" clip-rule="evenodd" d="M51.5302 126C51.5302 124.343 52.8734 123 54.5302 123H218.093C219.75 123 221.093 124.343 221.093 126V132C221.093 133.657 219.75 135 218.093 135H54.5302C52.8734 135 51.5302 133.657 51.5302 132V126Z" fill="#7D869C" fill-opacity="0.6"/>
<path opacity="0.473" d="M34 123H28C26.3431 123 25 124.343 25 126V132C25 133.657 26.3431 135 28 135H34C35.6569 135 37 133.657 37 132V126C37 124.343 35.6569 123 34 123Z" fill="#7D869C" fill-opacity="0.6"/>
</svg>
