<svg xmlns="http://www.w3.org/2000/svg" width="16" height="16" viewBox="0 0 16 16" >
  <path fill-rule="evenodd" d="M10.3074 4.5076C10.3952 4.35946 10.4458 4.18685 10.4458 3.99937C10.4458 3.44709 9.9981 2.99937 9.44582 2.99937C8.89353 2.99937 8.44582 3.44709 8.44582 3.99937C8.44582 4.18686 8.49647 4.35946 8.58422 4.5076C8.83548 4.93173 8.79733 5.40366 8.64423 5.74199C8.48863 6.08587 8.10551 6.50061 7.49408 6.50061H5.9998V7.50979C5.9998 7.9992 5.7239 8.37131 5.4088 8.5691C5.10202 8.76165 4.70058 8.83169 4.31231 8.70438C4.21538 8.67259 4.11085 8.65499 4.00021 8.65499C3.44793 8.65499 3.00021 9.10271 3.00021 9.65499C3.00021 10.2073 3.44793 10.655 4.00021 10.655C4.11085 10.655 4.21538 10.6374 4.31231 10.6056C4.70058 10.4783 5.10202 10.5483 5.4088 10.7409C5.7239 10.9387 5.9998 11.3108 5.9998 11.8002V13.0006H12.9998V11.6273C12.7927 11.6965 12.5711 11.7341 12.341 11.7341C11.1927 11.7341 10.2618 10.8033 10.2618 9.65499C10.2618 8.50672 11.1927 7.57586 12.341 7.57586C12.5711 7.57586 12.7927 7.61345 12.9998 7.68264V6.50061H11.3976C10.7861 6.50061 10.403 6.08587 10.2474 5.74199C10.0943 5.40366 10.0561 4.93173 10.3074 4.5076ZM13.0038 8.80335L12.9998 8.80025C12.8175 8.65956 12.589 8.57586 12.341 8.57586C11.745 8.57586 11.2618 9.05901 11.2618 9.65499C11.2618 10.251 11.745 10.7341 12.341 10.7341C12.589 10.7341 12.8175 10.6504 12.9998 10.5097L13.0038 10.5066C13.0373 10.4805 13.0693 10.4525 13.0994 10.4226C13.1137 10.4085 13.1277 10.3939 13.1412 10.379C13.2613 10.2464 13.5059 10.2053 13.6816 10.2396C13.7187 10.2468 13.757 10.2506 13.7963 10.2506C13.8972 10.2506 13.9998 10.3217 13.9998 10.4226V13.0486C13.9998 13.5744 13.5736 14.0006 13.0478 14.0006H5.95185C5.42605 14.0006 4.9998 13.5744 4.9998 13.0486V11.8002C4.9998 11.6169 4.79807 11.4987 4.6239 11.5558C4.42764 11.6202 4.21799 11.655 4.00021 11.655C2.89564 11.655 2.00021 10.7596 2.00021 9.65499C2.00021 8.55043 2.89564 7.65499 4.00021 7.65499C4.21799 7.65499 4.42764 7.6898 4.6239 7.75416C4.79807 7.81127 4.9998 7.69307 4.9998 7.50979V6.45266C4.9998 5.92686 5.42605 5.50061 5.95185 5.50061H7.49408C7.71345 5.50061 7.83568 5.20603 7.72386 5.01728C7.54722 4.7191 7.44582 4.37108 7.44582 3.99937C7.44582 2.8948 8.34125 1.99937 9.44582 1.99937C10.5504 1.99937 11.4458 2.8948 11.4458 3.99937C11.4458 4.37108 11.3444 4.7191 11.1678 5.01728C11.056 5.20603 11.1782 5.50061 11.3976 5.50061H13.0478C13.5736 5.50061 13.9998 5.92686 13.9998 6.45266V8.88736C13.9998 8.98832 13.8972 9.05937 13.7963 9.05937C13.757 9.05937 13.7187 9.06317 13.6816 9.07041C13.5059 9.10467 13.2613 9.06363 13.1412 8.93097C13.1277 8.91605 13.1137 8.9015 13.0994 8.88736C13.0692 8.85753 13.0373 8.82948 13.0038 8.80335Z"/>
</svg>
