<svg xmlns="http://www.w3.org/2000/svg" width="16" height="16" viewBox="0 0 16 16" >
  <path d="M7.25 4.25V5.54085C7.25 6.6171 6.24202 7.17067 5.44049 7.01728C5.37977 7.00566 5.3162 6.99939 5.25 6.99939C4.69772 6.99939 4.25 7.4471 4.25 7.99939C4.25 8.55167 4.69772 8.99939 5.25 8.99939C5.3162 8.99939 5.37977 8.99312 5.44049 8.9815C6.24202 8.82811 7.25 9.38168 7.25 10.4579V11.7488H11.75V10.248C11.7241 10.2489 11.698 10.2494 11.6719 10.2494C10.4292 10.2494 9.42188 9.24203 9.42188 7.99939C9.42188 6.75675 10.4292 5.74939 11.6719 5.74939C11.698 5.74939 11.7241 5.74984 11.75 5.75073V4.25H7.25ZM6 4C6 3.44772 6.44772 3 7 3H12C12.5523 3 13 3.44772 13 4V6.9951C13 7.03399 12.9854 7.07056 12.9599 7.09996C12.8514 7.22535 12.3661 7.26084 12.2284 7.16843C12.0693 7.06167 11.8779 6.99939 11.6719 6.99939C11.1196 6.99939 10.6719 7.4471 10.6719 7.99939C10.6719 8.55167 11.1196 8.99939 11.6719 8.99939C11.8779 8.99939 12.0693 8.93711 12.2284 8.83035C12.3661 8.73794 12.8514 8.77343 12.9599 8.89882C12.9854 8.92822 13 8.96479 13 9.00368V11.9988C13 12.5511 12.5523 12.9988 12 12.9988H7C6.44772 12.9988 6 12.5511 6 11.9988V10.4579C6 10.2937 5.83677 10.1783 5.67544 10.2092C5.53767 10.2356 5.39545 10.2494 5.25 10.2494C4.00736 10.2494 3 9.24203 3 7.99939C3 6.75675 4.00736 5.74939 5.25 5.74939C5.39545 5.74939 5.53767 5.76319 5.67544 5.78955C5.83677 5.82043 6 5.70512 6 5.54085V4Z"/>
</svg>
