<svg width="16" height="16" viewBox="0 0 16 16" xmlns="http://www.w3.org/2000/svg">
  <g>
    <path d="M5.75 7.375C5.61193 7.375 5.5 7.48693 5.5 7.625V8.375C5.5 8.51307 5.61193 8.625 5.75 8.625H9.25C9.38807 8.625 9.5 8.51307 9.5 8.375V7.625C9.5 7.48693 9.38807 7.375 9.25 7.375H5.75Z"/>
    <path fill-rule="evenodd" clip-rule="evenodd" d="M3 5C3 4.44772 3.44772 4 4 4H9.98882C10.3191 4 10.6281 4.1631 10.8145 4.43581L12.8645 7.43581C13.0969 7.77601 13.0969 8.22398 12.8645 8.56419L10.8145 11.5642C10.6281 11.8369 10.3191 12 9.98883 12H4C3.44772 12 3 11.5523 3 11V5ZM4.25 5.75C4.25 5.47386 4.47386 5.25 4.75 5.25H9.49539C9.65536 5.25 9.80567 5.32654 9.89976 5.45591L11.5361 7.70591C11.6636 7.88124 11.6636 8.11876 11.5361 8.29409L9.89976 10.5441C9.80567 10.6735 9.65536 10.75 9.49539 10.75H4.75C4.47386 10.75 4.25 10.5261 4.25 10.25V5.75Z"/>
</g>
</svg>