<svg xmlns="http://www.w3.org/2000/svg" width="16" height="16" viewBox="0 0 16 16">
  <path fill-rule="evenodd" d="M8.53333333,9.06666667 C6.74133333,9.06666667 6.15466667,9.78666667 5.96266667,10.2613333 C6.53333333,10.5066667 6.93333333,11.072 6.93333333,11.7333333 C6.93333333,12.6186667 6.21866667,13.3333333 5.33333333,13.3333333 C4.448,13.3333333 3.73333333,12.6186667 3.73333333,11.7333333 C3.73333333,11.0346667 4.176,10.4426667 4.8,10.224 L4.8,5.776 C4.176,5.55733333 3.73333333,4.96533333 3.73333333,4.26666667 C3.73333333,3.38133333 4.448,2.66666667 5.33333333,2.66666667 C6.21866667,2.66666667 6.93333333,3.38133333 6.93333333,4.26666667 C6.93333333,4.96533333 6.49066667,5.55733333 5.86666667,5.776 L5.86666667,8.59733333 C6.336,8.25066667 7.01866667,8 8,8 C9.424,8 9.89866667,7.28533333 10.0533333,6.81066667 C9.47733333,6.57066667 9.06666667,6 9.06666667,5.33333333 C9.06666667,4.448 9.78133333,3.73333333 10.6666667,3.73333333 C11.552,3.73333333 12.2666667,4.448 12.2666667,5.33333333 C12.2666667,6.048 11.7973333,6.66666667 11.152,6.85866667 C11.0133333,7.62133333 10.496,9.06666667 8.53333333,9.06666667 Z M5.33333333,11.2 C5.04,11.2 4.8,11.44 4.8,11.7333333 C4.8,12.0266667 5.04,12.2666667 5.33333333,12.2666667 C5.62666667,12.2666667 5.86666667,12.0266667 5.86666667,11.7333333 C5.86666667,11.44 5.62666667,11.2 5.33333333,11.2 Z M5.33333333,3.73333333 C5.04,3.73333333 4.8,3.97333333 4.8,4.26666667 C4.8,4.56 5.04,4.8 5.33333333,4.8 C5.62666667,4.8 5.86666667,4.56 5.86666667,4.26666667 C5.86666667,3.97333333 5.62666667,3.73333333 5.33333333,3.73333333 Z M10.6666667,4.8 C10.3733333,4.8 10.1333333,5.04 10.1333333,5.33333333 C10.1333333,5.62666667 10.3733333,5.86666667 10.6666667,5.86666667 C10.96,5.86666667 11.2,5.62666667 11.2,5.33333333 C11.2,5.04 10.96,4.8 10.6666667,4.8 Z"/>
</svg>
