<svg xmlns="http://www.w3.org/2000/svg" xmlns:xlink="http://www.w3.org/1999/xlink" width="16" height="16" viewBox="0 0 16 16">
  <path d="M7.80061849,9.81152344 L6.95751953,9.81152344 L6.17708333,12.1471354 L5.0320638,12.1471354 L5.8125,9.81152344 L4.59912109,9.81152344 L4.78141276,8.76904297 L6.15429688,8.76904297 L6.66129557,7.26513672 L5.45361328,7.26513672 L5.64160156,6.22265625 L7.00878906,6.22265625 L7.80061849,3.85286458 L8.93994141,3.85286458 L8.14811198,6.22265625 L8.99690755,6.22265625 L9.78873698,3.85286458 L10.9337565,3.85286458 L10.1419271,6.22265625 L11.4008789,6.22265625 L11.2185872,7.26513672 L9.80013021,7.26513672 L9.29313151,8.76904297 L10.5406901,8.76904297 L10.3583984,9.81152344 L8.94563802,9.81152344 L8.17089844,12.1471354 L7.02587891,12.1471354 L7.80061849,9.81152344 Z M7.29931641,8.76904297 L8.14241536,8.76904297 L8.65511068,7.26513672 L7.8063151,7.26513672 L7.29931641,8.76904297 Z"/>
</svg>
