<svg xmlns="http://www.w3.org/2000/svg" xmlns:xlink="http://www.w3.org/1999/xlink" width="16" height="16" viewBox="0 0 16 16">
  <path d="M9.86666667,2.66666667 L4,2.66666667 C3.632,2.66666667 3.33333333,2.96533333 3.33333333,3.33333333 L3.33333333,12.6666667 C3.33333333,13.0346667 3.632,13.3333333 4,13.3333333 L12,13.3333333 C12.368,13.3333333 12.6666667,13.0346667 12.6666667,12.6666667 L12.6666667,5.61933333 C12.6666667,5.44866667 12.6013333,5.284 12.484,5.16 L10.3506667,2.87466667 C10.2246667,2.742 10.0493333,2.66666667 9.86666667,2.66666667 M11.3333333,6.66666667 L11.3333333,12 L4.66666667,12 L4.66666667,4 L8.66666667,4 L8.66666667,6.33333333 C8.66666667,6.51733333 8.816,6.66666667 9,6.66666667 L11.3333333,6.66666667 Z"/>
</svg>
