<svg xmlns="http://www.w3.org/2000/svg" width="16" height="16" viewBox="0 0 16 16">
  <path fill-rule="evenodd" d="M2.66666667,8.00151515 C2.66666667,6.5015163 3.06060576,5.25909301 3.91515056,4.18030596 L5.35151309,4.18030596 C4.69999844,4.98030534 4.21212003,6.56818292 4.21212003,8.00151515 C4.21212003,9.43181708 4.69999844,11.0196947 5.35151309,11.819694 L3.91515056,11.819694 C3.06060576,10.740907 2.66666667,9.4984837 2.66666667,8.00151515 Z M6.76969728,9.99848332 L5.95151609,9.19545363 L7.18181818,7.99848485 L5.95151609,6.79545547 L6.78181849,6.00151668 L8.00302967,7.19545516 L9.23030146,6.00151668 L10.0484826,6.79545547 L8.82121086,7.99545455 L10.0484826,9.19545363 L9.23030146,9.99848332 L7.99999937,8.79545394 L6.76969728,9.99848332 Z M13.3333333,7.99848485 C13.3333333,9.4984837 12.9393942,10.740907 12.0848494,11.819694 L10.6484869,11.819694 C11.3000016,11.0196947 11.78788,9.43181708 11.78788,7.99848485 C11.78788,6.56818292 11.3000016,4.98030534 10.6484869,4.18030596 L12.0848494,4.18030596 C12.9393942,5.25909301 13.3333333,6.5015163 13.3333333,7.99848485 Z"/>
</svg>
