<svg xmlns="http://www.w3.org/2000/svg" width="16" height="16" viewBox="0 0 16 16">
  <g>
    <path fill-rule="evenodd" clip-rule="evenodd" d="M5.75 7.25C6.57843 7.25 7.25 6.57843 7.25 5.75C7.25 4.92157 6.57843 4.25 5.75 4.25C4.92157 4.25 4.25 4.92157 4.25 5.75C4.25 6.57843 4.92157 7.25 5.75 7.25ZM5.75 8.5C7.26878 8.5 8.5 7.26878 8.5 5.75C8.5 4.23122 7.26878 3 5.75 3C4.23122 3 3 4.23122 3 5.75C3 7.26878 4.23122 8.5 5.75 8.5Z" />
    <path fill-rule="evenodd" clip-rule="evenodd" d="M10.75 9.25C11.3023 9.25 11.75 8.80228 11.75 8.25C11.75 7.69772 11.3023 7.25 10.75 7.25C10.1977 7.25 9.75 7.69772 9.75 8.25C9.75 8.80228 10.1977 9.25 10.75 9.25ZM10.75 10.5C11.9926 10.5 13 9.49264 13 8.25C13 7.00736 11.9926 6 10.75 6C9.50736 6 8.5 7.00736 8.5 8.25C8.5 9.49264 9.50736 10.5 10.75 10.5Z" />
    <path fill-rule="evenodd" clip-rule="evenodd" d="M8 11.75C8.13807 11.75 8.25 11.6381 8.25 11.5C8.25 11.3619 8.13807 11.25 8 11.25C7.86193 11.25 7.75 11.3619 7.75 11.5C7.75 11.6381 7.86193 11.75 8 11.75ZM8 13C8.82843 13 9.5 12.3284 9.5 11.5C9.5 10.6716 8.82843 10 8 10C7.17157 10 6.5 10.6716 6.5 11.5C6.5 12.3284 7.17157 13 8 13Z" />
  </g>
</svg>