<svg xmlns="http://www.w3.org/2000/svg" width="16" height="16" viewBox="0 0 16 16">
  <path fill-rule="evenodd" d="M6.63056057,12 C5.33583626,12 4.2473793,11.8952797 4.2473793,10.1975407 L4.2473793,9.600952 C4.2473793,8.96310988 3.99985847,8.68702896 3.26681603,8.68702896 L3.26681603,7.31614439 C3.99985847,7.31614439 4.2473793,7.03689012 4.2473793,6.40222134 L4.2473793,5.80245934 C4.2473793,4.10472035 5.33583626,4 6.63056057,4 L6.63056057,5.13923046 C5.87213138,5.13923046 5.74519762,5.41213804 5.74519762,5.98333994 L5.74519762,6.79571599 C5.74519762,7.27489092 5.5198902,7.73185244 4.53298025,7.92859976 L4.53298025,8.07140024 C5.5198902,8.26814756 5.74519762,8.72510908 5.74519762,9.20428401 L5.74519762,10.0166601 C5.74519762,10.587862 5.87213138,10.8607695 6.63056057,10.8607695 L6.63056057,12 Z M8.89633358,4 C10.1910579,4 11.2795149,4.10472035 11.2795149,5.80245934 L11.2795149,6.399048 C11.2795149,7.03689012 11.5270357,7.31297104 12.2600781,7.31297104 L12.2600781,8.68385561 C11.5270357,8.68385561 11.2795149,8.96310988 11.2795149,9.59777866 L11.2795149,10.1975407 C11.2795149,11.8952797 10.1910579,12 8.89633358,12 L8.89633358,10.8607695 C9.65476277,10.8607695 9.78169653,10.587862 9.78169653,10.0166601 L9.78169653,9.20428401 C9.78169653,8.72510908 10.0070039,8.26814756 10.9939139,8.07140024 L10.9939139,7.92859976 C10.0070039,7.73185244 9.78169653,7.27489092 9.78169653,6.79571599 L9.78169653,5.98333994 C9.78169653,5.41213804 9.65476277,5.13923046 8.89633358,5.13923046 L8.89633358,4 Z"/>
</svg>
