<svg xmlns="http://www.w3.org/2000/svg" width="16" height="16" viewBox="0 0 16 16">
	<path fill-rule="evenodd" d="M13,11.5672438 C13,12.3585332 12.3592428,13 11.5672438,13 L4.43275619,13 C3.64146679,13 3,12.3592428 3,11.5672438 L3,4.43275619 C3,3.64146679 3.64075723,3 4.43275619,3 L6,3 L6,2.50468445 C6,2.25692487 6.18325617,2.05086374 6.41225137,2.00813114 L6.5,2 C6.77614237,2 7,2.21403503 7,2.50468445 L7,3 L9,3 L9,2.50468445 C9,2.25692487 9.18325617,2.05086374 9.41225137,2.00813114 L9.5,2 C9.77614237,2 10,2.21403503 10,2.50468445 L10,3 L11.5672438,3 C12.3585332,3 13,3.64075723 13,4.43275619 L13,11.5672438 Z M4,6 L4,11.3294276 C4,11.700157 4.29994565,12 4.67057244,12 L11.3294276,12 C11.700157,12 12,11.7000543 12,11.3294276 L12,6 L4,6 Z M5.5,10 C5.74545989,10 5.94960837,10.1832562 5.99194433,10.4122514 L6,10.5 C6,10.7454599 5.81674383,10.9496084 5.58774863,10.9919443 L5.5,11 C5.22385763,11 5,10.7680664 5,10.5 C5,10.2545401 5.18325617,10.0503916 5.41225137,10.0080557 L5.5,10 Z M8,10 C8.24545989,10 8.44960837,10.1832562 8.49194433,10.4122514 L8.5,10.5 C8.5,10.7454599 8.31674383,10.9496084 8.08774863,10.9919443 L8,11 C7.72385763,11 7.5,10.7680664 7.5,10.5 C7.5,10.2545401 7.68325617,10.0503916 7.91225137,10.0080557 L8,10 Z M10.5,10 C10.7454599,10 10.9496084,10.1832562 10.9919443,10.4122514 L11,10.5 C11,10.7454599 10.8167438,10.9496084 10.5877486,10.9919443 L10.5,11 C10.2238576,11 10,10.7680664 10,10.5 C10,10.2545401 10.1832562,10.0503916 10.4122514,10.0080557 L10.5,10 Z M5.5,8.5 C5.74545989,8.5 5.94960837,8.68325617 5.99194433,8.91225137 L6,9 C6,9.24545989 5.81674383,9.44960837 5.58774863,9.49194433 L5.5,9.5 C5.22385763,9.5 5,9.26806641 5,9 C5,8.75454011 5.18325617,8.55039163 5.41225137,8.50805567 L5.5,8.5 Z M8,8.5 C8.24545989,8.5 8.44960837,8.68325617 8.49194433,8.91225137 L8.5,9 C8.5,9.24545989 8.31674383,9.44960837 8.08774863,9.49194433 L8,9.5 C7.72385763,9.5 7.5,9.26806641 7.5,9 C7.5,8.75454011 7.68325617,8.55039163 7.91225137,8.50805567 L8,8.5 Z M10.5,8.5 C10.7454599,8.5 10.9496084,8.68325617 10.9919443,8.91225137 L11,9 C11,9.24545989 10.8167438,9.44960837 10.5877486,9.49194433 L10.5,9.5 C10.2238576,9.5 10,9.26806641 10,9 C10,8.75454011 10.1832562,8.55039163 10.4122514,8.50805567 L10.5,8.5 Z M5.5,7 C5.74545989,7 5.94960837,7.18325617 5.99194433,7.41225137 L6,7.5 C6,7.74545989 5.81674383,7.94960837 5.58774863,7.99194433 L5.5,8 C5.22385763,8 5,7.76806641 5,7.5 C5,7.25454011 5.18325617,7.05039163 5.41225137,7.00805567 L5.5,7 Z M8,7 C8.24545989,7 8.44960837,7.18325617 8.49194433,7.41225137 L8.5,7.5 C8.5,7.74545989 8.31674383,7.94960837 8.08774863,7.99194433 L8,8 C7.72385763,8 7.5,7.76806641 7.5,7.5 C7.5,7.25454011 7.68325617,7.05039163 7.91225137,7.00805567 L8,7 Z M10.5,7 C10.7454599,7 10.9496084,7.18325617 10.9919443,7.41225137 L11,7.5 C11,7.74545989 10.8167438,7.94960837 10.5877486,7.99194433 L10.5,8 C10.2238576,8 10,7.76806641 10,7.5 C10,7.25454011 10.1832562,7.05039163 10.4122514,7.00805567 L10.5,7 Z M4,5 L12,5 L12,4.67057244 C12,4.29984305 11.7000543,4 11.3294276,4 L4.67057244,4 C4.29984305,4 4,4.29994565 4,4.67057244 L4,5 Z" />
</svg>
