<svg xmlns="http://www.w3.org/2000/svg" width="16" height="16" viewBox="0 0 16 16">
	<path d="M8,0 C12.418278,0 16,3.581722 16,8 C16,12.418278 12.418278,16 8,16 C3.581722,16 0,12.418278 0,8 C0,3.581722 3.581722,0 8,0 Z M8,1 C4.13400675,1 1,4.13400675 1,8 C1,11.8659932 4.13400675,15 8,15 C11.8659932,15 15,11.8659932 15,8 C15,4.13400675 11.8659932,1 8,1 Z M11.9743416,5.34188612 C12.0519629,5.57474981 11.9487218,5.82435491 11.74083,5.9382782 L11.6581139,5.97434165 L8.99986435,6.86 L9,9.419 L9.97434165,12.3418861 C10.0519629,12.5747498 9.94872179,12.8243549 9.74082997,12.9382782 L9.65811388,12.9743416 C9.42525019,13.0519629 9.17564509,12.9487218 9.0617218,12.74083 L9.02565835,12.6581139 L8.02565835,9.65811388 L8,9.5 L7.97434165,9.65811388 L6.97434165,12.6581139 C6.88701776,12.9200855 6.60385778,13.0616655 6.34188612,12.9743416 C6.10902242,12.8967204 5.971283,12.6643645 6.00487946,12.4296971 L6.02565835,12.3418861 L7,9.416 L6.99986435,6.86 L4.34188612,5.97434165 C4.07991446,5.88701776 3.93833446,5.60385778 4.02565835,5.34188612 C4.10327958,5.10902242 4.33563551,4.971283 4.57030295,5.00487946 L4.65811388,5.02565835 L7.583,6 L8.416,6 L11.3418861,5.02565835 C11.6038578,4.93833446 11.8870178,5.07991446 11.9743416,5.34188612 Z M8,3 C8.55228475,3 9,3.44771525 9,4 C9,4.55228475 8.55228475,5 8,5 C7.44771525,5 7,4.55228475 7,4 C7,3.44771525 7.44771525,3 8,3 Z" />
</svg>
