<svg xmlns="http://www.w3.org/2000/svg" width="32" height="32" viewBox="0 0 32 32">
  <g>
    <path d="M19.3066667 3.20969697C18.9871635 1.83067376 17.721403.8818121 16.3081168.961871204 14.8948306 1.04193031 13.744325 2.12766735 13.5826024 3.5339508 13.4208798 4.94023424 14.2948917 6.25879078 15.6531111 6.65757303 17.0113305 7.05635529 18.4594383 6.41958847 19.0836364 5.14909091 22.8215622 5.99945856 25.9008598 8.63626583 27.3163636 12.1987879L29.0909091 11.5006061C27.4226886 7.27358229 23.7501579 4.16157666 19.3066667 3.20969697zM16.4848485 4.84848485C15.9492996 4.84848485 15.5151515 4.41433673 15.5151515 3.87878788 15.5151515 3.34323903 15.9492996 2.90909091 16.4848485 2.90909091 17.0203973 2.90909091 17.4545455 3.34323903 17.4545455 3.87878788 17.4545455 4.13596751 17.3523812 4.38261372 17.1705278 4.56446718 16.9886743 4.74632064 16.7420281 4.84848485 16.4848485 4.84848485zM12.2181818 5.65333333L11.5006061 3.87878788C7.27358229 5.5470084 4.16157666 9.21953902 3.20969697 13.6630303 1.83067376 13.9825335.8818121 15.248294.961871204 16.6615802 1.04193031 18.0748664 2.12766735 19.2253719 3.5339508 19.3870945 4.94023424 19.5488171 6.25879078 18.6748053 6.65757303 17.3165859 7.05635529 15.9583664 6.41958847 14.5102587 5.14909091 13.8860606 6.00336426 10.1438487 8.64818348 7.0636683 12.2181818 5.65333333zM3.87878788 17.4545455C3.34323903 17.4545455 2.90909091 17.0203973 2.90909091 16.4848485 2.90909091 15.9492996 3.34323903 15.5151515 3.87878788 15.5151515 4.41433673 15.5151515 4.84848485 15.9492996 4.84848485 16.4848485 4.84848485 17.0203973 4.41433673 17.4545455 3.87878788 17.4545455zM16.4848485 26.1818182C15.3815952 26.1851564 14.3751668 26.8122965 13.8860606 27.8012121 10.1481348 26.9508445 7.06883718 24.3140372 5.65333333 20.7515152L3.87878788 21.4690909C5.55255581 25.7035262 9.23762813 28.8169025 13.6921212 29.76 14.0428488 31.2434304 15.4791836 32.2045764 16.9842432 31.9629753 18.4893029 31.7213742 19.5526467 30.3589649 19.421459 28.8402926 19.2902712 27.3216204 18.0090442 26.1617426 16.4848485 26.1818182zM16.4848485 30.0606061C15.9492996 30.0606061 15.5151515 29.6264579 15.5151515 29.0909091 15.5151515 28.5553602 15.9492996 28.1212121 16.4848485 28.1212121 17.0203973 28.1212121 17.4545455 28.5553602 17.4545455 29.0909091 17.4545455 29.6264579 17.0203973 30.0606061 16.4848485 30.0606061zM32 16.4848485C32.0043398 15.0484054 30.9595766 13.8238285 29.5403745 13.6018982 28.1211725 13.3799679 26.7524374 14.2271296 26.3180409 15.5963218 25.8836444 16.965514 26.5136439 18.4468038 27.8012121 19.0836364 26.9508445 22.8215622 24.3140372 25.9008598 20.7515152 27.3163636L21.4690909 29.0909091C25.7035262 27.4171412 28.8169025 23.7320688 29.76 19.2775758 31.0588945 18.9707232 31.9823676 17.81938 32 16.4848485zM29.0909091 17.4545455C28.5553602 17.4545455 28.1212121 17.0203973 28.1212121 16.4848485 28.1212121 15.9492996 28.5553602 15.5151515 29.0909091 15.5151515 29.6264579 15.5151515 30.0606061 15.9492996 30.0606061 16.4848485 30.0606061 17.0203973 29.6264579 17.4545455 29.0909091 17.4545455z"/>
    <path class="euiIcon__fillSecondary" d="M19.190303,16.3490909 C20.3185221,15.2470772 20.667159,13.571659 20.072191,12.1110682 C19.477223,10.6504774 18.0571215,9.69555027 16.48,9.69555027 C14.9028785,9.69555027 13.482777,10.6504774 12.887809,12.1110682 C12.292841,13.571659 12.6414779,15.2470772 13.769697,16.3490909 C12.4364034,17.2502989 11.6371565,18.7543362 11.6363636,20.3636364 L11.6363636,22.3030303 L21.3333333,22.3030303 L21.3333333,20.3636364 C21.3303655,18.7525115 20.5272845,17.2480974 19.190303,16.3490909 Z M14.5454545,13.5757576 C14.5454545,12.5046599 15.4137508,11.6363636 16.4848485,11.6363636 C17.5559462,11.6363636 18.4242424,12.5046599 18.4242424,13.5757576 C18.4242424,14.6468553 17.5559462,15.5151515 16.4848485,15.5151515 C15.4137508,15.5151515 14.5454545,14.6468553 14.5454545,13.5757576 Z M13.5757576,20.3636364 C13.5757576,18.7569898 14.8782019,17.4545455 16.4848485,17.4545455 C18.091495,17.4545455 19.3939394,18.7569898 19.3939394,20.3636364 L13.5757576,20.3636364 Z"/>
  </g>
</svg>
