<svg xmlns="http://www.w3.org/2000/svg" width="32" height="32" viewBox="0 0 32 32">
  <g>
    <path d="M16,32 C7.16344,32 0,24.8366 0,16 C0,7.16344 7.16344,0 16,0 C24.8366,0 32,7.16344 32,16 C32,20.2435 30.3143,24.3131 27.3137,27.3137 C24.3131,30.3143 20.2435,32 16,32 Z M16,2 C8.26801,2 2,8.26801 2,16 C2,23.732 8.26801,30 16,30 C23.732,30 30,23.732 30,16 C30,12.287 28.525,8.72601 25.8995,6.1005 C23.274,3.475 19.713,2 16,2 Z"/>
    <path class="euiIcon__fillSecondary" d="M15,4 L17,4 L17,13.1707 C17.8524,13.472 18.528,14.1476 18.8293,15 L26,15 L26,17 L18.8293,17 C18.4175,18.1652 17.3062,19 16,19 C14.3431,19 13,17.6569 13,16 C13,14.6938 13.8348,13.5825 15,13.1707 L15,4 Z M16,17 C16.5523,17 17,16.5523 17,16 C17,15.4477 16.5523,15 16,15 C15.4477,15 15,15.4477 15,16 C15,16.5523 15.4477,17 16,17 Z"/>
  </g>
</svg>
