<svg xmlns="http://www.w3.org/2000/svg" width="32" height="32" viewBox="0 0 32 32">
  <g>
    <path d="M29,9 L3,9 C1.34314575,9 2.02906125e-16,7.65685425 0,6 L0,3 C-2.02906125e-16,1.34314575 1.34314575,3.04359188e-16 3,0 L29,0 C30.6568542,1.01453063e-16 32,1.34314575 32,3 L32,6 C32,7.65685425 30.6568542,9 29,9 Z M3,2 C2.44771525,2 2,2.44771525 2,3 L2,6 C2,6.55228475 2.44771525,7 3,7 L29,7 C29.5522847,7 30,6.55228475 30,6 L30,3 C30,2.44771525 29.5522847,2 29,2 L3,2 Z"/>
    <path class="euiIcon__fillSecondary" d="M12,20 L3,20 C1.34314575,20 2.02906125e-16,18.6568542 0,17 L0,14 C-2.02906125e-16,12.3431458 1.34314575,11 3,11 L12,11 C13.6568542,11 15,12.3431458 15,14 L15,17 C15,18.6568542 13.6568542,20 12,20 Z M3,13 C2.44771525,13 2,13.4477153 2,14 L2,17 C2,17.5522847 2.44771525,18 3,18 L12,18 C12.5522847,18 13,17.5522847 13,17 L13,14 C13,13.4477153 12.5522847,13 12,13 L3,13 Z"/>
    <path d="M12,31 L3,31 C1.34314575,31 2.02906125e-16,29.6568542 0,28 L0,25 C-2.02906125e-16,23.3431458 1.34314575,22 3,22 L12,22 C13.6568542,22 15,23.3431458 15,25 L15,28 C15,29.6568542 13.6568542,31 12,31 Z M3,24 C2.44771525,24 2,24.4477153 2,25 L2,28 C2,28.5522847 2.44771525,29 3,29 L12,29 C12.5522847,29 13,28.5522847 13,28 L13,25 C13,24.4477153 12.5522847,24 12,24 L3,24 Z"/>
    <path class="euiIcon__fillSecondary" d="M29,31 L20,31 C18.3431458,31 17,29.6568542 17,28 L17,14 C17,12.3431458 18.3431458,11 20,11 L29,11 C30.6568542,11 32,12.3431458 32,14 L32,28 C32,29.6568542 30.6568542,31 29,31 Z M20,13 C19.4477153,13 19,13.4477153 19,14 L19,28 C19,28.5522847 19.4477153,29 20,29 L29,29 C29.5522847,29 30,28.5522847 30,28 L30,14 C30,13.4477153 29.5522847,13 29,13 L20,13 Z"/>
  </g>
</svg>
