<svg xmlns="http://www.w3.org/2000/svg" width="32" height="32" viewBox="0 0 32 32">
  <g transform="translate(0 2)">
    <path d="M9.74,5.73 L8.24,4.41 C3.91100611,9.32236527 3.91100611,16.6876347 8.24,21.6 L9.74,20.28 C6.08016757,16.1242398 6.08016757,9.8957602 9.74,5.74 L9.74,5.73 Z"/>
    <path d="M6.51 1.66L5 .34C-1.37709008 7.57920943-1.37709008 18.4307906 5 25.67L6.5 24.35C.792070347 17.8673962.792070347 8.15260381 6.5 1.67L6.51 1.66zM23.76 4.41L22.26 5.73C25.9198324 9.8857602 25.9198324 16.1142398 22.26 20.27L23.76 21.59C28.0889939 16.6776347 28.0889939 9.31236527 23.76 4.4L23.76 4.41z"/>
    <path d="M27,0.34 L25.5,1.66 C31.2079297,8.14260381 31.2079297,17.8573962 25.5,24.34 L27,25.67 C33.3770901,18.4307906 33.3770901,7.57920943 27,0.34 Z"/>
    <path class="euiIcon__fillSecondary" d="M21,13 C20.999463,10.3688735 18.9598921,8.18834286 16.3346659,8.01223323 C13.7094398,7.8361236 11.3968986,9.72469888 11.044937,12.3321785 C10.6929754,14.9396582 12.422033,17.3737746 15,17.9 L15,29 L17,29 L17,17.9 C19.3283313,17.4247314 21.000485,15.3763431 21,13 Z M16,16 C14.3431458,16 13,14.6568542 13,13 C13,11.3431458 14.3431458,10 16,10 C17.6568542,10 19,11.3431458 19,13 C19,14.6568542 17.6568542,16 16,16 Z"/>
  </g>
</svg>
