<svg xmlns="http://www.w3.org/2000/svg" width="32" height="32" viewBox="0 0 32 32">
  <path fill-rule="evenodd" d="M7.81,1 L2,1 L2,31 L7.815,31 C9.52011,31 11.158,30.2169 12.195,28.9061 L15.3769,24.8829 L15.3831,24.889 L17.9903,21.7516 L18.0006,21.7384 C19.1258,20.2879 19.7797,18.6157 19.9525,16.9123 C19.9984,16.4792 20.0112,16.0439 19.9909,15.6096 C19.9128,13.7704 19.2736,11.9512 18.0612,10.3899 L18.0523,10.3783 L15.4493,7.22159 L12.197,3.0999 C11.16,1.78609 9.52012,1 7.81,1 Z M13.9284,8.52286 L10.6185,4.32821 C9.96857,3.51197 8.91691,3 7.81,3 L4,3 L4,29 L7.815,29 C8.91591,29 9.96429,28.492 10.6143,27.6806 L13.9444,23.47 L12.1491,21.6991 L12.1217,21.6671 C9.28221,18.3499 9.29213,13.4717 12.1497,10.3805 L12.1541,10.3757 C12.8403,9.64308 13.4312,9.02628 13.9284,8.52286 Z M17.9714,16.6219 C17.8514,17.9009 17.3548,19.1589 16.4814,20.2624 L15.1926,21.8919 L13.6147,20.3355 C11.4245,17.7466 11.4969,14.0354 13.6162,11.7404 C14.2154,11.1007 14.7348,10.5571 15.1772,10.1054 L16.4696,11.7433 L16.4708,11.7449 L16.4836,11.7611 C17.4264,12.9525 17.9297,14.3248 17.9932,15.7096 C18.0055,16.0135 17.9983,16.3181 17.9714,16.6219 Z"/>
  <path fill-rule="evenodd" class="euiIcon__fillSecondary" d="M23.801,3 C23.4187,3 22.7494,3.23148 21.8759,3.81203 C21.2403,4.23446 20.6482,4.7396 20.1986,5.16901 L21.9704,7.4144 C21.972,7.41641 21.9736,7.4185 21.9753,7.42069 C21.9832,7.43061 21.991,7.44054 21.9988,7.45047 L22.0072,7.46102 C26.01,12.5597 25.9969,19.5176 21.9716,24.6057 L20.1788,26.8726 C20.727,27.4803 21.3373,27.9981 21.948,28.3714 C22.6462,28.7981 23.2845,29 23.8,29 L28,29 L28,3 L23.801,3 Z M17.6529,26.8422 L18.4176,27.8947 L18.4409,27.9223 C19.1582,28.7732 20.0065,29.5287 20.905,30.0779 C21.7948,30.6218 22.7954,31 23.8,31 L30,31 L30,1 L23.801,1 C22.8143,1 21.7346,1.50452 20.7689,2.14637 C19.803,2.78832 18.9504,3.56809 18.4174,4.11958 L18.4166,4.12046 C18.3172,4.22352 18.2255,4.31937 18.1414,4.40814 L17.5461,5.03619 L20.4014,8.65474 C20.4032,8.65701 20.405,8.6592 20.4066,8.6613 C23.866,13.0359 23.8642,18.99 20.4031,23.3648 L17.6529,26.8422 Z"/>
</svg>
