<svg xmlns="http://www.w3.org/2000/svg" width="32" height="32" viewBox="0 0 32 32">
  <g transform="translate(0 6)">
    <path d="M29,6 C27.3431458,6 26,7.34314575 26,9 L22,9 C22,7.34314575 20.6568542,6 19,6 L13,6 C11.3431458,6 10,7.34314575 10,9 L6,9 C6,7.34314575 4.65685425,6 3,6 L0,6 L0,20 L3,20 C4.65685425,20 6,18.6568542 6,17 L10,17 C10,18.6568542 11.3431458,20 13,20 L19,20 C20.6568542,20 22,18.6568542 22,17 L26,17 C26,18.6568542 27.3431458,20 29,20 L32,20 L32,6 L29,6 Z M3,18 L2,18 L2,8 L3,8 C3.55228475,8 4,8.44771525 4,9 L4,17 C4,17.5522847 3.55228475,18 3,18 Z M20,15 L20,17 C20,17.5522847 19.5522847,18 19,18 L13,18 C12.4477153,18 12,17.5522847 12,17 L12,15 L6,15 L6,11 L12,11 L12,9 C12,8.44771525 12.4477153,8 13,8 L19,8 C19.5522847,8 20,8.44771525 20,9 L20,11 L26,11 L26,15 L20,15 Z M30,18 L29,18 C28.4477153,18 28,17.5522847 28,17 L28,9 C28,8.44771525 28.4477153,8 29,8 L30,8 L30,18 Z"/>
    <polygon class="euiIcon__fillSecondary" points="22 0 10 0 10 2 15 2 15 4 17 4 17 2 22 2"/>
  </g>
</svg>
