<svg xmlns="http://www.w3.org/2000/svg" width="32" height="32" viewBox="0 0 32 32">
  <path class="euiIcon__fillSecondary" d="M29.0143062,23.8895582 L31.3101483,25.0351486 L16,32.1013709 L0.530090172,24.9614125 L3.01987013,23.9053319 L5.47269637,25.0374056 L5.46990983,25.0385875 L16,29.8986291 L26.6898517,24.9648514 L26.6872822,24.9635693 L29.0143062,23.8895582 Z M24.0419762,16.4084411 L31.3101483,20.0351486 L16,27.1013709 L0.530090172,19.9614125 L8.19815826,16.7088771 C8.58970501,17.1945201 9.03626725,17.7285484 9.53889791,18.3126603 L5.46990983,20.0385875 L16,24.8986291 L26.6898517,19.9648514 L22.7358157,17.9918475 C23.2294785,17.4124143 23.6644809,16.8852367 24.0419762,16.4084411 Z"/>
  <path d="M18,9 C18,7.89528475 17.1047153,7 16,7 C14.8952847,7 14,7.89528475 14,9 C14,10.1047153 14.8952847,11 16,11 C17.1047153,11 18,10.1047153 18,9 Z M20,9 C20,11.2092847 18.2092847,13 16,13 C13.7907153,13 12,11.2092847 12,9 C12,6.79071525 13.7907153,5 16,5 C18.2092847,5 20,6.79071525 20,9 Z M16.7321493,21.6811442 L16,22.468118 L15.2678507,21.6811442 C11.7105056,17.8574193 9.45077749,15.2190843 8.45856427,13.7205705 C7.51180975,12.2902122 7,10.6198754 7,8.875 C7,3.96953448 11.032543,6.8567374e-13 16,6.8567374e-13 C20.967457,6.8567374e-13 25,3.96953448 25,8.875 C25,10.6198754 24.4881903,12.2902122 23.541347,13.7207046 C22.5492225,15.2190843 20.2894944,17.8574193 16.7321493,21.6811442 Z M21.8736754,12.6166795 C22.6056175,11.5108602 23,10.2237575 23,8.875 C23,5.08121552 19.8698763,2 16,2 C12.1301237,2 9,5.08121552 9,8.875 C9,10.2237575 9.39438255,11.5108602 10.1262359,12.6165454 C10.9719369,13.8937857 12.9378545,16.2099428 16,19.5287022 C19.0621451,16.2099434 21.0280567,13.8937954 21.8736754,12.6166795 Z"/>
</svg>
