<svg width="16" height="16" viewBox="0 0 16 16" fill="none" xmlns="http://www.w3.org/2000/svg">
  <path d="M8.5 10C8.22386 10 8 10.2239 8 10.5C8 10.7761 8.22386 11 8.5 11H12.5C12.7761 11 13 10.7761 13 10.5C13 10.2239 12.7761 10 12.5 10H8.5Z" />
  <path d="M8 6.5C8 6.22386 8.22386 6 8.5 6H12.5C12.7761 6 13 6.22386 13 6.5C13 6.77614 12.7761 7 12.5 7H8.5C8.22386 7 8 6.77614 8 6.5Z" />
  <path d="M3.5 2C3.22386 2 3 2.22386 3 2.5C3 2.77614 3.22386 3 3.5 3H8.5C8.77614 3 9 2.77614 9 2.5C9 2.22386 8.77614 2 8.5 2H3.5Z" />
  <path d="M8 8.5C8 8.22386 8.22386 8 8.5 8H12.5C12.7761 8 13 8.22386 13 8.5C13 8.77614 12.7761 9 12.5 9H8.5C8.22386 9 8 8.77614 8 8.5Z" />
  <path d="M3.5 4C3.22386 4 3 4.22386 3 4.5C3 4.77614 3.22386 5 3.5 5H8.5C8.77614 5 9 4.77614 9 4.5C9 4.22386 8.77614 4 8.5 4H3.5Z" />
  <path d="M3 12.5C3 12.2239 3.22386 12 3.5 12H12.5C12.7761 12 13 12.2239 13 12.5C13 12.7761 12.7761 13 12.5 13H3.5C3.22386 13 3 12.7761 3 12.5Z" />
  <path d="M7 6H3V11H7V6Z" />
  <path fill-rule="evenodd" clip-rule="evenodd" d="M11.526 0.312C11.337 0.113 11.074 0 10.8 0H2C1.448 0 1 0.448 1 1V15C1 15.552 1.448 16 2 16H14C14.552 16 15 15.552 15 15V4.429C15 4.173 14.902 3.926 14.726 3.74L11.526 0.312ZM10.5 5H14V15H2V1H10V4.5C10 4.776 10.224 5 10.5 5Z" />
</svg>