<svg xmlns="http://www.w3.org/2000/svg" width="16" height="16" viewBox="0 0 16 16">
  <path d="M3.73183576,13.0957803 L3.53520911,12.8990841 L6.36420911,10.0710841 L7.07119089,10.7783159 L4.24235334,13.6061535 L4.9501,14.3137 L7.7781,11.4857 C8.1681,11.0947 8.1681,10.4607 7.7781,10.0717 L5.6571,7.9497 C5.4681,7.7607 5.2171,7.6567 4.9501,7.6567 C4.6821,7.6567 4.4311,7.7607 4.2421,7.9497 L1.4141,10.7787 L2.12114659,11.4855466 L4.95004661,8.65664661 L5.65715339,9.36375339 L2.82835337,12.1925534 L3.73183576,13.0957803 Z M4.9501,6.6567 C5.4621,6.6567 5.9731,6.8517 6.3641,7.2427 L8.4851,9.3637 C9.2661,10.1447 9.2661,11.4117 8.4851,12.1927 L4.9501,15.7277 L0.0001,10.7787 L3.5351,7.2427 C3.9261,6.8517 4.4371,6.6567 4.9501,6.6567 Z M14.0204109,0.999882327 L14.7275891,1.70691767 L7.7785891,8.65691767 L7.0714109,7.94988233 L14.0204109,0.999882327 Z"/>
</svg>
