<svg xmlns="http://www.w3.org/2000/svg" width="16" height="16" viewBox="0 0 16 16">
  <path fill-rule="evenodd" d="M10,7.94999094 C8.85887984,7.71835578 8,6.70947896 8,5.5 C8,4.29052104 8.85887984,3.28164422 10,3.05000906 L10,1.5 C10,1.22385763 10.2238576,1 10.5,1 C10.7761424,1 11,1.22385763 11,1.5 L11,3.05000906 C12.1411202,3.28164422 13,4.29052104 13,5.5 C13,6.70947896 12.1411202,7.71835578 11,7.94999094 L11,14.5 C11,14.7761424 10.7761424,15 10.5,15 C10.2238576,15 10,14.7761424 10,14.5 L10,7.94999094 Z M6,8.05000906 C7.14112016,8.28164422 8,9.29052104 8,10.5 C8,11.709479 7.14112016,12.7183558 6,12.9499909 L6,14.5 C6,14.7761424 5.77614237,15 5.5,15 C5.22385763,15 5,14.7761424 5,14.5 L5,12.9499909 C3.85887984,12.7183558 3,11.709479 3,10.5 C3,9.29052104 3.85887984,8.28164422 5,8.05000906 L5,1.5 C5,1.22385763 5.22385763,1 5.5,1 C5.77614237,1 6,1.22385763 6,1.5 L6,8.05000906 Z M5.5,12 C6.32842712,12 7,11.3284271 7,10.5 C7,9.67157288 6.32842712,9 5.5,9 C4.67157288,9 4,9.67157288 4,10.5 C4,11.3284271 4.67157288,12 5.5,12 Z M10.5,4 C9.67157288,4 9,4.67157288 9,5.5 C9,6.32842712 9.67157288,7 10.5,7 C11.3284271,7 12,6.32842712 12,5.5 C12,4.67157288 11.3284271,4 10.5,4 Z"/>
</svg>
