<svg xmlns="http://www.w3.org/2000/svg" width="16" height="16" viewBox="0 0 16 16">
  <path fill-rule="evenodd" d="M8.05000906,10 C8.28164422,8.85887984 9.29052104,8 10.5,8 C11.709479,8 12.7183558,8.85887984 12.9499909,10 L14.5,10 C14.7761424,10 15,10.2238576 15,10.5 C15,10.7761424 14.7761424,11 14.5,11 L12.9499909,11 C12.7183558,12.1411202 11.709479,13 10.5,13 C9.29052104,13 8.28164422,12.1411202 8.05000906,11 L1.5,11 C1.22385763,11 1,10.7761424 1,10.5 C1,10.2238576 1.22385763,10 1.5,10 L8.05000906,10 Z M7.94999094,6 C7.71835578,7.14112016 6.70947896,8 5.5,8 C4.29052104,8 3.28164422,7.14112016 3.05000906,6 L1.5,6 C1.22385763,6 1,5.77614237 1,5.5 C1,5.22385763 1.22385763,5 1.5,5 L3.05000906,5 C3.28164422,3.85887984 4.29052104,3 5.5,3 C6.70947896,3 7.71835578,3.85887984 7.94999094,5 L14.5,5 C14.7761424,5 15,5.22385763 15,5.5 C15,5.77614237 14.7761424,6 14.5,6 L7.94999094,6 Z M4,5.5 C4,6.32842712 4.67157288,7 5.5,7 C6.32842712,7 7,6.32842712 7,5.5 C7,4.67157288 6.32842712,4 5.5,4 C4.67157288,4 4,4.67157288 4,5.5 Z M12,10.5 C12,9.67157288 11.3284271,9 10.5,9 C9.67157288,9 9,9.67157288 9,10.5 C9,11.3284271 9.67157288,12 10.5,12 C11.3284271,12 12,11.3284271 12,10.5 Z"/>
</svg>
