<svg xmlns="http://www.w3.org/2000/svg" width="16" height="16" viewBox="0 0 16 16">
  <path d="M8.74571762,8 L11.8455568,4.90016079 C12.0514811,4.69423656 12.0514811,4.36036741 11.8455568,4.15444318 C11.6396326,3.94851894 11.3057634,3.94851894 11.0998392,4.15444318 L8,7.25428238 L4.90016079,4.15444318 C4.69423656,3.94851894 4.36036741,3.94851894 4.15444318,4.15444318 C3.94851894,4.36036741 3.94851894,4.69423656 4.15444318,4.90016079 L7.25428238,8 L4.15444318,11.0998392 C3.94851894,11.3057634 3.94851894,11.6396326 4.15444318,11.8455568 C4.36036741,12.0514811 4.69423656,12.0514811 4.90016079,11.8455568 L8,8.74571762 L11.0998392,11.8455568 C11.3057634,12.0514811 11.6396326,12.0514811 11.8455568,11.8455568 C12.0514811,11.6396326 12.0514811,11.3057634 11.8455568,11.0998392 L8.74571762,8 Z M8,16 C3.581722,16 0,12.418278 0,8 C0,3.581722 3.581722,0 8,0 C12.418278,0 16,3.581722 16,8 C16,12.418278 12.418278,16 8,16 Z"/>
</svg>
