<svg width="16" height="16" viewBox="0 0 16 16" fill="none" xmlns="http://www.w3.org/2000/svg">
<path d="M4.96667 10.8638C5.29871 11.6513 6.05221 12.201 6.92857 12.201H10.6021L13.3572 15.0001V12.201C14.5407 12.201 15.5001 11.1985 15.5001 9.96176V6.60289C15.5001 5.36619 14.5407 4.36365 13.3572 4.36365H12.2858V8.6971C12.2858 9.89372 11.3903 10.8638 10.2858 10.8638H4.96667Z" />
<path d="M4.90517 8.71774H9.07143C9.66316 8.71774 10.1429 8.21646 10.1429 7.59811V4.23925C10.1429 3.62089 9.66316 3.11962 9.07143 3.11962H2.64286C2.05112 3.11962 1.57143 3.62089 1.57143 4.23925V7.59811C1.57143 8.21646 2.05112 8.71774 2.64286 8.71774H3.71429V10.1696L4.90517 8.71774ZM5.39796 9.83736L2.64286 12.6364V9.83736C1.45939 9.83736 0.5 8.83481 0.5 7.59811V4.23925C0.5 3.00254 1.45939 2 2.64286 2H9.07143C10.2549 2 11.2143 3.00254 11.2143 4.23925V7.59811C11.2143 8.83481 10.2549 9.83736 9.07143 9.83736H5.39796Z"/>
</svg>
