<svg width="16" height="16" viewBox="0 0 16 16" fill="none" xmlns="http://www.w3.org/2000/svg">
<path fill-rule="evenodd" clip-rule="evenodd" d="M8 0.5C12.1356 0.5 15.5 3.86441 15.5 8C15.5 12.1356 12.1356 15.5 8 15.5C3.86441 15.5 0.5 12.1356 0.5 8C0.5 3.86441 3.86441 0.5 8 0.5ZM8 1.38235C4.34529 1.38235 1.38235 4.34529 1.38235 8C1.38235 11.6547 4.34529 14.6176 8 14.6176C11.6547 14.6176 14.6176 11.6547 14.6176 8C14.6176 4.34529 11.6547 1.38235 8 1.38235Z" />
<path d="M9 8C9 8.55229 8.55229 9 8 9C7.44772 9 7 8.55229 7 8C7 7.44772 7.44772 7 8 7C8.55229 7 9 7.44772 9 8Z" />
</svg>
