<svg xmlns="http://www.w3.org/2000/svg" width="16" height="16" viewBox="0 0 16 16">
  <path d="M7,2 L9,2 C10.1045695,2 11,2.8954305 11,4 L11,12 C11,13.1045695 10.1045695,14 9,14 L7,14 C5.8954305,14 5,13.1045695 5,12 L5,4 C5,2.8954305 5.8954305,2 7,2 Z M1.5,1 C1.77614237,1 2,1.22385763 2,1.5 L2,14.5 C2,14.7761424 1.77614237,15 1.5,15 C1.22385763,15 1,14.7761424 1,14.5 L1,1.5 C1,1.22385763 1.22385763,1 1.5,1 Z M14.5,1 C14.7761424,1 15,1.22385763 15,1.5 L15,14.5 C15,14.7761424 14.7761424,15 14.5,15 C14.2238576,15 14,14.7761424 14,14.5 L14,1.5 C14,1.22385763 14.2238576,1 14.5,1 Z"/>
</svg>
