<svg xmlns="http://www.w3.org/2000/svg" width="16" height="16" viewBox="0 0 16 16">
  <path d="M4.854 5.146a.5.5 0 1 0-.708.708L6.793 8.5l-2.647 2.646a.5.5 0 0 0 .708.708L7.5 9.207l2.646 2.647a.5.5 0 0 0 .708-.708L8.207 8.5l2.647-2.646a.5.5 0 0 0-.708-.708L7.5 7.793 4.854 5.146Z"/>
  <path fill-rule="evenodd" d="M5 1a1 1 0 0 0-.707.293l-4 4A1 1 0 0 0 0 6v5a1 1 0 0 0 .293.707l4 4A1 1 0 0 0 5 16h5a1 1 0 0 0 .707-.293l4-4A1 1 0 0 0 15 11V6a1 1 0 0 0-.293-.707l-4-4A1 1 0 0 0 10 1H5Zm5 1H5L1 6v5l4 4h5l4-4V6l-4-4Z"/>
</svg>
