<svg xmlns="http://www.w3.org/2000/svg" width="16" height="16" viewBox="0 0 16 16">
  <path fill-rule="evenodd" d="M6.70710678,10 L10,6.70710678 C10.1952621,6.51184464 10.1952621,6.19526215 10,6 C9.80473785,5.80473785 9.48815536,5.80473785 9.29289322,6 L6,9.29289322 C5.80473785,9.48815536 5.80473785,9.80473785 6,10 C6.19526215,10.1952621 6.51184464,10.1952621 6.70710678,10 Z M4,9.5 C4,9.22385763 4.22385763,9 4.5,9 C4.77614237,9 5,9.22385763 5,9.5 L5,10.5 C5,10.7761424 5.22385763,11 5.5,11 L6.5,11 C6.77614237,11 7,11.2238576 7,11.5 C7,11.7761424 6.77614237,12 6.5,12 L5.5,12 C4.67157288,12 4,11.3284271 4,10.5 L4,9.5 Z M12,6.5 C12,6.77614237 11.7761424,7 11.5,7 C11.2238576,7 11,6.77614237 11,6.5 L11,5.5 C11,5.22385763 10.7761424,5 10.5,5 L9.5,5 C9.22385763,5 9,4.77614237 9,4.5 C9,4.22385763 9.22385763,4 9.5,4 L10.5,4 C11.3284271,4 12,4.67157288 12,5.5 L12,6.5 Z"/>
</svg>
