<svg xmlns="http://www.w3.org/2000/svg" width="16" height="16" viewBox="0 0 16 16">
  <path d="M15.9792,7.87256585 C15.9928889,7.90297739 16,7.93692059 16,7.97105999 L16,8.03011723 C16,8.06406043 15.9928889,8.09800363 15.9792,8.12841517 C15.9530667,8.18747241 13.2919111,14 7.99964444,14 C2.70773333,14 0.0467555556,8.18766861 0.0208,8.12841517 C0.00711111111,8.09800363 0,8.06406043 0,8.03011723 L0,7.97105999 C0,7.93692059 0.00711111111,7.90297739 0.0208,7.87256585 C0.0469333333,7.8133124 2.70773333,2 7.99964444,2 C13.2919111,2 15.9532444,7.8133124 15.9792,7.87256585 Z M14.6108072,7.44883495 C14.2243707,6.81214462 13.761199,6.17630773 13.2248959,5.58733696 C11.7392165,3.95575635 9.99877865,3 7.99964444,3 C6.00069588,3 4.26048013,3.95572783 2.77498776,5.58729391 C2.23875679,6.17625436 1.77565053,6.81207462 1.38922761,7.44880045 C1.26244732,7.65770184 1.15484094,7.84888569 1.07395578,8.00059967 C1.15438215,8.15118889 1.26256206,8.34346803 1.38912007,8.55197367 C1.7755047,9.18854639 2.23861859,9.82426631 2.77485922,10.4131286 C4.2603706,12.0444144 6.00064485,13 7.99964444,13 C9.99880065,13 11.7392011,12.044385 13.2248743,10.4130305 C13.761152,9.82416676 14.2243007,9.18845983 14.61078,8.55183127 C14.7377849,8.34262231 14.8452137,8.15184407 14.9260183,8.00031709 C14.8455795,7.84969748 14.7373853,7.6573841 14.6108072,7.44883495 Z M7.99905931,4.75 C9.7920731,4.75 11.25,6.20720296 11.25,7.9995298 C11.25,9.79211122 9.79200657,11.25 7.99905931,11.25 C6.20726372,11.25 4.75,9.79194599 4.75,7.9995298 C4.75,6.20730852 6.2070688,4.75 7.99905931,4.75 Z M7.99905931,5.75 C6.75939038,5.75 5.75,6.75955645 5.75,7.9995298 C5.75,9.23978257 6.75966987,10.25 7.99905931,10.25 C9.23973789,10.25 10.25,9.23981041 10.25,7.9995298 C10.25,6.75959892 9.23989951,5.75 7.99905931,5.75 Z M7.99923061,7.25 C7.58591506,7.25 7.25,7.58600565 7.25,7.99879504 C7.25,8.41235226 7.58606894,8.74759008 7.99923061,8.74759008 C8.41393106,8.74759008 8.75,8.41235226 8.75,7.99879504 C8.75,7.58600565 8.41393106,7.25 7.99923061,7.25 Z"/>
</svg>
