<svg xmlns="http://www.w3.org/2000/svg" width="16" height="16" viewBox="0 0 16 16">
  <path d="M5.31811658,13.4704657 L6.0942568,12.6943254 C6.70097141,12.8946956 7.33605231,13 7.99964444,13 C9.99880065,13 11.7392011,12.044385 13.2248743,10.4130305 C13.761152,9.82416676 14.2243007,9.18845983 14.61078,8.55183127 C14.7377849,8.34262231 14.8452137,8.15184407 14.9260183,8.00031709 C14.8455795,7.84969748 14.7373853,7.6573841 14.6108072,7.44883495 C14.2243707,6.81214462 13.761199,6.17630773 13.2248959,5.58733696 L13.2136153,5.57496693 L13.9213846,4.86719761 C15.2799538,6.34322828 15.9660834,7.84262226 15.9792,7.87256585 C15.9928889,7.90297739 16,7.93692059 16,7.97105999 L16,8.03011723 C16,8.06406043 15.9928889,8.09800363 15.9792,8.12841517 C15.9530667,8.18747241 13.2919111,14 7.99964444,14 C7.01464257,14 6.12079116,13.7986279 5.31811658,13.4704657 Z M2.04016661,11.0915614 C0.707086159,9.62937995 0.0337929839,8.1580766 0.0208,8.12841517 C0.00711111111,8.09800363 0,8.06406043 0,8.03011723 L0,7.97105999 C0,7.93692059 0.00711111111,7.90297739 0.0208,7.87256585 C0.0469333333,7.8133124 2.70773333,2 7.99964444,2 C8.96168208,2 9.83678154,2.19209867 10.6249161,2.50681186 L9.84540323,3.28632476 C9.25673275,3.09853021 8.64152327,3 7.99964444,3 C6.00069588,3 4.26048013,3.95572783 2.77498776,5.58729391 C2.23875679,6.17625436 1.77565053,6.81207462 1.38922761,7.44880045 C1.26244732,7.65770184 1.15484094,7.84888569 1.07395578,8.00059967 C1.15438215,8.15118889 1.26256206,8.34346803 1.38912007,8.55197367 C1.76906188,9.17793178 2.22319542,9.80306528 2.74809539,10.3836326 L2.04016661,11.0915614 Z M8.3616632,4.77006479 L7.25517871,5.87654928 C6.6127949,6.10253312 6.10274625,6.61258357 5.87667697,7.25505102 L4.77002952,8.36169846 C4.75679569,8.24277337 4.75,8.12193121 4.75,7.9995298 C4.75,6.20730852 6.2070688,4.75 7.99905931,4.75 C8.12161223,4.75 8.24259971,4.7568077 8.3616632,4.77006479 Z M11.2213721,7.56721017 C11.2402527,7.70866725 11.25,7.85297826 11.25,7.9995298 C11.25,9.79211122 9.79200657,11.25 7.99905931,11.25 C7.85265899,11.25 7.70849195,11.2402662 7.5671706,11.2214116 L8.62809184,10.1604904 C9.36428186,9.94574124 9.94595933,9.36404079 10.1605969,8.62798537 L11.2213721,7.56721017 Z M1.85355339,14.8535534 C1.65829124,15.0488155 1.34170876,15.0488155 1.14644661,14.8535534 C0.951184464,14.6582912 0.951184464,14.3417088 1.14644661,14.1464466 L14.1464466,1.14644661 C14.3417088,0.951184464 14.6582912,0.951184464 14.8535534,1.14644661 C15.0488155,1.34170876 15.0488155,1.65829124 14.8535534,1.85355339 L1.85355339,14.8535534 Z"/>
</svg>
