<svg xmlns="http://www.w3.org/2000/svg" width="16" height="16" viewBox="0 0 16 16">
  <path d="M7.40165043,3.09834957 C5.93718434,1.63388348 3.56281566,1.63388348 2.09834957,3.09834957 C0.633883476,4.56281566 0.633883476,6.93718434 2.09834957,8.40165043 L7.65592748,13.6727866 L8,13.9991104 L13.8921696,8.41088361 C15.3661165,6.93718434 15.3661165,4.56281566 13.9016504,3.09834957 C12.4371843,1.63388348 10.0628157,1.63388348 8.59834957,3.09834957 L8,3.69669914 L7.40165043,3.09834957 Z M2.79597548,7.68531046 C1.73151455,6.62060185 1.73151455,4.87939815 2.80545635,3.80545635 C3.87939815,2.73151455 5.62060185,2.73151455 6.69454365,3.80545635 L8,5.1109127 L9.30545635,3.80545635 C10.3793982,2.73151455 12.1206018,2.73151455 13.1945436,3.80545635 C14.2684855,4.87939815 14.2684855,6.62060185 13.1945436,7.69454365 L8.00000791,12.6208971 L2.79597548,7.68531046 Z"/>
</svg>
