<svg xmlns="http://www.w3.org/2000/svg" width="16" height="16" viewBox="0 0 16 16">
  <path fill-rule="evenodd" d="M7.49906448,11.5083008 L7.46857143,8 L6.25,8 L6.25,7 L8.65095238,7 L8.68144543,10.5083008 L9.8,10.5083008 L9.8,11.5083008 L7.49906448,11.5083008 Z M7.25,5.30620156 C7.25,5.07467585 7.3188478,4.88242971 7.45654546,4.72945737 C7.59424312,4.57648502 7.79108964,4.5 8.04709092,4.5 C8.3030922,4.5 8.50090841,4.57648502 8.64054548,4.72945737 C8.78018254,4.88242971 8.85000002,5.07467585 8.85000002,5.30620156 C8.85000002,5.53359288 8.78018254,5.72273828 8.64054548,5.87364343 C8.50090841,6.02454858 8.3030922,6.10000002 8.04709092,6.10000002 C7.79108964,6.10000002 7.59424312,6.02454858 7.45654546,5.87364343 C7.3188478,5.72273828 7.25,5.53359288 7.25,5.30620156 Z M8,13 C10.7614237,13 13,10.7614237 13,8 C13,5.23857625 10.7614237,3 8,3 C5.23857625,3 3,5.23857625 3,8 C3,10.7614237 5.23857625,13 8,13 Z M8,14 C4.6862915,14 2,11.3137085 2,8 C2,4.6862915 4.6862915,2 8,2 C11.3137085,2 14,4.6862915 14,8 C14,11.3137085 11.3137085,14 8,14 Z"/>
</svg>
