<svg xmlns="http://www.w3.org/2000/svg" width="16" height="16" viewBox="0 0 16 16">
  <path fill-rule="evenodd" d="M14.5161585,9 L10.5,9 C10.224,9 10,8.776 10,8.5 C10,8.224 10.224,8 10.5,8 L14.5161482,8 L13.109,5.94831536 C12.938,5.69630767 12.972,5.32879646 13.188,5.12695697 C13.405,4.92628418 13.719,4.96828546 13.891,5.21912645 L15.891,8.1347154 C15.957863,8.23316848 15.9938939,8.35072393 15.9990926,8.4696502 C15.9996946,8.47969014 16,8.48980963 16,8.5 C16,8.51067043 15.9996652,8.52126315 15.9990055,8.5317682 C15.9935032,8.64999168 15.9575014,8.76651884 15.891,8.86390432 L13.891,11.7818267 C13.792,11.9253311 13.646,12 13.5,12 C13.39,12 13.28,11.9579987 13.188,11.8728295 C12.972,11.67099 12.938,11.3034787 13.109,11.0526378 L14.5161585,9 Z M3,15 L1,15 C0.448,15 0,14.552 0,14 L0,2 C0,1.448 0.448,1 1,1 L3,1 L8.8,1 C9.074,1 9.337,1.113 9.526,1.312 L11.726,3.74 C11.902,3.926 12,4.173 12,4.429 L12,7 L11,7 L11,5 L8.5,5 C8.224,5 8,4.776 8,4.5 L8,2 L3,2 L3,14 L11,14 L11,10 L12,10 L12,14 C12,14.552 11.552,15 11,15 L3,15 Z M2,14 L2,2 L1,2 L1,14 L2,14 Z"/>
</svg>
