<svg xmlns="http://www.w3.org/2000/svg" width="16" height="16" viewBox="0 0 16 16">
  <path d="M8,8 L4.9146818,8 C4.70873016,8.58284439 4.15285709,9 3.5,9 C2.672,9 2,8.329 2,7.5 C2,6.671 2.672,6 3.5,6 C4.15285709,6 4.70873016,6.41715561 4.9146818,7 L8,7 L8,2.5 C8,1.67158938 8.67112557,1 9.5,1 L12.0853182,1 C12.2912698,0.417155613 12.8471429,0 13.5,0 C14.328,0 15,0.671 15,1.5 C15,2.329 14.328,3 13.5,3 C12.8471429,3 12.2912698,2.58284439 12.0853182,2 L9.5,2 C9.22356503,2 9,2.22371954 9,2.5 L9,8 L9,12.5 C9,12.7762805 9.22356503,13 9.5,13 L12.0853182,13 C12.2912698,12.4171556 12.8471429,12 13.5,12 C14.328,12 15,12.671 15,13.5 C15,14.329 14.328,15 13.5,15 C12.8471429,15 12.2912698,14.5828444 12.0853182,14 L9.5,14 C8.67112557,14 8,13.3284106 8,12.5 L8,8 Z M3.5,3 C2.672,3 2,2.329 2,1.5 C2,0.671 2.672,0 3.5,0 C4.328,0 5,0.671 5,1.5 C5,2.329 4.328,3 3.5,3 Z M3.5,15 C2.672,15 2,14.329 2,13.5 C2,12.671 2.672,12 3.5,12 C4.328,12 5,12.671 5,13.5 C5,14.329 4.328,15 3.5,15 Z M13.5,9 C12.672,9 12,8.329 12,7.5 C12,6.671 12.672,6 13.5,6 C14.328,6 15,6.671 15,7.5 C15,8.329 14.328,9 13.5,9 Z"/>
</svg>
