<svg width="16" height="16" viewBox="0 0 16 16" fill="none" xmlns="http://www.w3.org/2000/svg">
<path fill-rule="evenodd" clip-rule="evenodd" d="M7.13872 14L7.08651 7.99289H5V6.28064H9.11104L9.16325 12.2877H11.0785V14H7.13872ZM6.71226 3.38042C6.71226 2.98399 6.83014 2.65482 7.06591 2.39289C7.30169 2.13096 7.63874 2 8.07708 2C8.51542 2 8.85413 2.13096 9.09322 2.39289C9.33232 2.65482 9.45186 2.98399 9.45186 3.38042C9.45186 3.76977 9.33232 4.09364 9.09322 4.35203C8.85413 4.61042 8.51542 4.73961 8.07708 4.73961C7.63874 4.73961 7.30169 4.61042 7.06591 4.35203C6.83014 4.09364 6.71226 3.76977 6.71226 3.38042Z" />
</svg>
