<svg fill="none" xmlns="http://www.w3.org/2000/svg" width="16" height="16" viewBox="0 0 16 16">
  <path d="M11 6a1 1 0 1 1-2 0 1 1 0 0 1 2 0Z"/>
  <path fill-rule="evenodd" clip-rule="evenodd" d="M10.355 1.791A3.5 3.5 0 0 1 12.57 1H14a1 1 0 0 1 1 1v1.43a3.5 3.5 0 0 1-.791 2.215l-3.144 3.843a2.5 2.5 0 0 0-.565 1.583v1.636l-1.646 1.647a.5.5 0 0 1-.557.103l-.634-.282a11.5 11.5 0 0 1-5.838-5.838l-.282-.634a.5.5 0 0 1 .103-.557L3.293 5.5h1.636a2.5 2.5 0 0 0 1.583-.565l3.843-3.144ZM12.57 2a2.5 2.5 0 0 0-1.583.565L7.145 5.71A3.5 3.5 0 0 1 4.93 6.5H3.707l-1.11 1.11.142.32a10.498 10.498 0 0 0 1.825 2.799l2.082-2.083a.5.5 0 1 1 .708.708L5.27 11.436a10.496 10.496 0 0 0 2.798 1.825l.32.143L9.5 12.293V11.07a3.5 3.5 0 0 1 .791-2.216l3.144-3.843A2.5 2.5 0 0 0 14 3.43V2h-1.43Z"/>
  <path d="M1.9 10.7a.5.5 0 0 0-.88.163l-1 3.5A.5.5 0 0 0 0 14.5v1a.5.5 0 0 0 .5.5h1a.502.502 0 0 0 .137-.02l3.5-1a.5.5 0 0 0 .163-.88l-1.314-.986a5.5 5.5 0 0 1-1.1-1.1L1.9 10.7Z"/>
</svg>