<svg xmlns="http://www.w3.org/2000/svg" width="16" height="16" viewBox="0 0 16 16">
  <path fill-rule="evenodd" d="M5 3l3 9H7L6 9H3l-1 3H1l3-9h1zm-.5 1.5L5.667 8H3.333L4.5 4.5zM12.49 6.147C12.16 6.005 11.76 6 11.5 6c-.359 0-1.022.175-1.632.838l-.736-.676C9.929 5.294 10.859 5 11.5 5h.016c.25 0 .836 0 1.369.228.281.12.568.313.782.617.216.307.333.693.333 1.155v5h-1v-.354a2.101 2.101 0 01-.064.038c-.554.317-1.166.316-1.42.316h-.032c-.25 0-.836 0-1.368-.228a1.81 1.81 0 01-.783-.617C9.117 10.848 9 10.462 9 10c0-.462.117-.848.333-1.155.214-.304.5-.496.783-.617C10.648 8 11.233 8 11.484 8h.016c.258 0 .69-.003 1.05-.106a.889.889 0 00.364-.179c.053-.05.086-.108.086-.215V7c0-.288-.07-.465-.151-.58a.814.814 0 00-.358-.273zM13 8.8c-.06.022-.118.04-.175.057C12.32 9 11.762 9 11.513 9H11.5c-.259 0-.66.005-.99.147a.814.814 0 00-.359.274c-.08.114-.151.291-.151.579s.07.465.151.58a.813.813 0 00.358.273c.331.142.732.147.991.147.257 0 .63-.008.94-.184.255-.146.56-.463.56-1.316v-.701z"/>
</svg>
