<svg xmlns="http://www.w3.org/2000/svg" width="16" height="16" viewBox="0 0 16 16">
  <path d="M11.1428571,5 C11.616,5 12,5.448 12,6 L12,15 C12,15.552 11.616,16 11.1428571,16 L0.857142857,16 C0.384,16 0,15.552 0,15 L0,6 C0,5.448 0.384,5 0.857142857,5 L8,5 L8,4.2 C8,1.88040405 9.790861,-1.0658141e-14 12,-1.0658141e-14 C14.209139,-1.0658141e-14 16,1.88040405 16,4.2 L16,5 L15,5 L15,4.36 C15,2.50432324 13.6568542,1 12,1 C10.3431458,1 9,2.50432324 9,4.36 L9,5 L11.1428571,5 Z M1,15 L11,15 L11,6 L1,6 L1,15 Z M6.99769447,11.2944667 L7.5,12.5 L4.5,12.5 L5.00230553,11.2944667 C4.69414445,11.0013648 4.5,10.5747193 4.5,10.1 C4.5,9.2168 5.172,8.5 6,8.5 C6.828,8.5 7.5,9.2168 7.5,10.1 C7.5,10.5747193 7.30585555,11.0013648 6.99769447,11.2944667 Z"/>
</svg>
