<svg xmlns="http://www.w3.org/2000/svg" width="32" height="32" viewBox="0 0 32 32">
  <path fill="#00BFB3" fill-rule="evenodd" d="M16 0c-2.918 0-5.645.794-8 2.158 4.777 2.768 8 7.923 8 13.842 0 5.919-3.223 11.074-8 13.842A15.907 15.907 0 0016 32c8.837 0 16-7.163 16-16S24.837 0 16 0z" clip-rule="evenodd"/>
  <path fill="#FEC514" fill-rule="evenodd" d="M8 24h2.222A12.996 12.996 0 0013 16c0-2.935-1.012-5.744-2.778-8H8a8 8 0 000 16z" clip-rule="evenodd"/>
  <path class="euiIcon__fillNegative" fill-rule="evenodd" d="M16 8h-2.152A15.877 15.877 0 0116 16c0 2.918-.786 5.647-2.152 8H16a8 8 0 000-16z" clip-rule="evenodd"/>
</svg>