<svg data-type="logoElastic" xmlns="http://www.w3.org/2000/svg" width="32" height="32" fill="none" viewBox="0 0 32 32">
<path class="outline" fill-rule="evenodd" clip-rule="evenodd" d="M30.86 13.129C31.6052 14.1966 32.0033 15.468 32 16.77C31.9936 18.0773 31.5882 19.3514 30.838 20.422C30.0894 21.4906 29.0312 22.3042 27.806 22.753C28.1629 23.7335 28.1929 24.8031 27.8916 25.802C27.5902 26.8009 26.9736 27.6755 26.134 28.295C25.295 28.9116 24.2778 29.238 23.2366 29.2246C22.1955 29.2113 21.187 28.8589 20.364 28.221C19.2541 29.7774 17.6783 30.9407 15.864 31.543C14.0515 32.1444 12.0945 32.1525 10.277 31.566C8.45799 30.978 6.87298 29.8269 5.75104 28.279C4.62651 26.7284 4.02194 24.8615 4.02404 22.946C4.02379 22.3673 4.07735 21.7898 4.18404 21.221C2.9552 20.7806 1.89335 19.9696 1.14504 18.9C0.39516 17.828 -0.00478353 16.5502 4.31788e-05 15.242C0.00682072 13.9346 0.412573 12.6605 1.16304 11.59C1.9127 10.5213 2.97195 9.70809 4.19804 9.25999C3.83609 8.27903 3.80204 7.20715 4.10098 6.20519C4.39993 5.20323 5.01576 4.32525 5.85604 3.70299C6.69557 3.08341 7.71447 2.75496 8.7578 2.7676C9.80112 2.78023 10.8118 3.13326 11.636 3.77299C12.8377 2.09509 14.5774 0.879022 16.566 0.326994C18.5531 -0.223542 20.6689 -0.0756406 22.56 0.745994C24.4535 1.56929 26.0085 3.01527 26.967 4.84399C27.9275 6.67533 28.2354 8.77923 27.84 10.809C29.062 11.2522 30.1169 12.0625 30.86 13.129ZM12.58 13.787L19.582 16.998L26.648 10.785C26.7504 10.2723 26.8013 9.75076 26.8 9.22799C26.8008 7.536 26.2612 5.88798 25.26 4.52399C24.2612 3.16246 22.8523 2.15694 21.24 1.65499C19.6293 1.15439 17.9004 1.18454 16.308 1.74099C14.7135 2.29846 13.3396 3.35235 12.388 4.74799L11.214 10.866L12.581 13.786L12.58 13.787ZM5.33304 21.228C5.11173 22.3171 5.12081 23.4404 5.35968 24.5258C5.59856 25.6111 6.06194 26.6345 6.72004 27.53C7.72432 28.8958 9.14043 29.9032 10.76 30.404C12.3777 30.9036 14.1132 30.8696 15.71 30.307C17.3093 29.7433 18.6854 28.6812 19.636 27.277L20.802 21.175L19.247 18.19L12.217 14.979L5.33204 21.227L5.33304 21.228ZM10.088 10.204L5.28804 9.06699L5.29004 9.06499C5.01232 8.29395 4.98993 7.45402 5.22618 6.66928C5.46244 5.88453 5.9448 5.19657 6.60204 4.70699C7.25933 4.21987 8.05676 3.95883 8.87487 3.96298C9.69298 3.96713 10.4877 4.23624 11.14 4.72999L10.088 10.204ZM4.87204 10.214C3.83333 10.5581 2.92676 11.2156 2.27704 12.096C1.62569 12.9779 1.2625 14.0394 1.23708 15.1355C1.21167 16.2316 1.52527 17.3088 2.13504 18.22C2.74404 19.13 3.61904 19.83 4.64004 20.22L11.373 14.119L10.138 11.469L4.87204 10.214ZM23.158 28.062C22.3305 28.0606 21.5268 27.7845 20.873 27.277L21.91 21.823L26.71 22.948C26.9197 23.5223 26.9882 24.1387 26.9097 24.745C26.8312 25.3514 26.608 25.93 26.259 26.432C25.9119 26.9336 25.4486 27.3438 24.9086 27.6276C24.3686 27.9114 23.7681 28.0604 23.158 28.062ZM21.848 20.563L27.128 21.801C28.1827 21.4441 29.0995 20.7665 29.75 19.863C30.4021 18.958 30.7562 17.8724 30.763 16.757C30.7628 15.6821 30.4364 14.6325 29.827 13.747C29.2187 12.8626 28.3554 12.1845 27.352 11.803L20.448 17.873L21.848 20.563Z" fill="white"/>
<path d="M12.58 13.787L19.582 16.998L26.648 10.785C26.7504 10.2724 26.8013 9.75076 26.8 9.228C26.8007 7.53601 26.2612 5.88799 25.26 4.524C24.2612 3.16247 22.8523 2.15694 21.24 1.655C19.6293 1.1544 17.9003 1.18455 16.308 1.741C14.7135 2.29847 13.3396 3.35236 12.388 4.748L11.214 10.866L12.581 13.786L12.58 13.787Z" fill="#FEC514"/>
<path d="M5.333 21.228C5.11169 22.3171 5.12076 23.4404 5.35964 24.5258C5.59851 25.6111 6.0619 26.6345 6.72 27.53C7.72427 28.8958 9.14039 29.9032 10.76 30.404C12.3777 30.9036 14.1131 30.8696 15.71 30.307C17.3093 29.7433 18.6854 28.6812 19.636 27.277L20.802 21.175L19.247 18.19L12.217 14.979L5.332 21.227L5.333 21.228Z" fill="#00BFB3"/>
<path d="M5.288 9.067L10.088 10.204L11.14 4.73C10.4877 4.23624 9.69294 3.96713 8.87483 3.96299C8.05672 3.95884 7.25929 4.21988 6.602 4.707C5.94476 5.19657 5.46239 5.88454 5.22614 6.66928C4.98989 7.45403 5.01228 8.29395 5.29 9.065" fill="#F04E98"/>
<path d="M4.872 10.214C3.83329 10.5581 2.92672 11.2156 2.277 12.096C1.62565 12.9779 1.26245 14.0394 1.23704 15.1355C1.21162 16.2316 1.52522 17.3088 2.135 18.22C2.744 19.13 3.619 19.83 4.64 20.22L11.373 14.119L10.138 11.469L4.872 10.214V10.214Z" fill="#1BA9F5"/>
<path d="M20.873 27.277C21.5267 27.7845 22.3304 28.0606 23.158 28.062C23.768 28.0605 24.3686 27.9114 24.9086 27.6276C25.4485 27.3438 25.9118 26.9336 26.259 26.432C26.608 25.93 26.8312 25.3514 26.9096 24.745C26.9881 24.1387 26.9197 23.5223 26.71 22.948L21.91 21.823L20.873 27.277Z" fill="#93C90E"/>
<path d="M21.848 20.563L27.128 21.801C28.1827 21.4441 29.0994 20.7666 29.75 19.863C30.4021 18.958 30.7561 17.8724 30.763 16.757C30.7627 15.6821 30.4364 14.6325 29.827 13.747C29.2187 12.8626 28.3553 12.1845 27.352 11.803L20.448 17.873L21.848 20.563V20.563Z" fill="#0077CC"/>
</svg>

