<svg xmlns="http://www.w3.org/2000/svg" xmlns:xlink="http://www.w3.org/1999/xlink" width="32" height="32" viewBox="0 0 32 32">
  <defs>
    <rect id="logogcp-a" width="4.549" height="6.291" x=".085" y=".1"/>
  </defs>
  <g fill="none" fill-rule="evenodd" transform="translate(0 2)">
    <path fill="#DB4437" fill-rule="nonzero" d="M22.5707355,27.9822464 L16.8213677,27.9813333 C17.3478194,27.9813333 17.8075871,27.7001159 18.0535742,27.2823478 L25.8572387,14 L20.9288258,5.61065217 L26.6773677,5.61095652 C27.1686194,5.61136232 27.6462452,5.86214493 27.909471,6.31024638 L31.6068129,12.6021304 C32.0971355,13.4386812 32.1328516,14.5023768 31.6064,15.3985797 L25.0351484,26.5843768 C24.5431742,27.4200145 23.6237419,27.9822464 22.5707355,27.9822464 Z M21.8594065,25.186 C21.8594065,25.5720145 22.1779613,25.885087 22.5707355,25.885087 C22.9636129,25.885087 23.2820645,25.5720145 23.2820645,25.186 C23.2820645,24.7998841 22.9636129,24.486913 22.5707355,24.486913 C22.1779613,24.486913 21.8594065,24.7998841 21.8594065,25.186 Z M28.7867871,14.6057536 C29.1269161,14.7987101 29.5619097,14.6841739 29.7583484,14.3498986 C29.9546839,14.0156232 29.8381419,13.5882174 29.4980129,13.3951594 C29.1577806,13.2022029 28.7228903,13.3166377 28.5264516,13.6510145 C28.3301161,13.9852899 28.4466581,14.4127971 28.7867871,14.6057536 Z"/>
    <path fill="#4285F4" fill-rule="nonzero" d="M25.0356645,1.41633333 L27.909471,6.31024638 C27.6462452,5.86204348 27.1687226,5.61136232 26.677471,5.61095652 L11.0713806,5.61024638 L6.14296774,13.9994928 L3.26895484,9.10669565 C3.02369032,8.68842029 3.00583226,8.15652174 3.26905806,7.70831884 L6.96474839,1.41562319 C7.45682581,0.579884058 8.37625806,0.0176521739 9.42926452,0.0176521739 L22.5715613,0.0177536232 C23.5539613,0.0186666667 24.5091097,0.520028986 25.0356645,1.41633333 Z M10.1404903,2.814 C10.1404903,2.42788406 9.82203871,2.11491304 9.42916129,2.11491304 C9.0363871,2.11491304 8.71783226,2.42788406 8.71783226,2.814 C8.71783226,3.20011594 9.0363871,3.51308696 9.42916129,3.51308696 C9.82203871,3.51308696 10.1404903,3.20011594 10.1404903,2.814 Z M22.9272774,3.41985507 L22.9271742,3.41985507 C23.2673032,3.2267971 23.3838452,2.7993913 23.1874065,2.46501449 C22.991071,2.13073913 22.5560774,2.0162029 22.2159484,2.20926087 C21.8757161,2.40221739 21.7592774,2.82972464 21.9556129,3.164 C22.1520516,3.49827536 22.5869419,3.61281159 22.9272774,3.41985507 Z"/>
    <path fill="#F4B400" fill-rule="nonzero" d="M0.3936,12.6013188 L0.393496774,12.6013188 L3.26905806,7.70842029 C3.00572903,8.15652174 3.0235871,8.68842029 3.26885161,9.10669565 L11.0713806,22.3896522 L20.9281032,22.3896522 L18.0536774,27.2822464 C17.8075871,27.7001159 17.3479226,27.9813333 16.8213677,27.9813333 L9.42833548,27.9821449 C8.44603871,27.9813333 7.49089032,27.4798696 6.96433548,26.5835652 L0.393083871,15.3977681 C-0.0972387097,14.5612174 -0.132954839,13.4976232 0.3936,12.6013188 Z M3.2132129,13.3942464 C2.87298065,13.2011884 2.43809032,13.3157246 2.24165161,13.65 C2.04531613,13.9843768 2.16185806,14.4117826 2.5019871,14.6048406 C2.84211613,14.7978986 3.27710968,14.6833623 3.47344516,14.3489855 C3.66988387,14.0147101 3.55334194,13.5872029 3.2132129,13.3942464 Z M9.07282581,24.5802464 C8.73269677,24.7732029 8.61605161,25.2007101 8.81249032,25.5349855 C9.00882581,25.8693623 9.44381935,25.9838986 9.78405161,25.7908406 C10.1241806,25.5978841 10.2407226,25.1703768 10.0442839,24.8361014 C9.84794839,24.5018261 9.41295484,24.3872899 9.07282581,24.5802464 Z"/>
    <path fill="#000" d="M1.33109677,4.9634058 L4.20562581,0.0709130435 L1.23695484,0.0709130435 L0.0987870968,5.66249275 C0.625341935,5.66249275 1.08510968,5.38127536 1.33109677,4.9634058" opacity=".1" transform="translate(16.723 22.319)"/>
    <path fill="#000" d="M5.82575484,0.0312463768 L0.0772129032,0.0310434783 L1.56149677,2.55763768 L7.05785806,0.730536232 C6.79452903,0.282434783 6.31700645,0.0316521739 5.82575484,0.0312463768" opacity=".1" transform="translate(20.852 5.58)"/>
    <g opacity=".1" transform="translate(2.994 7.609)">
      <mask id="logogcp-b" fill="#fff">
        <use xlink:href="#logogcp-a"/>
      </mask>
      <path fill="#000" d="M0.275406452,1.498 L3.14931613,6.3907971 L4.63370323,3.8642029 L0.275406452,0.0997246377 C0.012283871,0.547826087 0.0301419355,1.07972464 0.275406452,1.498" mask="url(#logogcp-b)"/>
    </g>
    <path fill="#CCC" fill-rule="nonzero" d="M11.0713806,22.3897536 L6.14265806,14 L11.0713806,5.61024638 L20.9286194,5.61024638 L25.8572387,14 L20.9286194,22.3897536 L11.0713806,22.3897536 Z M20.267871,14 C20.267871,11.6834058 18.3570581,9.80557971 16,9.80557971 C13.6429419,9.80557971 11.732129,11.6834058 11.732129,14 C11.732129,16.3164928 13.6429419,18.1944203 16,18.1944203 C18.3570581,18.1944203 20.267871,16.3164928 20.267871,14 Z"/>
  </g>
</svg>
