<svg xmlns="http://www.w3.org/2000/svg" xmlns:xlink="http://www.w3.org/1999/xlink" width="32" height="32" viewBox="0 0 32 32">
  <defs>
    <path id="logo_php-a" d="M0.0279746144,7.85441096 C0.0279746144,3.53324759 6.68738537,0.0301803052 14.9018619,0.0301803052 C23.1163384,0.0301803052 29.775803,3.53324759 29.775803,7.85441096 C29.775803,12.1755205 23.1163384,15.6786416 14.9018619,15.6786416 C6.68738537,15.6786416 0.0279746144,12.1755205 0.0279746144,7.85441096"/>
    <radialGradient id="logo_php-c" cx="30.02%" cy="82.422%" r="124.814%" fx="30.02%" fy="82.422%" gradientTransform="matrix(.52604 0 0 1 .142 0)">
      <stop offset="0%" stop-color="#AEB2D5"/>
      <stop offset="30%" stop-color="#AEB2D5"/>
      <stop offset="75%" stop-color="#484C89"/>
      <stop offset="100%" stop-color="#484C89"/>
    </radialGradient>
    <polygon id="logo_php-d" points="0 17.43 30.987 17.43 30.987 0 0 0"/>
    <polygon id="logo_php-f" points="0 17.43 30.987 17.43 30.987 0 0 0"/>
  </defs>
  <g fill="none" fill-rule="evenodd" transform="matrix(1 0 0 -1 .026 25.413)">
    <g transform="translate(.592 .86)">
      <mask id="logo_php-b" fill="#fff">
        <use xlink:href="#logo_php-a"/>
      </mask>
      <g fill="url(#logo_php-c)" fill-rule="nonzero" mask="url(#logo_php-b)">
        <path d="M0.0279746144,7.85441096 C0.0279746144,3.53324759 6.68738537,0.0301803052 14.9018619,0.0301803052 C23.1163384,0.0301803052 29.775803,3.53324759 29.775803,7.85441096 C29.775803,12.1755205 23.1163384,15.6786416 14.9018619,15.6786416 C6.68738537,15.6786416 0.0279746144,12.1755205 0.0279746144,7.85441096"/>
      </g>
    </g>
    <mask id="logo_php-e" fill="#fff">
      <use xlink:href="#logo_php-d"/>
    </mask>
    <g mask="url(#logo_php-e)">
      <path fill="#777BB3" fill-rule="nonzero" d="M14.3100912,0 C22.2037204,0 28.6029673,3.24295717 28.6029673,7.24332703 C28.6029673,11.2436431 22.2037204,14.4866541 14.3100912,14.4866541 C6.41646198,14.4866541 0.0172151473,11.2436431 0.0172151473,7.24332703 C0.0172151473,3.24295717 6.41646198,0 14.3100912,0" transform="translate(1.184 1.472)"/>
    </g>
    <g>
      <mask id="logo_php-g" fill="#fff">
        <use xlink:href="#logo_php-f"/>
      </mask>
      <g mask="url(#logo_php-g)">
        <g transform="translate(4.95 3.981)">
          <path fill="#000" fill-rule="nonzero" d="M3.60442147,3.6582188 C4.25348632,3.6582188 4.73803892,3.77791788 5.04462993,4.01387299 C5.34793931,4.24740722 5.55742613,4.65201698 5.66722649,5.21640483 C5.76960282,5.7439415 5.73059976,6.11229185 5.55134704,6.31107301 C5.36805951,6.51410415 4.97178834,6.61707225 4.37356197,6.61707225 L3.33629555,6.61707225 L2.76125584,3.6582188 L3.60442147,3.6582188 Z M0.21180011,0.0134493338 C0.163651494,0.0134493338 0.11792376,0.034968268 0.0873130753,0.072196024 C0.0566485941,0.109369983 0.0442214096,0.158325558 0.053420754,0.205613416 L1.57739167,8.04662884 C1.59213214,8.12242928 1.65857185,8.17719498 1.73582482,8.17719498 L5.02036733,8.17719498 C6.0526306,8.17719498 6.82096415,7.89691086 7.30390283,7.34403564 C7.78942378,6.78825537 7.93935696,6.01136805 7.74950615,5.03500021 C7.67225319,4.63722271 7.53937377,4.26779641 7.35457992,3.9370504 C7.16957088,3.6059278 6.92506199,3.29955197 6.62772412,3.02626151 C6.27180095,2.6931484 5.86896651,2.45159837 5.43148657,2.30946581 C5.00094649,2.16921616 4.44801748,2.09809608 3.78808558,2.09809608 L2.45810785,2.09809608 L2.07829866,0.144069264 C2.06355819,0.0682150212 1.99717228,0.0134493338 1.9199193,0.0134493338 L0.21180011,0.0134493338 Z" transform="translate(.147 .178)"/>
          <path fill="#FFF" fill-rule="nonzero" d="M3.60442147,6.61707225 L4.50864708,6.61707225 C5.23066112,6.61707225 5.4814643,6.4586391 5.56667927,6.36422478 C5.70805868,6.20745934 5.73474215,5.8769285 5.64387845,5.40840752 C5.54177111,4.88388349 5.35251209,4.51198252 5.08126592,4.30314126 C4.80356407,4.08935065 4.35209683,3.98100281 3.73950658,3.98100281 L3.09210944,3.98100281 L3.60442147,6.61707225 Z M5.15545244,8.49997899 L1.87085614,8.49997899 C1.71635019,8.49997899 1.58352457,8.39044761 1.55404363,8.23879292 L0.0300727105,0.397777497 C0.0116740218,0.303147984 0.0365283907,0.205290632 0.0978035559,0.130888917 C0.159132518,0.0564872021 0.250480394,0.0134493338 0.346885218,0.0134493338 L2.05495061,0.0134493338 C2.20951036,0.0134493338 2.34233598,0.122980709 2.37181692,0.274635397 L2.72623376,2.09809608 L3.92317068,2.09809608 C4.60004876,2.09809608 5.16987013,2.17190603 5.616657,2.31742781 C6.07614004,2.46671542 6.49887951,2.71983188 6.87303997,3.06972976 C7.18248224,3.35442525 7.43737402,3.67398142 7.63050645,4.0196293 C7.82369268,4.36538478 7.9624898,4.75095028 8.04302442,5.16562014 C8.24288152,6.19336443 8.08052116,7.01635607 7.56051612,7.61156979 C7.04556802,8.20108099 6.23634851,8.49997899 5.15545244,8.49997899 Z M2.70051864,3.6582188 L3.73950658,3.6582188 C4.42816626,3.6582188 4.94112386,3.78792418 5.27816417,4.04738873 C5.61525827,4.30690707 5.84260581,4.74002942 5.96074476,5.34697096 C6.07377296,5.92970369 6.02228891,6.34093052 5.80629261,6.58049006 C5.59002732,6.82004959 5.15755054,6.93985626 4.50864708,6.93985626 L3.33833985,6.93985626 L2.70051864,3.6582188 Z M5.15545244,8.17719498 C6.1435481,8.17719498 6.8643786,7.91789182 7.31745975,7.39923171 C7.77048712,6.8805716 7.90691716,6.15662086 7.72615811,5.2271643 C7.6517564,4.84428866 7.52592443,4.49422939 7.3487698,4.1770941 C7.17139999,3.85974362 6.93980246,3.5695608 6.65360064,3.30643803 C6.31252554,2.98725843 5.9336309,2.75980331 5.51670155,2.62434161 C5.0997722,2.48850334 4.56873871,2.42088009 3.92317068,2.42088009 L2.46009835,2.42088009 L2.05495061,0.336233346 L0.346885218,0.336233346 L1.87085614,8.17719498 L5.15545244,8.17719498 Z" transform="translate(.012 .017)"/>
          <path fill="#000" fill-rule="nonzero" d="M4.35758416,0 C4.30938175,0 4.26370781,0.0215189341 4.23309712,0.0587466902 C4.20237885,0.0959206489 4.18995167,0.144822427 4.19915101,0.192164081 L4.87328542,3.66150044 C4.93741184,3.9914395 4.92159542,4.22825537 4.82879503,4.32831841 C4.77198504,4.38948598 4.60133989,4.4920775 4.09677468,4.4920775 L2.87546758,4.4920775 L2.02789056,0.13061993 C2.01315009,0.0547656874 1.94671038,0 1.86945741,0 L0.17484134,0 C0.126638928,0 0.0809649897,0.0215189341 0.0503005085,0.0587466902 C0.0196360274,0.0959206489 0.00720884294,0.144876224 0.0164081872,0.192164081 L1.5403791,8.03317951 C1.55511957,8.10897996 1.62155928,8.16374564 1.69881226,8.16374564 L3.39342832,8.16374564 C3.44163073,8.16374564 3.48730467,8.14222671 3.51796915,8.10505274 C3.54863363,8.06782499 3.56106082,8.01892321 3.55186147,7.97158156 L3.18410288,6.0790989 L4.49794141,6.0790989 C5.49884083,6.0790989 6.17754801,5.90264364 6.57285084,5.53961922 C6.97579288,5.16927836 7.10151726,4.57713109 6.94658093,3.7794242 L6.23753204,0.13061993 C6.22279157,0.0547656874 6.15640566,0 6.0790989,0 L4.35758416,0 Z" transform="translate(7.455 2.276)"/>
          <path fill="#FFF" fill-rule="nonzero" d="M3.55062414,8.49997899 L1.85600807,8.49997899 C1.70144833,8.49997899 1.5686227,8.39044761 1.53914176,8.23879292 L0.0151708486,0.397777497 C-0.00322784012,0.303147984 0.0216265288,0.205290632 0.0829554911,0.130888917 C0.144284454,0.0564872021 0.235632329,0.0134493338 0.332037154,0.0134493338 L2.02665322,0.0134493338 C2.18115917,0.0134493338 2.31403858,0.122980709 2.34351952,0.274635397 L3.16570419,4.50552684 L4.25397049,4.50552684 C4.75767495,4.50552684 4.86338672,4.39793217 4.8676367,4.39330559 C4.89819359,4.36043542 4.9383802,4.20818896 4.87204808,3.86711386 L4.19791367,0.397777497 C4.17951499,0.303147984 4.20436935,0.205290632 4.26569832,0.130888917 C4.32702728,0.0564872021 4.41837516,0.0134493338 4.51477998,0.0134493338 L6.23629471,0.0134493338 C6.39080066,0.0134493338 6.52368008,0.122980709 6.55316102,0.274635397 L7.26215609,3.92343967 C7.42855125,4.77994704 7.2862035,5.42244862 6.83925524,5.83324507 C6.41274996,6.22494347 5.69832136,6.41533224 4.65513722,6.41533224 L3.53701341,6.41533224 L3.86749043,8.11559702 C3.88583533,8.21022654 3.86103475,8.30813769 3.79970579,8.3824856 C3.73837683,8.45688732 3.64702896,8.49997899 3.55062414,8.49997899 M3.55062414,8.17719498 L3.1454764,6.09254823 L4.65513722,6.09254823 C5.60503677,6.09254823 6.26023452,5.92674484 6.62083806,5.59556845 C6.9814416,5.26417686 7.08946665,4.72722566 6.94534359,3.98498382 L6.23629471,0.336233346 L4.51477998,0.336233346 L5.18891439,3.80551591 C5.26562939,4.20017316 5.23743958,4.46937503 5.10423738,4.61290632 C4.97098138,4.7564376 4.68752322,4.82831085 4.25397049,4.82831085 L2.89956879,4.82831085 L2.02665322,0.336233346 L0.332037154,0.336233346 L1.85600807,8.17719498 L3.55062414,8.17719498" transform="translate(7.298 2.101)"/>
          <path fill="#000" fill-rule="nonzero" d="M3.60442147,3.6582188 C4.25348632,3.6582188 4.73803892,3.77791788 5.04462993,4.01387299 C5.34793931,4.24735343 5.55742613,4.65196318 5.66728029,5.21640483 C5.76965662,5.7439415 5.73065356,6.11229185 5.55134704,6.31107301 C5.36805951,6.51410415 4.97178834,6.61707225 4.37356197,6.61707225 L3.33629555,6.61707225 L2.76125584,3.6582188 L3.60442147,3.6582188 Z M0.211853906,0.0134493338 C0.163705292,0.0134493338 0.117977556,0.034968268 0.0873668726,0.072196024 C0.0567023915,0.109369983 0.0442214096,0.158325558 0.053420754,0.205613416 L1.57739167,8.04662884 C1.59218594,8.12242928 1.65857185,8.17719498 1.73587862,8.17719498 L5.02036733,8.17719498 C6.0526844,8.17719498 6.82096415,7.89691086 7.30395663,7.34403564 C7.78947758,6.78830917 7.93935696,6.01142185 7.74955995,5.03500021 C7.67219939,4.63722271 7.53937377,4.26779641 7.35457992,3.9370504 C7.16957088,3.6059278 6.92506199,3.29955197 6.62772412,3.02626151 C6.27180095,2.6931484 5.86896651,2.45159837 5.43148657,2.30946581 C5.00094649,2.16921616 4.44801748,2.09809608 3.78808558,2.09809608 L2.45805405,2.09809608 L2.07840625,0.144069264 C2.06361199,0.0682150212 1.99722608,0.0134493338 1.9199193,0.0134493338 L0.211853906,0.0134493338 Z" transform="translate(13.479 .178)"/>
          <path fill="#FFF" fill-rule="nonzero" d="M3.60442147,6.61707225 L4.50864708,6.61707225 C5.23066112,6.61707225 5.4814643,6.4586391 5.56667927,6.36422478 C5.70811247,6.20745934 5.73479595,5.8769285 5.64387845,5.40846131 C5.54177111,4.88388349 5.35245829,4.51198252 5.08126592,4.30314126 C4.80356407,4.08935065 4.35209683,3.98100281 3.73950658,3.98100281 L3.09216324,3.98100281 L3.60442147,6.61707225 Z M5.15545244,8.49997899 L1.87090993,8.49997899 C1.71640399,8.49997899 1.58357837,8.39044761 1.55409743,8.23879292 L0.0301265078,0.397777497 C0.0117278192,0.303147984 0.036582188,0.205290632 0.0978573527,0.130888917 C0.159186316,0.0564872021 0.250534191,0.0134493338 0.346939016,0.0134493338 L2.05500441,0.0134493338 C2.20951036,0.0134493338 2.34238978,0.122980709 2.37187072,0.274635397 L2.72623376,2.09809608 L3.92317068,2.09809608 C4.60004876,2.09809608 5.16987013,2.17190603 5.616657,2.31742781 C6.07614004,2.46671542 6.49898709,2.71988568 6.87314757,3.06983734 C7.18258984,3.35447905 7.43737402,3.67398142 7.63050645,4.0196293 C7.82369268,4.36538478 7.9624898,4.75095028 8.04302442,5.16562014 C8.24288152,6.19341823 8.08052116,7.01640987 7.56051612,7.61162358 C7.04556802,8.20108099 6.23640231,8.49997899 5.15545244,8.49997899 Z M2.70057244,3.6582188 L3.73950658,3.6582188 C4.42816626,3.6582188 4.94112386,3.78792418 5.27816417,4.04738873 C5.61531207,4.30690707 5.84260581,4.74002942 5.96074476,5.34697096 C6.07382675,5.92970369 6.02234271,6.34093052 5.80629261,6.58049006 C5.59002732,6.82004959 5.15755054,6.93985626 4.50864708,6.93985626 L3.33833985,6.93985626 L2.70057244,3.6582188 Z M5.15545244,8.17719498 C6.1435481,8.17719498 6.8643786,7.91789182 7.31745975,7.39923171 C7.77054092,6.8805716 7.90691716,6.15662086 7.72615811,5.2271643 C7.6517564,4.84428866 7.52592443,4.49422939 7.3487698,4.1770941 C7.17139999,3.85974362 6.93980246,3.5695608 6.65360064,3.30643803 C6.31252554,2.98725843 5.9336309,2.75980331 5.51670155,2.62434161 C5.0997722,2.48850334 4.56873871,2.42088009 3.92317068,2.42088009 L2.46009835,2.42088009 L2.05500441,0.336233346 L0.346939016,0.336233346 L1.87090993,8.17719498 L5.15545244,8.17719498 Z" transform="translate(13.344 .017)"/>
        </g>
      </g>
    </g>
  </g>
</svg>
