<svg xmlns="http://www.w3.org/2000/svg" width="32" height="32" viewBox="0 0 32 32">
  <g transform="translate(0 2)">
    <path d="M20.2558968,13.9822464 C20.2558968,11.6657536 18.3452903,9.78782609 15.9882323,9.78782609 C13.631071,9.78782609 11.7203613,11.6657536 11.7203613,13.9822464 C11.7203613,16.2987391 13.631071,18.1766667 15.9882323,18.1766667 C18.3452903,18.1766667 20.2558968,16.2987391 20.2558968,13.9822464"/>
    <path d="M29.8703484,14.5432609 C29.6343742,14.9448986 29.1120516,15.0824638 28.7033806,14.8505507 C28.2947097,14.6187391 28.1546323,14.1052029 28.3906065,13.7036667 C28.6264774,13.302029 29.1490065,13.1643623 29.5576774,13.3962754 C29.9663484,13.6281884 30.1063226,14.1417246 29.8703484,14.5432609 M22.5587613,26.1487536 C22.0869161,26.1487536 21.7044645,25.7727826 21.7044645,25.309058 C21.7044645,24.8451304 22.0869161,24.4691594 22.5587613,24.4691594 C23.0307097,24.4691594 23.413471,24.8451304 23.413471,25.309058 C23.413471,25.7727826 23.0307097,26.1487536 22.5587613,26.1487536 M9.84381935,26.0355362 C9.43514839,26.2673478 8.91251613,26.1297826 8.67654194,25.7281449 C8.44056774,25.3265072 8.58074839,24.8130725 8.98941935,24.5811594 C9.39809032,24.3492464 9.9204129,24.486913 10.1563871,24.8885507 C10.3922581,25.290087 10.2523871,25.8036232 9.84381935,26.0355362 M3.58565161,14.5423478 C3.34978065,14.9438841 2.82735484,15.0815507 2.41858065,14.8496377 C2.00990968,14.6177246 1.86983226,14.1041884 2.10590968,13.7026522 C2.34167742,13.3011159 2.86420645,13.1634493 3.27287742,13.3953623 C3.68165161,13.6271739 3.82162581,14.1407101 3.58565161,14.5423478 M22.9870452,3.66465217 C22.578271,3.89656522 22.0556387,3.75889855 21.8199742,3.35736232 C21.5838968,2.95562319 21.7239742,2.44208696 22.1324387,2.21027536 C22.5411097,1.97846377 23.0636387,2.11602899 23.2996129,2.51756522 C23.5354839,2.91930435 23.3956129,3.43284058 22.9870452,3.66465217 M9.41729032,3.77665217 C8.94534194,3.77665217 8.5627871,3.40078261 8.5627871,2.93695652 C8.5627871,2.47313043 8.94534194,2.09705797 9.41729032,2.09705797 C9.88934194,2.09705797 10.2717935,2.47313043 10.2717935,2.93695652 C10.2717935,3.40078261 9.88934194,3.77665217 9.41729032,3.77665217 M31.5948387,12.5737246 L27.8976,6.28194203 C27.8840774,6.25881159 27.8676645,6.23862319 27.8530065,6.21650725 L25.0237935,1.39857971 C24.4972387,0.502376812 23.5421935,0.000913043478 22.5597935,0 L9.41729032,0 C8.36428387,0 7.44485161,0.562130435 6.95298065,1.39786957 L3.2571871,7.69066667 L3.25698065,7.69107246 L6.54141935,13.281942 L11.0597161,5.59066667 L26.6654968,5.59147826 C27.1562323,5.59188406 27.6335484,5.84215942 27.8968774,6.28975362 L21.3324387,6.28975362 L25.8453677,13.9716957 L20.9100387,22.372 L20.9094194,22.372 L18.0404645,27.255058 C17.7947871,27.6725217 17.3355355,27.9535362 16.8094968,27.953942 L20.088671,22.372 L11.0595097,22.372 L6.51458065,14.6344638 L6.51447742,14.6343623 L6.13068387,13.981029 L6.13099355,13.9805217 L3.25708387,9.08792754 C3.01316129,8.67178261 2.99458065,8.14333333 3.25367742,7.69665217 L0.381522581,12.5835652 C-0.144722581,13.4798696 -0.109212903,14.5435652 0.381212903,15.3801159 L6.95246452,26.565913 C7.47901935,27.4621159 8.43416774,27.9635797 9.41656774,27.9644928 L16.8094968,27.9635797 C16.8634839,27.9635797 16.916129,27.9587101 16.9685677,27.9529275 L22.5587613,27.953942 C23.611871,27.953942 24.5314065,27.3916087 25.0232774,26.555971 L31.594529,15.3702754 C32.1209806,14.4740725 32.0853677,13.4102754 31.5948387,12.5737246"/>
  </g>
</svg>
