<svg xmlns="http://www.w3.org/2000/svg" width="32" height="32" viewBox="0 0 32 32">
  <path class="euiIcon__fillNegative" d="M18.0001,-0.0005 L18.0001,9.9995 C14.6861,9.9995 12.0001,12.6865 12.0001,15.9995 C12.0001,16.8265 12.1671,17.6135 12.4701,18.3295 C12.4361,18.3385 12.4021,18.3415 12.3691,18.3525 C9.1381,19.3545 6.2571,21.2015 3.9761,23.7015 C2.7191,21.4155 2.0001,18.7925 2.0001,15.9995 C2.0001,7.1635 9.1631,-0.0005 18.0001,-0.0005 Z M18,13 C19.657,13 21,14.343 21,16 C21,17.657 19.657,19 18,19 C16.343,19 15,17.657 15,16 C15,14.343 16.343,13 18,13 Z"/>
  <path fill="#00AEFA" d="M22.7422,21.2178 C22.0322,20.9978 21.2642,21.0828 20.5962,21.4058 C19.8102,21.7858 18.9302,21.9998 18.0002,21.9998 C17.0692,21.9998 16.1892,21.7858 15.4042,21.4058 C14.7352,21.0828 13.9682,20.9978 13.2582,21.2178 C10.2772,22.1418 7.6692,23.9118 5.7172,26.2498 C8.6512,29.7638 13.0632,31.9998 18.0002,31.9998 C22.9362,31.9998 27.3482,29.7638 30.2832,26.2498 C28.3302,23.9118 25.7222,22.1418 22.7422,21.2178"/>
  <path fill="#0080D5" d="M18,0 C13.063,0 8.651,2.236 5.717,5.75 C7.669,8.088 10.277,9.858 13.258,10.782 C13.968,11.002 14.735,10.917 15.404,10.594 C16.189,10.214 17.069,10 18,10 C18.931,10 19.811,10.214 20.596,10.594 C21.265,10.917 22.032,11.002 22.742,10.782 C25.723,9.858 28.33,8.088 30.283,5.75 C27.349,2.236 22.937,0 18,0"/>
</svg>
