<svg xmlns="http://www.w3.org/2000/svg" width="32" height="32" viewBox="0 0 32 32">
  <path fill="#ED2226" d="M16.0721805,0.0240601504 C7.29022556,0.0240601504 0.144360902,7.14586466 0.144360902,15.9518797 C0.144360902,24.7338346 7.26616541,31.8796992 16.0721805,31.8796992 C24.8541353,31.8796992 32,24.7578947 32,15.9518797 C32,7.14586466 24.8541353,0.0240601504 16.0721805,0.0240601504 Z M26.8270677,18.7428571 C26.8270677,19.7052632 26.2736842,20.5473684 25.1909774,20.7398496 C23.3142857,21.0764511 19.3684211,21.2691729 16.0721805,21.2691729 C12.7759398,21.2691729 8.83007519,21.0764511 6.95338346,20.7398496 C5.87067669,20.5473684 5.31729323,19.7052632 5.31729323,18.7428571 L5.31729323,12.5353383 C5.31729323,11.5729323 6.06315789,10.6827068 6.95338346,10.5383459 C7.50676692,10.4421053 8.80601504,10.3458647 9.81654135,10.3458647 C10.2015038,10.3458647 10.5142857,10.6345865 10.5142857,11.0917293 L10.5142857,15.4466165 L16.0962406,15.3263158 L21.6781955,15.4466165 L21.6781955,11.0917293 C21.6781955,10.6345865 21.9909774,10.3458647 22.3759398,10.3458647 C23.3864662,10.3458647 24.6857143,10.4421053 25.2390977,10.5383459 C26.1533835,10.6827068 26.875188,11.5729323 26.875188,12.5353383 C26.8270677,14.5804511 26.8270677,16.6736842 26.8270677,18.7428571 Z"/>
</svg>
