<svg xmlns="http://www.w3.org/2000/svg" width="32" height="32" viewBox="0 0 32 32">
  <path fill="#22A7F3" d="M25.5,9.5002 C25.5,16.1492 16,20.9252 16,20.9252 C16,20.9252 6.5,16.1492 6.5,9.5002 C6.5,4.2532 10.753,0.0002 16,0.0002 C21.247,0.0002 25.5,4.2532 25.5,9.5002"/>
  <path class="euiIcon__fillNegative" d="M16,20.925 C16,20.925 20.326,18.742 23.141,15.28 L20.636,13.402 C17.889,11.341 14.111,11.341 11.364,13.402 L8.859,15.28 C11.674,18.742 16,20.925 16,20.925"/>
  <path fill="#FA744E" d="M25.5303,17.0725 C24.7343,18.0705 23.8013,19.0485 22.6963,19.9895 C20.0763,22.2235 17.4573,23.5505 17.3473,23.6055 L16.0003,24.2825 L14.6523,23.6055 C14.5433,23.5505 11.9243,22.2235 9.3033,19.9895 C8.1993,19.0485 7.2653,18.0705 6.4693,17.0725 L0.0003,21.9255 L11.3643,30.4485 C14.1113,32.5095 17.8883,32.5095 20.6353,30.4485 L32.0003,21.9255 L25.5303,17.0725 Z"/>
</svg>
