<svg xmlns="http://www.w3.org/2000/svg" width="32" height="32" viewBox="0 0 32 32">
  <defs>
    <linearGradient id="logo_ibm-a" x1="8.005%" x2="53.33%" y1="79.323%" y2="79.324%">
      <stop offset="0%" stop-color="#3BDADE" stop-opacity="0"/>
      <stop offset="30.476%" stop-color="#36CEE1" stop-opacity=".383"/>
      <stop offset="100%" stop-color="#21A2EF"/>
    </linearGradient>
    <linearGradient id="logo_ibm-b" x1="19.496%" x2="71.309%" y1="83.344%" y2="17.638%">
      <stop offset="0%" stop-color="#207FFA"/>
      <stop offset="100%" stop-color="#6EAFF1" stop-opacity="0"/>
    </linearGradient>
    <linearGradient id="logo_ibm-c" x1="21.909%" x2="21.909%" y1="96.314%" y2="29.454%">
      <stop offset="0%" stop-color="#42C1E6" stop-opacity="0"/>
      <stop offset="57.076%" stop-color="#6FB9EF"/>
      <stop offset="86.716%" stop-color="#60CBE7"/>
      <stop offset="100%" stop-color="#5CCFE5" stop-opacity="0"/>
    </linearGradient>
    <linearGradient id="logo_ibm-d" x1="96.205%" x2="-1.172%" y1="12.667%" y2="-22.252%">
      <stop offset="0%" stop-color="#6FB9EF" stop-opacity="0"/>
      <stop offset="22.427%" stop-color="#38D2E0"/>
      <stop offset="91.203%" stop-color="#6ABFEC"/>
      <stop offset="100%" stop-color="#5CCFE5" stop-opacity="0"/>
    </linearGradient>
    <linearGradient id="logo_ibm-e" x1="9.408%" x2="80.589%" y1="87.764%" y2="83.138%">
      <stop offset="0%" stop-color="#126CFD"/>
      <stop offset="100%" stop-color="#21A1EF"/>
    </linearGradient>
  </defs>
  <g fill="none" fill-rule="evenodd" transform="translate(0 2)">
    <path fill="#38D2E0" d="M4.26192593,11.1223129 C4.15645907,11.1223426 4.05285157,11.0948131 3.96156614,11.0425045 L1.11847619,9.41682784 C0.854643808,9.274343 0.730439433,8.96618466 0.822687831,8.68295958 C0.882995718,8.51662188 1.01467905,8.38532699 1.18223576,8.32447224 C1.34979247,8.2636175 1.53597273,8.27946784 1.69058201,8.36775 L4.53384127,9.99325898 C4.82429749,10.1517183 4.93913041,10.5072909 4.79542857,10.803247 C4.69142922,10.9995681 4.48596793,11.122485 4.26209524,11.1223129 L4.26192593,11.1223129 Z M9.17553439,6.25785778 C8.96025998,6.25810647 8.76126054,6.14442116 8.65371429,5.95975 L7.0122328,3.14415718 C6.85562186,2.89007776 6.90368787,2.56160719 7.12668783,2.3620015 C7.26288661,2.24770542 7.44327365,2.19913887 7.61916359,2.22940966 C7.79505353,2.25968045 7.94831634,2.36566838 8.0375873,2.51876796 L9.67771429,5.33218114 C9.845182,5.60493415 9.7765006,5.95899378 9.51889947,6.15088772 C9.41816682,6.22044242 9.29833691,6.25777357 9.17553439,6.25785778 Z M15.2834709,3.84214521 L15.2834709,0.635055387 C15.2756516,0.306437802 15.5273761,0.0285188982 15.8581164,0.000612273495 C16.0223024,-0.00675864737 16.1823914,0.0526771173 16.3012158,0.165120531 C16.4200402,0.277563945 16.4872641,0.433234111 16.4872804,0.595989519 L16.4872804,3.88104341 C16.4872641,4.04379882 16.4200402,4.19946899 16.3012158,4.3119124 C16.1823914,4.42435581 16.0223024,4.48379158 15.8581164,4.47642066 C15.5274427,4.44851757 15.2757425,4.17069881 15.2834709,3.84214521 Z M22.5953862,6.25785778 C22.4727074,6.25781878 22.3529883,6.22054385 22.2523598,6.15105539 C21.9945318,5.95901716 21.9257764,5.6046636 22.0933757,5.33167814 L23.7333333,2.51876796 C23.8226101,2.36572374 23.9758387,2.25977678 24.1516828,2.22950825 C24.327527,2.19923971 24.5078709,2.24776793 24.6440635,2.3620015 C24.8671462,2.56161926 24.9152825,2.89015491 24.7586878,3.14432485 L23.1172063,5.95975 C23.0096344,6.14439576 22.8106513,6.25807177 22.5953862,6.25785778 Z M27.5089947,11.1223129 C27.2850874,11.1226179 27.0795367,10.9997511 26.9754921,10.8034147 C26.831682,10.5074159 26.9465292,10.1517254 27.2370794,9.99325898 L30.0549418,8.3820015 C30.3093337,8.22918709 30.6374,8.27628048 30.8375026,8.49433682 C30.9544362,8.6289772 31.0047154,8.80820749 30.9746658,8.98328228 C30.9446162,9.15835707 30.8373623,9.31107224 30.6820741,9.39989371 L27.8091852,11.0425045 C27.7179494,11.0947846 27.6144041,11.1223131 27.5089947,11.1223129 Z"/>
    <path fill="url(#logo_ibm-a)" d="M16.5360423,19.6452111 L15.3322328,19.6363248 C15.3576366,16.2588118 17.4783824,13.2446684 20.6691402,12.051161 C23.8598981,10.8576537 27.4633497,11.7306533 29.7373122,14.2480853 L28.840127,15.0428159 C26.8978,12.8926664 23.8199831,12.1470746 21.0946719,13.1665029 C18.3693607,14.1859312 16.5579622,16.7603799 16.5362116,19.6452111 L16.5360423,19.6452111 Z"/>
    <path fill="url(#logo_ibm-b)" d="M0.028952381,20.908732 C0.050547471,17.5546819 2.5037564,14.7014389 5.84397884,14.1454745 L6.04495238,15.3208039 C3.28086379,15.7808735 1.2507542,18.1419201 1.2327619,20.9174506 L0.028952381,20.908732 Z"/>
    <path fill="url(#logo_ibm-c)" d="M8.24567196,24.7365165 C4.02642686,20.5583269 4.02642686,13.7841432 8.24567196,9.60595359 C12.4649171,5.42776402 19.305665,5.42776402 23.5249101,9.60595359 C23.8301874,9.90826099 24.1171635,10.2281636 24.3843386,10.5639895 C24.569258,10.7967515 24.744364,11.0369973 24.9092063,11.2841093 L23.9045079,11.9406841 C23.7581278,11.7212384 23.6026221,11.5078975 23.4383915,11.3012111 C23.2007541,11.0024656 22.9454943,10.7178896 22.6739471,10.4489716 C18.9247226,6.73632166 12.8461045,6.73639672 9.09697354,10.4491392 C5.34784258,14.1618817 5.34791838,20.1813516 9.09714286,23.8940015 L8.24567196,24.7365165 Z"/>
    <path fill="url(#logo_ibm-d)" d="M5.83649668,13.233907 C6.2398211,11.902299 7.16668367,10.6744427 8.24567196,9.60595359 C12.4649171,5.42776402 19.305665,5.42776402 23.5249101,9.60595359 C23.8301874,9.90826099 24.1171635,10.2281636 24.3843386,10.5639895 C24.569258,10.7967515 24.744364,11.0369973 24.9092063,11.2841093 L23.9045079,11.9406841 C23.7581278,11.7212384 23.6026221,11.5078975 23.4383915,11.3012111 C23.2007541,11.0024656 22.9454943,10.7178896 22.6739471,10.4489716 C18.9247226,6.73632166 12.8461045,6.73639672 9.09697354,10.4491392 C8.18299507,11.3542468 7.49183451,12.3964447 7.02349103,13.5088907 C5.570694,16.9596878 4.66500164,17.1016919 5.83649668,13.233907 Z"/>
    <path fill="url(#logo_ibm-e)" d="M23.5242328,27.8703368 L6.95974603,27.8703368 C5.10830344,27.8577983 3.33778259,27.1171709 2.03795363,25.8114997 C0.738124675,24.5058285 0.0155466422,22.7421514 0.0292910053,20.908732 L1.23310053,20.9176183 C1.22165213,22.4341639 1.81904819,23.8930972 2.8938642,24.9734594 C3.96868021,26.0538215 5.43286972,26.6671117 6.96431746,26.6784087 L23.5821376,26.6784087 C26.3628029,26.6795058 28.8843761,25.0619643 30.0201654,22.5485356 C31.1559547,20.0351069 30.6937707,17.0953523 28.840127,15.0428159 L29.7374815,14.2480853 C31.9074129,16.650225 32.4491995,20.090871 31.1208441,23.0332056 C29.7924886,25.9755402 26.8420495,27.8701084 23.5873862,27.8706722 L23.5242328,27.8703368 Z"/>
  </g>
</svg>
