<svg xmlns="http://www.w3.org/2000/svg" width="16" height="16" viewBox="0 0 16 16">
  <path d="M1.747,10.9922 L1.747,10.992 L14.289,10.992 L14.289,10.9922 L14.8471,10.9922 C14.9141,10.9922 14.9691,10.9362 14.9691,10.8692 L14.9691,8.5102 C14.9691,8.4422 14.9141,8.3882 14.8471,8.3882 L1.1221,8.3882 C1.0551,8.3882 1.0001,8.4422 1.0001,8.5102 L1.0001,10.8692 C1.0001,10.9362 1.0551,10.9922 1.1221,10.9922 L1.747,10.9922 Z M13.7581,11.992 L2.2101,11.992 L2.2101,16.0002 L1.2101,16.0002 L1.2101,11.9922 L1.1221,11.9922 C0.5031,11.9922 0.0001,11.4882 0.0001,10.8692 L0.0001,8.5102 C0.0001,7.8902 0.5031,7.3882 1.1221,7.3882 L14.8471,7.3882 C15.4661,7.3882 15.9691,7.8902 15.9691,8.5102 L15.9691,10.8692 C15.9691,11.4882 15.4661,11.9922 14.8471,11.9922 L14.7581,11.9922 L14.7581,16.0002 L13.7581,16.0002 L13.7581,11.992 Z M7.488,4.50534991 L7.488,-0.001 L8.488,-0.001 L8.488,4.52789914 L10.895,2.2664 L11.58,2.9954 L8,6.3574 L4.42,2.9954 L5.105,2.2664 L7.488,4.50534991 Z"/>
</svg>
