<svg xmlns="http://www.w3.org/2000/svg" width="16" height="16" viewBox="0 0 16 16">
  <path fill-rule="evenodd" d="m15.143 15.85-3.872-3.872a.5.5 0 0 1-.034-.738 6.01 6.01 0 0 0 0-8.486c-2.341-2.34-6.147-2.34-8.484 0a6.01 6.01 0 0 0 0 8.486 5.96 5.96 0 0 0 4.242 1.757.5.5 0 0 1 0 1 6.955 6.955 0 0 1-4.949-2.05c-2.728-2.73-2.728-7.171 0-9.9 2.728-2.73 7.168-2.73 9.898 0 2.609 2.61 2.723 6.785.342 9.532l3.565 3.564a.502.502 0 0 1-.708.708ZM6.35 3.61l.24 4.878h.81l.25-4.877h-1.3Zm.186 6.593a.61.61 0 0 0 .448.186.607.607 0 0 0 .437-.184.6.6 0 0 0 .189-.446.602.602 0 0 0-.187-.448.608.608 0 0 0-.44-.182.614.614 0 0 0-.447.184.604.604 0 0 0-.186.446c0 .172.062.32.186.444Z" clip-rule="evenodd"/>
</svg>