<svg xmlns="http://www.w3.org/2000/svg" width="16" height="16" viewBox="0 0 16 16">
  <path d="m11.271 11.978 3.872 3.873a.502.502 0 0 0 .708 0 .502.502 0 0 0 0-.708l-3.565-3.564c2.38-2.747 2.267-6.923-.342-9.532-2.73-2.73-7.17-2.73-9.898 0-2.728 2.729-2.728 7.17 0 9.9a6.955 6.955 0 0 0 4.949 2.05.5.5 0 0 0 0-1 5.96 5.96 0 0 1-4.242-1.757 6.01 6.01 0 0 1 0-8.486c2.337-2.34 6.143-2.34 8.484 0a6.01 6.01 0 0 1 0 8.486.5.5 0 0 0 .034.738Z"/>
  <path d="M6.476 10.778A.727.727 0 0 0 7.01 11c.198 0 .371-.073.52-.22a.715.715 0 0 0 .225-.53.716.716 0 0 0-.222-.533.724.724 0 0 0-.523-.217.731.731 0 0 0-.533.22.719.719 0 0 0-.222.53c0 .204.074.38.222.528ZM6.254 3l.277 5.7h.935L7.754 3h-1.5Z"/>
</svg>