<svg fill="none" xmlns="http://www.w3.org/2000/svg" viewBox="0 0 16 16"><path d="M8.398 14.682c-1.027 0-1.938-.14-2.734-.422-.792-.278-1.46-.69-2.003-1.233-.544-.54-.957-1.203-1.238-1.989C2.14 10.253 2 9.356 2 8.348c0-.98.143-1.862.428-2.644A5.46 5.46 0 0 1 3.67 3.705a5.422 5.422 0 0 1 1.994-1.268C6.446 2.147 7.334 2 8.33 2c.951 0 1.79.15 2.515.447a5.215 5.215 0 0 1 1.83 1.228c.497.52.872 1.117 1.124 1.79.252.673.377 1.384.377 2.133 0 .524-.033 1.036-.099 1.536a4.938 4.938 0 0 1-.368 1.352c-.176.401-.43.723-.765.965-.332.239-.763.363-1.293.373a2.616 2.616 0 0 1-.82-.1 1.673 1.673 0 0 1-.677-.367 1.087 1.087 0 0 1-.338-.657h-.06a1.52 1.52 0 0 1-.397.547 2.062 2.062 0 0 1-.711.398 2.733 2.733 0 0 1-.994.12 2.665 2.665 0 0 1-1.129-.284 2.585 2.585 0 0 1-.86-.716 3.326 3.326 0 0 1-.542-1.084 4.81 4.81 0 0 1-.189-1.392c0-.49.072-.93.214-1.317.143-.392.336-.728.582-1.01a2.88 2.88 0 0 1 .855-.676c.321-.165.661-.27 1.019-.313.348-.04.668-.03.96.03.291.06.533.15.725.273.196.123.319.257.368.403h.065v-.557h1.223v4.614c0 .262.068.484.204.666.139.182.336.273.591.273.302 0 .537-.11.706-.333.173-.222.294-.563.363-1.024.073-.46.11-1.05.11-1.77 0-.503-.068-.977-.204-1.422a3.974 3.974 0 0 0-1.546-2.152 4.465 4.465 0 0 0-1.293-.607 5.6 5.6 0 0 0-1.596-.214c-.792 0-1.496.123-2.113.368a4.175 4.175 0 0 0-1.56 1.05 4.587 4.587 0 0 0-.96 1.645c-.216.636-.324 1.35-.324 2.143 0 .825.111 1.557.334 2.197.222.637.55 1.173.984 1.61.434.438.971.77 1.61.995.64.229 1.378.343 2.213.343.371 0 .736-.033 1.094-.1.358-.062.676-.135.954-.218.282-.08.493-.144.632-.194l.348 1.089c-.206.096-.48.19-.82.283a9.47 9.47 0 0 1-1.104.229c-.395.06-.784.09-1.169.09Zm-.457-4.136c.43 0 .777-.086 1.04-.258.264-.173.455-.43.57-.771.12-.345.18-.776.18-1.293-.003-.503-.068-.904-.194-1.203a1.184 1.184 0 0 0-.577-.646c-.258-.133-.591-.199-1-.199-.374 0-.693.091-.959.274a1.75 1.75 0 0 0-.601.74 2.63 2.63 0 0 0-.209 1.04c.003.4.06.778.17 1.133.112.351.294.636.546.855.255.219.6.328 1.034.328Z"/></svg>