<svg xmlns="http://www.w3.org/2000/svg" width="16" height="16" viewBox="0 0 16 16">
  <path d="M7.5,10 C7.77614237,10 8,10.2157526 8,10.495389 L8,12.504611 C8,12.7478073 7.81674383,12.9500731 7.58774863,12.9920186 L7.5,13 C7.22385763,13 7,12.7842474 7,12.504611 L7,10.495389 C7,10.2521927 7.18325617,10.0499269 7.41225137,10.0079814 L7.5,10 Z M4,12.4903505 C4,12.7405475 3.81674383,12.9486359 3.58774863,12.9917889 L3.5,13 C3.22385763,13 3,12.7723472 3,12.4903505 L3,3.50964952 C3,3.25945249 3.18325617,3.05136414 3.41225137,3.00821114 L3.5,3 C3.77614237,3 4,3.22765279 4,3.50964952 L4,7.507 L11.79239,7.507105 L9.73198,5.446705 C9.53672,5.251405 9.53672,4.934805 9.73198,4.739605 C9.92724,4.544305 10.24382,4.544305 10.43909,4.739605 L10.43909,4.739605 L12.56041,6.860915 C12.86642,7.166925 13.012576,7.572265 12.99887,7.973155 L12.99887,7.973155 L13,8.007105 C13,8.047885 12.99512,8.087525 12.98591,8.125465 C12.94315,8.438855 12.80132,8.741325 12.56041,8.982235 L12.56041,8.982235 L10.43909,11.103555 C10.24382,11.298815 9.92724,11.298815 9.73198,11.103555 C9.53672,10.908285 9.53672,10.591705 9.73198,10.396445 L9.73198,10.396445 L11.62132,8.507105 L4,8.507 L4,12.4903505 Z M7.5,3 C7.77614237,3 8,3.2157526 8,3.49538898 L8,5.50461102 C8,5.74780727 7.81674383,5.95007308 7.58774863,5.99201862 L7.5,6 C7.22385763,6 7,5.7842474 7,5.50461102 L7,3.49538898 C7,3.25219273 7.18325617,3.04992692 7.41225137,3.00798138 L7.5,3 Z" transform="rotate(90 8 8)"/>
</svg>
