<svg xmlns="http://www.w3.org/2000/svg" width="16" height="16" viewBox="0 0 16 16">
  <path d="M7.505,10.005 C7.78114237,10.005 8.005,10.2207526 8.005,10.500389 L8.005,12.509611 C8.005,12.7528073 7.82174383,12.9550731 7.59274863,12.9970186 L7.505,13.005 C7.22885763,13.005 7.005,12.7892474 7.005,12.509611 L7.005,10.500389 C7.005,10.2571927 7.18825617,10.0549269 7.41725137,10.0129814 L7.505,10.005 Z M4.005,12.4953505 C4.005,12.7455475 3.82174383,12.9536359 3.59274863,12.9967889 L3.505,13.005 C3.22885763,13.005 3.005,12.7773472 3.005,12.4953505 L3.005,3.51464952 C3.005,3.26445249 3.18825617,3.05636414 3.41725137,3.01321114 L3.505,3.005 C3.78114237,3.005 4.005,3.23265279 4.005,3.51464952 L4.005,7.502 L11.79739,7.502105 L9.73698,5.441705 C9.54172,5.246405 9.54172,4.929805 9.73698,4.734605 C9.93224,4.539305 10.24882,4.539305 10.44409,4.734605 L10.44409,4.734605 L12.56541,6.855915 C12.87142,7.161925 13.017576,7.567265 13.00387,7.968155 L13.00387,7.968155 L13.005,8.002105 C13.005,8.042885 13.00012,8.082525 12.99091,8.120465 C12.94815,8.433855 12.80632,8.736325 12.56541,8.977235 L12.56541,8.977235 L10.44409,11.098555 C10.24882,11.293815 9.93224,11.293815 9.73698,11.098555 C9.54172,10.903285 9.54172,10.586705 9.73698,10.391445 L9.73698,10.391445 L11.62632,8.502105 L4.005,8.502 L4.005,12.4953505 Z M7.505,2.995 C7.78114237,2.995 8.005,3.2107526 8.005,3.49038898 L8.005,5.49961102 C8.005,5.74280727 7.82174383,5.94507308 7.59274863,5.98701862 L7.505,5.995 C7.22885763,5.995 7.005,5.7792474 7.005,5.49961102 L7.005,3.49038898 C7.005,3.24719273 7.18825617,3.04492692 7.41725137,3.00298138 L7.505,2.995 Z" transform="rotate(-90 8.005 8)"/>
</svg>
