<svg xmlns="http://www.w3.org/2000/svg" width="16" height="16" viewBox="0 0 16 16">
  <path d="M7.35184481,6 L2.5,6 C2.224,6 2,5.776 2,5.5 C2,5.224 2.224,5 2.5,5 L7.35244314,5 L5.12,2.72132726 C4.94,2.5384363 4.965,2.26191218 5.175,2.10527351 C5.383,1.94863485 5.698,1.96876161 5.88,2.15252764 L8.88,5.21529483 C9.04,5.3789341 9.04,5.62045517 8.88,5.78409445 L5.88,8.84686164 C5.78,8.9483705 5.641,9 5.5,9 C5.385,9 5.269,8.96499695 5.175,8.89411576 C4.965,8.7374771 4.94,8.46095297 5.12,8.27806202 L7.35184481,6 Z M8.64794669,10 L13.5,10 C13.776,10 14,10.224 14,10.5 C14,10.776 13.776,11 13.5,11 L8.64776536,11 L10.88,13.2784599 C11.06,13.4613509 11.035,13.737875 10.825,13.8945137 C10.731,13.9653949 10.615,14.0003979 10.5,14.0003979 C10.359,14.0003979 10.22,13.9487684 10.12,13.8472595 L7.12,10.7844924 C6.96,10.6208531 6.96,10.379332 7.12,10.2156927 L10.12,7.15292554 C10.302,6.96915951 10.617,6.94903276 10.825,7.10567142 C11.035,7.26231009 11.06,7.53883421 10.88,7.72172517 L8.64794669,10 Z"/>
</svg>
