<svg xmlns="http://www.w3.org/2000/svg" width="16" height="16" viewBox="0 0 16 16">
  <path d="M1.14644661,14.1464466 L5.14644661,10.1464466 C5.34170876,9.95118446 5.65829124,9.95118446 5.85355339,10.1464466 C6.02711974,10.320013 6.04640489,10.5894374 5.91140884,10.7843055 L5.85355339,10.8535534 L1.85355339,14.8535534 C1.65829124,15.0488155 1.34170876,15.0488155 1.14644661,14.8535534 C0.972880258,14.679987 0.953595107,14.4105626 1.08859116,14.2156945 L1.14644661,14.1464466 L5.14644661,10.1464466 L1.14644661,14.1464466 Z M6.5,8 C7.32842712,8 8,8.67157288 8,9.5 L8,12.5 C8,12.7761424 7.77614237,13 7.5,13 C7.22385763,13 7,12.7761424 7,12.5 L7,9.5 C7,9.22385763 6.77614237,9 6.5,9 L3.5,9 C3.22385763,9 3,8.77614237 3,8.5 C3,8.22385763 3.22385763,8 3.5,8 L6.5,8 Z M8.5,3 C8.77614237,3 9,3.22385763 9,3.5 L9,6.5 C9,6.77614237 9.22385763,7 9.5,7 L12.5,7 C12.7761424,7 13,7.22385763 13,7.5 C13,7.77614237 12.7761424,8 12.5,8 L9.5,8 C8.67157288,8 8,7.32842712 8,6.5 L8,3.5 C8,3.22385763 8.22385763,3 8.5,3 Z M10.1514466,5.14644661 L14.1514466,1.14644661 C14.3467088,0.951184464 14.6632912,0.951184464 14.8585534,1.14644661 C15.0321197,1.32001296 15.0514049,1.58943736 14.9164088,1.7843055 L14.8585534,1.85355339 L10.8585534,5.85355339 C10.6632912,6.04881554 10.3467088,6.04881554 10.1514466,5.85355339 C9.97788026,5.67998704 9.95859511,5.41056264 10.0935912,5.2156945 L10.1514466,5.14644661 L14.1514466,1.14644661 L10.1514466,5.14644661 Z"/>
</svg>
