<svg xmlns="http://www.w3.org/2000/svg" width="16" height="16" viewBox="0 0 16 16">
  <path d="M6.51733137,12.2712509 L7.77125086,11.0173314 C7.84583416,11.0059191 7.92222584,11 8,11 C8.82842712,11 9.5,11.6715729 9.5,12.5 C9.5,13.3284271 8.82842712,14 8,14 C7.17157288,14 6.5,13.3284271 6.5,12.5 C6.5,12.4222258 6.50591909,12.3458342 6.51733137,12.2712509 Z M9.46163356,9.32694868 L10.2019887,8.58659352 C10.5633469,8.79450928 10.8958392,9.05408985 11.1890025,9.35949205 C11.3802321,9.55870511 11.3737603,9.87522144 11.1745472,10.0664511 C10.9753341,10.2576807 10.6588178,10.2512088 10.4675882,10.0519958 C10.1763614,9.74861088 9.83547504,9.50380497 9.46163356,9.32694868 Z M11.6244397,7.16414255 L12.3396432,6.44893906 C12.647909,6.68118479 12.9387874,6.93902196 13.2092134,7.22073771 C13.400443,7.41995077 13.3939712,7.7364671 13.1947581,7.92769672 C12.9955451,8.11892635 12.6790288,8.1124545 12.4877991,7.91324144 C12.2215916,7.63592029 11.932511,7.38549557 11.6244397,7.16414255 Z M7.06126212,6.07046587 C5.71751809,6.27394767 4.48629263,6.91079233 3.53910336,7.88538873 C3.34664547,8.08341543 3.03009517,8.08792984 2.83206847,7.89547196 C2.63404177,7.70301407 2.62952736,7.38646377 2.82198525,7.18843707 C4.17247211,5.79887358 6.02331222,5 8,5 C8.04358432,5 8.08710732,5.00038842 8.13056498,5.00116301 L7.06126212,6.07046587 Z M13.7329749,5.0556073 L14.4430113,4.34557094 C14.7168955,4.57586989 14.9794513,4.82157447 15.2294244,5.08198337 C15.420654,5.28119642 15.4141821,5.59771276 15.2149691,5.78894238 C15.015756,5.98017201 14.6992397,5.97370016 14.5080101,5.7744871 C14.2625993,5.51883092 14.0037709,5.27893364 13.7329749,5.0556073 Z M9.92557239,3.20615559 C9.30079086,3.07033677 8.65604405,3 8,3 C5.52952768,3 3.21894831,3.99730971 1.53099681,5.73410244 C1.33853893,5.93212914 1.02198863,5.93664355 0.823961929,5.74418566 C0.625935231,5.55172778 0.621420819,5.23517748 0.813878706,5.03715078 C2.68823426,3.10856035 5.25656047,2 8,2 C8.94434251,2 9.86788886,2.13136062 10.7494768,2.38225117 L9.92557239,3.20615559 Z M8,13 C8.27614237,13 8.5,12.7761424 8.5,12.5 C8.5,12.2238576 8.27614237,12 8,12 C7.72385763,12 7.5,12.2238576 7.5,12.5 C7.5,12.7761424 7.72385763,13 8,13 Z M2.57570903,14 C2.38044688,14.1952621 2.06386439,14.1952621 1.86860224,14 C1.6733401,13.8047379 1.6733401,13.4881554 1.86860224,13.2928932 L14.1464466,1.14644661 C14.3417088,0.951184464 14.6582912,0.951184464 14.8535534,1.14644661 C15.0488155,1.34170876 15.0488155,1.65829124 14.8535534,1.85355339 L2.57570903,14 Z"/>
</svg>
