<svg xmlns="http://www.w3.org/2000/svg" width="16" height="16" viewBox="0 0 16 16">
  <path d="M6.66433678,14.871386 C2.86937272,14.1337197 0.390943175,10.4592968 1.12860946,6.66433273 C1.50016972,4.75282091 2.63269889,3.11813224 4.24340705,2.09332796 C4.43679309,1.97028714 4.68907462,1.99449526 4.85553412,2.15206568 C5.31185082,2.58401469 13.0720628,10.3646327 13.8368176,11.1554914 C13.9978773,11.3220486 14.0234132,11.5774367 13.8985202,11.772586 C12.3635321,14.1710531 9.50703002,15.4239496 6.66433678,14.871386 Z M12.8323497,11.5592922 C11.3867457,10.0930413 5.82458358,4.51603187 4.45454349,3.15940757 C3.24675066,4.04303955 2.40320599,5.34794512 2.11023665,6.85514173 C1.47795126,10.1079681 3.60231943,13.2574734 6.85514577,13.8897588 C9.15976077,14.3377306 11.4749273,13.4013889 12.8323497,11.5592922 Z M14.9265867,9.01136964 C14.8867998,9.2846307 14.6330242,9.47389889 14.3597632,9.43411196 C14.0865021,9.39432503 13.8972339,9.14054949 13.9370209,8.86728842 C13.9464799,8.80060861 13.9464799,8.80060861 13.954966,8.73374548 C14.0259512,8.15562122 14.0137322,7.58113248 13.9211683,7.0201378 C13.8762127,6.74767935 14.0606402,6.49036444 14.3330987,6.44540887 C14.6055571,6.40045329 14.862872,6.58488081 14.9078276,6.85733926 C15.0158897,7.51226184 15.0301469,8.18260875 14.9474887,8.85580564 C14.9375925,8.93378607 14.9375925,8.93378607 14.9265867,9.01136964 Z M13.6538313,3.87271345 C13.8166897,4.09571964 13.7679303,4.40852468 13.5449241,4.57138305 C13.3219179,4.73424142 13.0091128,4.68548198 12.8462545,4.46247579 C12.4811016,3.9624625 12.0408874,3.52106575 11.5416929,3.15536927 C11.3189296,2.99217885 11.2706362,2.67930152 11.4338266,2.4565382 C11.597017,2.23377488 11.9098944,2.1854815 12.1326577,2.34867193 C12.7149399,2.77523623 13.2281718,3.28984677 13.6538313,3.87271345 Z M9.16943782,1.09825012 C9.44173227,1.14418858 9.62523006,1.40216734 9.57929159,1.67446179 C9.53335312,1.94675624 9.27537437,2.13025402 9.00307992,2.08431556 C8.91460446,2.06938897 8.82559635,2.05638624 8.73648935,2.0453729 C8.20192806,1.97973702 7.67311041,1.98478277 7.15437888,2.05825327 C6.88096529,2.09697818 6.62792703,1.90672541 6.58920212,1.63331182 C6.55047721,1.35989823 6.74072998,1.10685997 7.01414357,1.06813506 C7.61966522,0.982372055 8.23660848,0.976485418 8.8587576,1.05287572 C8.96287139,1.06574387 9.06644782,1.0808748 9.16943782,1.09825012 Z"/>
</svg>
