<svg xmlns="http://www.w3.org/2000/svg" width="16" height="16" fill="none" viewBox="0 0 16 16">
  <path d="M.586 2.586A2 2 0 0 0 0 4h1a1 1 0 0 1 1-1V2a2 2 0 0 0-1.414.586ZM2 2h10.5a.5.5 0 0 1 0 1H2V2ZM0 4h1v6.5a.5.5 0 0 1-1 0V4ZM2.586 4.586A2 2 0 0 0 2 6h1a1 1 0 0 1 1-1V4a2 2 0 0 0-1.414.586ZM2.586 13.414A2 2 0 0 1 2 12h1a1 1 0 0 0 1 1v1a2 2 0 0 1-1.414-.586ZM15.414 4.586A2 2 0 0 1 16 6h-1a1 1 0 0 0-1-1V4a2 2 0 0 1 1.414.586ZM15.414 13.414A2 2 0 0 0 16 12h-1a1 1 0 0 1-1 1v1a2 2 0 0 0 1.414-.586ZM4 4h10v1H4zM3 7h12v1H3zM4 13h10v1H4zM2 6h1v6H2zM15 6h1v6h-1zM9.5 10a.5.5 0 0 1 0 1H7.496a.5.5 0 0 1 0-1H9.5ZM13.5 10a.5.5 0 0 1 0 1h-2.004a.5.5 0 0 1 0-1H13.5Z"/>
</svg>