<svg xmlns="http://www.w3.org/2000/svg" width="16" height="16" viewBox="0 0 16 16">
  <path d="M8,14 C4.6862915,14 2,11.3137085 2,8 C2,4.6862915 4.6862915,2 8,2 C11.3137085,2 14,4.6862915 14,8 C14,11.3137085 11.3137085,14 8,14 Z M8,13 C10.7614237,13 13,10.7614237 13,8 C13,5.23857625 10.7614237,3 8,3 C5.23857625,3 3,5.23857625 3,8 C3,10.7614237 5.23857625,13 8,13 Z M7.81445312,11.9347656 C7.33984375,11.9347656 7,11.5949219 7,11.1203125 C7,10.6398438 7.33984375,10.3 7.81445312,10.3 C8.2890625,10.3 8.62304688,10.6398438 8.62304688,11.1203125 C8.62304688,11.5949219 8.2890625,11.9347656 7.81445312,11.9347656 Z M5.90012942,6.31718848 C5.9586289,5.16847141 6.75454572,4.4 8.0477105,4.4 C9.26601413,4.4 10.139062,5.15878993 10.139062,6.20016331 C10.139062,6.93631824 9.77832254,7.50354995 9.10832609,7.90659084 C8.54864655,8.23711025 8.39193286,8.467062 8.39193286,8.92887845 L8.39193286,9.23415639 L8.29193286,9.33415639 L7.4700307,9.33415639 L7.3700307,9.23415639 L7.37003357,8.80282824 C7.36514015,8.15689648 7.67181442,7.69920837 8.35714298,7.28901743 C8.8837687,6.96668616 9.06549743,6.69850396 9.06549743,6.24243256 C9.06549743,5.70644673 8.64896518,5.33266706 8.01483442,5.33266706 C7.36250133,5.33266706 6.95081911,5.70597212 6.90282126,6.32994413 L6.80311582,6.42227448 L6,6.42227448 L5.90012942,6.31718848 Z"/>
</svg>
