<svg xmlns="http://www.w3.org/2000/svg" width="16" height="16" viewBox="0 0 16 16">
  <path fill-rule="evenodd" d="M14.125 2.75H1.875v10.5h12.25V2.75zm-12.25-.875A.875.875 0 001 2.75v10.5c0 .483.392.875.875.875h12.25A.875.875 0 0015 13.25V2.75a.875.875 0 00-.875-.875H1.875z" clip-rule="evenodd"/>
  <path d="M1.875 2.75h12.25V4.5H1.875zM6.25 10.625h3.5v.875h-3.5zM3.625 6.25H4.5v.875h-.875zM4.5 7.125h.875V8H4.5zM5.375 8h.875v.875h-.875zM4.5 8.875h.875v.875H4.5zM3.625 9.75H4.5v.875h-.875z"/>
</svg>
