<svg xmlns="http://www.w3.org/2000/svg" width="16" height="16" viewBox="0 0 16 16">
  <path d="M7,11.6923877 L7,3.55555556 C7,3.24873069 7.22385763,3 7.5,3 C7.77614237,3 8,3.24873069 8,3.55555556 L8,11.6923886 L12.0961945,7.59619408 C12.2914567,7.40093193 12.6080392,7.40093193 12.8033013,7.59619408 C12.9985635,7.79145622 12.9985635,8.10803871 12.8033013,8.30330086 L8.56066064,12.5459415 C8.30246316,12.804139 7.97355577,12.9485306 7.63627218,12.9791164 C7.59295096,12.9927206 7.54724056,13 7.5,13 C7.4527593,13 7.40704878,12.9927206 7.36372744,12.9791162 C7.02644431,12.9485303 6.69753744,12.8041387 6.4393403,12.5459415 L2.19669961,8.30330086 C2.00143746,8.10803871 2.00143746,7.79145622 2.19669961,7.59619408 C2.39196176,7.40093193 2.70854424,7.40093193 2.90380639,7.59619408 L7,11.6923877 Z"/>
</svg>
