<svg width="16" height="16" viewBox="0 0 16 16" xmlns="http://www.w3.org/2000/svg">
  <path fill-rule="evenodd" d="m5.016 4.383.035-.093a.492.492 0 0 1 .898 0l.035.093c.048.128.072.192.097.253a5.9 5.9 0 0 0 3.536 3.38l.093.035a.492.492 0 0 1 0 .898l-.093.035a5.9 5.9 0 0 0-3.536 3.38c-.025.06-.049.125-.097.253l-.035.093a.492.492 0 0 1-.898 0l-.035-.093c-.048-.128-.072-.192-.097-.253a5.9 5.9 0 0 0-3.536-3.38 2.175 2.175 0 0 1-.093-.035.492.492 0 0 1 0-.898l.093-.035c.128-.048.192-.072.253-.097a5.9 5.9 0 0 0 3.38-3.536Zm6.769-2.213a.968.968 0 0 1 .016-.041.219.219 0 0 1 .398 0 2.622 2.622 0 0 0 1.518 1.613l.113.043a.272.272 0 0 1 .04.016.219.219 0 0 1 0 .398.272.272 0 0 1-.04.016l-.113.043a2.622 2.622 0 0 0-1.502 1.572.968.968 0 0 1-.016.04.219.219 0 0 1-.398 0 2.622 2.622 0 0 0-1.518-1.613l-.113-.042a.272.272 0 0 1-.04-.016.219.219 0 0 1 0-.398.272.272 0 0 1 .04-.016l.113-.043a2.622 2.622 0 0 0 1.502-1.572Zm-.555 8.043.02-.052a.273.273 0 0 1 .5 0l.02.052.053.14a3.275 3.275 0 0 0 1.824 1.824l.14.054c.03.01.044.016.052.02a.273.273 0 0 1 0 .498 1.248 1.248 0 0 1-.052.02c-.07.027-.107.04-.14.054a3.279 3.279 0 0 0-1.824 1.824l-.054.14a.409.409 0 0 1-.02.052.273.273 0 0 1-.498 0 1.248 1.248 0 0 1-.02-.052c-.027-.07-.04-.107-.054-.14a3.279 3.279 0 0 0-1.824-1.824l-.14-.054a1.24 1.24 0 0 1-.052-.02.273.273 0 0 1 0-.498 1.24 1.24 0 0 1 .052-.02l.14-.054a3.279 3.279 0 0 0 1.824-1.824l.054-.14Z"/>
</svg>
