<svg xmlns="http://www.w3.org/2000/svg" width="16" height="16" viewBox="0 0 16 16">
  <path fill-rule="evenodd" d="M6,2 C5.68125129,2 5.36250258,2.171 5.2080032,2.5115 L3.87750858,5.435 L0.750021233,5.88125 C0.0397741059,5.98325 -0.251224717,6.857 0.254273238,7.36775 L2.56651389,9.704 L2.00401616,12.9725 C1.90651656,13.54175 2.35726473,14 2.86351269,14 C3.00601211,14 3.15301151,13.964 3.29251095,13.8845 L6,12.3425 L8.70748905,13.8845 C8.84698849,13.964 8.99398789,14 9.13648731,14 C9.64273527,14 10.0934834,13.54175 9.99598384,12.9725 L9.43348611,9.704 L11.7457268,7.36775 C12.2512247,6.857 11.9602259,5.98325 11.2499788,5.88125 L8.12249142,5.435 L6.7919968,2.5115 C6.63749742,2.171 6.31874871,2 6,2 M6,3 C6.0728536,3 6.09499538,3.04857143 6.10428064,3.06928571 L7.3706476,5.85285714 L7.53278256,6.20857143 L7.91990659,6.26357143 L10.8983331,6.68928571 C10.9154751,6.69142857 10.9690439,6.69928571 10.9926142,6.76928571 C11.0083277,6.81714286 10.9990425,6.86 10.9640442,6.895 L8.76200847,9.12071429 L8.50344962,9.38214286 L8.56630371,9.74357143 L9.10127768,12.8564286 C9.10842019,12.8964286 9.10127768,12.9264286 9.07842164,12.9535714 C9.05413711,12.9821429 9.01842456,13 8.98699752,13 C8.97628376,13 8.95842748,12.9985714 8.9320002,12.9835714 L6.35355423,11.515 L6,11.3135714 L5.64644577,11.515 L3.06728555,12.9835714 C3.04157252,12.9985714 3.02371624,13 3.01300248,13 C2.98157544,13 2.94586289,12.9821429 2.92157836,12.9535714 C2.89872232,12.9264286 2.89157981,12.8964286 2.89800807,12.8564286 L3.43369629,9.74357143 L3.49655038,9.38214286 L3.23799153,9.12071429 L1.03595582,6.895 C1.00095752,6.86 0.991672257,6.81714286 1.00738578,6.76928571 C1.03095606,6.69928571 1.08452488,6.69142857 1.10095265,6.68928571 L4.08009341,6.26357143 L4.46721744,6.20857143 L4.6293524,5.85285714 L5.89643361,3.06714286 C5.90500462,3.04857143 5.9271464,3 6,3 Z M16,10 L16,11 L11,11 L11,10 L16,10 Z"/>
</svg>
