<svg xmlns="http://www.w3.org/2000/svg" width="16" height="16" viewBox="0 0 16 16">
  <path fill-rule="evenodd" d="M8,2 C7.68125129,2 7.36250258,2.171 7.2080032,2.5115 L5.87750858,5.435 L2.75002123,5.88125 C2.03977411,5.98325 1.74877528,6.857 2.25427324,7.36775 L4.56651389,9.704 L4.00401616,12.9725 C3.90651656,13.54175 4.35726473,14 4.86351269,14 C5.00601211,14 5.15301151,13.964 5.29251095,13.8845 L8,12.3425 L10.707489,13.8845 C10.8469885,13.964 10.9939879,14 11.1364873,14 C11.6427353,14 12.0934834,13.54175 11.9959838,12.9725 L11.4334861,9.704 L13.7457268,7.36775 C14.2512247,6.857 13.9602259,5.98325 13.2499788,5.88125 L10.1224914,5.435 L8.7919968,2.5115 C8.63749742,2.171 8.31874871,2 8,2 M8,3 C8.0728536,3 8.09499538,3.04857143 8.10428064,3.06928571 L9.3706476,5.85285714 L9.53278256,6.20857143 L9.91990659,6.26357143 L12.8983331,6.68928571 C12.9154751,6.69142857 12.9690439,6.69928571 12.9926142,6.76928571 C13.0083277,6.81714286 12.9990425,6.86 12.9640442,6.895 L10.7620085,9.12071429 L10.5034496,9.38214286 L10.5663037,9.74357143 L11.1012777,12.8564286 C11.1084202,12.8964286 11.1012777,12.9264286 11.0784216,12.9535714 C11.0541371,12.9821429 11.0184246,13 10.9869975,13 C10.9762838,13 10.9584275,12.9985714 10.9320002,12.9835714 L8.35355423,11.515 L8,11.3135714 L7.64644577,11.515 L5.06728555,12.9835714 C5.04157252,12.9985714 5.02371624,13 5.01300248,13 C4.98157544,13 4.94586289,12.9821429 4.92157836,12.9535714 C4.89872232,12.9264286 4.89157981,12.8964286 4.89800807,12.8564286 L5.43369629,9.74357143 L5.49655038,9.38214286 L5.23799153,9.12071429 L3.03595582,6.895 C3.00095752,6.86 2.99167226,6.81714286 3.00738578,6.76928571 C3.03095606,6.69928571 3.08452488,6.69142857 3.10095265,6.68928571 L6.08009341,6.26357143 L6.46721744,6.20857143 L6.6293524,5.85285714 L7.89643361,3.06714286 C7.90500462,3.04857143 7.9271464,3 8,3"/>
</svg>
