<svg xmlns="http://www.w3.org/2000/svg" width="16" height="16" viewBox="0 0 16 16">
  <path fill-rule="evenodd" d="M6,2 C5.68125129,2 5.36250258,2.171 5.2080032,2.5115 L3.87750858,5.435 L0.750021233,5.88125 C0.0397741059,5.98325 -0.251224717,6.857 0.254273238,7.36775 L2.56651389,9.704 L2.00401616,12.9725 C1.90651656,13.54175 2.35726473,14 2.86351269,14 C3.00601211,14 3.15301151,13.964 3.29251095,13.8845 L6,12.3425 L8.70748905,13.8845 C8.84698849,13.964 8.99398789,14 9.13648731,14 C9.64273527,14 10.0934834,13.54175 9.99598384,12.9725 L9.43348611,9.704 L11.7457268,7.36775 C12.2512247,6.857 11.9602259,5.98325 11.2499788,5.88125 L8.12249142,5.435 L6.7919968,2.5115 C6.63749742,2.171 6.31874871,2 6,2"/>
</svg>
