<svg width="15" height="15" viewBox="0 0 15 15" fill="none" xmlns="http://www.w3.org/2000/svg">
<path fill-rule="evenodd" clip-rule="evenodd" d="M5.85355 10.1464C5.94732 10.2402 6 10.3674 6 10.5V11L7 11C7.26522 11 7.51957 11.1054 7.70711 11.2929C7.89464 11.4804 8 11.7348 8 12V14C8 14.2652 7.89464 14.5196 7.70711 14.7071C7.51957 14.8946 7.26522 15 7 15L4 15C3.73478 15 3.48043 14.8946 3.29289 14.7071C3.10536 14.5196 3 14.2652 3 14L3 12C3 11.7348 3.10536 11.4804 3.29289 11.2929C3.48043 11.1054 3.73478 11 4 11H5V10.5C5 10.3674 5.05268 10.2402 5.14645 10.1464C5.24022 10.0527 5.36739 10 5.5 10C5.63261 10 5.75979 10.0527 5.85355 10.1464ZM7 14L4 14L4 12L7 12L7 14Z"/>
<path fill-rule="evenodd" clip-rule="evenodd" d="M9.85355 4.85355C9.75979 4.94732 9.63261 5 9.5 5C9.36739 5 9.24022 4.94732 9.14645 4.85355C9.05268 4.75979 9 4.63261 9 4.5V4H8C7.73478 4 7.48043 3.89464 7.29289 3.70711C7.10536 3.51957 7 3.26522 7 3L7 1C7 0.734783 7.10536 0.480429 7.29289 0.292893C7.48043 0.105357 7.73478 0 8 0H11C11.2652 0 11.5196 0.105357 11.7071 0.292893C11.8946 0.48043 12 0.734784 12 1V3C12 3.26522 11.8946 3.51957 11.7071 3.70711C11.5196 3.89464 11.2652 4 11 4L10 4V4.5C10 4.63261 9.94732 4.75979 9.85355 4.85355ZM8 3V1L11 1V3L8 3Z"/>
<path fill-rule="evenodd" clip-rule="evenodd" d="M2.85355 4.85355C2.94732 4.75978 3 4.63261 3 4.5V4H4C4.26522 4 4.51957 3.89464 4.70711 3.70711C4.89464 3.51957 5 3.26522 5 3L5 0.999999C5 0.734783 4.89464 0.480429 4.70711 0.292893C4.51957 0.105356 4.26522 0 4 0H1C0.734785 0 0.480431 0.105356 0.292895 0.292892C0.105358 0.480429 0 0.734782 0 0.999999V3C0 3.26522 0.105358 3.51957 0.292894 3.70711C0.480431 3.89464 0.734784 4 1 4H2V4.5C2 4.63261 2.05268 4.75978 2.14645 4.85355C2.24022 4.94732 2.36739 5 2.5 5C2.63261 5 2.75979 4.94732 2.85355 4.85355ZM1 0.999999L1 3L4 3L4 0.999999L1 0.999999Z"/>
<path fill-rule="evenodd" clip-rule="evenodd" d="M12.6464 5.64645C12.8417 5.45118 13.1583 5.45118 13.3536 5.64645L14.8536 7.14645C15.0488 7.34171 15.0488 7.65829 14.8536 7.85355L13.3536 9.35355C13.1583 9.54882 12.8417 9.54882 12.6464 9.35355C12.4512 9.15829 12.4512 8.84171 12.6464 8.64645L13.2929 8H10.9146C10.7087 8.5826 10.1531 9 9.5 9C8.84689 9 8.29127 8.5826 8.08535 8L3.91465 8C3.70873 8.5826 3.15311 9 2.5 9C1.84689 9 1.29127 8.5826 1.08535 8H0.5C0.223858 8 0 7.77614 0 7.5C0 7.22386 0.223858 7 0.5 7H1.08535C1.29127 6.4174 1.84689 6 2.5 6C3.15311 6 3.70873 6.4174 3.91465 7L8.08535 7C8.29127 6.4174 8.84689 6 9.5 6C10.1531 6 10.7087 6.4174 10.9146 7H13.2929L12.6464 6.35355C12.4512 6.15829 12.4512 5.84171 12.6464 5.64645ZM2.5 7C2.22386 7 2 7.22386 2 7.5C2 7.77614 2.22386 8 2.5 8C2.77614 8 3 7.77614 3 7.5C3 7.22386 2.77614 7 2.5 7ZM9.5 7C9.22386 7 9 7.22386 9 7.5C9 7.77614 9.22386 8 9.5 8C9.77614 8 10 7.77614 10 7.5C10 7.22386 9.77614 7 9.5 7Z"/>
</svg>
