<svg xmlns="http://www.w3.org/2000/svg" width="16" height="16" viewBox="0 0 16 16">
  <path d="M10.3862355,9.83551835 C10.1416142,9.44915931 10,8.99111753 10,8.5 C10,7.11928813 11.1192881,6 12.5,6 C13.8807119,6 15,7.11928813 15,8.5 C15,9.31915408 14.6060265,10.0462907 13.9972252,10.5022643 C15.2116293,11.1740421 16,12.460733 16,14 L16,15.5 C16,15.7761424 15.7761424,16 15.5,16 C15.2238576,16 15,15.7761424 15,15.5 L15,14 C15,12.2761424 13.7238576,11 12,11 C11.089894,11 10.7020605,10.9807464 10.1953277,10.8779363 C8.94554177,10.6243696 7.86201213,9.87790569 6.6095656,8.31234752 C6.43706082,8.09671656 6.47202151,7.78207037 6.68765248,7.6095656 C6.90328344,7.43706082 7.21792963,7.47202151 7.3904344,7.68765248 C8.29031041,8.81249749 9.0427005,9.42863784 9.82378816,9.73131871 C9.97873029,9.78276913 10.1693475,9.81389579 10.3862355,9.83551835 L10.3862355,9.83551835 Z M12.170923,9.96378986 C12.2544058,9.97383471 12.3382921,9.9851584 12.4223525,9.99802494 C12.4480693,9.99933632 12.4739572,10 12.5,10 C13.3284271,10 14,9.32842712 14,8.5 C14,7.67157288 13.3284271,7 12.5,7 C11.6715729,7 11,7.67157288 11,8.5 C11,9.21537784 11.5007898,9.81378995 12.170923,9.96378986 L12.170923,9.96378986 Z M9.78,11.97 C10.0561424,11.97 10.28,12.1938576 10.28,12.47 C10.28,12.546303 10.2327718,12.6959893 10.230294,12.7012339 C10.0513095,13.0800879 10,13.4749479 10,14.0027108 L10,15.5027108 C10,15.7788532 9.77614237,16.0027108 9.5,16.0027108 C9.22385763,16.0027108 9,15.7788532 9,15.5027108 L9,14.0027108 C9,13.3458557 9.07216893,12.81693 9.30730941,12.3065993 C9.37501819,12.1106964 9.56107839,11.97 9.78,11.97 Z M5.95827032,5.77244277 C6.13077509,5.98807373 6.0958144,6.30271992 5.88018344,6.47522469 C5.66455247,6.64772947 5.34990628,6.61276878 5.17740151,6.39713781 L3.10958401,3.81236594 C2.93707923,3.59673497 2.97203992,3.28208878 3.18767089,3.10958401 C3.40330186,2.93707923 3.71794804,2.97203992 3.89045282,3.18767089 L5.95827032,5.77244277 Z M1,11 L6.5,11 C6.77614237,11 7,11.2238576 7,11.5 C7,11.7761424 6.77614237,12 6.5,12 L0.5,12 C0.223857625,12 1.77635684e-14,11.7761424 1.77635684e-14,11.5 L1.77635684e-14,0.5 C1.77635684e-14,0.223857625 0.223857625,3.55271368e-15 0.5,3.55271368e-15 L12.5,3.55271368e-15 C12.7761424,3.55271368e-15 13,0.223857625 13,0.5 L13,3.5 C13,3.77614237 12.7761424,4 12.5,4 C12.2238576,4 12,3.77614237 12,3.5 L12,1 L1,1 L1,11 Z"/>
</svg>
