<svg xmlns="http://www.w3.org/2000/svg" width="16" height="16" viewBox="0 0 16 16">
  <path d="M0,1.99406028 C0,0.892771196 0.894513756,0 1.99406028,0 L14.0059397,0 C15.1072288,0 16,0.894513756 16,1.99406028 L16,14.0059397 C16,15.1072288 15.1054862,16 14.0059397,16 L1.99406028,16 C0.892771196,16 0,15.1054862 0,14.0059397 L0,1.99406028 Z M1,1.99406028 L1,14.0059397 C1,14.5539384 1.44579254,15 1.99406028,15 L14.0059397,15 C14.5539384,15 15,14.5542075 15,14.0059397 L15,1.99406028 C15,1.44606163 14.5542075,1 14.0059397,1 L1.99406028,1 C1.44606163,1 1,1.44579254 1,1.99406028 Z M1,4 L15,4 L15,5 L1,5 L1,4 Z M2.5,3 C2.22385763,3 2,2.77614237 2,2.5 C2,2.22385763 2.22385763,2 2.5,2 L3.5,2 C3.77614237,2 4,2.22385763 4,2.5 C4,2.77614237 3.77614237,3 3.5,3 L2.5,3 Z M5.5,3 C5.22385763,3 5,2.77614237 5,2.5 C5,2.22385763 5.22385763,2 5.5,2 L6.5,2 C6.77614237,2 7,2.22385763 7,2.5 C7,2.77614237 6.77614237,3 6.5,3 L5.5,3 Z M10.4472136,9.10557266 C11.1842621,9.4740969 11.1842621,10.5259027 10.4472136,10.8944269 L7.4472136,12.8944268 C6.7823125,13.2268773 6,12.7433816 6,11.9999996 L6,7.99999993 C6,7.25661796 6.7823125,6.77312228 7.4472136,7.1055728 L10.4472136,9.10557266 Z M10,9.99999993 L7,7.99999993 L7,11.9999999 L10,9.99999993 Z"/>
</svg>
