<svg xmlns="http://www.w3.org/2000/svg" width="16" height="16" viewBox="0 0 16 16">
  <path d="M10.8841248,1.80210546 C12.0550518,1.49320913 13.1034617,1.5624211 13.9873537,1.87291101 C14.2818774,1.97637006 14.4942915,2.08373121 14.6182857,2.16401923 L14.7815197,2.26971564 L14.8304435,2.45792709 C15.1075841,3.52409589 15.0309497,4.63293655 14.7387899,5.68772136 C14.6716186,5.93022975 14.6037728,6.13214329 14.5450103,6.28581719 C14.5797796,6.40658504 14.6186492,6.55923188 14.6570911,6.73951524 C14.8842687,7.80492554 14.9043515,8.93334544 14.5770131,10.0070148 C14.4504224,10.4222322 14.2737801,10.8154461 14.0431223,11.1820304 C13.7194411,11.6964568 13.3434892,12.1358677 12.925699,12.5050564 C12.1203491,13.2167201 11.3097963,13.5763569 10.6909211,13.7110954 C10.5515174,13.8899308 10.3454588,14.0922003 10.0623054,14.2889366 C9.41900387,14.7359055 8.56939843,15 7.50072952,15 C6.43146507,15 5.58147795,14.7359314 4.93795543,14.2889911 C4.65468763,14.0922555 4.44855845,13.8899778 4.30911646,13.7111275 C3.69098963,13.5766366 2.88148654,13.2178742 2.0771275,12.5080913 C1.65799154,12.1382372 1.28101395,11.6977577 0.956877669,11.1820304 C0.726219895,10.8154461 0.549577633,10.4222322 0.422986901,10.0070148 C0.0956485279,8.93334544 0.115731276,7.80492554 0.342908946,6.73951524 C0.381350807,6.55923188 0.42022037,6.40658504 0.45498967,6.28581719 C0.39622718,6.13214329 0.328381364,5.93022975 0.261210127,5.68772136 C-0.0309496751,4.63293655 -0.107584091,3.52409589 0.169556465,2.45792709 L0.218480262,2.26971564 L0.381714321,2.16401923 C0.505708516,2.08373121 0.718122559,1.97637006 1.01264625,1.87291101 C1.89651071,1.56243079 2.94488273,1.49321346 4.11576551,1.80207653 C4.2997288,1.69526542 4.5496433,1.57371765 4.8642179,1.45455218 C5.61587352,1.16981403 6.49702101,1 7.50072952,1 C8.50318435,1 9.38377917,1.16982064 10.1354173,1.45455218 C10.4500634,1.57374472 10.7000813,1.69530855 10.8841248,1.80210546 Z M13.9110179,2.91787557 C13.8428501,2.8869132 13.757538,2.85208545 13.6559312,2.81639343 C12.9074273,2.55346212 11.9966749,2.50710011 10.9482316,2.82299692 L10.7097791,2.89484286 L10.5087784,2.74780499 C10.399313,2.66772791 10.1548839,2.53127224 9.78116839,2.38970334 C9.13988337,2.14677518 8.37878939,2 7.50072952,2 C6.62137,2 5.85973442,2.14678179 5.21846685,2.38970334 C4.84484047,2.53123848 4.60067932,2.66763229 4.49146489,2.74762693 L4.29040103,2.89489714 L4.05176836,2.82299692 C3.00332509,2.50710011 2.09257268,2.55346212 1.34406882,2.81639343 C1.24246201,2.85208545 1.15714989,2.8869132 1.08898215,2.91787557 C0.922225486,3.72991539 0.995471835,4.5923926 1.22492474,5.42078666 C1.30878491,5.7235471 1.39119626,5.94482991 1.44210526,6.05797522 L1.5242057,6.24044354 L1.45776031,6.42917663 C1.42596302,6.51949444 1.37400937,6.69909155 1.32092236,6.94805725 C1.12608576,7.86179546 1.10889462,8.82774018 1.37951936,9.71538889 C1.48085465,10.0477685 1.62107901,10.3599145 1.80340578,10.6496864 C2.07611366,11.0835869 2.39056896,11.4510122 2.73877759,11.7582786 C3.17274525,12.1412205 3.63671077,12.4129409 4.09889079,12.5921741 C4.36969212,12.6971908 4.57298317,12.7472978 4.67410496,12.7615043 L4.92192451,12.7963202 L5.04258591,13.0155633 C5.09309645,13.1073415 5.24089094,13.2818642 5.50839398,13.4676508 C5.9837695,13.7978093 6.63458304,14 7.50072952,14 C8.36619488,14 9.01656939,13.7978352 9.49170998,13.4677053 C9.75910852,13.2819155 9.9068872,13.1073712 9.95741409,13.0155633 L10.0780597,12.7963489 L10.3258432,12.7615116 C10.4270746,12.7472789 10.630596,12.6970601 10.9017127,12.591789 C11.3644555,12.4121119 11.8289963,12.1396864 12.2635226,11.7557085 C12.6107209,11.4488997 12.9244274,11.082241 13.1967286,10.6494727 C13.378921,10.3599145 13.5191453,10.0477685 13.6204806,9.71538889 C13.8911054,8.82774018 13.8739142,7.86179546 13.6790776,6.94805725 C13.6259906,6.69909155 13.574037,6.51949444 13.5422397,6.42917663 L13.4757943,6.24044354 L13.5578947,6.05797522 C13.6088037,5.94482991 13.6912151,5.7235471 13.7750753,5.42078666 C14.0045282,4.5923926 14.0777745,3.72991539 13.9110179,2.91787557 Z M4.99978131,5.00871848 C5.00385851,5.188959 4.95221398,5.37236163 4.73612242,5.62374972 C4.3080165,6.12178272 3.75079926,6.11229638 3.30502547,5.67276249 C2.97884953,5.35180789 2.9802086,4.94073303 3.01554432,4.62610265 C3.09980644,3.86561416 3.76303086,3.90355954 4.27675797,4.18656877 C4.76330375,4.45534848 4.99434504,4.8016 4.99978131,5.00871848 Z M10.0002239,5.00871848 C10.0056633,4.8016 10.2368363,4.45534848 10.7236595,4.18656877 C11.2376796,3.90355954 11.8999223,3.86561416 11.9842325,4.62610265 C12.0195884,4.94073303 12.0223081,5.35180789 11.6959461,5.67276249 C11.2499182,6.11229638 10.6910233,6.12178272 10.2626733,5.62374972 C10.0464585,5.37236163 9.99614438,5.188959 10.0002239,5.00871848 Z M7.50024165,8 C6.99680644,8 6.52357734,7.76015303 6.12514433,7.32754562 C5.72671132,6.89640965 5.53252916,6.20188346 6.12514433,5.80017657 C6.50919348,5.54120071 7.20681084,5.5 7.50024165,5.5 C7.79367246,5.5 8.49128983,5.54120071 8.87533898,5.80017657 C9.46795414,6.20188346 9.2723336,6.89640965 8.87533898,7.32754562 C8.47690597,7.76015303 8.00223848,8 7.50024165,8 Z M7.5007527,9 C8.30771274,9 10.1564943,9.99357811 9.98938134,11.074411 C9.83732357,12.0665817 7.8756278,11.9990297 7.5007527,11.9990297 C7.12587761,11.9990297 5.16418184,12.0665817 5.01061854,11.074411 C4.84350555,9.99357811 6.69228714,9 7.5007527,9 Z"/>
</svg>
