<svg xmlns="http://www.w3.org/2000/svg" width="16" height="16" viewBox="0 0 16 16">
  <path d="M10.7249422,3.65303793 C12.6689413,4.64572768 14,6.66742113 14,9 C14,9.7727401 13.8536077,10.5259872 13.5722293,11.2288599 C13.4696005,11.4852228 13.1785802,11.6098489 12.9222173,11.5072202 C12.6658544,11.4045914 12.5412283,11.1135711 12.6438571,10.8572082 C12.8781144,10.2720422 13,9.64489178 13,9 C13,6.38842374 10.9977827,4.24449039 8.44464952,4.01950128 C8.29758926,4.00652715 8.14926803,4 8,4 C5.23814237,4 3,6.23814237 3,9 C3,9.54962353 3.08794838,10.0849754 3.25830914,10.5910245 C3.28672394,10.6757394 3.3174287,10.7596837 3.35039638,10.8427882 C3.43523018,11.0566361 3.36225366,11.294046 3.18710463,11.4262102 C3.17144331,11.4380036 3.1549436,11.4489848 3.1376367,11.4590636 C3.13601,11.4600358 3.13436429,11.4609808 3.1327116,11.4619173 L1.39054744,12.4706962 C1.13305682,12.619793 0.803130948,12.5123949 0.682749841,12.2402926 C0.234729341,11.2276136 0,10.1293288 0,9 C0,4.58185763 3.58185763,1 8,1 C9.11912532,1 10.2078777,1.23071825 11.2118527,1.67111552 C11.4828939,1.79000873 11.5919091,2.1170178 11.4464293,2.37476682 L10.7249422,3.65303793 Z M9.79168069,3.27206459 L10.2928325,2.38416533 C9.56290377,2.13126728 8.79058089,2 8,2 C4.13414237,2 1,5.13414237 1,9 C1,9.79827358 1.13369583,10.5778999 1.39129508,11.314718 L2.27556393,10.8026929 C2.09382648,10.2248087 2,9.6186421 2,9 C2,5.6862915 4.6862915,3 8,3 C8.62406273,3 9.22587269,3.09527546 9.79167769,3.27207418 Z M6.73048093,9.46775054 C6.4326997,9.15399916 6.25,8.7299578 6.25,8.26324463 C6.25,7.29674632 7.03350169,6.51324463 8,6.51324463 C8.96649831,6.51324463 9.75,7.29674632 9.75,8.26324463 C9.75,8.7299578 9.5673003,9.15399916 9.26951907,9.46775054 C9.71554674,9.83455838 10,10.3906827 10,11.0132446 C10,12.1178141 9.1045695,13.0132446 8,13.0132446 C6.8954305,13.0132446 6,12.1178141 6,11.0132446 C6,10.3906827 6.28445326,9.83455838 6.73048093,9.46775054 Z M8,12.0132446 C8.55228475,12.0132446 9,11.5655294 9,11.0132446 C9,10.4609599 8.55228475,10.0132446 8,10.0132446 C7.44771525,10.0132446 7,10.4609599 7,11.0132446 C7,11.5655294 7.44771525,12.0132446 8,12.0132446 Z M8,9.01324463 C8.41421356,9.01324463 8.75,8.67745819 8.75,8.26324463 C8.75,7.84903107 8.41421356,7.51324463 8,7.51324463 C7.58578644,7.51324463 7.25,7.84903107 7.25,8.26324463 C7.25,8.67745819 7.58578644,9.01324463 8,9.01324463 Z"/>
</svg>
