<svg xmlns="http://www.w3.org/2000/svg" width="16" height="16" viewBox="0 0 16 16">
  <path d="M8.5,5 L8.5,11 L10.5,11 C10.7761424,11 11,11.2238576 11,11.5 C11,11.7761424 10.7761424,12 10.5,12 L5.5,12 C5.22385763,12 5,11.7761424 5,11.5 C5,11.2238576 5.22385763,11 5.5,11 L7.5,11 L7.5,5 L5,5 L5,5.5 C5,5.77614237 4.77614237,6 4.5,6 C4.22385763,6 4,5.77614237 4,5.5 L4,4.5 C4,4.22385763 4.22385763,4 4.5,4 L11.5,4 C11.7803095,4 12.0058551,4.23040026 11.9998866,4.51064624 L11.9785893,5.51064624 C11.9727096,5.78672601 11.7441362,6.0057664 11.4680564,5.99988664 C11.1919767,5.99400689 10.9729363,5.76543353 10.978816,5.48935376 L10.989238,5 L8.5,5 Z M1,15 L2.5,15 C2.77614237,15 3,15.2238576 3,15.5 C3,15.7761424 2.77614237,16 2.5,16 L0.5,16 C0.223857625,16 0,15.7761424 0,15.5 L0,13.5036926 C0,13.2275503 0.223857625,13.0036926 0.5,13.0036926 C0.776142375,13.0036926 1,13.2275503 1,13.5036926 L1,15 Z M1,1 L1,2.49694824 C1,2.77309062 0.776142375,2.99694824 0.5,2.99694824 C0.223857625,2.99694824 0,2.77309062 0,2.49694824 L0,0.5 C0,0.223857625 0.223857625,0 0.5,0 L2.5,0 C2.77614237,0 3,0.223857625 3,0.5 C3,0.776142375 2.77614237,1 2.5,1 L1,1 Z M15,1 L13.5045776,1 C13.2284353,1 13.0045776,0.776142375 13.0045776,0.5 C13.0045776,0.223857625 13.2284353,0 13.5045776,0 L15.5,0 C15.7761424,0 16,0.223857625 16,0.5 L16,2.5 C16,2.77614237 15.7761424,3 15.5,3 C15.2238576,3 15,2.77614237 15,2.5 L15,1 Z M15,15 L15,13.5 C15,13.2238576 15.2238576,13 15.5,13 C15.7761424,13 16,13.2238576 16,13.5 L16,15.5 C16,15.7761424 15.7761424,16 15.5,16 L13.5,16 C13.2238576,16 13,15.7761424 13,15.5 C13,15.2238576 13.2238576,15 13.5,15 L15,15 Z M0,6.5 C0,6.22385763 0.223857625,6 0.5,6 C0.776142375,6 1,6.22385763 1,6.5 L1,9.5 C1,9.77614237 0.776142375,10 0.5,10 C0.223857625,10 0,9.77614237 0,9.5 L0,6.5 Z M9.5,0 C9.77614237,0 10,0.223857625 10,0.5 C10,0.776142375 9.77614237,1 9.5,1 L6.5,1 C6.22385763,1 6,0.776142375 6,0.5 C6,0.223857625 6.22385763,0 6.5,0 L9.5,0 Z M15,6.5 C15,6.22385763 15.2238576,6 15.5,6 C15.7761424,6 16,6.22385763 16,6.5 L16,9.5 C16,9.77614237 15.7761424,10 15.5,10 C15.2238576,10 15,9.77614237 15,9.5 L15,6.5 Z M9.5,15 C9.77614237,15 10,15.2238576 10,15.5 C10,15.7761424 9.77614237,16 9.5,16 L6.5,16 C6.22385763,16 6,15.7761424 6,15.5 C6,15.2238576 6.22385763,15 6.5,15 L9.5,15 Z"/>
</svg>
