<svg xmlns="http://www.w3.org/2000/svg" width="16" height="16" viewBox="0 0 16 16">
  <path d="M8.31880073,10.3626653 L14.7348444,10.3626653 C15.8394139,10.3626653 16.7348444,9.46723481 16.7348444,8.36266531 C16.7348444,7.25809581 15.8394139,6.36266531 14.7348444,6.36266531 L10.2707638,6.36266531 C9.99462146,6.36266531 9.77076384,6.13880768 9.77076384,5.86266531 C9.77076384,5.58652293 9.99462146,5.36266531 10.2707638,5.36266531 L14.7348444,5.36266531 C16.3916987,5.36266531 17.7348444,6.70581106 17.7348444,8.36266531 C17.7348444,10.0195196 16.3916987,11.3626653 14.7348444,11.3626653 L7.7352106,11.3626653 C6.82300427,12.577112 5.37066225,13.3626653 3.73484442,13.3626653 C1.59885679,13.3626653 -0.280100316,12.0109493 -0.980516964,10.0292883 C-1.09551102,9.70394023 -0.854169525,9.36266531 -0.509097021,9.36266531 L2.73484442,9.36266531 C3.28712917,9.36266531 3.73484442,8.91495006 3.73484442,8.36266531 C3.73484442,7.81038056 3.28712917,7.36266531 2.73484442,7.36266531 L-0.509097021,7.36266531 C-0.854169525,7.36266531 -1.09551102,7.02139039 -0.980516964,6.69604227 C-0.280100316,4.7143813 1.59885679,3.36266531 3.73484442,3.36266531 C6.49626817,3.36266531 8.73484442,5.60124156 8.73484442,8.36266531 C8.73484442,9.07377002 8.58639692,9.75020296 8.31880073,10.3626653 Z M0.269389624,10.3626653 C0.970499968,11.576631 2.27799475,12.3626653 3.73484442,12.3626653 C5.94398342,12.3626653 7.73484442,10.5718043 7.73484442,8.36266531 C7.73484442,6.15352631 5.94398342,4.36266531 3.73484442,4.36266531 C2.27799475,4.36266531 0.970499968,5.14869965 0.269389624,6.36266531 L2.73484442,6.36266531 C3.83941392,6.36266531 4.73484442,7.25809581 4.73484442,8.36266531 C4.73484442,9.46723481 3.83941392,10.3626653 2.73484442,10.3626653 L0.269389624,10.3626653 Z M13.7348444,9.36266531 C13.1825597,9.36266531 12.7348444,8.91495006 12.7348444,8.36266531 C12.7348444,7.81038056 13.1825597,7.36266531 13.7348444,7.36266531 C14.2871292,7.36266531 14.7348444,7.81038056 14.7348444,8.36266531 C14.7348444,8.91495006 14.2871292,9.36266531 13.7348444,9.36266531 Z" transform="rotate(45 8.363 8.363)"/>
</svg>
