<svg width="727" height="529" viewBox="0 0 727 529" fill="none" xmlns="http://www.w3.org/2000/svg">
<rect width="727" height="529" fill="white"/>
<g opacity="0.6">
<rect x="34" y="42" width="421" height="48" rx="4" fill="#98A2B3"/>
<rect opacity="0.6" x="34" y="110" width="100" height="8" rx="2" fill="#98A2B3"/>
<rect x="35" y="131" width="378" height="38" rx="2" fill="white" stroke="#98A2B3" stroke-width="2"/>
<rect opacity="0.5" x="34" y="182" width="120" height="6" rx="3" fill="#D3DAE6"/>
<rect opacity="0.6" x="34" y="216" width="100" height="8" rx="2" fill="#98A2B3"/>
<rect x="35" y="237" width="378" height="38" rx="2" fill="white" stroke="#98A2B3" stroke-width="2"/>
<rect opacity="0.5" x="34" y="288" width="120" height="6" rx="3" fill="#D3DAE6"/>
<rect opacity="0.6" x="34" y="322" width="100" height="8" rx="2" fill="#98A2B3"/>
<rect x="35" y="343" width="378" height="38" rx="2" fill="white" stroke="#98A2B3" stroke-width="2"/>
<rect opacity="0.5" x="34" y="394" width="120" height="6" rx="3" fill="#D3DAE6"/>
</g>
<rect x="34" y="425" width="194" height="62" rx="10" fill="#0077CC"/>
<path d="M114.453 452.344H117.496C117.436 449.395 114.922 447.307 111.206 447.307C107.542 447.307 104.789 449.369 104.797 452.455C104.797 454.96 106.578 456.401 109.451 457.142L111.436 457.653C113.32 458.131 114.564 458.719 114.573 460.074C114.564 461.565 113.15 462.562 111.087 462.562C109.11 462.562 107.576 461.676 107.448 459.844H104.337C104.465 463.312 107.047 465.264 111.113 465.264C115.297 465.264 117.726 463.176 117.735 460.099C117.726 457.074 115.229 455.693 112.604 455.071L110.968 454.662C109.536 454.321 107.985 453.716 108.002 452.259C108.01 450.946 109.186 449.983 111.164 449.983C113.047 449.983 114.292 450.861 114.453 452.344ZM124.184 465.264C126.238 465.264 127.466 464.301 128.028 463.202H128.13V465H131.096V456.239C131.096 452.778 128.275 451.739 125.778 451.739C123.025 451.739 120.912 452.966 120.23 455.352L123.11 455.761C123.417 454.866 124.287 454.099 125.795 454.099C127.227 454.099 128.011 454.832 128.011 456.119V456.17C128.011 457.057 127.082 457.099 124.772 457.347C122.233 457.619 119.804 458.378 119.804 461.327C119.804 463.901 121.687 465.264 124.184 465.264ZM124.985 462.997C123.699 462.997 122.778 462.409 122.778 461.276C122.778 460.091 123.809 459.597 125.19 459.401C126 459.29 127.619 459.085 128.02 458.761V460.304C128.02 461.761 126.843 462.997 124.985 462.997ZM145.423 451.909H142.142L139.125 461.634H138.988L135.98 451.909H132.69L137.352 465H140.761L145.423 451.909ZM152.908 465.256C155.959 465.256 158.056 463.764 158.601 461.489L155.721 461.165C155.303 462.273 154.28 462.852 152.951 462.852C150.956 462.852 149.635 461.54 149.61 459.298H158.729V458.352C158.729 453.759 155.968 451.739 152.746 451.739C148.996 451.739 146.55 454.491 146.55 458.531C146.55 462.639 148.962 465.256 152.908 465.256ZM149.618 457.219C149.712 455.548 150.948 454.142 152.789 454.142C154.561 454.142 155.755 455.438 155.772 457.219H149.618Z" fill="white"/>
<path d="M287.873 453.435C287.336 449.557 284.353 447.307 280.484 447.307C275.924 447.307 272.489 450.631 272.489 456.273C272.489 461.906 275.881 465.239 280.484 465.239C284.634 465.239 287.387 462.554 287.873 459.222L284.685 459.205C284.285 461.25 282.614 462.401 280.526 462.401C277.697 462.401 275.668 460.278 275.668 456.273C275.668 452.335 277.68 450.145 280.535 450.145C282.657 450.145 284.319 451.347 284.685 453.435H287.873ZM294.399 465.264C296.453 465.264 297.68 464.301 298.243 463.202H298.345V465H301.311V456.239C301.311 452.778 298.49 451.739 295.993 451.739C293.24 451.739 291.126 452.966 290.445 455.352L293.325 455.761C293.632 454.866 294.501 454.099 296.01 454.099C297.442 454.099 298.226 454.832 298.226 456.119V456.17C298.226 457.057 297.297 457.099 294.987 457.347C292.447 457.619 290.018 458.378 290.018 461.327C290.018 463.901 291.902 465.264 294.399 465.264ZM295.2 462.997C293.913 462.997 292.993 462.409 292.993 461.276C292.993 460.091 294.024 459.597 295.405 459.401C296.214 459.29 297.834 459.085 298.234 458.761V460.304C298.234 461.761 297.058 462.997 295.2 462.997ZM307.499 457.33C307.499 455.438 308.641 454.347 310.268 454.347C311.862 454.347 312.817 455.395 312.817 457.142V465H315.902V456.665C315.911 453.528 314.121 451.739 311.419 451.739C309.459 451.739 308.112 452.676 307.516 454.134H307.362V451.909H304.413V465H307.499V457.33ZM324.749 465.256C328.038 465.256 330.135 463.304 330.357 460.526H327.408C327.143 461.932 326.129 462.741 324.774 462.741C322.848 462.741 321.604 461.131 321.604 458.455C321.604 455.812 322.874 454.227 324.774 454.227C326.257 454.227 327.169 455.182 327.408 456.443H330.357C330.143 453.605 327.928 451.739 324.732 451.739C320.896 451.739 318.476 454.509 318.476 458.506C318.476 462.469 320.837 465.256 324.749 465.256ZM338.685 465.256C341.737 465.256 343.833 463.764 344.379 461.489L341.498 461.165C341.08 462.273 340.058 462.852 338.728 462.852C336.734 462.852 335.413 461.54 335.387 459.298H344.506V458.352C344.506 453.759 341.745 451.739 338.523 451.739C334.773 451.739 332.327 454.491 332.327 458.531C332.327 462.639 334.739 465.256 338.685 465.256ZM335.396 457.219C335.489 455.548 336.725 454.142 338.566 454.142C340.339 454.142 341.532 455.438 341.549 457.219H335.396ZM350.202 447.545H347.116V465H350.202V447.545Z" fill="#0077CC"/>
<rect x="482" y="42" width="213" height="358" rx="6" fill="#E6F9F7"/>
</svg>
