<svg width="1200" height="666" viewBox="0 0 1200 666" fill="none" xmlns="http://www.w3.org/2000/svg">
<rect width="1200" height="666" rx="4" fill="white"/>
<g filter="url(#filter0_ddd_1606_1228)">
<path d="M532 143.667C532 141.089 534.089 139 536.667 139H1075.33C1077.91 139 1080 141.089 1080 143.667V522.333C1080 524.911 1077.91 527 1075.33 527H536.667C534.089 527 532 524.911 532 522.333V143.667Z" fill="white" shape-rendering="crispEdges"/>
<rect x="582" y="257" width="448" height="30" rx="6" fill="#ECF1F9"/>
<rect x="582" y="297" width="448" height="30" rx="6" fill="#ECF1F9"/>
<rect x="582" y="337" width="448" height="30" rx="6" fill="#ECF1F9"/>
<rect x="582" y="377" width="169" height="30" rx="6" fill="#ECF1F9"/>
<rect x="862" y="427" width="168" height="60" rx="6" fill="#0B64DD"/>
<path d="M917.938 453.131C917.847 452.324 917.472 451.699 916.812 451.256C916.153 450.807 915.324 450.582 914.324 450.582C913.608 450.582 912.989 450.696 912.466 450.923C911.943 451.145 911.537 451.452 911.247 451.844C910.963 452.23 910.821 452.67 910.821 453.165C910.821 453.58 910.918 453.937 911.111 454.239C911.31 454.54 911.568 454.793 911.886 454.997C912.21 455.196 912.557 455.364 912.926 455.5C913.295 455.631 913.651 455.739 913.991 455.824L915.696 456.267C916.253 456.403 916.824 456.588 917.409 456.821C917.994 457.054 918.537 457.361 919.037 457.741C919.537 458.122 919.94 458.594 920.247 459.156C920.56 459.719 920.716 460.392 920.716 461.176C920.716 462.165 920.46 463.043 919.949 463.81C919.443 464.577 918.707 465.182 917.741 465.625C916.781 466.068 915.619 466.29 914.256 466.29C912.949 466.29 911.818 466.082 910.864 465.668C909.909 465.253 909.162 464.665 908.622 463.903C908.082 463.136 907.784 462.227 907.727 461.176H910.369C910.42 461.807 910.625 462.332 910.983 462.753C911.347 463.168 911.81 463.477 912.372 463.682C912.94 463.881 913.562 463.98 914.239 463.98C914.983 463.98 915.645 463.864 916.224 463.631C916.81 463.392 917.27 463.062 917.605 462.642C917.94 462.216 918.108 461.719 918.108 461.151C918.108 460.634 917.96 460.21 917.665 459.881C917.375 459.551 916.98 459.278 916.48 459.062C915.986 458.847 915.426 458.656 914.801 458.491L912.739 457.929C911.341 457.548 910.233 456.989 909.415 456.25C908.602 455.511 908.196 454.534 908.196 453.318C908.196 452.312 908.469 451.435 909.014 450.685C909.56 449.935 910.298 449.352 911.23 448.938C912.162 448.517 913.213 448.307 914.384 448.307C915.565 448.307 916.608 448.514 917.511 448.929C918.42 449.344 919.136 449.915 919.659 450.642C920.182 451.364 920.455 452.193 920.477 453.131H917.938ZM927.468 466.29C926.638 466.29 925.888 466.136 925.218 465.83C924.548 465.517 924.016 465.065 923.624 464.474C923.238 463.884 923.045 463.159 923.045 462.301C923.045 461.562 923.187 460.955 923.471 460.477C923.755 460 924.138 459.622 924.621 459.344C925.104 459.065 925.644 458.855 926.241 458.713C926.837 458.571 927.445 458.463 928.065 458.389C928.849 458.298 929.485 458.224 929.974 458.168C930.462 458.105 930.817 458.006 931.039 457.869C931.261 457.733 931.371 457.511 931.371 457.205V457.145C931.371 456.401 931.161 455.824 930.741 455.415C930.326 455.006 929.707 454.801 928.883 454.801C928.025 454.801 927.349 454.991 926.854 455.372C926.366 455.747 926.028 456.165 925.84 456.625L923.445 456.08C923.729 455.284 924.144 454.642 924.69 454.153C925.241 453.659 925.874 453.301 926.59 453.08C927.306 452.852 928.059 452.739 928.849 452.739C929.371 452.739 929.925 452.801 930.511 452.926C931.102 453.045 931.653 453.267 932.164 453.591C932.681 453.915 933.104 454.378 933.434 454.98C933.763 455.577 933.928 456.352 933.928 457.307V466H931.44V464.21H931.337C931.173 464.54 930.925 464.864 930.596 465.182C930.266 465.5 929.843 465.764 929.326 465.974C928.809 466.185 928.19 466.29 927.468 466.29ZM928.022 464.244C928.727 464.244 929.329 464.105 929.829 463.827C930.335 463.548 930.718 463.185 930.979 462.736C931.246 462.281 931.38 461.795 931.38 461.278V459.591C931.289 459.682 931.113 459.767 930.852 459.847C930.596 459.92 930.303 459.986 929.974 460.043C929.644 460.094 929.323 460.142 929.011 460.188C928.698 460.227 928.437 460.261 928.227 460.29C927.732 460.352 927.281 460.457 926.871 460.605C926.468 460.753 926.144 460.966 925.9 461.244C925.661 461.517 925.542 461.881 925.542 462.335C925.542 462.966 925.775 463.443 926.241 463.767C926.707 464.085 927.3 464.244 928.022 464.244ZM948.053 452.909L943.305 466H940.578L935.822 452.909H938.558L941.874 462.983H942.01L945.317 452.909H948.053ZM955.644 466.264C954.354 466.264 953.244 465.989 952.312 465.438C951.386 464.881 950.67 464.099 950.164 463.094C949.664 462.082 949.414 460.898 949.414 459.54C949.414 458.199 949.664 457.017 950.164 455.994C950.67 454.972 951.374 454.173 952.278 453.599C953.187 453.026 954.249 452.739 955.465 452.739C956.204 452.739 956.92 452.861 957.613 453.105C958.306 453.349 958.928 453.733 959.479 454.256C960.031 454.778 960.465 455.457 960.783 456.293C961.102 457.122 961.261 458.131 961.261 459.318V460.222H950.854V458.312H958.763C958.763 457.642 958.627 457.048 958.354 456.531C958.082 456.009 957.698 455.597 957.204 455.295C956.715 454.994 956.141 454.844 955.482 454.844C954.766 454.844 954.141 455.02 953.607 455.372C953.079 455.719 952.67 456.173 952.38 456.736C952.096 457.293 951.954 457.898 951.954 458.551V460.043C951.954 460.918 952.107 461.662 952.414 462.276C952.727 462.889 953.161 463.358 953.718 463.682C954.275 464 954.925 464.159 955.67 464.159C956.153 464.159 956.593 464.091 956.991 463.955C957.388 463.812 957.732 463.602 958.022 463.324C958.312 463.045 958.533 462.702 958.687 462.293L961.099 462.727C960.906 463.437 960.559 464.06 960.059 464.594C959.565 465.122 958.942 465.534 958.192 465.83C957.448 466.119 956.599 466.264 955.644 466.264ZM972.477 448.545L976.653 455.372H976.789L980.965 448.545H984.016L978.579 457.273L984.05 466H980.982L976.789 459.267H976.653L972.46 466H969.391L974.957 457.273L969.425 448.545H972.477Z" fill="white"/>
<path d="M606.672 199.457H601.228C601.128 198.753 600.925 198.127 600.619 197.58C600.312 197.025 599.918 196.553 599.438 196.163C598.957 195.774 598.402 195.476 597.772 195.268C597.151 195.061 596.476 194.958 595.746 194.958C594.429 194.958 593.281 195.285 592.304 195.94C591.326 196.586 590.568 197.531 590.029 198.773C589.491 200.008 589.221 201.508 589.221 203.273C589.221 205.087 589.491 206.612 590.029 207.847C590.576 209.081 591.338 210.013 592.316 210.643C593.294 211.273 594.425 211.588 595.709 211.588C596.43 211.588 597.097 211.492 597.71 211.302C598.332 211.111 598.883 210.834 599.363 210.469C599.844 210.096 600.242 209.645 600.556 209.114C600.88 208.584 601.103 207.979 601.228 207.3L606.672 207.325C606.531 208.493 606.179 209.62 605.615 210.705C605.06 211.782 604.31 212.748 603.365 213.601C602.429 214.446 601.31 215.118 600.01 215.615C598.717 216.104 597.254 216.348 595.622 216.348C593.352 216.348 591.322 215.834 589.532 214.807C587.75 213.779 586.342 212.292 585.306 210.345C584.279 208.398 583.765 206.04 583.765 203.273C583.765 200.497 584.287 198.135 585.331 196.188C586.375 194.241 587.792 192.758 589.582 191.739C591.371 190.711 593.385 190.197 595.622 190.197C597.097 190.197 598.464 190.405 599.724 190.819C600.991 191.233 602.114 191.838 603.092 192.634C604.07 193.421 604.865 194.386 605.478 195.529C606.1 196.673 606.498 197.982 606.672 199.457ZM610.431 216V196.909H615.564V200.24H615.763C616.111 199.055 616.695 198.16 617.516 197.555C618.336 196.942 619.281 196.636 620.35 196.636C620.615 196.636 620.901 196.652 621.207 196.685C621.514 196.719 621.783 196.764 622.015 196.822V201.52C621.767 201.446 621.423 201.379 620.983 201.321C620.544 201.263 620.142 201.234 619.778 201.234C618.999 201.234 618.303 201.404 617.69 201.744C617.085 202.075 616.604 202.539 616.248 203.136C615.9 203.733 615.726 204.42 615.726 205.199V216H610.431ZM632.564 216.373C630.6 216.373 628.91 215.975 627.493 215.18C626.085 214.376 624.999 213.241 624.237 211.774C623.474 210.299 623.093 208.555 623.093 206.542C623.093 204.578 623.474 202.854 624.237 201.371C624.999 199.888 626.072 198.732 627.456 197.903C628.848 197.075 630.48 196.661 632.353 196.661C633.612 196.661 634.785 196.864 635.87 197.27C636.964 197.667 637.917 198.268 638.729 199.072C639.549 199.875 640.187 200.886 640.643 202.104C641.099 203.314 641.327 204.731 641.327 206.355V207.809H625.206V204.528H636.343C636.343 203.766 636.177 203.09 635.845 202.502C635.514 201.914 635.054 201.454 634.466 201.123C633.886 200.783 633.21 200.613 632.44 200.613C631.636 200.613 630.924 200.799 630.302 201.172C629.689 201.537 629.208 202.03 628.86 202.651C628.512 203.264 628.334 203.948 628.326 204.702V207.822C628.326 208.766 628.5 209.583 628.848 210.27C629.204 210.958 629.706 211.488 630.352 211.861C630.998 212.234 631.765 212.42 632.651 212.42C633.239 212.42 633.778 212.338 634.267 212.172C634.756 212.006 635.174 211.758 635.522 211.426C635.87 211.095 636.135 210.689 636.318 210.208L641.215 210.531C640.966 211.708 640.457 212.735 639.686 213.614C638.924 214.484 637.938 215.163 636.728 215.652C635.526 216.133 634.139 216.373 632.564 216.373ZM650.226 216.36C649.008 216.36 647.922 216.149 646.969 215.727C646.016 215.296 645.262 214.662 644.707 213.825C644.16 212.98 643.887 211.927 643.887 210.668C643.887 209.607 644.082 208.717 644.471 207.996C644.861 207.275 645.391 206.695 646.062 206.256C646.733 205.817 647.496 205.485 648.349 205.261C649.211 205.038 650.114 204.88 651.059 204.789C652.169 204.673 653.064 204.565 653.743 204.466C654.423 204.358 654.916 204.201 655.222 203.994C655.529 203.786 655.682 203.48 655.682 203.074V202.999C655.682 202.212 655.434 201.603 654.936 201.172C654.447 200.741 653.751 200.526 652.848 200.526C651.895 200.526 651.137 200.737 650.574 201.16C650.01 201.574 649.637 202.096 649.455 202.726L644.558 202.328C644.807 201.168 645.296 200.165 646.025 199.32C646.754 198.467 647.694 197.812 648.846 197.357C650.006 196.893 651.349 196.661 652.873 196.661C653.934 196.661 654.949 196.785 655.918 197.033C656.896 197.282 657.762 197.667 658.516 198.189C659.278 198.711 659.879 199.382 660.318 200.203C660.757 201.015 660.977 201.988 660.977 203.124V216H655.956V213.353H655.806C655.5 213.949 655.09 214.475 654.576 214.931C654.062 215.379 653.445 215.731 652.724 215.988C652.003 216.236 651.17 216.36 650.226 216.36ZM651.742 212.706C652.521 212.706 653.209 212.553 653.805 212.246C654.402 211.932 654.87 211.509 655.21 210.979C655.55 210.448 655.719 209.848 655.719 209.176V207.151C655.554 207.258 655.326 207.358 655.036 207.449C654.754 207.532 654.435 207.61 654.079 207.685C653.722 207.751 653.366 207.813 653.01 207.871C652.654 207.921 652.33 207.967 652.04 208.008C651.419 208.099 650.876 208.244 650.412 208.443C649.948 208.642 649.588 208.911 649.331 209.251C649.074 209.583 648.946 209.997 648.946 210.494C648.946 211.215 649.207 211.766 649.729 212.147C650.259 212.52 650.93 212.706 651.742 212.706ZM675.239 196.909V200.886H663.742V196.909H675.239ZM666.352 192.335H671.647V210.134C671.647 210.622 671.722 211.004 671.871 211.277C672.02 211.542 672.227 211.729 672.492 211.836C672.766 211.944 673.081 211.998 673.437 211.998C673.685 211.998 673.934 211.977 674.183 211.936C674.431 211.886 674.622 211.849 674.754 211.824L675.587 215.764C675.322 215.847 674.949 215.942 674.468 216.05C673.988 216.166 673.404 216.236 672.716 216.261C671.44 216.311 670.321 216.141 669.36 215.751C668.407 215.362 667.666 214.757 667.135 213.937C666.605 213.116 666.344 212.081 666.352 210.83V192.335ZM687.183 216.373C685.22 216.373 683.529 215.975 682.112 215.18C680.704 214.376 679.618 213.241 678.856 211.774C678.094 210.299 677.712 208.555 677.712 206.542C677.712 204.578 678.094 202.854 678.856 201.371C679.618 199.888 680.691 198.732 682.075 197.903C683.467 197.075 685.099 196.661 686.972 196.661C688.232 196.661 689.404 196.864 690.489 197.27C691.583 197.667 692.536 198.268 693.348 199.072C694.168 199.875 694.806 200.886 695.262 202.104C695.718 203.314 695.946 204.731 695.946 206.355V207.809H679.825V204.528H690.962C690.962 203.766 690.796 203.09 690.465 202.502C690.133 201.914 689.673 201.454 689.085 201.123C688.505 200.783 687.83 200.613 687.059 200.613C686.255 200.613 685.543 200.799 684.921 201.172C684.308 201.537 683.828 202.03 683.479 202.651C683.131 203.264 682.953 203.948 682.945 204.702V207.822C682.945 208.766 683.119 209.583 683.467 210.27C683.823 210.958 684.325 211.488 684.971 211.861C685.617 212.234 686.384 212.42 687.27 212.42C687.859 212.42 688.397 212.338 688.886 212.172C689.375 212.006 689.793 211.758 690.141 211.426C690.489 211.095 690.755 210.689 690.937 210.208L695.834 210.531C695.585 211.708 695.076 212.735 694.305 213.614C693.543 214.484 692.557 215.163 691.347 215.652C690.146 216.133 688.758 216.373 687.183 216.373ZM712.647 190.545L717.78 199.221H717.979L723.137 190.545H729.215L721.447 203.273L729.389 216H723.199L717.979 207.312H717.78L712.56 216H706.395L714.362 203.273L706.545 190.545H712.647Z" fill="#1D2A3E"/>
</g>
<rect x="120" y="293" width="229" height="80" rx="8" fill="#0B64DD"/>
<path d="M159 341V334H152V332H159V325H161V332H168V334H161V341H159Z" fill="white"/>
<path fill-rule="evenodd" clip-rule="evenodd" d="M174 333C174 340.732 167.732 347 160 347C152.268 347 146 340.732 146 333C146 325.268 152.268 319 160 319C167.732 319 174 325.268 174 333ZM172 333C172 339.627 166.627 345 160 345C153.373 345 148 339.627 148 333C148 326.373 153.373 321 160 321C166.627 321 172 326.373 172 333Z" fill="white"/>
<path d="M213.886 329.295H210.341C210.205 328.538 209.951 327.871 209.58 327.295C209.208 326.72 208.754 326.231 208.216 325.83C207.678 325.428 207.076 325.125 206.409 324.92C205.75 324.716 205.049 324.614 204.307 324.614C202.966 324.614 201.765 324.951 200.705 325.625C199.652 326.299 198.818 327.288 198.205 328.591C197.598 329.894 197.295 331.485 197.295 333.364C197.295 335.258 197.598 336.856 198.205 338.159C198.818 339.462 199.655 340.447 200.716 341.114C201.777 341.78 202.97 342.114 204.295 342.114C205.03 342.114 205.727 342.015 206.386 341.818C207.053 341.614 207.655 341.314 208.193 340.92C208.731 340.527 209.186 340.045 209.557 339.477C209.936 338.902 210.197 338.242 210.341 337.5L213.886 337.511C213.697 338.655 213.33 339.708 212.784 340.67C212.246 341.625 211.553 342.451 210.705 343.148C209.864 343.837 208.902 344.371 207.818 344.75C206.735 345.129 205.553 345.318 204.273 345.318C202.258 345.318 200.462 344.841 198.886 343.886C197.311 342.924 196.068 341.549 195.159 339.761C194.258 337.973 193.807 335.841 193.807 333.364C193.807 330.879 194.261 328.746 195.17 326.966C196.08 325.178 197.322 323.807 198.898 322.852C200.473 321.89 202.265 321.409 204.273 321.409C205.508 321.409 206.659 321.587 207.727 321.943C208.803 322.292 209.769 322.807 210.625 323.489C211.481 324.163 212.189 324.989 212.75 325.966C213.311 326.936 213.689 328.045 213.886 329.295ZM217.815 345V327.545H221.099V330.318H221.281C221.599 329.379 222.16 328.64 222.963 328.102C223.774 327.557 224.69 327.284 225.713 327.284C225.925 327.284 226.175 327.292 226.463 327.307C226.759 327.322 226.99 327.341 227.156 327.364V330.614C227.02 330.576 226.777 330.534 226.429 330.489C226.08 330.436 225.732 330.409 225.384 330.409C224.58 330.409 223.865 330.58 223.236 330.92C222.615 331.254 222.122 331.72 221.759 332.318C221.395 332.909 221.213 333.583 221.213 334.341V345H217.815ZM236.994 345.352C235.275 345.352 233.794 344.985 232.551 344.25C231.316 343.508 230.362 342.466 229.688 341.125C229.021 339.777 228.688 338.197 228.688 336.386C228.688 334.598 229.021 333.023 229.688 331.659C230.362 330.295 231.301 329.231 232.506 328.466C233.718 327.701 235.134 327.318 236.756 327.318C237.741 327.318 238.695 327.481 239.619 327.807C240.544 328.133 241.373 328.644 242.108 329.341C242.843 330.038 243.422 330.943 243.847 332.057C244.271 333.163 244.483 334.508 244.483 336.091V337.295H230.608V334.75H241.153C241.153 333.856 240.972 333.064 240.608 332.375C240.244 331.678 239.733 331.129 239.074 330.727C238.422 330.326 237.657 330.125 236.778 330.125C235.824 330.125 234.991 330.36 234.278 330.83C233.574 331.292 233.028 331.898 232.642 332.648C232.263 333.39 232.074 334.197 232.074 335.068V337.057C232.074 338.223 232.278 339.216 232.688 340.034C233.104 340.852 233.684 341.477 234.426 341.909C235.169 342.333 236.036 342.545 237.028 342.545C237.672 342.545 238.259 342.455 238.79 342.273C239.32 342.083 239.778 341.803 240.165 341.432C240.551 341.061 240.847 340.602 241.051 340.057L244.267 340.636C244.009 341.583 243.547 342.413 242.881 343.125C242.222 343.83 241.392 344.379 240.392 344.773C239.4 345.159 238.267 345.352 236.994 345.352ZM253.332 345.386C252.226 345.386 251.226 345.182 250.332 344.773C249.438 344.356 248.73 343.754 248.207 342.966C247.692 342.178 247.435 341.212 247.435 340.068C247.435 339.083 247.624 338.273 248.003 337.636C248.382 337 248.893 336.496 249.537 336.125C250.181 335.754 250.901 335.473 251.696 335.284C252.491 335.095 253.302 334.951 254.128 334.852C255.173 334.731 256.022 334.633 256.673 334.557C257.325 334.473 257.798 334.341 258.094 334.159C258.389 333.977 258.537 333.682 258.537 333.273V333.193C258.537 332.201 258.257 331.432 257.696 330.886C257.143 330.341 256.317 330.068 255.219 330.068C254.075 330.068 253.173 330.322 252.514 330.83C251.863 331.33 251.412 331.886 251.162 332.5L247.969 331.773C248.348 330.712 248.901 329.856 249.628 329.205C250.363 328.545 251.207 328.068 252.162 327.773C253.116 327.47 254.12 327.318 255.173 327.318C255.87 327.318 256.609 327.402 257.389 327.568C258.177 327.727 258.912 328.023 259.594 328.455C260.283 328.886 260.848 329.504 261.287 330.307C261.726 331.102 261.946 332.136 261.946 333.409V345H258.628V342.614H258.491C258.272 343.053 257.942 343.485 257.503 343.909C257.063 344.333 256.499 344.686 255.81 344.966C255.12 345.246 254.295 345.386 253.332 345.386ZM254.071 342.659C255.01 342.659 255.813 342.473 256.48 342.102C257.154 341.731 257.666 341.246 258.014 340.648C258.37 340.042 258.548 339.394 258.548 338.705V336.455C258.427 336.576 258.192 336.689 257.844 336.795C257.503 336.894 257.113 336.981 256.673 337.057C256.234 337.125 255.806 337.189 255.389 337.25C254.973 337.303 254.624 337.348 254.344 337.386C253.685 337.47 253.082 337.61 252.537 337.807C251.999 338.004 251.567 338.288 251.241 338.659C250.923 339.023 250.764 339.508 250.764 340.114C250.764 340.955 251.075 341.591 251.696 342.023C252.317 342.447 253.109 342.659 254.071 342.659ZM274.619 327.545V330.273H265.085V327.545H274.619ZM267.642 323.364H271.04V339.875C271.04 340.534 271.138 341.03 271.335 341.364C271.532 341.689 271.786 341.913 272.097 342.034C272.415 342.148 272.759 342.205 273.131 342.205C273.403 342.205 273.642 342.186 273.847 342.148C274.051 342.11 274.21 342.08 274.324 342.057L274.938 344.864C274.741 344.939 274.46 345.015 274.097 345.091C273.733 345.174 273.278 345.22 272.733 345.227C271.839 345.242 271.006 345.083 270.233 344.75C269.46 344.417 268.835 343.902 268.358 343.205C267.881 342.508 267.642 341.633 267.642 340.58V323.364ZM285.713 345.352C283.993 345.352 282.512 344.985 281.27 344.25C280.035 343.508 279.08 342.466 278.406 341.125C277.74 339.777 277.406 338.197 277.406 336.386C277.406 334.598 277.74 333.023 278.406 331.659C279.08 330.295 280.02 329.231 281.224 328.466C282.437 327.701 283.853 327.318 285.474 327.318C286.459 327.318 287.414 327.481 288.338 327.807C289.262 328.133 290.092 328.644 290.827 329.341C291.562 330.038 292.141 330.943 292.565 332.057C292.99 333.163 293.202 334.508 293.202 336.091V337.295H279.327V334.75H289.872C289.872 333.856 289.69 333.064 289.327 332.375C288.963 331.678 288.452 331.129 287.793 330.727C287.141 330.326 286.376 330.125 285.497 330.125C284.543 330.125 283.709 330.36 282.997 330.83C282.293 331.292 281.747 331.898 281.361 332.648C280.982 333.39 280.793 334.197 280.793 335.068V337.057C280.793 338.223 280.997 339.216 281.406 340.034C281.823 340.852 282.402 341.477 283.145 341.909C283.887 342.333 284.755 342.545 285.747 342.545C286.391 342.545 286.978 342.455 287.509 342.273C288.039 342.083 288.497 341.803 288.884 341.432C289.27 341.061 289.565 340.602 289.77 340.057L292.986 340.636C292.728 341.583 292.266 342.413 291.599 343.125C290.94 343.83 290.111 344.379 289.111 344.773C288.118 345.159 286.986 345.352 285.713 345.352ZM308.156 321.727L313.724 330.83H313.906L319.474 321.727H323.543L316.293 333.364L323.588 345H319.497L313.906 336.023H313.724L308.134 345H304.043L311.463 333.364L304.088 321.727H308.156Z" fill="white"/>
<path d="M366.167 333C366.167 340.364 372.136 346.333 379.5 346.333C386.864 346.333 392.833 340.364 392.833 333C392.833 325.636 386.864 319.667 379.5 319.667C372.136 319.667 366.167 325.636 366.167 333ZM505.268 334.768C506.244 333.791 506.244 332.209 505.268 331.232L489.358 315.322C488.382 314.346 486.799 314.346 485.822 315.322C484.846 316.299 484.846 317.882 485.822 318.858L499.964 333L485.822 347.142C484.846 348.118 484.846 349.701 485.822 350.678C486.799 351.654 488.382 351.654 489.358 350.678L505.268 334.768ZM379.5 333L379.5 335.5L503.5 335.5L503.5 333L503.5 330.5L379.5 330.5L379.5 333Z" fill="#D13680"/>
<defs>
<filter id="filter0_ddd_1606_1228" x="472" y="79" width="668" height="508" filterUnits="userSpaceOnUse" color-interpolation-filters="sRGB">
<feFlood flood-opacity="0" result="BackgroundImageFix"/>
<feColorMatrix in="SourceAlpha" type="matrix" values="0 0 0 0 0 0 0 0 0 0 0 0 0 0 0 0 0 0 127 0" result="hardAlpha"/>
<feOffset/>
<feGaussianBlur stdDeviation="30"/>
<feComposite in2="hardAlpha" operator="out"/>
<feColorMatrix type="matrix" values="0 0 0 0 0.168627 0 0 0 0 0.223529 0 0 0 0 0.309804 0 0 0 0.12 0"/>
<feBlend mode="normal" in2="BackgroundImageFix" result="effect1_dropShadow_1606_1228"/>
<feColorMatrix in="SourceAlpha" type="matrix" values="0 0 0 0 0 0 0 0 0 0 0 0 0 0 0 0 0 0 127 0" result="hardAlpha"/>
<feOffset/>
<feGaussianBlur stdDeviation="10"/>
<feComposite in2="hardAlpha" operator="out"/>
<feColorMatrix type="matrix" values="0 0 0 0 0.168627 0 0 0 0 0.223529 0 0 0 0 0.309804 0 0 0 0.12 0"/>
<feBlend mode="normal" in2="effect1_dropShadow_1606_1228" result="effect2_dropShadow_1606_1228"/>
<feColorMatrix in="SourceAlpha" type="matrix" values="0 0 0 0 0 0 0 0 0 0 0 0 0 0 0 0 0 0 127 0" result="hardAlpha"/>
<feOffset/>
<feGaussianBlur stdDeviation="1"/>
<feComposite in2="hardAlpha" operator="out"/>
<feColorMatrix type="matrix" values="0 0 0 0 0.168627 0 0 0 0 0.223529 0 0 0 0 0.309804 0 0 0 0.12 0"/>
<feBlend mode="normal" in2="effect2_dropShadow_1606_1228" result="effect3_dropShadow_1606_1228"/>
<feBlend mode="normal" in="SourceGraphic" in2="effect3_dropShadow_1606_1228" result="shape"/>
</filter>
</defs>
</svg>
