<svg width="1200" height="742" viewBox="0 0 1200 742" fill="none" xmlns="http://www.w3.org/2000/svg">
<rect width="1200" height="742" rx="4" fill="white"/>
<rect x="856" y="82" width="224" height="80" rx="8" fill="#0B64DD"/>
<path d="M923.023 134H919.295L927.67 110.727H931.727L940.102 134H936.375L929.795 114.955H929.614L923.023 134ZM923.648 124.886H935.739V127.841H923.648V124.886ZM950.261 134.352C948.572 134.352 947.117 133.97 945.898 133.205C944.686 132.432 943.754 131.367 943.102 130.011C942.451 128.655 942.125 127.102 942.125 125.352C942.125 123.58 942.458 122.015 943.125 120.659C943.792 119.295 944.731 118.231 945.943 117.466C947.155 116.701 948.583 116.318 950.227 116.318C951.553 116.318 952.735 116.564 953.773 117.057C954.811 117.542 955.648 118.223 956.284 119.102C956.928 119.981 957.311 121.008 957.432 122.182H954.125C953.943 121.364 953.527 120.659 952.875 120.068C952.231 119.477 951.367 119.182 950.284 119.182C949.337 119.182 948.508 119.432 947.795 119.932C947.091 120.424 946.542 121.129 946.148 122.045C945.754 122.955 945.557 124.03 945.557 125.273C945.557 126.545 945.75 127.644 946.136 128.568C946.523 129.492 947.068 130.208 947.773 130.716C948.485 131.223 949.322 131.477 950.284 131.477C950.928 131.477 951.511 131.36 952.034 131.125C952.564 130.883 953.008 130.538 953.364 130.091C953.727 129.644 953.981 129.106 954.125 128.477H957.432C957.311 129.606 956.943 130.614 956.33 131.5C955.716 132.386 954.894 133.083 953.864 133.591C952.841 134.098 951.64 134.352 950.261 134.352ZM969.213 116.545V119.273H959.679V116.545H969.213ZM962.236 112.364H965.634V128.875C965.634 129.534 965.732 130.03 965.929 130.364C966.126 130.689 966.38 130.913 966.69 131.034C967.009 131.148 967.353 131.205 967.724 131.205C967.997 131.205 968.236 131.186 968.44 131.148C968.645 131.11 968.804 131.08 968.918 131.057L969.531 133.864C969.334 133.939 969.054 134.015 968.69 134.091C968.327 134.174 967.872 134.22 967.327 134.227C966.433 134.242 965.599 134.083 964.827 133.75C964.054 133.417 963.429 132.902 962.952 132.205C962.474 131.508 962.236 130.633 962.236 129.58V112.364ZM972.972 134V116.545H976.369V134H972.972ZM974.688 113.852C974.097 113.852 973.589 113.655 973.165 113.261C972.748 112.86 972.54 112.383 972.54 111.83C972.54 111.269 972.748 110.792 973.165 110.398C973.589 109.996 974.097 109.795 974.688 109.795C975.278 109.795 975.782 109.996 976.199 110.398C976.623 110.792 976.835 111.269 976.835 111.83C976.835 112.383 976.623 112.86 976.199 113.261C975.782 113.655 975.278 113.852 974.688 113.852ZM988.293 134.352C986.656 134.352 985.228 133.977 984.009 133.227C982.789 132.477 981.842 131.428 981.168 130.08C980.493 128.731 980.156 127.155 980.156 125.352C980.156 123.542 980.493 121.958 981.168 120.602C981.842 119.246 982.789 118.193 984.009 117.443C985.228 116.693 986.656 116.318 988.293 116.318C989.929 116.318 991.357 116.693 992.577 117.443C993.796 118.193 994.743 119.246 995.418 120.602C996.092 121.958 996.429 123.542 996.429 125.352C996.429 127.155 996.092 128.731 995.418 130.08C994.743 131.428 993.796 132.477 992.577 133.227C991.357 133.977 989.929 134.352 988.293 134.352ZM988.304 131.5C989.365 131.5 990.243 131.22 990.94 130.659C991.637 130.098 992.152 129.352 992.486 128.42C992.827 127.489 992.997 126.462 992.997 125.341C992.997 124.227 992.827 123.205 992.486 122.273C992.152 121.333 991.637 120.58 990.94 120.011C990.243 119.443 989.365 119.159 988.304 119.159C987.236 119.159 986.349 119.443 985.645 120.011C984.948 120.58 984.429 121.333 984.088 122.273C983.755 123.205 983.588 124.227 983.588 125.341C983.588 126.462 983.755 127.489 984.088 128.42C984.429 129.352 984.948 130.098 985.645 130.659C986.349 131.22 987.236 131.5 988.304 131.5ZM1003.62 123.636V134H1000.22V116.545H1003.48V119.386H1003.7C1004.1 118.462 1004.73 117.72 1005.59 117.159C1006.45 116.598 1007.54 116.318 1008.85 116.318C1010.04 116.318 1011.08 116.568 1011.97 117.068C1012.87 117.561 1013.56 118.295 1014.05 119.273C1014.54 120.25 1014.79 121.458 1014.79 122.898V134H1011.39V123.307C1011.39 122.042 1011.06 121.053 1010.4 120.341C1009.74 119.621 1008.84 119.261 1007.69 119.261C1006.9 119.261 1006.2 119.432 1005.59 119.773C1004.98 120.114 1004.5 120.614 1004.14 121.273C1003.79 121.924 1003.62 122.712 1003.62 123.636Z" fill="white"/>
<rect x="120" y="582" width="224" height="80" rx="8" fill="#0B64DD"/>
<path d="M209.75 616.841C209.629 615.765 209.129 614.932 208.25 614.341C207.371 613.742 206.265 613.443 204.932 613.443C203.977 613.443 203.152 613.595 202.455 613.898C201.758 614.193 201.216 614.602 200.83 615.125C200.451 615.64 200.261 616.227 200.261 616.886C200.261 617.439 200.39 617.917 200.648 618.318C200.913 618.72 201.258 619.057 201.682 619.33C202.114 619.595 202.576 619.818 203.068 620C203.561 620.174 204.034 620.318 204.489 620.432L206.761 621.023C207.504 621.205 208.265 621.451 209.045 621.761C209.826 622.072 210.549 622.481 211.216 622.989C211.883 623.496 212.42 624.125 212.83 624.875C213.246 625.625 213.455 626.523 213.455 627.568C213.455 628.886 213.114 630.057 212.432 631.08C211.758 632.102 210.777 632.909 209.489 633.5C208.208 634.091 206.659 634.386 204.841 634.386C203.098 634.386 201.591 634.11 200.318 633.557C199.045 633.004 198.049 632.22 197.33 631.205C196.61 630.182 196.212 628.97 196.136 627.568H199.659C199.727 628.409 200 629.11 200.477 629.67C200.962 630.223 201.58 630.636 202.33 630.909C203.087 631.174 203.917 631.307 204.818 631.307C205.811 631.307 206.693 631.152 207.466 630.841C208.246 630.523 208.86 630.083 209.307 629.523C209.754 628.955 209.977 628.292 209.977 627.534C209.977 626.845 209.78 626.28 209.386 625.841C209 625.402 208.473 625.038 207.807 624.75C207.148 624.462 206.402 624.208 205.568 623.989L202.818 623.239C200.955 622.731 199.477 621.985 198.386 621C197.303 620.015 196.761 618.712 196.761 617.091C196.761 615.75 197.125 614.58 197.852 613.58C198.58 612.58 199.564 611.803 200.807 611.25C202.049 610.689 203.451 610.409 205.011 610.409C206.587 610.409 207.977 610.686 209.182 611.239C210.394 611.792 211.348 612.553 212.045 613.523C212.742 614.485 213.106 615.591 213.136 616.841H209.75ZM222.457 634.386C221.351 634.386 220.351 634.182 219.457 633.773C218.563 633.356 217.855 632.754 217.332 631.966C216.817 631.178 216.56 630.212 216.56 629.068C216.56 628.083 216.749 627.273 217.128 626.636C217.507 626 218.018 625.496 218.662 625.125C219.306 624.754 220.026 624.473 220.821 624.284C221.616 624.095 222.427 623.951 223.253 623.852C224.298 623.731 225.147 623.633 225.798 623.557C226.45 623.473 226.923 623.341 227.219 623.159C227.514 622.977 227.662 622.682 227.662 622.273V622.193C227.662 621.201 227.382 620.432 226.821 619.886C226.268 619.341 225.442 619.068 224.344 619.068C223.2 619.068 222.298 619.322 221.639 619.83C220.988 620.33 220.537 620.886 220.287 621.5L217.094 620.773C217.473 619.712 218.026 618.856 218.753 618.205C219.488 617.545 220.332 617.068 221.287 616.773C222.241 616.47 223.245 616.318 224.298 616.318C224.995 616.318 225.734 616.402 226.514 616.568C227.302 616.727 228.037 617.023 228.719 617.455C229.408 617.886 229.973 618.504 230.412 619.307C230.851 620.102 231.071 621.136 231.071 622.409V634H227.753V631.614H227.616C227.397 632.053 227.067 632.485 226.628 632.909C226.188 633.333 225.624 633.686 224.935 633.966C224.245 634.246 223.42 634.386 222.457 634.386ZM223.196 631.659C224.135 631.659 224.938 631.473 225.605 631.102C226.279 630.731 226.791 630.246 227.139 629.648C227.495 629.042 227.673 628.394 227.673 627.705V625.455C227.552 625.576 227.317 625.689 226.969 625.795C226.628 625.894 226.238 625.981 225.798 626.057C225.359 626.125 224.931 626.189 224.514 626.25C224.098 626.303 223.749 626.348 223.469 626.386C222.81 626.47 222.207 626.61 221.662 626.807C221.124 627.004 220.692 627.288 220.366 627.659C220.048 628.023 219.889 628.508 219.889 629.114C219.889 629.955 220.2 630.591 220.821 631.023C221.442 631.447 222.234 631.659 223.196 631.659ZM249.903 616.545L243.574 634H239.938L233.597 616.545H237.244L241.665 629.977H241.847L246.256 616.545H249.903ZM260.026 634.352C258.306 634.352 256.825 633.985 255.582 633.25C254.348 632.508 253.393 631.466 252.719 630.125C252.052 628.777 251.719 627.197 251.719 625.386C251.719 623.598 252.052 622.023 252.719 620.659C253.393 619.295 254.332 618.231 255.537 617.466C256.749 616.701 258.166 616.318 259.787 616.318C260.772 616.318 261.726 616.481 262.651 616.807C263.575 617.133 264.404 617.644 265.139 618.341C265.874 619.038 266.454 619.943 266.878 621.057C267.302 622.163 267.514 623.508 267.514 625.091V626.295H253.639V623.75H264.185C264.185 622.856 264.003 622.064 263.639 621.375C263.276 620.678 262.764 620.129 262.105 619.727C261.454 619.326 260.688 619.125 259.81 619.125C258.855 619.125 258.022 619.36 257.31 619.83C256.605 620.292 256.06 620.898 255.673 621.648C255.295 622.39 255.105 623.197 255.105 624.068V626.057C255.105 627.223 255.31 628.216 255.719 629.034C256.135 629.852 256.715 630.477 257.457 630.909C258.2 631.333 259.067 631.545 260.06 631.545C260.704 631.545 261.291 631.455 261.821 631.273C262.351 631.083 262.81 630.803 263.196 630.432C263.582 630.061 263.878 629.602 264.082 629.057L267.298 629.636C267.041 630.583 266.579 631.413 265.912 632.125C265.253 632.83 264.423 633.379 263.423 633.773C262.431 634.159 261.298 634.352 260.026 634.352Z" fill="white"/>
<rect x="364" y="582" width="224" height="80" rx="8" fill="#C61E25"/>
<path d="M436.091 634H428.557V610.727H436.33C438.61 610.727 440.568 611.193 442.205 612.125C443.841 613.049 445.095 614.379 445.966 616.114C446.845 617.841 447.284 619.913 447.284 622.33C447.284 624.754 446.841 626.837 445.955 628.58C445.076 630.322 443.803 631.663 442.136 632.602C440.47 633.534 438.455 634 436.091 634ZM432.068 630.932H435.898C437.67 630.932 439.144 630.598 440.318 629.932C441.492 629.258 442.371 628.284 442.955 627.011C443.538 625.731 443.83 624.17 443.83 622.33C443.83 620.504 443.538 618.955 442.955 617.682C442.379 616.409 441.519 615.443 440.375 614.784C439.231 614.125 437.811 613.795 436.114 613.795H432.068V630.932ZM458.901 634.352C457.181 634.352 455.7 633.985 454.457 633.25C453.223 632.508 452.268 631.466 451.594 630.125C450.927 628.777 450.594 627.197 450.594 625.386C450.594 623.598 450.927 622.023 451.594 620.659C452.268 619.295 453.207 618.231 454.412 617.466C455.624 616.701 457.041 616.318 458.662 616.318C459.647 616.318 460.601 616.481 461.526 616.807C462.45 617.133 463.279 617.644 464.014 618.341C464.749 619.038 465.329 619.943 465.753 621.057C466.177 622.163 466.389 623.508 466.389 625.091V626.295H452.514V623.75H463.06C463.06 622.856 462.878 622.064 462.514 621.375C462.151 620.678 461.639 620.129 460.98 619.727C460.329 619.326 459.563 619.125 458.685 619.125C457.73 619.125 456.897 619.36 456.185 619.83C455.48 620.292 454.935 620.898 454.548 621.648C454.17 622.39 453.98 623.197 453.98 624.068V626.057C453.98 627.223 454.185 628.216 454.594 629.034C455.01 629.852 455.59 630.477 456.332 630.909C457.075 631.333 457.942 631.545 458.935 631.545C459.579 631.545 460.166 631.455 460.696 631.273C461.226 631.083 461.685 630.803 462.071 630.432C462.457 630.061 462.753 629.602 462.957 629.057L466.173 629.636C465.916 630.583 465.454 631.413 464.787 632.125C464.128 632.83 463.298 633.379 462.298 633.773C461.306 634.159 460.173 634.352 458.901 634.352ZM473.557 610.727V634H470.159V610.727H473.557ZM485.651 634.352C483.931 634.352 482.45 633.985 481.207 633.25C479.973 632.508 479.018 631.466 478.344 630.125C477.677 628.777 477.344 627.197 477.344 625.386C477.344 623.598 477.677 622.023 478.344 620.659C479.018 619.295 479.957 618.231 481.162 617.466C482.374 616.701 483.791 616.318 485.412 616.318C486.397 616.318 487.351 616.481 488.276 616.807C489.2 617.133 490.029 617.644 490.764 618.341C491.499 619.038 492.079 619.943 492.503 621.057C492.927 622.163 493.139 623.508 493.139 625.091V626.295H479.264V623.75H489.81C489.81 622.856 489.628 622.064 489.264 621.375C488.901 620.678 488.389 620.129 487.73 619.727C487.079 619.326 486.313 619.125 485.435 619.125C484.48 619.125 483.647 619.36 482.935 619.83C482.23 620.292 481.685 620.898 481.298 621.648C480.92 622.39 480.73 623.197 480.73 624.068V626.057C480.73 627.223 480.935 628.216 481.344 629.034C481.76 629.852 482.34 630.477 483.082 630.909C483.825 631.333 484.692 631.545 485.685 631.545C486.329 631.545 486.916 631.455 487.446 631.273C487.976 631.083 488.435 630.803 488.821 630.432C489.207 630.061 489.503 629.602 489.707 629.057L492.923 629.636C492.666 630.583 492.204 631.413 491.537 632.125C490.878 632.83 490.048 633.379 489.048 633.773C488.056 634.159 486.923 634.352 485.651 634.352ZM505.057 616.545V619.273H495.523V616.545H505.057ZM498.08 612.364H501.477V628.875C501.477 629.534 501.576 630.03 501.773 630.364C501.97 630.689 502.223 630.913 502.534 631.034C502.852 631.148 503.197 631.205 503.568 631.205C503.841 631.205 504.08 631.186 504.284 631.148C504.489 631.11 504.648 631.08 504.761 631.057L505.375 633.864C505.178 633.939 504.898 634.015 504.534 634.091C504.17 634.174 503.716 634.22 503.17 634.227C502.277 634.242 501.443 634.083 500.67 633.75C499.898 633.417 499.273 632.902 498.795 632.205C498.318 631.508 498.08 630.633 498.08 629.58V612.364ZM516.151 634.352C514.431 634.352 512.95 633.985 511.707 633.25C510.473 632.508 509.518 631.466 508.844 630.125C508.177 628.777 507.844 627.197 507.844 625.386C507.844 623.598 508.177 622.023 508.844 620.659C509.518 619.295 510.457 618.231 511.662 617.466C512.874 616.701 514.291 616.318 515.912 616.318C516.897 616.318 517.851 616.481 518.776 616.807C519.7 617.133 520.529 617.644 521.264 618.341C521.999 619.038 522.579 619.943 523.003 621.057C523.427 622.163 523.639 623.508 523.639 625.091V626.295H509.764V623.75H520.31C520.31 622.856 520.128 622.064 519.764 621.375C519.401 620.678 518.889 620.129 518.23 619.727C517.579 619.326 516.813 619.125 515.935 619.125C514.98 619.125 514.147 619.36 513.435 619.83C512.73 620.292 512.185 620.898 511.798 621.648C511.42 622.39 511.23 623.197 511.23 624.068V626.057C511.23 627.223 511.435 628.216 511.844 629.034C512.26 629.852 512.84 630.477 513.582 630.909C514.325 631.333 515.192 631.545 516.185 631.545C516.829 631.545 517.416 631.455 517.946 631.273C518.476 631.083 518.935 630.803 519.321 630.432C519.707 630.061 520.003 629.602 520.207 629.057L523.423 629.636C523.166 630.583 522.704 631.413 522.037 632.125C521.378 632.83 520.548 633.379 519.548 633.773C518.556 634.159 517.423 634.352 516.151 634.352Z" fill="white"/>
<rect x="120" y="232" width="960" height="40" rx="8" fill="#ECF1F9"/>
<rect x="120" y="282" width="960" height="40" rx="8" fill="#ECF1F9"/>
<rect x="120" y="332" width="960" height="40" rx="8" fill="#ECF1F9"/>
<rect x="120" y="382" width="960" height="40" rx="8" fill="#ECF1F9"/>
<rect x="120" y="432" width="960" height="40" rx="8" fill="#ECF1F9"/>
<rect x="120" y="482" width="470" height="40" rx="8" fill="#ECF1F9"/>
<rect x="120" y="82" width="636" height="40" rx="8" fill="#CAD3E2"/>
<rect x="120" y="132" width="470" height="40" rx="8" fill="#CAD3E2"/>
</svg>
