<svg width="1200" height="742" viewBox="0 0 1200 742" fill="none" xmlns="http://www.w3.org/2000/svg">
<rect width="1200" height="742" rx="4" fill="white"/>
<path d="M385.673 176V146.909H391.824V170.929H404.295V176H385.673ZM418.113 176.426C415.906 176.426 413.998 175.957 412.388 175.02C410.788 174.073 409.552 172.757 408.681 171.071C407.81 169.376 407.374 167.411 407.374 165.176C407.374 162.922 407.81 160.953 408.681 159.267C409.552 157.572 410.788 156.256 412.388 155.318C413.998 154.371 415.906 153.898 418.113 153.898C420.319 153.898 422.222 154.371 423.823 155.318C425.433 156.256 426.673 157.572 427.544 159.267C428.416 160.953 428.851 162.922 428.851 165.176C428.851 167.411 428.416 169.376 427.544 171.071C426.673 172.757 425.433 174.073 423.823 175.02C422.222 175.957 420.319 176.426 418.113 176.426ZM418.141 171.739C419.145 171.739 419.983 171.455 420.655 170.886C421.328 170.309 421.834 169.523 422.175 168.528C422.525 167.534 422.701 166.402 422.701 165.134C422.701 163.865 422.525 162.733 422.175 161.739C421.834 160.744 421.328 159.958 420.655 159.381C419.983 158.803 419.145 158.514 418.141 158.514C417.128 158.514 416.275 158.803 415.584 159.381C414.902 159.958 414.386 160.744 414.036 161.739C413.695 162.733 413.525 163.865 413.525 165.134C413.525 166.402 413.695 167.534 414.036 168.528C414.386 169.523 414.902 170.309 415.584 170.886C416.275 171.455 417.128 171.739 418.141 171.739ZM442.615 184.636C440.655 184.636 438.974 184.366 437.573 183.827C436.181 183.296 435.073 182.572 434.249 181.653C433.425 180.735 432.89 179.703 432.644 178.557L438.24 177.804C438.411 178.24 438.681 178.647 439.05 179.026C439.419 179.404 439.907 179.707 440.513 179.935C441.129 180.171 441.877 180.29 442.757 180.29C444.074 180.29 445.158 179.968 446.01 179.324C446.872 178.689 447.303 177.624 447.303 176.128V172.136H447.047C446.782 172.742 446.384 173.315 445.854 173.855C445.324 174.395 444.642 174.835 443.809 175.176C442.975 175.517 441.981 175.688 440.826 175.688C439.187 175.688 437.696 175.309 436.351 174.551C435.016 173.784 433.951 172.615 433.155 171.043C432.369 169.461 431.976 167.463 431.976 165.048C431.976 162.577 432.379 160.512 433.184 158.855C433.989 157.198 435.059 155.957 436.394 155.134C437.739 154.31 439.211 153.898 440.811 153.898C442.033 153.898 443.056 154.106 443.88 154.523C444.703 154.93 445.366 155.441 445.868 156.057C446.38 156.663 446.773 157.259 447.047 157.847H447.275V154.182H453.283V176.213C453.283 178.069 452.828 179.622 451.919 180.872C451.01 182.122 449.751 183.06 448.141 183.685C446.541 184.319 444.699 184.636 442.615 184.636ZM442.743 171.142C443.719 171.142 444.542 170.901 445.215 170.418C445.897 169.925 446.417 169.224 446.777 168.315C447.147 167.397 447.331 166.298 447.331 165.02C447.331 163.741 447.151 162.634 446.792 161.696C446.432 160.749 445.911 160.015 445.229 159.494C444.547 158.973 443.719 158.713 442.743 158.713C441.749 158.713 440.911 158.983 440.229 159.523C439.547 160.053 439.031 160.792 438.681 161.739C438.33 162.686 438.155 163.779 438.155 165.02C438.155 166.279 438.33 167.368 438.681 168.287C439.041 169.196 439.557 169.902 440.229 170.403C440.911 170.896 441.749 171.142 442.743 171.142ZM467.356 176V154.182H473.407V176H467.356ZM470.396 151.369C469.496 151.369 468.725 151.071 468.081 150.474C467.446 149.868 467.129 149.144 467.129 148.301C467.129 147.468 467.446 146.753 468.081 146.156C468.725 145.55 469.496 145.247 470.396 145.247C471.296 145.247 472.063 145.55 472.697 146.156C473.341 146.753 473.663 147.468 473.663 148.301C473.663 149.144 473.341 149.868 472.697 150.474C472.063 151.071 471.296 151.369 470.396 151.369ZM484.306 163.386V176H478.255V154.182H484.022V158.031H484.277C484.76 156.762 485.57 155.759 486.706 155.02C487.843 154.272 489.221 153.898 490.84 153.898C492.355 153.898 493.676 154.229 494.803 154.892C495.93 155.555 496.806 156.502 497.431 157.733C498.056 158.955 498.368 160.413 498.368 162.108V176H492.317V163.188C492.327 161.852 491.986 160.811 491.294 160.062C490.603 159.305 489.651 158.926 488.439 158.926C487.625 158.926 486.905 159.101 486.28 159.452C485.665 159.802 485.182 160.313 484.831 160.986C484.49 161.649 484.315 162.449 484.306 163.386ZM524 154.182V158.727H510.861V154.182H524ZM513.844 148.955H519.895V169.295C519.895 169.854 519.98 170.29 520.151 170.602C520.321 170.905 520.558 171.118 520.861 171.241C521.174 171.365 521.533 171.426 521.941 171.426C522.225 171.426 522.509 171.402 522.793 171.355C523.077 171.298 523.295 171.256 523.446 171.227L524.398 175.73C524.095 175.825 523.669 175.934 523.12 176.057C522.57 176.189 521.903 176.27 521.117 176.298C519.658 176.355 518.38 176.161 517.282 175.716C516.193 175.271 515.345 174.58 514.739 173.642C514.133 172.705 513.835 171.521 513.844 170.091V148.955ZM537.566 176.426C535.359 176.426 533.451 175.957 531.841 175.02C530.241 174.073 529.005 172.757 528.134 171.071C527.263 169.376 526.827 167.411 526.827 165.176C526.827 162.922 527.263 160.953 528.134 159.267C529.005 157.572 530.241 156.256 531.841 155.318C533.451 154.371 535.359 153.898 537.566 153.898C539.772 153.898 541.676 154.371 543.276 155.318C544.886 156.256 546.126 157.572 546.998 159.267C547.869 160.953 548.304 162.922 548.304 165.176C548.304 167.411 547.869 169.376 546.998 171.071C546.126 172.757 544.886 174.073 543.276 175.02C541.676 175.957 539.772 176.426 537.566 176.426ZM537.594 171.739C538.598 171.739 539.436 171.455 540.108 170.886C540.781 170.309 541.287 169.523 541.628 168.528C541.979 167.534 542.154 166.402 542.154 165.134C542.154 163.865 541.979 162.733 541.628 161.739C541.287 160.744 540.781 159.958 540.108 159.381C539.436 158.803 538.598 158.514 537.594 158.514C536.581 158.514 535.729 158.803 535.037 159.381C534.355 159.958 533.839 160.744 533.489 161.739C533.148 162.733 532.978 163.865 532.978 165.134C532.978 166.402 533.148 167.534 533.489 168.528C533.839 169.523 534.355 170.309 535.037 170.886C535.729 171.455 536.581 171.739 537.594 171.739ZM565.233 184.182C564.466 184.182 563.746 184.12 563.074 183.997C562.411 183.884 561.861 183.737 561.426 183.557L562.789 179.04C563.5 179.258 564.139 179.376 564.707 179.395C565.285 179.414 565.782 179.281 566.199 178.997C566.625 178.713 566.97 178.23 567.235 177.548L567.591 176.625L559.764 154.182H566.127L570.645 170.205H570.872L575.431 154.182H581.838L573.358 178.358C572.95 179.532 572.396 180.555 571.696 181.426C571.004 182.307 570.128 182.984 569.068 183.457C568.007 183.94 566.729 184.182 565.233 184.182ZM594.089 176.426C591.883 176.426 589.975 175.957 588.365 175.02C586.764 174.073 585.529 172.757 584.657 171.071C583.786 169.376 583.35 167.411 583.35 165.176C583.35 162.922 583.786 160.953 584.657 159.267C585.529 157.572 586.764 156.256 588.365 155.318C589.975 154.371 591.883 153.898 594.089 153.898C596.296 153.898 598.199 154.371 599.799 155.318C601.409 156.256 602.65 157.572 603.521 159.267C604.392 160.953 604.828 162.922 604.828 165.176C604.828 167.411 604.392 169.376 603.521 171.071C602.65 172.757 601.409 174.073 599.799 175.02C598.199 175.957 596.296 176.426 594.089 176.426ZM594.118 171.739C595.121 171.739 595.959 171.455 596.632 170.886C597.304 170.309 597.811 169.523 598.152 168.528C598.502 167.534 598.677 166.402 598.677 165.134C598.677 163.865 598.502 162.733 598.152 161.739C597.811 160.744 597.304 159.958 596.632 159.381C595.959 158.803 595.121 158.514 594.118 158.514C593.104 158.514 592.252 158.803 591.561 159.381C590.879 159.958 590.363 160.744 590.012 161.739C589.672 162.733 589.501 163.865 589.501 165.134C589.501 166.402 589.672 167.534 590.012 168.528C590.363 169.523 590.879 170.309 591.561 170.886C592.252 171.455 593.104 171.739 594.118 171.739ZM622.754 166.71V154.182H628.805V176H622.995V172.037H622.768C622.276 173.315 621.457 174.343 620.311 175.119C619.174 175.896 617.787 176.284 616.149 176.284C614.69 176.284 613.407 175.953 612.299 175.29C611.191 174.627 610.325 173.685 609.7 172.463C609.084 171.241 608.772 169.778 608.762 168.074V154.182H614.814V166.994C614.823 168.282 615.169 169.3 615.85 170.048C616.532 170.796 617.446 171.17 618.592 171.17C619.321 171.17 620.003 171.005 620.637 170.673C621.272 170.332 621.783 169.83 622.172 169.168C622.569 168.505 622.763 167.686 622.754 166.71ZM633.645 176V154.182H639.512V157.989H639.739C640.137 156.634 640.804 155.612 641.742 154.92C642.679 154.22 643.759 153.869 644.98 153.869C645.283 153.869 645.61 153.888 645.961 153.926C646.311 153.964 646.619 154.016 646.884 154.082V159.452C646.6 159.366 646.207 159.291 645.705 159.224C645.203 159.158 644.744 159.125 644.327 159.125C643.437 159.125 642.641 159.319 641.941 159.707C641.249 160.086 640.7 160.616 640.293 161.298C639.895 161.98 639.696 162.766 639.696 163.656V176H633.645ZM665.492 176.412C664.1 176.412 662.859 176.17 661.77 175.688C660.681 175.195 659.819 174.471 659.185 173.514C658.56 172.548 658.248 171.346 658.248 169.906C658.248 168.694 658.47 167.676 658.915 166.852C659.36 166.028 659.966 165.366 660.733 164.864C661.5 164.362 662.372 163.983 663.347 163.727C664.332 163.472 665.364 163.292 666.444 163.188C667.712 163.055 668.735 162.932 669.512 162.818C670.288 162.695 670.852 162.515 671.202 162.278C671.552 162.042 671.728 161.691 671.728 161.227V161.142C671.728 160.242 671.444 159.546 670.875 159.054C670.317 158.562 669.521 158.315 668.489 158.315C667.4 158.315 666.533 158.557 665.89 159.04C665.246 159.513 664.819 160.11 664.611 160.83L659.015 160.375C659.299 159.049 659.857 157.903 660.691 156.938C661.524 155.962 662.599 155.214 663.915 154.693C665.241 154.163 666.775 153.898 668.517 153.898C669.73 153.898 670.89 154.04 671.998 154.324C673.115 154.608 674.105 155.048 674.966 155.645C675.837 156.241 676.524 157.009 677.026 157.946C677.528 158.874 677.779 159.987 677.779 161.284V176H672.04V172.974H671.87C671.519 173.656 671.051 174.258 670.463 174.778C669.876 175.29 669.171 175.692 668.347 175.986C667.523 176.27 666.571 176.412 665.492 176.412ZM667.225 172.236C668.115 172.236 668.901 172.061 669.583 171.71C670.265 171.35 670.8 170.867 671.188 170.261C671.576 169.655 671.77 168.969 671.77 168.202V165.886C671.581 166.009 671.32 166.123 670.989 166.227C670.667 166.322 670.302 166.412 669.895 166.497C669.488 166.573 669.081 166.644 668.674 166.71C668.266 166.767 667.897 166.819 667.566 166.866C666.855 166.971 666.235 167.136 665.705 167.364C665.175 167.591 664.763 167.899 664.469 168.287C664.176 168.666 664.029 169.139 664.029 169.707C664.029 170.531 664.327 171.161 664.924 171.597C665.53 172.023 666.297 172.236 667.225 172.236ZM692.331 176.426C690.096 176.426 688.174 175.953 686.564 175.006C684.964 174.049 683.733 172.723 682.871 171.028C682.019 169.333 681.593 167.383 681.593 165.176C681.593 162.941 682.024 160.981 682.885 159.295C683.757 157.6 684.992 156.279 686.593 155.332C688.193 154.376 690.096 153.898 692.303 153.898C694.206 153.898 695.873 154.243 697.303 154.935C698.733 155.626 699.864 156.597 700.698 157.847C701.531 159.097 701.99 160.564 702.076 162.25H696.365C696.204 161.161 695.778 160.285 695.087 159.622C694.405 158.95 693.51 158.614 692.402 158.614C691.465 158.614 690.646 158.869 689.945 159.381C689.254 159.883 688.714 160.616 688.326 161.582C687.937 162.548 687.743 163.718 687.743 165.091C687.743 166.483 687.933 167.667 688.311 168.642C688.7 169.617 689.244 170.361 689.945 170.872C690.646 171.384 691.465 171.639 692.402 171.639C693.094 171.639 693.714 171.497 694.263 171.213C694.822 170.929 695.281 170.517 695.641 169.977C696.01 169.428 696.252 168.77 696.365 168.003H702.076C701.981 169.67 701.526 171.137 700.712 172.406C699.907 173.666 698.794 174.651 697.374 175.361C695.953 176.071 694.273 176.426 692.331 176.426ZM715.808 176.426C713.573 176.426 711.651 175.953 710.041 175.006C708.44 174.049 707.209 172.723 706.348 171.028C705.495 169.333 705.069 167.383 705.069 165.176C705.069 162.941 705.5 160.981 706.362 159.295C707.233 157.6 708.469 156.279 710.069 155.332C711.67 154.376 713.573 153.898 715.779 153.898C717.683 153.898 719.35 154.243 720.779 154.935C722.209 155.626 723.341 156.597 724.174 157.847C725.008 159.097 725.467 160.564 725.552 162.25H719.842C719.681 161.161 719.255 160.285 718.564 159.622C717.882 158.95 716.987 158.614 715.879 158.614C714.941 158.614 714.122 158.869 713.422 159.381C712.73 159.883 712.19 160.616 711.802 161.582C711.414 162.548 711.22 163.718 711.22 165.091C711.22 166.483 711.409 167.667 711.788 168.642C712.176 169.617 712.721 170.361 713.422 170.872C714.122 171.384 714.941 171.639 715.879 171.639C716.57 171.639 717.19 171.497 717.74 171.213C718.298 170.929 718.758 170.517 719.118 169.977C719.487 169.428 719.728 168.77 719.842 168.003H725.552C725.458 169.67 725.003 171.137 724.189 172.406C723.384 173.666 722.271 174.651 720.85 175.361C719.43 176.071 717.749 176.426 715.808 176.426ZM739.284 176.426C737.078 176.426 735.17 175.957 733.56 175.02C731.96 174.073 730.724 172.757 729.853 171.071C728.981 169.376 728.546 167.411 728.546 165.176C728.546 162.922 728.981 160.953 729.853 159.267C730.724 157.572 731.96 156.256 733.56 155.318C735.17 154.371 737.078 153.898 739.284 153.898C741.491 153.898 743.394 154.371 744.995 155.318C746.605 156.256 747.845 157.572 748.716 159.267C749.587 160.953 750.023 162.922 750.023 165.176C750.023 167.411 749.587 169.376 748.716 171.071C747.845 172.757 746.605 174.073 744.995 175.02C743.394 175.957 741.491 176.426 739.284 176.426ZM739.313 171.739C740.317 171.739 741.155 171.455 741.827 170.886C742.499 170.309 743.006 169.523 743.347 168.528C743.697 167.534 743.873 166.402 743.873 165.134C743.873 163.865 743.697 162.733 743.347 161.739C743.006 160.744 742.499 159.958 741.827 159.381C741.155 158.803 740.317 158.514 739.313 158.514C738.3 158.514 737.447 158.803 736.756 159.381C736.074 159.958 735.558 160.744 735.208 161.739C734.867 162.733 734.696 163.865 734.696 165.134C734.696 166.402 734.867 167.534 735.208 168.528C735.558 169.523 736.074 170.309 736.756 170.886C737.447 171.455 738.3 171.739 739.313 171.739ZM767.949 166.71V154.182H774V176H768.191V172.037H767.963C767.471 173.315 766.652 174.343 765.506 175.119C764.37 175.896 762.982 176.284 761.344 176.284C759.886 176.284 758.603 175.953 757.495 175.29C756.387 174.627 755.52 173.685 754.895 172.463C754.28 171.241 753.967 169.778 753.958 168.074V154.182H760.009V166.994C760.018 168.282 760.364 169.3 761.046 170.048C761.728 170.796 762.641 171.17 763.787 171.17C764.516 171.17 765.198 171.005 765.833 170.673C766.467 170.332 766.979 169.83 767.367 169.168C767.765 168.505 767.959 167.686 767.949 166.71ZM784.892 163.386V176H778.841V154.182H784.608V158.031H784.863C785.346 156.762 786.156 155.759 787.292 155.02C788.429 154.272 789.806 153.898 791.426 153.898C792.941 153.898 794.262 154.229 795.389 154.892C796.516 155.555 797.392 156.502 798.017 157.733C798.642 158.955 798.954 160.413 798.954 162.108V176H792.903V163.188C792.913 161.852 792.572 160.811 791.88 160.062C791.189 159.305 790.237 158.926 789.025 158.926C788.211 158.926 787.491 159.101 786.866 159.452C786.251 159.802 785.768 160.313 785.417 160.986C785.076 161.649 784.901 162.449 784.892 163.386ZM815.328 154.182V158.727H802.189V154.182H815.328ZM805.172 148.955H811.223V169.295C811.223 169.854 811.309 170.29 811.479 170.602C811.65 170.905 811.886 171.118 812.189 171.241C812.502 171.365 812.862 171.426 813.269 171.426C813.553 171.426 813.837 171.402 814.121 171.355C814.405 171.298 814.623 171.256 814.775 171.227L815.726 175.73C815.423 175.825 814.997 175.934 814.448 176.057C813.899 176.189 813.231 176.27 812.445 176.298C810.987 176.355 809.708 176.161 808.61 175.716C807.521 175.271 806.673 174.58 806.067 173.642C805.461 172.705 805.163 171.521 805.172 170.091V148.955Z" fill="#1D2A3E"/>
<rect x="350" y="225" width="500" height="80" rx="8" fill="#ECF1F9"/>
<rect x="350" y="325" width="500" height="80" rx="8" fill="#ECF1F9"/>
<rect x="350" y="425" width="500" height="80" rx="8" fill="#0B64DD"/>
<path d="M556.057 477V453.727H559.568V473.977H570.114V477H556.057ZM581.199 477.352C579.563 477.352 578.134 476.977 576.915 476.227C575.695 475.477 574.748 474.428 574.074 473.08C573.4 471.731 573.062 470.155 573.062 468.352C573.062 466.542 573.4 464.958 574.074 463.602C574.748 462.246 575.695 461.193 576.915 460.443C578.134 459.693 579.563 459.318 581.199 459.318C582.835 459.318 584.263 459.693 585.483 460.443C586.703 461.193 587.65 462.246 588.324 463.602C588.998 464.958 589.335 466.542 589.335 468.352C589.335 470.155 588.998 471.731 588.324 473.08C587.65 474.428 586.703 475.477 585.483 476.227C584.263 476.977 582.835 477.352 581.199 477.352ZM581.21 474.5C582.271 474.5 583.15 474.22 583.847 473.659C584.544 473.098 585.059 472.352 585.392 471.42C585.733 470.489 585.903 469.462 585.903 468.341C585.903 467.227 585.733 466.205 585.392 465.273C585.059 464.333 584.544 463.58 583.847 463.011C583.15 462.443 582.271 462.159 581.21 462.159C580.142 462.159 579.256 462.443 578.551 463.011C577.854 463.58 577.335 464.333 576.994 465.273C576.661 466.205 576.494 467.227 576.494 468.341C576.494 469.462 576.661 470.489 576.994 471.42C577.335 472.352 577.854 473.098 578.551 473.659C579.256 474.22 580.142 474.5 581.21 474.5ZM600.446 483.909C599.06 483.909 597.866 483.727 596.866 483.364C595.874 483 595.063 482.519 594.435 481.92C593.806 481.322 593.336 480.667 593.026 479.955L595.946 478.75C596.151 479.083 596.423 479.436 596.764 479.807C597.113 480.186 597.582 480.508 598.173 480.773C598.772 481.038 599.541 481.17 600.48 481.17C601.768 481.17 602.832 480.856 603.673 480.227C604.514 479.606 604.935 478.614 604.935 477.25V473.818H604.719C604.514 474.189 604.219 474.602 603.832 475.057C603.454 475.511 602.931 475.905 602.264 476.239C601.598 476.572 600.73 476.739 599.662 476.739C598.283 476.739 597.041 476.417 595.935 475.773C594.836 475.121 593.965 474.163 593.321 472.898C592.685 471.625 592.366 470.061 592.366 468.205C592.366 466.348 592.681 464.758 593.31 463.432C593.946 462.106 594.817 461.091 595.923 460.386C597.029 459.674 598.283 459.318 599.685 459.318C600.768 459.318 601.643 459.5 602.31 459.864C602.976 460.22 603.495 460.636 603.866 461.114C604.245 461.591 604.537 462.011 604.741 462.375H604.991V459.545H608.321V477.386C608.321 478.886 607.973 480.117 607.276 481.08C606.579 482.042 605.635 482.754 604.446 483.216C603.264 483.678 601.931 483.909 600.446 483.909ZM600.412 473.92C601.389 473.92 602.215 473.693 602.889 473.239C603.571 472.777 604.086 472.117 604.435 471.261C604.791 470.398 604.969 469.364 604.969 468.159C604.969 466.985 604.795 465.951 604.446 465.057C604.098 464.163 603.586 463.466 602.912 462.966C602.238 462.458 601.404 462.205 600.412 462.205C599.389 462.205 598.537 462.47 597.855 463C597.173 463.523 596.658 464.235 596.31 465.136C595.969 466.038 595.798 467.045 595.798 468.159C595.798 469.303 595.973 470.307 596.321 471.17C596.67 472.034 597.185 472.708 597.866 473.193C598.556 473.678 599.404 473.92 600.412 473.92ZM621.347 477V459.545H624.744V477H621.347ZM623.062 456.852C622.472 456.852 621.964 456.655 621.54 456.261C621.123 455.86 620.915 455.383 620.915 454.83C620.915 454.269 621.123 453.792 621.54 453.398C621.964 452.996 622.472 452.795 623.062 452.795C623.653 452.795 624.157 452.996 624.574 453.398C624.998 453.792 625.21 454.269 625.21 454.83C625.21 455.383 624.998 455.86 624.574 456.261C624.157 456.655 623.653 456.852 623.062 456.852ZM632.713 466.636V477H629.315V459.545H632.577V462.386H632.793C633.194 461.462 633.823 460.72 634.679 460.159C635.543 459.598 636.63 459.318 637.94 459.318C639.13 459.318 640.171 459.568 641.065 460.068C641.959 460.561 642.652 461.295 643.145 462.273C643.637 463.25 643.884 464.458 643.884 465.898V477H640.486V466.307C640.486 465.042 640.156 464.053 639.497 463.341C638.838 462.621 637.933 462.261 636.781 462.261C635.993 462.261 635.293 462.432 634.679 462.773C634.073 463.114 633.592 463.614 633.236 464.273C632.887 464.924 632.713 465.712 632.713 466.636Z" fill="white"/>
<path d="M474.057 577V553.727H488.489V556.75H477.568V563.841H487.455V566.852H477.568V577H474.057ZM498.605 577.352C496.969 577.352 495.541 576.977 494.321 576.227C493.101 575.477 492.154 574.428 491.48 573.08C490.806 571.731 490.469 570.155 490.469 568.352C490.469 566.542 490.806 564.958 491.48 563.602C492.154 562.246 493.101 561.193 494.321 560.443C495.541 559.693 496.969 559.318 498.605 559.318C500.241 559.318 501.67 559.693 502.889 560.443C504.109 561.193 505.056 562.246 505.73 563.602C506.404 564.958 506.741 566.542 506.741 568.352C506.741 570.155 506.404 571.731 505.73 573.08C505.056 574.428 504.109 575.477 502.889 576.227C501.67 576.977 500.241 577.352 498.605 577.352ZM498.616 574.5C499.677 574.5 500.556 574.22 501.253 573.659C501.95 573.098 502.465 572.352 502.798 571.42C503.139 570.489 503.31 569.462 503.31 568.341C503.31 567.227 503.139 566.205 502.798 565.273C502.465 564.333 501.95 563.58 501.253 563.011C500.556 562.443 499.677 562.159 498.616 562.159C497.548 562.159 496.662 562.443 495.957 563.011C495.26 563.58 494.741 564.333 494.401 565.273C494.067 566.205 493.901 567.227 493.901 568.341C493.901 569.462 494.067 570.489 494.401 571.42C494.741 572.352 495.26 573.098 495.957 573.659C496.662 574.22 497.548 574.5 498.616 574.5ZM510.534 577V559.545H513.818V562.318H514C514.318 561.379 514.879 560.64 515.682 560.102C516.492 559.557 517.409 559.284 518.432 559.284C518.644 559.284 518.894 559.292 519.182 559.307C519.477 559.322 519.708 559.341 519.875 559.364V562.614C519.739 562.576 519.496 562.534 519.148 562.489C518.799 562.436 518.451 562.409 518.102 562.409C517.299 562.409 516.583 562.58 515.955 562.92C515.333 563.254 514.841 563.72 514.477 564.318C514.114 564.909 513.932 565.583 513.932 566.341V577H510.534ZM529.509 583.909C528.122 583.909 526.929 583.727 525.929 583.364C524.937 583 524.126 582.519 523.497 581.92C522.868 581.322 522.399 580.667 522.088 579.955L525.009 578.75C525.213 579.083 525.486 579.436 525.827 579.807C526.175 580.186 526.645 580.508 527.236 580.773C527.834 581.038 528.603 581.17 529.543 581.17C530.83 581.17 531.895 580.856 532.736 580.227C533.577 579.606 533.997 578.614 533.997 577.25V573.818H533.781C533.577 574.189 533.281 574.602 532.895 575.057C532.516 575.511 531.993 575.905 531.327 576.239C530.66 576.572 529.793 576.739 528.724 576.739C527.346 576.739 526.103 576.417 524.997 575.773C523.899 575.121 523.027 574.163 522.384 572.898C521.747 571.625 521.429 570.061 521.429 568.205C521.429 566.348 521.743 564.758 522.372 563.432C523.009 562.106 523.88 561.091 524.986 560.386C526.092 559.674 527.346 559.318 528.747 559.318C529.83 559.318 530.705 559.5 531.372 559.864C532.039 560.22 532.558 560.636 532.929 561.114C533.308 561.591 533.599 562.011 533.804 562.375H534.054V559.545H537.384V577.386C537.384 578.886 537.035 580.117 536.338 581.08C535.641 582.042 534.698 582.754 533.509 583.216C532.327 583.678 530.993 583.909 529.509 583.909ZM529.474 573.92C530.452 573.92 531.277 573.693 531.952 573.239C532.634 572.777 533.149 572.117 533.497 571.261C533.853 570.398 534.031 569.364 534.031 568.159C534.031 566.985 533.857 565.951 533.509 565.057C533.16 564.163 532.649 563.466 531.974 562.966C531.3 562.458 530.467 562.205 529.474 562.205C528.452 562.205 527.599 562.47 526.918 563C526.236 563.523 525.721 564.235 525.372 565.136C525.031 566.038 524.861 567.045 524.861 568.159C524.861 569.303 525.035 570.307 525.384 571.17C525.732 572.034 526.247 572.708 526.929 573.193C527.618 573.678 528.467 573.92 529.474 573.92ZM549.293 577.352C547.656 577.352 546.228 576.977 545.009 576.227C543.789 575.477 542.842 574.428 542.168 573.08C541.493 571.731 541.156 570.155 541.156 568.352C541.156 566.542 541.493 564.958 542.168 563.602C542.842 562.246 543.789 561.193 545.009 560.443C546.228 559.693 547.656 559.318 549.293 559.318C550.929 559.318 552.357 559.693 553.577 560.443C554.796 561.193 555.743 562.246 556.418 563.602C557.092 564.958 557.429 566.542 557.429 568.352C557.429 570.155 557.092 571.731 556.418 573.08C555.743 574.428 554.796 575.477 553.577 576.227C552.357 576.977 550.929 577.352 549.293 577.352ZM549.304 574.5C550.365 574.5 551.243 574.22 551.94 573.659C552.637 573.098 553.152 572.352 553.486 571.42C553.827 570.489 553.997 569.462 553.997 568.341C553.997 567.227 553.827 566.205 553.486 565.273C553.152 564.333 552.637 563.58 551.94 563.011C551.243 562.443 550.365 562.159 549.304 562.159C548.236 562.159 547.349 562.443 546.645 563.011C545.948 563.58 545.429 564.333 545.088 565.273C544.755 566.205 544.588 567.227 544.588 568.341C544.588 569.462 544.755 570.489 545.088 571.42C545.429 572.352 545.948 573.098 546.645 573.659C547.349 574.22 548.236 574.5 549.304 574.5ZM569.369 559.545V562.273H559.835V559.545H569.369ZM562.392 555.364H565.79V571.875C565.79 572.534 565.888 573.03 566.085 573.364C566.282 573.689 566.536 573.913 566.847 574.034C567.165 574.148 567.509 574.205 567.881 574.205C568.153 574.205 568.392 574.186 568.597 574.148C568.801 574.11 568.96 574.08 569.074 574.057L569.688 576.864C569.491 576.939 569.21 577.015 568.847 577.091C568.483 577.174 568.028 577.22 567.483 577.227C566.589 577.242 565.756 577.083 564.983 576.75C564.21 576.417 563.585 575.902 563.108 575.205C562.631 574.508 562.392 573.633 562.392 572.58V555.364ZM581.597 583.545V559.545H584.915V562.375H585.199C585.396 562.011 585.68 561.591 586.051 561.114C586.422 560.636 586.938 560.22 587.597 559.864C588.256 559.5 589.127 559.318 590.21 559.318C591.619 559.318 592.877 559.674 593.983 560.386C595.089 561.098 595.956 562.125 596.585 563.466C597.222 564.807 597.54 566.42 597.54 568.307C597.54 570.193 597.225 571.811 596.597 573.159C595.968 574.5 595.104 575.534 594.006 576.261C592.907 576.981 591.653 577.341 590.244 577.341C589.184 577.341 588.316 577.163 587.642 576.807C586.975 576.451 586.453 576.034 586.074 575.557C585.695 575.08 585.403 574.655 585.199 574.284H584.994V583.545H581.597ZM584.926 568.273C584.926 569.5 585.104 570.576 585.46 571.5C585.816 572.424 586.331 573.148 587.006 573.67C587.68 574.186 588.506 574.443 589.483 574.443C590.498 574.443 591.347 574.174 592.028 573.636C592.71 573.091 593.225 572.352 593.574 571.42C593.93 570.489 594.108 569.439 594.108 568.273C594.108 567.121 593.934 566.087 593.585 565.17C593.244 564.254 592.729 563.53 592.04 563C591.358 562.47 590.506 562.205 589.483 562.205C588.498 562.205 587.665 562.458 586.983 562.966C586.309 563.473 585.797 564.182 585.449 565.091C585.1 566 584.926 567.061 584.926 568.273ZM606.426 577.386C605.32 577.386 604.32 577.182 603.426 576.773C602.532 576.356 601.824 575.754 601.301 574.966C600.786 574.178 600.528 573.212 600.528 572.068C600.528 571.083 600.718 570.273 601.097 569.636C601.475 569 601.987 568.496 602.631 568.125C603.275 567.754 603.994 567.473 604.79 567.284C605.585 567.095 606.396 566.951 607.222 566.852C608.267 566.731 609.116 566.633 609.767 566.557C610.419 566.473 610.892 566.341 611.188 566.159C611.483 565.977 611.631 565.682 611.631 565.273V565.193C611.631 564.201 611.35 563.432 610.79 562.886C610.237 562.341 609.411 562.068 608.312 562.068C607.169 562.068 606.267 562.322 605.608 562.83C604.956 563.33 604.506 563.886 604.256 564.5L601.062 563.773C601.441 562.712 601.994 561.856 602.722 561.205C603.456 560.545 604.301 560.068 605.256 559.773C606.21 559.47 607.214 559.318 608.267 559.318C608.964 559.318 609.703 559.402 610.483 559.568C611.271 559.727 612.006 560.023 612.688 560.455C613.377 560.886 613.941 561.504 614.381 562.307C614.82 563.102 615.04 564.136 615.04 565.409V577H611.722V574.614H611.585C611.366 575.053 611.036 575.485 610.597 575.909C610.157 576.333 609.593 576.686 608.903 576.966C608.214 577.246 607.388 577.386 606.426 577.386ZM607.165 574.659C608.104 574.659 608.907 574.473 609.574 574.102C610.248 573.731 610.759 573.246 611.108 572.648C611.464 572.042 611.642 571.394 611.642 570.705V568.455C611.521 568.576 611.286 568.689 610.938 568.795C610.597 568.894 610.206 568.981 609.767 569.057C609.328 569.125 608.9 569.189 608.483 569.25C608.066 569.303 607.718 569.348 607.438 569.386C606.778 569.47 606.176 569.61 605.631 569.807C605.093 570.004 604.661 570.288 604.335 570.659C604.017 571.023 603.858 571.508 603.858 572.114C603.858 572.955 604.169 573.591 604.79 574.023C605.411 574.447 606.203 574.659 607.165 574.659ZM632.645 563.807L629.565 564.352C629.437 563.958 629.232 563.583 628.952 563.227C628.679 562.871 628.308 562.58 627.838 562.352C627.368 562.125 626.781 562.011 626.077 562.011C625.115 562.011 624.312 562.227 623.668 562.659C623.024 563.083 622.702 563.633 622.702 564.307C622.702 564.89 622.918 565.36 623.349 565.716C623.781 566.072 624.478 566.364 625.44 566.591L628.213 567.227C629.819 567.598 631.016 568.17 631.804 568.943C632.592 569.716 632.986 570.72 632.986 571.955C632.986 573 632.683 573.932 632.077 574.75C631.478 575.561 630.641 576.197 629.565 576.659C628.497 577.121 627.259 577.352 625.849 577.352C623.895 577.352 622.3 576.936 621.065 576.102C619.83 575.261 619.073 574.068 618.793 572.523L622.077 572.023C622.281 572.879 622.702 573.527 623.338 573.966C623.974 574.398 624.804 574.614 625.827 574.614C626.94 574.614 627.83 574.383 628.497 573.92C629.164 573.451 629.497 572.879 629.497 572.205C629.497 571.659 629.293 571.201 628.884 570.83C628.482 570.458 627.865 570.178 627.031 569.989L624.077 569.341C622.448 568.97 621.243 568.379 620.463 567.568C619.69 566.758 619.304 565.731 619.304 564.489C619.304 563.458 619.592 562.557 620.168 561.784C620.743 561.011 621.539 560.409 622.554 559.977C623.569 559.538 624.732 559.318 626.043 559.318C627.929 559.318 629.414 559.727 630.497 560.545C631.58 561.356 632.296 562.443 632.645 563.807ZM649.801 563.807L646.722 564.352C646.593 563.958 646.388 563.583 646.108 563.227C645.835 562.871 645.464 562.58 644.994 562.352C644.525 562.125 643.938 562.011 643.233 562.011C642.271 562.011 641.468 562.227 640.824 562.659C640.18 563.083 639.858 563.633 639.858 564.307C639.858 564.89 640.074 565.36 640.506 565.716C640.938 566.072 641.634 566.364 642.597 566.591L645.369 567.227C646.975 567.598 648.172 568.17 648.96 568.943C649.748 569.716 650.142 570.72 650.142 571.955C650.142 573 649.839 573.932 649.233 574.75C648.634 575.561 647.797 576.197 646.722 576.659C645.653 577.121 644.415 577.352 643.006 577.352C641.051 577.352 639.456 576.936 638.222 576.102C636.987 575.261 636.229 574.068 635.949 572.523L639.233 572.023C639.438 572.879 639.858 573.527 640.494 573.966C641.131 574.398 641.96 574.614 642.983 574.614C644.097 574.614 644.987 574.383 645.653 573.92C646.32 573.451 646.653 572.879 646.653 572.205C646.653 571.659 646.449 571.201 646.04 570.83C645.638 570.458 645.021 570.178 644.188 569.989L641.233 569.341C639.604 568.97 638.4 568.379 637.619 567.568C636.847 566.758 636.46 565.731 636.46 564.489C636.46 563.458 636.748 562.557 637.324 561.784C637.9 561.011 638.695 560.409 639.71 559.977C640.725 559.538 641.888 559.318 643.199 559.318C645.085 559.318 646.57 559.727 647.653 560.545C648.737 561.356 649.453 562.443 649.801 563.807ZM657.662 577L652.526 559.545H656.037L659.457 572.364H659.628L663.06 559.545H666.571L669.98 572.307H670.151L673.548 559.545H677.06L671.935 577H668.469L664.923 564.398H664.662L661.116 577H657.662ZM687.105 577.352C685.469 577.352 684.041 576.977 682.821 576.227C681.601 575.477 680.654 574.428 679.98 573.08C679.306 571.731 678.969 570.155 678.969 568.352C678.969 566.542 679.306 564.958 679.98 563.602C680.654 562.246 681.601 561.193 682.821 560.443C684.041 559.693 685.469 559.318 687.105 559.318C688.741 559.318 690.17 559.693 691.389 560.443C692.609 561.193 693.556 562.246 694.23 563.602C694.904 564.958 695.241 566.542 695.241 568.352C695.241 570.155 694.904 571.731 694.23 573.08C693.556 574.428 692.609 575.477 691.389 576.227C690.17 576.977 688.741 577.352 687.105 577.352ZM687.116 574.5C688.177 574.5 689.056 574.22 689.753 573.659C690.45 573.098 690.965 572.352 691.298 571.42C691.639 570.489 691.81 569.462 691.81 568.341C691.81 567.227 691.639 566.205 691.298 565.273C690.965 564.333 690.45 563.58 689.753 563.011C689.056 562.443 688.177 562.159 687.116 562.159C686.048 562.159 685.162 562.443 684.457 563.011C683.76 563.58 683.241 564.333 682.901 565.273C682.567 566.205 682.401 567.227 682.401 568.341C682.401 569.462 682.567 570.489 682.901 571.42C683.241 572.352 683.76 573.098 684.457 573.659C685.162 574.22 686.048 574.5 687.116 574.5ZM699.034 577V559.545H702.318V562.318H702.5C702.818 561.379 703.379 560.64 704.182 560.102C704.992 559.557 705.909 559.284 706.932 559.284C707.144 559.284 707.394 559.292 707.682 559.307C707.977 559.322 708.208 559.341 708.375 559.364V562.614C708.239 562.576 707.996 562.534 707.648 562.489C707.299 562.436 706.951 562.409 706.602 562.409C705.799 562.409 705.083 562.58 704.455 562.92C703.833 563.254 703.341 563.72 702.977 564.318C702.614 564.909 702.432 565.583 702.432 566.341V577H699.034ZM717.224 577.341C715.815 577.341 714.558 576.981 713.452 576.261C712.353 575.534 711.49 574.5 710.861 573.159C710.24 571.811 709.929 570.193 709.929 568.307C709.929 566.42 710.243 564.807 710.872 563.466C711.509 562.125 712.38 561.098 713.486 560.386C714.592 559.674 715.846 559.318 717.247 559.318C718.33 559.318 719.202 559.5 719.861 559.864C720.527 560.22 721.043 560.636 721.406 561.114C721.777 561.591 722.065 562.011 722.27 562.375H722.474V553.727H725.872V577H722.554V574.284H722.27C722.065 574.655 721.77 575.08 721.384 575.557C721.005 576.034 720.482 576.451 719.815 576.807C719.149 577.163 718.285 577.341 717.224 577.341ZM717.974 574.443C718.952 574.443 719.777 574.186 720.452 573.67C721.134 573.148 721.649 572.424 721.997 571.5C722.353 570.576 722.531 569.5 722.531 568.273C722.531 567.061 722.357 566 722.009 565.091C721.66 564.182 721.149 563.473 720.474 562.966C719.8 562.458 718.967 562.205 717.974 562.205C716.952 562.205 716.099 562.47 715.418 563C714.736 563.53 714.221 564.254 713.872 565.17C713.531 566.087 713.361 567.121 713.361 568.273C713.361 569.439 713.535 570.489 713.884 571.42C714.232 572.352 714.747 573.091 715.429 573.636C716.118 574.174 716.967 574.443 717.974 574.443Z" fill="#1750BA"/>
</svg>
