<svg width="1200" height="742" viewBox="0 0 1200 742" fill="none" xmlns="http://www.w3.org/2000/svg">
<rect width="1200" height="742" rx="4" fill="white"/>
<rect x="120" y="232" width="960" height="40" rx="8" fill="#ECF1F9"/>
<rect x="120" y="282" width="960" height="40" rx="8" fill="#ECF1F9"/>
<rect x="120" y="332" width="960" height="40" rx="8" fill="#ECF1F9"/>
<rect x="120" y="382" width="960" height="40" rx="8" fill="#ECF1F9"/>
<rect x="120" y="432" width="960" height="40" rx="8" fill="#ECF1F9"/>
<rect x="120" y="482" width="401" height="40" rx="8" fill="#ECF1F9"/>
<rect x="120" y="82" width="960" height="40" rx="8" fill="#CAD3E2"/>
<rect x="120" y="132" width="583" height="40" rx="8" fill="#CAD3E2"/>
<rect x="120" y="582" width="320" height="80" rx="8" fill="#0B64DD"/>
<path d="M257.75 616.841C257.629 615.765 257.129 614.932 256.25 614.341C255.371 613.742 254.265 613.443 252.932 613.443C251.977 613.443 251.152 613.595 250.455 613.898C249.758 614.193 249.216 614.602 248.83 615.125C248.451 615.64 248.261 616.227 248.261 616.886C248.261 617.439 248.39 617.917 248.648 618.318C248.913 618.72 249.258 619.057 249.682 619.33C250.114 619.595 250.576 619.818 251.068 620C251.561 620.174 252.034 620.318 252.489 620.432L254.761 621.023C255.504 621.205 256.265 621.451 257.045 621.761C257.826 622.072 258.549 622.481 259.216 622.989C259.883 623.496 260.42 624.125 260.83 624.875C261.246 625.625 261.455 626.523 261.455 627.568C261.455 628.886 261.114 630.057 260.432 631.08C259.758 632.102 258.777 632.909 257.489 633.5C256.208 634.091 254.659 634.386 252.841 634.386C251.098 634.386 249.591 634.11 248.318 633.557C247.045 633.004 246.049 632.22 245.33 631.205C244.61 630.182 244.212 628.97 244.136 627.568H247.659C247.727 628.409 248 629.11 248.477 629.67C248.962 630.223 249.58 630.636 250.33 630.909C251.087 631.174 251.917 631.307 252.818 631.307C253.811 631.307 254.693 631.152 255.466 630.841C256.246 630.523 256.86 630.083 257.307 629.523C257.754 628.955 257.977 628.292 257.977 627.534C257.977 626.845 257.78 626.28 257.386 625.841C257 625.402 256.473 625.038 255.807 624.75C255.148 624.462 254.402 624.208 253.568 623.989L250.818 623.239C248.955 622.731 247.477 621.985 246.386 621C245.303 620.015 244.761 618.712 244.761 617.091C244.761 615.75 245.125 614.58 245.852 613.58C246.58 612.58 247.564 611.803 248.807 611.25C250.049 610.689 251.451 610.409 253.011 610.409C254.587 610.409 255.977 610.686 257.182 611.239C258.394 611.792 259.348 612.553 260.045 613.523C260.742 614.485 261.106 615.591 261.136 616.841H257.75ZM270.457 634.386C269.351 634.386 268.351 634.182 267.457 633.773C266.563 633.356 265.855 632.754 265.332 631.966C264.817 631.178 264.56 630.212 264.56 629.068C264.56 628.083 264.749 627.273 265.128 626.636C265.507 626 266.018 625.496 266.662 625.125C267.306 624.754 268.026 624.473 268.821 624.284C269.616 624.095 270.427 623.951 271.253 623.852C272.298 623.731 273.147 623.633 273.798 623.557C274.45 623.473 274.923 623.341 275.219 623.159C275.514 622.977 275.662 622.682 275.662 622.273V622.193C275.662 621.201 275.382 620.432 274.821 619.886C274.268 619.341 273.442 619.068 272.344 619.068C271.2 619.068 270.298 619.322 269.639 619.83C268.988 620.33 268.537 620.886 268.287 621.5L265.094 620.773C265.473 619.712 266.026 618.856 266.753 618.205C267.488 617.545 268.332 617.068 269.287 616.773C270.241 616.47 271.245 616.318 272.298 616.318C272.995 616.318 273.734 616.402 274.514 616.568C275.302 616.727 276.037 617.023 276.719 617.455C277.408 617.886 277.973 618.504 278.412 619.307C278.851 620.102 279.071 621.136 279.071 622.409V634H275.753V631.614H275.616C275.397 632.053 275.067 632.485 274.628 632.909C274.188 633.333 273.624 633.686 272.935 633.966C272.245 634.246 271.42 634.386 270.457 634.386ZM271.196 631.659C272.135 631.659 272.938 631.473 273.605 631.102C274.279 630.731 274.791 630.246 275.139 629.648C275.495 629.042 275.673 628.394 275.673 627.705V625.455C275.552 625.576 275.317 625.689 274.969 625.795C274.628 625.894 274.238 625.981 273.798 626.057C273.359 626.125 272.931 626.189 272.514 626.25C272.098 626.303 271.749 626.348 271.469 626.386C270.81 626.47 270.207 626.61 269.662 626.807C269.124 627.004 268.692 627.288 268.366 627.659C268.048 628.023 267.889 628.508 267.889 629.114C267.889 629.955 268.2 630.591 268.821 631.023C269.442 631.447 270.234 631.659 271.196 631.659ZM297.903 616.545L291.574 634H287.938L281.597 616.545H285.244L289.665 629.977H289.847L294.256 616.545H297.903ZM308.026 634.352C306.306 634.352 304.825 633.985 303.582 633.25C302.348 632.508 301.393 631.466 300.719 630.125C300.052 628.777 299.719 627.197 299.719 625.386C299.719 623.598 300.052 622.023 300.719 620.659C301.393 619.295 302.332 618.231 303.537 617.466C304.749 616.701 306.166 616.318 307.787 616.318C308.772 616.318 309.726 616.481 310.651 616.807C311.575 617.133 312.404 617.644 313.139 618.341C313.874 619.038 314.454 619.943 314.878 621.057C315.302 622.163 315.514 623.508 315.514 625.091V626.295H301.639V623.75H312.185C312.185 622.856 312.003 622.064 311.639 621.375C311.276 620.678 310.764 620.129 310.105 619.727C309.454 619.326 308.688 619.125 307.81 619.125C306.855 619.125 306.022 619.36 305.31 619.83C304.605 620.292 304.06 620.898 303.673 621.648C303.295 622.39 303.105 623.197 303.105 624.068V626.057C303.105 627.223 303.31 628.216 303.719 629.034C304.135 629.852 304.715 630.477 305.457 630.909C306.2 631.333 307.067 631.545 308.06 631.545C308.704 631.545 309.291 631.455 309.821 631.273C310.351 631.083 310.81 630.803 311.196 630.432C311.582 630.061 311.878 629.602 312.082 629.057L315.298 629.636C315.041 630.583 314.579 631.413 313.912 632.125C313.253 632.83 312.423 633.379 311.423 633.773C310.431 634.159 309.298 634.352 308.026 634.352Z" fill="white"/>
<path d="M578.886 618.295H575.341C575.205 617.538 574.951 616.871 574.58 616.295C574.208 615.72 573.754 615.231 573.216 614.83C572.678 614.428 572.076 614.125 571.409 613.92C570.75 613.716 570.049 613.614 569.307 613.614C567.966 613.614 566.765 613.951 565.705 614.625C564.652 615.299 563.818 616.288 563.205 617.591C562.598 618.894 562.295 620.485 562.295 622.364C562.295 624.258 562.598 625.856 563.205 627.159C563.818 628.462 564.655 629.447 565.716 630.114C566.777 630.78 567.97 631.114 569.295 631.114C570.03 631.114 570.727 631.015 571.386 630.818C572.053 630.614 572.655 630.314 573.193 629.92C573.731 629.527 574.186 629.045 574.557 628.477C574.936 627.902 575.197 627.242 575.341 626.5L578.886 626.511C578.697 627.655 578.33 628.708 577.784 629.67C577.246 630.625 576.553 631.451 575.705 632.148C574.864 632.837 573.902 633.371 572.818 633.75C571.735 634.129 570.553 634.318 569.273 634.318C567.258 634.318 565.462 633.841 563.886 632.886C562.311 631.924 561.068 630.549 560.159 628.761C559.258 626.973 558.807 624.841 558.807 622.364C558.807 619.879 559.261 617.746 560.17 615.966C561.08 614.178 562.322 612.807 563.898 611.852C565.473 610.89 567.265 610.409 569.273 610.409C570.508 610.409 571.659 610.587 572.727 610.943C573.803 611.292 574.769 611.807 575.625 612.489C576.481 613.163 577.189 613.989 577.75 614.966C578.311 615.936 578.689 617.045 578.886 618.295ZM587.895 634.386C586.789 634.386 585.789 634.182 584.895 633.773C584.001 633.356 583.293 632.754 582.77 631.966C582.255 631.178 581.997 630.212 581.997 629.068C581.997 628.083 582.187 627.273 582.565 626.636C582.944 626 583.455 625.496 584.099 625.125C584.743 624.754 585.463 624.473 586.259 624.284C587.054 624.095 587.865 623.951 588.69 623.852C589.736 623.731 590.584 623.633 591.236 623.557C591.887 623.473 592.361 623.341 592.656 623.159C592.952 622.977 593.099 622.682 593.099 622.273V622.193C593.099 621.201 592.819 620.432 592.259 619.886C591.705 619.341 590.88 619.068 589.781 619.068C588.637 619.068 587.736 619.322 587.077 619.83C586.425 620.33 585.974 620.886 585.724 621.5L582.531 620.773C582.91 619.712 583.463 618.856 584.19 618.205C584.925 617.545 585.77 617.068 586.724 616.773C587.679 616.47 588.683 616.318 589.736 616.318C590.433 616.318 591.171 616.402 591.952 616.568C592.74 616.727 593.474 617.023 594.156 617.455C594.846 617.886 595.41 618.504 595.849 619.307C596.289 620.102 596.509 621.136 596.509 622.409V634H593.19V631.614H593.054C592.834 632.053 592.505 632.485 592.065 632.909C591.626 633.333 591.062 633.686 590.372 633.966C589.683 634.246 588.857 634.386 587.895 634.386ZM588.634 631.659C589.573 631.659 590.376 631.473 591.043 631.102C591.717 630.731 592.228 630.246 592.577 629.648C592.933 629.042 593.111 628.394 593.111 627.705V625.455C592.99 625.576 592.755 625.689 592.406 625.795C592.065 625.894 591.675 625.981 591.236 626.057C590.796 626.125 590.368 626.189 589.952 626.25C589.535 626.303 589.187 626.348 588.906 626.386C588.247 626.47 587.645 626.61 587.099 626.807C586.562 627.004 586.13 627.288 585.804 627.659C585.486 628.023 585.327 628.508 585.327 629.114C585.327 629.955 585.637 630.591 586.259 631.023C586.88 631.447 587.671 631.659 588.634 631.659ZM604.432 623.636V634H601.034V616.545H604.295V619.386H604.511C604.913 618.462 605.542 617.72 606.398 617.159C607.261 616.598 608.348 616.318 609.659 616.318C610.848 616.318 611.89 616.568 612.784 617.068C613.678 617.561 614.371 618.295 614.864 619.273C615.356 620.25 615.602 621.458 615.602 622.898V634H612.205V623.307C612.205 622.042 611.875 621.053 611.216 620.341C610.557 619.621 609.652 619.261 608.5 619.261C607.712 619.261 607.011 619.432 606.398 619.773C605.792 620.114 605.311 620.614 604.955 621.273C604.606 621.924 604.432 622.712 604.432 623.636ZM627.511 634.352C625.822 634.352 624.367 633.97 623.148 633.205C621.936 632.432 621.004 631.367 620.352 630.011C619.701 628.655 619.375 627.102 619.375 625.352C619.375 623.58 619.708 622.015 620.375 620.659C621.042 619.295 621.981 618.231 623.193 617.466C624.405 616.701 625.833 616.318 627.477 616.318C628.803 616.318 629.985 616.564 631.023 617.057C632.061 617.542 632.898 618.223 633.534 619.102C634.178 619.981 634.561 621.008 634.682 622.182H631.375C631.193 621.364 630.777 620.659 630.125 620.068C629.481 619.477 628.617 619.182 627.534 619.182C626.587 619.182 625.758 619.432 625.045 619.932C624.341 620.424 623.792 621.129 623.398 622.045C623.004 622.955 622.807 624.03 622.807 625.273C622.807 626.545 623 627.644 623.386 628.568C623.773 629.492 624.318 630.208 625.023 630.716C625.735 631.223 626.572 631.477 627.534 631.477C628.178 631.477 628.761 631.36 629.284 631.125C629.814 630.883 630.258 630.538 630.614 630.091C630.977 629.644 631.231 629.106 631.375 628.477H634.682C634.561 629.606 634.193 630.614 633.58 631.5C632.966 632.386 632.144 633.083 631.114 633.591C630.091 634.098 628.89 634.352 627.511 634.352ZM645.838 634.352C644.118 634.352 642.637 633.985 641.395 633.25C640.16 632.508 639.205 631.466 638.531 630.125C637.865 628.777 637.531 627.197 637.531 625.386C637.531 623.598 637.865 622.023 638.531 620.659C639.205 619.295 640.145 618.231 641.349 617.466C642.562 616.701 643.978 616.318 645.599 616.318C646.584 616.318 647.539 616.481 648.463 616.807C649.387 617.133 650.217 617.644 650.952 618.341C651.687 619.038 652.266 619.943 652.69 621.057C653.115 622.163 653.327 623.508 653.327 625.091V626.295H639.452V623.75H649.997C649.997 622.856 649.815 622.064 649.452 621.375C649.088 620.678 648.577 620.129 647.918 619.727C647.266 619.326 646.501 619.125 645.622 619.125C644.668 619.125 643.834 619.36 643.122 619.83C642.418 620.292 641.872 620.898 641.486 621.648C641.107 622.39 640.918 623.197 640.918 624.068V626.057C640.918 627.223 641.122 628.216 641.531 629.034C641.948 629.852 642.527 630.477 643.27 630.909C644.012 631.333 644.88 631.545 645.872 631.545C646.516 631.545 647.103 631.455 647.634 631.273C648.164 631.083 648.622 630.803 649.009 630.432C649.395 630.061 649.69 629.602 649.895 629.057L653.111 629.636C652.853 630.583 652.391 631.413 651.724 632.125C651.065 632.83 650.236 633.379 649.236 633.773C648.243 634.159 647.111 634.352 645.838 634.352ZM660.494 610.727V634H657.097V610.727H660.494Z" fill="#1750BA"/>
</svg>
