<svg xmlns="http://www.w3.org/2000/svg" width="16" height="16" viewBox="0 0 16 16">
  <path d="M12 10.5a.5.5 0 0 0-1 0v1a.5.5 0 0 0 .5.5h1a.5.5 0 0 0 0-1H12v-.5Z"/>
  <path fill-rule="evenodd" d="M3 12h3.078c.728 0 1.37-.127 1.924-.383a3.5 3.5 0 1 0 2.053-3.306c.005-.101.008-.205.008-.311 0-.833-.165-1.548-.493-2.145A3.309 3.309 0 0 0 8.18 4.48C7.58 4.16 6.87 4 6.047 4H3v8Zm6.787-2.321A2.5 2.5 0 0 0 11.5 14a2.5 2.5 0 1 0-1.713-4.321ZM6 10.156h-.828V5.844h.766c.416 0 .768.064 1.054.191.29.128.508.348.656.66.151.313.227.748.227 1.305 0 .557-.074.992-.223 1.305a1.29 1.29 0 0 1-.64.66c-.279.127-.616.191-1.012.191Z"/>
</svg>
