<svg xmlns="http://www.w3.org/2000/svg" width="16" height="16" viewBox="0 0 16 16">
  <path fill-rule="evenodd" d="M3.33333333,11.0269204 L3.33333333,5.05089245 L5.39169473,5.05089245 L5.39169473,6.18696027 L5.45454545,6.18696027 C5.70594837,5.43995677 6.34624018,4.97307959 7.18294052,4.97307959 C8.03142536,4.97307959 8.70707071,5.45551935 8.83277217,6.18696027 L8.8956229,6.18696027 C9.09988777,5.45551935 9.82267116,4.97307959 10.7182941,4.97307959 C11.8731762,4.97307959 12.6666667,5.77066145 12.6666667,6.99621405 L12.6666667,11.0269204 L10.4983165,11.0269204 L10.4983165,7.5409041 C10.4983165,7.01955791 10.2076319,6.70052517 9.75982043,6.70052517 C9.31200898,6.70052517 9.03703704,7.01955791 9.03703704,7.5409041 L9.03703704,11.0269204 L6.96296296,11.0269204 L6.96296296,7.5409041 C6.96296296,7.01955791 6.67227834,6.70052517 6.22446689,6.70052517 C5.77665544,6.70052517 5.5016835,7.01955791 5.5016835,7.5409041 L5.5016835,11.0269204 L3.33333333,11.0269204 Z"/>
</svg>
