<svg xmlns="http://www.w3.org/2000/svg" width="16" height="16" viewBox="0 0 16 16">
	<path fill-rule="evenodd" d="M11,3 C12.1045695,3 13,3.8954305 13,5 L13,11 C13,12.1045695 12.1045695,13 11,13 L5,13 C3.8954305,13 3,12.1045695 3,11 L3,5 C3,3.8954305 3.8954305,3 5,3 L11,3 Z M10,5 L8,5 L8,11 L9,11 L9,9.01354986 L10,9.01354986 C10.298071,9.00123635 12,9.01354986 12,6.99593021 C12,5.25660292 10.6862111,5.04356769 10.1750479,5.00862001 L10.1750479,5.00862001 L10,5 Z M6,5 L5,5 L5,11 L6,11 L6,5 Z M10,5.98396386 C10.6666667,5.98396386 11,6.31996988 11,6.99198193 C11,7.66399398 10.6666667,8 10,8 L10,8 L9,8 L9,5.98396386 Z" />
</svg>
