<svg xmlns="http://www.w3.org/2000/svg" width="16" height="16" viewBox="0 0 16 16">
  <path fill-rule="evenodd" d="M11.2246696,5.65638767 C11.2246696,6.07929727 11.1189438,6.44640079 10.907489,6.75770925 C10.6960342,7.06901771 10.3964777,7.32745859 10.0088106,7.53303965 C9.62114344,7.7386207 9.15712458,7.90014626 8.61674009,8.01762115 C8.07635559,8.13509604 7.47724264,8.21145357 6.81938326,8.24669604 C6.80763577,8.36417093 6.79882529,8.4757704 6.79295154,8.5814978 C6.7870778,8.6872252 6.78414097,8.79882467 6.78414097,8.91629956 C6.78414097,9.17474432 6.80469877,9.42731154 6.84581498,9.67400881 C6.88693119,9.92070608 6.96035189,10.1380314 7.0660793,10.3259912 C7.1718067,10.513951 7.31571128,10.6666661 7.49779736,10.784141 C7.67988344,10.9016159 7.91189286,10.9603524 8.1938326,10.9603524 C8.4052874,10.9603524 8.66079145,10.9163 8.96035242,10.8281938 C9.25991339,10.7400877 9.58002767,10.5844358 9.92070485,10.3612335 C10.0264322,10.2907485 10.1116003,10.232012 10.1762115,10.185022 C10.2408226,10.1380321 10.3142433,10.1145374 10.3964758,10.1145374 C10.5139507,10.1145374 10.593245,10.1762108 10.6343612,10.2995595 C10.6754774,10.4229081 10.6960352,10.5080761 10.6960352,10.5550661 C10.5433179,10.6960359 10.3524241,10.8516878 10.123348,11.0220264 C9.89427198,11.192365 9.6358311,11.3480169 9.34801762,11.4889868 C9.06020414,11.6299567 8.74890035,11.7503666 8.41409692,11.8502203 C8.07929348,11.9500739 7.73568458,12 7.38325991,12 C6.84287542,12 6.40235119,11.9118952 6.06167401,11.7356828 C5.72099683,11.5594705 5.45668229,11.3303979 5.26872247,11.0484581 C5.08076264,10.7665184 4.9515422,10.4552146 4.88105727,10.1145374 C4.81057233,9.77386026 4.7753304,9.43906185 4.7753304,9.11013216 C4.7753304,8.47576775 4.87811938,7.85316018 5.08370044,7.24229075 C5.2892815,6.63142132 5.58296432,6.08517128 5.96475771,5.60352423 C6.3465511,5.12187718 6.80175947,4.73421586 7.33039648,4.44052863 C7.85903348,4.14684141 8.44639912,4 9.09251101,4 C9.69163295,4 10.1967674,4.12628361 10.6079295,4.37885463 C11.0190916,4.63142564 11.2246696,5.05726573 11.2246696,5.65638767 Z M8.75770925,4.70484581 C8.53450696,4.70484581 8.32305533,4.78414018 8.12334802,4.94273128 C7.9236407,5.10132238 7.74155736,5.31571084 7.57709251,5.58590308 C7.41262767,5.85609533 7.27165991,6.16446229 7.15418502,6.51101322 C7.03671013,6.85756414 6.94860529,7.22466767 6.88986784,7.6123348 C7.3597674,7.56534485 7.75330238,7.47724 8.07048458,7.34801762 C8.38766678,7.21879524 8.64023401,7.06314335 8.82819383,6.88105727 C9.01615366,6.69897119 9.15124775,6.49339322 9.23348018,6.26431718 C9.3157126,6.03524115 9.35682819,5.79735806 9.35682819,5.55066079 C9.35682819,5.28046855 9.30102846,5.07195374 9.18942731,4.92511013 C9.07782617,4.77826652 8.93392159,4.70484581 8.75770925,4.70484581 Z"/>
</svg>
