<svg xmlns="http://www.w3.org/2000/svg" width="16" height="16" viewBox="0 0 16 16">
  <path d="M5.00237936,12.4118342 L4.04044011,13.3737734 C3.64991582,13.7642977 3.01675084,13.7642977 2.62622655,13.3737734 C2.23570226,12.9832492 2.23570226,12.3500842 2.62622655,11.9595599 L3.5881658,10.9976206 C3.00660086,10.1433453 2.66666667,9.11137058 2.66666667,8 C2.66666667,5.05448133 5.05448133,2.66666667 8,2.66666667 C9.11137058,2.66666667 10.1433453,3.00660086 10.9976206,3.5881658 L11.9595599,2.62622655 C12.3500842,2.23570226 12.9832492,2.23570226 13.3737734,2.62622655 C13.7642977,3.01675084 13.7642977,3.64991582 13.3737734,4.04044011 L12.4118342,5.00237936 C12.9933991,5.85665473 13.3333333,6.88862942 13.3333333,8 C13.3333333,10.9455187 10.9455187,13.3333333 8,13.3333333 C6.88862942,13.3333333 5.85665473,12.9933991 5.00237936,12.4118342 Z M5.96803265,11.4461809 C6.56354591,11.7980706 7.25819138,12 8,12 C10.209139,12 12,10.209139 12,8 C12,7.25819138 11.7980706,6.56354591 11.4461809,5.96803265 L5.96803265,11.4461809 Z M4.55381909,10.0319673 L10.0319673,4.55381909 C9.43645409,4.20192939 8.74180862,4 8,4 C5.790861,4 4,5.790861 4,8 C4,8.74180862 4.20192939,9.43645409 4.55381909,10.0319673 Z"/>
</svg>
