<svg xmlns="http://www.w3.org/2000/svg" width="16" height="16" viewBox="0 0 16 16">
  <path fill-rule="evenodd" d="M9.41421356,3.75735931 L12.2426407,6.58578644 C13.0236893,7.36683502 13.0236893,8.63316498 12.2426407,9.41421356 L9.41421356,12.2426407 C8.63316498,13.0236893 7.36683502,13.0236893 6.58578644,12.2426407 L3.75735931,9.41421356 C2.97631073,8.63316498 2.97631073,7.36683502 3.75735931,6.58578644 L6.58578644,3.75735931 C7.36683502,2.97631073 8.63316498,2.97631073 9.41421356,3.75735931 Z M7.66666667,6.66666667 C7.11438192,6.66666667 6.66666667,7.11438192 6.66666667,7.66666667 L6.66666667,8.33333333 C6.66666667,8.88561808 7.11438192,9.33333333 7.66666667,9.33333333 L8.33333333,9.33333333 C8.88561808,9.33333333 9.33333333,8.88561808 9.33333333,8.33333333 L9.33333333,7.66666667 C9.33333333,7.11438192 8.88561808,6.66666667 8.33333333,6.66666667 L7.66666667,6.66666667 Z"/>
</svg>
