<svg xmlns="http://www.w3.org/2000/svg" width="16" height="16" viewBox="0 0 16 16">
	<g fill-rule="evenodd" transform="translate(3 5)">
		<path d="M9.1799078,0.115901897 C9.39204625,-0.0608801431 9.7073286,-0.0322181112 9.88411064,0.179920337 C10.0412502,0.368487847 10.0360636,0.638551773 9.88397946,0.820397663 L9.8200922,0.884123177 L7.281,3.00001254 L9.8200922,5.1159019 C10.0086597,5.27304149 10.0522582,5.53961342 9.93545908,5.74590325 L9.88411064,5.82010474 C9.72697105,6.00867225 9.46039911,6.05227074 9.25410929,5.93547162 L9.1799078,5.88412318 L6.1799078,3.38412318 C5.96668374,3.20643646 5.94299218,2.89559133 6.10883311,2.68831386 L6.1799078,2.6159019 L9.1799078,0.115901897 Z" transform="matrix(-1 0 0 1 16 0)" />
		<path d="M3.1799078,0.115901897 C3.39204625,-0.0608801431 3.7073286,-0.0322181112 3.88411064,0.179920337 C4.04125023,0.368487847 4.03606364,0.638551773 3.88397946,0.820397663 L3.8200922,0.884123177 L1.281,3.00001254 L3.8200922,5.1159019 C4.00865971,5.27304149 4.0522582,5.53961342 3.93545908,5.74590325 L3.88411064,5.82010474 C3.72697105,6.00867225 3.46039911,6.05227074 3.25410929,5.93547162 L3.1799078,5.88412318 L0.1799078,3.38412318 C-0.0333162593,3.20643646 -0.0570078215,2.89559133 0.108833114,2.68831386 L0.1799078,2.6159019 L3.1799078,0.115901897 Z" />
	</g>
</svg>
