<svg xmlns="http://www.w3.org/2000/svg" width="16" height="16" viewBox="0 0 16 16">
	<path fill-rule="evenodd" d="M8.01396103,6.51396103 C8.29010341,6.51396103 8.51396103,6.73781866 8.51396103,7.01396103 C8.51396103,7.29010341 8.29010341,7.51396103 8.01396103,7.51396103 C7.18553391,7.51396103 6.51396103,8.18553391 6.51396103,9.01396103 L6.51396103,12.013961 C6.51396103,12.8423882 7.18553391,13.513961 8.01396103,13.513961 C8.84238816,13.513961 9.51396103,12.8423882 9.51396103,12.013961 L9.51396103,10.3955932 C9.51396103,10.1194509 9.73781866,9.89559323 10.013961,9.89559323 C10.2901034,9.89559323 10.513961,10.1194509 10.513961,10.3955932 L10.513961,12.013961 C10.513961,13.3946729 9.39467291,14.513961 8.01396103,14.513961 C6.63324916,14.513961 5.51396103,13.3946729 5.51396103,12.013961 L5.51396103,9.01396103 C5.51396103,7.63324916 6.63324916,6.51396103 8.01396103,6.51396103 Z M8.01396103,1.51396103 C9.39467291,1.51396103 10.513961,2.63324916 10.513961,4.01396103 L10.513961,7.01396103 C10.513961,8.39467291 9.39467291,9.51396103 8.01396103,9.51396103 C7.73781866,9.51396103 7.51396103,9.29010341 7.51396103,9.01396103 C7.51396103,8.73781866 7.73781866,8.51396103 8.01396103,8.51396103 C8.84238816,8.51396103 9.51396103,7.84238816 9.51396103,7.01396103 L9.51396103,4.01396103 C9.51396103,3.18553391 8.84238816,2.51396103 8.01396103,2.51396103 C7.18553391,2.51396103 6.51396103,3.18553391 6.51396103,4.01396103 L6.51396103,5.63232883 C6.51396103,5.9084712 6.29010341,6.13232883 6.01396103,6.13232883 C5.73781866,6.13232883 5.51396103,5.9084712 5.51396103,5.63232883 L5.51396103,4.01396103 C5.51396103,2.63324916 6.63324916,1.51396103 8.01396103,1.51396103 Z" transform="rotate(45 8.014 8.014)" />
</svg>
