<svg xmlns="http://www.w3.org/2000/svg" width="16" height="16" viewBox="0 0 16 16">
    <path d="M2 2.5C2 2.22386 2.22386 2 2.5 2H4.5C4.77614 2 5 2.22386 5 2.5C5 2.77614 4.77614 3 4.5 3H3V13H4.5C4.77614 13 5 13.2239 5 13.5C5 13.7761 4.77614 14 4.5 14H2.5C2.22386 14 2 13.7761 2 13.5V2.5Z" />
    <path d="M13.5 2C13.7761 2 14 2.22386 14 2.5V13.5C14 13.7761 13.7761 14 13.5 14H11.5C11.2239 14 11 13.7761 11 13.5C11 13.2239 11.2239 13 11.5 13H13V3H11.5C11.2239 3 11 2.77614 11 2.5C11 2.22386 11.2239 2 11.5 2H13.5Z" />
    <path d="M9.09764 4.5L8.85429 5.89276H9.75L9.53773 7.1043H8.64201L8.2071 9.67753C8.18294 9.85357 8.19415 9.98649 8.24075 10.0762C8.28735 10.166 8.40384 10.2142 8.59024 10.2212C8.66273 10.2247 8.81114 10.2159 9.0355 10.1953L8.91124 11.4586C8.62475 11.5518 8.31929 11.595 7.99482 11.588C7.46672 11.5811 7.0715 11.4258 6.80917 11.1221C6.54684 10.8184 6.43984 10.4059 6.48816 9.88463L6.94378 7.1043H6.25L6.4571 5.89276H7.15088L7.39423 4.5H9.09764Z" />
</svg>
