<svg xmlns="http://www.w3.org/2000/svg" width="16" height="16" viewBox="0 0 16 16">
  <path d="M8.31637016,14 C5.00266166,14 2.31637016,11.3137085 2.31637016,8 C2.31637016,4.6862915 5.00266166,2 8.31637016,2 C11.6300787,2 14.3163702,4.6862915 14.3163702,8 C14.3163702,11.3137085 11.6300787,14 8.31637016,14 Z M8.31637016,12.6666667 C10.893699,12.6666667 12.9830368,10.5773288 12.9830368,8 C12.9830368,5.42267117 10.893699,3.33333333 8.31637016,3.33333333 C5.73904133,3.33333333 3.64970349,5.42267117 3.64970349,8 C3.64970349,10.5773288 5.73904133,12.6666667 8.31637016,12.6666667 Z M10.5060642,6.94788926 L11.6493954,6.94788926 C11.6678363,8.39549411 10.8564399,9.28526396 9.72693933,9.28526396 C9.09534103,9.28526396 8.53289584,9.01787199 8.02116292,8.47386762 C7.66156681,8.07738986 7.38495442,7.8975918 7.0207481,7.8975918 C6.50440497,7.8975918 6.17247011,8.25257771 6.13558845,8.98099033 L4.98303683,8.98099033 C4.99686745,7.51033446 5.84053524,6.66666667 6.93315418,6.66666667 C7.52787082,6.66666667 8.05804457,6.91561782 8.61126935,7.4688426 C9.0031369,7.85148974 9.25208806,8.06355924 9.64856581,8.06355924 C10.1326375,8.06355924 10.5060642,7.74084478 10.5060642,6.94788926 Z"/>
</svg>
