<svg xmlns="http://www.w3.org/2000/svg" width="16" height="16" viewBox="0 0 16 16">
  <path fill-rule="evenodd" d="M11.2663877,4.15062762 L11.2663877,5.62900976 C11.0320781,5.53417015 10.7140865,5.48396095 10.4072524,5.48396095 C9.71548117,5.48396095 9.34170153,5.82984658 9.23012552,6.52719665 L9.12053158,7.15231298 L10.9483961,7.15231298 L10.9483961,8.59113381 L8.92132866,8.59113381 L8.71687587,9.70711297 C8.45467225,11.3249651 7.51743375,12 5.89958159,12 C5.43096234,12 5.0181311,11.9386332 4.73361227,11.832636 L4.73361227,10.3375174 C5.0069735,10.4546722 5.32496513,10.5160391 5.63737796,10.5160391 C6.29567643,10.5160391 6.64714086,10.2259414 6.76429568,9.50069735 L6.92134332,8.59113381 L5.24686192,8.59113381 L5.24686192,7.15231298 L7.08384534,7.15231298 L7.27196653,6.30962343 C7.53417015,4.71408647 8.43235704,4 10.1896792,4 C10.5801953,4 11.0432357,4.06694561 11.2663877,4.15062762 Z"/>
</svg>
