<svg width="16" height="16" viewBox="0 0 16 16" xmlns="http://www.w3.org/2000/svg">
  <path fill-rule="evenodd" clip-rule="evenodd" d="M3.91465 3C3.70873 2.4174 3.15311 2 2.5 2C1.67157 2 1 2.67157 1 3.5C1 4.32843 1.67157 5 2.5 5C3.15311 5 3.70873 4.5826 3.91465 4H6.35013C6.54772 4 6.72678 4.11637 6.80703 4.29693L8.23062 7.5H3.91465C3.70873 6.9174 3.15311 6.5 2.5 6.5C1.67157 6.5 1 7.17157 1 8C1 8.82843 1.67157 9.5 2.5 9.5C3.15311 9.5 3.70873 9.0826 3.91465 8.5H8.23062L6.80703 11.7031C6.72678 11.8836 6.54772 12 6.35013 12H3.91465C3.70873 11.4174 3.15311 11 2.5 11C1.67157 11 1 11.6716 1 12.5C1 13.3284 1.67157 14 2.5 14C3.15311 14 3.70873 13.5826 3.91465 13H6.35013C6.94291 13 7.48009 12.6509 7.72084 12.1092L9.32494 8.5H12.5C12.7761 8.5 13 8.27614 13 8C13 7.72386 12.7761 7.5 12.5 7.5H9.32494L7.72084 3.89079C7.48009 3.3491 6.94291 3 6.35013 3H3.91465ZM2 3.5C2 3.22386 2.22386 3 2.5 3C2.77614 3 3 3.22386 3 3.5C3 3.77614 2.77614 4 2.5 4C2.22386 4 2 3.77614 2 3.5ZM3 12.5C3 12.2239 2.77614 12 2.5 12C2.22386 12 2 12.2239 2 12.5C2 12.7761 2.22386 13 2.5 13C2.77614 13 3 12.7761 3 12.5ZM2.5 7.5C2.77614 7.5 3 7.72386 3 8C3 8.27614 2.77614 8.5 2.5 8.5C2.22386 8.5 2 8.27614 2 8C2 7.72386 2.22386 7.5 2.5 7.5Z" />
  <path d="M12.0564 5.14645C12.2517 4.95118 12.5683 4.95118 12.7636 5.14645L14.5564 6.93934C15.1422 7.52513 15.1422 8.47487 14.5564 9.06066L12.7636 10.8536C12.5683 11.0488 12.2517 11.0488 12.0564 10.8536C11.8612 10.6583 11.8612 10.3417 12.0564 10.1464L13.8493 8.35355C14.0446 8.15829 14.0446 7.84171 13.8493 7.64645L12.0564 5.85355C11.8612 5.65829 11.8612 5.34171 12.0564 5.14645Z" />
</svg>
