<svg width="16" height="16" viewBox="0 0 16 16" xmlns="http://www.w3.org/2000/svg">
  <path fill-rule="evenodd" d="M2.5 1C3.15311 1 3.70873 1.4174 3.91465 2H5.82297C6.43632 2 6.98789 2.37343 7.21568 2.94291L8.83852 7H12.5C12.7761 7 13 7.22386 13 7.5C13 7.77614 12.7761 8 12.5 8H8.83852L7.21568 12.0571C6.98789 12.6266 6.43632 13 5.82297 13H3.91465C3.70873 13.5826 3.15311 14 2.5 14C1.67157 14 1 13.3284 1 12.5C1 11.6716 1.67157 11 2.5 11C3.15311 11 3.70873 11.4174 3.91465 12H5.82297C6.02742 12 6.21127 11.8755 6.28721 11.6857L7.76148 8H3.91465C3.70873 8.5826 3.15311 9 2.5 9C1.67157 9 1 8.32843 1 7.5C1 6.67157 1.67157 6 2.5 6C3.15311 6 3.70873 6.4174 3.91465 7H7.76148L6.28721 3.3143C6.21127 3.12448 6.02742 3 5.82297 3H3.91465C3.70873 3.5826 3.15311 4 2.5 4C1.67157 4 1 3.32843 1 2.5C1 1.67157 1.67157 1 2.5 1ZM2.5 2C2.22386 2 2 2.22386 2 2.5C2 2.77614 2.22386 3 2.5 3C2.77614 3 3 2.77614 3 2.5C3 2.22386 2.77614 2 2.5 2ZM2.5 12C2.77614 12 3 12.2239 3 12.5C3 12.7761 2.77614 13 2.5 13C2.22386 13 2 12.7761 2 12.5C2 12.2239 2.22386 12 2.5 12ZM3 7.5C3 7.22386 2.77614 7 2.5 7C2.22386 7 2 7.22386 2 7.5C2 7.77614 2.22386 8 2.5 8C2.77614 8 3 7.77614 3 7.5Z" />
  <path d="M12.3536 4.14645C12.1583 3.95118 11.8417 3.95118 11.6464 4.14645C11.4512 4.34171 11.4512 4.65829 11.6464 4.85355L13.7929 7C13.9255 7.13261 14 7.31246 14 7.5C14 7.68754 13.9255 7.86739 13.7929 8L11.6464 10.1464C11.4512 10.3417 11.4512 10.6583 11.6464 10.8536C11.8417 11.0488 12.1583 11.0488 12.3536 10.8536L14.5 8.70711C14.8201 8.38696 15 7.95275 15 7.5C15 7.04725 14.8201 6.61304 14.5 6.29289L12.3536 4.14645Z" />
</svg>
