<svg xmlns="http://www.w3.org/2000/svg" width="16" height="16" viewBox="0 0 16 16">
  <path fill-rule="evenodd" d="M7.58960784,10.0585714 L7.35,5.18142857 L8.65,5.18142857 L8.40019608,10.0585714 L7.58960784,10.0585714 Z M7.98428571,11.96 C7.80999913,11.96 7.66071491,11.8978578 7.53642857,11.7735714 C7.41214224,11.6492851 7.35,11.5014294 7.35,11.33 C7.35,11.1557134 7.41214224,11.0071435 7.53642857,10.8842857 C7.66071491,10.761428 7.80999913,10.7 7.98428571,10.7 C8.15285799,10.7 8.29928509,10.7607137 8.42357143,10.8821429 C8.54785776,11.003572 8.61,11.1528563 8.61,11.33 C8.61,11.5042866 8.54714349,11.6528565 8.42142857,11.7757143 C8.29571366,11.898572 8.15000083,11.96 7.98428571,11.96 Z M2,14 C1.24094086,14 0.758627342,13.1875225 1.12210443,12.5211479 L7.12210443,1.52114787 C7.50112106,0.826284044 8.49887894,0.826284044 8.87789557,1.52114787 L14.8778956,12.5211479 C15.2413727,13.1875225 14.7590591,14 14,14 L2,14 Z M2,13 L14,13 L8,2 L2,13 Z"/>
</svg>
