<svg xmlns="http://www.w3.org/2000/svg" width="16" height="16" viewBox="0 0 16 16">
  <path fill-rule="evenodd" d="M8.37847333,1.4959328 L15.0732417,12.4795372 C15.3606854,12.9511245 15.2114075,13.5664406 14.7398202,13.8538843 C14.5830369,13.9494475 14.4029693,14 14.2193574,14 L1.66666667,14 C1.11438192,14 0.666666667,13.5522847 0.666666667,13 C0.666666667,12.8358592 0.70707098,12.6742419 0.784313725,12.5294118 L6.64223606,1.54580739 C6.90213476,1.05849732 7.50786716,0.874143981 7.99517723,1.13404269 C8.15300996,1.21822014 8.28537445,1.34319246 8.37847333,1.4959328 Z M7.524589,2.01639563 L1.66666667,13 L14.2193574,13 L7.524589,2.01639563 Z M7.13960784,10.0585714 L6.9,5.18142857 L8.2,5.18142857 L7.95019608,10.0585714 L7.13960784,10.0585714 Z M7.53428571,11.96 C7.35999913,11.96 7.21071491,11.8978578 7.08642857,11.7735714 C6.96214224,11.6492851 6.9,11.5014294 6.9,11.33 C6.9,11.1557134 6.96214224,11.0071435 7.08642857,10.8842857 C7.21071491,10.761428 7.35999913,10.7 7.53428571,10.7 C7.70285799,10.7 7.84928509,10.7607137 7.97357143,10.8821429 C8.09785776,11.003572 8.16,11.1528563 8.16,11.33 C8.16,11.5042866 8.09714349,11.6528565 7.97142857,11.7757143 C7.84571366,11.898572 7.70000083,11.96 7.53428571,11.96 Z"/>
</svg>
