<svg xmlns="http://www.w3.org/2000/svg" width="14" height="16" viewBox="0 0 16 16">
<path fill-rule="evenodd" d="M13.9238 4.01282C13.8709 3.91472 13.7921 3.83319 13.696 3.7772L7.3039 0.0815548C7.11572 -0.0271849 6.88428 -0.0271849 6.6961 0.0815548L0.303923 3.7772C0.117629 3.88704 0.0022648 4.08714 0 4.30436V11.6957C0.000180841 11.9134 0.116106 12.1145 0.30393 12.2228L6.6961 15.9185C6.88428 16.0272 7.11571 16.0272 7.3039 15.9185L13.696 12.2228C13.8839 12.1145 13.9998 11.9134 14 11.6957V4.30436C13.9995 4.20227 13.9733 4.10197 13.9238 4.01282ZM1 5.07885V11.4701L7 14.9391L13 11.4701V5.07885L7.25194 8.43189L7 8.57885L6.74806 8.43189L1 5.07885ZM12.4759 4.22687L7 1.06096L1.52408 4.22686L7 7.42115L12.4759 4.22687Z"/>
</svg>
