<svg xmlns="http://www.w3.org/2000/svg" width="32" height="32" viewBox="0 0 32 32">
  <g fill="none" fill-rule="evenodd">
    <polygon fill="#00BEB2" points="16.016 4.857 .016 14 16.016 23.143 32.016 14"/>
    <path fill="#00BEB2" fill-rule="nonzero" d="M16.0156832,12.8482489 L32.0311289,22 L16.0156832,31.1517511 L0,22 L16.0156832,12.8482489 Z M16.0156759,15.1517511 L4.03115142,22 L16.0156759,28.8482489 L28.0000225,22 L16.0156759,15.1517511 Z"/>
    <path fill="#00A8E4" d="M16.0155757,15.5 C20.348909,12.1666667 22.5155757,9.16666667 22.5155757,6.5 C22.5155757,2.5 19.6054266,0 16.0155757,0 C12.4257248,0 9.51557571,2.5 9.51557571,6.5 C9.51557571,9.16666667 11.6822424,12.1666667 16.0155757,15.5 Z"/>
    <path fill="#007899" d="M22.1769899,8.37791623 C21.4137155,10.5534004 19.3599067,12.9274283 16.0155635,15.5 C12.6712559,12.9274557 10.6174553,10.553451 9.85416151,8.37798571 L16.0156822,4.85714286 L22.1769899,8.37791623 Z"/>
    <circle cx="16.016" cy="6.5" r="3" fill="#FFF"/>
  </g>
</svg>
