<svg xmlns="http://www.w3.org/2000/svg" width="32" height="32" viewBox="0 0 32 32">
  <g fill="none" fill-rule="evenodd">
    <path fill="#00BEB2" d="M19.0147543,6.57090406 L32.0155757,14 L16.0156944,23.1428571 L0.0155757084,14 L13.0163997,6.57101284 C13.0541243,8.1950628 14.3824578,9.5 16.0155757,9.5 C17.6487301,9.5 18.9770864,8.19500453 19.0147543,6.57090406 Z"/>
    <path fill="#00BEB2" fill-rule="nonzero" d="M16.0156832,12.8482489 L32.0311289,22 L16.0156832,31.1517511 L0,22 L16.0156832,12.8482489 Z M16.0156759,15.1517511 L4.03115142,22 L16.0156759,28.8482489 L28.0000225,22 L16.0156759,15.1517511 Z"/>
    <path fill="#00A8E4" d="M16.0155757,15.5 C11.6822424,12.1666667 9.51557571,9.16666667 9.51557571,6.5 C9.51557571,2.5 12.4257248,0 16.0155757,0 C19.6054266,0 22.5155757,2.5 22.5155757,6.5 C22.5155757,9.16666667 20.348909,12.1666667 16.0155757,15.5 Z M16.0155757,9.5 C17.67243,9.5 19.0155757,8.15685425 19.0155757,6.5 C19.0155757,4.84314575 17.67243,3.5 16.0155757,3.5 C14.3587215,3.5 13.0155757,4.84314575 13.0155757,6.5 C13.0155757,8.15685425 14.3587215,9.5 16.0155757,9.5 Z"/>
    <path fill="#007899" d="M19.0147541,6.57091094 L22.1769899,8.37791623 C21.4137155,10.5534004 19.3599067,12.9274283 16.0155635,15.5 C12.6712559,12.9274557 10.6174553,10.553451 9.85416151,8.37798571 L13.0163995,6.57100597 C13.0541206,8.19505911 14.3824555,9.5 16.0155757,9.5 C17.6487278,9.5 18.9770827,8.19500821 19.0147541,6.57091094 Z"/>
  </g>
</svg>
