<svg xmlns="http://www.w3.org/2000/svg" width="32" height="32" viewBox="0 0 32 32">
  <g transform="translate(1)">
    <path d="M8.72727273 2.90909091L8.72727273.96969697C7.36969697.96969697 4.54787879.96969697 2.90909091 2.90909091 1.93939394 4.09212121 1.58060606 5.81818182 1.93939394 7.89333333 2.50181818 11.2 2.90909091 14.2254545 2.24 15.049697 1.93939394 15.36 1.27030303 15.5151515 0 15.5151515L0 17.4545455C1.27030303 17.4545455 1.93939394 17.609697 2.24969697 17.9490909 2.94787879 18.7733333 2.51151515 21.8278788 1.94909091 25.1054545 1.6 27.2290909 1.93939394 28.9066667 2.90909091 30.0606061 4.52848485 32 7.35030303 32 8.72727273 32L8.72727273 30.0606061C7.5830303 30.0606061 5.44 30.0606061 4.41212121 28.8387879 3.7417625 27.8345203 3.54673571 26.5863488 3.87878788 25.4254545 4.72242424 20.3830303 4.84848485 18.0557576 3.7430303 16.6981818 3.67515152 16.6206061 3.59757576 16.5624242 3.52969697 16.4945455 3.46181818 16.4266667 3.67515152 16.3684848 3.7430303 16.2909091 4.88727273 14.9236364 4.71272727 12.5963636 3.87878788 7.56363636 3.5495613 6.40133297 3.74815095 5.15305514 4.42181818 4.15030303 5.44 2.90909091 7.5830303 2.90909091 8.72727273 2.90909091zM31.030303 17.4545455L31.030303 15.5151515C29.76 15.5151515 29.0909091 15.36 28.7806061 15.0206061 28.0824242 14.1963636 28.5187879 11.1418182 29.0812121 7.86424242 29.430303 5.74060606 29.0812121 4.0630303 28.1115152 2.88 26.4921212.940606061 23.670303.940606061 22.2933333.940606061L22.2933333 2.90909091C23.4375758 2.90909091 25.5806061 2.90909091 26.6084848 4.13090909 27.2821521 5.1336612 27.4807417 6.38193903 27.1515152 7.54424242 26.3078788 12.5866667 26.1818182 14.9139394 27.2872727 16.2715152 27.3551515 16.3490909 27.4327273 16.4072727 27.5006061 16.4751515 27.5684848 16.5430303 27.3551515 16.6012121 27.2872727 16.6787879 26.1430303 18.0460606 26.3175758 20.3733333 27.1515152 25.4060606 27.4807417 26.568364 27.2821521 27.8166418 26.6084848 28.8193939 25.590303 30.0606061 23.4472727 30.0606061 22.3030303 30.0606061L22.3030303 32C23.6606061 32 26.4824242 32 28.1212121 30.0606061 29.0909091 28.8775758 29.449697 27.1515152 29.0909091 25.0763636 28.5284848 21.769697 28.1212121 18.7442424 28.790303 17.92 29.0909091 17.609697 29.76 17.4545455 31.030303 17.4545455z"/>
    <path class="euiIcon__fillSecondary" d="M25.2121212,15.5151515 L23.2048485,15.5151515 C22.7596747,12.0046639 19.9953361,9.24032528 16.4848485,8.79515152 L16.4848485,6.78787879 L14.5454545,6.78787879 L14.5454545,8.79515152 C11.034967,9.24032528 8.27062831,12.0046639 7.82545455,15.5151515 L5.81818182,15.5151515 L5.81818182,17.4545455 L7.82545455,17.4545455 C8.27062831,20.965033 11.034967,23.7293717 14.5454545,24.1745455 L14.5454545,26.1818182 L16.4848485,26.1818182 L16.4848485,24.1745455 C19.9953361,23.7293717 22.7596747,20.965033 23.2048485,17.4545455 L25.2121212,17.4545455 L25.2121212,15.5151515 Z M16.4848485,22.2157576 L16.4848485,20.3636364 L14.5454545,20.3636364 L14.5454545,22.2157576 C12.1079537,21.8015411 10.1984589,19.8920463 9.78424242,17.4545455 L11.6363636,17.4545455 L11.6363636,15.5151515 L9.78424242,15.5151515 C10.1984589,13.0776507 12.1079537,11.1681558 14.5454545,10.7539394 L14.5454545,12.6060606 L16.4848485,12.6060606 L16.4848485,10.7539394 C18.9223493,11.1681558 20.8318442,13.0776507 21.2460606,15.5151515 L19.3939394,15.5151515 L19.3939394,17.4545455 L21.2460606,17.4545455 C20.8318442,19.8920463 18.9223493,21.8015411 16.4848485,22.2157576 Z"/>
  </g>
</svg>
