<svg xmlns="http://www.w3.org/2000/svg" width="32" height="32" viewBox="0 0 32 32">
  <g>
    <path class="euiIcon__fillSecondary" d="M16,21 C13.2385763,21 11,18.7614237 11,16 C11,13.2385763 13.2385763,11 16,11 C18.7614237,11 21,13.2385763 21,16 C21,17.3260824 20.4732158,18.597852 19.5355339,19.5355339 C18.597852,20.4732158 17.3260824,21 16,21 Z M16,13 C14.3431458,13 13,14.3431458 13,16 C13,17.6568542 14.3431458,19 16,19 C17.6568542,19 19,17.6568542 19,16 C19,14.3431458 17.6568542,13 16,13 Z"/>
    <path d="M20,32 L12,32 L12,27.94 C11.9576793,27.5809584 11.7248621,27.2727161 11.3910834,27.1338144 C11.0573047,26.9949127 10.6745439,27.0469828 10.39,27.27 L7.51,30.14 L1.86,24.49 L4.73,21.62 C4.99221704,21.3574936 5.07108249,20.9631663 4.93,20.62 C4.79416578,20.2620444 4.45284185,20.0239114 4.07,20.02 L0,20.02 L0,12 L4.06,12 C4.43507438,11.9980131 4.77138887,11.7685279 4.91,11.42 C5.04823721,11.0782482 4.97394513,10.6872372 4.72,10.42 L1.86,7.51 L7.51,1.86 L10.38,4.73 C10.6645704,4.95846471 11.0509987,5.01377094 11.3882287,4.87429927 C11.7254587,4.73482761 11.959935,4.42272747 12,4.06 L12,0 L20,0 L20,4.06 C20.0423207,4.41904159 20.2751379,4.72728386 20.6089166,4.86618556 C20.9426953,5.00508726 21.3254561,4.95301718 21.61,4.73 L24.48,1.86 L30.14,7.52 L27.27,10.39 C27.007783,10.6525064 26.9289175,11.0468337 27.07,11.39 C27.2058342,11.7479556 27.5471582,11.9860886 27.93,11.99 L32,11.99 L32,19.99 L27.94,19.99 C27.5649256,19.9919869 27.2286111,20.2214721 27.09,20.57 C26.9517628,20.9117518 27.0260549,21.3027628 27.28,21.57 L30.15,24.44 L24.49,30.1 L21.62,27.23 C21.3354561,27.0069828 20.9526953,26.9549127 20.6189166,27.0938144 C20.2851379,27.2327161 20.0523207,27.5409584 20.01,27.9 L20,32 Z M14,30 L18,30 L18,27.94 C18.0588168,26.7851181 18.7761654,25.7668573 19.8438444,25.3227029 C20.9115234,24.8785484 22.1394273,25.0875841 23,25.86 L24.46,27.32 L27.29,24.49 L25.86,23 C25.0875841,22.1394273 24.8785484,20.9115234 25.3227029,19.8438444 C25.7668573,18.7761654 26.7851181,18.0588168 27.94,18 L30,18 L30,14 L27.94,14 C26.7851181,13.9411832 25.7668573,13.2238346 25.3227029,12.1561556 C24.8785484,11.0884766 25.0875841,9.8605727 25.86,9 L27.32,7.54 L24.49,4.69 L23,6.14 C22.1394273,6.9124159 20.9115234,7.12145161 19.8438444,6.67729714 C18.7761654,6.23314266 18.0588168,5.21488194 18,4.06 L18,2 L14,2 L14,4.06 C13.9411832,5.21488194 13.2238346,6.23314266 12.1561556,6.67729714 C11.0884766,7.12145161 9.8605727,6.9124159 9,6.14 L7.51,4.69 L4.69,7.51 L6.14,9 C6.9124159,9.8605727 7.12145161,11.0884766 6.67729714,12.1561556 C6.23314266,13.2238346 5.21488194,13.9411832 4.06,14 L2,14 L2,18 L4.06,18 C5.21488194,18.0588168 6.23314266,18.7761654 6.67729714,19.8438444 C7.12145161,20.9115234 6.9124159,22.1394273 6.14,23 L4.69,24.49 L7.52,27.32 L9,25.86 C9.8605727,25.0875841 11.0884766,24.8785484 12.1561556,25.3227029 C13.2238346,25.7668573 13.9411832,26.7851181 14,27.94 L14,30 Z"/>
  </g>
</svg>
