<svg xmlns="http://www.w3.org/2000/svg" width="32" height="32" viewBox="0 0 32 32">
  <g>
    <path d="M16,26.68 L8.18,16.1 C5.20939368,12.0832601 5.76748775,6.4687302 9.470694,3.11537894 C13.1739003,-0.237972319 18.8160997,-0.237972319 22.519306,3.11537894 C26.2225122,6.4687302 26.7806063,12.0832601 23.81,16.1 L16,26.68 Z M16,2.61 C13.0850235,2.60426285 10.416038,4.24299345 9.10227353,6.84513566 C7.78850905,9.44727787 8.05461585,12.5678721 9.79,14.91 L16,23.32 L22.21,14.92 C23.9513112,12.5778057 24.2208263,9.45314037 22.9062975,6.8473674 C21.5917686,4.24159443 18.9185554,2.60144114 16,2.61 Z"/>
    <path class="euiIcon__fillSecondary" d="M16,14 C13.790861,14 12,12.209139 12,10 C12,7.790861 13.790861,6 16,6 C18.209139,6 20,7.790861 20,10 C20,11.060866 19.5785726,12.0782816 18.8284271,12.8284271 C18.0782816,13.5785726 17.060866,14 16,14 Z M16,8 C14.8954305,8 14,8.8954305 14,10 C14,11.1045695 14.8954305,12 16,12 C17.1045695,12 18,11.1045695 18,10 C18,8.8954305 17.1045695,8 16,8 Z"/>
    <polygon class="euiIcon__fillSecondary" points="31.54 32 .46 32 5.35 21 10 21 10 23 6.65 23 3.54 30 28.46 30 25.35 23 22 23 22 21 26.65 21"/>
  </g>
</svg>
