<svg xmlns="http://www.w3.org/2000/svg" width="32" height="32" viewBox="0 0 32 32">
	<path class="euiIcon__fillSecondary" d="M23.793,14.293 L25.207,15.707 L18.799,22.116 L15.049,18.866 L10.707,23.207 L9.293,21.793 L14.951,16.134 L18.701,19.384 L23.793,14.293 Z M12,11 L12,16 L10,18 L10,11 L12,11 Z M22,5 L22,13 L20,15 L20,5 L22,5 Z M17,8 L17,15 L15,13 L15,8 L17,8 Z" />
	<path d="M17,2.13162821e-14 C25.2842712,2.13162821e-14 32,6.71572875 32,15 C32,23.2842712 25.2842712,30 17,30 C13.2176404,30 9.76225481,28.6000576 7.12372975,26.2900592 L1.707,31.707 L0.293,30.293 L5.70994074,24.8762702 C3.39994239,22.2377452 2,18.7823596 2,15 C2,13.9505428 2.10777399,12.9262576 2.31285788,11.9376085 L4.21918475,12.6102143 C4.07524743,13.3848628 4,14.1836439 4,15 C4,22.1797017 9.82029825,28 17,28 C24.1797017,28 30,22.1797017 30,15 C30,7.82029825 24.1797017,2 17,2 C15.9978333,2 15.0221525,2.11339982 14.0850895,2.32806774 L13.3344491,0.451093143 C14.5075518,0.156465907 15.7355036,2.13162821e-14 17,2.13162821e-14 Z M9.62130067,1.93731734 L10.3719445,3.81422442 C8.34447053,5.0181819 6.67231078,6.75768915 5.55044054,8.83777093 L3.64412746,8.16510714 C4.98480356,5.55058215 7.0706399,3.38120695 9.62130067,1.93731734 Z" />
</svg>
