<svg xmlns="http://www.w3.org/2000/svg" width="32" height="32" viewBox="0 0 32 32">
  <g>
    <rect width="3.875" height="1.939" x="12.594" y="18.424" class="euiIcon__fillSecondary"/>
    <rect width="3.875" height="1.939" x="12.594" y="26.182" class="euiIcon__fillSecondary"/>
    <path d="M8.71875,14.5454545 L8.71875,32 L31,32 L31,14.5454545 L8.71875,14.5454545 Z M29.0625,16.4848485 L29.0625,22.3030303 L10.65625,22.3030303 L10.65625,16.4848485 L29.0625,16.4848485 Z M10.65625,30.0606061 L10.65625,24.2424242 L29.0625,24.2424242 L29.0625,30.0606061 L10.65625,30.0606061 Z"/>
    <path d="M27.648125,12.6060606 C26.6881992,10.831809 25.1293137,9.45699896 23.25,8.72727273 C22.6594704,4.25713742 18.8518325,0.916593069 14.3471875,0.916593069 C9.84254252,0.916593069 6.03490461,4.25713742 5.444375,8.72727273 C1.95598436,10.1184324 -0.216184998,13.626289 0.0910486678,17.3724096 C0.398282334,21.1185302 3.11290301,24.2248186 6.78125,25.0278788 L6.78125,23.030303 C3.94705522,22.2455965 1.97211101,19.6803454 1.93619777,16.7370744 C1.90028453,13.7938035 3.8120475,11.1810348 6.62625,10.3272727 L7.265625,10.1333333 L7.265625,9.46424242 C7.53893162,5.78368016 10.6019512,2.93710327 14.2890625,2.93710327 C17.9761738,2.93710327 21.0391934,5.78368016 21.3125,9.46424242 L21.3125,10.1333333 L21.951875,10.3272727 C23.2982439,10.7062935 24.4891587,11.5044091 25.3521875,12.6060606 L27.648125,12.6060606 Z"/>
  </g>
</svg>
