<svg xmlns="http://www.w3.org/2000/svg" width="32" height="32" viewBox="0 0 32 32">
  <g transform="translate(0 1)">
    <path class="euiIcon__fillSecondary" d="M16,20 C13.2385763,20 11,17.7614237 11,15 C11,12.2385763 13.2385763,10 16,10 C18.7614237,10 21,12.2385763 21,15 C21,16.3260824 20.4732158,17.597852 19.5355339,18.5355339 C18.597852,19.4732158 17.3260824,20 16,20 Z M16,12 C14.3431458,12 13,13.3431458 13,15 C13,16.6568542 14.3431458,18 16,18 C17.6568542,18 19,16.6568542 19,15 C19,13.3431458 17.6568542,12 16,12 Z"/>
    <path d="M27.42 18.69C25.7582979 23.8232347 20.8749638 27.2162778 15.4845142 26.9830259 10.0940647 26.7497741 5.5220776 22.9475869 4.31 17.69L6.58 17.24 2.26 12.77 0 18.55 2.39 18.08C3.76221639 24.2529926 9.10217598 28.7397603 15.4192954 29.0275402 21.7364148 29.3153201 27.4622039 25.3326587 29.39 19.31L27.42 18.69zM29.65 11.92C28.2777836 5.74700744 22.937824 1.2602397 16.6207046.972459818 10.3035852.684679934 4.57779605 4.66734134 2.65 10.69L4.55 11.31C6.21170208 6.17676527 11.0950362 2.78372224 16.4854858 3.01697406 21.8759353 3.25022588 26.4479224 7.05241305 27.66 12.31L25.39 12.76 29.71 17.22 32 11.45 29.65 11.92z"/>
  </g>
</svg>
