<svg xmlns="http://www.w3.org/2000/svg" width="32" height="32" viewBox="0 0 32 32">
  <g>
    <path class="euiIcon__fillSecondary" d="M32,32 L4,32 C1.790861,32 2.705415e-16,30.209139 0,28 L0,0 L2,0 L2,28 C2,29.1045695 2.8954305,30 4,30 L32,30 L32,32 Z"/>
    <rect width="2" height="7" x="6" y="20"/>
    <rect width="2" height="15" x="16" y="12"/>
    <rect width="2" height="10" x="26" y="17"/>
    <path d="M27,6 C26.2241304,6.00049729 25.478626,6.30156637 24.92,6.84 L20,4.36 C20.0098347,4.2402015 20.0098347,4.1197985 20,4 C20,2.34314575 18.6568542,1 17,1 C15.3431458,1 14,2.34314575 14,4 C14.0013041,4.34127243 14.0622198,4.67969327 14.18,5 L8.58,9.46 C8.1065049,9.16239325 7.55924771,9.0030652 7,9 C5.34314575,9 4,10.3431458 4,12 C4,13.6568542 5.34314575,15 7,15 C8.65685425,15 10,13.6568542 10,12 C9.99869592,11.6587276 9.93778017,11.3203067 9.82,11 L15.42,6.52 C15.8913953,6.8246513 16.4388012,6.99095182 17,7 C17.7758696,6.99950271 18.521374,6.69843363 19.08,6.16 L24.08,8.64 C24.0433049,8.75754953 24.0165443,8.87797251 24,9 C24,10.6568542 25.3431458,12 27,12 C28.6568542,12 30,10.6568542 30,9 C30,7.34314575 28.6568542,6 27,6 Z M7,13 C6.44771525,13 6,12.5522847 6,12 C6,11.4477153 6.44771525,11 7,11 C7.55228475,11 8,11.4477153 8,12 C8,12.5522847 7.55228475,13 7,13 Z M17,5 C16.4477153,5 16,4.55228475 16,4 C16,3.44771525 16.4477153,3 17,3 C17.5522847,3 18,3.44771525 18,4 C18,4.26521649 17.8946432,4.5195704 17.7071068,4.70710678 C17.5195704,4.89464316 17.2652165,5 17,5 Z M27,10 C26.4477153,10 26,9.55228475 26,9 C26,8.44771525 26.4477153,8 27,8 C27.5522847,8 28,8.44771525 28,9 C28,9.55228475 27.5522847,10 27,10 Z"/>
  </g>
</svg>
