<svg xmlns="http://www.w3.org/2000/svg" width="32" height="32" viewBox="0 0 32 32">
  <g fill="none" transform="translate(0 2)">
    <path fill="#00BFB3" d="M7,4 L25,4 L25,23 L7,23 L7,4 Z M9,7 L9,9 L12,9 L12,7 L9,7 Z M9,12 L9,14 L12,14 L12,12 L9,12 Z M9,17 L9,19 L12,19 L12,17 L9,17 Z M14,7 L14,9 L22,9 L22,7 L14,7 Z M14,12 L14,14 L22,14 L22,12 L14,12 Z M14,17 L14,19 L22,19 L22,17 L14,17 Z"/>
    <rect width="17.5" height="5" x="10.5" fill="#00BFB3"/>
    <path fill="#0078A0" d="M28.5,0 C26.5670034,0 25,1.56700338 25,3.5 L25,5 L28.5,5"/>
    <path fill="#00BFB3" d="M10.5,0 C8.56700338,0 7,1.56700338 7,3.5 L7,5 L10.5,5"/>
    <path fill="#00A9E5" d="M32,0 C30.0670034,0 28.5,1.56700338 28.5,3.5 L28.5,5 L32,5" transform="matrix(-1 0 0 1 60.5 0)"/>
    <rect width="18" height="5" x="4" y="23" fill="#0078A0"/>
    <path fill="#00A9E5" d="M7,26.5 C7,24.5670034 5.43299662,23 3.5,23 C1.56700338,23 0,24.5670034 0,26.5 L0,28 L7,28 L7,26.5 Z" transform="matrix(1 0 0 -1 0 51)"/>
    <path fill="#00BFB3" d="M25,26.5 C25,24.5670034 23.4329966,23 21.5,23 C19.5670034,23 18,24.5670034 18,26.5 L18,28 L25,28 L25,26.5 Z" transform="matrix(1 0 0 -1 0 51)"/>
  </g>
</svg>
