<svg xmlns="http://www.w3.org/2000/svg" width="32" height="32" viewBox="0 0 32 32">
  <g transform="translate(1)">
    <path class="euiIcon__fillSecondary" d="M9 18L9 18.56C9.00110976 18.9899159 8.72731172 19.3724279 8.32 19.51L2 21.61 2 10C2 9.6852427 2.14819416 9.38885438 2.4 9.2L5.6 6.8 4.4 5.2 1.2 7.6C.444582472 8.16656315 4.4408921e-16 9.05572809 0 10L0 22C8.8817842e-16 22.9442719.444582472 23.8334369 1.2 24.4L4.4 26.8 5.6 25.2 3.13 23.35 8.95 21.4C10.1723964 20.9919085 10.9975891 19.8487148 11 18.56L11 18 9 18zM28.8 7.6L25.6 5.2 24.4 6.8 27.6 9.2C27.8518058 9.38885438 28 9.6852427 28 10L28 21.61 21.68 19.5C21.2726883 19.3624279 20.9988902 18.9799159 21 18.55L21 18 19 18 19 18.56C18.9981095 19.8523955 19.8241134 21.0007424 21.05 21.41L26.87 23.35 24.4 25.2 25.6 26.8 28.8 24.4C29.5554175 23.8334369 30 22.9442719 30 22L30 10C30 9.05572809 29.5554175 8.16656315 28.8 7.6z"/>
    <path d="M10 6C8.78743338 5.99893346 7.69473697 5.26801979 7.2308521 4.14769405 6.76696722 3.02736832 7.02311879 1.73794728 7.88.88 9.06638483-.25270277 10.9336152-.25270277 12.12.88 13.2898135 2.05127019 13.2898135 3.94872981 12.12 5.12 11.5579306 5.68276995 10.7953814 5.99929979 10 6zM10 2C9.59373493 1.99763738 9.22641996 2.24130378 9.07062905 2.61651849 8.91483814 2.99173321 9.00154005 3.42390954 9.29 3.71 9.68003745 4.09772359 10.3099625 4.09772359 10.7 3.71 10.9871614 3.42519089 11.0744903 2.99544804 10.9212679 2.62114764 10.7680455 2.24684724 10.4044441 2.00169577 10 2zM10 32C8.78743338 31.9989335 7.69473697 31.2680198 7.2308521 30.1476941 6.76696722 29.0273683 7.02311879 27.7379473 7.88 26.88 9.06638483 25.7472972 10.9336152 25.7472972 12.12 26.88 13.2898135 28.0512702 13.2898135 29.9487298 12.12 31.12 11.5579306 31.6827699 10.7953814 31.9992998 10 32zM10 28C9.59373493 27.9976374 9.22641996 28.2413038 9.07062905 28.6165185 8.91483814 28.9917332 9.00154005 29.4239095 9.29 29.71 9.68003745 30.0977236 10.3099625 30.0977236 10.7 29.71 10.9871614 29.4251909 11.0744903 28.995448 10.9212679 28.6211476 10.7680455 28.2468472 10.4044441 28.0016958 10 28zM10 16C8.78743338 15.9989335 7.69473697 15.2680198 7.2308521 14.1476941 6.76696722 13.0273683 7.02311879 11.7379473 7.88 10.88 9.06638483 9.74729723 10.9336152 9.74729723 12.12 10.88 13.2898135 12.0512702 13.2898135 13.9487298 12.12 15.12 11.5579306 15.6827699 10.7953814 15.9992998 10 16zM10 12C9.59373493 11.9976374 9.22641996 12.2413038 9.07062905 12.6165185 8.91483814 12.9917332 9.00154005 13.4239095 9.29 13.71 9.68003745 14.0977236 10.3099625 14.0977236 10.7 13.71 10.9871614 13.4251909 11.0744903 12.995448 10.9212679 12.6211476 10.7680455 12.2468472 10.4044441 12.0016958 10 12zM20 6C19.2046186 5.99929979 18.4420694 5.68276995 17.88 5.12 16.7101865 3.94872981 16.7101865 2.05127019 17.88.88 19.0663848-.25270277 20.9336152-.25270277 22.12.88 22.9768812 1.73794728 23.2330328 3.02736832 22.7691479 4.14769405 22.305263 5.26801979 21.2125666 5.99893346 20 6zM20 2C19.5937349 1.99763738 19.22642 2.24130378 19.070629 2.61651849 18.9148381 2.99173321 19.0015401 3.42390954 19.29 3.71 19.6800375 4.09772359 20.3099625 4.09772359 20.7 3.71 20.9871614 3.42519089 21.0744903 2.99544804 20.9212679 2.62114764 20.7680455 2.24684724 20.4044441 2.00169577 20 2zM20 32C19.2046186 31.9992998 18.4420694 31.6827699 17.88 31.12 16.7101865 29.9487298 16.7101865 28.0512702 17.88 26.88 19.0663848 25.7472972 20.9336152 25.7472972 22.12 26.88 22.9768812 27.7379473 23.2330328 29.0273683 22.7691479 30.1476941 22.305263 31.2680198 21.2125666 31.9989335 20 32zM20 28C19.5937349 27.9976374 19.22642 28.2413038 19.070629 28.6165185 18.9148381 28.9917332 19.0015401 29.4239095 19.29 29.71 19.6800375 30.0977236 20.3099625 30.0977236 20.7 29.71 20.9871614 29.4251909 21.0744903 28.995448 20.9212679 28.6211476 20.7680455 28.2468472 20.4044441 28.0016958 20 28zM20 16C19.2046186 15.9992998 18.4420694 15.6827699 17.88 15.12 16.7101865 13.9487298 16.7101865 12.0512702 17.88 10.88 19.0663848 9.74729723 20.9336152 9.74729723 22.12 10.88 22.9768812 11.7379473 23.2330328 13.0273683 22.7691479 14.1476941 22.305263 15.2680198 21.2125666 15.9989335 20 16zM20 12C19.5937349 11.9976374 19.22642 12.2413038 19.070629 12.6165185 18.9148381 12.9917332 19.0015401 13.4239095 19.29 13.71 19.6800375 14.0977236 20.3099625 14.0977236 20.7 13.71 20.9871614 13.4251909 21.0744903 12.995448 20.9212679 12.6211476 20.7680455 12.2468472 20.4044441 12.0016958 20 12z"/>
  </g>
</svg>
