<svg xmlns="http://www.w3.org/2000/svg" width="32" height="32" viewBox="0 0 32 32">
  <g>
    <path d="M32,26 L32,24 L29.9,24 C29.7705156,23.3754443 29.5227274,22.7814315 29.17,22.25 L30.66,20.76 L29.25,19.35 L27.76,20.84 C27.2263111,20.4825746 26.6287524,20.2313283 26,20.1 L26,18 L24,18 L24,20.1 C23.3754443,20.2294844 22.7814315,20.4772726 22.25,20.83 L20.76,19.34 L19.35,20.75 L20.84,22.24 C20.4825746,22.7736889 20.2313283,23.3712476 20.1,24 L18,24 L18,26 L20.1,26 C20.2294844,26.6245557 20.4772726,27.2185685 20.83,27.75 L19.34,29.24 L20.75,30.65 L22.24,29.16 C22.7736889,29.5174254 23.3712476,29.7686717 24,29.9 L24,32 L26,32 L26,29.9 C26.6245557,29.7705156 27.2185685,29.5227274 27.75,29.17 L29.24,30.66 L30.65,29.25 L29.16,27.76 C29.5174254,27.2263111 29.7686717,26.6287524 29.9,26 L32,26 Z M25,28 C23.3431458,28 22,26.6568542 22,25 C22,23.3431458 23.3431458,22 25,22 C26.6568542,22 28,23.3431458 28,25 C28,26.6568542 26.6568542,28 25,28 Z"/>
    <path d="M25.71,24.29 C25.4224393,24.0062554 24.9923971,23.9234033 24.62,24.08 C24.4988151,24.1306419 24.3872009,24.2016691 24.29,24.29 C24.1973973,24.3838689 24.1258142,24.4963566 24.08,24.62 C23.9313127,24.9914617 24.0183577,25.4157948 24.3012814,25.6987186 C24.5842052,25.9816423 25.0085383,26.0686873 25.38,25.92 C25.5011849,25.8693581 25.6127991,25.7983309 25.71,25.71 C25.8971865,25.5212812 26.0015368,25.265803 26,25 C26.0033801,24.8688235 25.9759814,24.7386794 25.92,24.62 C25.8739142,24.4964916 25.8023653,24.3840578 25.71,24.29 Z"/>
    <rect width="16" height="2" x="5" y="6" class="euiIcon__fillSecondary"/>
    <rect width="16" height="2" x="5" y="12" class="euiIcon__fillSecondary"/>
    <rect width="10" height="2" x="5" y="18" class="euiIcon__fillSecondary"/>
    <rect width="8" height="2" x="5" y="24" class="euiIcon__fillSecondary"/>
    <path d="M16,32 L3,32 C1.34314575,32 2.02906125e-16,30.6568542 0,29 L0,3 C-2.02906125e-16,1.34314575 1.34314575,3.04359188e-16 3,0 L23,0 C24.6568542,1.01453063e-16 26,1.34314575 26,3 L26,16 L24,16 L24,3 C24,2.44771525 23.5522847,2 23,2 L3,2 C2.44771525,2 2,2.44771525 2,3 L2,29 C2,29.5522847 2.44771525,30 3,30 L16,30 L16,32 Z"/>
  </g>
</svg>
