<svg xmlns="http://www.w3.org/2000/svg" width="32" height="32" viewBox="0 0 32 32">
  <g transform="translate(0 2)">
    <path class="euiIcon__fillSecondary" d="M15,22.24 L3.86,0 L15,4.91 L26.14,0 L15,22.24 Z M8.14,4 L15,17.76 L21.86,4 L15,7.09 L8.14,4 Z"/>
    <path d="M30,23.06 L30,23 C29.9759957,22.8743327 29.942568,22.7506501 29.9,22.63 C29.41,21.36 27.9,20.28 25.49,19.48 L25.43,19.48 L24.74,19.27 L24.56,19.22 L23.88,19 L23.57,18.92 L23,18.8 L22.56,18.7 L22.08,18.61 L21.57,18.52 L20.57,18.37 L20.3,20.37 C20.94,20.46 21.54,20.56 22.1,20.67 C25.88,21.42 27.73,22.62 27.96,23.37 C27.9675226,23.4230681 27.9675226,23.4769319 27.96,23.53 C27.96,24.92 22.78,27.03 14.96,27.03 C7.14,27.03 2,24.89 2,23.5 C2,22.68 4.22,21.18 9.14,20.42 L8.84,18.42 L8.3,18.51 C5.43,19 0,20.37 0,23.5 C0,27.11 7.55,29 15,29 C22.45,29 30,27.11 30,23.5 C30.0129318,23.3536184 30.0129318,23.2063816 30,23.06 Z"/>
  </g>
</svg>
