<svg xmlns="http://www.w3.org/2000/svg" width="32" height="32" viewBox="0 0 32 32">
  <g>
    <rect width="2" height="7" x="7" y="17" class="euiIcon__fillSecondary"/>
    <rect width="2" height="10" x="12" y="14" class="euiIcon__fillSecondary"/>
    <rect width="2" height="8" x="17" y="16" class="euiIcon__fillSecondary"/>
    <rect width="3" height="2" x="22" y="14" class="euiIcon__fillSecondary"/>
    <rect width="3" height="2" x="22" y="18" class="euiIcon__fillSecondary"/>
    <rect width="3" height="2" x="22" y="22" class="euiIcon__fillSecondary"/>
    <path d="M30.73,24 C30.7517795,23.2494178 30.9040525,22.5083559 31.18,21.81 C31.5165712,20.9103176 31.6991272,19.9603504 31.72,19 C31.6991272,18.0396496 31.5165712,17.0896824 31.18,16.19 C30.9040525,15.4916441 30.7517795,14.7505822 30.73,14 C30.8193334,13.1451125 31.0280296,12.3069619 31.35,11.51 C31.88,9.94 32.43,8.32 31.43,7.31 C30.43,6.3 29.02,6.87 27.91,7.36 C27.2622361,7.70878674 26.551994,7.92627713 25.82,8 C25.6234859,8.01095503 25.4265141,8.01095503 25.23,8 L16,0.28 L6.77,8 C6.57348589,8.01095503 6.37651411,8.01095503 6.18,8 C5.44730778,7.92317129 4.73702835,7.70227099 4.09,7.35 C3,6.87 1.6,6.25 0.57,7.31 C-0.46,8.37 0.12,9.94 0.65,11.51 C0.971970445,12.3069619 1.18066658,13.1451125 1.27,14 C1.24822049,14.7505822 1.0959475,15.4916441 0.82,16.19 C0.483428753,17.0896824 0.300872773,18.0396496 0.28,19 C0.300872773,19.9603504 0.483428753,20.9103176 0.82,21.81 C1.0959475,22.5083559 1.24822049,23.2494178 1.27,24 C1.18066658,24.8548875 0.971970445,25.6930381 0.65,26.49 C0.12,28.06 -0.43,29.68 0.57,30.69 C0.923188012,31.0696737 1.42155986,31.2806632 1.94,31.27 C2.69143532,31.2050887 3.42236843,30.9909083 4.09,30.64 C4.73776393,30.2912133 5.44800598,30.0737229 6.18,30 C6.96399286,30.0296092 7.73772374,30.1884099 8.47,30.47 C9.30742878,30.792354 10.1931232,30.9715212 11.09,31 C11.9365213,30.9731866 12.7720869,30.8006609 13.56,30.49 C14.3383766,30.1850856 15.164253,30.0192334 16,30 C16.7342607,30.0228627 17.4587164,30.1752015 18.14,30.45 C19.0234125,30.7961449 19.961357,30.9823794 20.91,31 C21.8584612,30.9806984 22.7961133,30.794522 23.68,30.45 C24.3612836,30.1752015 25.0857393,30.0228627 25.82,30 C26.5526922,30.0768287 27.2629716,30.297729 27.91,30.65 C29.02,31.14 30.4,31.76 31.43,30.7 C32.46,29.64 31.88,28.07 31.35,26.5 C31.0271241,25.6998631 30.8184124,24.8582838 30.73,24 Z M21.17,7 L20.91,7 C19.961357,7.01762062 19.0234125,7.2038551 18.14,7.55 C17.4587164,7.8247985 16.7342607,7.97713731 16,8 C15.2657393,7.97713731 14.5412836,7.8247985 13.86,7.55 C12.9765875,7.2038551 12.038643,7.01762062 11.09,7 L10.83,7 L16,2.72 L21.17,7 Z M30.06,29.27 C29.5915049,29.1897156 29.139027,29.0343873 28.72,28.81 C27.8233836,28.3317123 26.8343128,28.052044 25.82,27.99 C24.8683029,28.009376 23.92738,28.1955298 23.04,28.54 C22.3625358,28.8158835 21.6411621,28.9682864 20.91,28.99 C20.1757393,28.9671373 19.4512836,28.8147985 18.77,28.54 C17.8859621,28.1972742 16.9480379,28.0144297 16,28 C14.9461198,28.0180997 13.9036112,28.2211858 12.92,28.6 C12.3360182,28.8326398 11.7177877,28.9677721 11.09,29 C10.4044981,28.9655252 9.72909648,28.8203139 9.09,28.57 C8.15965618,28.2152561 7.17542855,28.0224692 6.18,28 C5.16568717,28.062044 4.17661635,28.3417123 3.28,28.82 C2.86630537,29.0236929 2.43854268,29.1974715 2,29.34 C2.0330353,28.5772181 2.20944362,27.8274828 2.52,27.13 C2.92282199,26.1304075 3.16905021,25.0746618 3.25,24 C3.22912723,23.0396496 3.04657125,22.0896824 2.71,21.19 C2.43747348,20.4910307 2.28858835,19.7499888 2.27,19 C2.28858835,18.2500112 2.43747348,17.5089693 2.71,16.81 C3.04657125,15.9103176 3.22912723,14.9603504 3.25,14 C3.17224734,12.9258699 2.92939616,11.8701418 2.53,10.87 C2.24418573,10.1773671 2.04598553,9.45175279 1.94,8.71 L2,8.71 C2.44706195,8.81045718 2.88024361,8.96492505 3.29,9.17 C4.18661635,9.64828767 5.17568717,9.92795597 6.19,9.99 C7.15180668,9.97414147 8.10318909,9.78792783 9,9.44 C9.66555145,9.17216202 10.3729533,9.02323532 11.09,9 C11.8211621,9.02171357 12.5425358,9.17411646 13.22,9.45 C14.10738,9.79447017 15.0483029,9.98062398 16,10 C16.9516971,9.98062398 17.89262,9.79447017 18.78,9.45 C19.4574642,9.17411646 20.1788379,9.02171357 20.91,9 C21.6270467,9.02323532 22.3344485,9.17216202 23,9.44 C23.88738,9.78447017 24.8283029,9.97062398 25.78,9.99 C26.7943128,9.92795597 27.7833836,9.64828767 28.68,9.17 C29.1069257,8.96792434 29.5481116,8.79746615 30,8.66 C29.9669647,9.42278188 29.7905564,10.1725172 29.48,10.87 C29.077178,11.8695925 28.8309498,12.9253382 28.75,14 C28.7708728,14.9603504 28.9534288,15.9103176 29.29,16.81 C29.5625265,17.5089693 29.7114116,18.2500112 29.73,19 C29.7114116,19.7499888 29.5625265,20.4910307 29.29,21.19 C28.9534288,22.0896824 28.7708728,23.0396496 28.75,24 C28.8277527,25.0741301 29.0706038,26.1298582 29.47,27.13 C29.7558143,27.8226329 29.9540145,28.5482472 30.06,29.29 L30.06,29.27 Z"/>
  </g>
</svg>
