<svg xmlns="http://www.w3.org/2000/svg" width="32" height="32" viewBox="0 0 32 32">
  <g fill="none" fill-rule="evenodd">
    <path class="euiIcon__fillNegative" fill="#535966" fill-rule="nonzero" d="M10,12 C15.4292399,12 19.8479317,16.3266708 19.9961582,21.7200952 L20,22 L20,23 L11,23 L11,32 L10,32 C4.4771525,32 0,27.5228475 0,22 C0,16.4771525 4.4771525,12 10,12 Z M9.00004872,21 L9.00004872,14.0618877 C5.05371356,14.5539641 2,17.9203656 2,22 C2,25.9928173 4.92512662,29.3024346 8.74934084,29.902813 L9.00004872,29.9381062 L9.00004872,14.0618877 L9.00004872,21 Z M11.0008913,14.0620049 L11,21 L17.9381062,21 C17.4976387,17.4677326 14.7543759,14.6506077 11.258042,14.0983496 L11.0008913,14.0620049 L11.0008913,14.0620049 Z"/>
    <path fill="#00BFB3" fill-rule="nonzero" d="M26,22 C26,13.163444 18.836556,6 10,6 L10,8 C17.7319865,8 24,14.2680135 24,22 L26,22 Z"/>
    <path fill="#00BFB3" fill-rule="nonzero" d="M32,22 C32,9.8497355 22.1502645,0 10,0 L10,2 C21.045695,2 30,10.954305 30,22 L32,22 Z"/>
  </g>
</svg>
