<svg xmlns="http://www.w3.org/2000/svg" width="32" height="32" viewBox="0 0 32 32">
  <g transform="translate(1)">
    <path d="M19,14 L11,14 C9.34314575,14 8,12.6568542 8,11 L8,3 C8,1.34314575 9.34314575,3.04359188e-16 11,0 L19,0 C20.6568542,1.01453063e-16 22,1.34314575 22,3 L22,11 C22,12.6568542 20.6568542,14 19,14 Z M11,2 C10.4477153,2 10,2.44771525 10,3 L10,11 C10,11.5522847 10.4477153,12 11,12 L19,12 C19.5522847,12 20,11.5522847 20,11 L20,3 C20,2.44771525 19.5522847,2 19,2 L11,2 Z"/>
    <polygon points="16 18 16 16 14 16 14 18 2 18 2 24 4 24 4 20 14 20 14 24 16 24 16 20 26 20 26 24 28 24 28 18"/>
    <path class="euiIcon__fillSecondary" d="M3 32C1.34314575 32-6.66133815e-16 30.6568542-8.8817842e-16 29-1.11022302e-15 27.3431458 1.34314575 26 3 26 4.65685425 26 6 27.3431458 6 29 6 30.6568542 4.65685425 32 3 32zM3 28C2.44771525 28 2 28.4477153 2 29 2 29.5522847 2.44771525 30 3 30 3.55228475 30 4 29.5522847 4 29 4 28.4477153 3.55228475 28 3 28zM15 32C13.3431458 32 12 30.6568542 12 29 12 27.3431458 13.3431458 26 15 26 16.6568542 26 18 27.3431458 18 29 18 30.6568542 16.6568542 32 15 32zM15 28C14.4477153 28 14 28.4477153 14 29 14 29.5522847 14.4477153 30 15 30 15.5522847 30 16 29.5522847 16 29 16 28.4477153 15.5522847 28 15 28zM27 32C25.3431458 32 24 30.6568542 24 29 24 27.3431458 25.3431458 26 27 26 28.6568542 26 30 27.3431458 30 29 30 30.6568542 28.6568542 32 27 32zM27 28C26.4477153 28 26 28.4477153 26 29 26 29.5522847 26.4477153 30 27 30 27.5522847 30 28 29.5522847 28 29 28 28.4477153 27.5522847 28 27 28z"/>
    <rect width="6" height="2" x="12" y="4" class="euiIcon__fillSecondary"/>
    <rect width="6" height="2" x="12" y="8" class="euiIcon__fillSecondary"/>
  </g>
</svg>
