<svg xmlns="http://www.w3.org/2000/svg" width="32" height="32" viewBox="0 0 32 32">
  <g transform="translate(4)">
    <path class="euiIcon__fillSecondary" d="M20 20C17.790861 20 16 18.209139 16 16 16 13.790861 17.790861 12 20 12 22.209139 12 24 13.790861 24 16 24 17.060866 23.5785726 18.0782816 22.8284271 18.8284271 22.0782816 19.5785726 21.060866 20 20 20zM20 14C18.8954305 14 18 14.8954305 18 16 18 17.1045695 18.8954305 18 20 18 21.1045695 18 22 17.1045695 22 16 22 14.8954305 21.1045695 14 20 14zM11.8 8.38C10.081367 8.39326662 8.54636579 7.3071836 7.98694604 5.68209135 7.4275263 4.05699909 7.96875042 2.25619883 9.33138585 1.20877343 10.6940213.161348033 12.5734409.101457089 14 1.06 15.3386247 1.95750397 16.0078682 3.57070222 15.6976801 5.15222456 15.3874921 6.73374689 14.1584695 7.9746333 12.58 8.3 12.3231994 8.35183152 12.0619755 8.37862372 11.8 8.38zM11.8 2.38C10.8087528 2.37725513 9.96505125 3.10099448 9.81691986 4.08111468 9.66878848 5.06123487 10.2609265 6.00198118 11.2087118 6.29229381 12.1564972 6.58260644 13.1739323 6.13488253 13.6001444 5.23994021 14.0263565 4.34499789 13.7327345 3.27288916 12.91 2.72 12.5845865 2.50129499 12.2020669 2.38306165 11.81 2.38L11.8 2.38zM11.81 31.62C9.82476399 31.6405344 8.12489457 30.2018394 7.81701736 28.2405145 7.50914015 26.2791896 8.68643797 24.3888539 10.5824826 23.8001277 12.4785272 23.2114015 14.5194574 24.1024701 15.3766149 25.8932422 16.2337723 27.6840143 15.6477278 29.8324908 14 30.94 13.3520093 31.3755426 12.5907202 31.6119246 11.81 31.62zM11.81 25.62C10.7484591 25.7239957 9.95532375 26.6427358 10.0073837 27.7080874 10.0594436 28.7734389 10.9383772 29.610471 12.005 29.610471 13.0716228 29.610471 13.9505564 28.7734389 14.0026163 27.7080874 14.0546762 26.6427358 13.2615409 25.7239957 12.2 25.62 12.0670017 25.6066332 11.9329983 25.6066332 11.8 25.62L11.81 25.62z"/>
    <path d="M14,17 L14,15 L7.86,15 C7.70556216,14.3935891 7.41100261,13.8318709 7,13.36 L9.31,9.92 L7.63,8.8 L5.32,12.24 C4.89665013,12.086254 4.45037406,12.0051129 4,12 C1.790861,12 0,13.790861 0,16 C-4.4408921e-16,18.209139 1.790861,20 4,20 C4.45037406,19.9948871 4.89665013,19.913746 5.32,19.76 L7.63,23.2 L9.29,22.08 L7,18.64 C7.41100261,18.1681291 7.70556216,17.6064109 7.86,17 L14,17 Z M2,16 C2,14.8954305 2.8954305,14 4,14 C5.1045695,14 6,14.8954305 6,16 C6,17.1045695 5.1045695,18 4,18 C2.8954305,18 2,17.1045695 2,16 Z"/>
  </g>
</svg>
