<svg xmlns="http://www.w3.org/2000/svg" width="32" height="32" viewBox="0 0 32 32">
  <g fill="none" fill-rule="evenodd" transform="translate(0 1)">
    <path stroke="#0078A0" stroke-width="2" d="M18,15 L26.4031034,15"/>
    <polyline stroke="#0078A0" stroke-width="2" points="25.846 26.972 21 26.972 21 3 25.846 3"/>
    <path fill="#00A9E5" fill-rule="nonzero" d="M28 24C26.3434146 24 25 25.3405256 25 26.9935484 25 28.6465712 26.3434146 29.9870968 28 29.9870968 29.6565854 29.9870968 31 28.6465712 31 26.9935484 31 25.3405256 29.6565854 24 28 24M28.0064655 12C26.3463099 12 25 13.3434146 25 15 25 16.6565854 26.3463099 18 28.0064655 18 29.6666211 18 31.012931 16.6565854 31.012931 15 31.012931 13.3434146 29.6666211 12 28.0064655 12M28 0C26.3434146 0 25 1.34052557 25 2.99354839 25 4.64754472 26.3434146 5.98709677 28 5.98709677 29.6565854 5.98709677 31 4.64754472 31 2.99354839 31 1.34052557 29.6565854 0 28 0"/>
    <path fill="#00BFB3" fill-rule="nonzero" d="M18.3153647,13.245 C18.4858353,13.2788824 18.6086588,13.4302941 18.6086588,13.6039412 L18.6086588,15.9386471 C18.6086588,16.1133529 18.4858353,16.2647647 18.3153647,16.2986471 L16.1034824,16.7475882 C15.9870118,17.1181765 15.8345412,17.4739412 15.6577176,17.8127647 L16.9251294,19.7207647 C17.0204235,19.8668824 17.0024235,20.0606471 16.8785412,20.1834706 L15.2278353,21.8341765 C15.1039529,21.9580588 14.9101882,21.9771176 14.7651294,21.8797059 L12.8603059,20.6144118 C12.5288941,20.787 12.1837176,20.9341765 11.8237176,21.0495882 L11.3641882,23.3154706 C11.3292471,23.4859412 11.1788941,23.6087647 11.0052471,23.6087647 L8.67054118,23.6087647 C8.49583529,23.6087647 8.34442353,23.4859412 8.31054118,23.3154706 L7.85524706,21.0739412 C7.49418824,20.9617059 7.14901176,20.8155882 6.81865882,20.6472353 L4.88842353,21.9252353 C4.74442353,22.0215882 4.55065882,22.0025294 4.42783529,21.8786471 L2.77607059,20.2279412 C2.65324706,20.1051176 2.63312941,19.9113529 2.72948235,19.7652353 L3.98101176,17.8762941 C3.79995294,17.5395882 3.6496,17.1827647 3.52889412,16.8121765 L1.29371765,16.3611176 C1.12324706,16.3272353 0.999364706,16.1779412 0.999364706,16.0021765 L0.999364706,13.6674706 C0.999364706,13.4927647 1.12324706,13.3434706 1.29371765,13.3085294 L3.48018824,12.8680588 C3.5956,12.4826471 3.74701176,12.1152353 3.92701176,11.7647647 L2.68395294,9.8895882 C2.5876,9.7434706 2.60771765,9.5518235 2.73054118,9.4279412 L4.38230588,7.77723529 C4.50618824,7.65335294 4.69889412,7.63429412 4.84395294,7.73064706 L6.67995294,8.94617647 C7.03783529,8.75347059 7.41477647,8.59358824 7.8076,8.46864706 L8.24701176,6.29488235 C8.28089412,6.12229412 8.43124706,5.99947059 8.60595294,5.99947059 L10.9406588,5.99947059 C11.1153647,5.99947059 11.2657176,6.12229412 11.3006588,6.29488235 L11.7347765,8.44852941 C12.1297176,8.56923529 12.5077176,8.727 12.8666588,8.91652941 L14.7196,7.68511765 C14.8657176,7.58876471 15.0594824,7.60888235 15.1833647,7.73170588 L16.8340706,9.3834706 C16.9568941,9.5062941 16.9759529,9.699 16.8796,9.8440588 L15.6492471,11.697 C15.8334824,12.0464118 15.9901882,12.4138235 16.1098353,12.7971176 L18.3153647,13.245 Z M10,19 C12.209139,19 14,17.209139 14,15 C14,12.790861 12.209139,11 10,11 C7.790861,11 6,12.790861 6,15 C6,17.209139 7.790861,19 10,19 Z"/>
  </g>
</svg>
