<svg xmlns="http://www.w3.org/2000/svg" width="32" height="32" viewBox="0 0 32 32">
	<path d="M10,12 C15.4292399,12 19.8479317,16.3266708 19.9961582,21.7200952 L20,22 L20,23 L11,23 L11,32 L10,32 C4.4771525,32 0,27.5228475 0,22 C0,16.4771525 4.4771525,12 10,12 Z M9.00004872,21 L9.00004872,14.0618877 C5.05371356,14.5539641 2,17.9203656 2,22 C2,25.9928173 4.92512662,29.3024346 8.74934084,29.902813 L9.00004872,29.9381062 L9.00004872,14.0618877 L9.00004872,21 Z M11.0008913,14.0620049 L11,21 L17.9381062,21 C17.4976387,17.4677326 14.7543759,14.6506077 11.258042,14.0983496 L11.0008913,14.0620049 L11.0008913,14.0620049 Z" />
	<path class="euiIcon__fillSecondary" d="M10,6 C18.7313589,6 25.8292047,12.993901 25.9969636,21.6851293 L26,22 L24,22 C24,14.3724998 17.9002476,8.16967311 10.312645,8.00342205 L10,8 L10,6 Z M10,0 C22.0287619,0 31.8027752,9.65372576 31.9970526,21.6361898 L32,22 L30,22 C30,11.0693643 21.2312714,2.18677495 10.3444894,2.00290706 L10,2 L10,0 Z" />
</svg>
