<svg xmlns="http://www.w3.org/2000/svg" width="32" height="32" viewBox="0 0 32 32">
  <g>
    <path d="M16,32 C7.163444,32 1.082166e-15,24.836556 0,16 C-1.082166e-15,7.163444 7.163444,1.623249e-15 16,0 C24.836556,-1.623249e-15 32,7.163444 32,16 C32,20.2434638 30.3142906,24.3131264 27.3137085,27.3137085 C24.3131264,30.3142906 20.2434638,32 16,32 Z M16,2 C8.2680135,2 2,8.2680135 2,16 C2,23.7319865 8.2680135,30 16,30 C23.7319865,30 30,23.7319865 30,16 C30,12.2869691 28.5250042,8.72601436 25.8994949,6.10050506 C23.2739856,3.47499577 19.7130309,2 16,2 Z"/>
    <path class="euiIcon__fillSecondary" d="M28,16 L26,16 C26,10.4771525 21.5228475,6 16,6 C10.4771525,6 6,10.4771525 6,16 L4,16 C4.0000001,9.37258307 9.37258307,4.00000018 16,4.00000018 C22.6274169,4.00000018 27.9999999,9.37258307 28,16 Z"/>
    <path d="M21.71,11.71 L20.3,10.3 L18,12.57 C17.3952488,12.2069887 16.7052618,12.0103424 16,12 C13.790861,12 12,13.790861 12,16 C12,18.209139 13.790861,20 16,20 C18.209139,20 20,18.209139 20,16 C19.9896576,15.2947382 19.7930113,14.6047512 19.43,14 L21.71,11.71 Z M16,18 C14.8954305,18 14,17.1045695 14,16 C14,14.8954305 14.8954305,14 16,14 C17.1045695,14 18,14.8954305 18,16 C18,17.1045695 17.1045695,18 16,18 Z"/>
  </g>
</svg>
