<svg xmlns="http://www.w3.org/2000/svg" width="32" height="32" viewBox="0 0 32 32">
  <path fill-rule="evenodd" d="M15.5,11.9155 L27,5.27751 L19.5,0.937513 C18.4358,0.32333 17.2287,0 16,0 C14.7713,0 13.5642,0.32333 12.5,0.937513 L4.49999995,5.55751 C3.43574,6.17196 2.552,7.05576 1.93762,8.12005 C1.32323,9.18434 0.999999952,10.3916 0.999999952,11.6205 L0.999999952,20.8575 C0.999999952,22.0862 1.32349,23.2933 1.93787,24.3574 C2.55224,25.4215 3.43589,26.3052 4.49999995,26.9195 L12,31.2495 L12,17.9795 C11.9999,16.7506 12.3232,15.5433 12.9376,14.479 C13.552,13.4148 14.4357,12.531 15.5,11.9165 L15.5,11.9155 Z M10,27.7855 L10,17.9775 C10.0002,16.3979 10.4162,14.8461 11.2061,13.4782 C11.996,12.1103 13.132,10.9743 14.5,10.1845 L23.003,5.27451 L18.5,2.67051 C17.7398,2.23196 16.8776,2.0011 16,2.0011 C15.1224,2.0011 14.2602,2.23196 13.5,2.67051 L5.5,7.28951 C4.73992,7.72834 4.10875,8.35951 3.6699,9.11959 C3.23106,9.87966 3,10.7419 3,11.6195 L3,20.8575 C3,21.7352 3.23106,22.5974 3.6699,23.3574 C4.10875,24.1175 4.73992,24.7487 5.5,25.1875 L10,27.7855 Z"/>
  <path fill-rule="evenodd" class="euiIcon__fillSecondary" d="M18.409,13.5505 C18.8331,14.0691 19.1816,14.6451 19.444,15.2615 C19.8105,16.1205 19.9996,17.0446 20,17.9785 L20,31.2485 L27.5,26.9185 C28.564,26.3042 29.4475,25.4208 30.0619,24.3568 C30.6763,23.2929 30.9998,22.0861 31,20.8575 L31,11.6195 C30.9969,10.0066 30.4362,8.44435 29.413,7.19751 L18.409,13.5505 Z M21.186,14.2555 C21.722,15.4235 21.9996,16.6934 22,17.9785 L22,27.7855 L26.5,25.1875 C27.2601,24.7487 27.8913,24.1175 28.3301,23.3574 C28.7689,22.5974 29,21.7352 29,20.8575 L29,11.6195 C29,11.0315 28.894,10.4585 28.697,9.91951 L21.186,14.2555 Z"/>
</svg>
