<?xml version="1.0" encoding="UTF-8"?>
<svg width="32px" height="32px" viewBox="0 0 32 32" version="1.1" xmlns="http://www.w3.org/2000/svg" xmlns:xlink="http://www.w3.org/1999/xlink">
    <!-- Generator: Sketch 51.1 (57501) - http://www.bohemiancoding.com/sketch -->
    <title>Artboard</title>
    <desc>Created with Sketch.</desc>
    <defs></defs>
    <g id="Artboard" stroke="none" stroke-width="1" fill="none" fill-rule="evenodd">
        <path d="M18,16 L26.4031034,16" id="Stroke-1" stroke="#0078A0" stroke-width="2"></path>
        <polyline id="Stroke-2" stroke="#0078A0" stroke-width="2" points="25.8455172 27.972129 21 27.972129 21 4 25.8455172 4"></polyline>
        <path d="M28,25 C26.3434146,25 25,26.3405256 25,27.9935484 C25,29.6465712 26.3434146,30.9870968 28,30.9870968 C29.6565854,30.9870968 31,29.6465712 31,27.9935484 C31,26.3405256 29.6565854,25 28,25" id="Fill-4" fill="#00A9E5"></path>
        <path d="M28.0064655,13 C26.3463099,13 25,14.3434146 25,16 C25,17.6565854 26.3463099,19 28.0064655,19 C29.6666211,19 31.012931,17.6565854 31.012931,16 C31.012931,14.3434146 29.6666211,13 28.0064655,13" id="Fill-6" fill="#00A9E5"></path>
        <path d="M28,1 C26.3434146,1 25,2.34052557 25,3.99354839 C25,5.64754472 26.3434146,6.98709677 28,6.98709677 C29.6565854,6.98709677 31,5.64754472 31,3.99354839 C31,2.34052557 29.6565854,1 28,1" id="Fill-8" fill="#00A9E5"></path>
        <path d="M18.3153647,14.245 C18.4858353,14.2788824 18.6086588,14.4302941 18.6086588,14.6039412 L18.6086588,16.9386471 C18.6086588,17.1133529 18.4858353,17.2647647 18.3153647,17.2986471 L16.1034824,17.7475882 C15.9870118,18.1181765 15.8345412,18.4739412 15.6577176,18.8127647 L16.9251294,20.7207647 C17.0204235,20.8668824 17.0024235,21.0606471 16.8785412,21.1834706 L15.2278353,22.8341765 C15.1039529,22.9580588 14.9101882,22.9771176 14.7651294,22.8797059 L12.8603059,21.6144118 C12.5288941,21.787 12.1837176,21.9341765 11.8237176,22.0495882 L11.3641882,24.3154706 C11.3292471,24.4859412 11.1788941,24.6087647 11.0052471,24.6087647 L8.67054118,24.6087647 C8.49583529,24.6087647 8.34442353,24.4859412 8.31054118,24.3154706 L7.85524706,22.0739412 C7.49418824,21.9617059 7.14901176,21.8155882 6.81865882,21.6472353 L4.88842353,22.9252353 C4.74442353,23.0215882 4.55065882,23.0025294 4.42783529,22.8786471 L2.77607059,21.2279412 C2.65324706,21.1051176 2.63312941,20.9113529 2.72948235,20.7652353 L3.98101176,18.8762941 C3.79995294,18.5395882 3.6496,18.1827647 3.52889412,17.8121765 L1.29371765,17.3611176 C1.12324706,17.3272353 0.999364706,17.1779412 0.999364706,17.0021765 L0.999364706,14.6674706 C0.999364706,14.4927647 1.12324706,14.3434706 1.29371765,14.3085294 L3.48018824,13.8680588 C3.5956,13.4826471 3.74701176,13.1152353 3.92701176,12.7647647 L2.68395294,10.8895882 C2.5876,10.7434706 2.60771765,10.5518235 2.73054118,10.4279412 L4.38230588,8.77723529 C4.50618824,8.65335294 4.69889412,8.63429412 4.84395294,8.73064706 L6.67995294,9.94617647 C7.03783529,9.75347059 7.41477647,9.59358824 7.8076,9.46864706 L8.24701176,7.29488235 C8.28089412,7.12229412 8.43124706,6.99947059 8.60595294,6.99947059 L10.9406588,6.99947059 C11.1153647,6.99947059 11.2657176,7.12229412 11.3006588,7.29488235 L11.7347765,9.44852941 C12.1297176,9.56923529 12.5077176,9.727 12.8666588,9.91652941 L14.7196,8.68511765 C14.8657176,8.58876471 15.0594824,8.60888235 15.1833647,8.73170588 L16.8340706,10.3834706 C16.9568941,10.5062941 16.9759529,10.699 16.8796,10.8440588 L15.6492471,12.697 C15.8334824,13.0464118 15.9901882,13.4138235 16.1098353,13.7971176 L18.3153647,14.245 Z M10,20 C12.209139,20 14,18.209139 14,16 C14,13.790861 12.209139,12 10,12 C7.790861,12 6,13.790861 6,16 C6,18.209139 7.790861,20 10,20 Z" id="Combined-Shape" fill="#00BFB3"></path>
    </g>
</svg>