<svg xmlns="http://www.w3.org/2000/svg" width="32" height="32" viewBox="0 0 32 32">
  <g>
    <rect width="1.939" height="4.848" x="2.909" y="26.182" class="euiIcon__fillSecondary"/>
    <path d="M4.84848485,16.6206061 L4.84848485,0 L2.90909091,0 L2.90909091,16.6206061 C1.01788439,17.1089135 -0.215200208,18.9273083 0.0309151175,20.8649702 C0.277030443,22.8026321 1.92555818,24.2550142 3.87878788,24.2550142 C5.83201757,24.2550142 7.48054531,22.8026321 7.72666064,20.8649702 C7.97277597,18.9273083 6.73969137,17.1089135 4.84848485,16.6206061 Z M3.87878788,22.3030303 C2.80769018,22.3030303 1.93939394,21.4347341 1.93939394,20.3636364 C1.93939394,19.2925387 2.80769018,18.4242424 3.87878788,18.4242424 C4.94988558,18.4242424 5.81818182,19.2925387 5.81818182,20.3636364 C5.81818182,21.4347341 4.94988558,22.3030303 3.87878788,22.3030303 Z"/>
    <rect width="1.939" height="14.545" x="14.545" y="16.485" class="euiIcon__fillSecondary"/>
    <path d="M16.4848485,6.92363636 L16.4848485,0 L14.5454545,0 L14.5454545,6.92363636 C12.654248,7.41194379 11.4211634,9.23033864 11.6672788,11.1680005 C11.9133941,13.1056624 13.5619218,14.5580445 15.5151515,14.5580445 C17.4683812,14.5580445 19.116909,13.1056624 19.3630243,11.1680005 C19.6091396,9.23033864 18.376055,7.41194379 16.4848485,6.92363636 Z M15.5151515,12.6060606 C14.4440538,12.6060606 13.5757576,11.7377644 13.5757576,10.6666667 C13.5757576,9.59556897 14.4440538,8.72727273 15.5151515,8.72727273 C16.5862492,8.72727273 17.4545455,9.59556897 17.4545455,10.6666667 C17.4545455,11.7377644 16.5862492,12.6060606 15.5151515,12.6060606 Z"/>
    <rect width="1.939" height="4.848" x="26.182" y="26.182" class="euiIcon__fillSecondary"/>
    <path d="M28.1212121,16.6206061 L28.1212121,0 L26.1818182,0 L26.1818182,16.6206061 C24.2906117,17.1089135 23.0575271,18.9273083 23.3036424,20.8649702 C23.5497577,22.8026321 25.1982855,24.2550142 27.1515152,24.2550142 C29.1047448,24.2550142 30.7532726,22.8026321 30.9993879,20.8649702 C31.2455032,18.9273083 30.0124186,17.1089135 28.1212121,16.6206061 Z M27.1515152,22.3030303 C26.0804175,22.3030303 25.2121212,21.4347341 25.2121212,20.3636364 C25.2121212,19.2925387 26.0804175,18.4242424 27.1515152,18.4242424 C28.2226128,18.4242424 29.0909091,19.2925387 29.0909091,20.3636364 C29.0909091,21.4347341 28.2226128,22.3030303 27.1515152,22.3030303 Z"/>
  </g>
</svg>
