<svg width="16px" height="16px" viewBox="0 0 16 16" xmlns="http://www.w3.org/2000/svg" xmlns:xlink="http://www.w3.org/1999/xlink">
    <defs>
        <path id="branch" d="M4.5,10.0377188 C5.13525852,9.38944377 6.02065591,8.98721016 7,8.98721016 L9,8.98721016 C10.2307765,8.98721016 11.253824,8.09781615 11.4615013,6.92666916 C10.6184892,6.69154611 10,5.91800099 10,5 C10,3.8954305 10.8954305,3 12,3 C13.1045695,3 14,3.8954305 14,5 C14,5.94254262 13.3479997,6.73280241 12.4704142,6.94436438 C12.2464371,8.66135002 10.7780542,9.98721016 9,9.98721016 L7,9.98721016 C5.76068592,9.98721016 4.73199286,10.8889859 4.53429481,12.0721633 C5.37945388,12.3058838 6,13.0804737 6,14 C6,15.1045695 5.1045695,16 4,16 C2.8954305,16 2,15.1045695 2,14 C2,13.0680803 2.63738639,12.2850301 3.5,12.0630087 L3.5,3.93699126 C2.63738639,3.71496986 2,2.93191971 2,2 C2,0.8954305 2.8954305,0 4,0 C5.1045695,0 6,0.8954305 6,2 C6,2.93191971 5.36261361,3.71496986 4.5,3.93699126 L4.5,10.0377188 Z M4,3 C4.55228475,3 5,2.55228475 5,2 C5,1.44771525 4.55228475,1 4,1 C3.44771525,1 3,1.44771525 3,2 C3,2.55228475 3.44771525,3 4,3 Z M4,15 C4.55228475,15 5,14.5522847 5,14 C5,13.4477153 4.55228475,13 4,13 C3.44771525,13 3,13.4477153 3,14 C3,14.5522847 3.44771525,15 4,15 Z M12,6 C12.5522847,6 13,5.55228475 13,5 C13,4.44771525 12.5522847,4 12,4 C11.4477153,4 11,4.44771525 11,5 C11,5.55228475 11.4477153,6 12,6 Z"/>
    </defs>
    <g>
      <use xlink:href="#branch"/>
    </g>
</svg>
