<svg xmlns="http://www.w3.org/2000/svg" width="16" height="16" viewBox="0 0 16 16">
  <path d="M10.6512654,5.12649882 L11.5728606,4.67099746 L12.4568064,2.32788574 C12.5519376,2.0686471 12.8392111,1.93561171 13.0984497,2.03074288 C13.3576883,2.12587405 13.4907237,2.41314755 13.3955926,2.67238618 L12.3740389,5.39048831 L10.9249126,6.10672364 C10.9740493,6.39394349 11,6.69293101 11,7 L12.0432046,7 L14.3422215,9.19791541 C14.5418231,9.38873938 14.5489388,9.70524189 14.3581149,9.90484355 C14.1672909,10.1044452 13.8507884,10.1115609 13.6511867,9.92073694 L11.6420982,8 L10.9054869,8 C10.8155413,8.46595084 10.6642105,8.89904388 10.4636741,9.28303948 L11.3556139,9.77255677 L12.6338379,13.3267734 C12.7283665,13.5862323 12.594664,13.873196 12.3352051,13.9677246 C12.0757461,14.0622532 11.7887825,13.9285508 11.6942539,13.6690918 L10.5447767,10.4682551 L9.88855872,10.1081074 C9.37289758,10.6658225 8.71571804,11 8,11 C7.2837543,11 6.62613345,10.6653296 6.110301,10.1068735 L5.45183476,10.4682551 L4.30235762,13.6690918 C4.20782899,13.9285508 3.92086536,14.0622532 3.6614064,13.9677246 C3.40194745,13.873196 3.268245,13.5862323 3.36277363,13.3267734 L4.64099757,9.77255677 L5.53557131,9.28159391 C5.3354099,8.89795707 5.18434586,8.46536623 5.09451311,8 L4.35451332,8 L2.34542475,9.92073694 C2.1458231,10.1115609 1.82932059,10.1044452 1.63849661,9.90484355 C1.44767263,9.70524189 1.45478835,9.38873938 1.65439,9.19791541 L3.95340691,7 L5,7 C5,6.69348132 5.02585776,6.39501517 5.07482349,6.10826797 L3.62257263,5.39048831 L2.60101892,2.67238618 C2.50588775,2.41314755 2.63892313,2.12587405 2.89816177,2.03074288 C3.15740041,1.93561171 3.4446739,2.0686471 3.53980507,2.32788574 L4.42375092,4.67099746 L5.34817741,5.12789824 C5.5185064,4.69986339 5.74542313,4.31798801 6.0156317,4 L6.58535285,4 C6.53007711,3.84361054 6.5,3.67531771 6.5,3.5 C6.5,2.67157288 7.17157288,2 8,2 C8.82842712,2 9.5,2.67157288 9.5,3.5 C9.5,3.67531771 9.46992289,3.84361054 9.41464715,4 L9.9843683,4 C10.2542824,4.31764143 10.4809989,4.69903103 10.6512654,5.12649882 L10.6512654,5.12649882 Z M8,4 C8.27614237,4 8.5,3.77614237 8.5,3.5 C8.5,3.22385763 8.27614237,3 8,3 C7.72385763,3 7.5,3.22385763 7.5,3.5 C7.5,3.77614237 7.72385763,4 8,4 Z M9.75131032,5.57130454 C9.67508341,5.36653806 9.58268516,5.17489232 9.47601529,5 L6.52398471,5 C6.41706923,5.17529502 6.32449117,5.3674207 6.24816339,5.5727192 C6.13827428,5.8682875 6.06206773,6.19115958 6.02525197,6.53042 C6.00859359,6.68392849 6,6.84079219 6,7 C6,7.35205235 6.04107717,7.68635772 6.11532712,7.99529009 C6.18595494,8.28915188 6.28659797,8.56005583 6.4104531,8.80143845 C6.57848273,9.12891323 6.78923499,9.40205299 7.02572266,9.60446881 C7.32132996,9.85748663 7.65714821,10 8,10 C8.34233981,10 8.67766707,9.85791194 8.97295279,9.60560157 C9.2096286,9.40337111 9.42058069,9.130331 9.58880198,8.80288933 C9.71293646,8.56126235 9.81380266,8.29001203 9.88456677,7.9957315 C9.95888369,7.68667616 10,7.35222003 10,7 C10,6.84073949 9.99140072,6.68382464 9.97473149,6.53026765 C9.93785068,6.19052153 9.86146595,5.8672129 9.75131032,5.57130454 L9.75131032,5.57130454 Z"/>
</svg>
