<svg xmlns="http://www.w3.org/2000/svg" xmlns:xlink="http://www.w3.org/1999/xlink" width="16" height="16" viewBox="0 0 16 16">
  <defs>
    <path id="calendar-a" d="M14,4 L14,3.00585866 C14,2.44976457 13.5500815,2 12.9941413,2 L11,2 L11,3 L10,3 L10,2 L6,2 L6,3 L5,3 L5,2 L3.00585866,2 C2.44976457,2 2,2.44991848 2,3.00585866 L2,12.9941413 C2,13.5502354 2.44991848,14 3.00585866,14 L12.9941413,14 C13.5502354,14 14,13.5500815 14,12.9941413 L14,5 L2,5 L2,4 L14,4 Z M11,1 L12.9941413,1 C14.1019465,1 15,1.89706013 15,3.00585866 L15,12.9941413 C15,14.1019465 14.1029399,15 12.9941413,15 L3.00585866,15 C1.89805351,15 1,14.1029399 1,12.9941413 L1,3.00585866 C1,1.89805351 1.89706013,1 3.00585866,1 L5,1 L5,0 L6,0 L6,1 L10,1 L10,0 L11,0 L11,1 Z M4,7 L6,7 L6,8 L4,8 L4,7 Z M7,7 L9,7 L9,8 L7,8 L7,7 Z M10,7 L12,7 L12,8 L10,8 L10,7 Z M4,9 L6,9 L6,10 L4,10 L4,9 Z M7,9 L9,9 L9,10 L7,10 L7,9 Z M10,9 L12,9 L12,10 L10,10 L10,9 Z M4,11 L6,11 L6,12 L4,12 L4,11 Z M7,11 L9,11 L9,12 L7,12 L7,11 Z M10,11 L12,11 L12,12 L10,12 L10,11 Z"/>
  </defs>
  <g>
    <use xlink:href="#calendar-a"/>
  </g>
</svg>
