<svg width="16" height="16" viewBox="0 0 16 16" xmlns="http://www.w3.org/2000/svg">
  <path d="M12.8536 4.85355C13.0488 4.65829 13.0488 4.34171 12.8536 4.14645C12.6583 3.95118 12.3417 3.95118 12.1464 4.14645L7.5 8.79289L5.85355 7.14645C5.65829 6.95118 5.34171 6.95118 5.14645 7.14645C4.95118 7.34171 4.95118 7.65829 5.14645 7.85355L7.14645 9.85355C7.34171 10.0488 7.65829 10.0488 7.85355 9.85355L12.8536 4.85355Z" />
  <path fill-rule="evenodd" clip-rule="evenodd" d="M4.5 1H13.5C14.3284 1 15 1.67157 15 2.5V11.5C15 12.3284 14.3284 13 13.5 13H4.5C3.67157 13 3 12.3284 3 11.5V2.5C3 1.67157 3.67157 1 4.5 1ZM4.5 2C4.22386 2 4 2.22386 4 2.5V11.5C4 11.7761 4.22386 12 4.5 12H13.5C13.7761 12 14 11.7761 14 11.5V2.5C14 2.22386 13.7761 2 13.5 2H4.5Z" />
  <path d="M2 3.08535C1.4174 3.29127 1 3.84689 1 4.5V13.5C1 14.3284 1.67157 15 2.5 15H11.5C12.1531 15 12.7087 14.5826 12.9146 14H2.5C2.22386 14 2 13.7761 2 13.5V3.08535Z" />
</svg>
