<svg width="16" height="16" viewBox="0 0 16 16" xmlns="http://www.w3.org/2000/svg">
  <path d="M11.8536 5.85355C12.0488 5.65829 12.0488 5.34171 11.8536 5.14645C11.6583 4.95118 11.3417 4.95118 11.1464 5.14645L6.5 9.79289L4.85355 8.14645C4.65829 7.95118 4.34171 7.95118 4.14645 8.14645C3.95118 8.34171 3.95118 8.65829 4.14645 8.85355L6.14645 10.8536C6.34171 11.0488 6.65829 11.0488 6.85355 10.8536L11.8536 5.85355Z" />
  <path fill-rule="evenodd" clip-rule="evenodd" d="M12.5 2H3.5C2.67157 2 2 2.67157 2 3.5V12.5C2 13.3284 2.67157 14 3.5 14H12.5C13.3284 14 14 13.3284 14 12.5V3.5C14 2.67157 13.3284 2 12.5 2ZM3 3.5C3 3.22386 3.22386 3 3.5 3H12.5C12.7761 3 13 3.22386 13 3.5V12.5C13 12.7761 12.7761 13 12.5 13H3.5C3.22386 13 3 12.7761 3 12.5V3.5Z" />
</svg>
