<svg xmlns="http://www.w3.org/2000/svg" width="74" height="73" viewBox="0 0 74 73">
  <g>
    <path d="M21.8554152,13.1162511 C22.1501989,13.2211302 22.4162639,13.3937086 22.6322221,13.6201132 L58.4151633,51.1339731 C59.5587504,52.3328787 59.5139059,54.2318442 58.3150004,55.3754313 C57.97206,55.7025481 57.5564977,55.943761 57.1023604,56.0793073 L3.85800779,71.971148 C2.27036224,72.4450126 0.599178114,71.5421146 0.125313582,69.9544691 C-0.0569212219,69.3439058 -0.0400231736,68.6911774 0.173559276,68.0908612 L19.3007211,14.3301448 C19.6709729,13.289478 20.8147484,12.7459993 21.8554152,13.1162511 Z M21.9539839,18.5649789 L4.50192582,67.341773 L55,52.6240434 L21.9539839,18.5649789 Z"/>
    <path d="M32.267767,33.0137085 C33.3723365,33.0137085 34.267767,33.909139 34.267767,35.0137085 L34.267767,62.0137085 L34.267767,62.0137085 L30.267767,62.0137085 L30.267767,35.0137085 C30.267767,33.909139 31.1631975,33.0137085 32.267767,33.0137085 Z" transform="rotate(-45 32.268 47.514)"/>
    <path d="M20.6715729,48.9175144 C21.7761424,48.9175144 22.6715729,49.8129449 22.6715729,50.9175144 L22.6715729,64.9175144 L22.6715729,64.9175144 L18.6715729,64.9175144 L18.6715729,50.9175144 C18.6715729,49.8129449 19.5670034,48.9175144 20.6715729,48.9175144 Z" transform="rotate(-45 20.672 56.918)"/>
    <rect width="4" height="4" x="51" y="5"/>
    <rect width="4" height="4" x="66" y="3"/>
    <rect width="4" height="4" x="66" y="22"/>
    <rect width="4" height="19" x="51" y="13" transform="rotate(47 53 22.5)"/>
    <rect width="4" height="19" x="39" y="1" transform="rotate(20 41 10.5)"/>
    <rect width="4" height="19" x="62.202" y="25.399" transform="rotate(76 64.202 34.899)"/>
  </g>
</svg>
