<svg xmlns="http://www.w3.org/2000/svg" width="16" height="16" viewBox="0 0 16 16">
  <path d="M3.04103126,4.01986944 C3.29966708,3.23285037 4.14733785,2.80451112 4.93435692,3.06314694 C5.13807693,3.13009486 5.32446791,3.23973617 5.48140771,3.38405987 L5.59340106,3.49868043 L11.6632399,10.4141649 C12.2097205,11.0367807 12.1480006,11.9845206 11.5253848,12.5310012 C11.3766208,12.6615739 11.2038653,12.7610849 11.0173116,12.8243027 L10.8749684,12.8648292 L1.84379744,14.9605669 C1.03681346,15.1478324 0.230815013,14.6454514 0.0435495103,13.8384674 C-0.00608524689,13.6245761 -0.0080097905,13.40307 0.037078725,13.1895195 L0.0796991672,13.0310916 L3.04103126,4.01986944 Z M4.53425759,3.99275674 C4.32880074,3.96423103 4.12567003,4.06687567 4.0267596,4.24920219 L3.99104732,4.33207049 L1.02971522,13.3432927 C1.00115211,13.4302092 0.996984187,13.5232966 1.01766534,13.6124179 C1.07315141,13.8515243 1.29159596,14.010406 1.52837772,13.9989203 L1.61774798,13.9864511 L4.55472313,13.305 L3.15632602,11.7971034 C2.96853498,11.5946457 2.9804247,11.2782865 3.18288244,11.0904955 C3.36284488,10.9235701 3.63280349,10.9144172 3.82246417,11.0566366 L3.88949036,11.1170519 L5.67672313,13.044 L8.31072313,12.433 L5.11316394,8.83201659 C4.92979624,8.62554408 4.94852639,8.30951615 5.15499891,8.12614845 C5.33853003,7.96315494 5.60862346,7.95984368 5.7951634,8.10613235 L5.86086705,8.16798341 L9.41972313,12.175 L10.6489189,11.8907134 C10.7024788,11.8782845 10.7534346,11.8571516 10.79982,11.8283239 L10.8657244,11.7794374 C11.0502031,11.6175172 11.0869562,11.3499156 10.9649091,11.1466865 L10.9116761,11.0738253 L4.84183725,4.15834082 C4.80254376,4.11357298 4.75573135,4.07636988 4.7037384,4.04827684 L4.62215587,4.01316299 L4.53425759,3.99275674 Z M14.9743416,7.34188612 C15.0519629,7.57474981 14.9487218,7.82435491 14.74083,7.9382782 L14.6581139,7.97434165 L11.6581139,8.97434165 C11.3961422,9.06166554 11.1129822,8.92008554 11.0256584,8.65811388 C10.9480371,8.42525019 11.0512782,8.17564509 11.25917,8.0617218 L11.3418861,8.02565835 L14.3418861,7.02565835 C14.6038578,6.93833446 14.8870178,7.07991446 14.9743416,7.34188612 Z M12.8535534,3.14644661 C13.0271197,3.32001296 13.0464049,3.58943736 12.9114088,3.7843055 L12.8535534,3.85355339 L10.8535534,5.85355339 C10.6582912,6.04881554 10.3417088,6.04881554 10.1464466,5.85355339 C9.97288026,5.67998704 9.95359511,5.41056264 10.0885912,5.2156945 L10.1464466,5.14644661 L12.1464466,3.14644661 C12.3417088,2.95118446 12.6582912,2.95118446 12.8535534,3.14644661 Z M14.5,4 C14.7761424,4 15,4.22385763 15,4.5 C15,4.77614237 14.7761424,5 14.5,5 C14.2238576,5 14,4.77614237 14,4.5 C14,4.22385763 14.2238576,4 14.5,4 Z M10.5,1 C10.7761424,1 11,1.22385763 11,1.5 C11,1.77614237 10.7761424,2 10.5,2 C10.2238576,2 10,1.77614237 10,1.5 C10,1.22385763 10.2238576,1 10.5,1 Z M14.5,0 C14.7761424,0 15,0.223857625 15,0.5 C15,0.776142375 14.7761424,1 14.5,1 C14.2238576,1 14,0.776142375 14,0.5 C14,0.223857625 14.2238576,0 14.5,0 Z M8.02565835,0.341886117 C8.11298224,0.079914458 8.39614222,-0.0616655353 8.65811388,0.025658351 C8.89097758,0.103279583 9.028717,0.335635512 8.99512054,0.570302945 L8.97434165,0.658113883 L7.97434165,3.65811388 C7.88701776,3.92008554 7.60385778,4.06166554 7.34188612,3.97434165 C7.10902242,3.89672042 6.971283,3.66436449 7.00487946,3.42969705 L7.02565835,3.34188612 L8.02565835,0.341886117 Z"/>
</svg>
