<svg xmlns="http://www.w3.org/2000/svg" width="16" height="16" viewBox="0 0 16 16">
  <path d="M3.97095104,4.15365378 C4.38103394,3.78372073 5.0133618,3.81626861 5.38329485,4.22635151 L5.38329485,4.22635151 L11.9050322,11.4559108 C12.0076957,11.5697167 12.0828254,11.7055984 12.124618,11.8530601 C12.2752115,12.3844169 11.9665419,12.9372469 11.4351852,13.0878404 L11.4351852,13.0878404 L1.27294614,15.9679539 C1.07190638,16.0249312 0.858068441,16.0175001 0.661468907,15.9467045 C0.14184784,15.7595885 -0.127700786,15.1866649 0.0594151999,14.6670438 L0.0594151999,14.6670438 L3.69991691,4.55737109 C3.75566869,4.4025484 3.84876558,4.26387647 3.97095104,4.15365378 Z M4.64077408,4.89617455 L1.00027237,15.0058473 L4.243,14.086 L2.80534926,12.6474478 C2.61008711,12.4521856 2.61008711,12.1356031 2.80534926,11.940341 C2.97891561,11.7667746 3.24834001,11.7474895 3.44320815,11.8824855 L3.51245604,11.940341 L5.30590265,13.7338944 L7.80690265,13.0468944 L4.45898724,9.60470134 C4.28785173,9.42873772 4.27231575,9.15907115 4.41000907,8.96609946 L4.46882206,8.89766296 C4.64478568,8.72652745 4.91445225,8.71099147 5.10742394,8.84868479 L5.17586045,8.90749779 L8.923,12.76 L11.1625114,12.1257339 L4.64077408,4.89617455 Z M15.3393027,7.33409491 L15.5812039,8.3043958 L11.6717451,9.27904483 L11.4298439,8.30874395 L15.3393027,7.33409491 Z M12.3077163,3.94823963 L12.9849155,4.6840394 L9.97124852,7.45769167 L9.29404937,6.7218919 L12.3077163,3.94823963 Z M13.880023,5.39389439 L14.8798057,5.41473804 L14.8586854,6.42779159 L13.8589026,6.40694795 L13.880023,5.39389439 Z M8.85565736,1 L9.78675037,1.36478186 L8.28629399,5.19464462 L7.35520098,4.82986276 L8.85565736,1 Z M10.6395911,1.73389439 L11.6393738,1.75473804 L11.6182535,2.76779159 L10.6184707,2.74694795 L10.6395911,1.73389439 Z M13.880023,1.39389439 L14.8798057,1.41473804 L14.8586854,2.42779159 L13.8589026,2.40694795 L13.880023,1.39389439 Z"/>
</svg>
