<svg xmlns="http://www.w3.org/2000/svg" width="16" height="16" viewBox="0 0 16 16">
  <path d="M6.34796295,3.7612724 C7.34905879,4.48828842 8,5.66812648 8,7 C8,7.27614237 7.77614237,7.5 7.5,7.5 C7.22385763,7.5 7,7.27614237 7,7 C7,5.34314575 5.65685425,4 4,4 C2.34314575,4 1,5.34314575 1,7 C1,7.92115576 1.41714177,8.77277176 2.12153877,9.33925791 C2.33672666,9.51231508 2.37088035,9.82704989 2.19782318,10.0422378 C2.024766,10.2574257 1.7100312,10.2915793 1.49484331,10.1185222 C0.556873412,9.36419337 2.57571691e-14,8.22730815 2.57571691e-14,7 C2.57571691e-14,4.790861 1.790861,3 4,3 C4.51803212,3 5.01306401,3.09847572 5.46739703,3.27772854 C6.33458245,1.31348553 8.29158597,1.77635684e-15 10.5,1.77635684e-15 C13.5375661,1.77635684e-15 16,2.46243388 16,5.5 C16,6.24782941 15.8503941,6.97561874 15.5638398,7.64981687 C15.4558229,7.90395652 15.162237,8.02241241 14.9080974,7.9143955 C14.6539577,7.8063786 14.5355018,7.51279271 14.6435188,7.25865306 C14.8777296,6.70760721 15,6.11279738 15,5.5 C15,3.01471863 12.9852814,1 10.5,1 C8.66337455,1 7.03910079,2.11041963 6.34796295,3.7612724 Z M4.73892177,8.69616948 C4.91378556,8.48244707 5.22879691,8.45094594 5.44251931,8.62580973 C5.65624172,8.80067351 5.68774286,9.11568486 5.51287907,9.32940727 L4.04681069,11.1212686 C3.8719469,11.334991 3.55693555,11.3664922 3.34321314,11.1916284 C3.12949074,11.0167646 3.0979896,10.7017532 3.27285339,10.4880308 L4.73892177,8.69616948 Z M1.61838761,12.343489 C1.7932514,12.1297666 2.10826275,12.0982655 2.32198515,12.2731293 C2.53570756,12.447993 2.5672087,12.7630044 2.39234491,12.9767268 L0.88697865,14.8166189 C0.712114862,15.0303413 0.397103512,15.0618424 0.183381105,14.8869786 C-0.0303413018,14.7121149 -0.0618424369,14.3971035 0.11302135,14.1833811 L1.61838761,12.343489 Z M9.23892177,8.69616948 C9.41378556,8.48244707 9.72879691,8.45094594 9.94251931,8.62580973 C10.1562417,8.80067351 10.1877429,9.11568486 10.0128791,9.32940727 L8.54681069,11.1212686 C8.3719469,11.334991 8.05693555,11.3664922 7.84321314,11.1916284 C7.62949074,11.0167646 7.5979896,10.7017532 7.77285339,10.4880308 L9.23892177,8.69616948 Z M6.11838761,12.343489 C6.2932514,12.1297666 6.60826275,12.0982655 6.82198515,12.2731293 C7.03570756,12.447993 7.0672087,12.7630044 6.89234491,12.9767268 L5.38697865,14.8166189 C5.21211486,15.0303413 4.89710351,15.0618424 4.6833811,14.8869786 C4.4696587,14.7121149 4.43815756,14.3971035 4.61302135,14.1833811 L6.11838761,12.343489 Z M13.7389218,8.69616948 C13.9137856,8.48244707 14.2287969,8.45094594 14.4425193,8.62580973 C14.6562417,8.80067351 14.6877429,9.11568486 14.5128791,9.32940727 L13.0468107,11.1212686 C12.8719469,11.334991 12.5569356,11.3664922 12.3432131,11.1916284 C12.1294907,11.0167646 12.0979896,10.7017532 12.2728534,10.4880308 L13.7389218,8.69616948 Z M10.6183876,12.343489 C10.7932514,12.1297666 11.1082627,12.0982655 11.3219852,12.2731293 C11.5357076,12.447993 11.5672087,12.7630044 11.3923449,12.9767268 L9.88697865,14.8166189 C9.71211486,15.0303413 9.39710351,15.0618424 9.1833811,14.8869786 C8.9696587,14.7121149 8.93815756,14.3971035 9.11302135,14.1833811 L10.6183876,12.343489 Z"/>
</svg>
