<svg xmlns="http://www.w3.org/2000/svg" width="16" height="16" viewBox="0 0 16 16">
  <path d="M7.42145268,4.93085369 C7.47117501,5.00855159 7.5,5.10090957 7.5,5.2 C7.5,5.47614237 7.27614237,5.7 7,5.7 C6.80334671,5.7 6.63320962,5.58647063 6.55155469,5.42137785 C6.02258719,4.56821152 5.07765005,4 4,4 C2.34314575,4 1,5.34314575 1,7 C1,7.92115576 1.41714177,8.77277176 2.12153877,9.33925791 C2.33672666,9.51231508 2.37088035,9.82704989 2.19782318,10.0422378 C2.024766,10.2574257 1.7100312,10.2915793 1.49484331,10.1185222 C0.556873412,9.36419337 -6.39488462e-14,8.22730815 -6.39488462e-14,7 C-6.39488462e-14,4.790861 1.790861,3 4,3 C4.51803212,3 5.01306401,3.09847572 5.46739703,3.27772854 L5.49976132,3.2955007 L5.49974266,3.27950651 C6.08228236,1.95912474 7.16749914,0.901403894 8.56021411,0.366790704 C11.3960264,-0.72177564 14.5773638,0.694647049 15.6659302,3.53045933 C16.7544965,6.3662716 15.3380738,9.54760905 12.5022616,10.6361754 C12.2444604,10.735136 11.9552479,10.6063703 11.8562874,10.3485692 C11.7573268,10.090768 11.8860925,9.80155555 12.1438936,9.70259497 C14.4641037,8.81194978 15.6229949,6.20903732 14.7323498,3.88882728 C13.8417046,1.56861723 11.2387921,0.40972594 8.91858206,1.30037113 C7.74500667,1.75086452 6.83898418,2.6542308 6.37333233,3.77984838 C6.793857,4.09030265 7.15139874,4.48116326 7.42325999,4.92973266 L7.42145268,4.93085369 Z M9.6,11 C10.2687622,11.0015869 10.3937622,11.66952 9.95961914,12.0030823 L5.27964399,15.8845282 C4.82278514,16.2633477 4.22728643,15.6249636 4.63734555,15.195974 L7.71707676,12.0030823 C6.15957655,12.0010979 5.29166499,11.9998942 5.11334209,11.999471 C4.44457988,11.9978841 4.31957988,11.329951 4.75372295,10.9963888 L9.4336981,7.1149428 C9.89055695,6.73612329 10.4860557,7.37450743 10.0759965,7.80349706 L6.99626533,10.9963888 C8.55376555,10.9983731 9.4216771,10.9995769 9.6,11 Z"/>
</svg>
