<svg xmlns="http://www.w3.org/2000/svg" width="16" height="16" viewBox="0 0 16 16">
  <path d="M9.6,11 C10.2687622,11.0015869 10.3937622,11.66952 9.95961914,12.0030823 L5.27964399,15.8845282 C4.82278514,16.2633477 4.22728643,15.6249636 4.63734555,15.195974 L7.71707676,12.0030823 C6.15957655,12.0010979 5.29166499,11.9998942 5.11334209,11.999471 C4.44457988,11.9978841 4.31957988,11.329951 4.75372295,10.9963888 L9.4336981,7.1149428 C9.89055695,6.73612329 10.4860557,7.37450743 10.0759965,7.80349706 L6.99626533,10.9963888 C8.55376555,10.9983731 9.4216771,10.9995769 9.6,11 Z M5.49974266,3.27950651 C6.08228236,1.95912474 7.16749914,0.901403894 8.56021411,0.366790704 C11.3960264,-0.72177564 14.5773638,0.694647049 15.6659302,3.53045933 C16.7544965,6.3662716 15.3380738,9.54760905 12.5022616,10.6361754 C12.2444604,10.735136 11.9552479,10.6063703 11.8562874,10.3485692 C11.7573268,10.090768 11.8860925,9.80155555 12.1438936,9.70259497 C14.4641037,8.81194978 15.6229949,6.20903732 14.7323498,3.88882728 C13.8417046,1.56861723 11.2387921,0.40972594 8.91858206,1.30037113 C7.72166319,1.75982524 6.80304683,2.69034752 6.34606968,3.84727901 C6.70528358,4.18547832 7.00010914,4.5960416 7.20680989,5.06143212 C7.31230531,5.29895698 7.2052743,5.57702984 6.96774944,5.68252525 C6.73022459,5.78802067 6.45215173,5.68098966 6.34665631,5.44346481 C5.89699673,4.43104805 4.89182587,3.76470588 3.76470588,3.76470588 C2.20531365,3.76470588 0.941176471,5.02884306 0.941176471,6.58823529 C0.941176471,7.85367861 1.7811371,8.95459857 2.97833256,9.30093829 C3.22799405,9.37316349 3.37183458,9.63410419 3.29960937,9.88376565 C3.22738417,10.1334272 2.96644345,10.2772677 2.71678197,10.2050425 C1.11963802,9.74300066 -6.39488462e-14,8.27551303 -6.39488462e-14,6.58823529 C-6.39488462e-14,4.50904565 1.68551624,2.82352941 3.76470588,2.82352941 C4.24821495,2.82352941 4.71492115,2.91553579 5.14554136,3.085302 L5.49974266,3.27950651 Z"/>
</svg>
