<svg xmlns="http://www.w3.org/2000/svg" width="16" height="16" viewBox="0 0 16 16">
  <g fill="none" fill-rule="evenodd">
    <path fill="#000" fill-rule="nonzero" d="M5,12 C4.54720716,12 4.32759391,11.4462282 4.65731765,11.1359 L8.90731765,7.1359 C9.36144309,6.70848783 10.0313118,7.33129039 9.638057,7.81529631 L7.05048525,11 L9.5,11 C9.96819315,11 10.1795817,11.585869 9.81925032,11.8848106 L4.99782174,15.8848106 C4.51359038,16.2865433 3.88241262,15.609546 4.31704026,15.1546086 L7.33081813,12 L5,12 Z"/>
    <path fill="#000" fill-rule="nonzero" d="M6.34797549 3.76108666C6.90989262 4.16850433 7.36593059 4.72189328 7.65723551 5.37777163 7.76932439 5.63014179 7.65560394 5.92559421 7.40323378 6.03768308 7.15086363 6.14977196 6.85541121 6.03605151 6.74332233 5.78368136 6.26555903 4.70798855 5.19756499 4 4 4 2.34314575 4 1 5.34314575 1 7 1 8.34453352 1.89245817 9.51426098 3.16447835 9.88224693 3.42974368 9.95898621 3.58257424 10.2362357 3.50583496 10.501501 3.42909568 10.7667664 3.15184617 10.9195969 2.88658084 10.8428577 1.1896154 10.3519382 7.54951657e-15 8.79273259 7.54951657e-15 7 7.54951657e-15 4.790861 1.790861 3 4 3 4.51372838 3 5.00960372 3.09775678 5.4671377 3.27813337 6.33281826 1.31655922 8.28880522 5.32907052e-15 10.5 5.32907052e-15 13.5375661 5.32907052e-15 16 2.46243388 16 5.5 16 8.1295495 14.1410484 10.3765755 11.5944004 10.8910143 11.3237254 10.9456923 11.0599747 10.7705923 11.0052967 10.4999173 10.9506187 10.2292424 11.1257188 9.96549167 11.3963937 9.91081364 13.4787186 9.49017095 15 7.65130723 15 5.5 15 3.01471863 12.9852814 1 10.5 1 8.66121795 1 7.03789514 2.11291183 6.34797549 3.76108666L6.34797549 3.76108666zM1.79878094 12.1230083L.11302135 14.1833811C-.0618424369 14.3971035-.0303413018 14.7121149.183381105 14.8869786.397103512 15.0618424.712114862 15.0303413.88697865 14.8166189L2.57273824 12.7562461C2.74760203 12.5425237 2.71610089 12.2275123 2.50237849 12.0526485 2.28865608 11.8777847 1.97364473 11.9092859 1.79878094 12.1230083zM11.7987809 12.1230083L10.1130214 14.1833811C9.93815756 14.3971035 9.9696587 14.7121149 10.1833811 14.8869786 10.3971035 15.0618424 10.7121149 15.0303413 10.8869786 14.8166189L12.5727382 12.7562461C12.747602 12.5425237 12.7161009 12.2275123 12.5023785 12.0526485 12.2886561 11.8777847 11.9736447 11.9092859 11.7987809 12.1230083z"/>
  </g>
</svg>
