<?xml version="1.0" encoding="UTF-8" standalone="no"?><!DOCTYPE svg PUBLIC "-//W3C//DTD SVG 1.1//EN" "http://www.w3.org/Graphics/SVG/1.1/DTD/svg11.dtd"><svg width="100%" height="100%" viewBox="0 0 16 16" version="1.1" xmlns="http://www.w3.org/2000/svg" xmlns:xlink="http://www.w3.org/1999/xlink" xml:space="preserve" xmlns:serif="http://www.serif.com/" style="fill-rule:evenodd;clip-rule:evenodd;stroke-linejoin:round;stroke-miterlimit:1.41421;"><g id="Page-1"><path id="Fill-1" d="M1,2.729l0,-0.729c0,-0.552 0.448,-1 1,-1l2,0l0,1l-2,0l0,12l4,0l0,1l-4,0c-0.552,0 -1,-0.448 -1,-1l0,-5l0,-6.271Zm12,2.271l0,-3c0,-0.552 -0.448,-1 -1,-1l-2,0l0,1l2,0l0,3l1,0Z" style="fill:#404040;"/><path id="Fill-3" d="M12,6l2,0l0,9l-1,0l-6,0l0,-5l0,-0.542l0,-3.458l5,0l0,-1l-5,0c-0.552,0 -1,0.448 -1,1l0,9c0,0.552 0.448,1 1,1l7,0c0.552,0 1,-0.448 1,-1l0,-9c0,-0.552 -0.448,-1 -1,-1l-2,0l0,1Z" style="fill:#404040;"/><path id="Fill-5" d="M8,10l5,0l0,-1l-5,0l0,1Z" style="fill:#404040;"/><path id="Fill-7" d="M8,8l5,0l0,-1l-5,0l0,1Z" style="fill:#404040;"/><path id="Fill-8" d="M8,12l5,0l0,-1l-5,0l0,1Z" style="fill:#404040;"/><path id="Fill-9" d="M8,14l5,0l0,-1l-5,0l0,1Z" style="fill:#404040;"/><path id="Fill-10" d="M10,2l0,-1c0,-0.552 -0.448,-1 -1,-1l-4,0c-0.552,0 -1,0.448 -1,1l0,1l1,0l0,-1l4,0l0,1l1,0Z" style="fill:#404040;"/><path id="Fill-11" d="M4,3l6,0l0,-1l-6,0l0,1Z" style="fill:#404040;"/></g></svg>