<svg xmlns="http://www.w3.org/2000/svg" width="16" height="16" viewBox="0 0 16 16">
  <path d="M5.82178208,1.87410211 C6.08196425,1.78158266 6.36788541,1.91750015 6.46040486,2.17768232 C6.55292431,2.4378645 6.41700682,2.72378565 6.15682464,2.8163051 C4.60221358,3.36911684 3.36893979,4.60245314 2.81620924,6.15709425 C2.72370344,6.41728128 2.43778942,6.55321377 2.17760239,6.46070797 C1.91741536,6.36820217 1.78148287,6.08228814 1.87398867,5.82210112 C2.52748598,3.98403773 3.98375463,2.52769526 5.82178208,1.87410211 Z M1.86387449,10.1492375 C1.77259499,9.88861778 1.90987239,9.60334705 2.17049216,9.51206755 C2.43111193,9.42078804 2.71638265,9.55806545 2.80766216,9.81868522 C3.35795651,11.3898768 4.60235028,12.6363148 6.17256885,13.1892663 C6.4330331,13.2809886 6.56982546,13.5664923 6.47810314,13.8269565 C6.38638081,14.0874208 6.10087718,14.2242131 5.84041293,14.1324908 C3.98391166,13.478725 2.51450348,12.0069029 1.86387449,10.1492375 Z M10.1657375,14.1303214 C9.90536609,14.2223069 9.61972437,14.0858031 9.5277389,13.8254317 C9.43575342,13.5650603 9.57225721,13.2794185 9.83262864,13.1874331 C11.3879255,12.6379691 12.6233778,11.4076669 13.1795301,9.85484567 C13.2726403,9.59487435 13.5588695,9.45960676 13.8188409,9.55271704 C14.0788122,9.64582733 14.2140798,9.93205652 14.1209695,10.1920278 C13.4634334,12.0279209 12.0045924,13.4806805 10.1657375,14.1303214 Z M14.1340098,5.84473134 C14.2255474,6.10526058 14.0885525,6.39066711 13.8280233,6.48220467 C13.5674941,6.57374223 13.2820875,6.4367474 13.19055,6.17621815 C12.642216,4.61557955 11.4087071,3.37571912 9.85111244,2.8191344 C9.59107351,2.72621311 9.45559789,2.44008232 9.54851917,2.18004339 C9.64144046,1.92000446 9.92757125,1.78452884 10.1876102,1.87745012 C12.0291515,2.53549924 13.4857004,3.99954815 14.1340098,5.84473134 Z M8.5,3.5 C8.5,3.77614237 8.27614237,4 8,4 C7.72385763,4 7.5,3.77614237 7.5,3.5 L7.5,0.997394943 C7.5,0.721252568 7.72385763,0.497394943 8,0.497394943 C8.27614237,0.497394943 8.5,0.721252568 8.5,0.997394943 L8.5,3.5 Z M3.50260506,7.5 C3.77874743,7.5 4.00260506,7.72385763 4.00260506,8 C4.00260506,8.27614237 3.77874743,8.5 3.50260506,8.5 L1,8.5 C0.723857625,8.5 0.5,8.27614237 0.5,8 C0.5,7.72385763 0.723857625,7.5 1,7.5 L3.50260506,7.5 Z M7.5,12.4973949 C7.5,12.2212526 7.72385763,11.9973949 8,11.9973949 C8.27614237,11.9973949 8.5,12.2212526 8.5,12.4973949 L8.5,15 C8.5,15.2761424 8.27614237,15.5 8,15.5 C7.72385763,15.5 7.5,15.2761424 7.5,15 L7.5,12.4973949 Z M12.4973949,8.5 C12.2212526,8.5 11.9973949,8.27614237 11.9973949,8 C11.9973949,7.72385763 12.2212526,7.5 12.4973949,7.5 L15,7.5 C15.2761424,7.5 15.5,7.72385763 15.5,8 C15.5,8.27614237 15.2761424,8.5 15,8.5 L12.4973949,8.5 Z M8,9 C7.44771525,9 7,8.55228475 7,8 C7,7.44771525 7.44771525,7 8,7 C8.55228475,7 9,7.44771525 9,8 C9,8.55228475 8.55228475,9 8,9 Z"/>
</svg>
