<svg xmlns="http://www.w3.org/2000/svg" width="16" height="16" viewBox="0 0 16 16">
  <g fill="none" fill-rule="evenodd">
    <path fill="#000" fill-rule="nonzero" d="M8,1 L2,1 L2,12 L12,12 L12,5 L8.5,5 C8.22385763,5 8,4.77614237 8,4.5 L8,1 Z M9,1 L9,4 L12,4 L9,1 Z M1,1 C1,0.44771525 1.44771525,0 2,0 L9,0 C9.26521649,0 9.5195704,0.10535684 9.70710678,0.292893219 L12.7071068,3.29289322 C12.8946432,3.4804296 13,3.73478351 13,4 L13,12 C13,12.5522847 12.5522847,13 12,13 L2,13 C1.44771525,13 1,12.5522847 1,12 L1,1 Z"/>
    <path fill="#000" fill-rule="nonzero" d="M4.5 8L9.5 8C9.77614237 8 10 7.77614237 10 7.5 10 7.22385763 9.77614237 7 9.5 7L4.5 7C4.22385763 7 4 7.22385763 4 7.5 4 7.77614237 4.22385763 8 4.5 8zM4.5 10L9.5 10C9.77614237 10 10 9.77614237 10 9.5 10 9.22385763 9.77614237 9 9.5 9L4.5 9C4.22385763 9 4 9.22385763 4 9.5 4 9.77614237 4.22385763 10 4.5 10zM6 16L15 16C15.5522847 16 16 15.5522847 16 15L16 6C16 5.72385763 15.7761424 5.5 15.5 5.5 15.2238576 5.5 15 5.72385763 15 6L15 15 6 15C5.72385763 15 5.5 15.2238576 5.5 15.5 5.5 15.7761424 5.72385763 16 6 16z"/>
  </g>
</svg>
