<svg xmlns="http://www.w3.org/2000/svg" xmlns:xlink="http://www.w3.org/1999/xlink" width="16" height="16" viewBox="0 0 16 16">
  <defs>
    <path id="editor_underline-a" d="M5,3.13574219 L5,7.40015148 C5,9.02849418 6.22362615,10 8,10 C9.78310254,10 11,9.02849418 11,7.40015148 L11,3.13574219 C11,2.77858067 11.1666667,2.5999999 11.5,2.5999999 C11.8333333,2.5999999 12,2.77858067 12,3.13574219 L12,7.45398099 C12,9.54660321 10.334855,11 8,11 C5.66514498,11 4,9.4927737 4,7.40015148 L4,3.13574219 C4,2.77858067 4.16666667,2.5999999 4.5,2.5999999 C4.83333333,2.5999999 5,2.77858067 5,3.13574219 Z M2.5,12 L13.5,12 C13.7761424,12 14,12.2238576 14,12.5 C14,12.7761424 13.7761424,13 13.5,13 L2.5,13 C2.22385763,13 2,12.7761424 2,12.5 C2,12.2238576 2.22385763,12 2.5,12 Z"/>
  </defs>
  <g>
    <use xlink:href="#editor_underline-a"/>
  </g>
</svg>
