<?xml version="1.0" encoding="UTF-8"?>
<svg width="16px" height="16px" viewBox="0 0 16 16" version="1.1" xmlns="http://www.w3.org/2000/svg" xmlns:xlink="http://www.w3.org/1999/xlink">
    <!-- Generator: Sketch 55.2 (78181) - https://sketchapp.com -->
    <title>icon-blog-16-ink</title>
    <desc>Created with Sketch.</desc>
    <g id="icon-blog-16-ink" stroke="none" stroke-width="1" fill="none" fill-rule="evenodd">
        <path d="M7,6.29289322 L7,9 L9.70710678,9 L15.1464466,3.56066017 C15.732233,2.97487373 15.732233,2.02512627 15.1464466,1.43933983 L14.5606602,0.853553391 C13.9748737,0.267766953 13.0251263,0.267766953 12.4393398,0.853553391 L7,6.29289322 Z M8,6.70710678 L13.1464466,1.56066017 C13.3417088,1.36539803 13.6582912,1.36539803 13.8535534,1.56066017 L14.4393398,2.14644661 C14.634602,2.34170876 14.634602,2.65829124 14.4393398,2.85355339 L9.29289322,8 L8,8 L8,6.70710678 Z" id="Path-7" fill="#343741" fill-rule="nonzero"></path>
        <polygon id="Path-9" fill="#343741" fill-rule="nonzero" points="4 13 12 13 12 12 4 12"></polygon>
        <polygon id="Path-8" fill="#343741" fill-rule="nonzero" points="14 15 2 15 2 2 9 2 9 1 1 1 1 16 15 16 15 7 14 7"></polygon>
    </g>
</svg>