<svg xmlns="http://www.w3.org/2000/svg" xmlns:xlink="http://www.w3.org/1999/xlink" width="16" height="16" viewBox="0 0 16 16">
  <path d="M5.39348004,13.4203557 C4.86139008,13.4203557 4.36116862,13.2129373 3.98500663,12.8367958 L3.58238241,12.4347627 C2.80587253,11.6582952 2.80587253,10.3944372 3.58238241,9.61825423 L6.19787485,7.00290464 C6.57403684,6.6267632 7.0742583,6.41934481 7.60634825,6.41934481 C8.13843821,6.41934481 8.63865967,6.6267632 9.01453712,7.00290464 L9.4168768,7.40522235 C9.52813197,7.51647144 9.52813197,7.69629095 9.4168768,7.80754005 C9.30562162,7.91878914 9.12579229,7.91878914 9.01453712,7.80754005 L8.61219744,7.40522235 C8.34359161,7.13663118 7.98620926,6.98839389 7.60634825,6.98839389 C7.2262027,6.98839389 6.86882036,7.13663118 6.60021452,7.40522235 L3.98472209,10.0202874 C3.43015347,10.5748257 3.43015347,11.4773376 3.98472209,12.0321604 L4.38706177,12.4344781 C4.6556676,12.7030693 5.01304995,12.8513066 5.3931955,12.8513066 C5.77305651,12.8513066 6.13043885,12.7030693 6.39904469,12.4344781 L8.21014231,10.623764 C8.32139748,10.5125149 8.50122681,10.5125149 8.61248198,10.623764 C8.72373716,10.7350131 8.72373716,10.9148326 8.61248198,11.0260817 L6.8016689,12.8367958 C6.42579145,13.2132218 5.92556999,13.4203557 5.39348004,13.4203557 Z M8.81365182,10.0000862 C8.28184641,10.0000862 7.7813404,9.79266778 7.40546296,9.41652633 C7.29420778,9.30527724 7.29420778,9.12545772 7.40546296,9.01420863 C7.51671813,8.90295953 7.69654746,8.90295953 7.80780263,9.01420863 C8.07640847,9.2827998 8.43379081,9.43103708 8.81365182,9.43103708 C9.19379737,9.43103708 9.55117972,9.2827998 9.81978555,9.01420863 L12.435278,6.39885904 C12.9898466,5.84432071 12.9898466,4.94180887 12.435278,4.38727053 L12.0332229,3.98438378 C11.4786542,3.42984545 10.5758086,3.42984545 10.0212399,3.98438378 L8.21014231,5.79538249 C8.09888714,5.90663159 7.9190578,5.90663159 7.80780263,5.79538249 C7.69654746,5.68413339 7.69654746,5.50431388 7.80780263,5.39306479 L9.61861571,3.58235061 C10.3951256,2.80588313 11.6587681,2.80588313 12.435278,3.58235061 L12.8376177,3.98495283 C13.6141275,4.76142031 13.6141275,6.0249938 12.8376177,6.80117674 L10.2221252,9.41652633 C9.84624778,9.79266778 9.34574178,10.0000862 8.81365182,10.0000862 Z" />
</svg>
