<svg xmlns="http://www.w3.org/2000/svg" width="16" height="16" viewBox="0 0 16 16">
  <path d="M7.551 5.016a.455.455 0 00.644.644l1.522-1.521c.437-.438 1.293-.387 1.912.232.62.62.67 1.475.233 1.913L9.537 8.608c-.437.437-1.293.386-1.912-.233a.455.455 0 10-.644.644c.925.925 2.357 1.076 3.2.233l2.325-2.325c.843-.843.692-2.275-.233-3.2-.925-.925-2.357-1.076-3.2-.232L7.55 5.015zm.898 5.324a.455.455 0 00-.644 0l-1.521 1.521c-.437.438-1.294.387-1.913-.232-.62-.62-.67-1.476-.232-1.913l2.324-2.324c.437-.437 1.293-.386 1.912.233a.455.455 0 10.644-.644c-.925-.925-2.357-1.076-3.2-.233L3.495 9.073c-.844.843-.693 2.275.232 3.2.925.925 2.357 1.076 3.2.232l1.522-1.52a.455.455 0 000-.645zm-.573-4.607c.1 0 .2-.039.277-.116l1.521-1.52-1.521 1.52a.394.394 0 01-.277.116zm.922 3.222c-.405.003-.853-.175-1.216-.537.363.362.811.54 1.216.537zm3.433-5.186c-.509-.508-1.17-.775-1.795-.769.626-.006 1.286.26 1.795.77.908.908 1.045 2.302.232 3.115L10.139 9.21l2.324-2.324c.814-.813.676-2.207-.232-3.116zM8.12 10.267a.395.395 0 01.286.675l-1.52 1.521 1.52-1.521a.395.395 0 00-.286-.675zm-.937-4.013c.625-.006 1.285.26 1.794.77-.509-.51-1.169-.776-1.794-.77zm-1.8 5.946a1.783 1.783 0 01-1.054-.528c-.634-.634-.701-1.53-.233-1.998L6.42 7.35 4.096 9.674c-.468.468-.401 1.364.232 1.998.316.315.695.49 1.055.528z" />
</svg>