<svg xmlns="http://www.w3.org/2000/svg" width="16" height="16" viewBox="0 0 16 16">
  <path d="M4,5 L12,5 C13.1045695,5 14,5.8954305 14,7 L14,9 C14,10.1045695 13.1045695,11 12,11 L4,11 C2.8954305,11 2,10.1045695 2,9 L2,7 C2,5.8954305 2.8954305,5 4,5 Z M1.5,1 L14.5,1 C14.7761424,1 15,1.22385763 15,1.5 C15,1.77614237 14.7761424,2 14.5,2 L1.5,2 C1.22385763,2 1,1.77614237 1,1.5 C1,1.22385763 1.22385763,1 1.5,1 Z M1.5,14 L14.5,14 C14.7761424,14 15,14.2238576 15,14.5 C15,14.7761424 14.7761424,15 14.5,15 L1.5,15 C1.22385763,15 1,14.7761424 1,14.5 C1,14.2238576 1.22385763,14 1.5,14 Z"/>
</svg>
