<svg width="16" height="16" viewBox="0 0 16 16" xmlns="http://www.w3.org/2000/svg">
<path d="M15.8527 14.3404L11.3911 9.87875L11.3873 9.87498C11.2787 9.76632 11.17 9.65763 11.0613 9.54893C10.9622 9.45631 10.831 9.40581 10.6954 9.40809C10.5598 9.41036 10.4304 9.46524 10.3345 9.56114C10.2386 9.65703 10.1838 9.78643 10.1815 9.92203C10.1792 10.0576 10.2297 10.1888 10.3223 10.2879L10.7193 10.6849L10.7289 10.6944L14.2219 14.1874H12.0584L10.1509 12.2799L8.96597 11.1642C8.89836 11.1005 8.81519 11.0558 8.72482 11.0344C8.63445 11.0131 8.54005 11.0159 8.45112 11.0426L7.68568 11.2726L7.68542 11.2727L7.65219 11.2827L7.65155 11.2829C7.20283 11.4158 6.73804 11.4866 6.2701 11.4935C5.2367 11.4935 4.2265 11.187 3.36726 10.6129C2.50802 10.0387 1.83832 9.22272 1.44285 8.26797C1.04738 7.31323 0.943911 6.26266 1.14552 5.24912C1.34712 4.23557 1.84475 3.30456 2.57547 2.57383C3.3062 1.84311 4.2372 1.34547 5.25074 1.14386C6.26429 0.942244 7.31486 1.04571 8.2696 1.44117C9.22435 1.83663 10.0404 2.50632 10.6145 3.36556C11.1887 4.2248 11.4951 5.23499 11.4951 6.26839H11.4956C11.4964 6.40641 11.5518 6.53848 11.6497 6.63577C11.7476 6.73306 11.8801 6.78767 12.0181 6.78767C12.1561 6.78767 12.2885 6.73306 12.3864 6.63577C12.4843 6.53848 12.5397 6.40641 12.5406 6.26839L12.54 6.26539C12.5391 5.10588 12.2168 3.96931 11.6087 2.98201C11.0007 1.99472 10.1308 1.19537 9.09567 0.672815C8.06058 0.150262 6.90085 -0.0750272 5.7454 0.0219874C4.58995 0.119002 3.48403 0.53452 2.55057 1.22236C1.6171 1.9102 0.892657 2.84341 0.45775 3.91828C0.0228426 4.99314 -0.105488 6.16755 0.08702 7.31098C0.279528 8.4544 0.785335 9.52205 1.54822 10.3953C2.31111 11.2685 3.30119 11.913 4.40842 12.2573C4.42418 12.2622 4.4407 12.2648 4.45652 12.2696C5.78712 12.6741 7.21491 12.6209 8.51172 12.1185C9.14188 12.7487 9.77205 13.3788 10.4022 14.009C10.74 14.3827 11.0965 14.7391 11.4701 15.0769C11.5955 15.1766 11.7514 15.2302 11.9116 15.2287C11.9942 15.2325 12.0789 15.2323 12.1698 15.2323H15.4832C15.5854 15.2297 15.6845 15.1975 15.7687 15.1396C15.8529 15.0818 15.9186 15.0007 15.9577 14.9064C15.9968 14.812 16.0076 14.7083 15.989 14.6078C15.9704 14.5074 15.923 14.4145 15.8527 14.3404V14.3404Z"/>
<path d="M9.25804 4.27555L6.50265 2.68455C6.43184 2.64393 6.35162 2.62256 6.26998 2.62256C6.18834 2.62256 6.10812 2.64393 6.0373 2.68455L3.28194 4.27555C3.21156 4.31648 3.15313 4.37514 3.11248 4.44569C3.07184 4.51624 3.0504 4.59621 3.05029 4.67763V7.85955C3.05039 7.94098 3.07183 8.02095 3.11248 8.0915C3.15313 8.16206 3.21155 8.22072 3.28194 8.26165L6.03733 9.85165C6.10788 9.89308 6.1882 9.91492 6.27001 9.91492C6.35182 9.91492 6.43214 9.89308 6.50268 9.85165L9.25807 8.26165C9.32846 8.22072 9.38688 8.16205 9.42752 8.0915C9.46817 8.02095 9.4896 7.94097 9.4897 7.85955V4.67755C9.48958 4.59615 9.46813 4.51619 9.42749 4.44566C9.38684 4.37512 9.32842 4.31647 9.25804 4.27555ZM8.47122 5.20575V7.33145C8.47106 7.39462 8.45428 7.45663 8.42258 7.51127C8.39087 7.5659 8.34536 7.61123 8.29059 7.64271L6.44959 8.70555C6.395 8.73714 6.33305 8.75377 6.26998 8.75377C6.20691 8.75377 6.14495 8.73714 6.09036 8.70555L4.24936 7.64269C4.1946 7.61121 4.14908 7.56588 4.11738 7.51125C4.08567 7.45661 4.0689 7.3946 4.06873 7.33143V5.20572C4.06895 5.1425 4.08575 5.08044 4.11744 5.02573C4.14914 4.97103 4.19462 4.92559 4.24936 4.89395L6.09036 3.83109C6.14495 3.79951 6.20691 3.78288 6.26998 3.78288C6.33305 3.78288 6.395 3.79951 6.44959 3.83109L8.29059 4.89395C8.34533 4.92559 8.39082 4.97103 8.42251 5.02573C8.45421 5.08044 8.471 5.1425 8.47122 5.20572V5.20575Z"/>
</svg>
