<svg width="16" height="14" viewBox="0 0 16 16" xmlns="http://www.w3.org/2000/svg">
<path d="M15 13L11.1 9.1L11 9C10.8 8.8 10.5 8.8 10.3 9C10.1 9.2 10.1 9.5 10.3 9.7L10.5 9.9L10.8 10.2L13.5 12.9H11.3L9.3 10.9L9.1 10.7L8.8 10.4C8.7 10.3 8.6 10.3 8.5 10.3C8.3 10.3 8 10.5 8 10.5C7.4 10.8 6.7 11 6 11C3.2 11 1 8.8 1 6C1 3.2 3.2 1 6 1C8.8 1 11 3.2 11 6C11 6.3 11.2 6.5 11.5 6.5C11.8 6.5 12 6.3 12 6C12 2.7 9.3 0 6 0C2.7 0 0 2.7 0 6C0 9.3 2.7 12 6 12C6.9 12 7.7 11.8 8.5 11.5L10.8 13.8C10.9 13.9 11.1 14 11.2 14H14.5C15.1 14 15.3 13.4 15 13Z"/>
<path d="M6.25 2.72169L8.7141 4.14434C8.8688 4.23365 8.9641 4.39872 8.9641 4.57735V7.42265C8.9641 7.60128 8.8688 7.76635 8.7141 7.85566L6.25 9.27831C6.0953 9.36763 5.9047 9.36763 5.75 9.27831L3.2859 7.85566C3.1312 7.76635 3.0359 7.60128 3.0359 7.42265V4.57735C3.0359 4.39872 3.1312 4.23365 3.2859 4.14434L5.75 2.72169C5.9047 2.63237 6.0953 2.63237 6.25 2.72169Z"/>
</svg>
