<svg width="26" height="24" viewBox="0 0 26 24" xmlns="http://www.w3.org/2000/svg">
<path fill-rule="evenodd" clip-rule="evenodd" d="M10 1.5C5.30558 1.5 1.5 5.30558 1.5 10C1.5 14.6944 5.30558 18.5 10 18.5C11.6219 18.5 13.1363 18.0462 14.4249 17.2589L14.7608 17.0537L20.2071 22.5H23.2929L16.402 15.6091L16.6773 15.2602C17.819 13.8131 18.5 11.9868 18.5 10C18.5 5.30558 14.6944 1.5 10 1.5ZM0.5 10C0.5 4.75329 4.75329 0.5 10 0.5C15.2467 0.5 19.5 4.75329 19.5 10C19.5 12.0594 18.8442 13.9668 17.7303 15.5232L25.7071 23.5H19.7929L14.6044 18.3115C13.2401 19.0688 11.6698 19.5 10 19.5C4.75329 19.5 0.5 15.2467 0.5 10Z" />
<path fill-rule="evenodd" clip-rule="evenodd" d="M16 10C16 13.3137 13.3137 16 10 16C6.68629 16 4 13.3137 4 10C4 6.68629 6.68629 4 10 4C13.3137 4 16 6.68629 16 10ZM10 15C12.7614 15 15 12.7614 15 10C15 7.23858 12.7614 5 10 5C7.23858 5 5 7.23858 5 10C5 12.7614 7.23858 15 10 15Z"/>
<path fill-rule="evenodd" clip-rule="evenodd" d="M8.5 9.06619V10.9338L10 11.8338L11.5 10.9338V9.06619L10 8.16619L8.5 9.06619ZM10 7L7.5 8.5V11.5L10 13L12.5 11.5V8.5L10 7Z"/>
</svg>
