<svg xmlns="http://www.w3.org/2000/svg" width="16" height="16" viewBox="0 0 16 16">
  <path fill-rule="evenodd" d="M8.18569534,8.46423835 C9.73315649,7.84525388 11.2668435,7.84525388 12.8143047,8.46423835 C13.1427369,8.59561122 13.5,8.3537323 13.5,8 L13.5,2 C13.5,1.81061397 13.3929988,1.63748241 13.2236068,1.5527864 C11.7585524,0.820259207 9.95808355,0.820259207 7.84188612,1.52565835 C5.95808355,2.15359254 4.42521907,2.15359254 3.2236068,1.5527864 C2.89115625,1.38656113 2.5,1.62830899 2.5,2 L2.5,14.5 C2.5,14.7761424 2.72385763,15 3,15 C3.27614237,15 3.5,14.7761424 3.5,14.5 L3.5,8.55273026 C4.91145537,9.17959937 6.48318262,9.14524343 8.18569534,8.46423835 Z M3.5,2.74099512 C4.82152015,3.16193537 6.37812971,3.06766971 8.15811388,2.47434165 C9.90041437,1.89357482 11.3425182,1.84995044 12.5,2.32200595 L12.5,7.29677102 C10.9398076,6.83309287 9.37181775,6.91275642 7.81430466,7.53576165 C6.27393716,8.15190866 4.9218513,8.15190866 3.7236068,7.5527864 C3.65169948,7.51683274 3.57527045,7.49983196 3.5,7.49989062 L3.5,2.74099512 Z"/>
</svg>
