<svg xmlns="http://www.w3.org/2000/svg" width="16" height="16" viewBox="0 0 16 16">
  <path d="M7.68569534,8.46423835 C9.23315649,7.84525388 10.7668435,7.84525388 12.3143047,8.46423835 C12.6427369,8.59561122 13,8.3537323 13,8 L13,2 C13,1.81061397 12.8929988,1.63748241 12.7236068,1.5527864 C11.2585524,0.820259207 9.45808355,0.820259207 7.34188612,1.52565835 C5.45808355,2.15359254 3.92521907,2.15359254 2.7236068,1.5527864 C2.39115625,1.38656113 2,1.62830899 2,2 L2,14.5 C2,14.7761424 2.22385763,15 2.5,15 C2.77614237,15 3,14.7761424 3,14.5 L3,8.55273026 C4.41145537,9.17959937 5.98318262,9.14524343 7.68569534,8.46423835 Z M3,2.74099512 C4.32152015,3.16193537 5.87812971,3.06766971 7.65811388,2.47434165 C9.40041437,1.89357482 10.8425182,1.84995044 12,2.32200595 L12,7.29677102 C10.4398076,6.83309287 8.87181775,6.91275642 7.31430466,7.53576165 C5.77393716,8.15190866 4.4218513,8.15190866 3.2236068,7.5527864 C3.15169948,7.51683274 3.07527045,7.49983196 3,7.49989062 L3,2.74099512 Z"/>
</svg>
