<svg xmlns="http://www.w3.org/2000/svg" xmlns:xlink="http://www.w3.org/1999/xlink" width="16" height="16" viewBox="0 0 16 16">
  <path d="M1,9.5 L1.82598455,5.78306954 C1.92765956,5.32553199 2.33347296,5 2.80217161,5 L13,5 L13,3.5 L7.125,3.5 C6.50367966,3.5 6,2.99632034 6,2.375 L6,2 L1,2 L1,9.5 Z M1.24661605,13 L13.1978284,13 L14.7533839,6 L2.80217161,6 L1.24661605,13 Z M13,14 L1,14 C0.44771525,14 -2.11739163e-14,13.5522847 -2.32036612e-14,13 L-2.7533531e-14,2 C-2.76011664e-14,1.44771525 0.44771525,1 1,1 L6.25,1 C6.66421356,1 7,1.33578644 7,1.75 L7,2.375 C7,2.44403559 7.05596441,2.5 7.125,2.5 L13,2.5 C13.5522847,2.5 14,2.94771525 14,3.5 L14,5 L14.7533839,5 C15.3056687,5 15.7533839,5.44771525 15.7533839,6 C15.7533839,6.07296235 15.7453988,6.14570556 15.729571,6.21693046 L14.1740155,13.2169305 C14.0723404,13.674468 13.666527,14 13.1978284,14 L13,14 Z"/>
</svg>
