<svg xmlns="http://www.w3.org/2000/svg" width="16" height="16" viewBox="0 0 16 16">
  <path d="M6,2.5 L1,2.5 L1,13.5 L15,13.5 L15,4 L7.125,4 C6.50367966,4 6,3.49632034 6,2.875 L6,2.5 Z M6.25,1.5 C6.66421356,1.5 7,1.83578644 7,2.25 L7,2.875 C7,2.94403559 7.05596441,3 7.125,3 L15,3 C15.5522847,3 16,3.44771525 16,4 L16,13.5 C16,14.0522847 15.5522847,14.5 15,14.5 L1,14.5 C0.44771525,14.5 -2.12486467e-14,14.0522847 -2.13162821e-14,13.5 L-2.55351296e-14,2.5 C-2.56027649e-14,1.94771525 0.44771525,1.5 1,1.5 L6.25,1.5 Z"/>
</svg>
