<svg xmlns="http://www.w3.org/2000/svg" width="16" height="16" viewBox="0 0 16 16">
  <path d="M1,10 L1.82598455,6.28306954 C1.92765956,5.82553199 2.33347296,5.5 2.80217161,5.5 L13,5.5 L13,4 L7.125,4 C6.50367966,4 6,3.49632034 6,2.875 L6,2.5 L1,2.5 L1,10 Z M1.24661605,13.5 L13.1978284,13.5 L14.7533839,6.5 L2.80217161,6.5 L1.24661605,13.5 Z M13,14.5 L1,14.5 C0.44771525,14.5 -2.11739163e-14,14.0522847 -2.32036612e-14,13.5 L-2.7533531e-14,2.5 C-2.76011664e-14,1.94771525 0.44771525,1.5 1,1.5 L6.25,1.5 C6.66421356,1.5 7,1.83578644 7,2.25 L7,2.875 C7,2.94403559 7.05596441,3 7.125,3 L13,3 C13.5522847,3 14,3.44771525 14,4 L14,5.5 L14.7533839,5.5 C15.3056687,5.5 15.7533839,5.94771525 15.7533839,6.5 C15.7533839,6.57296235 15.7453988,6.64570556 15.729571,6.71693046 L14.1740155,13.7169305 C14.0723404,14.174468 13.666527,14.5 13.1978284,14.5 L13,14.5 Z"/>
</svg>
