<svg xmlns="http://www.w3.org/2000/svg" width="16" height="16" viewBox="0 0 16 16">
  <path d="M9.03544443,9 C9.27805926,7.30385293 10.736764,6 12.5,6 C13.4793441,6 14.3647415,6.40223361 15,7.05050863 L15,4.5 C15,3.42808431 14.3522721,2.78035636 12.9019419,2.49029034 C12.6311621,2.43613436 12.4555537,2.17272181 12.5097097,1.90194193 C12.5638656,1.63116206 12.8272782,1.45555369 13.0980581,1.50970966 C14.9810613,1.8863103 16,2.90524903 16,4.5 L16,8.75 C16,8.82199362 15.9847842,8.89043342 15.9573931,8.95227897 C15.9854391,9.13073458 16,9.31366685 16,9.5 C16,11.4329966 14.4329966,13 12.5,13 C10.736764,13 9.27805926,11.6961471 9.03544443,10 L6.96455557,10 C6.72194074,11.6961471 5.26323595,13 3.5,13 C1.56700338,13 -1.15463195e-14,11.4329966 -1.15463195e-14,9.5 C-1.15463195e-14,9.31372276 0.0145521557,9.13084436 0.0425816545,8.9524396 C0.0151457081,8.89055193 -9.64203534e-05,8.82205596 -9.64203534e-05,8.75 L-9.64203534e-05,4.5 C-9.64203533e-05,2.90524903 1.0188423,1.8863103 2.90184551,1.50970966 C3.17262539,1.45555369 3.43603794,1.63116206 3.49019392,1.90194193 C3.54434989,2.17272181 3.36874152,2.43613436 3.09796165,2.49029034 C1.64763152,2.78035636 0.99990358,3.42808431 0.99990358,4.5 L0.99990358,7.05060703 C1.63516893,6.40227431 2.52060636,6 3.5,6 C5.26323595,6 6.72194074,7.30385293 6.96455557,9 L9.03544443,9 Z M3.5,12 C4.88071187,12 6,10.8807119 6,9.5 C6,8.11928813 4.88071187,7 3.5,7 C2.11928813,7 1,8.11928813 1,9.5 C1,10.8807119 2.11928813,12 3.5,12 Z M12.5,12 C13.8807119,12 15,10.8807119 15,9.5 C15,8.11928813 13.8807119,7 12.5,7 C11.1192881,7 10,8.11928813 10,9.5 C10,10.8807119 11.1192881,12 12.5,12 Z"/>
</svg>
