<svg width="16" height="16" viewBox="0 0 16 16" xmlns="http://www.w3.org/2000/svg" xmlns:xlink="http://www.w3.org/1999/xlink">
	<path d="M8.3 10.717H6.7v-4h1.6v4zm-1.6-5.71a.83.83 0 0 1 .207-.578c.137-.153.334-.229.59-.229.256 0 .454.076.594.23.14.152.209.345.209.576 0 .228-.07.417-.21.568-.14.15-.337.226-.593.226-.256 0-.453-.075-.59-.226a.81.81 0 0 1-.207-.568zM7.5 13A5.506 5.506 0 0 1 2 7.5C2 4.467 4.467 2 7.5 2S13 4.467 13 7.5 10.533 13 7.5 13m0-12a6.5 6.5 0 1 0 0 13 6.5 6.5 0 0 0 0-13" fill-rule="evenodd" />
</svg>
