<svg xmlns="http://www.w3.org/2000/svg" width="16" height="16" viewBox="0 0 16 16">
  <g>
    <path d="M5,5 L10.999,5 L10.999,4 L5,4 L5,5 Z M3,5 L4,5 L4,4 L3,4 L3,5 Z M3,8 L4,8 L4,7 L3,7 L3,8 Z M9.02197801,7 L8.87196554,7.333 L8.13488645,7.255 L7.66797181,7.205 L7.33711825,7.547 C7.1994641,7.69015675 7.06982525,7.84150193 6.94946877,8 L5,8 L5,7 L9.02197801,7 Z M6.01701185,10 L6,10.056 L6.30638215,10.467 L6.70477682,11 L5,11 L5,10 L6.01701185,10 Z M3,11 L4,11 L4,10 L3,10 L3,11 Z"/>
    <path d="M13,7.04930541 L12.8382929,6.691 L12.6376273,6.244 L12.167776,6.134 C12.1121097,6.12095536 12.0561699,6.10885595 12,6.09770492 L12,2 L2,2 L2,13 L6.36000559,13 C6.51664428,13.3544919 6.71476173,13.6908892 6.94921643,14 L1,14 L1,1 L13,1 L13,7.04930541 Z"/>
    <path d="M11.004,7 C11.326,7 11.65,7.036 11.97,7.109 L12.565,8.402 L14.03,8.25 C14.487,8.712 14.816,9.266 14.999,9.86 L14.129,11 L15,12.141 C14.908,12.435 14.78,12.723 14.613,13 C14.446,13.276 14.25,13.527 14.03,13.75 L12.565,13.598 L11.971,14.89 C11.652,14.963 11.325,15 10.996,15 C10.674,15 10.35,14.964 10.03,14.891 L9.436,13.598 L7.97,13.75 C7.513,13.288 7.185,12.734 7.001,12.14 L7.871,11 L7,9.86 C7.092,9.566 7.22,9.277 7.387,9 C7.554,8.723 7.75,8.473 7.97,8.25 L9.436,8.402 L10.029,7.11 C10.348,7.037 10.675,7 11.004,7 Z M11,12 C11.553,12 12,11.553 12,11 C12,10.448 11.553,10 11,10 C10.447,10 10,10.448 10,11 C10,11.553 10.447,12 11,12 Z"/>
  </g>
</svg>
