<svg xmlns="http://www.w3.org/2000/svg" width="16" height="16" viewBox="0 0 16 16">
  <path d="M15.3632988,14.6580933 C15.556765,14.8551351 15.5538664,15.1717043 15.3568246,15.3651705 C15.1597828,15.5586366 14.8432136,15.555738 14.6497474,15.3586962 L11.6808813,12.3349598 C11.4898213,12.1403686 11.4899292,11.8285691 11.6811238,11.6341101 C12.3939062,10.9091582 12.8,9.93727968 12.8,8.9 C12.8,6.74608948 11.0539105,5 8.9,5 C6.74608948,5 5,6.74608948 5,8.9 C5,11.0539105 6.74608948,12.8 8.9,12.8 C9.17614237,12.8 9.4,13.0238576 9.4,13.3 C9.4,13.5761424 9.17614237,13.8 8.9,13.8 C6.19380473,13.8 4,11.6061953 4,8.9 C4,6.19380473 6.19380473,4 8.9,4 C11.6061953,4 13.8,6.19380473 13.8,8.9 C13.8,10.0340472 13.4125119,11.1078693 12.7214382,11.9674061 L15.3632988,14.6580933 Z M3.09409763,13 C3.37024,13 3.59409763,13.2238576 3.59409763,13.5 C3.59409763,13.7761424 3.37024,14 3.09409763,14 L2.5,14 C1.11928813,14 8.32667268e-16,12.8807119 0,11.5 L8.8817842e-16,2.5 C7.49400542e-16,1.11928813 1.11928813,2.77555756e-16 2.5,0 L11.5,0 C12.8807119,-2.77555756e-16 14,1.11928813 14,2.5 L14,3.09892784 C14,3.37507021 13.7761424,3.59892784 13.5,3.59892784 C13.2238576,3.59892784 13,3.37507021 13,3.09892784 L13,2.5 C13,1.67157288 12.3284271,1 11.5,1 L2.5,1 C1.67157288,1 1,1.67157288 1,2.5 L1,11.5 C1,12.3284271 1.67157288,13 2.5,13 L3.09409763,13 Z M2.5,3 C2.224,3 2,2.776 2,2.5 C2,2.224 2.224,2 2.5,2 C2.776,2 3,2.224 3,2.5 C3,2.776 2.776,3 2.5,3 Z M4.5,3 C4.224,3 4,2.776 4,2.5 C4,2.224 4.224,2 4.5,2 C4.776,2 5,2.224 5,2.5 C5,2.776 4.776,3 4.5,3 Z M6.5,3 C6.224,3 6,2.776 6,2.5 C6,2.224 6.224,2 6.5,2 C6.776,2 7,2.224 7,2.5 C7,2.776 6.776,3 6.5,3 Z M2.5,5 C2.224,5 2,4.776 2,4.5 C2,4.224 2.224,4 2.5,4 C2.776,4 3,4.224 3,4.5 C3,4.776 2.776,5 2.5,5 Z M4.5,5 C4.224,5 4,4.776 4,4.5 C4,4.224 4.224,4 4.5,4 C4.776,4 5,4.224 5,4.5 C5,4.776 4.776,5 4.5,5 Z M2.5,6 C2.776,6 3,6.224 3,6.5 C3,6.776 2.776,7 2.5,7 C2.224,7 2,6.776 2,6.5 C2,6.224 2.224,6 2.5,6 Z M2.5,9 C2.224,9 2,8.776 2,8.5 C2,8.224 2.224,8 2.5,8 C2.776,8 3,8.224 3,8.5 C3,8.776 2.776,9 2.5,9 Z M8.5,3 C8.224,3 8,2.776 8,2.5 C8,2.224 8.224,2 8.5,2 C8.776,2 9,2.224 9,2.5 C9,2.776 8.776,3 8.5,3 Z M10.5,3 C10.224,3 10,2.776 10,2.5 C10,2.224 10.224,2 10.5,2 C10.776,2 11,2.224 11,2.5 C11,2.776 10.776,3 10.5,3 Z M2.5,11 C2.224,11 2,10.776 2,10.5 C2,10.224 2.224,10 2.5,10 C2.776,10 3,10.224 3,10.5 C3,10.776 2.776,11 2.5,11 Z"/>
</svg>
