<svg xmlns="http://www.w3.org/2000/svg" width="16" height="16" viewBox="0 0 16 16">
	<path d="M12,2 C13.1045695,2 14,2.8954305 14,4 L14,12 C14,13.1045695 13.1045695,14 12,14 L4,14 C2.8954305,14 2,13.1045695 2,12 L2,4 C2,2.8954305 2.8954305,2 4,2 L12,2 Z M10,5 L8,5 L8,11 L9,11 L9,9.01354986 L10,9.01354986 C10.298071,9.00123635 12,9.01354986 12,6.99593021 C12,5.25660292 10.6862111,5.04356769 10.1750479,5.00862001 L10.1750479,5.00862001 L10,5 Z M6,5 L5,5 L5,11 L6,11 L6,5 Z M10,5.98396386 C10.6666667,5.98396386 11,6.31996988 11,6.99198193 C11,7.66399398 10.6666667,8 10,8 L10,8 L9,8 L9,5.98396386 Z" />
</svg>
