<svg xmlns="http://www.w3.org/2000/svg" xmlns:xlink="http://www.w3.org/1999/xlink" width="16" height="16" viewBox="0 0 16 16">
  <path fill-rule="evenodd" clip-rule="evenodd" d="M1 1H15V6H1V1ZM0 1C0 0.447715 0.447715 0 1 0H15C15.5523 0 16 0.447715 16 1V6C16 6.55228 15.5523 7 15 7H1C0.447715 7 0 6.55228 0 6V1ZM2 4H8V5H2V4ZM3 10H2V12H-3.8147e-06V13H2V15H3V13H5V12H3V10ZM14 13H8V14H14V13ZM15 10H7V15H15V10ZM7 9C6.44772 9 6 9.44771 6 10V15C6 15.5523 6.44772 16 7 16H15C15.5523 16 16 15.5523 16 15V10C16 9.44772 15.5523 9 15 9H7Z" fill="#333333"/>
</svg>