<svg xmlns="http://www.w3.org/2000/svg" xmlns:xlink="http://www.w3.org/1999/xlink" width="16" height="16" viewBox="0 0 16 16">
  <g>
    <path d="M8,3.99963381 C8.83566053,3.37194482 9.87439408,3 11,3 C13.7614237,3 16,5.23857625 16,8 C16,10.7614237 13.7614237,13 11,13 C9.87439408,13 8.83566053,12.6280552 8,12.0003662 C7.16433947,12.6280552 6.12560592,13 5,13 C2.23857625,13 0,10.7614237 0,8 C0,5.23857625 2.23857625,3 5,3 C6.12560592,3 7.16433947,3.37194482 8,3.99963381 Z M7.2502092,4.69248249 C6.60911486,4.25547993 5.8343927,4 5,4 C2.790861,4 1,5.790861 1,8 C1,10.209139 2.790861,12 5,12 C5.8343927,12 6.60911486,11.7445201 7.2502092,11.3075175 C6.47213036,10.4260716 6,9.26817175 6,8 C6,6.73182825 6.47213036,5.57392845 7.2502092,4.69248249 Z M11.3476562,11 L13.4257812,5.36328125 L12.6875,5.36328125 L11.03125,10.0898438 L10.96875,10.0898438 L9.3125,5.36328125 L8.57421875,5.36328125 L10.6523438,11 L11.3476562,11 Z"/>
  </g>
</svg>
