<svg xmlns="http://www.w3.org/2000/svg" xmlns:xlink="http://www.w3.org/1999/xlink" width="16" height="10" viewBox="0 0 16 10">
  <g transform="translate(0 -3)">
    <path d="M8,12.0003662 C7.16433947,12.6280552 6.12560592,13 5,13 C2.23857625,13 0,10.7614237 0,8 C0,5.23857625 2.23857625,3 5,3 C6.12560592,3 7.16433947,3.37194482 8,3.99963381 C8.83566053,3.37194482 9.87439408,3 11,3 C13.7614237,3 16,5.23857625 16,8 C16,10.7614237 13.7614237,13 11,13 C9.87439408,13 8.83566053,12.6280552 8,12.0003662 Z M8.7497908,11.3075175 C9.39088514,11.7445201 10.1656073,12 11,12 C13.209139,12 15,10.209139 15,8 C15,5.790861 13.209139,4 11,4 C10.1656073,4 9.39088514,4.25547993 8.7497908,4.69248249 C9.52786964,5.57392845 10,6.73182825 10,8 C10,9.26817175 9.52786964,10.4260716 8.7497908,11.3075175 Z M4.1328125,11 L4.1328125,8.55859375 L6.62890625,8.55859375 L6.62890625,7.93359375 L4.1328125,7.93359375 L4.1328125,5.99609375 L6.8515625,5.99609375 L6.8515625,5.36328125 L3.4296875,5.36328125 L3.4296875,11 L4.1328125,11 Z"/>
  </g>
</svg>
