<svg xmlns="http://www.w3.org/2000/svg" xmlns:xlink="http://www.w3.org/1999/xlink" width="16" height="16" viewBox="0 0 16 16">
  <defs>
    <path id="list_alt-a" d="M13.9369913,4.5 C13.7149699,5.36261361 12.9319197,6 12,6 C11.0680803,6 10.2850301,5.36261361 10.0630087,4.5 L1.5,4.5 C1.22385763,4.5 1,4.27614237 1,4 C1,3.72385763 1.22385763,3.5 1.5,3.5 L10.0630087,3.5 C10.2850301,2.63738639 11.0680803,2 12,2 C12.9319197,2 13.7149699,2.63738639 13.9369913,3.5 L14.5,3.5 C14.7761424,3.5 15,3.72385763 15,4 C15,4.27614237 14.7761424,4.5 14.5,4.5 L13.9369913,4.5 Z M5.93699126,8.5 C5.71496986,9.36261361 4.93191971,10 4,10 C3.06808029,10 2.28503014,9.36261361 2.06300874,8.5 L1.5,8.5 C1.22385763,8.5 1,8.27614237 1,8 C1,7.72385763 1.22385763,7.5 1.5,7.5 L2.06300874,7.5 C2.28503014,6.63738639 3.06808029,6 4,6 C4.93191971,6 5.71496986,6.63738639 5.93699126,7.5 L14.5,7.5 C14.7761424,7.5 15,7.72385763 15,8 C15,8.27614237 14.7761424,8.5 14.5,8.5 L5.93699126,8.5 Z M13.9369913,12.5 C13.7149699,13.3626136 12.9319197,14 12,14 C11.0680803,14 10.2850301,13.3626136 10.0630087,12.5 L1.5,12.5 C1.22385763,12.5 1,12.2761424 1,12 C1,11.7238576 1.22385763,11.5 1.5,11.5 L10.0630087,11.5 C10.2850301,10.6373864 11.0680803,10 12,10 C12.9319197,10 13.7149699,10.6373864 13.9369913,11.5 L14.5,11.5 C14.7761424,11.5 15,11.7238576 15,12 C15,12.2761424 14.7761424,12.5 14.5,12.5 L13.9369913,12.5 Z M12,13 C12.5522847,13 13,12.5522847 13,12 C13,11.4477153 12.5522847,11 12,11 C11.4477153,11 11,11.4477153 11,12 C11,12.5522847 11.4477153,13 12,13 Z M4,9 C4.55228475,9 5,8.55228475 5,8 C5,7.44771525 4.55228475,7 4,7 C3.44771525,7 3,7.44771525 3,8 C3,8.55228475 3.44771525,9 4,9 Z M12,5 C12.5522847,5 13,4.55228475 13,4 C13,3.44771525 12.5522847,3 12,3 C11.4477153,3 11,3.44771525 11,4 C11,4.55228475 11.4477153,5 12,5 Z"/>
  </defs>
  <use fill-rule="evenodd" xlink:href="#list_alt-a"/>
</svg>
