<svg xmlns="http://www.w3.org/2000/svg" width="32" height="32" viewBox="0 0 32 32">
  <g fill-rule="evenodd" transform="translate(0 7)">
    <path fill-rule="nonzero" d="M9.01885047,6.87841155 C9.01885047,7.26755716 9.06141845,7.58308063 9.13591243,7.8144645 C9.2210484,8.04584838 9.32746836,8.29826715 9.47645631,8.57172082 C9.52966629,8.65586041 9.55095028,8.74 9.55095028,8.81362214 C9.55095028,8.91879663 9.4870983,9.02397112 9.34875235,9.12914561 L8.67830659,9.57087846 C8.58252862,9.63398315 8.48675066,9.6655355 8.40161469,9.6655355 C8.29519472,9.6655355 8.18877476,9.61294826 8.0823548,9.51829122 C7.93336685,9.36052948 7.8056629,9.1922503 7.69924294,9.02397112 C7.59282297,8.84517449 7.48640301,8.64534296 7.36934105,8.40344164 C6.53926535,9.37104693 5.49634971,9.85484958 4.24059416,9.85484958 C3.34666648,9.85484958 2.63365273,9.60243081 2.11219491,9.09759326 C1.5907371,8.59275572 1.32468719,7.91963899 1.32468719,7.07824308 C1.32468719,6.18425993 1.64394708,5.45855596 2.29310885,4.91164862 C2.94227062,4.36474128 3.80427231,4.09128761 4.90039793,4.09128761 C5.2622258,4.09128761 5.63469567,4.12283995 6.02844953,4.1754272 C6.42220339,4.22801444 6.82659924,4.31215403 7.25227909,4.40681107 L7.25227909,3.6390373 C7.25227909,2.83971119 7.08200715,2.2822864 6.75210527,1.95624549 C6.41156139,1.63020457 5.83689359,1.47244284 5.01745988,1.47244284 C4.64499002,1.47244284 4.26187815,1.51451264 3.86812429,1.60916968 C3.47437043,1.70382671 3.09125857,1.81951865 2.7187887,1.96676294 C2.54851676,2.04038508 2.4208128,2.08245487 2.34631883,2.10348977 C2.27182486,2.12452467 2.21861487,2.13504212 2.17604689,2.13504212 C2.02705894,2.13504212 1.95256497,2.02986763 1.95256497,1.8090012 L1.95256497,1.29364621 C1.95256497,1.12536703 1.97384896,0.999157641 2.02705894,0.925535499 C2.08026892,0.851913357 2.17604689,0.778291215 2.32503484,0.704669073 C2.6975047,0.515354994 3.14446855,0.357593261 3.66592636,0.231383875 C4.18738418,0.0946570397 4.74076798,0.0315523466 5.32607778,0.0315523466 C6.59247533,0.0315523466 7.518329,0.315523466 8.11428079,0.883465704 C8.69959058,1.45140794 8.99756648,2.31383875 8.99756648,3.47075812 L8.99756648,6.87841155 L9.01885047,6.87841155 Z M4.6982,8.47706378 C5.04938587,8.47706378 5.41121374,8.41395909 5.79432561,8.2877497 C6.17743747,8.16154031 6.51798135,7.93015644 6.80531525,7.61463297 C6.97558719,7.41480144 7.10329115,7.19393502 7.16714312,6.94151625 C7.2309951,6.68909747 7.27356309,6.38409146 7.27356309,6.02649819 L7.27356309,5.58476534 C6.9649452,5.5111432 6.63504331,5.44803851 6.29449943,5.40596871 C5.95395555,5.36389892 5.62405367,5.34286402 5.29415179,5.34286402 C4.58113804,5.34286402 4.05968022,5.47959085 3.70849435,5.76356197 C3.35730847,6.04753309 3.18703653,6.44719615 3.18703653,6.97306859 C3.18703653,7.46738869 3.31474049,7.8354994 3.58079039,8.08791817 C3.8361983,8.35085439 4.20866817,8.47706378 4.6982,8.47706378 Z M13.243723,9.61294826 C13.052167,9.61294826 12.9244631,9.58139591 12.8393271,9.50777377 C12.7541911,9.44466907 12.6796972,9.29742479 12.6158452,9.09759326 L10.1149761,0.967605295 C10.0511241,0.757256318 10.0191981,0.620529483 10.0191981,0.546907341 C10.0191981,0.378628159 10.1043341,0.283971119 10.274606,0.283971119 L11.3175217,0.283971119 C11.5197196,0.283971119 11.6580655,0.315523466 11.7325595,0.389145608 C11.8176955,0.452250301 11.8815475,0.599494585 11.9453994,0.799326113 L13.7332548,7.76187726 L15.3934062,0.799326113 C15.4466162,0.588977136 15.5104682,0.452250301 15.5956041,0.389145608 C15.6807401,0.326040915 15.8297281,0.283971119 16.021284,0.283971119 L16.8726437,0.283971119 C17.0748416,0.283971119 17.2131876,0.315523466 17.2983235,0.389145608 C17.3834595,0.452250301 17.4579535,0.599494585 17.5005215,0.799326113 L19.1819569,7.84601685 L21.0230222,0.799326113 C21.0868742,0.588977136 21.1613682,0.452250301 21.2358621,0.389145608 C21.3209981,0.326040915 21.4593441,0.283971119 21.6509,0.283971119 L22.6406057,0.283971119 C22.8108776,0.283971119 22.9066556,0.36811071 22.9066556,0.546907341 C22.9066556,0.599494585 22.8960136,0.652081829 22.8853716,0.715186522 C22.8747296,0.778291215 22.8534456,0.862430806 22.8108776,0.978122744 L20.2461565,9.10811071 C20.1823045,9.31845969 20.1078105,9.45518652 20.0226746,9.51829122 C19.9375386,9.58139591 19.7991927,9.6234657 19.6182787,9.6234657 L18.703067,9.6234657 C18.5008691,9.6234657 18.3625232,9.59191336 18.2773872,9.51829122 C18.1922512,9.44466907 18.1177573,9.30794224 18.0751893,9.09759326 L16.4256798,2.31383875 L14.7868124,9.08707581 C14.7336024,9.29742479 14.6697505,9.43415162 14.5846145,9.50777377 C14.4994785,9.58139591 14.3504906,9.61294826 14.1589347,9.61294826 L13.243723,9.61294826 Z M26.9186881,9.89691937 C26.3653043,9.89691937 25.8119205,9.83381468 25.2798207,9.70760529 C24.7477209,9.58139591 24.3326831,9.44466907 24.0559912,9.28690734 C23.8857192,9.1922503 23.7686573,9.08707581 23.7260893,8.99241877 C23.6835213,8.89776173 23.6622373,8.79258724 23.6622373,8.6979302 L23.6622373,8.16154031 C23.6622373,7.94067389 23.7473733,7.8354994 23.9070032,7.8354994 C23.9708552,7.8354994 24.0347072,7.84601685 24.0985591,7.86705174 C24.1624111,7.88808664 24.2581891,7.93015644 24.364609,7.97222623 C24.7264369,8.12998797 25.1201908,8.25619735 25.5352286,8.34033694 C25.9609085,8.42447653 26.3759463,8.46654633 26.8016262,8.46654633 C27.4720719,8.46654633 27.9935298,8.35085439 28.3553576,8.11947052 C28.7171855,7.88808664 28.9087414,7.55152828 28.9087414,7.12031288 C28.9087414,6.82582431 28.8129635,6.58392298 28.6214075,6.38409146 C28.4298516,6.18425993 28.0680237,6.0054633 27.5465659,5.83718412 L26.0034765,5.36389892 C25.2266107,5.12199759 24.6519429,4.76440433 24.3007571,4.29111913 C23.9495712,3.82835138 23.7686573,3.31299639 23.7686573,2.76608905 C23.7686573,2.3243562 23.8644352,1.93521059 24.0559912,1.59865223 C24.2475471,1.26209386 24.502955,0.967605295 24.8222149,0.73622142 C25.1414748,0.494320096 25.5033026,0.315523466 25.9289825,0.189314079 C26.3546623,0.0631046931 26.8016262,0.0105174489 27.269874,0.0105174489 C27.5039979,0.0105174489 27.7487638,0.0210348977 27.9828878,0.0525872443 C28.2276537,0.0841395909 28.4511356,0.126209386 28.6746175,0.168279182 C28.8874574,0.220866426 29.0896554,0.27345367 29.2812113,0.336558363 C29.4727672,0.399663057 29.6217552,0.46276775 29.7281751,0.525872443 C29.8771631,0.610012034 29.9835831,0.694151625 30.047435,0.788808664 C30.111287,0.872948255 30.143213,0.988640193 30.143213,1.13588448 L30.143213,1.63020457 C30.143213,1.851071 30.058077,1.96676294 29.8984471,1.96676294 C29.8133111,1.96676294 29.6749652,1.92469314 29.4940512,1.84055355 C28.8874574,1.56709988 28.2063697,1.43037304 27.450788,1.43037304 C26.8441942,1.43037304 26.3653043,1.52503008 26.0354025,1.72486161 C25.7055006,1.92469314 25.5352286,2.22969916 25.5352286,2.66091456 C25.5352286,2.95540313 25.6416486,3.2078219 25.8544885,3.40765343 C26.0673284,3.60748496 26.4610823,3.80731649 27.0251081,3.98611312 L28.5362716,4.45939832 C29.3024953,4.70129964 29.8558791,5.037858 30.185781,5.46907341 C30.5156829,5.90028881 30.6753128,6.3946089 30.6753128,6.94151625 C30.6753128,7.39376655 30.5795348,7.80394705 30.3986209,8.16154031 C30.207065,8.51913357 29.9516571,8.83465704 29.6217552,9.08707581 C29.2918533,9.35001203 28.8980994,9.53932611 28.4404936,9.67605295 C27.9616038,9.82329723 27.4614299,9.89691937 26.9186881,9.89691937 Z"/>
    <g transform="translate(0 11.78)">
      <path d="M28.9300254,3.2288568 C25.4288087,5.78459687 20.3419345,7.14134777 15.968074,7.14134777 C9.83828418,7.14134777 4.31508813,4.90113117 0.143425608,1.17795427 C-0.186476275,0.883465704 0.111499619,0.483802647 0.50525348,0.715186522 C5.01745988,3.30247894 10.5832239,4.86957882 16.3405439,4.86957882 C20.2248725,4.86957882 24.492313,4.07025271 28.4192096,2.42953069 C29.0045194,2.16659446 29.5046932,2.80815884 28.9300254,3.2288568 Z"/>
      <path d="M30.3879789,1.58813478 C29.9410151,1.02019254 27.429504,1.31468111 26.2908104,1.45140794 C25.9502665,1.49347774 25.8970565,1.19898917 26.2056744,0.978122744 C28.2063697,-0.410180505 31.4947465,-0.0105174489 31.8778584,0.452250301 C32.2609702,0.925535499 31.7714384,4.1754272 29.8984471,5.73200963 C29.6111132,5.97391095 29.3344213,5.84770156 29.4621252,5.5321781 C29.8878051,4.49095066 30.8349428,2.14555957 30.3879789,1.58813478 Z"/>
    </g>
  </g>
</svg>
