<svg xmlns="http://www.w3.org/2000/svg" width="32" height="32" viewBox="0 0 32 32">
  <path fill="#0080D5" d="M26,27.793 C26,29.148 25.097,30.345 23.785,30.689 C21.584,31.268 17.842,32 13,32 C8.158,32 4.416,31.268 2.215,30.689 C0.903,30.345 0,29.148 0,27.793 L0,13 L26,13 L26,27.793 Z"/>
  <path fill="#FEC514" d="M21,10 L5,10 L5,8 C5,3.582 8.582,0 13,0 C17.418,0 21,3.582 21,8 L21,10 Z"/>
  <path class="euiIcon__fillNegative" d="M21,18.793 C21,19.578 20.547,20.292 19.831,20.613 C18.521,21.201 16.16,22 13,22 C9.84,22 7.479,21.201 6.169,20.613 C5.453,20.292 5,19.578 5,18.793 L5,13 L21,13 L21,18.793 Z"/>
</svg>
