<svg xmlns="http://www.w3.org/2000/svg" width="32" height="32" viewBox="0 0 32 32">
  <g fill="none" fill-rule="evenodd">
    <circle cx="16" cy="16" r="16" fill="#0079A5"/>
    <g fill="#FFF" fill-rule="nonzero" transform="translate(6.4 8)">
      <path d="M3.53592054 4.48005276L17.2640794 4.48005276C18.0681622 4.48005276 18.72 5.13189061 18.72 5.9359733 18.72 6.740056 18.0681622 7.39189387 17.2640794 7.39189387L3.53592054 7.39189387C2.73183782 7.39189387 2.08 6.740056 2.08 5.9359733 2.08 5.13189061 2.73183782 4.48005276 3.53592054 4.48005276zM11.28 13.4399994L17.52 13.4399994C18.4478384 13.4399994 19.2 14.0918728 19.2 14.8959994 19.2 15.700126 18.4478384 16.3519994 17.52 16.3519994L11.28 16.3519994C10.3521617 16.3519994 9.6 15.700126 9.6 14.8959994 9.6 14.0918728 10.3521617 13.4399994 11.28 13.4399994zM1.456 0L8.944 0C9.74812657 0 10.4.651873404 10.4 1.456 10.4 2.2601266 9.74812657 2.912 8.944 2.912L1.456 2.912C.651873404 2.912 9.8477106e-17 2.2601266 0 1.456-9.8477106e-17.651873404.651873404 0 1.456 0zM3.536 8.95994663L11.024 8.95994663C11.8281266 8.95994663 12.48 9.61182006 12.48 10.4159466 12.48 11.2200732 11.8281266 11.8719466 11.024 11.8719466L3.536 11.8719466C2.73187342 11.8719466 2.08 11.2200732 2.08 10.4159466 2.08 9.61182006 2.73187342 8.95994663 3.536 8.95994663z"/>
    </g>
  </g>
</svg>
