<svg xmlns="http://www.w3.org/2000/svg" width="32" height="32" viewBox="0 0 32 32">
  <path fill="#0080D5" d="M29,27.793 C29,29.148 28.097,30.345 26.785,30.689 C24.584,31.268 20.842,32 16,32 C11.158,32 7.416,31.268 5.215,30.689 C3.903,30.345 3,29.148 3,27.793 L3,13 L29,13 L29,27.793 Z"/>
  <path fill="#FEC514" d="M24,10 L8,10 L8,8 C8,3.582 11.582,0 16,0 C20.418,0 24,3.582 24,8 L24,10 Z"/>
  <path class="euiIcon__fillNegative" d="M24,18.793 C24,19.578 23.547,20.292 22.831,20.613 C21.521,21.201 19.16,22 16,22 C12.84,22 10.479,21.201 9.169,20.613 C8.453,20.292 8,19.578 8,18.793 L8,13 L24,13 L24,18.793 Z"/>
</svg>
