<svg xmlns="http://www.w3.org/2000/svg" width="32" height="32" viewBox="0 0 32 32">
  <g fill="none" fill-rule="evenodd">
    <circle cx="16" cy="16" r="16" fill="#A5A8AB"/>
    <g fill="#FFF" transform="translate(6.4 6.4)">
      <path d="M19.2,5.76 C19.2,5.43936 19.04,5.13952 18.7712,4.96128 L13.0112,1.12128 C12.5696,0.82688 11.9744,0.94592 11.68,1.38752 C11.3856,1.82912 11.5072,2.42432 11.9488,2.71872 L17.28,6.2736 L17.28,12.21056 L13.44,11.24992 L13.44,8.16 C13.44,7.62944 13.0112,7.2 12.48,7.2 C11.9488,7.2 11.52,7.62944 11.52,8.16 L11.52,12 C11.52,12.44064 11.8208,12.824 12.2464,12.93088 L15.9008,13.8448 L11.9488,16.48128 C11.5072,16.77568 11.3856,17.37088 11.68,17.81248 C11.8656,18.08992 12.1696,18.24 12.48,18.24 C12.6624,18.24 12.848,18.18752 13.0112,18.07872 L18.7712,14.23872 C18.784,14.23136 18.7904,14.2208 18.8032,14.21312 C18.8256,14.1968 18.8416,14.17792 18.864,14.15968 C18.9184,14.1136 18.9632,14.06336 19.0048,14.00736 C19.0208,13.98464 19.04,13.9632 19.0528,13.93856 C19.1072,13.85344 19.1488,13.76288 19.1712,13.66496 C19.1872,13.5952 19.1968,13.52608 19.1968,13.45696 C19.1968,13.4512 19.2,13.44576 19.2,13.44 L19.2,5.76 Z"/>
      <path d="M10.56 1.92C10.56 2.98016 11.4208 3.84 12.48 3.84 13.5392 3.84 14.4 2.98016 14.4 1.92 14.4.85984 13.5392 0 12.48 0 11.4208 0 10.56.85984 10.56 1.92M10.56 8.16C10.56 9.22016 11.4208 10.08 12.48 10.08 13.5392 10.08 14.4 9.22016 14.4 8.16 14.4 7.09984 13.5392 6.24 12.48 6.24 11.4208 6.24 10.56 7.09984 10.56 8.16M10.56 17.28C10.56 18.34016 11.4208 19.2 12.48 19.2 13.5392 19.2 14.4 18.34016 14.4 17.28 14.4 16.21952 13.5392 15.36 12.48 15.36 11.4208 15.36 10.56 16.21952 10.56 17.28M7.2512 16.48128L3.1264 13.7296 7.024 12.4304C7.4144 12.30016 7.68 11.93344 7.68 11.52L7.68 8.16C7.68 7.62944 7.2512 7.2 6.72 7.2 6.1888 7.2 5.76 7.62944 5.76 8.16L5.76 10.82816 1.92 12.10816 1.92 6.27392 7.2512 2.71872C7.6928 2.42432 7.8144 1.82912 7.52 1.38752 7.2256.94592 6.6304.82688 6.1888 1.12128L.4288 4.96128C.16 5.13952 0 5.43936 0 5.76L0 13.44C0 13.45504.0064 13.46912.0064 13.48448.0064 13.5312.0128 13.57824.0224 13.62528.0288 13.65248.032 13.67936.0416 13.7056.0448 13.7184.0448 13.73088.0512 13.74368.0544 13.76064.0672 13.7728.0736 13.78912.0992 13.85312.1312 13.91328.1696 13.97024.1856 13.99456.1984 14.01888.2176 14.04128.2624 14.09568.3136 14.14368.368 14.18784.384 14.20064.3968 14.21632.416 14.22816.4192 14.23136.4224 14.23552.4288 14.23872L6.1888 18.07872C6.352 18.18752 6.5376 18.24 6.72 18.24 7.0304 18.24 7.3344 18.08992 7.52 17.81248 7.8144 17.37088 7.6928 16.77568 7.2512 16.48128"/>
      <path d="M8.64 1.92C8.64 2.98016 7.7792 3.84 6.72 3.84 5.6608 3.84 4.8 2.98016 4.8 1.92 4.8.85984 5.6608 0 6.72 0 7.7792 0 8.64.85984 8.64 1.92M8.64 8.16C8.64 9.22016 7.7792 10.08 6.72 10.08 5.6608 10.08 4.8 9.22016 4.8 8.16 4.8 7.09984 5.6608 6.24 6.72 6.24 7.7792 6.24 8.64 7.09984 8.64 8.16M8.64 17.28C8.64 18.34016 7.7792 19.2 6.72 19.2 5.6608 19.2 4.8 18.34016 4.8 17.28 4.8 16.21952 5.6608 15.36 6.72 15.36 7.7792 15.36 8.64 16.21952 8.64 17.28M11.68 1.38752C11.3856 1.82912 11.5072 2.42432 11.9488 2.71872L13.3248 3.63648C13.9264 3.34016 14.3456 2.74272 14.3872 2.0384L13.0112 1.12128C12.5696.82688 11.9744.94592 11.68 1.38752M12.48 10.08C12.832 10.08 13.1552 9.97856 13.44 9.81376L13.44 8.16C13.44 7.62944 13.0112 7.2 12.48 7.2 11.9488 7.2 11.52 7.62944 11.52 8.16L11.52 9.81376C11.8048 9.97888 12.128 10.08 12.48 10.08M13.3248 15.56352L11.9488 16.48128C11.5072 16.77568 11.3856 17.37088 11.68 17.81248 11.8656 18.09024 12.1696 18.24 12.48 18.24 12.6624 18.24 12.848 18.18752 13.0112 18.07872L14.3872 17.1616C14.3456 16.45728 13.9264 15.85984 13.3248 15.56352"/>
      <path d="M6.1888 1.12128L4.8128 2.0384C4.8544 2.74272 5.2736 3.34048 5.8752 3.63648L7.2512 2.71872C7.6928 2.42432 7.8144 1.82912 7.52 1.38752 7.2256.94592 6.6304.82688 6.1888 1.12128M6.72 7.2C6.1888 7.2 5.76 7.62944 5.76 8.16L5.76 9.81376C6.0448 9.97856 6.368 10.08 6.72 10.08 7.072 10.08 7.3952 9.97856 7.68 9.81376L7.68 8.16C7.68 7.62944 7.2512 7.2 6.72 7.2M7.2512 16.48128L5.8752 15.56352C5.2736 15.85984 4.8544 16.45728 4.8128 17.1616L6.1888 18.07872C6.352 18.18752 6.5376 18.24 6.72 18.24 7.0304 18.24 7.3344 18.08992 7.52 17.81248 7.8144 17.37088 7.6928 16.77568 7.2512 16.48128"/>
    </g>
  </g>
</svg>
