<svg xmlns="http://www.w3.org/2000/svg" width="32" height="32" viewBox="0 0 32 32">
  <g fill="none" fill-rule="evenodd" transform="translate(0 8)">
    <path fill="#00618A" fill-rule="nonzero" d="M0,5.0115601 C0,5.0115601 1.0509913,5.0115601 1.0509913,5.0115601 C1.0509913,5.0115601 1.0509913,0.861299233 1.0509913,0.861299233 C1.0509913,0.861299233 2.67806445,4.47934527 2.67806445,4.47934527 C2.8700399,4.91727877 3.13283274,5.0722046 3.64818005,5.0722046 C4.16360102,5.0722046 4.41623734,4.91727877 4.60829463,4.47934527 C4.60829463,4.47934527 6.23529412,0.861299233 6.23529412,0.861299233 C6.23529412,0.861299233 6.23529412,5.0115601 6.23529412,5.0115601 C6.23529412,5.0115601 7.28636726,5.0115601 7.28636726,5.0115601 C7.28636726,5.0115601 7.28636726,0.868092072 7.28636726,0.868092072 C7.28636726,0.463877238 7.12459949,0.268439898 6.79116113,0.16744757 C5.99280614,-0.0818414322 5.45716215,0.1337289 5.21459233,0.672736573 C5.21459233,0.672736573 3.61788235,4.24347826 3.61788235,4.24347826 C3.61788235,4.24347826 2.07169309,0.672736573 2.07169309,0.672736573 C1.83927161,0.1337289 1.29355294,-0.0818414322 0.495204501,0.16744757 C0.161685115,0.268439898 0,0.463877238 0,0.868092072 C0,0.868092072 0,5.0115601 0,5.0115601 Z" transform="translate(.06 10.033)"/>
    <path fill="#00618A" fill-rule="nonzero" d="M0.000163682864,0.0111304348 C0.000163682864,0.0111304348 1.05084399,0.0111304348 1.05084399,0.0111304348 C1.05084399,0.0111304348 1.05084399,2.29761637 1.05084399,2.29761637 C1.04102302,2.42185166 1.09070077,2.71337084 1.66645524,2.72245524 C1.96018414,2.72703836 3.93346292,2.72245524 3.95187724,2.72245524 C3.95187724,2.72245524 3.95187724,0 3.95187724,0 C3.95187724,0 5.00501279,0 5.00501279,0 C5.00984143,0 5.00394885,3.71265473 5.00403069,3.72845013 C5.00984143,4.64409207 3.86790793,4.84296675 3.34158568,4.85835294 C3.34158568,4.85835294 0.0229974425,4.85835294 0.0229974425,4.85835294 C0.0229974425,4.85835294 0.0229974425,4.15132481 0.0229974425,4.15132481 C0.0288081841,4.15132481 3.33913043,4.15197954 3.34747826,4.15116113 C4.0238977,4.07971355 3.94402046,3.74350895 3.94393862,3.63032225 C3.94393862,3.63032225 3.94393862,3.35468031 3.94393862,3.35468031 C3.94393862,3.35468031 1.71007673,3.35468031 1.71007673,3.35468031 C0.670772379,3.34510486 0.00892071611,2.89153964 0.00073657289,2.36971867 C-2.79182059e-17,2.32135038 0.0231611253,0.0339641944 0.000163682864,0.0111304348 Z" transform="translate(8.22 11.656)"/>
    <path fill="#E48E00" fill-rule="nonzero" d="M0,4.85082353 C0,4.85082353 3.02158568,4.85082353 3.02158568,4.85082353 C3.37530435,4.85082353 3.71895652,4.77675703 3.99181586,4.64867519 C4.44652685,4.4398977 4.66889003,4.15697187 4.66889003,3.78631202 C4.66889003,3.78631202 4.66889003,3.01831202 4.66889003,3.01831202 C4.66889003,2.71508951 4.41624552,2.43208184 3.92102302,2.24351918 C3.65823018,2.14236317 3.33487468,2.08851151 3.02158568,2.08851151 C3.02158568,2.08851151 1.74821483,2.08851151 1.74821483,2.08851151 C1.32386701,2.08851151 1.12171867,1.96051151 1.07122251,1.67758568 C1.06107417,1.64386701 1.06107417,1.61685934 1.06107417,1.58322251 C1.06107417,1.58322251 1.06107417,1.10494118 1.06107417,1.10494118 C1.06107417,1.0779335 1.06107417,1.05092583 1.07122251,1.017289 C1.12171867,0.80171867 1.23294118,0.740992327 1.60679284,0.707355499 C1.63715601,0.707355499 1.67750384,0.70056266 1.70786701,0.70056266 C1.70786701,0.70056266 4.70931969,0.70056266 4.70931969,0.70056266 C4.70931969,0.70056266 4.70931969,0 4.70931969,0 C4.70931969,0 1.75836317,0 1.75836317,0 C1.3339335,0 1.11157033,0.0269258312 0.909503836,0.087488491 C0.282925831,0.282925831 0.0100664962,0.592859335 0.0100664962,1.13186701 C0.0100664962,1.13186701 0.0100664962,1.74494118 0.0100664962,1.74494118 C0.0100664962,2.21659335 0.54571867,2.62080818 1.44507417,2.71508951 C1.54623018,2.72180051 1.64722251,2.72851151 1.74821483,2.72851151 C1.74821483,2.72851151 2.83965217,2.72851151 2.83965217,2.72851151 C2.88016368,2.72851151 2.92059335,2.72851151 2.95087468,2.73530435 C3.28437852,2.76231202 3.42580051,2.82287468 3.52695652,2.94416368 C3.58751918,3.00472634 3.60773402,3.06545269 3.60773402,3.13280818 C3.60773402,3.13280818 3.60773402,3.74588235 3.60773402,3.74588235 C3.60773402,3.82003069 3.55723785,3.91439386 3.45624552,3.99517136 C3.36523785,4.07603069 3.21366752,4.12996419 3.01151918,4.14346803 C2.97108951,4.14346803 2.94080818,4.15017903 2.90037852,4.15017903 C2.90037852,4.15017903 0,4.15017903 0,4.15017903 C0,4.15017903 0,4.85082353 0,4.85082353 Z" transform="translate(14.035 10.194)"/>
    <path fill="#E48E00" fill-rule="nonzero" d="M0,3.63138619 C0,4.35224552 0.535570332,4.7565422 1.61694118,4.83740153 C1.7179335,4.84411253 1.81908951,4.85082353 1.92008184,4.85082353 C1.92008184,4.85082353 4.65882353,4.85082353 4.65882353,4.85082353 C4.65882353,4.85082353 4.65882353,4.15017903 4.65882353,4.15017903 C4.65882353,4.15017903 1.89986701,4.15017903 1.89986701,4.15017903 C1.28343734,4.15017903 1.05100767,3.99517136 1.05100767,3.62467519 C1.05100767,3.62467519 1.05100767,0 1.05100767,0 C1.05100767,0 0,0 0,0 C0,0 0,3.63138619 0,3.63138619 Z" transform="translate(25.26 10.194)"/>
    <path fill="#E48E00" fill-rule="nonzero" d="M0,3.65921228 C0,3.65921228 0,1.16124808 0,1.16124808 C0,0.526649616 0.445626598,0.141749361 1.32656777,0.0202148338 C1.41773913,0.00679283887 1.51905882,0 1.61014834,0 C1.61014834,0 3.60511509,0 3.60511509,0 C3.70635294,0 3.79760614,0.00679283887 3.89884399,0.0202148338 C4.77986701,0.141749361 5.22541176,0.526649616 5.22541176,1.16124808 C5.22541176,1.16124808 5.22541176,3.65921228 5.22541176,3.65921228 C5.22541176,4.17407673 5.03619437,4.44963683 4.60006138,4.62919693 C4.60006138,4.62919693 5.6353555,5.5636624 5.6353555,5.5636624 C5.6353555,5.5636624 4.4150179,5.5636624 4.4150179,5.5636624 C4.4150179,5.5636624 3.57745269,4.80761125 3.57745269,4.80761125 C3.57745269,4.80761125 2.73424041,4.86105371 2.73424041,4.86105371 C2.73424041,4.86105371 1.61014834,4.86105371 1.61014834,4.86105371 C1.41773913,4.86105371 1.21526343,4.83396419 0.992409207,4.77323785 C0.324092072,4.59097698 0,4.23987724 0,3.65921228 Z M1.13440409,3.59848593 C1.13440409,3.63228645 1.14447059,3.66600512 1.15461893,3.70651662 C1.21534527,3.99680818 1.48877749,4.15885422 1.90395908,4.15885422 C1.90395908,4.15885422 2.85880307,4.15885422 2.85880307,4.15885422 C2.85880307,4.15885422 1.98170844,3.36703836 1.98170844,3.36703836 C1.98170844,3.36703836 3.20204604,3.36703836 3.20204604,3.36703836 C3.20204604,3.36703836 3.9670179,4.05761637 3.9670179,4.05761637 C4.10794885,3.98248593 4.20075703,3.86758056 4.23316624,3.72002046 C4.24323274,3.68630179 4.24323274,3.65250128 4.24323274,3.61878261 C4.24323274,3.61878261 4.24323274,1.22205627 4.24323274,1.22205627 C4.24323274,1.19504859 4.24323274,1.16124808 4.23316624,1.12744757 C4.17235806,0.857452685 3.89892583,0.702199488 3.49389258,0.702199488 C3.49389258,0.702199488 1.90395908,0.702199488 1.90395908,0.702199488 C1.43819949,0.702199488 1.13440409,0.904757033 1.13440409,1.22205627 C1.13440409,1.22205627 1.13440409,3.59848593 1.13440409,3.59848593 Z" transform="translate(19.375 10.203)"/>
    <path fill="#00618A" fill-rule="nonzero" d="M10.9085627,9.00231202 C10.2625064,8.98479795 9.76900256,9.04486957 9.34710997,9.22279284 C9.22721228,9.27337084 9.03603069,9.27468031 9.01647059,9.42494118 C9.08235294,9.49401535 9.09258312,9.59713555 9.14496164,9.68208696 C9.24570844,9.84511509 9.41577494,10.0635499 9.56750895,10.1781279 C9.73331969,10.3032634 9.9042046,10.437156 10.0819642,10.5455141 C10.3981176,10.7383325 10.7510997,10.8484092 11.0555499,11.041555 C11.2349463,11.1553964 11.4131969,11.2987826 11.5882558,11.4272737 C11.6747621,11.4907826 11.7329514,11.5895652 11.8454015,11.6293402 C11.8454015,11.6232839 11.8454015,11.6171458 11.8454015,11.6110077 C11.786312,11.5357954 11.7710895,11.4323478 11.7168286,11.3537801 C11.6372788,11.2742302 11.5576471,11.1945985 11.4780153,11.1149668 C11.2445217,10.8050332 10.9480921,10.5328286 10.6330026,10.3067008 C10.3817494,10.1263223 9.81933504,9.88268031 9.71449616,9.59026087 C9.70835806,9.58412276 9.70230179,9.57798465 9.69608184,9.57184655 C9.87425064,9.5517954 10.0828645,9.48730435 10.2472839,9.44327366 C10.5234987,9.36920716 10.7703325,9.38835806 11.0555499,9.31470077 C11.1841228,9.27795396 11.3126957,9.24112532 11.4413504,9.20446036 C11.4413504,9.17990793 11.4413504,9.15551918 11.4413504,9.13096675 C11.2971458,8.98299744 11.1943529,8.78723274 11.0371355,8.65334015 C10.6258005,8.30305882 10.1768184,7.95310486 9.71449616,7.66129105 C9.45808696,7.49944143 9.14119693,7.39426701 8.86948338,7.25711714 C8.7780665,7.21099949 8.61749361,7.18701995 8.55709463,7.11013811 C8.41436317,6.92814731 8.33661381,6.69749361 8.22653708,6.48553248 C7.99590793,6.04148542 7.76945269,5.55650946 7.56517647,5.08935857 C7.42580051,4.77078261 7.33479284,4.45660153 7.16104348,4.17079488 C6.3269156,2.79939437 5.42903325,1.97162558 4.03813811,1.15800716 C3.74219949,0.984978005 3.38586189,0.916640409 3.00930946,0.827367775 C2.80732481,0.815140665 2.60517647,0.802831714 2.40310997,0.790604604 C2.27977494,0.739052685 2.15144757,0.588153453 2.03572379,0.515028133 C1.57495652,0.223945166 0.393084399,-0.409207161 0.0518056266,0.423193862 C-0.163682864,0.948607673 0.373851662,1.46131969 0.566097187,1.72754169 C0.701053708,1.9143202 0.873820972,2.12371969 0.970230179,2.33375754 C1.03365729,2.4717913 1.04462404,2.6102179 1.09888491,2.75631304 C1.23245013,3.1161289 1.34858312,3.50759284 1.52135038,3.8401555 C1.60867519,4.00839693 1.70492072,4.18566547 1.81532481,4.3361555 C1.88300767,4.42847263 1.99897698,4.46914783 2.01730946,4.61173197 C1.90387724,4.77046343 1.89741176,5.01686343 1.83365729,5.21795601 C1.54655754,6.12324501 1.65483376,7.24848286 2.07247059,7.91848593 C2.20063427,8.12415345 2.50246547,8.56527877 2.91748338,8.39611253 C3.28053197,8.24822506 3.19942711,7.78999488 3.30328389,7.38571458 C3.32677238,7.29403581 3.31236829,7.22666394 3.35836317,7.16528286 C3.35836317,7.1713555 3.35836317,7.17750997 3.35836317,7.18366445 C3.46860358,7.40409616 3.57884399,7.62451969 3.6890844,7.84491049 C3.93379028,8.23905882 4.36812276,8.65096675 4.73616368,8.92890026 C4.9270179,9.07302302 5.07727877,9.32223018 5.32403069,9.40652685 C5.32403069,9.40038875 5.32403069,9.39433248 5.32403069,9.38811253 C5.31781074,9.38811253 5.31175448,9.38811253 5.30561637,9.38811253 C5.25782097,9.31355499 5.1830179,9.28270077 5.12196419,9.22279284 C4.9781688,9.08186189 4.81833248,8.90663939 4.69941688,8.74516624 C4.36468542,8.29070077 4.06882864,7.79326854 3.79932481,7.27549872 C3.67058824,7.02829668 3.558711,6.75551918 3.45018926,6.50391407 C3.40836829,6.40689105 3.40885934,6.2602312 3.32169821,6.20996419 C3.20286445,6.39434476 3.02780563,6.54340256 2.9358977,6.76110895 C2.78891049,7.10909872 2.76992327,7.53348747 2.71549872,7.97356522 C2.6832532,7.98510486 2.69757545,7.97716624 2.67867008,7.9918977 C2.42283376,7.93018926 2.33289003,7.66679898 2.23787212,7.44085934 C1.99734015,6.86940972 1.95265473,5.94925013 2.16429668,5.29148235 C2.21904859,5.12132583 2.46653708,4.58528082 2.36636317,4.42807161 C2.31856777,4.27118159 2.16077749,4.18046854 2.07247059,4.06058721 C1.96321228,3.91240512 1.85411765,3.71731151 1.77849616,3.54619744 C1.58166752,3.10062813 1.48975959,2.6004624 1.28253708,2.15009719 C1.18350895,1.93478056 1.01597954,1.71691049 0.878404092,1.52549974 C0.726097187,1.31346496 0.555539642,1.15728696 0.437524297,0.90082046 C0.395539642,0.809706394 0.338496164,0.663840409 0.400777494,0.57017289 C0.42058312,0.506950384 0.448491049,0.480581074 0.511017903,0.459957033 C0.617575448,0.377797238 0.914332481,0.487292072 1.02530946,0.533409719 C1.31993862,0.655770844 1.56579028,0.772296675 1.81532481,0.937583632 C1.93514066,1.01702711 2.05626598,1.17063529 2.20104348,1.2131601 C2.25612276,1.2131601 2.31128389,1.2131601 2.36636317,1.2131601 C2.6249821,1.2726179 2.91470077,1.23162353 3.15629668,1.30498619 C3.58334527,1.4347867 3.96603581,1.63667315 4.31361637,1.85613913 C5.37248082,2.52470179 6.23819949,3.47642762 6.83040409,4.61173197 C6.92566752,4.79451662 6.9669156,4.96899437 7.05080307,5.16288491 C7.22013299,5.55387417 7.43341176,5.95620665 7.60184143,6.33855345 C7.76994373,6.72003274 7.93379028,7.10502302 8.17137596,7.42247775 C8.29634783,7.58935243 8.77880307,7.67887059 8.99805627,7.77149872 C9.15175448,7.83648082 9.40358056,7.90416368 9.54917647,7.9918977 C9.82727366,8.15967263 10.0966957,8.35936573 10.3575243,8.54309974 C10.4878977,8.63492583 10.8885934,8.8363376 10.9085627,9.00231202 Z" transform="translate(19.936 .03)"/>
    <path fill="#00618A" d="M0.330721228,0.0024797954 C0.19601023,1.994932e-17 0.100746803,0.0171867008 0,0.0391693095 C0,0.045315601 0,0.0514700767 0,0.0575508951 C0.00613810742,0.0575508951 0.0122762148,0.0575508951 0.0184143223,0.0575508951 C0.0826598465,0.189577494 0.196092072,0.274537084 0.275560102,0.388272123 C0.336777494,0.516869565 0.397994885,0.645467008 0.459294118,0.773982609 C0.465350384,0.76790179 0.471570332,0.761755499 0.477626598,0.75567468 C0.591386189,0.675510997 0.643519182,0.547240921 0.642946292,0.351508951 C0.597360614,0.303549872 0.590649616,0.243371867 0.551120205,0.186140153 C0.498578005,0.109896675 0.396930946,0.0665780051 0.330721228,0.0024797954 Z" transform="translate(22.302 2.03)"/>
    <path fill="#E48E00" d="M0,0.774465473 C0,1.23719693 0.365585678,1.54901279 0.774547315,1.54901279 C1.18350895,1.54901279 1.54909463,1.23719693 1.54909463,0.774465473 C1.54909463,0.311815857 1.18350895,0 0.774547315,0 C0.365585678,0 0,0.311815857 0,0.774465473 Z M1.37559079,0.774465473 C1.37559079,1.12556522 1.1071509,1.38794885 0.774547315,1.38794885 C0.437933504,1.38794885 0.173503836,1.12556522 0.173503836,0.774465473 C0.173503836,0.423365729 0.437933504,0.160982097 0.774547315,0.160982097 C1.1071509,0.160982097 1.37559079,0.423365729 1.37559079,0.774465473 Z M0.983242967,1.21649105 C0.983242967,1.21649105 1.15666496,1.21649105 1.15666496,1.21649105 C1.15666496,1.21649105 0.902710997,0.828235294 0.902710997,0.828235294 C1.03897698,0.813749361 1.14217903,0.747621483 1.14217903,0.586557545 C1.14217903,0.40683376 1.02866496,0.332521739 0.80973913,0.332521739 C0.80973913,0.332521739 0.464777494,0.332521739 0.464777494,0.332521739 C0.464777494,0.332521739 0.464777494,1.21649105 0.464777494,1.21649105 C0.464777494,1.21649105 0.613483376,1.21649105 0.613483376,1.21649105 C0.613483376,1.21649105 0.613483376,0.834373402 0.613483376,0.834373402 C0.613483376,0.834373402 0.751877238,0.834373402 0.751877238,0.834373402 C0.751877238,0.834373402 0.983242967,1.21649105 0.983242967,1.21649105 Z M0.613483376,0.710465473 C0.613483376,0.710465473 0.613483376,0.456429668 0.613483376,0.456429668 C0.613483376,0.456429668 0.784859335,0.456429668 0.784859335,0.456429668 C0.87373913,0.456429668 0.98111509,0.472961637 0.98111509,0.576245524 C0.98111509,0.700071611 0.884051151,0.710465473 0.772501279,0.710465473 C0.772501279,0.710465473 0.613483376,0.710465473 0.613483376,0.710465473 Z" transform="translate(30.413 13.55)"/>
  </g>
</svg>
