<svg xmlns="http://www.w3.org/2000/svg" width="32" height="32" viewBox="0 0 32 32">
  <g fill="none" fill-rule="evenodd">
    <circle cx="16" cy="16" r="16" fill="#2DBBB0"/>
    <path fill="#FFF" fill-rule="nonzero" d="M7.44338336,11.44 L0.392905866,11.44 C0.130968622,10.604 1.77635684e-15,9.724 1.77635684e-15,8.8 C1.77635684e-15,7.876 0.130968622,6.996 0.392905866,6.16 L7.44338336,6.16 L12.005457,6.16 C13.4461119,6.16 14.6030014,7.348 14.6030014,8.8 C14.6030014,10.252 13.4461119,11.44 12.005457,11.44 L7.44338336,11.44 Z M7.1159618,12.32 L0.720327422,12.32 C1.39699864,13.882 2.51023192,15.224 3.92905866,16.148 C5.3042292,17.072 6.96316508,17.6 8.73124147,17.6 C11.7653479,17.6 14.4283765,16.038 16,13.684 C15.1923602,12.848 14.0572988,12.32 12.8130969,12.32 L7.1159618,12.32 Z M12.8130969,5.28 C14.0572988,5.28 15.1923602,4.752 16,3.916 C14.4283765,1.562 11.7435198,0 8.73124147,0 C6.96316508,0 5.3042292,0.528 3.92905866,1.452 C2.51023192,2.376 1.39699864,3.718 0.720327422,5.28 L7.1159618,5.28 L12.8130969,5.28 Z" transform="translate(7.733 6.933)"/>
  </g>
</svg>
