<svg xmlns="http://www.w3.org/2000/svg" width="32" height="32" viewBox="0 0 32 32">
  <path fill="#E6522C" d="M15.9065263,0.18722807 C7.12196491,0.18722807 0,7.30835088 0,16.093193 C0,24.8777544 7.12196491,31.9994386 15.9065263,31.9994386 C24.6910877,31.9994386 31.8127719,24.8777544 31.8127719,16.093193 C31.8127719,7.30835088 24.690807,0.18722807 15.9065263,0.18722807 Z M15.9065263,29.9570526 C13.4071579,29.9570526 11.3807719,28.2874386 11.3807719,26.2284912 L20.4322807,26.2284912 C20.4322807,28.2871579 18.4058947,29.9570526 15.9065263,29.9570526 Z M23.381614,24.9936842 L8.43059649,24.9936842 L8.43059649,22.2826667 L23.3818947,22.2826667 L23.3818947,24.9936842 L23.381614,24.9936842 Z M23.328,20.8872982 L8.47326316,20.8872982 C8.42385965,20.8303158 8.37333333,20.7741754 8.32561404,20.7163509 C6.79522807,18.8581053 6.43480702,17.888 6.08477193,16.8993684 C6.07887719,16.866807 7.94049123,17.2797193 9.26063158,17.5767018 C9.26063158,17.5767018 9.93992982,17.7338947 10.9330526,17.9149474 C9.97950877,16.797193 9.41333333,15.3762807 9.41333333,13.9239298 C9.41333333,10.7354386 11.858807,7.94919298 10.9765614,5.69712281 C11.8352281,5.76701754 12.7536842,7.50933333 12.8157193,10.2335439 C13.7285614,8.97207018 14.1105965,6.66835088 14.1105965,5.25585965 C14.1105965,3.79340351 15.0742456,2.09459649 16.0381754,2.03649123 C15.1789474,3.45263158 16.2607719,4.66666667 17.2224561,7.67831579 C17.5831579,8.80954386 17.5371228,10.7132632 17.8155789,11.9205614 C17.9079298,9.41305263 18.3390877,5.75438596 19.9298246,4.49122807 C19.2280702,6.08196491 20.0336842,8.07242105 20.5847018,9.02933333 C21.4736842,10.573193 22.0126316,11.7428772 22.0126316,13.9550877 C22.0126316,15.4383158 21.4649825,16.834807 20.541193,17.9264561 C21.5915789,17.7294035 22.3169123,17.5517193 22.3169123,17.5517193 L25.728,16.8861754 C25.7282807,16.8858947 25.2325614,18.9243509 23.328,20.8872982 Z"/>
</svg>
