<svg xmlns="http://www.w3.org/2000/svg" xmlns:xlink="http://www.w3.org/1999/xlink" width="32" height="32" viewBox="0 0 32 32">
  <g fill="none" fill-rule="evenodd" transform="translate(0 -1)">
    <g transform="translate(6 .994)">
      <mask fill="#fff">
        <polygon points=".5 .007 19.5 .007 19.5 20.932 .5 20.932"/>
      </mask>
      <path fill="#22A7F3" fill-rule="nonzero" d="M19.5,9.5067 C19.5,16.1557 10,20.9317 10,20.9317 C10,20.9317 0.5,16.1557 0.5,9.5067 C0.5,4.2597 4.753,0.0067 10,0.0067 C15.247,0.0067 19.5,4.2597 19.5,9.5067" mask="url(#logo_maps-b)"/>
    </g>
    <path class="euiIcon__fillNegative" fill-rule="nonzero" d="M16,21.925 C16,21.925 20.326,19.742 23.141,16.28 L20.636,14.402 C17.889,12.341 14.111,12.341 11.364,14.402 L8.859,16.28 C11.674,19.742 16,21.925 16,21.925"/>
    <g transform="translate(0 17.994)">
      <mask fill="#fff">
        <polygon points="0 .079 32 .079 32 15 0 15"/>
      </mask>
      <path fill="#FA744E" fill-rule="nonzero" d="M25.5303,0.079 C24.7343,1.077 23.8013,2.055 22.6963,2.996 C20.0763,5.23 17.4573,6.557 17.3473,6.612 L16.0003,7.289 L14.6523,6.612 C14.5433,6.557 11.9243,5.23 9.3033,2.996 C8.1993,2.055 7.2653,1.077 6.4693,0.079 L0.0003,4.932 L11.3643,13.455 C14.1113,15.516 17.8883,15.516 20.6353,13.455 L32.0003,4.932 L25.5303,0.079 Z" mask="url(#logo_maps-d)"/>
    </g>
  </g>
</svg>
