<svg xmlns="http://www.w3.org/2000/svg" width="32" height="32" viewBox="0 0 32 32">
  <defs>
    <linearGradient id="logo_memcached-a" x1="50%" x2="50%" y1="100%" y2="0%">
      <stop offset="0%" stop-color="#574C4A"/>
      <stop offset="100%" stop-color="#80716D"/>
    </linearGradient>
    <linearGradient id="logo_memcached-b" x1="88.778%" x2="30.149%" y1="98.342%" y2="-8.68%">
      <stop offset="0%" stop-color="#268D83"/>
      <stop offset="100%" stop-color="#2EA19E"/>
    </linearGradient>
    <radialGradient id="logo_memcached-c" cx="41.406%" cy="42.708%" r="0%" fx="41.406%" fy="42.708%">
      <stop offset="0%" stop-color="#DB7C7C"/>
      <stop offset="100%" stop-color="#C83737"/>
    </radialGradient>
    <radialGradient id="logo_memcached-d" cx="44.271%" cy="42.708%" r="0%" fx="44.271%" fy="42.708%">
      <stop offset="0%" stop-color="#DB7C7C"/>
      <stop offset="100%" stop-color="#C83737"/>
    </radialGradient>
  </defs>
  <g fill="none">
    <path fill="url(#logo_memcached-a)" d="M0,21.5672441 L0,10.352126 C0,1.29398425 1.29259843,0 10.3415433,0 L21.5779528,0 C30.6267717,0 31.9193701,1.29398425 31.9193701,10.352252 L31.9193701,21.5672441 C31.9193701,30.6255118 30.6267717,31.9193701 21.5778268,31.9193701 L10.3415433,31.9193701 C1.29272441,31.9193701 0,30.6255118 0,21.5672441 Z"/>
    <path fill="url(#logo_memcached-b)" d="M6.88894488,6.01612598 C5.32006299,15.959811 6.14085039,25.2696693 6.14085039,25.2696693 L11.0451654,25.2696693 C10.5785197,22.7872756 8.90444094,11.4461732 10.2970709,11.4087559 C11.0434016,11.5271811 14.4532913,21.0302992 14.4532913,21.0302992 C14.4532913,21.0302992 15.2041575,20.9368189 15.959811,20.9368189 C16.7154646,20.9368189 17.4664567,21.0302992 17.4664567,21.0302992 C17.4664567,21.0302992 20.8763465,11.5273071 21.6226772,11.4087559 C23.0151811,11.4461732 21.3411024,22.7872756 20.8745827,25.2695433 L25.7787717,25.2695433 C25.7787717,25.2695433 26.599685,15.959811 25.0306772,6.01612598 L20.4900787,6.01612598 C19.6258268,6.02633071 16.3376378,11.7931339 15.959811,11.7931339 C15.5819843,11.7931339 12.2937953,6.02633071 11.4295433,6.01612598 L6.88907087,6.01612598 L6.88894488,6.01612598 Z"/>
    <path fill="url(#logo_memcached-c)" d="M14.9926299,24.1089764 C14.9926299,24.7500442 14.4729418,25.2697323 13.831874,25.2697323 C13.1908062,25.2697323 12.6711181,24.7500442 12.6711181,24.1089764 C12.6711181,23.4679086 13.1908062,22.9482205 13.831874,22.9482205 C14.4729418,22.9482205 14.9926299,23.4679086 14.9926299,24.1089764 Z"/>
    <path fill="url(#logo_memcached-d)" d="M19.2485039,24.1089764 C19.2485039,24.7500094 18.728844,25.2696693 18.087811,25.2696693 C17.446778,25.2696693 16.9271181,24.7500094 16.9271181,24.1089764 C16.9271181,23.4679434 17.446778,22.9482835 18.087811,22.9482835 C18.728844,22.9482835 19.2485039,23.4679434 19.2485039,24.1089764 Z"/>
    <path fill="#000" d="M24.7994961,6.3448189 C25.5072756,11.1354961 25.6733228,15.7331654 25.6603465,19.1580472 C25.6469921,22.6611654 25.4462992,24.9370709 25.4462992,24.9370709 L21.3181732,24.9370709 L20.8745827,25.2696693 L25.7787717,25.2696693 C25.7787717,25.2696693 26.599685,15.959811 25.0306772,6.01612598 L24.7994961,6.34494488 L24.7994961,6.3448189 Z M11.8037165,6.22387402 C13.0920315,7.65707087 15.320315,11.4606614 15.6273386,11.4606614 C14.8104567,10.416 12.8039055,7.08296063 11.8037165,6.22387402 Z M9.96459843,11.0762835 C8.5719685,11.1137008 10.2460472,22.4548031 10.7126929,24.9370709 L6.43149606,24.9370709 L6.14085039,25.2696693 L11.0451654,25.2696693 C10.5809134,22.799874 8.9215748,11.5594331 10.2762835,11.4087559 C10.1500472,11.2192756 10.0411969,11.088378 9.96459843,11.0761575 L9.96459843,11.0762835 Z M21.2900787,11.0762835 C20.543874,11.1947087 17.1338583,20.6978268 17.1338583,20.6978268 C17.1338583,20.6978268 16.3829921,20.6043465 15.6273386,20.6043465 C15.1802205,20.6043465 14.7953386,20.631811 14.5350551,20.656 L14.4531654,21.0302992 C14.4531654,21.0302992 15.2041575,20.9368189 15.959937,20.9368189 C16.7154646,20.9368189 17.4664567,21.0302992 17.4664567,21.0302992 C17.4664567,21.0302992 20.8506457,11.5895433 21.6122205,11.4087559 C21.5302047,11.2008819 21.4287874,11.079937 21.2900787,11.0761575 L21.2900787,11.0762835 Z" opacity=".1"/>
    <path fill="#FFF" d="M6.88894488,6.01612598 C5.32006299,15.959811 6.14085039,25.2696693 6.14085039,25.2696693 L6.4296063,24.9448819 C6.28182677,22.7484724 5.88711811,14.8056693 7.22141732,6.34847244 L11.7621417,6.34847244 C11.8582677,6.34973228 11.9872756,6.42847244 12.136189,6.55634646 C11.8388661,6.22551181 11.591685,6.01788976 11.4295433,6.01587402 L6.88907087,6.01587402 L6.88894488,6.01612598 Z M20.4900787,6.01612598 C19.6258268,6.02633071 16.3376378,11.7932598 15.959811,11.7932598 C16.1138898,11.9902992 16.2389921,12.1257323 16.2924094,12.1257323 C16.6701102,12.1257323 19.9582992,6.35880315 20.8225512,6.34859843 L24.8296063,6.34859843 L25.0306772,6.016 L20.4900787,6.016 L20.4900787,6.01612598 Z M10.6087559,11.7412283 C11.711748,13.3976693 14.4531654,21.0302992 14.4531654,21.0302992 L14.5334173,20.6581417 C13.8566299,18.8021417 11.2774803,11.8441575 10.6295433,11.7412283 C10.6224882,11.7414803 10.615685,11.7404724 10.6087559,11.7412283 Z M21.9551496,11.7412283 C22.6949291,13.6280945 21.2944882,23.0355906 20.8745827,25.2696693 L21.3193071,24.9223307 C21.8872441,21.5905512 23.2548031,11.776252 21.9551496,11.7412283 Z" opacity=".3"/>
  </g>
</svg>
