<svg width="32" height="32" viewBox="0 0 32 32" fill="none" xmlns="http://www.w3.org/2000/svg">
<path d="M25.4712 27.5603C24.4105 26.9928 23.7952 26.3537 23.6599 25.6575C23.53 24.9846 23.8297 24.2367 24.5782 23.3702C26.3663 21.3189 27.3508 18.6828 27.3508 15.9493C27.3468 12.9513 26.1541 10.0772 24.0341 7.95725C21.9142 5.83733 19.0401 4.64458 16.0421 4.64054L15.9924 4.64121L15.9413 4.64054C12.9434 4.64475 10.0695 5.83758 7.94973 7.95749C5.82994 10.0774 4.63729 12.9514 4.63325 15.9493C4.63089 18.6769 5.61602 21.3132 7.40657 23.3709C8.1604 24.2434 8.4541 24.9621 8.33476 25.6277C8.20482 26.3219 7.5942 26.9703 6.51815 27.5584C4.86066 26.1826 3.40207 24.3455 2.50835 22.5023C2.0201 21.5008 1.64539 20.4479 1.3912 19.3631C1.1304 18.2437 0.999146 17.098 1.00003 15.9486C0.996076 13.9495 1.39543 11.9701 2.1742 10.1288C2.92802 8.34935 4.00539 6.7502 5.37846 5.37846C6.74034 4.01373 8.35375 2.92581 10.1295 2.17486C11.9704 1.39578 13.9496 0.996192 15.9486 1.00003H16.0501C18.0493 0.996284 20.0287 1.39586 21.8698 2.17486C23.6493 2.92802 25.2485 4.00473 26.6209 5.37846C27.9858 6.73993 29.0737 8.35316 29.8245 10.1288C30.6037 11.97 31.0035 13.9494 31 15.9486C31 17.1009 30.8674 18.2492 30.6022 19.3631C30.3484 20.4481 29.9734 21.5011 29.4844 22.5023C28.584 24.3455 27.1261 26.184 25.4732 27.5597L25.4712 27.5603ZM19.9485 30.3575C19.7748 30.2481 19.1814 29.8072 18.6026 29.005C18.0477 28.2393 17.3946 26.9683 17.4291 25.267C17.4486 24.25 17.6559 23.2452 18.0404 22.3034C18.4253 21.3653 18.9764 20.5044 19.6674 19.7622L19.6713 19.7555L19.8252 19.5765C20.0884 19.2716 20.3609 18.9553 20.5777 18.5867C20.8455 18.1332 21.0398 17.6558 21.1558 17.1679C21.3342 16.4088 21.3442 15.6199 21.185 14.8567C21.0378 14.1592 20.7408 13.4843 20.3271 12.9008C19.9214 12.3318 19.4077 11.8482 18.8154 11.4774C18.196 11.0923 17.5034 10.8401 16.7813 10.7368C16.5347 10.7017 16.2859 10.6839 16.0368 10.6838H15.9294C15.6807 10.6836 15.4324 10.7011 15.1862 10.7361C14.4642 10.8396 13.7716 11.0918 13.1521 11.4767C12.5595 11.8474 12.0457 12.3311 11.6398 12.9002C11.2246 13.4873 10.9329 14.1527 10.7825 14.856C10.6231 15.6193 10.6333 16.4083 10.8124 17.1672C10.9277 17.6552 11.1227 18.1319 11.3892 18.586C11.608 18.9553 11.8798 19.2702 12.1424 19.5759L12.2968 19.7549L12.3001 19.7615C12.9989 20.514 13.5466 21.3693 13.9278 22.3028C14.3124 23.2443 14.5195 24.2489 14.5384 25.2657C14.5729 26.967 13.9198 28.2379 13.3649 29.0037C12.7855 29.7993 12.1914 30.2468 12.019 30.3562L11.1525 30.0956C10.2933 29.8079 9.45722 29.4326 8.66162 28.9977C10.0274 28.2684 10.8959 26.8271 10.8959 25.2624C10.8959 24.2281 10.4935 23.2336 9.70054 22.3121C9.6886 22.2988 9.67667 22.2869 9.66739 22.2776L9.43004 22.0177L8.79356 21.2718C8.06922 20.3002 7.55038 19.1912 7.26866 18.0125C6.96615 16.7302 6.9494 15.397 7.2196 14.1075C7.46823 12.926 7.97078 11.787 8.6782 10.7938C9.35578 9.8391 10.2389 9.00837 11.2307 8.38979C12.2807 7.73729 13.4546 7.3097 14.6783 7.13407C15.0938 7.07466 15.513 7.04519 15.9327 7.0459H16.0454C16.4653 7.04544 16.8847 7.0749 17.3005 7.13407C18.5241 7.3097 19.6981 7.73729 20.7481 8.38979C21.7487 9.01597 22.6165 9.83281 23.3019 10.7938C24.002 11.7797 24.5046 12.926 24.7605 14.1075C25.0295 15.3994 25.0126 16.7345 24.7108 18.0192C24.4287 19.198 23.9094 20.3069 23.1846 21.2785C22.9857 21.5436 22.7762 21.7737 22.5481 22.0243L22.318 22.2782C22.3015 22.2935 22.2889 22.3048 22.2783 22.3207C21.474 23.282 21.0829 24.248 21.0829 25.269C21.0842 26.0355 21.2929 26.7873 21.6867 27.4449C22.0805 28.1025 22.6448 28.6413 23.3198 29.0044C22.5247 29.4454 21.6909 29.8129 20.8289 30.1023L19.967 30.3628L19.9485 30.3575ZM15.9917 19.0435C15.2093 19.0421 14.4594 18.7307 13.9061 18.1774C13.3529 17.6242 13.0415 16.8742 13.0401 16.0918C13.0415 15.3094 13.3529 14.5595 13.9061 14.0062C14.4594 13.453 15.2093 13.1416 15.9917 13.1402C16.774 13.1417 17.5238 13.4532 18.0769 14.0065C18.63 14.5597 18.9413 15.3095 18.9427 16.0918C18.9413 16.8741 18.63 17.624 18.0769 18.1772C17.5238 18.7304 16.774 19.0419 15.9917 19.0435" fill="#F05C56"/>
</svg>
