<svg xmlns="http://www.w3.org/2000/svg" width="32" height="32" viewBox="0 0 32 32">
  <g fill="#090" transform="translate(0 12)">
    <path d="M.853025143 2.44991502L.853025143 6.172392C.853025143 6.56688111.533228536 6.88667771.138739429 6.88667771-.255749678 6.88667771-.575546286 6.56688111-.575546286 6.172392L-.575546286.725336286C-.575546286.0889558419.193881782-.229725739.643844791.220289105L4.870882 4.44781327 4.870882.725336286C4.870882.330847179 5.19067861.0110505714 5.58516771.0110505714 5.97965682.0110505714 6.29945343.330847179 6.29945343.725336286L6.29945343 6.172392C6.29945343 6.80877244 5.53002536 7.12745403 5.08006235 6.67743918L.853025143 2.44991502zM8.89292857.01808L8.6965.384151429 7.17864286 3.14308 6.98221429 3.49129429 7.17864286 3.83950857 8.6965 6.50915143 8.90185714 6.87522286 9.3215 6.87522286 12.4286429 6.87522286 12.8750714 6.87522286 13.0715 6.47343714 14.2054286 4.18772286 14.7143571 3.15200857 13.5625714 3.15200857 10.6607857 3.16093714C10.2834194 3.1556 9.93632714 3.49781886 9.93632714 3.87522286 9.93632714 4.25262686 10.2834194 4.59484543 10.6607857 4.58950857L12.4107857 4.58058 11.9822143 5.44665143 9.73221429 5.44665143 8.61614286 3.48236571 9.74114286 1.44665143 12.1346346 1.44665143 12.6926703 2.59174057 14.1301703 2.59174057 13.2239203.419865714 13.0274917.01808 12.5810631.01808 9.3215.01808 8.89292857.01808zM16.1290091.00915142857C15.7550123.0138342857 15.4189851.358368857 15.423652.732365714L15.423652 2.593654 16.8522234 2.593654 16.8522234.732365714C16.8569634.352416857 16.508958.00441057143 16.1290091.00915142857z"/>
    <path d="M0.727953714,1.91397787 L0.727953714,5.63645486 C0.727953714,6.03094396 0.408157107,6.35074057 0.013668,6.35074057 C-0.380821107,6.35074057 -0.700617714,6.03094396 -0.700617714,5.63645486 L-0.700617714,0.189399143 C-0.700617714,-0.446981301 0.0688103536,-0.765662882 0.518773362,-0.315648038 L4.74581057,3.91187613 L4.74581057,0.189399143 C4.74581057,-0.205089964 5.06560718,-0.524886571 5.46009629,-0.524886571 C5.85458539,-0.524886571 6.174382,-0.205089964 6.174382,0.189399143 L6.174382,5.63645486 C6.174382,6.2728353 5.40495393,6.59151688 4.95499092,6.14150204 L0.727953714,1.91397787 Z" transform="matrix(-1 0 0 1 23.88 .55)"/>
    <g transform="translate(25.87 .63)">
      <path d="M-0.244373688,0.612879868 C-0.523809343,0.334424539 -0.524604054,-0.117835462 -0.246148725,-0.397271117 C0.0323066037,-0.676706772 0.484566605,-0.677501483 0.76400226,-0.399046154 L6.21680512,5.03462699 C6.49624077,5.31308232 6.49703548,5.76534232 6.21858015,6.04477797 C5.94012482,6.32421363 5.48786482,6.32500834 5.20842917,6.04655301 L-0.244373688,0.612879868 Z"/>
      <path d="M-0.244373688,0.612879868 C-0.523809343,0.334424539 -0.524604054,-0.117835462 -0.246148725,-0.397271117 C0.0323066037,-0.676706772 0.484566605,-0.677501483 0.76400226,-0.399046154 L6.21680512,5.03462699 C6.49624077,5.31308232 6.49703548,5.76534232 6.21858015,6.04477797 C5.94012482,6.32421363 5.48786482,6.32500834 5.20842917,6.04655301 L-0.244373688,0.612879868 Z" transform="matrix(-1 0 0 1 5.979 0)"/>
    </g>
    <path d="M16.1290091,6.87995686 C15.7550123,6.875274 15.4189851,6.53073943 15.423652,6.15674257 L15.423652,3.16692457 L16.8522234,3.16692457 L16.8522234,6.15674257 C16.8569634,6.53669143 16.508958,6.88469771 16.1290091,6.87995686 Z"/>
  </g>
</svg>
