<svg xmlns="http://www.w3.org/2000/svg" width="32" height="32" viewBox="0 0 32 32">
  <defs>
    <linearGradient id="logo_apache-a" x1="83.946%" x2="-54.341%" y1="39.21%" y2="93.091%">
      <stop offset="0%" stop-color="#282662"/>
      <stop offset="9.548%" stop-color="#662E8D"/>
      <stop offset="78.82%" stop-color="#9F2064"/>
      <stop offset="94.87%" stop-color="#CD2032"/>
    </linearGradient>
    <linearGradient id="logo_apache-b" x1="76.264%" x2="-38.571%" y1="83.275%" y2="-12.192%">
      <stop offset="0%" stop-color="#F69923"/>
      <stop offset="31.23%" stop-color="#F79A23"/>
      <stop offset="83.83%" stop-color="#E97826"/>
    </linearGradient>
    <linearGradient id="logo_apache-c" x1="424.145%" x2="13.08%" y1="-170.194%" y2="82.017%">
      <stop offset="32.33%" stop-color="#9E2064"/>
      <stop offset="63.02%" stop-color="#C92037"/>
      <stop offset="75.14%" stop-color="#CD2335"/>
      <stop offset="100%" stop-color="#E97826"/>
    </linearGradient>
    <linearGradient id="logo_apache-d" x1="186.182%" x2="-55.105%" y1="-16.929%" y2="107.746%">
      <stop offset="32.33%" stop-color="#9E2064"/>
      <stop offset="63.02%" stop-color="#C92037"/>
      <stop offset="75.14%" stop-color="#CD2335"/>
      <stop offset="100%" stop-color="#E97826"/>
    </linearGradient>
    <linearGradient id="logo_apache-e" x1="168.562%" x2="-36.487%" y1="-25.193%" y2="95.315%">
      <stop offset="32.33%" stop-color="#9E2064"/>
      <stop offset="63.02%" stop-color="#C92037"/>
      <stop offset="75.14%" stop-color="#CD2335"/>
      <stop offset="100%" stop-color="#E97826"/>
    </linearGradient>
    <linearGradient id="logo_apache-f" x1="361.539%" x2="24.407%" y1="-112.855%" y2="62.315%">
      <stop offset="32.33%" stop-color="#9E2064"/>
      <stop offset="63.02%" stop-color="#C92037"/>
      <stop offset="75.14%" stop-color="#CD2335"/>
      <stop offset="100%" stop-color="#E97826"/>
    </linearGradient>
    <linearGradient id="logo_apache-g" x1="173.271%" x2="-94.406%" y1="-9.428%" y2="109.132%">
      <stop offset="0%" stop-color="#282662"/>
      <stop offset="9.548%" stop-color="#662E8D"/>
      <stop offset="78.82%" stop-color="#9F2064"/>
      <stop offset="94.87%" stop-color="#CD2032"/>
    </linearGradient>
  </defs>
  <g fill="none" fill-rule="evenodd" transform="translate(0 12)">
    <path fill="url(#logo_apache-a)" fill-rule="nonzero" d="M20.8787768,5.56132854 C21.5260263,5.25493653 22.1470882,4.91800719 22.7354475,4.54400319 C22.7560738,4.53046291 22.7769741,4.5184725 22.7975984,4.50493253 C22.5576112,5.11481677 22.6750212,6.18429381 22.6777198,6.17966307 C23.0561629,5.07112814 23.5245062,4.09567106 24.2344144,3.47556727 C24.5053158,3.7180519 24.7109972,4.17273293 24.8799713,4.74924391 C24.9635992,3.95566307 24.8206339,3.51229381 24.7505852,3.35047345 C25.0992319,3.76398244 25.7321102,3.99481677 26.412701,4.19550339 C25.6479585,3.73127984 25.1418986,3.2732519 24.9435114,2.82368703 C27.1251321,2.15245349 29.487703,1.34961118 31.968182,0.459583234 C31.7736112,0.312961277 31.5645413,0.294492615 31.3472798,0.358326547 C30.8994395,0.52125509 27.9550244,1.58186347 23.9495952,2.79326467 C23.83581,2.82768543 23.7210379,2.86196248 23.605707,2.89665788 C23.5735569,2.90647441 23.5409916,2.91572631 23.50941,2.92512415 C23.0886834,3.05131976 22.6578012,3.17802315 22.2172104,3.30580279 C22.1168255,3.33466794 22.0164439,3.36353373 21.9154938,3.39281916 C21.9133764,3.39351792 21.9112636,3.39420327 21.9097115,3.39447984 L20.8074679,5.59599681 C20.8301905,5.58528351 20.8551773,5.57288846 20.8790304,5.56133653 L20.8787768,5.56132854 Z"/>
    <path fill="url(#logo_apache-b)" fill-rule="nonzero" d="M0.64525988,7.92166068 C1.25431377,8.15147625 1.91018603,8.21178443 2.5529006,8.28170858 C2.93147146,8.31758563 3.3110004,8.34284072 3.69078483,8.36131257 C3.95167745,7.81507705 4.21255729,7.26887345 4.47347545,6.72263792 C3.46777485,6.74999058 2.45872096,6.72826443 1.45892854,6.60958084 C2.44712814,6.70867864 3.44334371,6.66864351 4.43310818,6.61501222 C3.71869701,5.76330762 2.93501637,4.97260104 2.13594251,4.20102419 C1.38483673,4.57911601 0.657587226,5.10641341 0.263399601,5.86949525 C0.0621988024,6.33403816 -0.0543904192,6.8765691 0.109435529,7.36988647 C0.197457884,7.62199026 0.398936527,7.82210204 0.6451002,7.92164695 L0.64525988,7.92166068 Z"/>
    <path d="M20.3735473,3.50901397 C20.3488747,3.51591633 20.3242028,3.52281772 20.2999505,3.53028535 C19.7915593,3.6741576 19.2957509,3.81134244 18.8103537,3.94251689 C18.2657788,4.08956679 17.7364375,4.22881788 17.2207968,4.36052886 C16.6773717,4.49970331 16.1497868,4.63065741 15.6374355,4.75382228 C15.0999824,4.88331689 14.5794874,5.00375441 14.0761741,5.11668056 C13.6665932,5.2083117 13.2683178,5.29507577 12.8809325,5.3764107 C12.7521246,5.40357142 12.6238818,5.4303125 12.4967729,5.45621589 C12.2450842,5.50789493 11.997196,5.55762587 11.7551202,5.60569613 C11.5312032,5.64992766 11.3116551,5.69178954 11.0953517,5.73212168 C11.0233453,5.74608255 10.9520479,5.75863952 10.8806068,5.77218236 C10.8691928,5.77451222 10.8573586,5.77627721 10.8459433,5.77860727 L10.9170267,5.85557653 L10.8353246,6.0195398 C10.8529386,6.01611752 10.8704064,6.01368048 10.8884407,6.01082411 C11.2153389,5.95421094 11.5436423,5.89479058 11.8733509,5.83255984 C12.0638627,5.79644966 12.2549557,5.75991792 12.4461573,5.72240575 C12.976297,5.61849198 13.5077142,5.5092321 14.0394507,5.39448559 C14.576808,5.27906842 15.1135265,5.15801453 15.6482651,5.03316024 C16.1735824,4.91091832 16.6965046,4.78430116 17.2162012,4.65570715 C17.7349078,4.52695345 18.2495904,4.39508279 18.7589078,4.26190275 C19.2907721,4.12252391 19.8153549,3.98155784 20.3316024,3.83884487 C20.4480511,3.8068289 20.5644966,3.77481613 20.6805365,3.74223489 C21.0967281,3.6264313 21.5058619,3.51058619 21.9089277,3.39483369 L22.0384543,3.13583808 L21.9586938,3.0495307 C21.9465689,3.05326499 21.9344415,3.056998 21.9228806,3.06031234 C21.3945932,3.21632032 20.8782818,3.36605924 20.3735313,3.50895106 L20.3735473,3.50901397 Z"/>
    <path fill="url(#logo_apache-c)" fill-rule="nonzero" d="M9.29682076,6.26657086 C8.7551521,6.34663154 8.21983872,6.41758084 7.6930523,6.47872255 C7.14624192,6.54242874 6.60866108,6.59492216 6.08296048,6.63509461 C6.0524008,6.63760064 6.02085749,6.63996008 5.98973253,6.64288543 C5.47179242,6.68169421 4.96573253,6.70818204 4.47311776,6.72207425 L3.69042715,8.3607489 C3.79132934,8.36566898 3.89335888,8.3697517 3.99735888,8.37412599 C4.38860838,8.38895361 4.80438483,8.39786347 5.23973812,8.40012487 C5.73043673,8.40255042 6.24764232,8.39583265 6.78416926,8.38091593 C7.27988184,8.36647792 7.79338283,8.34411273 8.31873214,8.31294946 C8.76593373,8.28627896 9.22303553,8.25403369 9.68681198,8.21422212 C9.70413413,8.21276902 9.72091976,8.21172535 9.73824192,8.21027321 C10.1636311,7.50224926 10.4692599,6.75008958 10.8347689,6.01999776 C10.3179465,6.10878339 9.80511617,6.19112112 9.29682076,6.2665798 L9.29682076,6.26657086 Z"/>
    <path fill="url(#logo_apache-d)" fill-rule="nonzero" d="M20.3310723,3.83929741 C19.8143776,3.98143234 19.2898267,4.1224016 18.7583776,4.26235529 C18.2494754,4.39608782 17.7349525,4.52697485 17.2156711,4.65615968 C16.6963896,4.78533174 16.1735952,4.91096527 15.6477349,5.03361277 C15.1129964,5.15847665 14.5758627,5.27896208 14.0389206,5.39493812 C13.5077589,5.50926307 12.9757669,5.61894132 12.4456271,5.72285828 C12.2544032,5.76037365 12.0633198,5.7969022 11.8728208,5.83301238 C11.5430802,5.89523992 11.2147768,5.95466028 10.8879106,6.01127665 C10.8702959,6.0146986 10.8528287,6.01713565 10.8347944,6.01999202 L9.73842715,8.21026747 C9.77307146,8.20736128 9.80729741,8.20389046 9.84194172,8.20098523 C10.3334387,8.15724551 10.8324407,8.10707066 11.3358818,8.04749062 C11.8443689,7.98765509 12.3567202,7.91883273 12.870796,7.84171657 C13.3045525,7.77682555 13.7382451,7.70587944 14.1713629,7.62831617 C14.2592894,7.6121913 14.3456639,7.59633852 14.4326068,7.58006707 C14.974978,7.47847186 15.489501,7.36771417 15.9771976,7.25144431 C16.5295649,7.11964072 17.0473772,6.98018523 17.5295808,6.83643433 C17.8469621,6.74218443 18.1495888,6.64574052 18.4375569,6.54963832 C18.6815457,6.46511936 18.924008,6.3773525 19.1628263,6.28703393 C19.7266267,6.07491737 20.275481,5.84497405 20.8075369,5.59593613 C21.1792735,4.87376447 21.5634331,4.14003194 21.9097804,3.39441916 C21.5066826,3.51015569 21.0964311,3.62683433 20.6802395,3.7426507 C20.5647745,3.77481038 20.4477637,3.80724471 20.3313054,3.83926068 L20.3310723,3.83929741 Z"/>
    <path fill="url(#logo_apache-e)" fill-rule="nonzero" d="M10.8811721,5.77178571 C10.9520479,5.75866347 11.0234922,5.74512192 11.095917,5.73172822 C11.3117924,5.69083082 11.5313341,5.64896894 11.7556854,5.60530267 C11.998202,5.55779449 12.2451066,5.50791984 12.4973381,5.45582244 C12.6244503,5.42991936 12.7517094,5.40303202 12.8814978,5.37601725 C13.268915,5.29468232 13.6671904,5.20791505 14.0767393,5.11628711 C14.5800208,5.00335457 15.1005477,4.88291705 15.6380008,4.75342882 C16.1503521,4.63027034 16.6779689,4.49931625 17.2213621,4.36013541 C17.7370028,4.22840846 18.266919,4.088739 18.810919,3.94212343 C19.2962842,3.81093621 19.7921246,3.67375138 20.3005158,3.5298919 C20.3251877,3.52298954 20.3498603,3.51608814 20.3741126,3.50862052 C20.8788311,3.36571273 21.3951425,3.21597381 21.9224719,3.05982212 C21.934598,3.05608878 21.9467242,3.05235481 21.958285,3.04904016 L21.3469317,2.38872878 C21.3545804,2.40495872 21.3637876,2.42091721 21.3714395,2.43714715 C20.6274555,1.65701142 19.1384655,0.991143154 17.7984255,0.840436567 C17.1808447,0.7708701 16.5211721,0.781587864 15.805196,0.869978762 C15.272182,0.935732056 14.7080942,1.04466619 14.1064814,1.19633405 C13.580685,1.32856559 13.0265932,1.49231489 12.4399265,1.68894882 C12.6902451,1.80913405 12.9342339,1.97869573 13.1722539,2.18862148 C13.213576,2.22544703 13.2557349,2.26340631 13.2971848,2.30276758 C13.3386347,2.34212886 13.3799377,2.38247377 13.4205285,2.42422387 C13.4201453,2.4236586 13.4191202,2.42351489 13.4187114,2.42294643 C12.5166116,1.85026778 11.5465517,1.78620391 10.5453222,1.95904224 C10.845279,2.06345421 11.2875816,2.26648495 11.6823441,2.60986858 C11.736281,2.65661988 11.7882283,2.70659353 11.8394635,2.75797557 C11.8526237,2.7709988 11.8653643,2.78345613 11.8775409,2.79633405 C11.8771577,2.7957691 11.8765541,2.79619034 11.8761325,2.79562603 C11.8761325,2.79562603 11.8757493,2.79506108 11.8751457,2.79548232 C11.5524311,2.60367074 11.2484631,2.46545437 10.9437605,2.37593741 C10.8786938,2.35671633 10.8133333,2.33946315 10.7475321,2.32516535 C10.6477126,2.30279601 10.5475832,2.28591585 10.446301,2.2733905 C10.381592,2.26529118 10.3165956,2.25916136 10.2507369,2.25541972 C10.0966515,2.24612407 9.93898922,2.24736543 9.77562315,2.25983649 C9.72577405,2.26350275 9.67577485,2.26815393 9.6246483,2.27364279 C9.5534978,2.28521517 9.48431776,2.29708008 9.41612136,2.3090919 C9.10810699,2.36398052 8.84117525,2.42345836 8.61196966,2.48300327 C8.49736367,2.51277637 8.39289741,2.5420404 8.29743393,2.5716388 C8.25950659,2.58311281 8.22255968,2.59473309 8.18716487,2.60608192 C8.081402,2.6406879 7.98902036,2.67325956 7.90945788,2.70421206 C7.79039681,2.75043002 7.69965669,2.79229828 7.63584511,2.8255885 C7.6774483,2.83679745 7.72198962,2.85196455 7.76889421,2.87150627 C8.09304591,3.00617772 8.53188024,3.32391345 8.84166068,3.61290347 L8.28012774,3.00675577 L8.84166068,3.61290347 C8.84656415,3.61715353 8.85090236,3.62182323 8.85580583,3.62607297 C8.8861905,3.655238 8.91643018,3.68538794 8.94723257,3.71511729 C8.93979529,3.71099433 8.93319537,3.70959776 8.92632335,3.70505613 L10.8477285,5.77739146 C10.8585779,5.77548091 10.8694272,5.7735703 10.8812615,5.77180519 L10.8811721,5.77178571 Z"/>
    <path fill="url(#logo_apache-f)" fill-rule="nonzero" d="M4.43326786,6.61400399 C4.89020998,6.58626076 5.40281677,6.54615569 5.97393054,6.48807345 C6.00350531,6.48542084 6.03421317,6.48193086 6.0643513,6.47885988 C6.55843513,6.42795369 7.09550499,6.36532056 7.67674251,6.28660439 C8.17881038,6.21927345 8.71271856,6.14057645 9.28137325,6.04841836 C9.77673453,5.96852375 10.2997525,5.87863952 10.8476168,5.77735729 L8.94773653,3.71527345 C8.15776447,3.28199601 7.64407186,3.17893812 7.03664671,3.18682635 C6.87136128,3.19196774 6.70058283,3.20031553 6.52624351,3.21216287 C5.99255888,3.24863393 5.42543713,3.31687186 4.87821158,3.40717764 C4.34998802,3.49477525 3.84236327,3.60303553 3.40180439,3.72377325 C3.12167984,3.80091497 2.86898204,3.88313453 2.65667066,3.96782914 C2.46946427,4.04266826 2.29687824,4.12068503 2.13652695,4.20102036 C2.93815569,4.96908423 3.87988822,5.93908024 4.43372455,6.61401836 L4.43326786,6.61400399 Z"/>
    <path fill="#6D6E71" fill-rule="nonzero" d="M30.6847649,7.70839122 L30.6847968,7.79073852 L30.8776431,7.79063313 L30.8779305,8.33536766 L30.9673134,8.33532295 L30.9670259,7.79058842 L31.1612774,7.79049261 L31.1612136,7.70814531 L30.6847265,7.70839441 L30.6847649,7.70839122 Z M31.7988886,7.70781701 L31.5837509,8.14569325 L31.3667513,7.70804056 L31.2590691,7.70809166 L31.2593565,8.33518946 L31.3417006,8.33514794 L31.3414132,7.83755114 L31.5548902,8.26888048 L31.6118994,8.26885132 L31.8249325,7.83729843 L31.8252519,8.33489523 L31.907596,8.33485372 L31.9072766,7.70775591 L31.7988918,7.70781659 L31.7988886,7.70781701 Z"/>
    <path fill="url(#logo_apache-g)" fill-rule="nonzero" d="M22.1891162,2.98117365 C22.599687,2.859002 23.0163577,2.73320559 23.4407569,2.60253892 C23.4471026,2.60046275 23.452883,2.59880559 23.4592287,2.59672878 C23.5192974,2.5784792 23.5789413,2.55966371 23.6390068,2.54141541 C23.9248255,2.45304495 24.1804838,2.37126291 24.7624559,2.18599824 C24.6876711,1.83578667 24.8460838,1.39241741 25.0552846,0.928896447 C24.701592,1.22353597 24.468075,1.63411002 24.4145501,2.12327569 C23.5158036,0.789367505 22.365081,-0.0808600399 20.9951489,0.0437547305 C20.8727633,0.054762475 20.7497741,0.0732279441 20.6239234,0.100827784 C21.1488894,0.116392814 21.5298555,0.335976687 21.9476439,0.971566307 C21.9490523,0.972278483 21.9508695,0.973555928 21.9522778,0.974268104 C21.9508695,0.973555928 21.9490523,0.972278483 21.9476439,0.971566307 C20.8800192,0.371805828 20.1603705,0.207079281 19.2258236,0.283119202 C19.0043018,0.301041118 18.7707337,0.332268902 18.5174164,0.374648144 C19.9058715,0.562205828 20.8101429,1.30197749 21.3465102,2.3893707 L21.3712862,2.43708008 L21.9578571,3.04967888 C22.035117,3.02744208 22.1119617,3.00463936 22.1893685,2.9814186 L22.1891162,2.98117365 Z"/>
  </g>
</svg>
