<svg xmlns="http://www.w3.org/2000/svg" width="32" height="32" viewBox="0 0 32 32">
  <g fill="none" transform="translate(1)">
    <g transform="translate(0 11.2)">
      <path fill="#00A9E5" d="M22.04,0 L13.68,0 C13.72,0.2 13.8,0.4 13.84,0.56 C14.12,1.52 14.28,2.52 14.36,3.56 C14.4,3.96 14.4,4.4 14.4,4.8 C14.4,5.2 14.4,5.64 14.36,6.04 C14.28,7.08 14.12,8.08 13.84,9.04 C13.8,9.24 13.72,9.44 13.68,9.6 L22.04,9.6 C24.68,9.6 26.8,7.44 26.8,4.8 C26.8,2.16 24.68,0 22.04,0 Z"/>
      <path fill="#353535" d="M14.36,6.04 C14.4,5.64 14.4,5.2 14.4,4.8 C14.4,4.4 14.4,3.96 14.36,3.56 C14.28,2.52 14.12,1.52 13.84,0.56 C13.8,0.36 13.72,0.16 13.68,0 L0.72,0 C0.24,1.52 0,3.12 0,4.8 C0,6.48 0.24,8.08 0.72,9.6 L13.64,9.6 C13.68,9.4 13.76,9.2 13.8,9.04 C14.08,8.08 14.28,7.08 14.36,6.04 Z"/>
    </g>
    <g transform="translate(1.2 22.4)">
      <path fill="#00BFB3" d="M22.28,0 L11.88,0 C11.56,0.72 11.2,1.4 10.8,2.04 C10.2,3.04 9.48,3.92 8.68,4.76 C8.4,5.04 8.12,5.28 7.84,5.56 C7.28,6.08 6.64,6.52 6,6.96 C8.52,8.64 11.56,9.6 14.8,9.6 C20.36,9.6 25.24,6.76 28.12,2.48 C26.64,0.96 24.56,0 22.28,0 Z"/>
      <path fill="#019B8F" d="M10.8,2.04 C11.2,1.4 11.56,0.72 11.88,0 L0.12,0 C1.36,2.84 3.4,5.28 6,6.96 C6.64,6.52 7.24,6.08 7.84,5.56 C8.12,5.32 8.4,5.04 8.68,4.76 C9.44,3.96 10.16,3.04 10.8,2.04 Z"/>
    </g>
    <g transform="translate(1.2)">
      <path fill="#F9B110" d="M8.64,4.84 C8.36,4.56 8.08,4.32 7.8,4.04 C7.24,3.52 6.6,3.08 5.96,2.64 C3.44,4.32 1.4,6.76 0.12,9.6 L11.84,9.6 C11.52,8.88 11.16,8.2 10.76,7.56 C10.16,6.56 9.44,5.64 8.64,4.84 Z"/>
      <path fill="#FED10A" d="M14.8,0 C11.56,0 8.52,0.96 6,2.64 C6.64,3.08 7.24,3.52 7.84,4.04 C8.12,4.28 8.4,4.56 8.68,4.84 C9.48,5.68 10.2,6.56 10.8,7.56 C11.2,8.2 11.56,8.88 11.88,9.6 L22.28,9.6 C24.56,9.6 26.64,8.64 28.12,7.12 C25.24,2.84 20.36,0 14.8,0 Z"/>
    </g>
  </g>
</svg>
