<svg width="32" height="32" viewBox="0 0 32 32" fill="none" xmlns="http://www.w3.org/2000/svg">
<path d="M8 29.6108C8 29.6108 17.5499 34.3499 24.8563 28.7173C22.951 23.6033 19.6053 8.84996 17.6296 2.33433C17.2084 0.945094 17.1396 0.806599 16.9673 0.425125C16.003 -1.70896 14.9886 4.56662 13.3389 10.8838C12.7482 13.1481 8 29.6108 8 29.6108" fill="url(#paint0_linear)"/>
<path d="M9.92627 28.5632C9.92627 28.5632 18.0964 33.3571 24.8565 28.7173C24.6755 27.9099 24.2144 26.6136 23.9012 25.406C22.2369 18.9904 19.2248 8.15808 17.7571 2.78042C16.1663 -3.04222 15.6517 3.76615 13.7959 11.0109C13.2321 13.2138 9.92627 28.5632 9.92627 28.5632" fill="url(#paint1_linear)"/>
<path d="M12.1401 24.4095L12.9893 22.9444L13.7828 24.4878L12.8749 26.4784L12.1401 24.4095V24.4095ZM19.0744 18.8646L19.9235 17.3995L20.7171 18.943L19.8087 20.9337L19.0744 18.8646H19.0744ZM14.327 13.0136L15.1761 11.5488L15.9692 13.0924L15.0613 15.0825L14.327 13.0136" fill="#F9A72B"/>
<path d="M12.1401 24.4096L12.9906 22.6939L13.7828 24.4879L12.8762 25.9557L12.1401 24.4096V24.4096ZM19.0744 18.8648L19.9252 17.1492L20.717 18.9431L19.8105 20.4109L19.0744 18.8648H19.0744ZM14.327 13.0138L15.1774 11.2983L15.9692 13.0925L15.0626 14.5598L14.327 13.0138" fill="#FFF200"/>
<path d="M12.9868 28.4222C12.9868 28.4222 19.0693 29.4367 23.0733 26.8735C22.5712 28.4222 18.0818 30.1867 12.9868 28.4222" fill="#24265D"/>
<defs>
<linearGradient id="paint0_linear" x1="33.4731" y1="7.67387" x2="7.75111" y2="21.3308" gradientUnits="userSpaceOnUse">
<stop stop-color="#3871C1"/>
<stop offset="0.515" stop-color="#2C3792"/>
<stop offset="0.865" stop-color="#24265D"/>
<stop offset="1" stop-color="#252761"/>
</linearGradient>
<linearGradient id="paint1_linear" x1="21.0279" y1="14.9284" x2="6.01716" y2="18.8443" gradientUnits="userSpaceOnUse">
<stop stop-color="#3871C1"/>
<stop offset="0.515" stop-color="#2C3792"/>
<stop offset="0.865" stop-color="#24265D"/>
<stop offset="1" stop-color="#252761"/>
</linearGradient>
</defs>
</svg>
