<svg xmlns="http://www.w3.org/2000/svg" width="16" height="16" viewBox="0 0 16 16">
  <path d="M7.9141,1 C4.3141,1 2.0171,2.111 2.0171,2.876 C2.0171,3.642 4.3141,4.753 7.9141,4.753 C11.5141,4.753 13.8111,3.642 13.8111,2.876 C13.8111,2.111 11.5141,1 7.9141,1 M11.8939093,8.98774851 C10.7067037,9.31930492 9.29264273,9.4903 7.9141,9.4903 C6.53118513,9.4903 5.11252635,9.31821856 3.9230017,8.98458901 L6.7861,12.2266 L6.7861,14.742167 C6.92156497,14.8218795 7.30094266,14.9561 7.9141,14.9561 C8.52411786,14.9561 8.90274393,14.8232505 9.04,14.7433957 L9.04,12.2276 L11.8939093,8.98774851 Z M14.2877858,7.78160311 L10.04,12.6046 L10.04,14.8511 L10.0441,14.8511 C10.0441,15.6141 8.9751,15.9561 7.9141,15.9561 C6.8531,15.9561 5.7841,15.6141 5.7841,14.8511 L5.7861,14.8511 L5.7861,12.6056 L1.3211,7.5496 L1.33024989,7.5415237 C1.11769176,7.25913969 1.0001,6.94743187 1.0001,6.6073 L1.0001,2.7793 L1.02030545,2.7793 C1.14064546,0.973236733 4.6282688,0 7.9141,0 C11.1999312,0 14.6875545,0.973236733 14.8078945,2.7793 L14.8281,2.7793 L14.8281,6.6073 C14.8281,6.95019043 14.7085931,7.26419387 14.4927597,7.54838853 L14.493,7.5486 L14.4900431,7.5519573 C14.42988,7.63081173 14.3622954,7.70736691 14.2877858,7.78160311 Z M13.7103085,6.92571252 C13.7880744,6.81577857 13.8281,6.70852521 13.8281,6.6073 L13.8281,4.41063243 C12.5404402,5.29000234 10.1793184,5.753 7.9141,5.753 C5.64888158,5.753 3.28775979,5.29000234 2.0001,4.41063243 L2.0001,6.6073 C2.0001,7.3753 4.3041,8.4903 7.9141,8.4903 C10.7926463,8.4903 12.8408157,7.78136422 13.552634,7.10470974 L13.7103085,6.92571244 Z"/>
</svg>
