<svg xmlns="http://www.w3.org/2000/svg" width="16" height="16" viewBox="0 0 16 16">
  <path d="M4.55226971,10.7097642 C5.50526971,12.0697642 7.38026971,12.4007642 8.74126971,11.4477642 L10.3842697,10.2977642 L11.5332697,11.9397642 L9.89126971,13.0907642 C7.62326971,14.6787642 4.49726971,14.1277642 2.90926971,11.8587642 C1.32226971,9.5917642 1.87326971,6.4657642 4.14026971,4.8777642 L5.78326971,3.7277642 L6.93326971,5.3707642 L5.29126971,6.5207642 C3.93026971,7.4727642 3.59926971,9.3487642 4.55226971,10.7097642 L4.55226971,10.7097642 Z M12.8482697,8.5727642 L13.9972697,10.2157642 L12.3552697,11.3647642 L11.2052697,9.7227642 L12.8482697,8.5727642 Z M8.24726971,2.0017642 L9.39726971,3.6447642 L7.75526971,4.7947642 L6.60426971,3.1527642 L8.24726971,2.0017642 Z M10.2182697,3.0697642 L9.06926971,1.4277642 C8.75126971,0.973764201 8.12526971,0.863764201 7.67226971,1.1817642 L3.56626971,4.0567642 C2.20526971,5.0097642 1.35926971,6.4237642 1.09226971,7.9397642 C0.824269715,9.4557642 1.13526971,11.0737642 2.08826971,12.4347642 C3.04126971,13.7957642 4.45526971,14.6417642 5.97126971,14.9077642 C7.48826971,15.1757642 9.10626971,14.8647642 10.4662697,13.9117642 L14.5732697,11.0367642 C15.0272697,10.7187642 15.1362697,10.0937642 14.8192697,9.6407642 L13.6692697,7.9977642 C13.3512697,7.5437642 12.7262697,7.4337642 12.2732697,7.7517642 L8.16626971,10.6267642 C7.71226971,10.9437642 7.17326971,11.0477642 6.66826971,10.9587642 C6.16226971,10.8697642 5.69126971,10.5877642 5.37326971,10.1347642 C5.05526971,9.6807642 4.95226971,9.1417642 5.04126971,8.6357642 C5.13026971,8.1307642 5.41226971,7.6597642 5.86526971,7.3417642 L9.97226971,4.4657642 C10.4262697,4.1487642 10.5362697,3.5237642 10.2182697,3.0697642 L10.2182697,3.0697642 Z"/>
</svg>
