<svg xmlns="http://www.w3.org/2000/svg" width="16" height="16" viewBox="0 0 16 16">
  <path d="M11.2709852,11.9779932 C11.2592787,11.9682002 11.2479153,11.9577858 11.2369386,11.94675 C11.0419873,11.75175 11.0419873,11.43475 11.2369386,11.23975 C13.5753535,8.89975 13.5753535,5.09375 11.2369386,2.75375 C8.89552438,0.41475 5.09047639,0.41375 2.7530612,2.75375 C0.414646258,5.09375 0.414646258,8.89975 2.7530612,11.23975 C3.88677755,12.37275 5.39240085,12.99675 6.99499989,12.99675 C7.27093085,12.99675 7.49487482,13.22075 7.49487482,13.49675 C7.49487482,13.77275 7.27093085,13.99675 6.99499989,13.99675 C5.12646738,13.99675 3.36890712,13.26875 2.04623804,11.94675 C-0.682079347,9.21775 -0.682079347,4.77575 2.04623804,2.04675 C4.77355568,-0.68225 9.21444459,-0.68225 11.9437617,2.04675 C14.5527289,4.65636993 14.6668581,8.83239759 12.2861494,11.5790625 L15.85075,15.14275 C16.04575,15.33875 16.04575,15.65475 15.85075,15.85075 C15.75275,15.94775 15.62475,15.99675 15.49675,15.99675 C15.36875,15.99675 15.24075,15.94775 15.14275,15.85075 L11.2709852,11.9779932 L11.2709852,11.9779932 Z M10.5,6.5 C10.7761424,6.5 11,6.72385763 11,7 C11,7.27614237 10.7761424,7.5 10.5,7.5 L3.5,7.5 C3.22385763,7.5 3,7.27614237 3,7 C3,6.72385763 3.22385763,6.5 3.5,6.5 L10.5,6.5 Z"/>
</svg>
