<svg xmlns="http://www.w3.org/2000/svg" width="16" height="16" viewBox="0 0 16 16">
  <path d="M9.5,6 C9.77614237,6 10,6.22385763 10,6.5 C10,6.77614237 9.77614237,7 9.5,7 L3.5,7 C3.22385763,7 3,6.77614237 3,6.5 C3,6.22385763 3.22385763,6 3.5,6 L9.5,6 Z M10.24,10.74 C10.24,10.6230419 10.2801575,10.515463 10.3474366,10.4302994 C10.480619,10.2999074 10.6072008,10.1628013 10.7266349,10.0195281 C11.5216883,9.06578116 12,7.83874843 12,6.5 C12,3.46243388 9.53756612,1 6.5,1 C3.46243388,1 1,3.46243388 1,6.5 C1,9.53756612 3.46243388,12 6.5,12 C6.77614237,12 7,12.2238576 7,12.5 C7,12.7761424 6.77614237,13 6.5,13 C2.91014913,13 1.77635684e-15,10.0898509 1.77635684e-15,6.5 C1.77635684e-15,2.91014913 2.91014913,3.37507799e-14 6.5,3.37507799e-14 C10.0898509,3.37507799e-14 13,2.91014913 13,6.5 C13,8.11494771 12.4110487,9.59233848 11.4362127,10.7291059 L15.8546212,15.1475144 C16.0498833,15.3427766 16.0498833,15.6593591 15.8546212,15.8546212 C15.6593591,16.0498833 15.3427766,16.0498833 15.1475144,15.8546212 L10.38,11.0871068 C10.2933137,10.9970713 10.24,10.8747617 10.24,10.74 Z"/>
</svg>
