<svg xmlns="http://www.w3.org/2000/svg" width="16" height="16" viewBox="0 0 16 16">
  <path d="M10.4226352,4.34820144 C9.77572861,4.72169315 9.12882201,5.09518485 8.4819154,5.46867655 C7.9028235,5.80301542 7.03418565,6.30452371 5.87600185,6.97320144 C4.79984345,7.59452179 4.43112435,8.9706002 5.05244469,10.0467586 C5.67376504,11.122917 7.04984345,11.4916361 8.12600185,10.8703158 L12.6726352,8.24531576 C13.0313547,8.03820898 13.4900475,8.16111535 13.6971543,8.51983481 L14.8221543,10.468392 C15.0292611,10.8271114 14.9063547,11.2858042 14.5476352,11.492911 L10.0010019,14.117911 C7.13124611,15.7747653 3.46170368,14.7915143 1.80484943,11.9217586 C0.147995179,9.05200286 1.13124611,5.38246043 4.00100185,3.72560618 L8.54763522,1.10060618 C8.90635469,0.893499397 9.36504749,1.01640576 9.57215427,1.37512523 L10.6971543,3.32368239 C10.9042611,3.68240186 10.7813547,4.14109466 10.4226352,4.34820144 Z M10.0476352,3.69868239 L8.92263522,1.75012523 L4.37600185,4.37512523 C1.86496558,5.8248727 1.00462101,9.03572233 2.45436848,11.5467586 C3.90411595,14.0577949 7.11496558,14.9181394 9.62600185,13.468392 L14.1726352,10.843392 L13.0476352,8.89483481 L8.50100185,11.5198348 C7.06612398,12.3482619 5.23135276,11.8566365 4.40292564,10.4217586 C3.57449852,8.98688073 4.06612398,7.15210951 5.50100185,6.32368239 L10.0476352,3.69868239 Z M12.2240781,11.968392 L11.0990781,10.0198348 L11.7485971,9.64483481 L12.8735971,11.593392 L12.2240781,11.968392 Z M8.09907806,4.82368239 L6.97407806,2.87512523 L7.62359712,2.50012523 L8.74859712,4.44868239 L8.09907806,4.82368239 Z M12.7938951,5.4217586 L12.0010019,5.4217586 L11.5537883,4.6981518 L12.7773951,2.25093821 L13.6718222,2.6981518 L12.8100188,4.4217586 L14.0010019,4.4217586 L14.3545552,5.27531199 L12.0010019,7.62886538 L11.2938951,6.9217586 L12.7938951,5.4217586 Z"/>
</svg>
