<svg xmlns="http://www.w3.org/2000/svg" width="16" height="16" viewBox="0 0 16 16">
  <g transform="translate(0 1)">
    <polygon points="7 7 9 7 9 3 7 3"/>
    <polygon points="3 7 5 7 5 3 3 3"/>
    <polygon points="11.025 7 13.025 7 13.025 3 11.025 3"/>
    <polygon points="3.5 13.005 4.5 13.005 4.5 11.221 3.5 11.221"/>
    <polygon points="6.175 13.005 7.176 13.005 7.176 11.221 6.175 11.221"/>
    <polygon points="8.851 13.005 9.851 13.005 9.851 11.221 8.851 11.221"/>
    <polygon points="11.525 13.005 12.525 13.005 12.525 11.221 11.525 11.221"/>
    <path d="M0,0.0004 L0,10.0004 L1,10.0004 L1,13.0054 L2,13.0054 L2,10.0004 L14,10.0004 L14,13.0054 L15,13.0054 L15,10.0004 L16,10.0004 L16,0.0004 L0,0.0004 Z M1,9.0004 L15,9.0004 L15,1.0004 L1,1.0004 L1,9.0004 Z"/>
  </g>
</svg>
