<svg xmlns="http://www.w3.org/2000/svg" width="16" height="16" viewBox="0 0 16 16">
  <path d="M14.9859069,7.38163515 C14.9951181,7.41958151 15,7.45922065 15,7.5 C15,7.51140925 14.9996179,7.52272925 14.9988657,7.5339479 C15.0125752,7.93483863 14.8664225,8.34017918 14.5604076,8.64619408 L12.4390873,10.7675144 C12.2438252,10.9627766 11.9272427,10.9627766 11.7319805,10.7675144 C11.5367184,10.5722523 11.5367184,10.2556698 11.7319805,10.0604076 L13.7923882,8 L1.5,8 C1.22385763,8 1,7.77614237 1,7.5 C1,7.22385763 1.22385763,7 1.5,7 L13.6213203,7 L11.7319805,5.11066017 C11.5367184,4.91539803 11.5367184,4.59881554 11.7319805,4.40355339 C11.9272427,4.20829124 12.2438252,4.20829124 12.4390873,4.40355339 L14.5604076,6.52487373 C14.801315,6.76578106 14.9431481,7.06824522 14.9859069,7.38163515 Z M1.5,3 L8.5,3 C8.77614237,3 9,3.22385763 9,3.5 C9,3.77614237 8.77614237,4 8.5,4 L1.5,4 C1.22385763,4 1,3.77614237 1,3.5 C1,3.22385763 1.22385763,3 1.5,3 Z M1.5,11 L8.5,11 C8.77614237,11 9,11.2238576 9,11.5 C9,11.7761424 8.77614237,12 8.5,12 L1.5,12 C1.22385763,12 1,11.7761424 1,11.5 C1,11.2238576 1.22385763,11 1.5,11 Z"/>
</svg>
