<svg xmlns="http://www.w3.org/2000/svg" width="16" height="16" viewBox="0 0 16 16">
  <path d="M7.5,14 C11.0898509,14 14,11.0898509 14,7.5 C14,3.91014913 11.0898509,1 7.5,1 C3.91014913,1 1,3.91014913 1,7.5 C1,11.0898509 3.91014913,14 7.5,14 Z M7.5,15 C3.35786438,15 0,11.6421356 0,7.5 C0,3.35786438 3.35786438,0 7.5,0 C11.6421356,0 15,3.35786438 15,7.5 C15,11.6421356 11.6421356,15 7.5,15 Z M3.5,7 L11.5,7 L11.5,7 C11.7761424,7 12,7.22385763 12,7.5 L12,7.5 L12,7.5 C12,7.77614237 11.7761424,8 11.5,8 L3.5,8 L3.5,8 C3.22385763,8 3,7.77614237 3,7.5 L3,7.5 L3,7.5 C3,7.22385763 3.22385763,7 3.5,7 Z"/>
</svg>
