<svg xmlns="http://www.w3.org/2000/svg" width="32" height="32" viewBox="0 0 32 32">
  <g transform="translate(0 1)">
    <path d="M16,20.7058824 C10.2822285,20.7058824 5.64705882,16.0707127 5.64705882,10.3529412 C5.64705882,4.63516965 10.2822285,1.05033759e-15 16,0 C21.7177715,-1.05033759e-15 26.3529412,4.63516965 26.3529412,10.3529412 C26.3529412,16.0707127 21.7177715,20.7058824 16,20.7058824 Z M16,1.88235294 C11.3218233,1.88235294 7.52941176,5.67476447 7.52941176,10.3529412 C7.52941176,15.0311179 11.3218233,18.8235294 16,18.8235294 C20.6781767,18.8235294 24.4705882,15.0311179 24.4705882,10.3529412 C24.4705882,8.1064015 23.5781538,5.95187424 21.9896104,4.36333079 C20.4010669,2.77478735 18.2465397,1.88235294 16,1.88235294 Z"/>
    <polygon class="euiIcon__fillSecondary" points="20.706 9.412 16.941 9.412 16.941 5.647 15.059 5.647 15.059 9.412 11.294 9.412 11.294 11.294 15.059 11.294 15.059 15.059 16.941 15.059 16.941 11.294 20.706 11.294"/>
    <path class="euiIcon__fillSecondary" d="M10.1364706 21.3082353L8.68705882 20.1035294 6.30588235 22.9270588C5.80382141 22.6982359 5.25760055 22.5825656 4.70588235 22.5882353 2.96653742 22.5833067 1.45024755 23.7705738 1.03785462 25.4603303.625461682 27.1500869 1.42433797 28.902381 2.97040092 29.6992715 4.51646388 30.4961619 6.40717429 30.1301671 7.54418223 28.8139004 8.68119016 27.4976337 8.76845963 25.5738036 7.75529412 24.16L10.1364706 21.3082353zM4.70588235 28.2352941C3.66628753 28.2352941 2.82352941 27.392536 2.82352941 26.3529412 2.82352941 25.3133464 3.66628753 24.4705882 4.70588235 24.4705882 5.74547718 24.4705882 6.58823529 25.3133464 6.58823529 26.3529412 6.58823529 27.392536 5.74547718 28.2352941 4.70588235 28.2352941zM27.2941176 22.5882353C26.7402771 22.5914056 26.1939578 22.7167377 25.6941176 22.9552941L23.3129412 20.1317647 21.8635294 21.3364706 24.2447059 24.16C23.2315404 25.5738036 23.3188098 27.4976337 24.4558178 28.8139004 25.5928257 30.1301671 27.4835361 30.4961619 29.0295991 29.6992715 30.575662 28.902381 31.3745383 27.1500869 30.9621454 25.4603303 30.5497524 23.7705738 29.0334626 22.5833067 27.2941176 22.5882353zM27.2941176 28.2352941C26.2545228 28.2352941 25.4117647 27.392536 25.4117647 26.3529412 25.4117647 25.3133464 26.2545228 24.4705882 27.2941176 24.4705882 28.3337125 24.4705882 29.1764706 25.3133464 29.1764706 26.3529412 29.1764706 27.392536 28.3337125 28.2352941 27.2941176 28.2352941z"/>
  </g>
</svg>
