<svg xmlns="http://www.w3.org/2000/svg" width="32" height="32" viewBox="0 0 32 32">
  <path class="euiIcon__fillSecondary" d="M4 24c2.20914 0 4 1.7909 4 4 0 2.2091-1.79086 4-4 4s-4-1.7909-4-4c0-2.2091 1.79086-4 4-4zm24 0c2.2091 0 4 1.7909 4 4 0 2.2091-1.7909 4-4 4-2.2091 0-4-1.7909-4-4 0-2.2091 1.7909-4 4-4zM4 26c-1.10457 0-2 .8954-2 2s.89543 2 2 2 2-.8954 2-2-.89543-2-2-2zm24 0c-1.1046 0-2 .8954-2 2s.8954 2 2 2 2-.8954 2-2-.8954-2-2-2zM17 9v6h6v2h-6v6h-2v-6H9v-2h6V9h2zM4 0c2.20914 0 4 1.79086 4 4S6.20914 8 4 8 0 6.20914 0 4s1.79086-4 4-4zm24 0c2.2091 0 4 1.79086 4 4s-1.7909 4-4 4c-2.2091 0-4-1.79086-4-4s1.7909-4 4-4zm0 2c-1.1046 0-2 .89543-2 2s.8954 2 2 2 2-.89543 2-2-.8954-2-2-2zM4 2c-1.10457 0-2 .89543-2 2s.89543 2 2 2 2-.89543 2-2-.89543-2-2-2z"/>
  <path d="M21.0783 29.0505c.1018.6765.3004 1.3212.5813 1.9197C19.9001 31.6358 17.9926 32 16 32c-1.9926 0-3.9001-.3642-5.6596-1.0298.2809-.5985.4795-1.2432.5813-1.9197C12.4961 29.6636 14.2087 30 16 30c1.7913 0 3.5039-.3364 5.0783-.9495zm9.8919-18.7101C31.6358 12.0999 32 14.0074 32 16c0 1.9926-.3642 3.9001-1.0298 5.6596-.5985-.2809-1.2432-.4795-1.9197-.5813C29.6636 19.5039 30 17.7913 30 16c0-1.7913-.3364-3.5039-.9495-5.0783.6765-.1018 1.3212-.3004 1.9197-.5813zm-29.94043 0c.59849.2809 1.24325.4795 1.91971.5813C2.33641 12.4961 2 14.2087 2 16c0 1.7913.33641 3.5039.94948 5.0783-.67646.1018-1.32122.3004-1.91971.5813C.364241 19.9001 0 17.9926 0 16c0-1.9926.36424-3.9001 1.02977-5.6596zM16 0c1.9926 0 3.9001.364241 5.6596 1.02977-.2809.59849-.4795 1.24325-.5813 1.91971C19.5039 2.33641 17.7913 2 16 2c-1.7913 0-3.5039.33641-5.0783.94948-.1018-.67646-.3004-1.32122-.5813-1.91971C12.0999.36424 14.0074 0 16 0z"/>
</svg>
