<svg xmlns="http://www.w3.org/2000/svg" width="32" height="32" viewBox="0 0 32 32">
  <path d="M7.99985 18v6.0002h3.03535C11.0118 24.3304 11 24.6638 11 25c0 .3362.0118.6696.0352.9998H7.99985V32h-1.9997v-6.0002H0v-1.9996h6.00015V18h1.9997zm0-18v6.00015H14v1.9997H7.99985V14h-1.9997V7.99985H0v-1.9997h6.00015V0h1.9997zM25.9998 0v6.00015H32v1.9997h-6.0002v3.03535C25.6696 11.0118 25.3362 11 25 11c-.3362 0-.6696.0118-.9998.0352V7.99985H18v-1.9997h6.0002V0h1.9996z"/>
  <path class="euiIcon__fillSecondary" d="M25 13c2.612725 0 5.0304316.8349982 7.0008201 2.2526949l.0004193 2.8640451a9.8303331 9.8303331 0 00-.0587394-.05924c-1.8413-1.8413-4.3386-2.8757-6.9425-2.8757-5.4224 0-9.8182 4.3958-9.8182 9.8182 0 2.7409041 1.1231623 5.2195037 2.9343422 7.000654l-2.8634473.0001661C13.8349982 30.0304316 13 27.612725 13 25c0-6.6274 5.3726-12 12-12zm.941 7.647v3.765h3.765v1.882h-3.765v3.765h-1.882v-3.765h-3.765v-1.882h3.765v-3.765h1.882z"/>
</svg>
