<svg xmlns="http://www.w3.org/2000/svg" width="32" height="32" viewBox="0 0 32 32">
  <g transform="translate(1)">
    <path d="M29.9764706 10.4094118C29.4327349 10.7355255 28.8424074 10.9767345 28.2258824 11.1247059 29.4931713 14.2513693 29.4931713 17.7486307 28.2258824 20.8752941 28.8424074 21.0232655 29.4327349 21.2644745 29.9764706 21.5905882 31.4191873 18.0031456 31.4191873 13.9968544 29.9764706 10.4094118zM11.1247059 3.76470588C14.2513693 2.49741692 17.7486307 2.49741692 20.8752941 3.76470588 21.0232655 3.14818079 21.2644745 2.55785337 21.5905882 2.01411765 18.0031456.571400954 13.9968544.571400954 10.4094118 2.01411765 10.7355255 2.55785337 10.9767345 3.14818079 11.1247059 3.76470588zM2.82352941 16C2.8193925 14.3293636 3.1390085 12.6737527 3.76470588 11.1247059 3.15060532 10.9784034 2.56313021 10.7370623 2.02352941 10.4094118.567997533 13.994363.567997533 18.005637 2.02352941 21.5905882 2.56313021 21.2629377 3.15060532 21.0215966 3.76470588 20.8752941 3.1390085 19.3262473 2.8193925 17.6706364 2.82352941 16zM20.8752941 28.2352941C17.7486307 29.5025831 14.2513693 29.5025831 11.1247059 28.2352941 10.9784034 28.8493947 10.7370623 29.4368698 10.4094118 29.9764706 13.994363 31.4320025 18.005637 31.4320025 21.5905882 29.9764706 21.2629377 29.4368698 21.0215966 28.8493947 20.8752941 28.2352941z"/>
    <polygon class="euiIcon__fillSecondary" points="22.588 15.059 16.941 15.059 16.941 9.412 15.059 9.412 15.059 15.059 9.412 15.059 9.412 16.941 15.059 16.941 15.059 22.588 16.941 22.588 16.941 16.941 22.588 16.941"/>
    <path class="euiIcon__fillSecondary" d="M5.17647059 31.0588235C2.83738224 31.0588235.941176471 29.1626178.941176471 26.8235294.941176471 24.4844411 2.83738224 22.5882353 5.17647059 22.5882353 7.51555894 22.5882353 9.41176471 24.4844411 9.41176471 26.8235294 9.40658874 29.1604705 7.51341163 31.0536476 5.17647059 31.0588235zM5.17647059 24.4705882C3.87697706 24.4705882 2.82352941 25.5240359 2.82352941 26.8235294 2.82352941 28.1230229 3.87697706 29.1764706 5.17647059 29.1764706 6.47596412 29.1764706 7.52941176 28.1230229 7.52941176 26.8235294 7.52941176 26.1994906 7.28151332 25.6010108 6.84025125 25.1597488 6.39898918 24.7184867 5.80050939 24.4705882 5.17647059 24.4705882zM26.8235294 31.0588235C24.4844411 31.0588235 22.5882353 29.1626178 22.5882353 26.8235294 22.5882353 24.4844411 24.4844411 22.5882353 26.8235294 22.5882353 29.1626178 22.5882353 31.0588235 24.4844411 31.0588235 26.8235294 31.0536476 29.1604705 29.1604705 31.0536476 26.8235294 31.0588235zM26.8235294 24.4705882C25.5240359 24.4705882 24.4705882 25.5240359 24.4705882 26.8235294 24.4705882 28.1230229 25.5240359 29.1764706 26.8235294 29.1764706 28.1230229 29.1764706 29.1764706 28.1230229 29.1764706 26.8235294 29.1764706 25.5240359 28.1230229 24.4705882 26.8235294 24.4705882zM5.17647059 9.41176471C2.83738224 9.41176471.941176471 7.51555894.941176471 5.17647059.941176471 2.83738224 2.83738224.941176471 5.17647059.941176471 7.51555894.941176471 9.41176471 2.83738224 9.41176471 5.17647059 9.40658874 7.51341163 7.51341163 9.40658874 5.17647059 9.41176471zM5.17647059 2.82352941C3.87697706 2.82352941 2.82352941 3.87697706 2.82352941 5.17647059 2.82352941 6.47596412 3.87697706 7.52941176 5.17647059 7.52941176 6.47596412 7.52941176 7.52941176 6.47596412 7.52941176 5.17647059 7.52941176 4.55243179 7.28151332 3.95395199 6.84025125 3.51268993 6.39898918 3.07142786 5.80050939 2.82352941 5.17647059 2.82352941zM26.8235294 9.41176471C24.4844411 9.41176471 22.5882353 7.51555894 22.5882353 5.17647059 22.5882353 2.83738224 24.4844411.941176471 26.8235294.941176471 29.1626178.941176471 31.0588235 2.83738224 31.0588235 5.17647059 31.0536476 7.51341163 29.1604705 9.40658874 26.8235294 9.41176471zM26.8235294 2.82352941C25.5240359 2.82352941 24.4705882 3.87697706 24.4705882 5.17647059 24.4705882 6.47596412 25.5240359 7.52941176 26.8235294 7.52941176 28.1230229 7.52941176 29.1764706 6.47596412 29.1764706 5.17647059 29.1764706 4.55243179 28.9285721 3.95395199 28.4873101 3.51268993 28.046048 3.07142786 27.4475682 2.82352941 26.8235294 2.82352941z"/>
  </g>
</svg>
