<svg xmlns="http://www.w3.org/2000/svg" width="32" height="32" viewBox="0 0 32 32">
  <g>
    <path class="euiIcon__fillSecondary" d="M23,12.05 C23,12.36 23,12.68 23,13 C22.9980872,13.4820238 22.9613247,13.9632785 22.89,14.44 C24.6381397,15.8951153 25.4131962,18.2136035 24.8915797,20.4274845 C24.3699633,22.6413655 22.6413655,24.3699633 20.4274845,24.8915797 C18.2136035,25.4131962 15.8951153,24.6381397 14.44,22.89 C13.9632785,22.9613247 13.4820238,22.9980872 13,23 C12.68,23 12.37,23 12.05,23 C13.7460643,25.8871075 17.0607223,27.4124932 20.3568143,26.8227462 C23.6529062,26.2329992 26.2329992,23.6529062 26.8227462,20.3568143 C27.4124932,17.0607223 25.8871075,13.7460643 23,12.05 Z"/>
    <polygon points="0 11 2 11 2 2 11 2 11 0 0 0"/>
    <polygon points="21 0 21 2 30 2 30 11 32 11 32 0"/>
    <polygon points="2 21 0 21 0 32 11 32 11 30 2 30"/>
    <polygon points="30 30 21 30 21 32 32 32 32 21 30 21"/>
    <path d="M13,21 C8.581722,21 5,17.418278 5,13 C5,8.581722 8.581722,5 13,5 C17.418278,5 21,8.581722 21,13 C21,15.1217319 20.1571453,17.1565632 18.6568542,18.6568542 C17.1565632,20.1571453 15.1217319,21 13,21 Z M13,7 C9.6862915,7 7,9.6862915 7,13 C7,16.3137085 9.6862915,19 13,19 C16.3137085,19 19,16.3137085 19,13 C19,11.4087011 18.367859,9.88257758 17.2426407,8.75735931 C16.1174224,7.63214104 14.5912989,7 13,7 Z"/>
  </g>
</svg>
