<svg xmlns="http://www.w3.org/2000/svg" xmlns:xlink="http://www.w3.org/1999/xlink" width="16" height="16" viewBox="0 0 16 16">
  <path d="M6.38405173,12.4045305 L7.88453051,10.9040517 C7.92267108,10.9013657 7.96117605,10.9 8,10.9 C8.89470129,10.9 9.62,11.6252987 9.62,12.52 C9.62,13.4147013 8.89470129,14.14 8,14.14 C7.10529871,14.14 6.38,13.4147013 6.38,12.52 C6.38,12.481176 6.38136572,12.4426711 6.38405173,12.4045305 Z M9.39312003,9.3954622 L10.1380638,8.65051842 C10.5241807,8.86419548 10.8786323,9.13616457 11.1890025,9.45949205 C11.3802321,9.65870511 11.3737603,9.97522144 11.1745472,10.1664511 C10.9753341,10.3576807 10.6588178,10.3512088 10.4675882,10.1519958 C10.1586643,9.83017495 9.79386207,9.57426882 9.39312003,9.3954622 Z M11.447192,7.34139025 L12.1662695,6.62231278 C12.5392591,6.88632287 12.8886095,7.18674923 13.2092134,7.52073771 C13.400443,7.71995077 13.3939712,8.0364671 13.1947581,8.22769672 C12.9955451,8.41892635 12.6790288,8.4124545 12.4877991,8.21324144 C12.17112,7.88334163 11.8220725,7.59150392 11.447192,7.34139025 Z M6.69438683,6.43734115 C5.49398912,6.69364642 4.39939189,7.30020756 3.53910336,8.18538873 C3.34664547,8.38341543 3.03009517,8.38792984 2.83206847,8.19547196 C2.63404177,8.00301407 2.62952736,7.68646377 2.82198525,7.48843707 C4.13362697,6.13884271 5.91725177,5.346446 7.82975008,5.30197791 L6.69438683,6.43734115 Z M13.4539871,5.33459512 L14.1669415,4.62164072 C14.5414363,4.91458193 14.8965844,5.235248 15.2294244,5.58198337 C15.420654,5.78119642 15.4141821,6.09771276 15.2149691,6.28894238 C15.015756,6.48017201 14.6992397,6.47370016 14.5080101,6.2744871 C14.1795463,5.93231061 13.8270465,5.6183643 13.4539871,5.33459512 Z M9.50633872,3.62538926 C9.01378108,3.54255805 8.5103083,3.5 8,3.5 C5.52952768,3.5 3.21894831,4.49730971 1.53099681,6.23410244 C1.33853893,6.43212914 1.02198863,6.43664355 0.823961929,6.24418566 C0.625935231,6.05172778 0.621420819,5.73517748 0.813878706,5.53715078 C2.68823426,3.60856035 5.25656047,2.5 8,2.5 C8.80390301,2.5 9.59273539,2.59519485 10.3534419,2.77828605 L9.50633872,3.62538926 Z M8,13.14 C8.34241654,13.14 8.62,12.8624165 8.62,12.52 C8.62,12.1775835 8.34241654,11.9 8,11.9 C7.65758346,11.9 7.38,12.1775835 7.38,12.52 C7.38,12.8624165 7.65758346,13.14 8,13.14 Z M1.85355339,14.8535534 C1.65829124,15.0488155 1.34170876,15.0488155 1.14644661,14.8535534 C0.951184464,14.6582912 0.951184464,14.3417088 1.14644661,14.1464466 L14.1464466,1.14644661 C14.3417088,0.951184464 14.6582912,0.951184464 14.8535534,1.14644661 C15.0488155,1.34170876 15.0488155,1.65829124 14.8535534,1.85355339 L1.85355339,14.8535534 Z"/>
</svg>
