<svg xmlns="http://www.w3.org/2000/svg" xmlns:xlink="http://www.w3.org/1999/xlink" width="16" height="16" viewBox="0 0 16 16">
  <path d="M8,14.14 C7.10529871,14.14 6.38,13.4147013 6.38,12.52 C6.38,11.6252987 7.10529871,10.9 8,10.9 C8.89470129,10.9 9.62,11.6252987 9.62,12.52 C9.62,13.4147013 8.89470129,14.14 8,14.14 Z M8,13.14 C8.34241654,13.14 8.62,12.8624165 8.62,12.52 C8.62,12.1775835 8.34241654,11.9 8,11.9 C7.65758346,11.9 7.38,12.1775835 7.38,12.52 C7.38,12.8624165 7.65758346,13.14 8,13.14 Z M11.1890025,9.45949205 C11.3802321,9.65870511 11.3737603,9.97522144 11.1745472,10.1664511 C10.9753341,10.3576807 10.6588178,10.3512088 10.4675882,10.1519958 C9.82636793,9.48400594 8.94440427,9.1 8,9.1 C7.06303116,9.1 6.18742402,9.47793616 5.5472099,10.136675 C5.35475201,10.3347017 5.03820171,10.3392161 4.84017501,10.1467582 C4.64214831,9.95430036 4.6376339,9.63775006 4.83009179,9.43972336 C5.65670997,8.5891868 6.79006396,8.1 8,8.1 C9.219552,8.1 10.3611037,8.59703028 11.1890025,9.45949205 Z M13.2092134,7.52073771 C13.400443,7.71995077 13.3939712,8.0364671 13.1947581,8.22769672 C12.9955451,8.41892635 12.6790288,8.4124545 12.4877991,8.21324144 C11.3218935,6.99866174 9.7172458,6.3 8,6.3 C6.29627942,6.3 4.70318616,6.98762294 3.53910336,8.18538873 C3.34664547,8.38341543 3.03009517,8.38792984 2.83206847,8.19547196 C2.63404177,8.00301407 2.62952736,7.68646377 2.82198525,7.48843707 C4.17247211,6.09887358 6.02331222,5.3 8,5.3 C9.99239353,5.3 11.8566293,6.11168608 13.2092134,7.52073771 Z M15.2294244,5.58198337 C15.420654,5.78119642 15.4141821,6.09771276 15.2149691,6.28894238 C15.015756,6.48017201 14.6992397,6.47370016 14.5080101,6.2744871 C12.8174191,4.51331753 10.4900873,3.5 8,3.5 C5.52952768,3.5 3.21894831,4.49730971 1.53099681,6.23410244 C1.33853893,6.43212914 1.02198863,6.43664355 0.823961929,6.24418566 C0.625935231,6.05172778 0.621420819,5.73517748 0.813878706,5.53715078 C2.68823426,3.60856035 5.25656047,2.5 8,2.5 C10.7652351,2.5 13.3521549,3.62634187 15.2294244,5.58198337 Z"/>
</svg>
