<svg xmlns="http://www.w3.org/2000/svg" width="16" height="16" viewBox="0 0 16 16">
    <path d="M7.55279 1.16459C7.83431 1.02382 8.16569 1.02382 8.44721 1.16459L14.4472 4.16459C14.786 4.33398 15 4.68024 15 5.05901V10.941C15 11.3198 14.786 11.666 14.4472 11.8354L8.44721 14.8354C8.16569 14.9762 7.83431 14.9762 7.55279 14.8354L1.55278 11.8354C1.214 11.666 1 11.3198 1 10.941V5.05901C1 4.68024 1.214 4.33398 1.55279 4.16459L7.55279 1.16459ZM10.132 3.125L8 2.05901L2.61803 4.75L4.75186 5.81691C6.48085 4.82395 8.34825 4.01685 10.132 3.125ZM11.25 3.68401L5.86803 6.375L8 7.44098L13.382 4.75L11.25 3.68401ZM14 5.55901L8.5 8.30901V13.691L14 10.941V5.55901ZM7.5 13.691V8.30901L5.25 7.18401V9.5C5.25 9.77614 5.02614 10 4.75 10C4.47386 10 4.25 9.77614 4.25 9.5V6.68401L2 5.55901V10.941L7.5 13.691Z"/>
</svg>
