<svg width="16" height="16" viewBox="0 0 16 16" xmlns="http://www.w3.org/2000/svg">
  <path d="M3 1C2.44772 1 2 1.44772 2 2V14C2 14.5523 2.44772 15 3 15H8.75777C8.55127 14.6915 8.3819 14.356 8.25606 14H3V2H10V4C10 4.55228 10.4477 5 11 5H13V8.02746C13.3467 8.06579 13.6816 8.14352 14 8.25606V4C14 3.73478 13.8946 3.48043 13.7071 3.29289L11.7071 1.29289C11.5196 1.10536 11.2652 1 11 1H3Z" />
  <path fill-rule="evenodd" d="M16 12.5C16 14.433 14.433 16 12.5 16C10.567 16 9 14.433 9 12.5C9 10.567 10.567 8.99998 12.5 8.99998C14.433 8.99998 16 10.567 16 12.5ZM14.8536 11.1464C15.0488 11.3417 15.0488 11.6583 14.8536 11.8535L12.8536 13.8535C12.6583 14.0488 12.3417 14.0488 12.1464 13.8535L11.1464 12.8535C10.9512 12.6583 10.9512 12.3417 11.1464 12.1464C11.3417 11.9512 11.6583 11.9512 11.8536 12.1464L12.5 12.7929L14.1464 11.1464C14.3417 10.9512 14.6583 10.9512 14.8536 11.1464Z" />
</svg>
