<svg width="16" height="16" viewBox="0 0 16 16" xmlns="http://www.w3.org/2000/svg">
  <path d="M3 1C3 0.447715 3.44772 0 4 0H12C12.2652 0 12.5196 0.105357 12.7071 0.292893L14.7071 2.29289C14.8946 2.48043 15 2.73478 15 3V8.75777C14.6915 8.55127 14.356 8.3819 14 8.25606V4H12C11.4477 4 11 3.55228 11 3V1H4V13H8.02746C8.06579 13.3467 8.14352 13.6816 8.25606 14H4C3.44772 14 3 13.5523 3 13V1Z" />
  <path d="M8.75777 15H2V2C1.44772 2 1 2.44772 1 3V15C1 15.5523 1.44772 16 2 16H9.67133C9.31899 15.7149 9.01056 15.3776 8.75777 15Z" />
  <path fill-rule="evenodd" clip-rule="evenodd" d="M16 12.5C16 14.433 14.433 16 12.5 16C10.567 16 9 14.433 9 12.5C9 10.567 10.567 8.99998 12.5 8.99998C14.433 8.99998 16 10.567 16 12.5ZM14.8536 11.1464C15.0488 11.3417 15.0488 11.6583 14.8536 11.8535L12.8536 13.8535C12.6583 14.0488 12.3417 14.0488 12.1464 13.8535L11.1464 12.8535C10.9512 12.6583 10.9512 12.3417 11.1464 12.1464C11.3417 11.9512 11.6583 11.9512 11.8536 12.1464L12.5 12.7929L14.1464 11.1464C14.3417 10.9512 14.6583 10.9512 14.8536 11.1464Z" />
</svg>
