<svg xmlns="http://www.w3.org/2000/svg" width="16" height="16" viewBox="0 0 16 16">
  <path d="M6.66433734,14.8713869 C2.86938637,14.1337232 0.390945013,10.4592912 1.12861003,6.66433368 C1.54958323,4.49861429 2.76930231,2.86442844 4.75965317,1.79491035 C4.96538099,1.68436219 5.22023368,1.7309598 5.37353331,1.90715302 L13.6719755,11.4448747 C13.8294756,11.6258958 13.8361766,11.8932783 13.6879417,12.0819614 C11.8128104,14.468753 9.44774057,15.4124257 6.66433734,14.8713869 Z M12.6402562,11.7825559 L4.88812677,2.87273263 C3.36702316,3.79568831 2.44863659,5.11422882 2.11023721,6.85514268 C1.47795319,10.107962 3.60233262,13.2574768 6.85514634,13.8897598 C9.13549068,14.3330138 11.0435425,13.6424145 12.6402562,11.7825559 Z M14.8391644,9.49208028 C14.7804127,9.7619003 14.5140526,9.93300495 14.2442326,9.87425321 C13.9744126,9.81550147 13.8033079,9.54914143 13.8620597,9.27932141 C13.876147,9.21346385 13.876147,9.21346385 13.8892766,9.14735557 C14.0004167,8.57559126 14.0283019,8.0016496 13.9750964,7.43556454 C13.9492561,7.16063384 14.1511837,6.91681075 14.4261144,6.89097043 C14.7010451,6.8651301 14.9448682,7.06705775 14.9707085,7.34198844 C15.0328223,8.00285369 15.0002837,8.6725622 14.870867,9.33835327 C14.8555553,9.41545342 14.8555553,9.41545342 14.8391644,9.49208028 Z M13.9279639,4.27715867 C14.0748694,4.51098206 14.0044086,4.81962383 13.7705852,4.96652936 C13.5367618,5.11343489 13.2281201,5.04297405 13.0812145,4.80915066 C12.7518303,4.2848836 12.3434787,3.81385428 11.8710099,3.41422657 C11.6601728,3.23589449 11.6338223,2.92041054 11.8121544,2.70957345 C11.9904865,2.49873636 12.3059704,2.47238584 12.5168075,2.65071793 C13.0679157,3.1168611 13.544,3.66601931 13.9279639,4.27715867 Z M9.64803094,1.19663831 C9.9164576,1.26145918 10.0815127,1.53160966 10.0166918,1.80003631 C9.95187097,2.06846297 9.68172048,2.23351807 9.41329383,2.1686972 C9.32607512,2.14763524 9.23819086,2.1284553 9.15006917,2.11125299 C8.62138857,2.00848789 8.09350712,1.97663289 7.57091415,2.01373954 C7.29546527,2.03329775 7.05631476,1.82585737 7.03675655,1.55040849 C7.01719834,1.2749596 7.22463872,1.0358091 7.5000876,1.01625089 C8.11011676,0.972935853 8.72596781,1.01009934 9.34127268,1.12970249 C9.44423522,1.1498019 9.54650386,1.1721211 9.64803094,1.19663831 Z"/>
</svg>
