<svg xmlns="http://www.w3.org/2000/svg" width="16" height="16" viewBox="0 0 16 16">
  <path fill-rule="evenodd" d="M6,10 L10.5,10 C10.7761424,10 11,9.77614237 11,9.5 C11,9.22385763 10.7761424,9 10.5,9 L0.5,9 L0.5,9 C0.223857625,9 -3.38176876e-17,9.22385763 0,9.5 C3.38176876e-17,9.77614237 0.223857625,10 0.5,10 L5,10 L5,14.25 C5,14.6642136 5.22385763,15 5.5,15 C5.77614237,15 6,14.6642136 6,14.25 L6,10 Z M2,3 L3,3 L3,9 L2,9 L2,3 Z M8,3 L9,3 L9,9 L8,9 L8,3 Z M2.28571429,1 C2.08072994,1 2,1.06278995 2,1 L2,2 C2,1.93721005 2.08072994,2 2.28571429,2 L8.71428571,2 C8.91927006,2 9,1.93721005 9,2 L9,1 C9,1.06278995 8.91927006,1 8.71428571,1 L2.28571429,1 Z M2.28571429,0 L8.71428571,0 C9.42436611,0 10,0.44771525 10,1 L10,2 C10,2.55228475 9.42436611,3 8.71428571,3 L2.28571429,3 C1.57563389,3 1,2.55228475 1,2 L1,1 C1,0.44771525 1.57563389,0 2.28571429,0 Z" transform="translate(2 1)"/>
</svg>
