<svg xmlns="http://www.w3.org/2000/svg" width="16" height="16" viewBox="0 0 16 16">
  <path d="M8.25,3 C8.52614237,3 8.75,3.22385763 8.75,3.5 L8.75,7.25 L12.5,7.25 C12.7761424,7.25 13,7.47385763 13,7.75 L13,8.25 C13,8.52614237 12.7761424,8.75 12.5,8.75 L8.75,8.75 L8.75,12.5 C8.75,12.7761424 8.52614237,13 8.25,13 L7.75,13 C7.47385763,13 7.25,12.7761424 7.25,12.5 L7.25,8.75 L3.5,8.75 C3.22385763,8.75 3,8.52614237 3,8.25 L3,7.75 C3,7.47385763 3.22385763,7.25 3.5,7.25 L7.25,7.25 L7.25,3.5 C7.25,3.22385763 7.47385763,3 7.75,3 L8.25,3 Z"/>
</svg>
