<svg xmlns="http://www.w3.org/2000/svg" width="16" height="16" viewBox="0 0 16 16">
  <path d="M1.14644661,3.14644661 C1.23692881,3.05596441 1.36192881,3 1.5,3 L7.5,3 C7.77614237,3 8,3.22385763 8,3.5 C8,3.77614237 7.77614237,4 7.5,4 L2,4 L2,14 L12,14 L12,8.5 C12,8.22385763 12.2238576,8 12.5,8 C12.7761424,8 13,8.22385763 13,8.5 L13,14.5 C13,14.6380712 12.9440356,14.7630712 12.8535534,14.8535534 C12.7630712,14.9440356 12.6380712,15 12.5,15 L1.5,15 C1.36192881,15 1.23692881,14.9440356 1.14644661,14.8535534 C1.05596441,14.7630712 1,14.6380712 1,14.5 L1,3.5 C1,3.36192881 1.05596441,3.23692881 1.14644661,3.14644661 Z M13.3052814,2 L10.5,2 C10.2238576,2 10,1.77614237 10,1.5 C10,1.22385763 10.2238576,1 10.5,1 L14.5,1 C14.6380712,1 14.7630712,1.05596441 14.8535534,1.14644661 C14.9440356,1.23692881 15,1.36192881 15,1.5 L15,5.5 C15,5.77614237 14.7761424,6 14.5,6 C14.2238576,6 14,5.77614237 14,5.5 L14,2.71949494 L6.88066017,9.83883476 C6.68539803,10.0340969 6.36881554,10.0340969 6.17355339,9.83883476 C5.97829124,9.64357262 5.97829124,9.32699013 6.17355339,9.13172798 L13.3052814,2 Z"/>
</svg>
