<svg xmlns="http://www.w3.org/2000/svg" width="16" height="16" viewBox="0 0 16 16">
  <path fill-rule="evenodd" d="M2,14.0093388 L14.4906612,14.0093388 C14.7668036,14.0093388 14.9906612,14.2331964 14.9906612,14.5093388 C14.9906612,14.7854812 14.7668036,15.0093388 14.4906612,15.0093388 L1.49066122,15.0093388 C1.21451884,15.0093388 0.990661219,14.7854812 0.990661219,14.5093388 C0.990661219,14.4762653 0.993872404,14.4439419 1,14.4126632 L1,1.5 C1,1.22385763 1.22385763,1 1.5,1 C1.77614237,1 2,1.22385763 2,1.5 L2,14.0093388 Z M4.35355339,12.3535534 C4.15829124,12.5488155 3.84170876,12.5488155 3.64644661,12.3535534 C3.45118446,12.1582912 3.45118446,11.8417088 3.64644661,11.6464466 L11.6464466,3.64644661 C11.8417088,3.45118446 12.1582912,3.45118446 12.3535534,3.64644661 C12.5488155,3.84170876 12.5488155,4.15829124 12.3535534,4.35355339 L4.35355339,12.3535534 Z M15,5.5 C15,5.77614237 14.7761424,6 14.5,6 C14.2238576,6 14,5.77614237 14,5.5 L14,2.5 C14,2.22385763 13.7761424,2 13.5,2 L10.5,2 C10.2238576,2 10,1.77614237 10,1.5 C10,1.22385763 10.2238576,1 10.5,1 L13.5,1 C14.3284271,1 15,1.67157288 15,2.5 L15,5.5 Z"/>
</svg>
