<svg xmlns="http://www.w3.org/2000/svg" width="16" height="16" viewBox="0 0 16 16">
  <path d="M12,8.5 C12,8.22385763 12.2238576,8 12.5,8 C12.7761424,8 13,8.22385763 13,8.5 L13,13 C13,14.1045695 12.1045695,15 11,15 L3,15 C1.8954305,15 1,14.1045695 1,13 L1,5 C1,3.8954305 1.8954305,3 3,3 L7.5,3 C7.77614237,3 8,3.22385763 8,3.5 C8,3.77614237 7.77614237,4 7.5,4 L3,4 C2.44771525,4 2,4.44771525 2,5 L2,13 C2,13.5522847 2.44771525,14 3,14 L11,14 C11.5522847,14 12,13.5522847 12,13 L12,8.5 Z M14,2.71949494 L6.88066017,9.83883476 C6.68539803,10.0340969 6.36881554,10.0340969 6.17355339,9.83883476 C5.97829124,9.64357262 5.97829124,9.32699013 6.17355339,9.13172798 L13.3052814,2 L10.5,2 C10.2238576,2 10,1.77614237 10,1.5 C10,1.22385763 10.2238576,1 10.5,1 L14,1 C14.5522847,1 15,1.44771525 15,2 L15,5.5 C15,5.77614237 14.7761424,6 14.5,6 C14.2238576,6 14,5.77614237 14,5.5 L14,2.71949494 L14,2.71949494 Z"/>
</svg>
