<svg width="16" height="16" viewBox="0 0 16 16" xmlns="http://www.w3.org/2000/svg" xmlns:xlink="http://www.w3.org/1999/xlink">
	<path d="M2 14.01h12.49a.5.5 0 1 1 0 1h-13a.5.5 0 0 1-.49-.597V1.5a.5.5 0 0 1 1 0v12.51zm11.783-8.523l.07-2.827a.514.514 0 0 0-.545-.544l-2.827.07a.52.52 0 0 1-.545-.545.617.617 0 0 1 .586-.586l2.828-.07a1.552 1.552 0 0 1 1.634 1.633l-.07 2.828a.617.617 0 0 1-.586.586.52.52 0 0 1-.545-.545zm-9.43 6.867a.5.5 0 0 1-.707-.708l8-8a.5.5 0 0 1 .708.708l-8 8z" fill-rule="evenodd" />
</svg>
