<svg xmlns="http://www.w3.org/2000/svg" width="16" height="16" viewBox="0 0 16 16">
  <g>
    <path d="M8,15 C11.8659932,15 15,11.8659932 15,8 C15,4.13400675 11.8659932,1 8,1 C4.13400675,1 1,4.13400675 1,8 C1,11.8659932 4.13400675,15 8,15 Z M8,16 C3.581722,16 0,12.418278 0,8 C0,3.581722 3.581722,0 8,0 C12.418278,0 16,3.581722 16,8 C16,12.418278 12.418278,16 8,16 Z"/>
    <path d="M7.08631319,10.1687962 C7.09617761,9.6352809 7.16276141,9.21385494 7.28606658,8.90450572 C7.40937176,8.59515649 7.66091055,8.25218749 8.04069051,7.87558843 L9.00986436,6.96772024 C9.42416977,6.54180464 9.63131936,6.08451264 9.63131936,5.59583053 C9.63131936,5.12508171 9.4956857,4.75633399 9.2244143,4.48957633 C8.95314291,4.22281866 8.55857226,4.08944183 8.04069051,4.08944183 C7.53760538,4.08944183 7.13317046,4.21048971 6.82737361,4.45258911 C6.52157677,4.6946885 6.36868064,5.01972448 6.36868064,5.42770679 L5,5.42770679 C5.00986441,4.70140861 5.2946951,4.11522303 5.85450062,3.66913248 C6.41430613,3.22304193 7.1430288,3 8.04069051,3 C8.97287766,3 9.69913427,3.22752518 10.2194821,3.68258238 C10.73983,4.13763958 11,4.76193282 11,5.55548083 C11,6.34006221 10.6004972,7.11342367 9.80147965,7.87558843 L8.99506782,8.60188299 C8.6350167,8.96503208 8.45499383,9.48733127 8.45499383,10.1687962 L7.08631319,10.1687962 Z M7.027127,12.3006052 C7.027127,12.0988557 7.09494383,11.9296129 7.23057953,11.7928716 C7.36621523,11.6561302 7.56719965,11.5877606 7.83353884,11.5877606 C8.09987803,11.5877606 8.30209549,11.6561302 8.44019729,11.7928716 C8.57829909,11.9296129 8.64734895,12.0988557 8.64734895,12.3006052 C8.64734895,12.5023547 8.57829909,12.669356 8.44019729,12.801614 C8.30209549,12.933872 8.09987803,13 7.83353884,13 C7.56719965,13 7.36621523,12.933872 7.23057953,12.801614 C7.09494383,12.669356 7.027127,12.5023547 7.027127,12.3006052 Z"/>
  </g>
</svg>
