<svg xmlns="http://www.w3.org/2000/svg" xmlns:xlink="http://www.w3.org/1999/xlink" width="16" height="16" viewBox="0 0 16 16">
  <path d="M11.2282024,2.94164772 C11.4608515,3.09040594 11.5288585,3.39959766 11.3801003,3.63224676 C11.2313421,3.86489586 10.9221503,3.93290286 10.6895012,3.78414465 C9.89270006,3.27466183 8.96729789,3 8,3 C5.23857625,3 3,5.23857625 3,8 C3,10.7614237 5.23857625,13 8,13 C10.7614237,13 13,10.7614237 13,8 C13,7.72385763 13.2238576,7.5 13.5,7.5 C13.7761424,7.5 14,7.72385763 14,8 C14,11.3137085 11.3137085,14 8,14 C4.6862915,14 2,11.3137085 2,8 C2,4.6862915 4.6862915,2 8,2 C9.15965147,2 10.2717252,2.33006647 11.2282024,2.94164772 Z M14,1.5 L14,4.5 C14,5.32842712 13.3284271,6 12.5,6 L9.5,6 C9.22385763,6 9,5.77614237 9,5.5 C9,5.22385763 9.22385763,5 9.5,5 L12.5,5 C12.7761424,5 13,4.77614237 13,4.5 L13,1.5 C13,1.22385763 13.2238576,1 13.5,1 C13.7761424,1 14,1.22385763 14,1.5 Z"/>
</svg>
