<svg xmlns="http://www.w3.org/2000/svg" width="16" height="16" viewBox="0 0 16 16">
  <path fill-rule="evenodd" d="M12.5,12 C12.776,12 13,12.224 13,12.5 C13,12.776 12.776,13 12.5,13 C12.224,13 12,12.776 12,12.5 C12,12.224 12.224,12 12.5,12 Z M10.5,12 C10.776,12 11,12.224 11,12.5 C11,12.776 10.776,13 10.5,13 C10.224,13 10,12.776 10,12.5 C10,12.224 10.224,12 10.5,12 Z M8.5,12 C8.776,12 9,12.224 9,12.5 C9,12.776 8.776,13 8.5,13 C8.224,13 8,12.776 8,12.5 C8,12.224 8.224,12 8.5,12 Z M12.5,10 C12.776,10 13,10.224 13,10.5 C13,10.776 12.776,11 12.5,11 C12.224,11 12,10.776 12,10.5 C12,10.224 12.224,10 12.5,10 Z M10.5,10 C10.776,10 11,10.224 11,10.5 C11,10.776 10.776,11 10.5,11 C10.224,11 10,10.776 10,10.5 C10,10.224 10.224,10 10.5,10 Z M12.5,9 C12.224,9 12,8.776 12,8.5 C12,8.224 12.224,8 12.5,8 C12.776,8 13,8.224 13,8.5 C13,8.776 12.776,9 12.5,9 Z M12.5,6 C12.776,6 13,6.224 13,6.5 C13,6.776 12.776,7 12.5,7 C12.224,7 12,6.776 12,6.5 C12,6.224 12.224,6 12.5,6 Z M10.5,8 C10.776,8 11,8.224 11,8.5 C11,8.776 10.776,9 10.5,9 C10.224,9 10,8.776 10,8.5 C10,8.224 10.224,8 10.5,8 Z M8.5,8 C8.776,8 9,8.224 9,8.5 C9,8.776 8.776,9 8.5,9 C8.224,9 8,8.776 8,8.5 C8,8.224 8.224,8 8.5,8 Z M8.5,10 C8.776,10 9,10.224 9,10.5 C9,10.776 8.776,11 8.5,11 C8.224,11 8,10.776 8,10.5 C8,10.224 8.224,10 8.5,10 Z M6.5,12 C6.776,12 7,12.224 7,12.5 C7,12.776 6.776,13 6.5,13 C6.224,13 6,12.776 6,12.5 C6,12.224 6.224,12 6.5,12 Z M4.5,12 C4.776,12 5,12.224 5,12.5 C5,12.776 4.776,13 4.5,13 C4.224,13 4,12.776 4,12.5 C4,12.224 4.224,12 4.5,12 Z M6.5,10 C6.776,10 7,10.224 7,10.5 C7,10.776 6.776,11 6.5,11 C6.224,11 6,10.776 6,10.5 C6,10.224 6.224,10 6.5,10 Z M12.5,4 C12.776,4 13,4.224 13,4.5 C13,4.776 12.776,5 12.5,5 C12.224,5 12,4.776 12,4.5 C12,4.224 12.224,4 12.5,4 Z M10.5,6 C10.776,6 11,6.224 11,6.5 C11,6.776 10.776,7 10.5,7 C10.224,7 10,6.776 10,6.5 C10,6.224 10.224,6 10.5,6 Z"/>
</svg>
