<svg width="16" height="16" viewBox="0 0 16 16" xmlns="http://www.w3.org/2000/svg">
  <path d="M13.6568 3.05025C13.8521 2.85499 13.8521 2.5384 13.6568 2.34314C13.4616 2.14788 13.145 2.14788 12.9497 2.34314L12.5838 2.70913C9.83381 0.321744 5.66504 0.435451 3.05025 3.05025C0.316575 5.78392 0.316575 10.2161 3.05025 12.9497C4.60365 14.5031 6.7055 15.1738 8.73249 14.9618C8.53639 14.6623 8.37504 14.338 8.25417 13.9946C6.63506 14.0629 4.99358 13.4789 3.75735 12.2426C1.41421 9.89949 1.41421 6.1005 3.75735 3.75735C5.98144 1.53327 9.51718 1.42026 11.8746 3.41832L11.1643 4.12854C10.3027 3.42353 9.20042 2.99998 7.99997 2.99998C5.23855 2.99998 2.99997 5.23856 2.99997 7.99998C2.99997 10.7614 5.23855 13 7.99997 13C8.00917 13 8.0183 12.9997 8.02738 12.9992C8.00928 12.8353 8 12.6687 8 12.5C8 12.3312 8.00928 12.1646 8.02738 12.0007C8.01831 12.0002 8.00917 12 7.99997 12C5.79083 12 3.99997 10.2091 3.99997 7.99998C3.99997 5.79084 5.79083 3.99998 7.99997 3.99998C8.92455 3.99998 9.7753 4.31321 10.4528 4.84004L9.73843 5.55445C8.56683 4.71949 6.92979 4.82756 5.87867 5.87867C4.7071 7.05025 4.7071 8.94974 5.87867 10.1213C6.07394 10.3166 6.39052 10.3166 6.58578 10.1213C6.78104 9.92605 6.78104 9.60947 6.58578 9.41421C5.80473 8.63316 5.80473 7.36683 6.58578 6.58578C7.24475 5.92681 8.24915 5.82381 9.0161 6.27678L8.25895 7.03393C7.92533 6.94484 7.55462 7.03116 7.29289 7.29289C6.90236 7.68341 6.90236 8.31658 7.29289 8.7071C7.68341 9.09763 8.31658 9.09763 8.7071 8.7071C8.96883 8.44537 9.05515 8.07466 8.96606 7.74104L12.5817 4.12543C13.5853 5.30955 14.0563 6.79099 13.9946 8.25416C14.338 8.37503 14.6623 8.53638 14.9618 8.73248C15.1576 6.86061 14.6006 4.9249 13.2909 3.41623L13.6568 3.05025Z" />
  <path fill-rule="evenodd" d="M16 12.5C16 14.433 14.433 16 12.5 16C10.567 16 9 14.433 9 12.5C9 10.567 10.567 8.99999 12.5 8.99999C14.433 8.99999 16 10.567 16 12.5ZM14.8536 11.1464C15.0488 11.3417 15.0488 11.6583 14.8536 11.8535L12.8536 13.8535C12.6583 14.0488 12.3417 14.0488 12.1464 13.8535L11.1464 12.8535C10.9512 12.6583 10.9512 12.3417 11.1464 12.1464C11.3417 11.9512 11.6583 11.9512 11.8536 12.1464L12.5 12.7929L14.1464 11.1464C14.3417 10.9512 14.6583 10.9512 14.8536 11.1464Z" />
</svg>
