<svg width="16" height="16" viewBox="0 0 16 16" xmlns="http://www.w3.org/2000/svg">
  <path fill-rule="evenodd" clip-rule="evenodd" d="M12.5838 2.70913C9.83381 0.321752 5.66504 0.435458 3.05025 3.05025C0.316575 5.78392 0.316575 10.2161 3.05025 12.9497C5.78392 15.6834 10.2161 15.6834 12.9497 12.9497C15.5645 10.335 15.6782 6.16619 13.2909 3.41624L13.6568 3.05026C13.8521 2.85499 13.8521 2.53841 13.6568 2.34315C13.4616 2.14789 13.145 2.14789 12.9497 2.34315L12.5838 2.70913ZM11.8746 3.41833C9.51718 1.42026 5.98144 1.53327 3.75735 3.75736C1.41421 6.1005 1.41421 9.8995 3.75735 12.2426C6.1005 14.5858 9.89949 14.5858 12.2426 12.2426C14.4667 10.0186 14.5797 6.48282 12.5817 4.12544L8.96606 7.74105C9.05515 8.07466 8.96883 8.44538 8.7071 8.70711C8.31658 9.09763 7.68341 9.09763 7.29289 8.70711C6.90237 8.31658 6.90237 7.68342 7.29289 7.29289C7.55462 7.03116 7.92534 6.94485 8.25895 7.03394L9.0161 6.27679C8.24915 5.82382 7.24475 5.92682 6.58578 6.58578C5.80473 7.36683 5.80473 8.63316 6.58578 9.41421C6.78104 9.60947 6.78104 9.92606 6.58578 10.1213C6.39052 10.3166 6.07394 10.3166 5.87868 10.1213C4.7071 8.94975 4.7071 7.05025 5.87868 5.87868C6.92979 4.82756 8.56683 4.71949 9.73843 5.55446L10.4528 4.84005C9.7753 4.31321 8.92455 3.99999 7.99997 3.99999C5.79083 3.99999 3.99997 5.79085 3.99997 7.99999C3.99997 10.2091 5.79083 12 7.99997 12C8.27612 12 8.49997 12.2238 8.49997 12.5C8.49997 12.7761 8.27612 13 7.99997 13C5.23855 13 2.99997 10.7614 2.99997 7.99999C2.99997 5.23856 5.23855 2.99999 7.99997 2.99999C9.20042 2.99999 10.3027 3.42353 11.1643 4.12855L11.8746 3.41833Z" />
</svg>
