<svg xmlns="http://www.w3.org/2000/svg" width="16" height="16" viewBox="0 0 16 16">
  <path fill-rule="evenodd" d="M7.00654998,0.5 C7.00654998,0.223858 7.23040998,0 7.50654998,0 C7.78269998,0 8.00654998,0.223858 8.00654998,0.5 L8.00654998,2.52355 C8.10548998,2.46642 8.19657998,2.39094 8.27477998,2.2971 L9.30234998,1.06401 C9.47913998,0.851873 9.79441998,0.823211 10.00656,0.999993 C10.21869,1.17678 10.24736,1.49206 10.07057,1.7042 L8.27477998,3.85915 C8.19657998,3.95299 8.10548998,4.02847 8.00654998,4.0856 L8.00654998,6.63398 L10.21352,5.35979 C10.21352,5.24554 10.23335,5.12891 10.27551,5.01428 L11.2439,2.38159 C11.3392,2.12243 11.6266,1.98961 11.8857,2.08494 C12.1449,2.18026 12.2777,2.46764 12.1824,2.7268 L11.6283,4.23325 C11.5861,4.34789 11.5663,4.46451 11.5663,4.57876 L13.3187,3.56699 C13.5579,3.42892 13.8637,3.51085 14.0017,3.75 C14.1398,3.98915 14.0579,4.29494 13.8187,4.43301 L12.0663,5.44479 C12.1652,5.50191 12.2761,5.54305 12.3965,5.56385 L13.9782,5.83721 C14.2503,5.88424 14.4328,6.14295 14.3857,6.41506 C14.3387,6.68717 14.08,6.86963 13.8079,6.82261 L11.0437,6.34488 C10.9234,6.32408 10.8125,6.28293 10.7135,6.22581 L8.50655998,7.5 L10.7135,8.77419 C10.8125,8.71707 10.9234,8.67592 11.0437,8.65512 L13.8079,8.17739 C14.08,8.13037 14.3387,8.31283 14.3857,8.58494 C14.4328,8.85705 14.2503,9.11576 13.9782,9.16279 L12.3965,9.43615 C12.2762,9.45695 12.1652,9.49809 12.0663,9.55521 L13.8187,10.567 C14.0579,10.7051 14.1398,11.0109 14.0017,11.25 C13.8637,11.4891 13.5579,11.5711 13.3187,11.433 L11.5663,10.4212 C11.5663,10.5355 11.5861,10.6521 11.6283,10.7667 L12.1824,12.2732 C12.2777,12.5324 12.1449,12.8197 11.8857,12.9151 C11.6266,13.0104 11.3392,12.8776 11.2439,12.6184 L10.27552,9.98572 C10.23335,9.87109 10.21353,9.75446 10.21352,9.64021 L8.00654998,8.36602 L8.00654998,10.9144 C8.10548998,10.9715 8.19657998,11.047 8.27477998,11.1408 L10.07057,13.2958 C10.24736,13.5079 10.21869,13.8232 10.00656,14 C9.79441998,14.1768 9.47913998,14.1481 9.30234998,13.936 L8.27477998,12.7029 C8.19657998,12.6091 8.10548998,12.5336 8.00654998,12.4765 L8.00654998,14.5 C8.00654998,14.7761 7.78269998,15 7.50654998,15 C7.23040998,15 7.00654998,14.7761 7.00654998,14.5 L7.00654998,12.4765 C6.90761998,12.5336 6.81652998,12.6091 6.73832998,12.7029 L5.71075998,13.936 C5.53397998,14.1481 5.21868998,14.1768 5.00655998,14 C4.79441998,13.8232 4.76575998,13.5079 4.94253998,13.2958 L6.73832998,11.1408 C6.81652998,11.047 6.90761998,10.9715 7.00654998,10.9144 L7.00654998,8.36603 L4.79959998,9.64022 C4.79958998,9.75446 4.77976998,9.87109 4.73759998,9.98572 L3.76924998,12.6184 C3.67392998,12.8776 3.38654998,13.0104 3.12738998,12.9151 C2.86821998,12.8197 2.73539998,12.5324 2.83072998,12.2732 L3.38482998,10.7668 C3.42698998,10.6521 3.44681998,10.5355 3.44681998,10.4212 L1.69437998,11.433 C1.45523198,11.5711 1.14943698,11.4891 1.01136598,11.25 C0.873293979,11.0109 0.955231979,10.7051 1.19437798,10.567 L2.94681998,9.55522 C2.84787998,9.4981 2.73695998,9.45695 2.61660998,9.43615 L1.03492998,9.16279 C0.762820979,9.11576 0.580357679,8.85705 0.627385819,8.58494 C0.674413979,8.31283 0.933125979,8.13037 1.20523398,8.1774 L3.96937998,8.65513 C4.08973998,8.67593 4.20064998,8.71707 4.29958998,8.77419 L6.50655998,7.5 L4.29959998,6.22581 C4.20064998,6.28293 4.08973998,6.32407 3.96937998,6.34487 L1.20523598,6.8226 C0.933127979,6.86963 0.674416379,6.68717 0.627387849,6.41506 C0.580359379,6.14295 0.762822979,5.88424 1.03493098,5.83721 L2.61660998,5.56385 C2.73696998,5.54305 2.84787998,5.5019 2.94681998,5.44478 L1.19437998,4.43301 C0.955233979,4.29494 0.873295979,3.98915 1.01136798,3.75 C1.14943898,3.51085 1.45523398,3.42891 1.69437998,3.56699 L3.44681998,4.57876 C3.44681998,4.46451 3.42698998,4.34788 3.38482998,4.23325 L2.83072998,2.7268 C2.73539998,2.46763 2.86821998,2.18026 3.12738998,2.08493 C3.38654998,1.9896 3.67392998,2.12242 3.76924998,2.38159 L4.73759998,5.01428 C4.77976998,5.12891 4.79958998,5.24554 4.79959998,5.35978 L7.00654998,6.63397 L7.00654998,4.0856 C6.90761998,4.02847 6.81652998,3.95299 6.73832998,3.85915 L4.94253998,1.7042 C4.76575998,1.49206 4.79441998,1.17678 5.00655998,0.999993 C5.21868998,0.823211 5.53397998,0.851874 5.71075998,1.06401 L6.73832998,2.2971 C6.81652998,2.39094 6.90761998,2.46642 7.00654998,2.52354 L7.00654998,0.5 Z"/>
</svg>
