<svg xmlns="http://www.w3.org/2000/svg" width="16" height="16" viewBox="0 0 16 16">
  <path d="M4.30761231,7 L12.4444444,7 C12.7512693,7 13,7.22385763 13,7.5 C13,7.77614237 12.7512693,8 12.4444444,8 L4.30761138,8 L8.40380592,12.0961945 C8.59906807,12.2914567 8.59906807,12.6080392 8.40380592,12.8033013 C8.20854378,12.9985635 7.89196129,12.9985635 7.69669914,12.8033013 L3.45405845,8.56066064 C3.19586097,8.30246316 3.05146937,7.97355577 3.02088364,7.63627218 C3.00727936,7.59295096 3,7.54724056 3,7.5 C3,7.4527593 3.00727941,7.40704878 3.02088376,7.36372744 C3.05146974,7.02644431 3.19586131,6.69753744 3.45405845,6.4393403 L7.69669914,2.19669961 C7.89196129,2.00143746 8.20854378,2.00143746 8.40380592,2.19669961 C8.59906807,2.39196176 8.59906807,2.70854424 8.40380592,2.90380639 L4.30761231,7 Z" transform="matrix(-1 0 0 1 16 0)"/>
</svg>
