<svg xmlns="http://www.w3.org/2000/svg" width="16" height="16" viewBox="0 0 16 16">
  <path fill-rule="evenodd" d="M8,14 L8,10 L9,10 L9,14 L14,14 L14,11.487 L14,5 L15,5 L15,11.487 L15,14 C15,14.552 14.553,15 14,15 L2,15 C1.447,15 1,14.552 1,14 L1,12 L2,12 L2,14 L8,14 Z M12.8532156,3.85378563 L9.85413507,6.85386389 C9.94763717,7.04949222 10,7.26859036 10,7.5 C10,8.329 9.328,9 8.5,9 C8.01917114,9 7.59094945,8.7737217 7.31638353,8.4216262 L4.60215016,9.32622263 L3.99976065,9.52707951 C3.98531653,10.3435632 3.31896538,11 2.5,11 C1.672,11 1,10.329 1,9.5 C1,8.671 1.672,8 2.5,8 C2.98098618,8 3.40933075,8.22642639 3.68388591,8.57871942 L7.00023985,7.47289256 C7.01469867,6.65642184 7.68104396,6 8.5,6 C8.7313711,6 8.95056122,6.05239382 9.14631172,6.14598828 L12.1459616,3.14633838 C12.0523989,2.9506588 12,2.73148939 12,2.5 C12,1.671 12.672,1 13.5,1 C14.328,1 15,1.671 15,2.5 C15,3.329 14.328,4 13.5,4 C13.2684427,4 13.0490859,3.9475218 12.8532156,3.85378563 Z"/>
</svg>
