<svg xmlns="http://www.w3.org/2000/svg" xmlns:xlink="http://www.w3.org/1999/xlink" width="16" height="16" viewBox="0 0 16 16">
  <path id="stop_slash-a" d="M12.2590216,3.03387162 C12.1764083,3.01177863 12.0895797,3 12,3 L4,3 C3.44771525,3 3,3.44771525 3,4 L3,12 C3,12.0895797 3.01177863,12.1764083 3.03387162,12.2590216 L12.2590216,3.03387162 Z M12.9661284,3.7409784 L3.7409784,12.9661284 C3.82359172,12.9882214 3.91042034,13 4,13 L12,13 C12.5522847,13 13,12.5522847 13,12 L13,4 C13,3.91042034 12.9882214,3.82359172 12.9661284,3.7409784 Z M4,2 L12,2 C13.1045695,2 14,2.8954305 14,4 L14,12 C14,13.1045695 13.1045695,14 12,14 L4,14 C2.8954305,14 2,13.1045695 2,12 L2,4 C2,2.8954305 2.8954305,2 4,2 Z"/>
</svg>
