<svg width="16" height="16" viewBox="0 0 16 16" fill="none" xmlns="http://www.w3.org/2000/svg">
  <path fill-rule="evenodd" clip-rule="evenodd" d="M6 2H1V14H4V7C4 6.44772 4.44772 6 5 6H10C10.5523 6 11 6.44772 11 7V8H15V4H7C6.37868 4 6 3.62132 6 3V2ZM16 8V9V14C16 14.5523 15.5523 15 15 15H1C0.447715 15 0 14.5523 0 14V2C0 1.44772 0.447715 1 1 1H6.25C6.66421 1 7 1.33579 7 1.75C7 1.77775 6.99838 1.85414 6.99622 1.95633V1.95634C6.98858 2.31723 6.97413 3 7 3H15C15.5523 3 16 3.44772 16 4V8ZM15 9H11C10.4477 9 10 8.55228 10 8V7H5V14H15V9ZM2 4.5C2 4.22386 2.22386 4 2.5 4H4.5C4.77614 4 5 4.22386 5 4.5C5 4.77614 4.77614 5 4.5 5H2.5C2.22386 5 2 4.77614 2 4.5ZM6.5 9C6.22386 9 6 9.22386 6 9.5C6 9.77614 6.22386 10 6.5 10H8.5C8.77614 10 9 9.77614 9 9.5C9 9.22386 8.77614 9 8.5 9H6.5Z"/>
</svg>
