<svg xmlns="http://www.w3.org/2000/svg" width="16" height="16" viewBox="0 0 16 16">
  <path d="M16.000488,3 L16.000488,4 L16,14 C16,15.1045695 15.1045695,16 14,16 L2,16 C0.8954305,16 8.8817842e-16,15.1045695 8.8817842e-16,14 L8.8817842e-16,2 C8.8817842e-16,0.8954305 0.8954305,0 2,0 L14,0 C15.1045695,0 16,0.8954305 16,2 L16,3 L16.000488,3 Z M15,3 L15,2 C15,1.44771525 14.5522847,1 14,1 L2,1 C1.44771525,1 1,1.44771525 1,2 L1,3 L15,3 Z M15,4 L1,4 L1,14 C1,14.5522847 1.44771525,15 2,15 L14,15 C14.5522847,15 15,14.5522847 15,14 L15,4 Z M4.5,7 C4.77614237,7 5,7.22385763 5,7.5 C5,7.77614237 4.77614237,8 4.5,8 L2.49572754,8 C2.21958516,8 1.99572754,7.77614237 1.99572754,7.5 C1.99572754,7.22385763 2.21958516,7 2.49572754,7 L4.5,7 Z M13.5,7 C13.7761424,7 14,7.22385763 14,7.5 C14,7.77614237 13.7761424,8 13.5,8 L7.5,8 C7.22385763,8 7,7.77614237 7,7.5 C7,7.22385763 7.22385763,7 7.5,7 L13.5,7 Z M4.5,11 C4.77614237,11 5,11.2238576 5,11.5 C5,11.7761424 4.77614237,12 4.5,12 L2.49572754,12 C2.21958516,12 1.99572754,11.7761424 1.99572754,11.5 C1.99572754,11.2238576 2.21958516,11 2.49572754,11 L4.5,11 Z M13.5,11 C13.7761424,11 14,11.2238576 14,11.5 C14,11.7761424 13.7761424,12 13.5,12 L7.5,12 C7.22385763,12 7,11.7761424 7,11.5 C7,11.2238576 7.22385763,11 7.5,11 L13.5,11 Z"/>
</svg>
