<svg xmlns="http://www.w3.org/2000/svg" width="16" height="16" viewBox="0 0 16 16">
  <path d="M16.000488,3 L16.000488,4 L16,14 C16,15.1045695 15.1045695,16 14,16 L2,16 C0.8954305,16 8.8817842e-16,15.1045695 8.8817842e-16,14 L8.8817842e-16,2 C8.8817842e-16,0.8954305 0.8954305,0 2,0 L14,0 C15.1045695,0 16,0.8954305 16,2 L16,3 L16.000488,3 Z M15,3 L15,2 C15,1.44771525 14.5522847,1 14,1 L2,1 C1.44771525,1 1,1.44771525 1,2 L1,3 L15,3 Z M15,4 L1,4 L1,14 C1,14.5522847 1.44771525,15 2,15 L14,15 C14.5522847,15 15,14.5522847 15,14 L15,4 Z M4.4964386,7 C4.77218826,7 4.99572754,7.22385763 4.99572754,7.5 C4.99572754,7.77614237 4.77218826,8 4.4964386,8 L2.49501648,8 C2.21926681,8 1.99572754,7.77614237 1.99572754,7.5 C1.99572754,7.22385763 2.21926681,7 2.49501648,7 L4.4964386,7 Z M9.71428571,7 C9.87208137,7 10,7.22385763 10,7.5 C10,7.77614237 9.87208137,8 9.71428571,8 L6.28571429,8 C6.12791865,8 6,7.77614237 6,7.5 C6,7.22385763 6.12791865,7 6.28571429,7 L9.71428571,7 Z M4.4964386,5 C4.77218826,5 4.99572754,5.22385763 4.99572754,5.5 C4.99572754,5.77614237 4.77218826,6 4.4964386,6 L2.49501648,6 C2.21926681,6 1.99572754,5.77614237 1.99572754,5.5 C1.99572754,5.22385763 2.21926681,5 2.49501648,5 L4.4964386,5 Z M9.71428571,5 C9.87208137,5 10,5.22385763 10,5.5 C10,5.77614237 9.87208137,6 9.71428571,6 L6.28571429,6 C6.12791865,6 6,5.77614237 6,5.5 C6,5.22385763 6.12791865,5 6.28571429,5 L9.71428571,5 Z M4.4964386,9 C4.77218826,9 4.99572754,9.22385763 4.99572754,9.5 C4.99572754,9.77614237 4.77218826,10 4.4964386,10 L2.49501648,10 C2.21926681,10 1.99572754,9.77614237 1.99572754,9.5 C1.99572754,9.22385763 2.21926681,9 2.49501648,9 L4.4964386,9 Z M9.71428571,9 C9.87208137,9 10,9.22385763 10,9.5 C10,9.77614237 9.87208137,10 9.71428571,10 L6.28571429,10 C6.12791865,10 6,9.77614237 6,9.5 C6,9.22385763 6.12791865,9 6.28571429,9 L9.71428571,9 Z M4.4964386,11 C4.77218826,11 4.99572754,11.2238576 4.99572754,11.5 C4.99572754,11.7761424 4.77218826,12 4.4964386,12 L2.49501648,12 C2.21926681,12 1.99572754,11.7761424 1.99572754,11.5 C1.99572754,11.2238576 2.21926681,11 2.49501648,11 L4.4964386,11 Z M9.71428571,11 C9.87208137,11 10,11.2238576 10,11.5 C10,11.7761424 9.87208137,12 9.71428571,12 L6.28571429,12 C6.12791865,12 6,11.7761424 6,11.5 C6,11.2238576 6.12791865,11 6.28571429,11 L9.71428571,11 Z M4.4964386,13 C4.77218826,13 4.99572754,13.2238576 4.99572754,13.5 C4.99572754,13.7761424 4.77218826,14 4.4964386,14 L2.49501648,14 C2.21926681,14 1.99572754,13.7761424 1.99572754,13.5 C1.99572754,13.2238576 2.21926681,13 2.49501648,13 L4.4964386,13 Z M13.4964386,7 C13.7721883,7 13.9957275,7.22385763 13.9957275,7.5 C13.9957275,7.77614237 13.7721883,8 13.4964386,8 L11.4950165,8 C11.2192668,8 10.9957275,7.77614237 10.9957275,7.5 C10.9957275,7.22385763 11.2192668,7 11.4950165,7 L13.4964386,7 Z M13.4964386,5 C13.7721883,5 13.9957275,5.22385763 13.9957275,5.5 C13.9957275,5.77614237 13.7721883,6 13.4964386,6 L11.4950165,6 C11.2192668,6 10.9957275,5.77614237 10.9957275,5.5 C10.9957275,5.22385763 11.2192668,5 11.4950165,5 L13.4964386,5 Z M13.4964386,9 C13.7721883,9 13.9957275,9.22385763 13.9957275,9.5 C13.9957275,9.77614237 13.7721883,10 13.4964386,10 L11.4950165,10 C11.2192668,10 10.9957275,9.77614237 10.9957275,9.5 C10.9957275,9.22385763 11.2192668,9 11.4950165,9 L13.4964386,9 Z M13.4964386,11 C13.7721883,11 13.9957275,11.2238576 13.9957275,11.5 C13.9957275,11.7761424 13.7721883,12 13.4964386,12 L11.4950165,12 C11.2192668,12 10.9957275,11.7761424 10.9957275,11.5 C10.9957275,11.2238576 11.2192668,11 11.4950165,11 L13.4964386,11 Z M13.4964386,13 C13.7721883,13 13.9957275,13.2238576 13.9957275,13.5 C13.9957275,13.7761424 13.7721883,14 13.4964386,14 L11.4950165,14 C11.2192668,14 10.9957275,13.7761424 10.9957275,13.5 C10.9957275,13.2238576 11.2192668,13 11.4950165,13 L13.4964386,13 Z M9.71428571,13 C9.87208137,13 10,13.2238576 10,13.5 C10,13.7761424 9.87208137,14 9.71428571,14 L6.28571429,14 C6.12791865,14 6,13.7761424 6,13.5 C6,13.2238576 6.12791865,13 6.28571429,13 L9.71428571,13 Z"/>
</svg>
