<svg width="16" height="16" viewBox="0 0 16 16" xmlns="http://www.w3.org/2000/svg">
  <path fill-rule="evenodd" clip-rule="evenodd" d="M7 4.5C7 4.77614 7.22386 5 7.5 5C7.77614 5 8 4.77614 8 4.5V4H9C9.55228 4 10 3.55228 10 3V1C10 0.447715 9.55228 0 9 0H6C5.44772 0 5 0.447715 5 1V3C5 3.55228 5.44772 4 6 4H7V4.5ZM9 1H6V3H9V1Z" />
  <path fill-rule="evenodd" clip-rule="evenodd" d="M2.5 9C1.84689 9 1.29127 8.5826 1.08535 8H0.5C0.223858 8 0 7.77614 0 7.5C0 7.22386 0.223858 7 0.5 7H1.08535C1.29127 6.4174 1.84689 6 2.5 6C3.15311 6 3.70873 6.4174 3.91465 7H6.08535C6.29127 6.4174 6.84689 6 7.5 6C8.15311 6 8.70873 6.4174 8.91465 7H11.0854C11.2913 6.4174 11.8469 6 12.5 6C13.1531 6 13.7087 6.4174 13.9146 7H14.5C14.7761 7 15 7.22386 15 7.5C15 7.77614 14.7761 8 14.5 8H13.9146C13.7087 8.5826 13.1531 9 12.5 9C11.8469 9 11.2913 8.5826 11.0854 8H8.91465C8.70873 8.5826 8.15311 9 7.5 9C6.84689 9 6.29127 8.5826 6.08535 8H3.91465C3.70873 8.5826 3.15311 9 2.5 9ZM2 7.5C2 7.22386 2.22386 7 2.5 7C2.77614 7 3 7.22386 3 7.5C3 7.77614 2.77614 8 2.5 8C2.22386 8 2 7.77614 2 7.5ZM13 7.5C13 7.22386 12.7761 7 12.5 7C12.2239 7 12 7.22386 12 7.5C12 7.77614 12.2239 8 12.5 8C12.7761 8 13 7.77614 13 7.5ZM8 7.5C8 7.22386 7.77614 7 7.5 7C7.22386 7 7 7.22386 7 7.5C7 7.77614 7.22386 8 7.5 8C7.77614 8 8 7.77614 8 7.5Z" />
  <path fill-rule="evenodd" clip-rule="evenodd" d="M2.5 10C2.22386 10 2 10.2239 2 10.5V11H1C0.447715 11 0 11.4477 0 12V14C0 14.5523 0.447715 15 1 15H4C4.55228 15 5 14.5523 5 14V12C5 11.4477 4.55228 11 4 11H3V10.5C3 10.2239 2.77614 10 2.5 10ZM4 14V12H1V14H4Z" />
  <path fill-rule="evenodd" clip-rule="evenodd" d="M12 10.5C12 10.2239 12.2239 10 12.5 10C12.7761 10 13 10.2239 13 10.5V11H14C14.5523 11 15 11.4477 15 12V14C15 14.5523 14.5523 15 14 15H11C10.4477 15 10 14.5523 10 14V12C10 11.4477 10.4477 11 11 11H12V10.5ZM14 14H11V12H14V14Z" />
</svg>
