<svg width="16" height="16" viewBox="0 0 16 16"  xmlns="http://www.w3.org/2000/svg">
  <path fill-rule="evenodd" clip-rule="evenodd" d="M7.5 5C7.5 5.27614 7.72386 5.5 8 5.5C8.27614 5.5 8.5 5.27614 8.5 5V4.5H10C10.5523 4.5 11 4.05228 11 3.5V2C11 1.44772 10.5523 1 10 1H6C5.44772 1 5 1.44772 5 2V3.5C5 4.05228 5.44772 4.5 6 4.5H7.5V5ZM10 2H6V3.5H10V2Z" />
  <path fill-rule="evenodd" clip-rule="evenodd" d="M3 9.5C3.65567 9.5 4.21308 9.07932 4.41705 8.49315C4.44403 8.49766 4.47174 8.5 4.5 8.5H6.5C6.52826 8.5 6.55597 8.49766 6.58295 8.49315C6.78692 9.07932 7.34433 9.5 8 9.5C8.65567 9.5 9.21308 9.07932 9.41705 8.49315C9.44403 8.49766 9.47174 8.5 9.5 8.5H11.5C11.5283 8.5 11.556 8.49766 11.583 8.49315C11.7869 9.07932 12.3443 9.5 13 9.5C13.6557 9.5 14.2131 9.07932 14.417 8.49315C14.444 8.49766 14.4717 8.5 14.5 8.5H15.5C15.7761 8.5 16 8.27614 16 8C16 7.72386 15.7761 7.5 15.5 7.5H14.5C14.4717 7.5 14.444 7.50234 14.417 7.50685C14.2131 6.92068 13.6557 6.5 13 6.5C12.3443 6.5 11.7869 6.92068 11.583 7.50685C11.556 7.50234 11.5283 7.5 11.5 7.5H9.5C9.47174 7.5 9.44403 7.50234 9.41705 7.50685C9.21308 6.92068 8.65567 6.5 8 6.5C7.34433 6.5 6.78692 6.92068 6.58295 7.50685C6.55597 7.50234 6.52826 7.5 6.5 7.5H4.5C4.47174 7.5 4.44403 7.50234 4.41705 7.50685C4.21308 6.92068 3.65567 6.5 3 6.5C2.34433 6.5 1.78692 6.92068 1.58295 7.50685C1.55597 7.50234 1.52826 7.5 1.5 7.5H0.5C0.223858 7.5 0 7.72386 0 8C0 8.27614 0.223858 8.5 0.5 8.5H1.5C1.52826 8.5 1.55597 8.49766 1.58295 8.49315C1.78692 9.07932 2.34433 9.5 3 9.5ZM2.5 8C2.5 7.72386 2.72386 7.5 3 7.5C3.27614 7.5 3.5 7.72386 3.5 8C3.5 8.27614 3.27614 8.5 3 8.5C2.72386 8.5 2.5 8.27614 2.5 8ZM7.5 8C7.5 7.72386 7.72386 7.5 8 7.5C8.27614 7.5 8.5 7.72386 8.5 8C8.5 8.27614 8.27614 8.5 8 8.5C7.72386 8.5 7.5 8.27614 7.5 8ZM13 7.5C12.7239 7.5 12.5 7.72386 12.5 8C12.5 8.27614 12.7239 8.5 13 8.5C13.2761 8.5 13.5 8.27614 13.5 8C13.5 7.72386 13.2761 7.5 13 7.5Z" />
  <path fill-rule="evenodd" clip-rule="evenodd" d="M3 10.5C2.72386 10.5 2.5 10.7239 2.5 11V11.5H1C0.447715 11.5 0 11.9477 0 12.5V14C0 14.5523 0.447715 15 1 15H5C5.55228 15 6 14.5523 6 14V12.5C6 11.9477 5.55228 11.5 5 11.5H3.5V11C3.5 10.7239 3.27614 10.5 3 10.5ZM5 14V12.5H1V14H5Z" />
  <path fill-rule="evenodd" clip-rule="evenodd" d="M12.5 11C12.5 10.7239 12.7239 10.5 13 10.5C13.2761 10.5 13.5 10.7239 13.5 11V11.5H15C15.5523 11.5 16 11.9477 16 12.5V14C16 14.5523 15.5523 15 15 15H11C10.4477 15 10 14.5523 10 14V12.5C10 11.9477 10.4477 11.5 11 11.5H12.5V11ZM15 14H11V12.5H15V14Z" />
</svg>
