<svg xmlns="http://www.w3.org/2000/svg" width="16" height="16" viewBox="0 0 16 16">
  <g fill="none" fill-rule="evenodd">
    <path fill="#000" fill-rule="nonzero" d="M1,11 L1,1 L12,1 L12,3.5 C12,3.77614237 12.2238576,4 12.5,4 C12.7761424,4 13,3.77614237 13,3.5 L13,0.5 C13,0.223857625 12.7761424,0 12.5,0 L0.5,0 C0.223857625,0 0,0.223857625 0,0.5 L0,11.5 C0,11.7761424 0.223857625,12 0.5,12 L5.5,12 C5.77614237,12 6,11.7761424 6,11.5 C6,11.2238576 5.77614237,11 5.5,11 L1,11 Z"/>
    <path fill="#000" fill-rule="nonzero" d="M16,14 L16,15.5 C16,15.7761424 15.7761424,16 15.5,16 C15.2238576,16 15,15.7761424 15,15.5 L15,14 C15,12.2761424 13.7238576,11 12,11 C11.089894,11 10.7020605,10.9807464 10.1953277,10.8779363 C8.94554177,10.6243696 7.86201213,9.87790569 6.6095656,8.31234752 C6.43706082,8.09671656 6.47202151,7.78207037 6.68765248,7.6095656 C6.90328344,7.43706082 7.21792963,7.47202151 7.3904344,7.68765248 C8.29031041,8.81249749 9.0427005,9.42863784 9.82378816,9.73131871 C9.61767795,9.36781191 9.5,8.94755792 9.5,8.49979073 C9.5,7.11917681 10.6193833,6 12,6 C13.3806167,6 14.5,7.11917681 14.5,8.49979073 C14.5,9.23163361 14.1856407,9.88997904 13.6846127,10.3471876 C15.0746061,10.9611204 16,12.3323226 16,14 Z M13.5,8.49979073 C13.5,7.67150286 12.8283733,7 12,7 C11.1716267,7 10.5,7.67150286 10.5,8.49979073 C10.5,9.32844859 11.1715782,10 12,10 C12.8284218,10 13.5,9.32844859 13.5,8.49979073 Z"/>
    <path fill="#000" fill-rule="nonzero" d="M9 15.5L9 14C9 13.148538 9.13355205 12.6430053 9.72133969 11.992514 9.90647699 11.7876267 9.89046648 11.4714493 9.68557921 11.286312 9.48069195 11.1011747 9.16451457 11.1171852 8.97937727 11.3220725 8.19353691 12.1917443 8 12.9243368 8 14L8 15.5C8 15.7761424 8.22385763 16 8.5 16 8.77614237 16 9 15.7761424 9 15.5zM5.95827032 5.77244277L3.89045282 3.18767089C3.71794804 2.97203992 3.40330186 2.93707923 3.18767089 3.10958401 2.97203992 3.28208878 2.93707923 3.59673497 3.10958401 3.81236594L5.17740151 6.39713781C5.34990628 6.61276878 5.66455247 6.64772947 5.88018344 6.47522469 6.0958144 6.30271992 6.13077509 5.98807373 5.95827032 5.77244277z"/>
  </g>
</svg>
