<svg xmlns="http://www.w3.org/2000/svg" width="16" height="16" viewBox="0 0 16 16">
  <g fill="none" fill-rule="evenodd">
    <path fill="#000" fill-rule="nonzero" d="M15,4 L15,2 C15,1.44771525 14.5522847,1 14,1 L2,1 C1.44771525,1 1,1.44771525 1,2 L1,4 L15,4 Z M15,5 L1,5 L1,14 C1,14.5522847 1.44771525,15 2,15 L14,15 C14.5522847,15 15,14.5522847 15,14 L15,5 Z M2,0 L14,0 C15.1045695,0 16,0.8954305 16,2 L16,14 C16,15.1045695 15.1045695,16 14,16 L2,16 C0.8954305,16 0,15.1045695 0,14 L0,2 C0,0.8954305 0.8954305,0 2,0 Z"/>
    <path fill="#000" fill-rule="nonzero" d="M2.5 3L3.5 3C3.77614237 3 4 2.77614237 4 2.5 4 2.22385763 3.77614237 2 3.5 2L2.5 2C2.22385763 2 2 2.22385763 2 2.5 2 2.77614237 2.22385763 3 2.5 3zM5.5 3L6.5 3C6.77614237 3 7 2.77614237 7 2.5 7 2.22385763 6.77614237 2 6.5 2L5.5 2C5.22385763 2 5 2.22385763 5 2.5 5 2.77614237 5.22385763 3 5.5 3zM5 7.6L5 12.6C5 12.971691 5.39115625 13.2134389 5.7236068 13.0472136L10.7236068 10.5472136C11.0921311 10.3629515 11.0921311 9.83704854 10.7236068 9.6527864L5.7236068 7.1527864C5.39115625 6.98656113 5 7.22830899 5 7.6zM9.38196601 10.1L6 11.790983 6 8.40901699 9.38196601 10.1z"/>
  </g>
</svg>
