<svg xmlns="http://www.w3.org/2000/svg" width="16" height="16" viewBox="0 0 16 16">
  <path d="M2.41421356,8.03553391 L4.8890873,10.5104076 C5.08434944,10.7056698 5.08434944,11.0222523 4.8890873,11.2175144 C4.69382515,11.4127766 4.37724266,11.4127766 4.18198052,11.2175144 L1.35355339,8.3890873 C1.15829124,8.19382515 1.15829124,7.87724266 1.35355339,7.68198052 L4.18198052,4.85355339 C4.37724266,4.65829124 4.69382515,4.65829124 4.8890873,4.85355339 C5.08434944,5.04881554 5.08434944,5.36539803 4.8890873,5.56066017 L2.41421356,8.03553391 Z M11.1819805,10.5104076 L13.6568542,8.03553391 L11.1819805,5.56066017 C10.9867184,5.36539803 10.9867184,5.04881554 11.1819805,4.85355339 C11.3772427,4.65829124 11.6938252,4.65829124 11.8890873,4.85355339 L14.7175144,7.68198052 C14.9127766,7.87724266 14.9127766,8.19382515 14.7175144,8.3890873 L11.8890873,11.2175144 C11.6938252,11.4127766 11.3772427,11.4127766 11.1819805,11.2175144 C10.9867184,11.0222523 10.9867184,10.7056698 11.1819805,10.5104076 Z M8.55863588,2.50564599 C8.61132633,2.23457713 8.87378511,2.05754645 9.14485397,2.1102369 C9.41592283,2.16292735 9.59295352,2.42538613 9.54026307,2.69645499 L7.44136412,13.494354 C7.38867367,13.7654229 7.12621489,13.9424535 6.85514603,13.8897631 C6.58407717,13.8370727 6.40704648,13.5746139 6.45973693,13.303545 L8.55863588,2.50564599 Z"/>
</svg>
