<svg xmlns="http://www.w3.org/2000/svg" width="16" height="16" viewBox="0 0 16 16">
  <path d="M14.5,15 C14.7761424,15 15,15.2238576 15,15.5 C15,15.7761424 14.7761424,16 14.5,16 L0.5,16 C0.223857625,16 3.061617e-17,15.7761424 3.061617e-17,15.5 C3.061617e-17,15.2238576 0.223857625,15 0.5,15 L14.5,15 Z M5.5,2 C5.77614237,2 6,2.22385763 6,2.5 L5.999,7 L9,7 L9,4.5 C9,4.22385763 9.22385763,4 9.5,4 L13.5,4 C13.7761424,4 14,4.22385763 14,4.5 L14,13.5 C14,13.7761424 13.7761424,14 13.5,14 C13.2238576,14 13,13.7761424 13,13.5 L13,7 L10,7 L10,13.5 C10,13.7454599 9.82312484,13.9496084 9.58987563,13.9919443 L9.5,14 C9.22385763,14 9,13.7761424 9,13.5 L9,10 L6,10 L6,13.5 C6,13.7761424 5.77614237,14 5.5,14 C5.25454011,14 5.05039163,13.8231248 5.00805567,13.5898756 L5,13.5 L5,6 L2,6 L2,13.5 C2,13.7761424 1.77614237,14 1.5,14 C1.22385763,14 1,13.7761424 1,13.5 L1,2.5 C1,2.22385763 1.22385763,2 1.5,2 L5.5,2 Z"/>
</svg>
