<svg xmlns="http://www.w3.org/2000/svg" width="16" height="16" viewBox="0 0 16 16">
  <path d="M0.5,0 C0.776142375,0 1,0.223857625 1,0.5 L1,14.5 C1,14.7761424 0.776142375,15 0.5,15 C0.223857625,15 0,14.7761424 0,14.5 L0,0.5 C0,0.223857625 0.223857625,0 0.5,0 Z M13.5,1 C13.7761424,1 14,1.22385763 14,1.5 L14,5.5 C14,5.77614237 13.7761424,6 13.5,6 L9,6 L9,9 L11.5,9 C11.7761424,9 12,9.22385763 12,9.5 L12,13.5 C12,13.7761424 11.7761424,14 11.5,14 L2.5,14 C2.22385763,14 2,13.7761424 2,13.5 C2,13.2238576 2.22385763,13 2.5,13 L9,13 L9,10 L2.5,10 C2.22385763,10 2,9.77614237 2,9.5 C2,9.22385763 2.22385763,9 2.5,9 L6,9 L6,6 L2.5,6 C2.22385763,6 2,5.77614237 2,5.5 C2,5.22385763 2.22385763,5 2.5,5 L10,5 L10,2 L2.5,2 C2.22385763,2 2,1.77614237 2,1.5 C2,1.22385763 2.22385763,1 2.5,1 L13.5,1 Z"/>
</svg>
