<svg xmlns="http://www.w3.org/2000/svg" width="16" height="16" viewBox="0 0 16 16">
  <path d="M12.6541971,3.47948296 C12.9015331,3.70460207 13.2055395,3.86854185 13.5422991,3.947385 L11.2395431,9.43033165 C10.9792319,9.22448778 10.6665037,9.08201809 10.3246516,9.02621599 L12.6541971,3.47948296 Z M9.14598967,9.19098128 C8.83859892,9.33635118 8.57420211,9.55776158 8.37707809,9.83093364 L6.80451146,7.83160473 C7.11611713,7.69453816 7.38610212,7.48028507 7.59025708,7.21305482 L9.14598967,9.19098128 Z M5.58099758,7.95603883 L3.4472136,12.2236068 C3.32371897,12.470596 3.02338245,12.5707082 2.7763932,12.4472136 C2.52940395,12.323719 2.42929178,12.0233825 2.5527864,11.7763932 L4.68674747,7.50847107 C4.93763151,7.727071 5.24356184,7.88410721 5.58099758,7.95603883 Z M1,15 L14.5,15 C14.7761424,15 15,15.2238576 15,15.5 C15,15.7761424 14.7761424,16 14.5,16 L0.5,16 C0.223857625,16 0,15.7761424 0,15.5 L0,1.5 C0,1.22385763 0.223857625,1 0.5,1 C0.776142375,1 1,1.22385763 1,1.5 L1,15 Z M6,7 C5.44771525,7 5,6.55228475 5,6 C5,5.44771525 5.44771525,5 6,5 C6.55228475,5 7,5.44771525 7,6 C7,6.55228475 6.55228475,7 6,7 Z M10,12 C9.44771525,12 9,11.5522847 9,11 C9,10.4477153 9.44771525,10 10,10 C10.5522847,10 11,10.4477153 11,11 C11,11.5522847 10.5522847,12 10,12 Z M14,3 C13.4477153,3 13,2.55228475 13,2 C13,1.44771525 13.4477153,1 14,1 C14.5522847,1 15,1.44771525 15,2 C15,2.55228475 14.5522847,3 14,3 Z"/>
</svg>
