<svg xmlns="http://www.w3.org/2000/svg" width="16" height="16" viewBox="0 0 16 16">
  <g>
    <path d="M15.1804878,11.5512195 L11.2780488,7.64878049 C11.1219512,7.49268293 10.8878049,7.49268293 10.7317073,7.64878049 C10.5756098,7.80487805 10.5756098,8.03902439 10.7317073,8.19512195 L14.6341463,12.097561 C15.3365854,12.8 15.3365854,13.9707317 14.6341463,14.6731707 C14.2829268,15.0243902 13.8146341,15.2195122 13.3463415,15.2195122 C12.8780488,15.2195122 12.4097561,15.0243902 12.0585366,14.6731707 L7.1804878,9.83414634 C8.54634146,9.24878049 9.56097561,8.07804878 9.9902439,6.63414634 C10.1463415,6.08780488 10.1853659,5.54146341 10.1463415,4.99512195 C9.9902439,2.57560976 7.96097561,0.546341463 5.54146341,0.390243902 C4.72195122,0.351219512 3.94146341,0.507317073 3.2,0.819512195 C3.12195122,0.897560976 3.04390244,0.975609756 3.00487805,1.13170732 C2.96585366,1.24878049 3.00487805,1.36585366 3.12195122,1.44390244 L5.85365854,4.21463415 C6.32195122,4.68292683 6.32195122,5.42439024 5.85365854,5.89268293 C5.38536585,6.32195122 4.60487805,6.32195122 4.17560976,5.89268293 L1.44390244,3.12195122 C1.32682927,3.04390244 1.2097561,3.00487805 1.09268293,3.04390244 C0.936585366,3.08292683 0.858536585,3.16097561 0.780487805,3.27804878 C0.468292683,3.94146341 0.312195122,4.68292683 0.351219512,5.42439024 C0.390243902,7.76585366 2.18536585,9.79512195 4.44878049,10.1463415 C4.72195122,10.1853659 4.99512195,10.2243902 5.26829268,10.2243902 C5.6195122,10.2243902 6.0097561,10.1853659 6.36097561,10.1073171 L11.5121951,15.2195122 C12.0195122,15.7268293 12.6439024,16 13.3463415,16 C14.0487805,16 14.7121951,15.7268293 15.1804878,15.2195122 C16.195122,14.204878 16.195122,12.5658537 15.1804878,11.5512195 Z M6.32195122,9.28780488 C5.77560976,9.44390244 5.15121951,9.48292683 4.56585366,9.36585366 C2.65365854,9.05365854 1.17073171,7.37560976 1.13170732,5.42439024 C1.13170732,4.99512195 1.17073171,4.56585366 1.28780488,4.13658537 L3.62926829,6.43902439 C4.0195122,6.82926829 4.48780488,7.02439024 5.03414634,7.02439024 C5.5804878,7.02439024 6.04878049,6.82926829 6.43902439,6.43902439 C7.2195122,5.65853659 7.2195122,4.4097561 6.43902439,3.62926829 L4.09756098,1.32682927 C4.52682927,1.2097561 5.03414634,1.17073171 5.50243902,1.17073171 C7.53170732,1.28780488 9.24878049,2.96585366 9.36585366,5.03414634 C9.40487805,5.50243902 9.36585366,5.97073171 9.2097561,6.4 C8.8195122,7.76585366 7.72682927,8.85853659 6.36097561,9.24878049 C6.36097561,9.28780488 6.36097561,9.28780488 6.32195122,9.28780488 Z"/>
    <path d="M12.7219512,13.9317073 C12.0585366,13.9317073 11.5512195,13.4243902 11.5512195,12.7609756 C11.5512195,12.097561 12.0585366,11.5902439 12.7219512,11.5902439 C13.3853659,11.5902439 13.8926829,12.097561 13.8926829,12.7609756 C13.8926829,13.3853659 13.3853659,13.9317073 12.7219512,13.9317073 Z"/>
  </g>
</svg>
