<svg xmlns="http://www.w3.org/2000/svg" xmlns:xlink="http://www.w3.org/1999/xlink" width="16" height="16" viewBox="0 0 16 16">
  <path d="M9.14663462,4.29740343 L8.89242788,5.75233131 L9.828125,5.75233131 L9.60637019,7.01795631 L8.67067308,7.01795631 L8.21634615,9.70605727 C8.19110564,9.88995242 8.20282428,10.0287731 8.2515024,10.1225236 C8.30018053,10.2162741 8.42187403,10.2667544 8.61658654,10.2739659 C8.69230807,10.2775717 8.8473546,10.2685574 9.08173077,10.2469227 L8.95192308,11.5666342 C8.65264273,11.6639905 8.33353535,11.7090621 7.99459135,11.7018505 C7.4429059,11.694639 7.03004945,11.532381 6.75600962,11.2150717 C6.48196978,10.8977624 6.37019206,10.4668773 6.42067308,9.92240343 L6.89663462,7.01795631 L6.171875,7.01795631 L6.38822115,5.75233131 L7.11298077,5.75233131 L7.3671875,4.29740343 L9.14663462,4.29740343 Z"/>
</svg>
