<svg xmlns="http://www.w3.org/2000/svg" width="16" height="16" viewBox="0 0 16 16">
  <path fill-rule="evenodd" d="M4.336332,4.66666667 L7.00299867,4.66666667 L7.00299867,7.33333333 L4.336332,7.33333333 L4.336332,4.66666667 Z M4.336332,8.66666667 L7.00299867,8.66666667 L7.00299867,11.3333333 L4.336332,11.3333333 L4.336332,8.66666667 Z M8.336332,4.66666667 L11.0029987,4.66666667 L11.0029987,7.33333333 L8.336332,7.33333333 L8.336332,4.66666667 Z M8.336332,8.66666667 L11.0029987,8.66666667 L11.0029987,11.3333333 L8.336332,11.3333333 L8.336332,8.66666667 Z M3.00299867,3.33333333 L3.00299867,12.6666667 L12.336332,12.6666667 L12.336332,3.33333333 L3.00299867,3.33333333 Z M3.00299867,2 L12.336332,2 C13.0727117,2 13.6696653,2.59695367 13.6696653,3.33333333 L13.6696653,12.6666667 C13.6696653,13.4030463 13.0727117,14 12.336332,14 L3.00299867,14 C2.266619,14 1.66966534,13.4030463 1.66966534,12.6666667 L1.66966534,3.33333333 C1.66966534,2.59695367 2.266619,2 3.00299867,2 Z"/>
</svg>
