<svg xmlns="http://www.w3.org/2000/svg" width="16" height="16" viewBox="0 0 16 16">
	<g fill-rule="evenodd">
		<path d="M11,3 C12.0438357,3 12.9134719,3.75685822 12.9939274,4.73612423 L13,4.88461538 L13,11.1153846 C13,12.1155553 12.1800703,12.9200407 11.155192,12.9943904 L11,13 L9.50102539,13 C9.22488302,13 9.00102539,12.7761424 9.00102539,12.5 C9.00102539,12.2545401 9.17790055,12.0503916 9.41114976,12.0080557 L9.50102539,12 L11,12 C11.5207677,12 11.9366403,11.650454 11.9933937,11.2168247 L12,11.1153846 L12,4.88461538 C12,4.43962099 11.6213251,4.05828966 11.1181994,4.00608413 L11,4 L9.5,4 C9.22385763,4 9,3.77614237 9,3.5 C9,3.25454011 9.17687516,3.05039163 9.41012437,3.00805567 L9.5,3 L11,3 Z M6.5,3 C6.77614237,3 7,3.22385763 7,3.5 C7,3.74545989 6.82312484,3.94960837 6.58987563,3.99194433 L6.5,4 L5,4 C4.47923227,4 4.06335971,4.34954602 4.00660632,4.78317531 L4,4.88461538 L4,11.1153846 C4,11.560379 4.37867486,11.9417103 4.88180059,11.9939159 L5,12 L6.5,12 C6.77614237,12 7,12.2238576 7,12.5 C7,12.7454599 6.82312484,12.9496084 6.58987563,12.9919443 L6.5,13 L5,13 C3.95616432,13 3.08652812,12.2431418 3.0060726,11.2638758 L3,11.1153846 L3,4.88461538 C3,3.88444472 3.81992974,3.07995933 4.84480802,3.00560963 L5,3 L6.5,3 Z" />
		<path d="M5.86428571,7.25 C6.25877482,7.25 6.57857143,7.56979661 6.57857143,7.96428571 C6.57857143,8.35877482 6.25877482,8.67857143 5.86428571,8.67857143 C5.46979661,8.67857143 5.15,8.35877482 5.15,7.96428571 C5.15,7.56979661 5.46979661,7.25 5.86428571,7.25 Z M8.00714286,7.25 C8.40163196,7.25 8.72142857,7.56979661 8.72142857,7.96428571 C8.72142857,8.35877482 8.40163196,8.67857143 8.00714286,8.67857143 C7.61265375,8.67857143 7.29285714,8.35877482 7.29285714,7.96428571 C7.29285714,7.56979661 7.61265375,7.25 8.00714286,7.25 Z M10.15,7.25 C10.5444891,7.25 10.8642857,7.56979661 10.8642857,7.96428571 C10.8642857,8.35877482 10.5444891,8.67857143 10.15,8.67857143 C9.75551089,8.67857143 9.43571429,8.35877482 9.43571429,7.96428571 C9.43571429,7.56979661 9.75551089,7.25 10.15,7.25 Z" />
	</g>
</svg>
