<svg xmlns="http://www.w3.org/2000/svg" width="16" height="16" viewBox="0 0 16 16">
  <path fill-rule="evenodd" d="M8.1501779,3.39205801 C10.9470554,3.39205801 12.673523,5.03565515 12.6666171,7.6806035 C12.673523,9.4968474 11.9587654,10.5741632 10.4567386,10.6846571 C9.54861665,10.7606217 9.37596989,10.3980635 9.30000531,9.95954071 L9.25857009,9.95954071 C9.09628214,10.3807988 8.29520118,10.691563 7.51483783,10.6432219 C6.4616926,10.5776161 5.43271792,9.80070569 5.42581205,8.07078517 C5.43271792,6.35122345 6.49622195,5.62956 7.38362629,5.48453673 C8.18816019,5.34987225 8.98233528,5.64337174 9.10664095,5.94723004 L9.15843497,5.94723004 L9.15843497,5.5605013 L10.3531505,5.5605013 L10.3531505,9.01343647 C10.3600564,9.31384183 10.4809091,9.4381475 10.6570088,9.4381475 C11.0575493,9.4381475 11.3337841,8.85460146 11.3303312,7.57701544 C11.3337841,5.20139604 9.62458122,4.66273815 8.14327203,4.66273815 C5.80218198,4.66273815 4.72831914,6.18548257 4.72141327,8.05006756 C4.72831914,10.1770756 5.94029939,11.326903 8.15363084,11.326903 C8.96161767,11.326903 9.75233982,11.1508033 10.1597862,10.9781566 L10.5534208,12.1003605 C10.118351,12.3696895 9.13426443,12.607942 8.06040159,12.607942 C5.08051853,12.607942 3.33678627,10.9470802 3.33333333,8.11222039 C3.33678627,5.30843703 5.08051853,3.39205801 8.1501779,3.39205801 Z M7.9637194,6.78974622 C7.20407366,6.78974622 6.77936264,7.2489866 6.7759097,8.02934995 C6.77936264,8.71303111 7.07631506,9.36218293 7.97753114,9.36218293 C8.79932971,9.36218293 9.07211159,8.88913081 9.05484692,8.01899114 C9.05139398,7.30078063 8.85112374,6.78974622 7.9637194,6.78974622 Z"/>
</svg>
