<svg xmlns="http://www.w3.org/2000/svg" width="16" height="16" viewBox="0 0 16 16">
	<path fill-rule="evenodd" d="M8,3 C9.63573058,3 11.0880049,3.7854695 12.0002202,4.99980567 L12,5 C12.6282958,5.83633255 13,6.87475819 13,8 C13,9.12524181 12.6282958,10.1636674 12.0009752,10.999189 L12,11 C11.0872034,12.2149639 9.63527922,13 8,13 C6.36472078,13 4.91279657,12.2149639 4.00053506,11.0011995 L4,11 C3.37200249,10.1645005 3,9.12569317 3,8 C3,5.23857625 5.23857625,3 8,3 Z M8.94786564,11.0005227 L7.05213436,11.0005227 C7.32928026,11.6255923 7.67455718,12 8,12 C8.32544282,12 8.67071974,11.6255923 8.94786564,11.0005227 Z M6.00009443,11.0007388 L5.35525927,11.0009561 C5.62914488,11.2425176 5.93635737,11.4471711 6.26911581,11.6071358 C6.1713749,11.4201349 6.08144189,11.2172562 6.00009443,11.0007388 Z M10.6447407,11.0009561 L9.99990557,11.0007388 C9.91855811,11.2172562 9.8286251,11.4201349 9.73111755,11.6073527 C10.0636426,11.4471711 10.3708551,11.2425176 10.6447407,11.0009561 Z M5.51235864,8.50029857 L4.03104114,8.50075535 C4.09862359,9.04188545 4.27429718,9.54943381 4.53577067,10.0011092 L5.70821197,10.0008701 C5.60607782,9.53359312 5.53862411,9.02906408 5.51235864,8.50029857 Z M9.48672869,8.50115968 L6.51327131,8.50115968 C6.54221141,9.04494018 6.61706171,9.55131471 6.72377517,10.0005224 L9.27622483,10.0005224 C9.38293829,9.55131471 9.45778859,9.04494018 9.48672869,8.50115968 Z M11.9689589,8.50075535 L10.4876414,8.50029857 C10.4613759,9.02906408 10.3939222,9.53359312 10.291788,10.0008701 L11.4642293,10.0011092 C11.7257028,9.54943381 11.9013764,9.04188545 11.9689589,8.50075535 Z M5.70799152,6.00013879 L4.53519846,5.99987956 C4.2738805,6.45158408 4.09835881,6.95913235 4.03091685,7.50024088 L5.51230935,7.50069472 C5.53852079,6.9719483 5.60591684,6.46742567 5.70799152,6.00013879 Z M9.27646586,6.0004925 L6.72353414,6.0004925 C6.61688328,6.4497248 6.54209743,6.95609338 6.51321787,7.4998455 L9.48678213,7.4998455 C9.45790257,6.95609338 9.38311672,6.4497248 9.27646586,6.0004925 Z M11.4648015,5.99987956 L10.2920085,6.00013879 C10.3940832,6.46742567 10.4614792,6.9719483 10.4876907,7.50069472 L11.9690832,7.50024088 C11.9016412,6.95913235 11.7261195,6.45158408 11.4648015,5.99987956 Z M6.26888245,4.39264727 L6.14511406,4.45515599 C5.85940401,4.60496504 5.59403706,4.78830304 5.35424015,4.99994303 L5.99971248,5.00027806 C6.08116036,4.78337894 6.17122227,4.58015817 6.26888245,4.39264727 Z M8,4 C7.67437895,4 7.32890208,4.37481793 7.05167909,5.0005045 L8.94832091,5.0005045 C8.67109792,4.37481793 8.32562105,4 8,4 Z M9.73088419,4.39286422 L9.76776695,4.46446609 C9.85139716,4.63172652 9.9291298,4.81078208 10.0002875,5.00027806 L10.6457598,4.99994303 C10.3716173,4.75799025 10.0640554,4.55302733 9.73088419,4.39286422 Z" />
</svg>
