<svg xmlns="http://www.w3.org/2000/svg" width="16" height="16" viewBox="0 0 16 16">
  <path fill-rule="evenodd" d="M7.68176234,12 L7.68176234,9.24747942 L8.70508373,8.38573045 C8.91630765,8.20785672 8.94334332,7.89243074 8.76546958,7.68120682 C8.7461966,7.65832027 8.72490818,7.63720989 8.70186059,7.61812978 L7.68176234,6.77363431 L7.68176234,4 L13.2598873,4 L13.2598873,5.5703125 L9.61535609,5.5703125 L9.61535609,7.2109375 L12.9747311,7.2109375 L12.9747311,8.78515625 L9.61535609,8.78515625 L9.61535609,10.4296875 L13.2598873,10.4296875 L13.2598873,12 L7.68176234,12 Z M8.42482555,7.89706037 C8.48615794,7.9474596 8.48615794,8.05225799 8.42482555,8.10292388 L6.15819361,9.96982861 C6.11846089,10.0023614 6.06326173,10.0092947 6.01659578,9.98716167 C5.96966317,9.96502868 5.94006362,9.91809607 5.94006362,9.86663019 L5.94006362,8.93331116 L2.87344395,8.93331116 C2.79984508,8.93331116 2.74011266,8.87357874 2.74011266,8.79997987 L2.74011266,7.20000438 C2.74011266,7.12640551 2.79984508,7.06667309 2.87344395,7.06667309 L5.94006362,7.06667309 L5.94006362,6.13335406 C5.94006362,6.08188819 5.96966317,6.03495557 6.01659578,6.01282258 C6.06326173,5.99068958 6.11846089,5.99762281 6.15819361,6.03042231 L8.42482555,7.89706037 Z"/>
</svg>
