<svg xmlns="http://www.w3.org/2000/svg" width="16" height="16" viewBox="0 0 16 16">
  <path fill-rule="evenodd" d="M12.6666667,6.5416849 C12.6666667,8.31359635 11.2302448,9.75 9.45833333,9.75 C9.25380208,9.75 9.05382812,9.73064062 8.85992448,9.69405469 L8.42220573,10.1864974 C8.33918226,10.2798995 8.22017834,10.3333378 8.09521094,10.3333333 L7.41666667,10.3333333 L7.41666667,11.0625 C7.41666667,11.3041276 7.22079427,11.5 6.97916667,11.5 L6.25,11.5 L6.25,12.2291667 C6.25,12.4707943 6.0541276,12.6666667 5.8125,12.6666667 L3.77083333,12.6666667 C3.52920573,12.6666667 3.33333333,12.4707943 3.33333333,12.2291667 L3.33333333,10.8062161 C3.33333333,10.6901875 3.3794349,10.5788984 3.46146615,10.496849 L6.41098177,7.54733333 C6.30665625,7.23098437 6.25,6.89296094 6.25,6.54166667 C6.25,4.76975521 7.68640365,3.33335156 9.4583151,3.33333333 C11.2354583,3.3333151 12.6666667,4.76452344 12.6666667,6.5416849 Z M9.45833333,5.66666667 C9.45833333,6.14992187 9.85007812,6.54166667 10.3333333,6.54166667 C10.8165885,6.54166667 11.2083333,6.14992187 11.2083333,5.66666667 C11.2083333,5.18341146 10.8165885,4.79166667 10.3333333,4.79166667 C9.85007812,4.79166667 9.45833333,5.18341146 9.45833333,5.66666667 Z"/>
</svg>
