<svg xmlns="http://www.w3.org/2000/svg" width="16" height="16" viewBox="0 0 16 16">
  <path d="M2 2.5a.5.5 0 0 1 .5-.5h2a.5.5 0 0 1 0 1H3v10h1.5a.5.5 0 0 1 0 1h-2a.5.5 0 0 1-.5-.5v-11Z"/>
  <path d="M6 5a1 1 0 1 1-2 0 1 1 0 0 1 2 0Zm0 3a1 1 0 1 1-2 0 1 1 0 0 1 2 0Zm-1 4a1 1 0 1 0 0-2 1 1 0 0 0 0 2Zm4-7a1 1 0 1 1-2 0 1 1 0 0 1 2 0ZM8 9a1 1 0 1 0 0-2 1 1 0 0 0 0 2Zm1 2a1 1 0 1 1-2 0 1 1 0 0 1 2 0Zm2-5a1 1 0 1 0 0-2 1 1 0 0 0 0 2Zm1 2a1 1 0 1 1-2 0 1 1 0 0 1 2 0Zm-1 4a1 1 0 1 0 0-2 1 1 0 0 0 0 2Z"/>
  <path d="M13.5 2a.5.5 0 0 1 .5.5v11a.5.5 0 0 1-.5.5h-2a.5.5 0 0 1 0-1H13V3h-1.5a.5.5 0 0 1 0-1h2Z"/>
</svg>
