<svg width="663" height="531" viewBox="0 0 663 531" fill="none" xmlns="http://www.w3.org/2000/svg">
<g filter="url(#filter0_dddd_23023_279552)">
<rect x="14.2368" y="6.29834" width="301.529" height="235.701" rx="6" fill="white"/>
<rect x="100" y="67" width="129.82" height="22.3961" rx="6" fill="#D3DAE6"/>
<rect x="119.139" y="158.264" width="91.5438" height="22.3961" rx="6" fill="#98A2B3"/>
<rect x="145.092" y="167.223" width="39.6375" height="4.47922" rx="2.23961" fill="white"/>
<rect x="66.9963" y="102.834" width="195.828" height="13.4376" rx="4" fill="#D3DAE6"/>
<rect x="83.2761" y="129.709" width="163.269" height="13.4377" rx="4" fill="#D3DAE6"/>
<mask id="path-9-inside-1_23023_279552" fill="white">
<rect x="341.24" y="7.25195" width="301.529" height="198.748" rx="6"/>
</mask>
<rect x="341.24" y="7.25195" width="301.529" height="198.748" rx="6" fill="white" stroke="#D3DAE6" stroke-width="16" mask="url(#path-9-inside-1_23023_279552)"/>
<rect x="340.988" y="6.84912" width="303.526" height="234.328" rx="6" fill="white"/>
<g opacity="0.3">
<path d="M470.016 51.5463C470.016 57.9231 464.859 63.0926 458.497 63.0926C452.136 63.0926 446.979 57.9231 446.979 51.5463C446.979 45.1695 452.136 40 458.497 40C464.859 40 470.016 45.1695 470.016 51.5463Z" fill="#D6BF57"/>
<path d="M446.979 98.9307V87.2871L470.016 69.8218L485.374 81.4654L523.77 52.3564L539.129 64V98.9307H446.979Z" fill="#54B399"/>
</g>
<rect x="427.714" y="111.763" width="130.68" height="19.0099" rx="6" fill="#D3DAE6"/>
<rect x="446.979" y="189.228" width="92.15" height="19.0099" rx="6" fill="#0071C2"/>
<rect x="473.104" y="196.832" width="39.9" height="3.80198" rx="1.90099" fill="white"/>
<rect x="394.491" y="142.178" width="197.125" height="11.4059" rx="4" fill="#D3DAE6"/>
<rect x="410.879" y="164.99" width="164.35" height="11.4059" rx="4" fill="#D3DAE6"/>
<mask id="path-20-inside-2_23023_279552" fill="white">
<rect x="15.2405" y="267.252" width="301.529" height="198.748" rx="6"/>
</mask>
<rect x="15.2405" y="267.252" width="301.529" height="198.748" rx="6" fill="white" stroke="#D3DAE6" stroke-width="16" mask="url(#path-20-inside-2_23023_279552)"/>
<rect x="14.9883" y="266.849" width="303.526" height="234.328" rx="6" fill="white"/>
<g opacity="0.3">
<path d="M144.017 311.546C144.017 317.923 138.859 323.093 132.498 323.093C126.136 323.093 120.979 317.923 120.979 311.546C120.979 305.169 126.136 300 132.498 300C138.859 300 144.017 305.169 144.017 311.546Z" fill="#D6BF57"/>
<path d="M120.979 358.931V347.287L144.017 329.822L159.375 341.465L197.771 312.356L213.129 324V358.931H120.979Z" fill="#54B399"/>
</g>
<rect x="101.714" y="371.763" width="130.68" height="19.0099" rx="6" fill="#D3DAE6"/>
<rect x="120.979" y="449.228" width="92.15" height="19.0099" rx="6" fill="#0071C2"/>
<rect x="147.104" y="456.832" width="39.9" height="3.80198" rx="1.90099" fill="white"/>
<rect x="68.4915" y="402.178" width="197.125" height="11.4059" rx="4" fill="#D3DAE6"/>
<rect x="84.8789" y="424.99" width="164.35" height="11.4059" rx="4" fill="#D3DAE6"/>
<mask id="path-31-inside-3_23023_279552" fill="white">
<rect x="344.24" y="267.252" width="301.529" height="198.748" rx="6"/>
</mask>
<rect x="344.24" y="267.252" width="301.529" height="198.748" rx="6" fill="white" stroke="#D3DAE6" stroke-width="16" mask="url(#path-31-inside-3_23023_279552)"/>
<rect x="343.988" y="266.849" width="303.526" height="234.328" rx="6" fill="white"/>
<g opacity="0.3">
<path d="M473.016 311.546C473.016 317.923 467.859 323.093 461.497 323.093C455.136 323.093 449.979 317.923 449.979 311.546C449.979 305.169 455.136 300 461.497 300C467.859 300 473.016 305.169 473.016 311.546Z" fill="#D6BF57"/>
<path d="M449.979 358.931V347.287L473.016 329.822L488.374 341.465L526.77 312.356L542.129 324V358.931H449.979Z" fill="#54B399"/>
</g>
<rect x="430.714" y="371.763" width="130.68" height="19.0099" rx="6" fill="#D3DAE6"/>
<rect x="449.979" y="449.228" width="92.15" height="19.0099" rx="6" fill="#0071C2"/>
<rect x="476.104" y="456.832" width="39.9" height="3.80198" rx="1.90099" fill="white"/>
<rect x="397.491" y="402.178" width="197.125" height="11.4059" rx="4" fill="#D3DAE6"/>
<rect x="413.879" y="424.99" width="164.35" height="11.4059" rx="4" fill="#D3DAE6"/>
</g>
<defs>
<filter id="filter0_dddd_23023_279552" x="0" y="0.7" width="662.491" height="530.3" filterUnits="userSpaceOnUse" color-interpolation-filters="sRGB">
<feFlood flood-opacity="0" result="BackgroundImageFix"/>
<feColorMatrix in="SourceAlpha" type="matrix" values="0 0 0 0 0 0 0 0 0 0 0 0 0 0 0 0 0 0 127 0" result="hardAlpha"/>
<feMorphology radius="1" operator="erode" in="SourceAlpha" result="effect1_dropShadow_23023_279552"/>
<feOffset dy="15"/>
<feGaussianBlur stdDeviation="7.5"/>
<feColorMatrix type="matrix" values="0 0 0 0 0 0 0 0 0 0 0 0 0 0 0 0 0 0 0.04 0"/>
<feBlend mode="normal" in2="BackgroundImageFix" result="effect1_dropShadow_23023_279552"/>
<feColorMatrix in="SourceAlpha" type="matrix" values="0 0 0 0 0 0 0 0 0 0 0 0 0 0 0 0 0 0 127 0" result="hardAlpha"/>
<feMorphology radius="1" operator="erode" in="SourceAlpha" result="effect2_dropShadow_23023_279552"/>
<feOffset dy="5.7"/>
<feGaussianBlur stdDeviation="6"/>
<feColorMatrix type="matrix" values="0 0 0 0 0 0 0 0 0 0 0 0 0 0 0 0 0 0 0.05 0"/>
<feBlend mode="normal" in2="effect1_dropShadow_23023_279552" result="effect2_dropShadow_23023_279552"/>
<feColorMatrix in="SourceAlpha" type="matrix" values="0 0 0 0 0 0 0 0 0 0 0 0 0 0 0 0 0 0 127 0" result="hardAlpha"/>
<feMorphology radius="1" operator="erode" in="SourceAlpha" result="effect3_dropShadow_23023_279552"/>
<feOffset dy="2.6"/>
<feGaussianBlur stdDeviation="4"/>
<feColorMatrix type="matrix" values="0 0 0 0 0 0 0 0 0 0 0 0 0 0 0 0 0 0 0.06 0"/>
<feBlend mode="normal" in2="effect2_dropShadow_23023_279552" result="effect3_dropShadow_23023_279552"/>
<feColorMatrix in="SourceAlpha" type="matrix" values="0 0 0 0 0 0 0 0 0 0 0 0 0 0 0 0 0 0 127 0" result="hardAlpha"/>
<feMorphology radius="1" operator="erode" in="SourceAlpha" result="effect4_dropShadow_23023_279552"/>
<feOffset dy="0.9"/>
<feGaussianBlur stdDeviation="2"/>
<feColorMatrix type="matrix" values="0 0 0 0 0 0 0 0 0 0 0 0 0 0 0 0 0 0 0.08 0"/>
<feBlend mode="normal" in2="effect3_dropShadow_23023_279552" result="effect4_dropShadow_23023_279552"/>
<feBlend mode="normal" in="SourceGraphic" in2="effect4_dropShadow_23023_279552" result="shape"/>
</filter>
</defs>
</svg>
