<svg xmlns="http://www.w3.org/2000/svg" width="300" height="150" viewBox="0 0 300 150">
  <g fill="none" fill-rule="evenodd">
    <rect width="300" height="150" fill="#5A77AD" opacity=".18"/>
    <g transform="translate(20 20)">
      <g stroke="#69707D" stroke-dasharray="4">
        <line x1="132.219" x2="131.222" y1="-78.837" y2="183.837" transform="rotate(-90 131.72 52.5)"/>
        <line x1="164.471" x2="164.471" y1=".667" y2="104.333"/>
      </g>
      <g transform="translate(15 1)">
        <path fill="#006BB4" d="M0 82.5614035L32.1611217 82.5614035 32.1611217 99.529379C32.1611217 101.738518 30.3702607 103.529379 28.1611217 103.529379L4 103.529379C1.790861 103.529379 2.705415e-16 101.738518 0 99.529379L0 82.5614035 0 82.5614035zM65.4312477 30.1414648L97.5923694 30.1414648 97.5923694 99.529379C97.5923694 101.738518 95.8015084 103.529379 93.5923694 103.529379L69.4312477 103.529379C67.2221087 103.529379 65.4312477 101.738518 65.4312477 99.529379L65.4312477 30.1414648 65.4312477 30.1414648z"/>
        <path fill="#9ABCD2" d="M0,72.0774158 L32.1611217,72.0774158 L32.1611217,78.5614035 C32.1611217,80.7705425 30.3702607,82.5614035 28.1611217,82.5614035 L4,82.5614035 C1.790861,82.5614035 2.705415e-16,80.7705425 0,78.5614035 L0,72.0774158 L0,72.0774158 Z" transform="matrix(1 0 0 -1 0 154.639)"/>
        <path fill="#9ABCD2" d="M65.4312477,0 L97.5923694,0 L97.5923694,26.1414648 C97.5923694,28.3506038 95.8015084,30.1414648 93.5923694,30.1414648 L69.4312477,30.1414648 C67.2221087,30.1414648 65.4312477,28.3506038 65.4312477,26.1414648 L65.4312477,0 L65.4312477,0 Z" transform="matrix(1 0 0 -1 0 30.141)"/>
        <path fill="#006BB4" d="M135.298512,72.0774158 L167.459634,72.0774158 L167.459634,99.529379 C167.459634,101.738518 165.668773,103.529379 163.459634,103.529379 L139.298512,103.529379 C137.089373,103.529379 135.298512,101.738518 135.298512,99.529379 L135.298512,72.0774158 L135.298512,72.0774158 Z"/>
        <path fill="#9ABCD2" d="M139.298512,10.4839877 L163.459634,10.4839877 C165.668773,10.4839877 167.459634,12.2748487 167.459634,14.4839877 L167.459634,72.0774158 L167.459634,72.0774158 L135.298512,72.0774158 L135.298512,14.4839877 C135.298512,12.2748487 137.089373,10.4839877 139.298512,10.4839877 Z"/>
        <path fill="#006BB4" d="M200.72976,40.6254525 L232.890882,40.6254525 L232.890882,99.529379 C232.890882,101.738518 231.100021,103.529379 228.890882,103.529379 L204.72976,103.529379 C202.520621,103.529379 200.72976,101.738518 200.72976,99.529379 L200.72976,40.6254525 L200.72976,40.6254525 Z"/>
        <path fill="#9ABCD2" d="M200.72976,19.657477 L232.890882,19.657477 L232.890882,36.6254525 C232.890882,38.8345915 231.100021,40.6254525 228.890882,40.6254525 L204.72976,40.6254525 C202.520621,40.6254525 200.72976,38.8345915 200.72976,36.6254525 L200.72976,19.657477 L200.72976,19.657477 Z" transform="matrix(1 0 0 -1 0 60.283)"/>
      </g>
    </g>
  </g>
</svg>
