<svg width="1166" height="530" viewBox="0 0 1166 530" fill="none" xmlns="http://www.w3.org/2000/svg">
<mask id="path-2-inside-1" fill="white">
<rect x="45.5" y="18.5315" width="639.002" height="493.065" rx="6"/>
</mask>
<rect x="45.5" y="18.5315" width="639.002" height="493.065" rx="6" fill="white" stroke="#D3DAE6" stroke-width="16" mask="url(#path-2-inside-1)"/>
<g opacity="0.3">
<path d="M316.5 87.2638C316.5 100.682 305.643 111.559 292.25 111.559C278.857 111.559 268 100.682 268 87.2638C268 73.8459 278.857 62.9685 292.25 62.9685C305.643 62.9685 316.5 73.8459 316.5 87.2638Z" fill="#D6BF57"/>
<path d="M268 186.969V162.469L316.5 125.719L348.833 150.219L429.667 88.9685L462 113.469V186.969H268Z" fill="#54B399"/>
</g>
<rect x="227.443" y="213.969" width="275.115" height="40" rx="6" fill="#D3DAE6"/>
<rect x="157.5" y="277.969" width="415" height="24" rx="4" fill="url(#paint0_linear)"/>
<rect x="192" y="325.969" width="346" height="24" rx="4" fill="url(#paint1_linear)"/>
<rect x="268" y="376.969" width="194" height="40" rx="6" fill="#005EC4"/>
<rect x="323" y="392.969" width="84" height="8" rx="4" fill="white"/>
<circle cx="188.7" cy="455.969" r="12" fill="url(#paint2_linear)"/>
<rect x="212.7" y="443.969" width="340.6" height="24" rx="4" fill="url(#paint3_linear)"/>
<rect width="392.819" height="8" transform="matrix(-1 0 0 1 876.819 141)" fill="#005EC4"/>
<circle r="8" transform="matrix(-1 0 0 1 482 145)" fill="#005EC4"/>
<circle cx="878" cy="145" r="20" fill="#005EC4"/>
<path d="M880.876 137H877.696L873.735 139.508V142.508L877.399 140.211H877.493V153H880.876V137Z" fill="white"/>
<rect width="341.217" height="8" transform="matrix(-1 0 0 1 878.217 230)" fill="#005EC4"/>
<circle r="8" transform="matrix(-1 0 0 1 535 234)" fill="#005EC4"/>
<circle cx="878" cy="234" r="20" fill="#005EC4"/>
<path d="M871.868 242H883.274V239.234H876.556V239.125L878.892 236.836C882.181 233.836 883.063 232.336 883.063 230.516C883.063 227.742 880.798 225.781 877.368 225.781C874.009 225.781 871.704 227.789 871.712 230.93H874.923C874.915 229.398 875.884 228.461 877.345 228.461C878.751 228.461 879.798 229.336 879.798 230.742C879.798 232.016 879.017 232.891 877.563 234.289L871.868 239.562V242Z" fill="white"/>
<rect width="315.903" height="8" transform="matrix(-1 0 0 1 878.903 314)" fill="#005EC4"/>
<circle r="8" transform="matrix(-1 0 0 1 561 318)" fill="#005EC4"/>
<circle cx="878" cy="318" r="20" fill="#005EC4"/>
<path d="M877.96 326.219C881.554 326.219 884.124 324.242 884.116 321.508C884.124 319.516 882.858 318.094 880.507 317.797V317.672C882.296 317.352 883.53 316.086 883.522 314.289C883.53 311.766 881.319 309.781 878.007 309.781C874.726 309.781 872.257 311.703 872.21 314.469H875.452C875.491 313.25 876.608 312.461 877.991 312.461C879.358 312.461 880.272 313.289 880.265 314.492C880.272 315.75 879.202 316.602 877.663 316.602H876.171V319.086H877.663C879.476 319.086 880.608 319.992 880.601 321.281C880.608 322.555 879.515 323.43 877.968 323.43C876.476 323.43 875.358 322.648 875.296 321.477H871.89C871.944 324.273 874.444 326.219 877.96 326.219Z" fill="white"/>
<rect width="381.136" height="8" transform="matrix(-1 0 0 1 873.136 392)" fill="#005EC4"/>
<circle r="8" transform="matrix(-1 0 0 1 490 396)" fill="#005EC4"/>
<circle cx="874" cy="396" r="20" fill="#005EC4"/>
<path d="M867.6 401.188H875.279V404H878.514V401.188H880.498V398.477H878.514V388H874.279L867.6 398.523V401.188ZM875.342 398.477H871.006V398.352L875.217 391.687H875.342V398.477Z" fill="white"/>
<rect width="283.773" height="8" transform="matrix(-1 0 0 1 875.659 451.969)" fill="#005EC4"/>
<circle r="8" transform="matrix(-1 0 0 1 589.886 455.969)" fill="#005EC4"/>
<circle cx="873.886" cy="455.969" r="20" fill="#005EC4"/>
<path d="M873.937 464.187C877.5 464.187 879.922 461.867 879.914 458.633C879.922 455.57 877.781 453.367 874.898 453.367C873.492 453.367 872.281 453.953 871.718 454.742H871.625L872.039 450.734H879.031V447.969H869.25L868.492 456.406L871.5 456.945C871.992 456.281 872.945 455.867 873.89 455.867C875.5 455.875 876.656 457.039 876.656 458.719C876.656 460.383 875.523 461.531 873.937 461.531C872.593 461.531 871.508 460.687 871.429 459.445H868.148C868.211 462.211 870.625 464.187 873.937 464.187Z" fill="white"/>
<defs>
<linearGradient id="paint0_linear" x1="305.868" y1="235.219" x2="420.828" y2="369.657" gradientUnits="userSpaceOnUse">
<stop offset="0.0104167" stop-color="#E9EDF3"/>
<stop offset="0.515625" stop-color="#E9EDF3" stop-opacity="0.3"/>
<stop offset="1" stop-color="#E9EDF3"/>
</linearGradient>
<linearGradient id="paint1_linear" x1="315.699" y1="283.219" x2="432.033" y2="396.644" gradientUnits="userSpaceOnUse">
<stop offset="0.0104167" stop-color="#E9EDF3"/>
<stop offset="0.515625" stop-color="#E9EDF3" stop-opacity="0.3"/>
<stop offset="1" stop-color="#E9EDF3"/>
</linearGradient>
<linearGradient id="paint2_linear" x1="185.28" y1="401.219" x2="200.949" y2="402.278" gradientUnits="userSpaceOnUse">
<stop offset="0.0104167" stop-color="#E9EDF3"/>
<stop offset="0.515625" stop-color="#E9EDF3" stop-opacity="0.3"/>
<stop offset="1" stop-color="#E9EDF3"/>
</linearGradient>
<linearGradient id="paint3_linear" x1="334.469" y1="401.219" x2="450.742" y2="512.816" gradientUnits="userSpaceOnUse">
<stop offset="0.0104167" stop-color="#E9EDF3"/>
<stop offset="0.515625" stop-color="#E9EDF3" stop-opacity="0.3"/>
<stop offset="1" stop-color="#E9EDF3"/>
</linearGradient>
</defs>
</svg>
