<svg width="730" height="530" viewBox="0 0 730 530" fill="none" xmlns="http://www.w3.org/2000/svg">
<mask id="path-2-inside-1" fill="white">
<rect x="45.5" y="18.5315" width="639.002" height="493.065" rx="6"/>
</mask>
<rect x="45.5" y="18.5315" width="639.002" height="493.065" rx="6" fill="white" stroke="#D3DAE6" stroke-width="16" mask="url(#path-2-inside-1)"/>
<g opacity="0.3">
<path d="M316.5 87.2638C316.5 100.682 305.643 111.559 292.25 111.559C278.857 111.559 268 100.682 268 87.2638C268 73.8459 278.857 62.9685 292.25 62.9685C305.643 62.9685 316.5 73.8459 316.5 87.2638Z" fill="#D6BF57"/>
<path d="M268 186.969V162.469L316.5 125.719L348.833 150.219L429.667 88.9685L462 113.469V186.969H268Z" fill="#54B399"/>
</g>
<rect x="227.443" y="213.969" width="275.115" height="40" rx="6" fill="#D3DAE6"/>
<rect x="157.5" y="277.969" width="415" height="24" rx="4" fill="url(#paint0_linear)"/>
<rect x="192" y="325.969" width="346" height="24" rx="4" fill="url(#paint1_linear)"/>
<rect x="268" y="376.969" width="194" height="40" rx="6" fill="#005EC4"/>
<rect x="323" y="392.969" width="84" height="8" rx="4" fill="white"/>
<circle cx="188.7" cy="455.969" r="12" fill="url(#paint2_linear)"/>
<rect x="212.7" y="443.969" width="340.6" height="24" rx="4" fill="url(#paint3_linear)"/>
<defs>
<linearGradient id="paint0_linear" x1="305.868" y1="235.219" x2="420.828" y2="369.657" gradientUnits="userSpaceOnUse">
<stop offset="0.0104167" stop-color="#E9EDF3"/>
<stop offset="0.515625" stop-color="#E9EDF3" stop-opacity="0.3"/>
<stop offset="1" stop-color="#E9EDF3"/>
</linearGradient>
<linearGradient id="paint1_linear" x1="315.699" y1="283.219" x2="432.033" y2="396.644" gradientUnits="userSpaceOnUse">
<stop offset="0.0104167" stop-color="#E9EDF3"/>
<stop offset="0.515625" stop-color="#E9EDF3" stop-opacity="0.3"/>
<stop offset="1" stop-color="#E9EDF3"/>
</linearGradient>
<linearGradient id="paint2_linear" x1="185.28" y1="401.219" x2="200.949" y2="402.278" gradientUnits="userSpaceOnUse">
<stop offset="0.0104167" stop-color="#E9EDF3"/>
<stop offset="0.515625" stop-color="#E9EDF3" stop-opacity="0.3"/>
<stop offset="1" stop-color="#E9EDF3"/>
</linearGradient>
<linearGradient id="paint3_linear" x1="334.469" y1="401.219" x2="450.742" y2="512.816" gradientUnits="userSpaceOnUse">
<stop offset="0.0104167" stop-color="#E9EDF3"/>
<stop offset="0.515625" stop-color="#E9EDF3" stop-opacity="0.3"/>
<stop offset="1" stop-color="#E9EDF3"/>
</linearGradient>
</defs>
</svg>
