<svg width="1048" height="530" viewBox="0 0 1048 530" fill="none" xmlns="http://www.w3.org/2000/svg">
<mask id="path-2-inside-1" fill="white">
<rect x="177.5" y="18.5315" width="639.002" height="493.065" rx="6"/>
</mask>
<rect x="177.5" y="18.5315" width="639.002" height="493.065" rx="6" stroke="#D3DAE6" stroke-width="16" mask="url(#path-2-inside-1)"/>
<g opacity="0.3">
<path d="M448.5 87.2638C448.5 100.682 437.643 111.559 424.25 111.559C410.857 111.559 400 100.682 400 87.2638C400 73.8459 410.857 62.9685 424.25 62.9685C437.643 62.9685 448.5 73.8459 448.5 87.2638Z" fill="#D6BF57"/>
<path d="M400 186.969V162.469L448.5 125.719L480.833 150.219L561.667 88.9685L594 113.469V186.969H400Z" fill="#54B399"/>
</g>
<rect x="359.443" y="213.969" width="275.115" height="40" rx="6" fill="#D3DAE6"/>
<rect x="289.5" y="277.969" width="415" height="24" rx="4" fill="#D3DAE6"/>
<rect x="324" y="325.969" width="346" height="24" rx="4" fill="#D3DAE6"/>
<rect x="400" y="376.969" width="194" height="40" rx="6" fill="#005EC4"/>
<rect x="455" y="392.969" width="84" height="8" rx="4" fill="white"/>
<circle cx="320.7" cy="455.969" r="12" fill="#D3DAE6"/>
<rect x="344.7" y="443.969" width="340.6" height="24" rx="4" fill="#D3DAE6"/>
<rect width="229.249" height="8" transform="matrix(-1 0 0 1 854.25 141)" fill="#005EC4"/>
<circle r="8" transform="matrix(-1 0 0 1 623 145)" fill="#005EC4"/>
<circle cx="851" cy="145" r="20" fill="#005EC4"/>
<path d="M853.876 137H850.696L846.735 139.508V142.508L850.399 140.211H850.493V153H853.876V137Z" fill="white"/>
<rect width="191.278" height="8" transform="matrix(-1 0 0 1 855.278 229.969)" fill="#005EC4"/>
<circle r="8" transform="matrix(-1 0 0 1 662 233.969)" fill="#005EC4"/>
<circle cx="851" cy="233.969" r="20" fill="#005EC4"/>
<path d="M844.868 241.969H856.274V239.203H849.556V239.094L851.892 236.804C855.181 233.804 856.063 232.304 856.063 230.484C856.063 227.711 853.798 225.75 850.368 225.75C847.009 225.75 844.704 227.758 844.712 230.898H847.923C847.915 229.367 848.884 228.429 850.345 228.429C851.751 228.429 852.798 229.304 852.798 230.711C852.798 231.984 852.017 232.859 850.563 234.258L844.868 239.531V241.969Z" fill="white"/>
<rect width="148.438" height="8" transform="matrix(-1 0 0 1 856.438 317.969)" fill="#005EC4"/>
<circle r="8" transform="matrix(-1 0 0 1 706 321.969)" fill="#005EC4"/>
<circle cx="851" cy="321.969" r="20" fill="#005EC4"/>
<path d="M850.96 330.187C854.554 330.187 857.124 328.211 857.116 325.476C857.124 323.484 855.858 322.062 853.507 321.765V321.64C855.296 321.32 856.53 320.054 856.522 318.258C856.53 315.734 854.319 313.75 851.007 313.75C847.726 313.75 845.257 315.672 845.21 318.437H848.452C848.491 317.219 849.608 316.429 850.991 316.429C852.358 316.429 853.272 317.258 853.265 318.461C853.272 319.719 852.202 320.57 850.663 320.57H849.171V323.054H850.663C852.476 323.054 853.608 323.961 853.601 325.25C853.608 326.523 852.515 327.398 850.968 327.398C849.476 327.398 848.358 326.617 848.296 325.445H844.89C844.944 328.242 847.444 330.187 850.96 330.187Z" fill="white"/>
<rect width="229.249" height="8" transform="matrix(-1 0 0 1 854.25 393)" fill="#005EC4"/>
<circle r="8" transform="matrix(-1 0 0 1 623 397)" fill="#005EC4"/>
<circle cx="851" cy="397" r="20" fill="#005EC4"/>
<path d="M844.6 402.188H852.279V405H855.514V402.188H857.498V399.477H855.514V389H851.279L844.6 399.523V402.188ZM852.342 399.477H848.006V399.352L852.217 392.687H852.342V399.477Z" fill="white"/>
<rect width="140.649" height="8" transform="matrix(-1 0 0 1 856.649 451.969)" fill="#005EC4"/>
<circle r="8" transform="matrix(-1 0 0 1 714 455.969)" fill="#005EC4"/>
<circle cx="851" cy="455.969" r="20" fill="#005EC4"/>
<path d="M851.051 464.187C854.613 464.187 857.035 461.867 857.027 458.633C857.035 455.57 854.895 453.367 852.012 453.367C850.605 453.367 849.395 453.953 848.832 454.742H848.738L849.152 450.734H856.145V447.969H846.363L845.605 456.406L848.613 456.945C849.105 456.281 850.059 455.867 851.004 455.867C852.613 455.875 853.77 457.039 853.77 458.719C853.77 460.383 852.637 461.531 851.051 461.531C849.707 461.531 848.621 460.687 848.543 459.445H845.262C845.324 462.211 847.738 464.187 851.051 464.187Z" fill="white"/>
</svg>
