<svg width="635" height="497" viewBox="0 0 635 497" fill="none" xmlns="http://www.w3.org/2000/svg">
<mask id="path-2-inside-1_23023_279552" fill="white">
<rect x="0.736816" y="0.732422" width="301.529" height="235.701" rx="6"/>
</mask>
<rect x="0.736816" y="0.732422" width="301.529" height="235.701" rx="6" fill="white" stroke="#D3DAE6" stroke-width="16" mask="url(#path-2-inside-1_23023_279552)"/>
<rect x="86.5898" y="47.3267" width="129.82" height="22.3961" rx="6" fill="#D3DAE6"/>
<rect x="105.728" y="138.591" width="91.5438" height="22.3961" rx="6" fill="#525761"/>
<rect x="131.681" y="147.549" width="39.6375" height="4.47922" rx="2.23961" fill="white"/>
<rect x="79.6333" y="176.104" width="160.721" height="13.4377" rx="4" fill="#D3DAE6"/>
<ellipse cx="68.3085" cy="182.823" rx="5.6625" ry="6.71883" fill="#D3DAE6"/>
<rect x="53.5859" y="83.1606" width="195.828" height="13.4376" rx="4" fill="#D3DAE6"/>
<rect x="69.8657" y="110.036" width="163.269" height="13.4377" rx="4" fill="#D3DAE6"/>
<mask id="path-11-inside-2_23023_279552" fill="white">
<rect x="327.74" y="1.68604" width="301.529" height="198.748" rx="6"/>
</mask>
<rect x="327.74" y="1.68604" width="301.529" height="198.748" rx="6" fill="white" stroke="#D3DAE6" stroke-width="16" mask="url(#path-11-inside-2_23023_279552)"/>
<mask id="path-13-inside-3_23023_279552" fill="white">
<rect x="327.488" y="1.2832" width="303.526" height="234.328" rx="6"/>
</mask>
<rect x="327.488" y="1.2832" width="303.526" height="234.328" rx="6" fill="white" stroke="#D3DAE6" stroke-width="16" mask="url(#path-13-inside-3_23023_279552)"/>
<g opacity="0.3">
<path d="M456.212 33.9472C456.212 40.324 451.055 45.4935 444.694 45.4935C438.332 45.4935 433.175 40.324 433.175 33.9472C433.175 27.5703 438.332 22.4009 444.694 22.4009C451.055 22.4009 456.212 27.5703 456.212 33.9472Z" fill="#D6BF57"/>
<path d="M433.175 81.3316V69.688L456.212 52.2227L471.571 63.8662L509.966 34.7573L525.325 46.4009V81.3316H433.175Z" fill="#54B399"/>
</g>
<rect x="413.91" y="94.1631" width="130.68" height="19.0099" rx="6" fill="#D3DAE6"/>
<rect x="433.175" y="171.629" width="92.15" height="19.0099" rx="6" fill="#0055B1"/>
<rect x="459.3" y="179.233" width="39.9" height="3.80198" rx="1.90099" fill="white"/>
<rect x="406.908" y="203.47" width="161.785" height="11.4059" rx="4" fill="#D3DAE6"/>
<ellipse cx="395.508" cy="209.173" rx="5.7" ry="5.70297" fill="#D3DAE6"/>
<rect x="380.688" y="124.579" width="197.125" height="11.4059" rx="4" fill="#D3DAE6"/>
<rect x="397.075" y="147.391" width="164.35" height="11.4059" rx="4" fill="#D3DAE6"/>
<mask id="path-24-inside-4_23023_279552" fill="white">
<rect x="1.74048" y="261.686" width="301.529" height="198.748" rx="6"/>
</mask>
<rect x="1.74048" y="261.686" width="301.529" height="198.748" rx="6" fill="white" stroke="#D3DAE6" stroke-width="16" mask="url(#path-24-inside-4_23023_279552)"/>
<mask id="path-26-inside-5_23023_279552" fill="white">
<rect x="1.48828" y="261.283" width="303.526" height="234.328" rx="6"/>
</mask>
<rect x="1.48828" y="261.283" width="303.526" height="234.328" rx="6" fill="white" stroke="#D3DAE6" stroke-width="16" mask="url(#path-26-inside-5_23023_279552)"/>
<g opacity="0.3">
<path d="M130.212 293.947C130.212 300.324 125.055 305.493 118.694 305.493C112.332 305.493 107.175 300.324 107.175 293.947C107.175 287.57 112.332 282.401 118.694 282.401C125.055 282.401 130.212 287.57 130.212 293.947Z" fill="#D6BF57"/>
<path d="M107.175 341.332V329.688L130.212 312.223L145.571 323.866L183.966 294.757L199.325 306.401V341.332H107.175Z" fill="#54B399"/>
</g>
<rect x="87.9102" y="354.163" width="130.68" height="19.0099" rx="6" fill="#D3DAE6"/>
<rect x="107.175" y="431.629" width="92.15" height="19.0099" rx="6" fill="#0055B1"/>
<rect x="133.3" y="439.233" width="39.9" height="3.80198" rx="1.90099" fill="white"/>
<rect x="80.9077" y="463.47" width="161.785" height="11.4059" rx="4" fill="#D3DAE6"/>
<ellipse cx="69.5076" cy="469.173" rx="5.7" ry="5.70297" fill="#D3DAE6"/>
<rect x="54.6875" y="384.579" width="197.125" height="11.4059" rx="4" fill="#D3DAE6"/>
<rect x="71.075" y="407.391" width="164.35" height="11.4059" rx="4" fill="#D3DAE6"/>
<mask id="path-37-inside-6_23023_279552" fill="white">
<rect x="330.74" y="261.686" width="301.529" height="198.748" rx="6"/>
</mask>
<rect x="330.74" y="261.686" width="301.529" height="198.748" rx="6" fill="white" stroke="#D3DAE6" stroke-width="16" mask="url(#path-37-inside-6_23023_279552)"/>
<mask id="path-39-inside-7_23023_279552" fill="white">
<rect x="330.488" y="261.283" width="303.526" height="234.328" rx="6"/>
</mask>
<rect x="330.488" y="261.283" width="303.526" height="234.328" rx="6" fill="white" stroke="#D3DAE6" stroke-width="16" mask="url(#path-39-inside-7_23023_279552)"/>
<g opacity="0.3">
<path d="M459.212 293.947C459.212 300.324 454.055 305.493 447.694 305.493C441.332 305.493 436.175 300.324 436.175 293.947C436.175 287.57 441.332 282.401 447.694 282.401C454.055 282.401 459.212 287.57 459.212 293.947Z" fill="#D6BF57"/>
<path d="M436.175 341.332V329.688L459.212 312.223L474.571 323.866L512.966 294.757L528.325 306.401V341.332H436.175Z" fill="#54B399"/>
</g>
<rect x="416.91" y="354.163" width="130.68" height="19.0099" rx="6" fill="#D3DAE6"/>
<rect x="436.175" y="431.629" width="92.15" height="19.0099" rx="6" fill="#0055B1"/>
<rect x="462.3" y="439.233" width="39.9" height="3.80198" rx="1.90099" fill="white"/>
<rect x="409.908" y="463.47" width="161.785" height="11.4059" rx="4" fill="#D3DAE6"/>
<ellipse cx="398.508" cy="469.173" rx="5.7" ry="5.70297" fill="#D3DAE6"/>
<rect x="383.688" y="384.579" width="197.125" height="11.4059" rx="4" fill="#D3DAE6"/>
<rect x="400.075" y="407.391" width="164.35" height="11.4059" rx="4" fill="#D3DAE6"/>
</svg>
