<svg width="730" height="530" viewBox="0 0 730 530" fill="none" xmlns="http://www.w3.org/2000/svg">
<mask id="path-2-inside-1" fill="white">
<rect x="45.5" y="18.5315" width="639.002" height="493.065" rx="6"/>
</mask>
<rect x="45.5" y="18.5315" width="639.002" height="493.065" rx="6" fill="white" stroke="#D3DAE6" stroke-width="16" mask="url(#path-2-inside-1)"/>
<rect x="79" y="82" width="275.115" height="40" rx="6" fill="#D3DAE6"/>
<rect x="79" y="146" width="321" height="24" rx="4" fill="url(#paint0_linear)"/>
<rect x="79" y="194" width="275" height="24" rx="4" fill="url(#paint1_linear)"/>
<rect x="79" y="242" width="321" height="24" rx="4" fill="url(#paint2_linear)"/>
<rect x="79" y="290" width="321" height="24" rx="4" fill="url(#paint3_linear)"/>
<rect x="79" y="341" width="194" height="40" rx="6" fill="#005EC4"/>
<rect x="134" y="357" width="84" height="8" rx="4" fill="white"/>
<g opacity="0.3">
<path d="M502.5 109.295C502.5 122.713 491.643 133.591 478.25 133.591C464.857 133.591 454 122.713 454 109.295C454 95.8774 464.857 85 478.25 85C491.643 85 502.5 95.8774 502.5 109.295Z" fill="#D6BF57"/>
<path d="M454 209V184.5L502.5 147.75L534.833 172.25L615.667 111L648 135.5V209H454Z" fill="#54B399"/>
</g>
<circle cx="91" cy="450" r="12" fill="url(#paint4_linear)"/>
<rect x="115" y="438" width="340.6" height="24" rx="4" fill="url(#paint5_linear)"/>
<defs>
<linearGradient id="paint0_linear" x1="193.762" y1="103.25" x2="309.55" y2="207.986" gradientUnits="userSpaceOnUse">
<stop offset="0.0104167" stop-color="#E9EDF3"/>
<stop offset="0.515625" stop-color="#E9EDF3" stop-opacity="0.3"/>
<stop offset="1" stop-color="#E9EDF3"/>
</linearGradient>
<linearGradient id="paint1_linear" x1="177.316" y1="151.25" x2="290.004" y2="238.575" gradientUnits="userSpaceOnUse">
<stop offset="0.0104167" stop-color="#E9EDF3"/>
<stop offset="0.515625" stop-color="#E9EDF3" stop-opacity="0.3"/>
<stop offset="1" stop-color="#E9EDF3"/>
</linearGradient>
<linearGradient id="paint2_linear" x1="193.762" y1="199.25" x2="309.55" y2="303.986" gradientUnits="userSpaceOnUse">
<stop offset="0.0104167" stop-color="#E9EDF3"/>
<stop offset="0.515625" stop-color="#E9EDF3" stop-opacity="0.3"/>
<stop offset="1" stop-color="#E9EDF3"/>
</linearGradient>
<linearGradient id="paint3_linear" x1="193.762" y1="247.25" x2="309.55" y2="351.986" gradientUnits="userSpaceOnUse">
<stop offset="0.0104167" stop-color="#E9EDF3"/>
<stop offset="0.515625" stop-color="#E9EDF3" stop-opacity="0.3"/>
<stop offset="1" stop-color="#E9EDF3"/>
</linearGradient>
<linearGradient id="paint4_linear" x1="87.5803" y1="395.25" x2="103.249" y2="396.31" gradientUnits="userSpaceOnUse">
<stop offset="0.0104167" stop-color="#E9EDF3"/>
<stop offset="0.515625" stop-color="#E9EDF3" stop-opacity="0.3"/>
<stop offset="1" stop-color="#E9EDF3"/>
</linearGradient>
<linearGradient id="paint5_linear" x1="236.769" y1="395.25" x2="353.042" y2="506.847" gradientUnits="userSpaceOnUse">
<stop offset="0.0104167" stop-color="#E9EDF3"/>
<stop offset="0.515625" stop-color="#E9EDF3" stop-opacity="0.3"/>
<stop offset="1" stop-color="#E9EDF3"/>
</linearGradient>
</defs>
</svg>
