<svg xmlns="http://www.w3.org/2000/svg" width="300" height="150" viewBox="0 0 300 150">
  <g fill="none" fill-rule="evenodd">
    <rect width="300" height="150" fill="#5A77AD" opacity=".18"/>
    <path fill="#DD0A73" d="M204,23 L268,23 L268,127 L204,127 L204,23 Z"/>
    <g transform="translate(32 23)">
      <path fill="#DD0A73" d="M0,0 L156,0 L156,104 L0,104 L0,0 Z"/>
      <g fill="#FFF" opacity=".397" transform="translate(8 8)">
        <path d="M0 64L27 64 27 88 0 88 0 64zM0 0L66 0 66 24 0 24 0 0zM0 32L140 32 140 56 0 56 0 32zM74 0L140 0 140 24 74 24 74 0zM35 64L140 64 140 88 35 88 35 64z"/>
      </g>
    </g>
  </g>
</svg>
