<svg width="939" height="529" viewBox="0 0 939 529" fill="none" xmlns="http://www.w3.org/2000/svg">
<rect width="939" height="529" fill="white"/>
<g opacity="0.6">
<rect x="65" y="72" width="277.333" height="18" rx="3" fill="#98A2B3"/>
<rect x="65" y="106" width="286.623" height="10" rx="3" fill="#D3DAE6"/>
<rect x="65" y="124" width="242.471" height="10" rx="3" fill="#D3DAE6"/>
</g>
<rect opacity="0.6" x="497" y="80" width="100" height="8" rx="2" fill="#98A2B3"/>
<rect x="498" y="101" width="378" height="38" rx="2" fill="white" stroke="#98A2B3" stroke-width="2"/>
<rect opacity="0.5" x="497" y="152" width="120" height="6" rx="3" fill="#D3DAE6"/>
<rect x="65" y="179" width="810" height="64" fill="#E6F9F7"/>
<g opacity="0.6">
<rect x="65" y="243" width="277.333" height="18" rx="3" fill="#98A2B3"/>
<rect x="65" y="277" width="286.623" height="10" rx="3" fill="#D3DAE6"/>
<rect x="65" y="295" width="242.471" height="10" rx="3" fill="#D3DAE6"/>
</g>
<rect opacity="0.6" x="497" y="251" width="100" height="8" rx="2" fill="#98A2B3"/>
<rect x="498" y="272" width="378" height="38" rx="2" fill="white" stroke="#98A2B3" stroke-width="2"/>
<rect opacity="0.5" x="497" y="323" width="120" height="6" rx="3" fill="#D3DAE6"/>
<rect x="65" y="350" width="810" height="16" fill="#E6F9F7"/>
<rect opacity="0.6" x="497" y="374" width="100" height="8" rx="2" fill="#98A2B3"/>
<rect x="498" y="395" width="378" height="38" rx="2" fill="white" stroke="#98A2B3" stroke-width="2"/>
<rect opacity="0.5" x="497" y="446" width="120" height="6" rx="3" fill="#D3DAE6"/>
</svg>
