<svg xmlns="http://www.w3.org/2000/svg" width="500" height="172" fill="none" viewBox="0 0 500 172">
  <g clip-path="url(#clip0)">
    <path fill="white" d="M172.05 89.79a33.847 33.847 0 00-22.39-31.93 48.11 48.11 0 00.9-9.25 48.59 48.59 0 00-88-28.45 25.81 25.81 0 00-40 29.4A34.31 34.31 0 000 81.62a33.878 33.878 0 0022.5 32 49.732 49.732 0 00-.89 9.24 48.463 48.463 0 0033.622 46.179 48.46 48.46 0 0054.238-17.919 25.772 25.772 0 0040.519-12.915 25.767 25.767 0 00-.519-16.375 34.29 34.29 0 0022.57-32.06"/>
    <path fill="#FEC514" d="M67.64 73.81L105.29 91l38-33.28a42 42 0 00.81-8.34 42.457 42.457 0 00-29.897-40.55A42.459 42.459 0 0066.62 25.38l-6.33 32.74 7.35 15.69z"/>
    <path fill="#00BFB3" d="M28.67 113.68a43.141 43.141 0 00-.83 8.47 42.568 42.568 0 0056.664 40.168 42.563 42.563 0 0021.106-16.228l6.27-32.67-8.37-16L65.72 80.2l-37.05 33.48z"/>
    <path fill="#F04E98" d="M28.44 48.53l25.8 6.09 5.65-29.34a20.38 20.38 0 00-31.45 23.25z"/>
    <path fill="#1BA9F5" d="M26.2 54.67a28.74 28.74 0 00-19.55 27A28.44 28.44 0 0025 108.28l36.2-32.72-6.65-14.2-28.35-6.69z"/>
    <path fill="#93C90E" d="M112.23 146.09a20.354 20.354 0 0024.364.13 20.353 20.353 0 007.026-23.33l-25.78-6-5.61 29.2z"/>
    <path fill="#0077CC" d="M117.47 110.1l28.38 6.63a28.698 28.698 0 0019.55-27 28.412 28.412 0 00-18.34-26.54l-37.12 32.5 7.53 14.41z"/>
    <path fill="#1C1E23" d="M240.56 120.4l3.44-.35.24 7a170.95 170.95 0 01-23.12 1.9c-8.533 0-14.58-2.47-18.14-7.41-3.56-4.94-5.337-12.627-5.33-23.06 0-20.78 8.26-31.173 24.78-31.18 8 0 13.967 2.233 17.9 6.7 3.934 4.467 5.907 11.467 5.92 21l-.47 6.76h-39.12c0 6.56 1.187 11.42 3.56 14.58 2.374 3.16 6.5 4.74 12.38 4.74 5.894.02 11.88-.207 17.96-.68zm-3.2-25.72c0-7.273-1.163-12.41-3.49-15.41s-6.12-4.503-11.38-4.51c-5.26 0-9.213 1.58-11.86 4.74-2.646 3.16-4.01 8.22-4.09 15.18h30.82zM258.65 128.48v-78h8.89v78h-8.89zM323.53 86.38v29.9c0 3 7.38 2.84 7.38 2.84l-.45 7.86c-6.25 0-11.42.52-14.52-2.49a51.694 51.694 0 01-21.33 4.45c-5.447 0-9.597-1.543-12.45-4.63-2.853-3.087-4.277-7.523-4.27-13.31 0-5.773 1.463-10.023 4.39-12.75 2.927-2.727 7.51-4.393 13.75-5l18.61-1.77v-5.1c0-4-.867-6.887-2.6-8.66a9.648 9.648 0 00-7.12-2.6h-23.36v-7.83h22.77c6.72 0 11.6 1.543 14.64 4.63 3.04 3.087 4.56 7.907 4.56 14.46zM287 110.56c0 7.273 3 10.91 9 10.91a47.914 47.914 0 0015.89-2.73l2.72-.95V98.23l-17.51 1.66c-3.56.32-6.13 1.347-7.71 3.08s-2.377 4.263-2.39 7.59zM358.24 75.24c-8.62 0-12.93 3-12.93 9 0 2.773 1 4.73 3 5.87 2 1.14 6.504 2.327 13.51 3.56 7.04 1.233 12.02 2.953 14.94 5.16 2.92 2.207 4.384 6.353 4.39 12.44 0 6.093-1.956 10.56-5.87 13.4-3.913 2.84-9.623 4.263-17.13 4.27-4.9 0-21.26-1.82-21.26-1.82l.48-7.7c9.4.9 16.19 1.57 20.78 1.57s8.08-.73 10.49-2.19 3.61-3.91 3.61-7.35c0-3.44-1-5.77-3.08-7-2.08-1.23-6.56-2.39-13.51-3.5-6.95-1.11-11.9-2.73-14.82-4.86-2.92-2.13-4.39-6.09-4.39-11.86s2-10 6.11-12.8c4.11-2.8 9.15-4.15 15.23-4.15 4.82 0 21.55 1.23 21.55 1.23v7.75c-8.83-.39-16.05-1.02-21.1-1.02zM424 76.18h-18.85v28.34c0 6.793.493 11.257 1.48 13.39 1 2.14 3.34 3.2 7.05 3.2l10.55-.71.6 7.35a81.26 81.26 0 01-12.1 1.31c-6.16 0-10.427-1.503-12.8-4.51-2.373-3.007-3.557-8.737-3.55-17.19V76.18H388v-7.7h8.42V50.34h8.77v18.14H424v7.7zM436.36 60.91V50.59h8.89v10.32h-8.89zm0 67.57v-60h8.89v60h-8.89zM483.76 67.29c4.44.19 8.862.667 13.24 1.43l2.84.35-.35 7.23a139.19 139.19 0 00-14-1.06c-6.72 0-11.283 1.6-13.69 4.8-2.407 3.2-3.613 9.127-3.62 17.78 0 8.667 1.127 14.693 3.38 18.08 2.253 3.387 6.953 5.087 14.1 5.1l14-1.06.36 7.35a122.925 122.925 0 01-16.48 1.66c-9.24 0-15.62-2.373-19.14-7.12-3.52-4.747-5.28-12.747-5.28-24 0-11.26 1.897-19.163 5.69-23.71 3.793-4.547 10.11-6.823 18.95-6.83z"/>
  </g>
  <defs>
    <clipPath id="clip0">
      <path fill="white" d="M0 0h500v171.38H0z"/>
    </clipPath>
  </defs>
</svg>
