<svg width="174" height="264" viewBox="0 0 174 264" fill="none" xmlns="http://www.w3.org/2000/svg"><path d="M25.406 16h1.317v-3.303h1.875L30.37 16h1.5l-1.935-3.533c1.07-.396 1.602-1.287 1.602-2.459 0-1.606-.997-2.735-3.021-2.735h-3.11V16Zm1.317-4.436V8.402h1.653c1.3 0 1.837.618 1.837 1.607 0 .984-.537 1.555-1.82 1.555h-1.67Zm8.99 4.568c1.845 0 3.051-1.35 3.051-3.375 0-2.037-1.206-3.388-3.05-3.388-1.846 0-3.052 1.351-3.052 3.388 0 2.024 1.206 3.375 3.051 3.375Zm.005-1.07c-1.207 0-1.769-1.052-1.769-2.31 0-1.252.563-2.317 1.769-2.317 1.197 0 1.76 1.065 1.76 2.318 0 1.257-.563 2.31-1.76 2.31Zm5.688.938h1.296l1.33-4.726h.097L45.46 16h1.3l1.922-6.545h-1.317L46.09 14.24h-.064l-1.279-4.785h-1.316l-1.287 4.806h-.064l-1.283-4.806H39.48L41.406 16Zm13.389-4.947c-.265-1.019-1.062-1.684-2.476-1.684-1.479 0-2.527.78-2.527 1.94 0 .928.562 1.546 1.79 1.819l1.108.243c.63.14.924.422.924.83 0 .508-.541.904-1.376.904-.763 0-1.253-.328-1.407-.972l-1.231.188c.213 1.16 1.176 1.811 2.646 1.811 1.581 0 2.676-.84 2.676-2.024 0-.925-.588-1.496-1.79-1.773l-1.04-.238c-.72-.17-1.03-.414-1.026-.857-.004-.503.541-.86 1.265-.86.793 0 1.16.438 1.309.877l1.155-.204Zm4.704 7.401h1.274v-3.473h.077c.23.418.699 1.147 1.892 1.147 1.585 0 2.736-1.27 2.736-3.388 0-2.122-1.168-3.37-2.749-3.37-1.214 0-1.653.74-1.879 1.146h-.107V9.455H59.5v9Zm1.249-5.727c0-1.368.596-2.275 1.709-2.275 1.154 0 1.734.976 1.734 2.275 0 1.313-.597 2.314-1.735 2.314-1.095 0-1.708-.937-1.708-2.314Zm8.978 3.405c1.428 0 2.438-.703 2.728-1.768l-1.206-.218c-.23.618-.784.933-1.509.933-1.09 0-1.824-.707-1.858-1.968h4.654v-.452c0-2.365-1.415-3.29-2.898-3.29-1.824 0-3.026 1.39-3.026 3.4 0 2.034 1.185 3.363 3.115 3.363Zm-1.84-3.976c.05-.929.724-1.734 1.76-1.734.988 0 1.636.733 1.64 1.734h-3.4ZM73.947 16h1.275v-3.997c0-.857.66-1.475 1.563-1.475.265 0 .563.047.665.077V9.386a5.178 5.178 0 0 0-.541-.03c-.767 0-1.423.435-1.662 1.138h-.068v-1.04h-1.232V16Zm7.782 2.454h1.274v-3.473h.076c.23.418.7 1.147 1.892 1.147 1.586 0 2.736-1.27 2.736-3.388 0-2.122-1.167-3.37-2.748-3.37-1.215 0-1.654.74-1.88 1.146h-.106V9.455H81.73v9Zm1.248-5.727c0-1.368.597-2.275 1.709-2.275 1.155 0 1.734.976 1.734 2.275 0 1.313-.596 2.314-1.734 2.314-1.095 0-1.709-.937-1.709-2.314Zm8.063 3.418c1.082 0 1.691-.55 1.934-1.04h.052V16h1.244v-4.347c0-1.904-1.5-2.284-2.54-2.284-1.185 0-2.276.478-2.702 1.67l1.198.274c.187-.465.664-.912 1.521-.912.822 0 1.244.43 1.244 1.171v.03c0 .465-.477.456-1.653.593-1.24.144-2.51.468-2.51 1.956 0 1.287.967 1.994 2.212 1.994Zm.277-1.023c-.72 0-1.24-.324-1.24-.954 0-.682.605-.925 1.342-1.023.413-.056 1.393-.166 1.577-.35v.844c0 .776-.618 1.483-1.68 1.483Zm7.394 3.469c1.666 0 2.953-.763 2.953-2.446v-6.69h-1.248v1.06h-.094c-.226-.404-.678-1.146-1.896-1.146-1.581 0-2.745 1.249-2.745 3.333 0 2.088 1.19 3.2 2.736 3.2 1.202 0 1.666-.678 1.896-1.095h.081v1.287c0 1.027-.703 1.47-1.67 1.47-1.061 0-1.474-.533-1.7-.908l-1.096.452c.346.801 1.22 1.483 2.783 1.483Zm-.013-3.746c-1.137 0-1.73-.873-1.73-2.16 0-1.257.58-2.233 1.73-2.233 1.113 0 1.709.907 1.709 2.233 0 1.35-.61 2.16-1.709 2.16Zm7.496 1.287c1.428 0 2.438-.703 2.727-1.768l-1.206-.218c-.23.618-.784.933-1.508.933-1.091 0-1.824-.707-1.858-1.968h4.653v-.452c0-2.365-1.414-3.29-2.897-3.29-1.824 0-3.026 1.39-3.026 3.4 0 2.034 1.185 3.363 3.115 3.363Zm-1.841-3.976c.051-.929.725-1.734 1.76-1.734.989 0 1.637.733 1.641 1.734h-3.401Zm6.903-.84c.464 0 .852-.379.852-.852a.857.857 0 0 0-.852-.848.854.854 0 0 0-.853.848c0 .473.384.853.853.853Zm0 4.765c.464 0 .852-.38.852-.852a.857.857 0 0 0-.852-.848.854.854 0 0 0-.853.848c0 .473.384.852.853.852Zm9.028-8.808h-1.282l-2.178 1.423v1.261l2.088-1.363h.051V16h1.321V7.273Zm5.399 8.872c2.016 0 3.197-1.645 3.197-4.504 0-2.838-1.198-4.488-3.197-4.488-2.002 0-3.196 1.645-3.2 4.488 0 2.855 1.181 4.5 3.2 4.504Zm0-1.138c-1.18 0-1.892-1.185-1.892-3.366.005-2.174.716-3.371 1.892-3.371 1.172 0 1.888 1.197 1.888 3.37 0 2.182-.711 3.367-1.888 3.367Z" fill="#343741"/><path fill-rule="evenodd" clip-rule="evenodd" d="M139.468 9.737a.562.562 0 0 1 .795-.019l3.608 3.443c.072.07.186.07.258 0l3.608-3.443a.562.562 0 1 1 .776.814l-3.607 3.443a1.312 1.312 0 0 1-1.812 0l-3.607-3.443a.563.563 0 0 1-.019-.795Z" fill="#343741"/><g filter="url(#a)"><path d="m87 29.001 12 12H75l12-12Z" fill="white"/><g clip-path="url(#b)"><g clip-path="url(#c)"><path fill="white" d="M35.5 41.001h103v66h-103z"/><g clip-path="url(#d)"><path fill="white" fill-opacity=".01" d="M35.5 41.001h103v33h-103z"/><path fill-rule="evenodd" clip-rule="evenodd" d="M48 62.001a.502.502 0 0 1-.354-.146l-4-4a.502.502 0 0 1 .708-.708L48 60.794l6.646-6.647a.502.502 0 0 1 .708.708l-7 7a.502.502 0 0 1-.354.146Z" fill="#343741"/><path d="M70.342 52.82h-1.496l-2.54 1.66v1.471l2.436-1.59h.06V63h1.54V52.819Zm6.3 10.35c2.35 0 3.728-1.919 3.728-5.255 0-3.311-1.397-5.235-3.729-5.235-2.336 0-3.728 1.919-3.733 5.235 0 3.331 1.377 5.25 3.733 5.255Zm0-1.327c-1.378 0-2.208-1.383-2.208-3.928.005-2.535.835-3.932 2.207-3.932 1.367 0 2.203 1.397 2.203 3.932 0 2.546-.83 3.928-2.203 3.928ZM85.858 63h1.486v-4.663c0-1 .77-1.72 1.825-1.72.308 0 .656.054.775.089v-1.422a6.034 6.034 0 0 0-.631-.035c-.895 0-1.66.507-1.939 1.328h-.08v-1.213H85.86V63Zm8.316.154c2.153 0 3.56-1.576 3.56-3.937 0-2.377-1.407-3.953-3.56-3.953s-3.56 1.576-3.56 3.953c0 2.361 1.407 3.937 3.56 3.937Zm.005-1.248c-1.407 0-2.063-1.228-2.063-2.694 0-1.462.656-2.705 2.063-2.705 1.397 0 2.053 1.243 2.053 2.705 0 1.466-.656 2.694-2.053 2.694Zm6.637 1.094h1.511l1.551-5.514h.115l1.551 5.514h1.516l2.242-7.636h-1.536l-1.486 5.583h-.075l-1.491-5.583h-1.537l-1.501 5.608h-.075l-1.496-5.608H98.57L100.817 63Zm15.619-5.772c-.308-1.188-1.237-1.964-2.888-1.964-1.725 0-2.948.91-2.948 2.262 0 1.084.656 1.805 2.088 2.123l1.292.284c.736.164 1.079.492 1.079.969 0 .592-.631 1.054-1.606 1.054-.889 0-1.461-.383-1.64-1.133l-1.437.218c.249 1.352 1.372 2.113 3.087 2.113 1.845 0 3.123-.98 3.123-2.361 0-1.08-.686-1.745-2.088-2.069l-1.214-.278c-.84-.199-1.203-.482-1.198-1-.005-.586.632-1.004 1.477-1.004.925 0 1.352.513 1.526 1.025l1.347-.239Z" fill="#343741"/><path fill="white" fill-opacity=".01" d="M35.5 74.001h103v33h-103z"/><path d="M72.172 88.494h1.481c-.044-1.63-1.486-2.814-3.554-2.814-2.044 0-3.61 1.168-3.61 2.923 0 1.417 1.015 2.247 2.65 2.69l1.203.328c1.09.288 1.93.646 1.93 1.551 0 .995-.95 1.65-2.258 1.65-1.183 0-2.167-.526-2.257-1.635h-1.541c.1 1.844 1.526 2.983 3.808 2.983 2.391 0 3.769-1.258 3.769-2.983 0-1.834-1.636-2.545-2.929-2.864l-.994-.258c-.795-.204-1.854-.577-1.85-1.551 0-.865.791-1.507 2.044-1.507 1.168 0 1.999.547 2.108 1.487Zm4.824 2.973c0-1.218.77-1.914 1.83-1.914 1.023 0 1.635.651 1.635 1.77V96h1.486v-4.857c0-1.904-1.044-2.879-2.615-2.879-1.188 0-1.904.517-2.262 1.343h-.094v-3.789h-1.467v10.182h1.487v-4.534Zm10.151 4.688c2.153 0 3.56-1.576 3.56-3.937 0-2.377-1.407-3.953-3.56-3.953-2.152 0-3.56 1.576-3.56 3.953 0 2.361 1.408 3.937 3.56 3.937Zm.005-1.248c-1.406 0-2.063-1.228-2.063-2.694 0-1.462.657-2.705 2.064-2.705 1.396 0 2.053 1.243 2.053 2.705 0 1.466-.657 2.694-2.053 2.694Zm6.638 1.094H95.3l1.551-5.514h.114l1.552 5.514h1.516l2.242-7.636h-1.536l-1.487 5.583h-.074l-1.492-5.583h-1.536l-1.501 5.608h-.075l-1.496-5.608h-1.537L93.79 96Zm15.824.169c1.263 0 1.974-.641 2.257-1.213h.06v1.044h1.452V90.93c0-2.222-1.75-2.665-2.963-2.665-1.383 0-2.655.557-3.152 1.95l1.397.317c.218-.542.775-1.064 1.774-1.064.96 0 1.452.502 1.452 1.367v.035c0 .542-.557.532-1.929.691-1.447.17-2.928.547-2.928 2.282 0 1.502 1.128 2.327 2.58 2.327Zm.323-1.193c-.84 0-1.446-.378-1.446-1.114 0-.795.706-1.079 1.566-1.193.482-.065 1.625-.194 1.839-.408v.985c0 .905-.721 1.73-1.959 1.73Zm6.912-9.158h-1.486v10.182h1.486V85.819Zm3.486 0h-1.486v10.182h1.486V85.819Z" fill="#343741"/></g></g></g></g><defs><clipPath id="b"><rect x="35.5" y="41.001" width="103" height="66" rx="6" fill="white"/></clipPath><clipPath id="c"><path fill="white" transform="translate(35.5 41.001)" d="M0 0h103v66H0z"/></clipPath><clipPath id="d"><path fill="white" transform="translate(35.5 41.001)" d="M0 0h103v66H0z"/></clipPath><filter id="a" x=".5" y="14.401" width="173" height="150.6" filterUnits="userSpaceOnUse" color-interpolation-filters="sRGB"><feFlood flood-opacity="0" result="BackgroundImageFix"/><feColorMatrix in="SourceAlpha" values="0 0 0 0 0 0 0 0 0 0 0 0 0 0 0 0 0 0 127 0" result="hardAlpha"/><feOffset dy="23"/><feGaussianBlur stdDeviation="17.5"/><feColorMatrix values="0 0 0 0 0 0 0 0 0 0 0 0 0 0 0 0 0 0 0.05 0"/><feBlend in2="BackgroundImageFix" result="effect1_dropShadow_22524:279451"/><feColorMatrix in="SourceAlpha" values="0 0 0 0 0 0 0 0 0 0 0 0 0 0 0 0 0 0 127 0" result="hardAlpha"/><feOffset dy="8.4"/><feGaussianBlur stdDeviation="11.5"/><feColorMatrix values="0 0 0 0 0 0 0 0 0 0 0 0 0 0 0 0 0 0 0.06 0"/><feBlend in2="effect1_dropShadow_22524:279451" result="effect2_dropShadow_22524:279451"/><feColorMatrix in="SourceAlpha" values="0 0 0 0 0 0 0 0 0 0 0 0 0 0 0 0 0 0 127 0" result="hardAlpha"/><feOffset dy="3.6"/><feGaussianBlur stdDeviation="6.5"/><feColorMatrix values="0 0 0 0 0 0 0 0 0 0 0 0 0 0 0 0 0 0 0.07 0"/><feBlend in2="effect2_dropShadow_22524:279451" result="effect3_dropShadow_22524:279451"/><feColorMatrix in="SourceAlpha" values="0 0 0 0 0 0 0 0 0 0 0 0 0 0 0 0 0 0 127 0" result="hardAlpha"/><feOffset dy="1"/><feGaussianBlur stdDeviation="2.5"/><feColorMatrix values="0 0 0 0 0 0 0 0 0 0 0 0 0 0 0 0 0 0 0.1 0"/><feBlend in2="effect3_dropShadow_22524:279451" result="effect4_dropShadow_22524:279451"/><feBlend in="SourceGraphic" in2="effect4_dropShadow_22524:279451" result="shape"/></filter></defs></svg>