<svg xmlns="http://www.w3.org/2000/svg" width="300" height="150" viewBox="0 0 300 150">
  <g fill="none" fill-rule="evenodd">
    <rect width="300" height="150" fill="#D3DAE6"/>
    <polygon fill="#FFF" points="24 44 276 44 276 132 24 132"/>
    <polygon fill="#BD271E" points="25 24 60 24 60 32 25 32"/>
    <g transform="translate(226 24)">
      <polygon fill="#006BB4" points="34 0 50 0 50 8 34 8"/>
      <polygon fill="#FFF" points="17 0 33 0 33 8 17 8"/>
      <polygon fill="#FFF" points="0 0 16 0 16 8 0 8"/>
    </g>
    <polygon fill="#FFF" points="68 24 218 24 218 32 68 32"/>
    <g fill="#98A2B3" opacity=".593" transform="translate(32 72)">
      <polygon points="0 0 22 0 22 4 0 4"/>
      <polygon points="30 0 86 0 86 4 30 4"/>
      <polygon points="94 0 150 0 150 4 94 4"/>
      <polygon points="158 0 236 0 236 4 158 4"/>
      <polygon points="0 16 22 16 22 20 0 20"/>
      <polygon points="30 16 86 16 86 20 30 20"/>
      <polygon points="94 16 150 16 150 20 94 20"/>
      <polygon points="158 16 236 16 236 20 158 20"/>
      <polygon points="0 32 22 32 22 36 0 36"/>
      <polygon points="30 32 86 32 86 36 30 36"/>
      <polygon points="94 32 150 32 150 36 94 36"/>
      <polygon points="158 32 236 32 236 36 158 36"/>
      <polygon points="0 48 22 48 22 52 0 52"/>
      <polygon points="30 48 86 48 86 52 30 52"/>
      <polygon points="94 48 150 48 150 52 94 52"/>
      <polygon points="158 48 236 48 236 52 158 52"/>
    </g>
    <g fill="#343741" opacity=".577" transform="translate(32 52)">
      <polygon points="0 0 22 0 22 8 0 8"/>
      <polygon points="30 0 86 0 86 8 30 8"/>
      <polygon points="94 0 150 0 150 8 94 8"/>
      <polygon points="158 0 236 0 236 8 158 8"/>
    </g>
  </g>
</svg>
