<svg width="300" height="150" viewBox="0 0 300 150" fill="none" xmlns="http://www.w3.org/2000/svg">
<path opacity="0.18" d="M300 0H0V150H300V0Z" fill="#5A77AD"/>
<rect x="25" y="22" width="190.141" height="15.9529" rx="2" fill="white"/>
<rect x="25.5" y="22.5" width="189.141" height="14.9529" rx="1.5" stroke="#7D869C" stroke-opacity="0.5"/>
<rect x="227.141" y="22" width="47.8588" height="15.9529" rx="3" fill="#0077CC"/>
<rect x="239.106" y="28.647" width="23.9294" height="2.65882" rx="1" fill="white"/>
<g opacity="0.6">
<rect x="25" y="47.0027" width="56.9382" height="9.04977" rx="1.5083" fill="#7D869C" fill-opacity="0.5"/>
<rect x="91.7421" y="47.0027" width="116.516" height="9.04977" rx="1.5083" fill="#7D869C" fill-opacity="0.5"/>
<rect x="218.062" y="47.0027" width="56.9382" height="9.04977" rx="1.5083" fill="#7D869C" fill-opacity="0.5"/>
</g>
<g opacity="0.6">
<rect x="25" y="65.1023" width="56.9382" height="9.04977" rx="1.5083" fill="#7D869C" fill-opacity="0.5"/>
<rect x="91.7421" y="65.1023" width="116.516" height="9.04977" rx="1.5083" fill="#7D869C" fill-opacity="0.5"/>
<rect x="218.062" y="65.1023" width="56.9382" height="9.04977" rx="1.5083" fill="#7D869C" fill-opacity="0.5"/>
</g>
<g opacity="0.6">
<rect x="25" y="83.2018" width="56.9382" height="9.04977" rx="1.5083" fill="#7D869C" fill-opacity="0.5"/>
<rect x="91.7421" y="83.2018" width="116.516" height="9.04977" rx="1.5083" fill="#7D869C" fill-opacity="0.5"/>
<rect x="218.062" y="83.2018" width="56.9382" height="9.04977" rx="1.5083" fill="#7D869C" fill-opacity="0.5"/>
</g>
<g opacity="0.6">
<rect x="25" y="101.301" width="56.9382" height="9.04977" rx="1.5083" fill="#7D869C" fill-opacity="0.5"/>
<rect x="91.7421" y="101.301" width="116.516" height="9.04977" rx="1.5083" fill="#7D869C" fill-opacity="0.5"/>
<rect x="218.062" y="101.301" width="56.9382" height="9.04977" rx="1.5083" fill="#7D869C" fill-opacity="0.5"/>
</g>
<g opacity="0.6">
<rect x="25" y="119.401" width="56.9382" height="9.04977" rx="1.5083" fill="#7D869C" fill-opacity="0.5"/>
<rect x="91.7421" y="119.401" width="116.516" height="9.04977" rx="1.5083" fill="#7D869C" fill-opacity="0.5"/>
<rect x="218.062" y="119.401" width="56.9382" height="9.04977" rx="1.5083" fill="#7D869C" fill-opacity="0.5"/>
</g>
</svg>
