<svg xmlns="http://www.w3.org/2000/svg" width="442" height="249" fill="none" viewBox="0 0 442 249">
  <path fill="#fff" d="M17 0h420v215H17z"/>
  <g filter="url(#filter0_dddd_234:47879)">
    <path fill="#fff" d="M35.001 54.001l12-12v24l-12-12z"/>
    <g clip-path="url(#clip0_234:47879)">
      <path fill="#fff" d="M47.001 26.001h359.998v26H47.001z"/>
      <rect width="286" height="10" x="63.001" y="42.001" fill="#BBC1CC" rx="2"/>
      <path fill="#fff" d="M47.001 52.001h359.998v82H47.001z"/>
      <rect width="293" height="8" x="63.001" y="68.001" fill="#D5DCE7" rx="2"/>
      <rect width="241" height="8" x="63.001" y="82.001" fill="#D5DCE7" rx="4"/>
      <rect width="241" height="8" x="63.001" y="96.001" fill="#D5DCE7" rx="4"/>
      <rect width="241" height="8" x="63.001" y="110.001" fill="#D5DCE7" rx="4"/>
      <g filter="url(#filter1_i_234:47879)">
        <path fill="#F5F7FA" d="M47.001 134.001h359.998v56H47.001z"/>
        <g clip-path="url(#clip1_234:47879)">
          <path fill="#00BFB3" d="M71.001 166.001a4 4 0 100-8 4 4 0 000 8z"/>
          <path fill="#69707D" d="M87.001 166.001a4 4 0 100-8 4 4 0 000 8zM103.001 166.001a4 4 0 100-8 4 4 0 000 8zM119.001 166.001a4 4 0 100-8 4 4 0 000 8z"/>
        </g>
        <g clip-path="url(#clip2_234:47879)">
          <path fill="#343741" d="M337.723 159.994h1.481c-.045-1.631-1.486-2.814-3.554-2.814-2.044 0-3.61 1.168-3.61 2.923 0 1.417 1.014 2.247 2.65 2.69l1.203.328c1.089.288 1.929.646 1.929 1.551 0 .994-.949 1.651-2.257 1.651-1.183 0-2.168-.527-2.257-1.636h-1.541c.099 1.845 1.526 2.983 3.808 2.983 2.391 0 3.768-1.258 3.768-2.983 0-1.834-1.635-2.545-2.928-2.864l-.994-.258c-.796-.204-1.855-.577-1.85-1.551 0-.865.791-1.507 2.044-1.507 1.168 0 1.998.547 2.108 1.487zm3.337 7.507h1.486v-2.71l.741-.74 2.595 3.45h1.825l-3.301-4.36 3.092-3.276h-1.78l-3.042 3.231h-.13v-5.777h-1.486v10.182zm7.793 0h1.486v-7.636h-1.486v7.636zm.751-8.815c.512 0 .939-.397.939-.885 0-.487-.427-.89-.939-.89-.518 0-.94.403-.94.89 0 .488.422.885.94.885zm2.735 11.679h1.487v-4.052h.089c.269.487.815 1.337 2.208 1.337 1.849 0 3.191-1.481 3.191-3.952 0-2.476-1.362-3.933-3.206-3.933-1.417 0-1.929.865-2.193 1.338h-.124v-1.238h-1.452v10.5zm1.457-6.682c0-1.596.696-2.655 1.993-2.655 1.348 0 2.024 1.138 2.024 2.655 0 1.531-.696 2.699-2.024 2.699-1.277 0-1.993-1.093-1.993-2.699zm14.453-3.818h-1.566v-1.83h-1.486v1.83h-1.119v1.193h1.119v4.509c-.005 1.387 1.054 2.058 2.227 2.033.472-.005.791-.094.965-.159l-.269-1.228c-.099.02-.283.065-.522.065-.482 0-.915-.159-.915-1.019v-4.201h1.566v-1.193zm4.779 7.79c2.153 0 3.56-1.576 3.56-3.937 0-2.377-1.407-3.953-3.56-3.953-2.152 0-3.559 1.576-3.559 3.953 0 2.361 1.407 3.937 3.559 3.937zm.005-1.248c-1.407 0-2.063-1.228-2.063-2.694 0-1.462.656-2.705 2.063-2.705 1.397 0 2.054 1.243 2.054 2.705 0 1.466-.657 2.694-2.054 2.694zm10.052-2.073c.005 1.298-.96 1.914-1.795 1.914-.92 0-1.556-.666-1.556-1.705v-4.678h-1.487v4.857c0 1.894 1.039 2.878 2.506 2.878 1.148 0 1.929-.606 2.282-1.421h.08v1.322h1.461v-7.636h-1.491v4.469zm3.489 3.167h1.486v-4.663c0-1 .771-1.721 1.825-1.721.308 0 .656.055.775.09v-1.422a5.992 5.992 0 00-.631-.035c-.895 0-1.661.507-1.939 1.328h-.08v-1.213h-1.436v7.636z"/>
        </g>
      </g>
    </g>
  </g>
  <defs>
    <clipPath id="clip0_234:47879">
      <rect width="359.998" height="164" x="47.001" y="26.001" fill="#fff" rx="6"/>
    </clipPath>
    <clipPath id="clip1_234:47879">
      <path fill="#fff" d="M0 0h64v16H0z" transform="translate(63.001 154.001)"/>
    </clipPath>
    <clipPath id="clip2_234:47879">
      <path fill="#fff" d="M330.999 152.001a6 6 0 016-6h48a6 6 0 016 6v20a6 6 0 01-6 6h-48a6 6 0 01-6-6v-20z"/>
    </clipPath>
    <filter id="filter0_dddd_234:47879" width="441.999" height="236.602" x=".001" y="11.4" color-interpolation-filters="sRGB" filterUnits="userSpaceOnUse">
      <feFlood flood-opacity="0" result="BackgroundImageFix"/>
      <feColorMatrix in="SourceAlpha" result="hardAlpha" values="0 0 0 0 0 0 0 0 0 0 0 0 0 0 0 0 0 0 127 0"/>
      <feOffset dy="23"/>
      <feGaussianBlur stdDeviation="17.5"/>
      <feColorMatrix values="0 0 0 0 0 0 0 0 0 0 0 0 0 0 0 0 0 0 0.05 0"/>
      <feBlend in2="BackgroundImageFix" result="effect1_dropShadow_234:47879"/>
      <feColorMatrix in="SourceAlpha" result="hardAlpha" values="0 0 0 0 0 0 0 0 0 0 0 0 0 0 0 0 0 0 127 0"/>
      <feOffset dy="8.4"/>
      <feGaussianBlur stdDeviation="11.5"/>
      <feColorMatrix values="0 0 0 0 0 0 0 0 0 0 0 0 0 0 0 0 0 0 0.06 0"/>
      <feBlend in2="effect1_dropShadow_234:47879" result="effect2_dropShadow_234:47879"/>
      <feColorMatrix in="SourceAlpha" result="hardAlpha" values="0 0 0 0 0 0 0 0 0 0 0 0 0 0 0 0 0 0 127 0"/>
      <feOffset dy="3.6"/>
      <feGaussianBlur stdDeviation="6.5"/>
      <feColorMatrix values="0 0 0 0 0 0 0 0 0 0 0 0 0 0 0 0 0 0 0.07 0"/>
      <feBlend in2="effect2_dropShadow_234:47879" result="effect3_dropShadow_234:47879"/>
      <feColorMatrix in="SourceAlpha" result="hardAlpha" values="0 0 0 0 0 0 0 0 0 0 0 0 0 0 0 0 0 0 127 0"/>
      <feOffset dy="1"/>
      <feGaussianBlur stdDeviation="2.5"/>
      <feColorMatrix values="0 0 0 0 0 0 0 0 0 0 0 0 0 0 0 0 0 0 0.1 0"/>
      <feBlend in2="effect3_dropShadow_234:47879" result="effect4_dropShadow_234:47879"/>
      <feBlend in="SourceGraphic" in2="effect4_dropShadow_234:47879" result="shape"/>
    </filter>
    <filter id="filter1_i_234:47879" width="359.998" height="56" x="47.001" y="134.001" color-interpolation-filters="sRGB" filterUnits="userSpaceOnUse">
      <feFlood flood-opacity="0" result="BackgroundImageFix"/>
      <feBlend in="SourceGraphic" in2="BackgroundImageFix" result="shape"/>
      <feColorMatrix in="SourceAlpha" result="hardAlpha" values="0 0 0 0 0 0 0 0 0 0 0 0 0 0 0 0 0 0 127 0"/>
      <feOffset dy="1"/>
      <feComposite in2="hardAlpha" k2="-1" k3="1" operator="arithmetic"/>
      <feColorMatrix values="0 0 0 0 0.827451 0 0 0 0 0.854902 0 0 0 0 0.901961 0 0 0 1 0"/>
      <feBlend in2="shape" result="effect1_innerShadow_234:47879"/>
    </filter>
  </defs>
</svg>
