<svg width="446" height="303" fill="none" xmlns="http://www.w3.org/2000/svg">
  <g clip-path="url(#Frame_402__clip0_152:9193)">
    <path fill="#fff" d="M0 0h446v303H0z"/>
    <path d="M20 26a6 6 0 016-6h394a6 6 0 016 6v28a6 6 0 01-6 6H26a6 6 0 01-6-6V26z" fill="#FBFCFD"/>
    <path d="M26 21h394v-2H26v2zm399 5v28h2V26h-2zm-5 33H26v2h394v-2zM21 54V26h-2v28h2zm5 5a5 5 0 01-5-5h-2a7 7 0 007 7v-2zm399-5a5 5 0 01-5 5v2a7 7 0 007-7h-2zm-5-33a5 5 0 015 5h2a7 7 0 00-7-7v2zM26 19a7 7 0 00-7 7h2a5 5 0 015-5v-2z" fill="#132295" fill-opacity=".1"/>
    <path d="M20 26a5 5 0 015-5h49v38H25a5 5 0 01-5-5V26z" fill="#EAEDF2"/>
    <path d="M34.008 34h-2.726c-.181 0-.245.002-.275.007-.005.03-.007.094-.007.275v11.436c0 .181.002.245.007.275.03.005.094.007.275.007h11.436c.181 0 .245-.002.275-.007.005-.03.007-.094.007-.275V36.62c0-.13-.001-.18-.004-.204a2.64 2.64 0 00-.141-.147l-2.124-2.124a2.64 2.64 0 00-.147-.141A2.63 2.63 0 0040.38 34h-.388c.005.08.008.172.008.282v2.436c0 .446-.046.607-.134.77a.908.908 0 01-.378.378c-.163.088-.324.134-.77.134h-3.436c-.446 0-.607-.046-.77-.134a.908.908 0 01-.378-.378c-.088-.163-.134-.324-.134-.77v-2.436c0-.11.003-.202.008-.282zm-2.726-1h9.098c.259 0 .348.01.447.032.099.023.187.06.273.113.086.054.155.11.338.293l2.124 2.124c.183.183.239.252.293.338.054.087.09.174.113.273.023.1.032.188.032.447v9.098c0 .446-.046.607-.134.77a.908.908 0 01-.378.378c-.163.088-.324.134-.77.134H31.282c-.446 0-.608-.046-.77-.134a.908.908 0 01-.378-.378c-.088-.163-.134-.324-.134-.77V34.282c0-.446.046-.607.134-.77a.908.908 0 01.378-.378c.162-.088.324-.134.77-.134zM35 34.282v2.436c0 .181.002.245.007.275.03.005.094.007.275.007h3.436c.181 0 .245-.002.275-.007.005-.03.007-.094.007-.275v-2.436c0-.181-.002-.245-.007-.275a2.246 2.246 0 00-.275-.007h-3.436c-.181 0-.245.002-.275.007-.005.03-.007.094-.007.275zM37 44a2 2 0 110-4 2 2 0 010 4zm0-1a1 1 0 100-2 1 1 0 000 2zm25.069-5.843l-4.685 4.611a.546.546 0 01-.768 0l-4.685-4.61a.551.551 0 00-.771 0 .53.53 0 000 .758l4.684 4.612c.641.63 1.672.629 2.312 0l4.684-4.611a.53.53 0 000-.76.551.551 0 00-.771 0z" fill="#0055B1"/>
    <path d="M88.176 46.16c1.69 0 2.804-1.035 3.003-2.387h-1.173c-.22.835-.915 1.332-1.83 1.332-1.392 0-2.287-1.153-2.287-2.923 0-1.73.915-2.864 2.287-2.864 1.034 0 1.65.637 1.83 1.333h1.173c-.199-1.432-1.412-2.387-3.023-2.387-2.068 0-3.44 1.63-3.44 3.958 0 2.286 1.312 3.937 3.46 3.937zm6.965.019c1.333 0 2.029-.716 2.267-1.213h.06V46h1.173v-5.031c0-2.426-1.85-2.705-2.824-2.705-1.153 0-2.465.398-3.062 1.79l1.114.398c.258-.557.87-1.154 1.988-1.154 1.08 0 1.611.572 1.611 1.551v.04c0 .567-.577.517-1.969.696-1.417.184-2.963.497-2.963 2.247 0 1.492 1.154 2.347 2.605 2.347zm.18-1.054c-.935 0-1.611-.418-1.611-1.233 0-.895.815-1.173 1.73-1.293.497-.06 1.83-.198 2.028-.437v1.074c0 .954-.756 1.889-2.148 1.889zm8.783-6.761h-1.631v-1.83H101.3v1.83h-1.154v.994h1.154v4.773c0 1.332 1.074 1.968 2.068 1.968.438 0 .716-.08.875-.139l-.239-1.054c-.099.02-.258.06-.517.06-.517 0-1.014-.16-1.014-1.154v-4.454h1.631v-.994zm4.884 7.795c1.552 0 2.685-.776 3.043-1.929l-1.133-.318c-.299.795-.99 1.193-1.91 1.193-1.377 0-2.326-.89-2.381-2.525h5.543v-.498c0-2.843-1.69-3.818-3.281-3.818-2.068 0-3.44 1.63-3.44 3.977s1.352 3.918 3.559 3.918zm-2.381-4.594c.08-1.188.92-2.247 2.262-2.247 1.273 0 2.088.955 2.088 2.247h-4.35zm10.411 7.458c1.829 0 3.301-.836 3.301-2.804v-7.855h-1.134v1.213h-.119c-.259-.398-.736-1.313-2.227-1.313-1.929 0-3.262 1.531-3.262 3.878 0 2.386 1.392 3.739 3.242 3.739 1.491 0 1.968-.875 2.227-1.293h.099v1.551c0 1.273-.894 1.85-2.127 1.85-1.387 0-1.875-.731-2.188-1.154l-.935.657c.478.8 1.417 1.53 3.123 1.53zm-.04-4.196c-1.472 0-2.227-1.114-2.227-2.705 0-1.551.735-2.804 2.227-2.804 1.432 0 2.187 1.154 2.187 2.804 0 1.69-.775 2.705-2.187 2.705zm8.591 1.332c2.068 0 3.46-1.57 3.46-3.937 0-2.387-1.392-3.958-3.46-3.958s-3.461 1.571-3.461 3.958c0 2.366 1.393 3.937 3.461 3.937zm0-1.054c-1.571 0-2.287-1.352-2.287-2.883 0-1.532.716-2.904 2.287-2.904s2.287 1.372 2.287 2.904c0 1.53-.716 2.883-2.287 2.883zm5.251.895h1.173v-4.832c0-1.035.816-1.79 1.929-1.79.313 0 .637.06.716.08v-1.194c-.134-.01-.442-.02-.616-.02-.915 0-1.711.517-1.989 1.273h-.08v-1.153h-1.133V46zm6.197 2.864c1.059 0 1.805-.562 2.247-1.75l3.252-8.73-1.283-.02-2.108 6.085h-.08l-2.107-6.085h-1.273l2.824 7.676-.219.596c-.428 1.164-.955 1.273-1.81 1.054l-.298 1.034c.119.06.457.14.855.14zm7.428-2.784a.897.897 0 00.894-.895.897.897 0 00-.894-.895.897.897 0 00-.895.895c0 .492.402.895.895.895zm3-.08h1.173v-2.859l.821-.76L152.297 46h1.492l-3.465-4.375 3.226-3.261h-1.452l-3.341 3.4h-.139v-5.946h-1.173V46zm10.502.16c1.552 0 2.685-.776 3.043-1.93l-1.133-.318c-.299.795-.99 1.193-1.91 1.193-1.377 0-2.326-.89-2.381-2.525h5.543v-.498c0-2.843-1.69-3.818-3.281-3.818-2.068 0-3.44 1.63-3.44 3.977s1.352 3.918 3.559 3.918zm-2.381-4.595c.08-1.188.92-2.247 2.262-2.247 1.273 0 2.088.955 2.088 2.247h-4.35zm7.851 7.299c1.059 0 1.805-.562 2.248-1.75l3.251-8.73-1.283-.02-2.108 6.085h-.079l-2.108-6.085h-1.273l2.824 7.676-.219.596c-.427 1.164-.954 1.273-1.809 1.054l-.299 1.034c.12.06.458.14.855.14zM172.199 46h1.153l1.67-5.867h.12l1.67 5.867h1.154l2.326-7.636h-1.233l-1.65 5.826h-.08l-1.611-5.826h-1.252l-1.631 5.846h-.08l-1.65-5.846h-1.233L172.199 46zm12.487.16c2.068 0 3.46-1.572 3.46-3.938 0-2.387-1.392-3.958-3.46-3.958s-3.46 1.571-3.46 3.958c0 2.366 1.392 3.937 3.46 3.937zm0-1.055c-1.571 0-2.287-1.352-2.287-2.883 0-1.532.716-2.904 2.287-2.904s2.287 1.372 2.287 2.904c0 1.53-.716 2.883-2.287 2.883zm5.251.895h1.173v-4.832c0-1.035.816-1.79 1.929-1.79.314 0 .637.06.716.08v-1.194c-.134-.01-.442-.02-.616-.02-.915 0-1.71.517-1.989 1.273h-.079v-1.153h-1.134V46zm7.86.16c1.472 0 1.969-.916 2.228-1.333h.139V46h1.133V35.818h-1.173v3.759h-.099c-.259-.398-.716-1.313-2.208-1.313-1.929 0-3.261 1.531-3.261 3.938 0 2.426 1.332 3.957 3.241 3.957zm.159-1.055c-1.471 0-2.227-1.292-2.227-2.923 0-1.611.736-2.864 2.227-2.864 1.432 0 2.188 1.154 2.188 2.864 0 1.73-.776 2.923-2.188 2.923zm10.446.975a.898.898 0 00.895-.895.898.898 0 00-.895-.895.897.897 0 00-.895.895c0 .492.402.895.895.895zm0-5.668a.898.898 0 00.895-.895.898.898 0 00-.895-.895.897.897 0 00-.895.895c0 .492.402.895.895.895zm6.54-1.412h1.113v-.915c0-.736.358-1.372.776-1.968l-.636-.518c-.796.637-1.253 1.69-1.253 2.506V39zm2.545 0h1.114v-.915c0-.736.358-1.372.775-1.968l-.636-.518c-.795.637-1.253 1.69-1.253 2.506V39zm5.193 7h1.273l2.247-8.114h.079L228.527 46h1.272l2.784-10.182h-1.252l-2.128 8.293h-.1l-2.167-8.293h-1.392l-2.168 8.293h-.099l-2.128-8.293h-1.253L222.68 46zm13.672.16c2.068 0 3.46-1.572 3.46-3.938 0-2.387-1.392-3.958-3.46-3.958s-3.46 1.571-3.46 3.958c0 2.366 1.392 3.937 3.46 3.937zm0-1.055c-1.571 0-2.287-1.352-2.287-2.883 0-1.532.716-2.904 2.287-2.904s2.287 1.372 2.287 2.904c0 1.53-.716 2.883-2.287 2.883zm5.251.895h1.173v-4.773c0-1.118.816-1.909 1.731-1.909.889 0 1.511.582 1.511 1.452V46h1.193v-4.972c0-.984.617-1.71 1.69-1.71.836 0 1.552.443 1.552 1.571V46h1.173v-5.11c0-1.796-.965-2.626-2.327-2.626-1.094 0-1.894.502-2.287 1.293h-.079c-.378-.816-1.044-1.293-2.049-1.293-.994 0-1.73.477-2.048 1.293h-.099v-1.193h-1.134V46zm15.37.16c1.551 0 2.684-.776 3.042-1.93l-1.133-.318c-.298.795-.989 1.193-1.909 1.193-1.377 0-2.327-.89-2.382-2.525h5.544v-.498c0-2.843-1.691-3.818-3.281-3.818-2.069 0-3.441 1.63-3.441 3.977s1.352 3.918 3.56 3.918zm-2.382-4.595c.08-1.188.92-2.247 2.263-2.247 1.272 0 2.088.955 2.088 2.247h-4.351zm8.502-.159c0-1.332.825-2.088 1.949-2.088 1.089 0 1.75.711 1.75 1.91V46h1.173v-4.852c0-1.95-1.039-2.884-2.585-2.884-1.154 0-1.87.517-2.227 1.293h-.1v-1.193h-1.133V46h1.173v-4.594zm8.05-5.588h-1.114v.915c0 .736-.357 1.372-.775 1.969l.636.517c.796-.637 1.253-1.69 1.253-2.506v-.895zm5.879 4.256c-.368-1.084-1.193-1.81-2.705-1.81-1.61 0-2.804.915-2.804 2.208 0 1.054.627 1.76 2.029 2.088l1.273.298c.77.179 1.133.547 1.133 1.074 0 .656-.696 1.193-1.79 1.193-.959 0-1.561-.413-1.77-1.233l-1.113.278c.273 1.298 1.342 1.99 2.903 1.99 1.775 0 2.983-.97 2.983-2.288 0-1.064-.666-1.735-2.028-2.068l-1.134-.278c-.905-.224-1.312-.527-1.312-1.114 0-.656.696-1.134 1.63-1.134 1.025 0 1.447.567 1.651 1.094l1.054-.298zM291.217 39c-.378-2.088-2.048-3.321-4.096-3.321-2.606 0-4.495 2.008-4.495 5.23 0 3.222 1.889 5.23 4.495 5.23 2.048 0 3.718-1.233 4.096-3.32h-1.233c-.298 1.411-1.511 2.167-2.863 2.167-1.85 0-3.302-1.432-3.302-4.077s1.452-4.077 3.302-4.077c1.352 0 2.565.756 2.863 2.168h1.233zm3.007-3.182h-1.174V46h1.174V35.818zm5.251 10.341c2.068 0 3.46-1.57 3.46-3.937 0-2.387-1.392-3.958-3.46-3.958s-3.46 1.571-3.46 3.958c0 2.366 1.392 3.937 3.46 3.937zm0-1.054c-1.571 0-2.287-1.352-2.287-2.883 0-1.532.716-2.904 2.287-2.904s2.287 1.372 2.287 2.904c0 1.53-.716 2.883-2.287 2.883zm8.572-6.741h-1.63v-1.83h-1.174v1.83h-1.153v.994h1.153v4.773c0 1.332 1.074 1.968 2.068 1.968.438 0 .716-.08.875-.139l-.238-1.054c-.1.02-.259.06-.517.06-.517 0-1.014-.16-1.014-1.154v-4.454h1.63v-.994zm3.103 3.042c0-1.332.85-2.088 2.008-2.088 1.104 0 1.77.696 1.77 1.91V46h1.173v-4.852c0-1.964-1.044-2.884-2.605-2.884-1.203 0-1.889.502-2.247 1.293h-.099v-3.739h-1.174V46h1.174v-4.594zM318.248 46h1.173v-7.636h-1.173V46zm.596-8.91c.458 0 .836-.357.836-.795 0-.437-.378-.795-.836-.795-.457 0-.835.358-.835.795 0 .438.378.796.835.796zm3.899 4.316c0-1.332.826-2.088 1.949-2.088 1.089 0 1.75.711 1.75 1.91V46h1.173v-4.852c0-1.95-1.039-2.884-2.585-2.884-1.153 0-1.869.517-2.227 1.293h-.1v-1.193h-1.133V46h1.173v-4.594zm10.099 7.617c1.829 0 3.301-.836 3.301-2.804v-7.855h-1.134v1.213h-.119c-.258-.398-.736-1.313-2.227-1.313-1.929 0-3.262 1.531-3.262 3.878 0 2.386 1.393 3.739 3.242 3.739 1.491 0 1.969-.875 2.227-1.293h.1v1.551c0 1.273-.895 1.85-2.128 1.85-1.387 0-1.874-.731-2.188-1.154l-.934.657c.477.8 1.417 1.53 3.122 1.53zm-.04-4.196c-1.472 0-2.227-1.114-2.227-2.705 0-1.551.736-2.804 2.227-2.804 1.432 0 2.188 1.154 2.188 2.804 0 1.69-.776 2.705-2.188 2.705zm6.523-9.009h-1.114v.915c0 .736-.358 1.372-.775 1.969l.636.517c.795-.637 1.253-1.69 1.253-2.506v-.895zm2.545 0h-1.113v.915c0 .736-.358 1.372-.776 1.969l.636.517c.796-.637 1.253-1.69 1.253-2.506v-.895z" fill="#343741"/>
    <g filter="url(#Frame_402__filter0_dddd_152:9193)">
      <g opacity=".8" clip-path="url(#Frame_402__clip1_152:9193)">
        <circle cx="44" cy="66.001" r="6" fill="#00BFB3"/>
        <circle opacity=".4" cx="44" cy="66.001" r="14" stroke="#00BFB3" stroke-width="2"/>
        <circle opacity=".15" cx="44" cy="66.001" r="25.5" stroke="#00BFB3"/>
      </g>
      <path d="M44 66.001l12 12H32l12-12z" fill="#fff"/>
      <g clip-path="url(#Frame_402__clip2_152:9193)">
        <path fill="#fff" d="M20.001 78.001h304.998v60H20.001z"/>
        <path d="M38.336 97.274h-2.05L39.3 106h2.378l3.009-8.727H42.64l-2.114 6.63h-.08l-2.11-6.63zM45.702 106h1.815v-6.546h-1.815V106zm.912-7.39c.541 0 .984-.413.984-.92 0-.502-.443-.916-.984-.916-.537 0-.98.413-.98.916 0 .507.443.92.98.92zm5.34 7.518c1.62 0 2.71-.789 2.966-2.003l-1.679-.111c-.183.499-.652.759-1.257.759-.907 0-1.483-.601-1.483-1.577v-.004h4.458v-.499c0-2.224-1.347-3.324-3.077-3.324-1.926 0-3.175 1.368-3.175 3.388 0 2.075 1.232 3.371 3.248 3.371zm-1.453-4.061c.039-.746.605-1.343 1.41-1.343.79 0 1.335.563 1.339 1.343H50.5zM57.388 106h1.917l1.125-4.117h.081L61.636 106h1.922l1.777-6.546h-1.832l-.997 4.373h-.056l-1.074-4.373h-1.802l-1.057 4.398h-.06l-1.014-4.397h-1.837L57.388 106zm13.56.124c.967 0 1.593-.422 1.913-1.032h.05V106h1.722v-4.415c0-1.559-1.32-2.216-2.778-2.216-1.568 0-2.6.75-2.85 1.943l1.678.137c.124-.435.511-.754 1.163-.754.618 0 .972.311.972.848v.025c0 .422-.447.477-1.585.588-1.296.12-2.459.554-2.459 2.016 0 1.295.925 1.952 2.173 1.952zm.52-1.253c-.559 0-.96-.26-.96-.759 0-.511.422-.763 1.062-.852.396-.055 1.044-.149 1.26-.294v.694c0 .687-.566 1.211-1.363 1.211zm6.39-2.655c.003-.844.506-1.338 1.24-1.338.728 0 1.167.477 1.163 1.278V106h1.815v-4.168c0-1.525-.895-2.463-2.259-2.463-.971 0-1.674.478-1.968 1.24h-.077v-1.154h-1.73V106h1.815v-3.784zm8.06 3.891c1.057 0 1.607-.61 1.858-1.155h.077V106h1.79v-8.727h-1.811v3.281h-.055c-.243-.533-.767-1.185-1.863-1.185-1.436 0-2.65 1.117-2.65 3.367 0 2.19 1.163 3.371 2.655 3.371zm.576-1.445c-.89 0-1.376-.793-1.376-1.935 0-1.133.477-1.913 1.376-1.913.882 0 1.376.746 1.376 1.913 0 1.168-.502 1.935-1.376 1.935zm12.865-3.341c-.162-1.206-1.134-1.952-2.787-1.952-1.675 0-2.778.776-2.774 2.037-.004.98.614 1.615 1.892 1.871l1.133.226c.571.115.831.324.84.652-.009.388-.43.665-1.065.665-.648 0-1.079-.277-1.19-.81l-1.785.094c.17 1.253 1.236 2.024 2.97 2.024 1.696 0 2.91-.865 2.915-2.156-.004-.946-.622-1.513-1.892-1.773l-1.185-.239c-.609-.132-.835-.341-.83-.656-.005-.392.438-.648 1-.648.632 0 1.007.345 1.096.767l1.662-.102zm4.275 4.807c1.619 0 2.71-.789 2.966-2.003l-1.679-.111c-.183.499-.652.759-1.257.759-.908 0-1.483-.601-1.483-1.577v-.004h4.457v-.499c0-2.224-1.346-3.324-3.076-3.324-1.926 0-3.175 1.368-3.175 3.388 0 2.075 1.232 3.371 3.247 3.371zm-1.453-4.061c.038-.746.605-1.343 1.411-1.343.788 0 1.333.563 1.338 1.343h-2.749zm7.509 4.057c.967 0 1.593-.422 1.913-1.032h.051V106h1.722v-4.415c0-1.559-1.321-2.216-2.779-2.216-1.568 0-2.599.75-2.851 1.943l1.679.137c.124-.435.512-.754 1.164-.754.618 0 .971.311.971.848v.025c0 .422-.447.477-1.585.588-1.295.12-2.459.554-2.459 2.016 0 1.295.925 1.952 2.174 1.952zm.519-1.253c-.558 0-.958-.26-.958-.759 0-.511.421-.763 1.061-.852.396-.055 1.044-.149 1.261-.294v.694c0 .687-.567 1.211-1.364 1.211zm4.575 1.129h1.815v-3.703c0-.806.588-1.36 1.39-1.36.251 0 .596.043.767.098v-1.61a2.724 2.724 0 00-.571-.064c-.733 0-1.334.426-1.573 1.236h-.068v-1.142h-1.76V106zm7.563.128c1.743 0 2.838-1.023 2.923-2.527h-1.713c-.106.699-.567 1.091-1.189 1.091-.848 0-1.398-.712-1.398-1.965 0-1.236.554-1.943 1.398-1.943.665 0 1.091.439 1.189 1.091h1.713c-.077-1.513-1.223-2.506-2.932-2.506-1.985 0-3.213 1.377-3.213 3.384 0 1.99 1.206 3.375 3.222 3.375zm5.901-3.912c.004-.844.52-1.338 1.261-1.338.737 0 1.172.473 1.168 1.278V106h1.815v-4.168c.004-1.534-.899-2.463-2.263-2.463-.993 0-1.657.469-1.956 1.24h-.076v-3.336h-1.765V106h1.816v-3.784zm10.862 3.891c1.057 0 1.607-.61 1.858-1.155h.077V106h1.789v-8.727h-1.811v3.281h-.055c-.243-.533-.767-1.185-1.862-1.185-1.436 0-2.651 1.117-2.651 3.367 0 2.19 1.164 3.371 2.655 3.371zm.575-1.445c-.89 0-1.376-.793-1.376-1.935 0-1.133.477-1.913 1.376-1.913.882 0 1.377.746 1.377 1.913 0 1.168-.503 1.935-1.377 1.935zm6.508 1.462c.968 0 1.594-.422 1.914-1.032h.051V106h1.722v-4.415c0-1.559-1.321-2.216-2.779-2.216-1.568 0-2.599.75-2.851 1.943l1.679.137c.124-.435.512-.754 1.164-.754.617 0 .971.311.971.848v.025c0 .422-.447.477-1.585.588-1.295.12-2.459.554-2.459 2.016 0 1.295.925 1.952 2.173 1.952zm.52-1.253c-.558 0-.958-.26-.958-.759 0-.511.421-.763 1.061-.852.396-.055 1.044-.149 1.261-.294v.694c0 .687-.567 1.211-1.364 1.211zm8.056-5.416h-1.231v-1.569h-1.815v1.569h-.895v1.363h.895v3.409c-.009 1.283.865 1.918 2.181 1.862.469-.017.802-.11.985-.17l-.286-1.351c-.089.017-.281.06-.451.06-.363 0-.614-.137-.614-.639v-3.171h1.231v-1.364zm3.049 6.669c.968 0 1.594-.422 1.914-1.032h.051V106h1.722v-4.415c0-1.559-1.321-2.216-2.779-2.216-1.568 0-2.599.75-2.851 1.943l1.679.137c.124-.435.512-.754 1.164-.754.617 0 .971.311.971.848v.025c0 .422-.447.477-1.585.588-1.295.12-2.459.554-2.459 2.016 0 1.295.925 1.952 2.173 1.952zm.52-1.253c-.558 0-.958-.26-.958-.759 0-.511.421-.763 1.061-.852.396-.055 1.044-.149 1.261-.294v.694c0 .687-.567 1.211-1.364 1.211z" fill="#69707D"/>
        <path d="M42.41 123.747h2.063c-.03-1.814-1.522-3.067-3.789-3.067-2.232 0-3.868 1.233-3.858 3.082-.005 1.502 1.054 2.362 2.774 2.774l1.11.279c1.108.268 1.724.587 1.73 1.273-.006.745-.712 1.252-1.805 1.252-1.12 0-1.924-.517-1.994-1.536h-2.083c.054 2.203 1.63 3.341 4.101 3.341 2.486 0 3.948-1.188 3.953-3.052-.005-1.696-1.283-2.596-3.053-2.993l-.915-.219c-.884-.204-1.625-.532-1.61-1.263 0-.656.581-1.138 1.635-1.138 1.03 0 1.66.467 1.74 1.267zm5.788 7.398c1.128 0 1.859-.492 2.232-1.203h.06v1.059h2.008v-5.151c0-1.819-1.541-2.585-3.241-2.585-1.83 0-3.033.875-3.326 2.267l1.958.159c.144-.507.597-.88 1.357-.88.721 0 1.134.363 1.134.99v.03c0 .492-.522.556-1.85.686-1.51.139-2.868.646-2.868 2.351 0 1.512 1.079 2.277 2.535 2.277zm.606-1.461c-.651 0-1.119-.304-1.119-.885 0-.597.493-.89 1.238-.995.463-.064 1.218-.174 1.472-.343v.811c0 .8-.661 1.412-1.59 1.412zm12.183-6.319h-2.242l-1.581 5.463h-.08l-1.586-5.463h-2.237l2.67 7.636h2.386l2.67-7.636zm4.304 7.785c1.89 0 3.162-.92 3.46-2.337l-1.959-.129c-.213.582-.76.885-1.466.885-1.059 0-1.73-.701-1.73-1.839v-.005h5.2v-.582c0-2.595-1.57-3.878-3.59-3.878-2.247 0-3.703 1.596-3.703 3.953 0 2.421 1.437 3.932 3.788 3.932zm-1.695-4.738c.045-.87.706-1.566 1.645-1.566.92 0 1.556.656 1.561 1.566h-3.206zm9.396 4.713c1.233 0 1.874-.711 2.168-1.347h.09v1.223h2.087v-10.182h-2.113v3.828h-.064c-.284-.621-.895-1.382-2.173-1.382-1.675 0-3.092 1.303-3.092 3.928 0 2.555 1.357 3.932 3.097 3.932zm.671-1.685c-1.039 0-1.606-.925-1.606-2.257 0-1.323.557-2.232 1.606-2.232 1.03 0 1.606.87 1.606 2.232s-.587 2.257-1.606 2.257zm15.01-3.898c-.19-1.407-1.323-2.277-3.252-2.277-1.954 0-3.241.905-3.236 2.377-.005 1.143.715 1.884 2.207 2.182l1.322.264c.667.134.97.377.98.76-.01.453-.502.776-1.243.776-.756 0-1.258-.323-1.387-.945l-2.083.11c.199 1.461 1.442 2.361 3.465 2.361 1.979 0 3.395-1.009 3.4-2.516-.005-1.103-.725-1.764-2.207-2.068l-1.382-.278c-.71-.154-.974-.398-.97-.766-.004-.457.513-.755 1.169-.755.736 0 1.173.402 1.278.894l1.939-.119zm4.987 5.608c1.89 0 3.162-.92 3.46-2.337l-1.958-.129c-.214.582-.761.885-1.467.885-1.059 0-1.73-.701-1.73-1.839v-.005h5.2v-.582c0-2.595-1.57-3.878-3.59-3.878-2.246 0-3.703 1.596-3.703 3.953 0 2.421 1.437 3.932 3.788 3.932zm-1.695-4.738c.045-.87.706-1.566 1.645-1.566.92 0 1.557.656 1.562 1.566h-3.207zm8.76 4.733c1.128 0 1.859-.492 2.232-1.203h.06v1.059h2.008v-5.151c0-1.819-1.541-2.585-3.241-2.585-1.83 0-3.033.875-3.326 2.267l1.959.159c.144-.507.596-.88 1.357-.88.721 0 1.133.363 1.133.99v.03c0 .492-.522.556-1.849.686-1.511.139-2.869.646-2.869 2.351 0 1.512 1.08 2.277 2.536 2.277zm.606-1.461c-.651 0-1.118-.304-1.118-.885 0-.597.492-.89 1.238-.995.462-.064 1.218-.174 1.471-.343v.811c0 .8-.661 1.412-1.591 1.412zm5.337 1.317h2.118v-4.32c0-.94.686-1.586 1.621-1.586.293 0 .696.049.895.114v-1.879a3.159 3.159 0 00-.666-.075c-.855 0-1.556.497-1.835 1.442h-.079v-1.332h-2.054v7.636zm8.824.149c2.033 0 3.311-1.193 3.41-2.948h-1.998c-.125.815-.662 1.273-1.387 1.273-.99 0-1.631-.831-1.631-2.292 0-1.442.646-2.267 1.631-2.267.775 0 1.272.512 1.387 1.272h1.998c-.089-1.764-1.427-2.923-3.42-2.923-2.317 0-3.749 1.606-3.749 3.948 0 2.321 1.407 3.937 3.759 3.937zm6.884-4.564c.005-.984.607-1.561 1.472-1.561.86 0 1.367.552 1.362 1.492v4.484h2.118v-4.862c.005-1.79-1.049-2.874-2.64-2.874-1.158 0-1.934.547-2.282 1.447h-.09v-3.893h-2.058v10.182h2.118v-4.415zm10.099 4.564c1.889 0 3.162-.92 3.46-2.337l-1.959-.129c-.214.582-.761.885-1.467.885-1.058 0-1.73-.701-1.73-1.839v-.005h5.201v-.582c0-2.595-1.571-3.878-3.59-3.878-2.247 0-3.704 1.596-3.704 3.953 0 2.421 1.437 3.932 3.789 3.932zm-1.696-4.738c.045-.87.706-1.566 1.646-1.566.92 0 1.556.656 1.561 1.566h-3.207zm12.936-.87c-.188-1.407-1.322-2.277-3.251-2.277-1.954 0-3.241.905-3.236 2.377-.005 1.143.715 1.884 2.207 2.182l1.322.264c.667.134.97.377.98.76-.01.453-.502.776-1.243.776-.756 0-1.258-.323-1.387-.945l-2.083.11c.199 1.461 1.441 2.361 3.465 2.361 1.979 0 3.395-1.009 3.4-2.516-.005-1.103-.725-1.764-2.207-2.068l-1.382-.278c-.711-.154-.974-.398-.969-.766-.005-.457.512-.755 1.168-.755.736 0 1.173.402 1.278.894l1.938-.119z" fill="#1A1C21"/>
        <path fill="#fff" d="M20.001 138.001h304.998v80H20.001z"/>
        <g clip-path="url(#Frame_402__clip3_152:9193)">
          <path d="M39.083 171.001h1.273l2.247-8.114h.08l2.247 8.114h1.273l2.784-10.182h-1.253l-2.128 8.293h-.1l-2.167-8.293h-1.392l-2.168 8.293h-.099l-2.128-8.293H36.3l2.784 10.182zm12.817.179c1.333 0 2.029-.716 2.267-1.213h.06v1.034H55.4v-5.031c0-2.426-1.85-2.705-2.824-2.705-1.153 0-2.466.398-3.062 1.79l1.113.398c.259-.557.87-1.154 1.989-1.154 1.079 0 1.61.572 1.61 1.551v.04c0 .567-.576.517-1.968.696-1.417.184-2.963.497-2.963 2.247 0 1.492 1.153 2.347 2.605 2.347zm.18-1.054c-.936 0-1.612-.418-1.612-1.233 0-.895.816-1.173 1.73-1.293.498-.059 1.83-.198 2.029-.437v1.074c0 .954-.756 1.889-2.148 1.889zm6.635-3.719c0-1.332.825-2.088 1.949-2.088 1.089 0 1.75.711 1.75 1.909v4.773h1.173v-4.852c0-1.949-1.039-2.884-2.585-2.884-1.154 0-1.87.517-2.227 1.293h-.1v-1.193h-1.133v7.636h1.173v-4.594zm10.337-3.042h-1.63v-1.83h-1.174v1.83h-1.153v.994h1.153v4.773c0 1.332 1.074 1.968 2.068 1.968.438 0 .716-.079.875-.139l-.238-1.054c-.1.02-.259.06-.517.06-.517 0-1.015-.159-1.015-1.154v-4.454h1.631v-.994zm9.024 0h-1.631v-1.83h-1.173v1.83h-1.154v.994h1.154v4.773c0 1.332 1.073 1.968 2.068 1.968.437 0 .716-.079.875-.139l-.239-1.054c-.1.02-.258.06-.517.06-.517 0-1.014-.159-1.014-1.154v-4.454h1.63v-.994zm4.785 7.795c2.068 0 3.46-1.571 3.46-3.937 0-2.387-1.392-3.958-3.46-3.958-2.069 0-3.46 1.571-3.46 3.958 0 2.366 1.392 3.937 3.46 3.937zm0-1.054c-1.571 0-2.287-1.352-2.287-2.883 0-1.532.716-2.904 2.287-2.904 1.57 0 2.287 1.372 2.287 2.904 0 1.531-.716 2.883-2.287 2.883zm9.188.895h1.174v-4.832c0-1.035.815-1.79 1.929-1.79a3.6 3.6 0 01.716.079v-1.193a11.21 11.21 0 00-.617-.02c-.915 0-1.71.517-1.989 1.273h-.079v-1.153h-1.134v7.636zm8.179.159c1.551 0 2.684-.776 3.042-1.929l-1.133-.318c-.298.795-.99 1.193-1.909 1.193-1.377 0-2.327-.89-2.382-2.525h5.544v-.498c0-2.843-1.691-3.818-3.282-3.818-2.068 0-3.44 1.631-3.44 3.977 0 2.347 1.352 3.918 3.56 3.918zm-2.382-4.594c.08-1.188.92-2.247 2.262-2.247 1.273 0 2.088.955 2.088 2.247h-4.35zm12.141 1.313c0 1.432-1.094 2.088-1.969 2.088-.974 0-1.67-.716-1.67-1.83v-4.772h-1.174v4.852c0 1.949 1.035 2.883 2.466 2.883 1.154 0 1.909-.616 2.267-1.392h.08v1.293h1.173v-7.636h-1.173v4.514zm8.731-2.804c-.368-1.084-1.193-1.81-2.704-1.81-1.611 0-2.804.915-2.804 2.208 0 1.054.626 1.76 2.028 2.088l1.273.298c.771.179 1.133.547 1.133 1.074 0 .656-.696 1.193-1.789 1.193-.96 0-1.561-.413-1.77-1.233l-1.114.278c.274 1.298 1.342 1.989 2.904 1.989 1.774 0 2.983-.969 2.983-2.287 0-1.064-.667-1.735-2.029-2.068l-1.133-.278c-.905-.224-1.313-.527-1.313-1.114 0-.656.696-1.134 1.631-1.134 1.024 0 1.446.567 1.65 1.094l1.054-.298zm5.107 6.085c1.552 0 2.685-.776 3.043-1.929l-1.134-.318c-.298.795-.989 1.193-1.909 1.193-1.377 0-2.326-.89-2.381-2.525h5.543v-.498c0-2.843-1.69-3.818-3.281-3.818-2.068 0-3.44 1.631-3.44 3.977 0 2.347 1.352 3.918 3.559 3.918zm-2.381-4.594c.08-1.188.92-2.247 2.262-2.247 1.273 0 2.088.955 2.088 2.247h-4.35zm14.587-3.201H134.4v-1.83h-1.173v1.83h-1.154v.994h1.154v4.773c0 1.332 1.074 1.968 2.068 1.968.437 0 .716-.079.875-.139l-.239-1.054c-.099.02-.258.06-.517.06-.517 0-1.014-.159-1.014-1.154v-4.454h1.631v-.994zm3.102 3.042c0-1.332.85-2.088 2.008-2.088 1.104 0 1.77.696 1.77 1.909v4.773h1.174v-4.852c0-1.964-1.044-2.884-2.606-2.884-1.203 0-1.889.502-2.247 1.293h-.099v-3.739h-1.173v10.182h1.173v-4.594zm7.098 4.594h1.173v-7.636h-1.173v7.636zm.597-8.909c.457 0 .835-.358.835-.796 0-.437-.378-.795-.835-.795-.458 0-.836.358-.836.795 0 .438.378.796.836.796zm8.134 2.983c-.367-1.084-1.193-1.81-2.704-1.81-1.611 0-2.804.915-2.804 2.208 0 1.054.626 1.76 2.028 2.088l1.273.298c.771.179 1.134.547 1.134 1.074 0 .656-.696 1.193-1.79 1.193-.96 0-1.561-.413-1.77-1.233l-1.114.278c.274 1.298 1.343 1.989 2.904 1.989 1.775 0 2.983-.969 2.983-2.287 0-1.064-.667-1.735-2.029-2.068l-1.133-.278c-.905-.224-1.313-.527-1.313-1.114 0-.656.696-1.134 1.631-1.134 1.024 0 1.447.567 1.65 1.094l1.054-.298zm11.252 0c-.367-1.084-1.193-1.81-2.704-1.81-1.611 0-2.804.915-2.804 2.208 0 1.054.626 1.76 2.028 2.088l1.273.298c.771.179 1.134.547 1.134 1.074 0 .656-.696 1.193-1.79 1.193-.96 0-1.561-.413-1.77-1.233l-1.114.278c.274 1.298 1.343 1.989 2.904 1.989 1.775 0 2.983-.969 2.983-2.287 0-1.064-.667-1.735-2.029-2.068l-1.133-.278c-.905-.224-1.313-.527-1.313-1.114 0-.656.696-1.134 1.631-1.134 1.024 0 1.447.567 1.65 1.094l1.054-.298zm5.107 6.085c1.552 0 2.685-.776 3.043-1.929l-1.133-.318c-.299.795-.99 1.193-1.91 1.193-1.377 0-2.326-.89-2.381-2.525h5.543v-.498c0-2.843-1.69-3.818-3.281-3.818-2.068 0-3.44 1.631-3.44 3.977 0 2.347 1.352 3.918 3.559 3.918zm-2.381-4.594c.08-1.188.92-2.247 2.262-2.247 1.273 0 2.088.955 2.088 2.247h-4.35zm9.575 4.614c1.333 0 2.029-.716 2.267-1.213h.06v1.034h1.173v-5.031c0-2.426-1.849-2.705-2.824-2.705-1.153 0-2.465.398-3.062 1.79l1.114.398c.258-.557.87-1.154 1.988-1.154 1.079 0 1.611.572 1.611 1.551v.04c0 .567-.577.517-1.969.696-1.417.184-2.963.497-2.963 2.247 0 1.492 1.154 2.347 2.605 2.347zm.179-1.054c-.934 0-1.61-.418-1.61-1.233 0-.895.815-1.173 1.73-1.293.497-.059 1.829-.198 2.028-.437v1.074c0 .954-.756 1.889-2.148 1.889zm5.463.875h1.173v-4.832c0-1.035.816-1.79 1.929-1.79.313 0 .637.059.716.079v-1.193c-.134-.01-.442-.02-.616-.02-.915 0-1.711.517-1.989 1.273h-.08v-1.153h-1.133v7.636zm8.079.159c1.69 0 2.804-1.034 3.003-2.386h-1.174c-.218.835-.915 1.332-1.829 1.332-1.392 0-2.287-1.153-2.287-2.923 0-1.73.915-2.864 2.287-2.864 1.034 0 1.65.637 1.829 1.333h1.174c-.199-1.432-1.412-2.387-3.023-2.387-2.068 0-3.441 1.631-3.441 3.958 0 2.286 1.313 3.937 3.461 3.937zm5.891-4.753c0-1.332.85-2.088 2.009-2.088 1.103 0 1.769.696 1.769 1.909v4.773h1.174v-4.852c0-1.964-1.044-2.884-2.605-2.884-1.203 0-1.89.502-2.248 1.293h-.099v-3.739h-1.173v10.182h1.173v-4.594zm11.036 4.594h1.173v-7.636h-1.173v7.636zm.596-8.909c.458 0 .836-.358.836-.796 0-.437-.378-.795-.836-.795-.457 0-.835.358-.835.795 0 .438.378.796.835.796zm3.899 4.315c0-1.332.826-2.088 1.949-2.088 1.089 0 1.75.711 1.75 1.909v4.773h1.173v-4.852c0-1.949-1.039-2.884-2.585-2.884-1.153 0-1.869.517-2.227 1.293h-.099v-1.193h-1.134v7.636h1.173v-4.594zm14.275-3.042h-1.631v-1.83h-1.173v1.83h-1.153v.994h1.153v4.773c0 1.332 1.074 1.968 2.068 1.968.438 0 .716-.079.875-.139l-.238-1.054c-.1.02-.259.06-.518.06-.517 0-1.014-.159-1.014-1.154v-4.454h1.631v-.994zm3.102 3.042c0-1.332.85-2.088 2.009-2.088 1.103 0 1.77.696 1.77 1.909v4.773h1.173v-4.852c0-1.964-1.044-2.884-2.605-2.884-1.203 0-1.889.502-2.247 1.293h-.1v-3.739h-1.173v10.182h1.173v-4.594zm10.3 4.753c1.551 0 2.685-.776 3.043-1.929l-1.134-.318c-.298.795-.989 1.193-1.909 1.193-1.377 0-2.327-.89-2.381-2.525h5.543v-.498c0-2.843-1.69-3.818-3.281-3.818-2.068 0-3.441 1.631-3.441 3.977 0 2.347 1.353 3.918 3.56 3.918zm-2.381-4.594c.079-1.188.919-2.247 2.262-2.247 1.273 0 2.088.955 2.088 2.247h-4.35zm14.666-3.201h-1.71v-.776c0-.756.318-1.153 1.093-1.153.339 0 .537.079.657.119l.338-1.014c-.179-.08-.537-.199-1.114-.199-1.094 0-2.148.656-2.148 1.969v1.054h-1.233v.994h1.233v6.642h1.174v-6.642h1.71v-.994zm6.457 4.514c0 1.432-1.094 2.088-1.969 2.088-.974 0-1.67-.716-1.67-1.83v-4.772h-1.174v4.852c0 1.949 1.034 2.883 2.466 2.883 1.154 0 1.909-.616 2.267-1.392h.08v1.293h1.173v-7.636h-1.173v4.514zm6.643-4.514h-1.631v-1.83h-1.173v1.83h-1.153v.994h1.153v4.773c0 1.332 1.074 1.968 2.068 1.968.438 0 .716-.079.875-.139l-.238-1.054c-.1.02-.259.06-.517.06-.517 0-1.015-.159-1.015-1.154v-4.454h1.631v-.994zm6.577 4.514c0 1.432-1.093 2.088-1.968 2.088-.975 0-1.671-.716-1.671-1.83v-4.772h-1.173v4.852c0 1.949 1.034 2.883 2.466 2.883 1.153 0 1.909-.616 2.267-1.392h.079v1.293h1.174v-7.636h-1.174v4.514zm3.323 3.122h1.173v-4.832c0-1.035.815-1.79 1.929-1.79a3.6 3.6 0 01.716.079v-1.193c-.134-.01-.443-.02-.617-.02-.914 0-1.71.517-1.988 1.273h-.08v-1.153h-1.133v7.636zm8.178.159c1.551 0 2.685-.776 3.043-1.929l-1.134-.318c-.298.795-.989 1.193-1.909 1.193-1.377 0-2.327-.89-2.381-2.525h5.543v-.498c0-2.843-1.69-3.818-3.281-3.818-2.068 0-3.441 1.631-3.441 3.977 0 2.347 1.353 3.918 3.56 3.918zm-2.381-4.594c.079-1.188.919-2.247 2.262-2.247 1.272 0 2.088.955 2.088 2.247h-4.35zm8.859 1.571h1.193v-.059c.02-1.233.338-1.77 1.213-2.317.875-.532 1.392-1.298 1.392-2.396 0-1.552-1.133-2.685-2.883-2.685-1.611 0-2.889.994-2.963 2.685h1.253c.074-1.174.894-1.651 1.71-1.651.934 0 1.69.617 1.69 1.591 0 .79-.452 1.357-1.034 1.71-.974.592-1.556 1.169-1.571 3.063v.059zm.636 2.944a.897.897 0 00.895-.895.897.897 0 00-.895-.895.897.897 0 00-.895.895c0 .492.403.895.895.895zM36.359 184.819l3.679 5.986v4.196h1.233v-4.196l3.679-5.986h-1.412l-2.824 4.753h-.12l-2.823-4.753h-1.412zm12.049 10.341c2.068 0 3.46-1.571 3.46-3.937 0-2.387-1.392-3.958-3.46-3.958-2.069 0-3.46 1.571-3.46 3.958 0 2.366 1.391 3.937 3.46 3.937zm0-1.054c-1.571 0-2.287-1.352-2.287-2.883 0-1.532.716-2.904 2.287-2.904 1.57 0 2.286 1.372 2.286 2.904 0 1.531-.715 2.883-2.286 2.883zm10.063-2.227c0 1.432-1.093 2.088-1.968 2.088-.975 0-1.67-.716-1.67-1.83v-4.772h-1.174v4.852c0 1.949 1.034 2.883 2.466 2.883 1.153 0 1.909-.616 2.267-1.392h.08v1.293h1.173v-7.636H58.47v4.514zm10.362 3.281c1.69 0 2.804-1.034 3.003-2.386h-1.173c-.219.835-.915 1.332-1.83 1.332-1.392 0-2.287-1.153-2.287-2.923 0-1.73.915-2.864 2.287-2.864 1.035 0 1.65.637 1.83 1.333h1.173c-.199-1.432-1.412-2.387-3.022-2.387-2.069 0-3.44 1.631-3.44 3.958 0 2.286 1.312 3.937 3.46 3.937zm6.966.02c1.332 0 2.028-.716 2.267-1.213h.06v1.034h1.173v-5.031c0-2.426-1.85-2.705-2.824-2.705-1.154 0-2.466.398-3.063 1.79l1.114.398c.258-.557.87-1.154 1.989-1.154 1.078 0 1.61.572 1.61 1.551v.04c0 .567-.576.517-1.969.696-1.416.184-2.963.497-2.963 2.247 0 1.492 1.154 2.347 2.606 2.347zm.178-1.054c-.934 0-1.61-.418-1.61-1.233 0-.895.815-1.173 1.73-1.293.497-.059 1.83-.198 2.028-.437v1.074c0 .954-.755 1.889-2.147 1.889zm6.636-3.719c0-1.332.826-2.088 1.95-2.088 1.088 0 1.75.711 1.75 1.909v4.773h1.172v-4.852c0-1.949-1.038-2.884-2.585-2.884-1.153 0-1.869.517-2.227 1.293h-.1v-1.193H81.44v7.636h1.173v-4.594zm16.363-1.332c-.368-1.084-1.193-1.81-2.704-1.81-1.611 0-2.804.915-2.804 2.208 0 1.054.626 1.76 2.028 2.088l1.273.298c.77.179 1.133.547 1.133 1.074 0 .656-.696 1.193-1.79 1.193-.959 0-1.56-.413-1.77-1.233l-1.113.278c.273 1.298 1.342 1.989 2.903 1.989 1.775 0 2.983-.969 2.983-2.287 0-1.064-.666-1.735-2.028-2.068l-1.134-.278c-.904-.224-1.312-.527-1.312-1.114 0-.656.696-1.134 1.63-1.134 1.025 0 1.447.567 1.651 1.094l1.054-.298zm4.153 6.105c1.332 0 2.028-.716 2.267-1.213h.059v1.034h1.174v-5.031c0-2.426-1.85-2.705-2.824-2.705-1.154 0-2.466.398-3.063 1.79l1.114.398c.258-.557.87-1.154 1.989-1.154 1.078 0 1.61.572 1.61 1.551v.04c0 .567-.576.517-1.968.696-1.417.184-2.963.497-2.963 2.247 0 1.492 1.153 2.347 2.605 2.347zm.179-1.054c-.935 0-1.611-.418-1.611-1.233 0-.895.815-1.173 1.73-1.293.497-.059 1.829-.198 2.028-.437v1.074c0 .954-.755 1.889-2.147 1.889zm11.433-6.761h-1.273l-2.108 6.085h-.079l-2.108-6.085H107.9l2.824 7.636h1.193l2.824-7.636zm4.477 7.795c1.551 0 2.685-.776 3.043-1.929l-1.134-.318c-.298.795-.989 1.193-1.909 1.193-1.377 0-2.327-.89-2.381-2.525h5.543v-.498c0-2.843-1.69-3.818-3.281-3.818-2.069 0-3.441 1.631-3.441 3.977 0 2.347 1.353 3.918 3.56 3.918zm-2.381-4.594c.079-1.188.919-2.247 2.262-2.247 1.272 0 2.088.955 2.088 2.247h-4.35zm11.265 4.435h1.173v-7.636h-1.173v7.636zm.597-8.909c.457 0 .835-.358.835-.796 0-.437-.378-.795-.835-.795-.458 0-.835.358-.835.795 0 .438.377.796.835.796zm6.046 1.273h-1.63v-1.83h-1.174v1.83h-1.153v.994h1.153v4.773c0 1.332 1.074 1.968 2.069 1.968.437 0 .716-.079.875-.139l-.239-1.054c-.099.02-.258.06-.517.06-.517 0-1.014-.159-1.014-1.154v-4.454h1.63v-.994zm6.876 3.042c0-1.332.85-2.088 2.009-2.088 1.103 0 1.77.696 1.77 1.909v4.773h1.173v-4.852c0-1.964-1.044-2.884-2.605-2.884-1.203 0-1.889.502-2.247 1.293h-.1v-3.739h-1.173v10.182h1.173v-4.594zm10.3 4.753c1.551 0 2.685-.776 3.043-1.929l-1.134-.318c-.298.795-.989 1.193-1.909 1.193-1.377 0-2.327-.89-2.381-2.525h5.543v-.498c0-2.843-1.69-3.818-3.281-3.818-2.068 0-3.441 1.631-3.441 3.977 0 2.347 1.353 3.918 3.56 3.918zm-2.381-4.594c.079-1.188.919-2.247 2.262-2.247 1.272 0 2.088.955 2.088 2.247h-4.35zm7.328 4.435h1.173v-4.832c0-1.035.815-1.79 1.929-1.79a3.6 3.6 0 01.716.079v-1.193c-.134-.01-.442-.02-.616-.02-.915 0-1.711.517-1.989 1.273h-.08v-1.153h-1.133v7.636zm8.178.159c1.551 0 2.685-.776 3.043-1.929l-1.134-.318c-.298.795-.989 1.193-1.909 1.193-1.377 0-2.327-.89-2.381-2.525h5.543v-.498c0-2.843-1.69-3.818-3.281-3.818-2.068 0-3.441 1.631-3.441 3.977 0 2.347 1.353 3.918 3.56 3.918zm-2.381-4.594c.079-1.188.919-2.247 2.262-2.247 1.272 0 2.088.955 2.088 2.247h-4.35zm8.183 4.515a.898.898 0 00.895-.895.897.897 0 00-.895-.895.897.897 0 00-.895.895c0 .492.403.895.895.895z" fill="#343741"/>
        </g>
        <g filter="url(#Frame_402__filter1_i_152:9193)">
          <path fill="#F5F7FA" d="M20.001 218.001h304.998v56H20.001z"/>
          <g clip-path="url(#Frame_402__clip4_152:9193)">
            <path d="M44.001 250.001a4 4 0 100-8 4 4 0 000 8z" fill="#69707D"/>
            <path d="M60.001 250.001a4 4 0 100-8 4 4 0 000 8z" fill="#00BFB3"/>
            <path d="M76.001 250.001a4 4 0 100-8 4 4 0 000 8zm16 0a4 4 0 100-8 4 4 0 000 8z" fill="#69707D"/>
          </g>
          <g clip-path="url(#Frame_402__clip5_152:9193)">
            <path d="M255.723 243.994h1.481c-.045-1.631-1.486-2.814-3.555-2.814-2.043 0-3.609 1.168-3.609 2.923 0 1.417 1.014 2.247 2.65 2.69l1.203.328c1.089.288 1.929.646 1.929 1.551 0 .994-.95 1.651-2.257 1.651-1.183 0-2.168-.527-2.257-1.636h-1.541c.099 1.845 1.526 2.983 3.808 2.983 2.391 0 3.768-1.258 3.768-2.983 0-1.834-1.635-2.545-2.928-2.864l-.994-.258c-.796-.204-1.855-.577-1.85-1.551 0-.865.791-1.507 2.044-1.507 1.168 0 1.998.547 2.108 1.487zm3.337 7.507h1.486v-2.71l.741-.74 2.595 3.45h1.825l-3.301-4.36 3.092-3.276h-1.78l-3.042 3.231h-.13v-5.777h-1.486v10.182zm7.793 0h1.486v-7.636h-1.486v7.636zm.75-8.815c.513 0 .94-.397.94-.885 0-.487-.427-.89-.94-.89-.517 0-.939.403-.939.89 0 .488.422.885.939.885zm2.736 11.679h1.487v-4.052h.089c.269.487.815 1.337 2.207 1.337 1.85 0 3.192-1.481 3.192-3.952 0-2.476-1.362-3.933-3.206-3.933-1.417 0-1.929.865-2.193 1.338h-.124v-1.238h-1.452v10.5zm1.457-6.682c0-1.596.696-2.655 1.993-2.655 1.348 0 2.024 1.138 2.024 2.655 0 1.531-.696 2.699-2.024 2.699-1.277 0-1.993-1.093-1.993-2.699zm14.453-3.818h-1.566v-1.83h-1.486v1.83h-1.119v1.193h1.119v4.509c-.005 1.387 1.054 2.058 2.227 2.033.472-.005.791-.094.965-.159l-.269-1.228c-.099.02-.283.065-.522.065-.482 0-.915-.159-.915-1.019v-4.201h1.566v-1.193zm4.779 7.79c2.153 0 3.56-1.576 3.56-3.937 0-2.377-1.407-3.953-3.56-3.953-2.152 0-3.559 1.576-3.559 3.953 0 2.361 1.407 3.937 3.559 3.937zm.005-1.248c-1.407 0-2.063-1.228-2.063-2.694 0-1.462.656-2.705 2.063-2.705 1.397 0 2.054 1.243 2.054 2.705 0 1.466-.657 2.694-2.054 2.694zm10.052-2.073c.005 1.298-.96 1.914-1.795 1.914-.92 0-1.556-.666-1.556-1.705v-4.678h-1.487v4.857c0 1.894 1.039 2.878 2.506 2.878 1.148 0 1.929-.606 2.282-1.421h.079v1.322h1.462v-7.636h-1.491v4.469zm3.488 3.167h1.487v-4.663c0-1 .771-1.721 1.825-1.721.308 0 .656.055.775.09v-1.422a5.992 5.992 0 00-.631-.035c-.895 0-1.661.507-1.939 1.328h-.08v-1.213h-1.437v7.636z" fill="#343741"/>
          </g>
        </g>
      </g>
    </g>
  </g>
  <defs>
    <clipPath id="Frame_402__clip0_152:9193">
      <path fill="#fff" d="M0 0h446v303H0z"/>
    </clipPath>
    <clipPath id="Frame_402__clip1_152:9193">
      <path fill="#fff" transform="translate(18 40.001)" d="M0 0h52v38H0z"/>
    </clipPath>
    <clipPath id="Frame_402__clip2_152:9193">
      <rect x="20.001" y="78.001" width="304.998" height="196" rx="6" fill="#fff"/>
    </clipPath>
    <clipPath id="Frame_402__clip3_152:9193">
      <path fill="#fff" transform="translate(36.001 154.001)" d="M0 0h272.998v48H0z"/>
    </clipPath>
    <clipPath id="Frame_402__clip4_152:9193">
      <path fill="#fff" transform="translate(36.001 238.001)" d="M0 0h64v16H0z"/>
    </clipPath>
    <clipPath id="Frame_402__clip5_152:9193">
      <path d="M248.999 236.001a6 6 0 016-6h48a6 6 0 016 6v20a6 6 0 01-6 6h-48a6 6 0 01-6-6v-20z" fill="#fff"/>
    </clipPath>
    <filter id="Frame_402__filter0_dddd_152:9193" x="-17" y="25.401" width="377" height="325.599" filterUnits="userSpaceOnUse" color-interpolation-filters="sRGB">
      <feFlood flood-opacity="0" result="BackgroundImageFix"/>
      <feColorMatrix in="SourceAlpha" values="0 0 0 0 0 0 0 0 0 0 0 0 0 0 0 0 0 0 127 0" result="hardAlpha"/>
      <feOffset dy="23"/>
      <feGaussianBlur stdDeviation="17.5"/>
      <feColorMatrix values="0 0 0 0 0 0 0 0 0 0 0 0 0 0 0 0 0 0 0.05 0"/>
      <feBlend in2="BackgroundImageFix" result="effect1_dropShadow_152:9193"/>
      <feColorMatrix in="SourceAlpha" values="0 0 0 0 0 0 0 0 0 0 0 0 0 0 0 0 0 0 127 0" result="hardAlpha"/>
      <feOffset dy="8.4"/>
      <feGaussianBlur stdDeviation="11.5"/>
      <feColorMatrix values="0 0 0 0 0 0 0 0 0 0 0 0 0 0 0 0 0 0 0.06 0"/>
      <feBlend in2="effect1_dropShadow_152:9193" result="effect2_dropShadow_152:9193"/>
      <feColorMatrix in="SourceAlpha" values="0 0 0 0 0 0 0 0 0 0 0 0 0 0 0 0 0 0 127 0" result="hardAlpha"/>
      <feOffset dy="3.6"/>
      <feGaussianBlur stdDeviation="6.5"/>
      <feColorMatrix values="0 0 0 0 0 0 0 0 0 0 0 0 0 0 0 0 0 0 0.07 0"/>
      <feBlend in2="effect2_dropShadow_152:9193" result="effect3_dropShadow_152:9193"/>
      <feColorMatrix in="SourceAlpha" values="0 0 0 0 0 0 0 0 0 0 0 0 0 0 0 0 0 0 127 0" result="hardAlpha"/>
      <feOffset dy="1"/>
      <feGaussianBlur stdDeviation="2.5"/>
      <feColorMatrix values="0 0 0 0 0 0 0 0 0 0 0 0 0 0 0 0 0 0 0.1 0"/>
      <feBlend in2="effect3_dropShadow_152:9193" result="effect4_dropShadow_152:9193"/>
      <feBlend in="SourceGraphic" in2="effect4_dropShadow_152:9193" result="shape"/>
    </filter>
    <filter id="Frame_402__filter1_i_152:9193" x="20.001" y="218.001" width="304.998" height="56" filterUnits="userSpaceOnUse" color-interpolation-filters="sRGB">
      <feFlood flood-opacity="0" result="BackgroundImageFix"/>
      <feBlend in="SourceGraphic" in2="BackgroundImageFix" result="shape"/>
      <feColorMatrix in="SourceAlpha" values="0 0 0 0 0 0 0 0 0 0 0 0 0 0 0 0 0 0 127 0" result="hardAlpha"/>
      <feOffset dy="1"/>
      <feComposite in2="hardAlpha" operator="arithmetic" k2="-1" k3="1"/>
      <feColorMatrix values="0 0 0 0 0.827451 0 0 0 0 0.854902 0 0 0 0 0.901961 0 0 0 1 0"/>
      <feBlend in2="shape" result="effect1_innerShadow_152:9193"/>
    </filter>
  </defs>
</svg>
