<svg xmlns="http://www.w3.org/2000/svg" width="408" height="222" fill="none" viewBox="0 0 408 222">
  <g filter="url(#filter0_dddd_168:11203)">
    <rect width="360" height="163" x="24" y="12" fill="#fff" rx="4"/>
    <rect width="359" height="162" x="24.5" y="12.5" stroke="#D3DAE6" rx="3.5"/>
  </g>
  <path fill="#D3DAE6" d="M396 36l-12 12V24l12 12z"/>
  <path fill="#fff" d="M394.6 36l-12 12V24l12 12z"/>
  <g>
    <rect width="359" height="198.091" x="24.5" y="12.5" fill="#fff" stroke="#D3DAE6" rx="3.5"/>
    <path fill="#F5F7FA" stroke="#D3DAE6" d="M24.5 155.5h359V207a3.5 3.5 0 01-3.5 3.5H28a3.5 3.5 0 01-3.5-3.5v-51.5z"/>
    <path fill="#343741" d="M321.493 180.783h1.768c-.025-1.556-1.304-2.63-3.247-2.63-1.913 0-3.315 1.057-3.307 2.642-.004 1.287.904 2.025 2.378 2.378l.951.239c.95.23 1.478.503 1.482 1.091-.004.639-.609 1.074-1.546 1.074-.959 0-1.65-.443-1.709-1.317h-1.786c.047 1.888 1.398 2.864 3.516 2.864 2.131 0 3.383-1.019 3.388-2.617-.005-1.453-1.1-2.224-2.617-2.565l-.784-.188c-.758-.174-1.393-.456-1.381-1.082 0-.563.499-.976 1.402-.976.883 0 1.424.401 1.492 1.087zm3.095 6.217h1.815v-2.08l.49-.558 1.786 2.638h2.126l-2.553-3.712 2.429-2.833h-2.083l-2.097 2.484h-.098v-4.666h-1.815V187zm6.984 0h1.815v-6.545h-1.815V187zm.912-7.389c.541 0 .984-.414.984-.921 0-.502-.443-.916-.984-.916-.537 0-.98.414-.98.916 0 .507.443.921.98.921zm2.358 9.844h1.815v-3.503h.055c.252.545.801 1.155 1.858 1.155 1.492 0 2.655-1.181 2.655-3.371 0-2.25-1.214-3.367-2.65-3.367-1.096 0-1.62.652-1.863 1.185h-.081v-1.099h-1.789v9zm1.777-5.728c0-1.167.494-1.913 1.376-1.913.899 0 1.376.78 1.376 1.913 0 1.142-.485 1.935-1.376 1.935-.874 0-1.376-.767-1.376-1.935zm12.075-3.272h-1.231v-1.569h-1.816v1.569h-.895v1.363h.895v3.409c-.008 1.283.865 1.918 2.182 1.862a3.53 3.53 0 00.985-.17l-.286-1.351c-.089.017-.281.06-.452.06-.362 0-.613-.137-.613-.639v-3.171h1.231v-1.363zm4.07 6.673c1.986 0 3.221-1.36 3.221-3.375 0-2.029-1.235-3.384-3.221-3.384s-3.222 1.355-3.222 3.384c0 2.015 1.236 3.375 3.222 3.375zm.008-1.406c-.916 0-1.385-.84-1.385-1.982s.469-1.986 1.385-1.986c.9 0 1.368.844 1.368 1.986s-.468 1.982-1.368 1.982zm8.591-1.509c.005.878-.596 1.338-1.248 1.338-.686 0-1.13-.481-1.134-1.253v-3.843h-1.815v4.167c.004 1.53.899 2.463 2.216 2.463.984 0 1.692-.507 1.986-1.274h.068V187h1.743v-6.545h-1.816v3.758zm3.268 2.787h1.815v-3.703c0-.806.588-1.359 1.389-1.359.252 0 .597.042.767.098v-1.611a2.684 2.684 0 00-.571-.064c-.733 0-1.334.426-1.572 1.236h-.068v-1.142h-1.76V187z"/>
    <path fill="#69707D" d="M48 187a4 4 0 100-8 4 4 0 000 8z"/>
    <path fill="#017D73" d="M64 187a4 4 0 100-8 4 4 0 000 8z"/>
    <path fill="#6A717D" d="M80 187a4 4 0 100-8 4 4 0 000 8z"/>
    <g>
      <path fill="#6A717D" d="M42.028 30.273h-1.734L43.367 39h1.951l3.077-8.727h-1.739l-2.267 6.869h-.09l-2.27-6.87zM49.476 39h1.543v-6.545h-1.543V39zm.776-7.474c.49 0 .89-.375.89-.836 0-.464-.4-.84-.89-.84-.495 0-.895.376-.895.84 0 .46.4.836.895.836zm5.25 7.602c1.526 0 2.575-.746 2.847-1.884l-1.44-.162c-.209.554-.72.844-1.385.844-.997 0-1.657-.656-1.67-1.777h4.56v-.473c0-2.297-1.381-3.307-2.992-3.307-1.875 0-3.098 1.377-3.098 3.397 0 2.054 1.206 3.362 3.179 3.362zm-1.644-4.019c.047-.835.665-1.538 1.585-1.538.887 0 1.483.648 1.492 1.538h-3.077zM61.034 39h1.61l1.228-4.423h.09L65.189 39h1.607l1.853-6.545h-1.577L65.94 37.03h-.064l-1.176-4.576h-1.555l-1.177 4.602h-.06l-1.15-4.602h-1.572L61.035 39zm13.552.132c1.027 0 1.64-.481 1.922-1.031h.051V39h1.483v-4.38c0-1.73-1.41-2.25-2.659-2.25-1.376 0-2.433.613-2.774 1.806l1.44.205c.154-.448.588-.831 1.343-.831.716 0 1.108.366 1.108 1.01v.025c0 .443-.465.465-1.62.588-1.27.137-2.484.516-2.484 1.99 0 1.287.942 1.97 2.19 1.97zm.4-1.133c-.643 0-1.103-.294-1.103-.861 0-.593.516-.84 1.206-.938.405-.055 1.215-.157 1.415-.32v.772c0 .729-.588 1.347-1.517 1.347zm6.15-2.834c0-.946.571-1.492 1.385-1.492.797 0 1.274.524 1.274 1.398V39h1.543v-4.168c.004-1.568-.89-2.463-2.242-2.463-.98 0-1.653.47-1.952 1.198h-.076v-1.112h-1.475V39h1.543v-3.835zm8.199 3.95c1.125 0 1.632-.669 1.875-1.146h.094V39h1.517v-8.727h-1.547v3.264h-.064c-.234-.473-.716-1.168-1.87-1.168-1.514 0-2.703 1.185-2.703 3.367 0 2.156 1.155 3.38 2.698 3.38zm.43-1.266c-1.018 0-1.555-.894-1.555-2.122 0-1.218.528-2.092 1.555-2.092.993 0 1.539.822 1.539 2.092s-.554 2.122-1.539 2.122zm12.849-3.664c-.213-1.108-1.099-1.816-2.633-1.816-1.577 0-2.65.776-2.646 1.986-.005.955.583 1.585 1.84 1.845l1.117.235c.601.132.882.375.882.745 0 .448-.486.785-1.219.785-.707 0-1.167-.307-1.3-.895l-1.504.145c.192 1.201 1.202 1.913 2.809 1.913 1.636 0 2.791-.848 2.795-2.088-.004-.934-.605-1.505-1.841-1.773l-1.116-.239c-.665-.149-.93-.379-.925-.758-.004-.443.486-.75 1.129-.75.712 0 1.087.388 1.206.818l1.406-.153zm4.311 4.943c1.525 0 2.574-.746 2.846-1.884l-1.44-.162c-.209.554-.72.844-1.385.844-.997 0-1.658-.656-1.67-1.777h4.559v-.473c0-2.297-1.38-3.307-2.991-3.307-1.875 0-3.098 1.377-3.098 3.397 0 2.054 1.206 3.362 3.179 3.362zm-1.645-4.019c.047-.835.665-1.538 1.585-1.538.886 0 1.483.648 1.492 1.538h-3.077zm7.744 4.023c1.027 0 1.64-.481 1.922-1.031h.051V39h1.483v-4.38c0-1.73-1.411-2.25-2.659-2.25-1.377 0-2.434.613-2.774 1.806l1.44.205c.153-.448.588-.831 1.342-.831.716 0 1.108.366 1.108 1.01v.025c0 .443-.464.465-1.619.588-1.27.137-2.485.516-2.485 1.99 0 1.287.942 1.97 2.191 1.97zm.4-1.133c-.643 0-1.103-.294-1.103-.861 0-.593.515-.84 1.206-.938.404-.055 1.214-.157 1.414-.32v.772c0 .729-.588 1.347-1.517 1.347zM118.031 39h1.543v-3.848c0-.831.626-1.419 1.474-1.419.26 0 .584.047.716.09v-1.42a3.709 3.709 0 00-.554-.042c-.75 0-1.377.426-1.615 1.184h-.068v-1.09h-1.496V39zm7.343.128c1.645 0 2.693-.976 2.804-2.365h-1.474c-.132.703-.639 1.108-1.317 1.108-.963 0-1.585-.806-1.585-2.144 0-1.32.635-2.113 1.585-2.113.742 0 1.198.477 1.317 1.108h1.474c-.106-1.42-1.214-2.353-2.812-2.353-1.918 0-3.128 1.385-3.128 3.384 0 1.981 1.18 3.375 3.136 3.375zm5.614-3.963c0-.946.588-1.492 1.414-1.492.81 0 1.287.516 1.287 1.398V39h1.543v-4.168c0-1.58-.895-2.463-2.254-2.463-1.006 0-1.645.456-1.948 1.198h-.077v-3.294h-1.508V39h1.543v-3.835zm11.222 3.95c1.125 0 1.632-.669 1.875-1.146h.094V39h1.517v-8.727h-1.547v3.264h-.064c-.235-.473-.716-1.168-1.871-1.168-1.513 0-2.702 1.185-2.702 3.367 0 2.156 1.155 3.38 2.698 3.38zm.43-1.266c-1.018 0-1.555-.894-1.555-2.122 0-1.218.528-2.092 1.555-2.092.993 0 1.539.822 1.539 2.092s-.554 2.122-1.539 2.122zm6.583 1.283c1.027 0 1.641-.481 1.922-1.031h.051V39h1.483v-4.38c0-1.73-1.411-2.25-2.659-2.25-1.377 0-2.433.613-2.774 1.806l1.44.205c.153-.448.588-.831 1.342-.831.716 0 1.108.366 1.108 1.01v.025c0 .443-.464.465-1.619.588-1.27.137-2.484.516-2.484 1.99 0 1.287.941 1.97 2.19 1.97zm.401-1.133c-.644 0-1.104-.294-1.104-.861 0-.593.516-.84 1.206-.938.405-.055 1.214-.157 1.415-.32v.772c0 .729-.588 1.347-1.517 1.347zm7.875-5.544h-1.292v-1.569h-1.542v1.569h-.929v1.193h.929v3.639c-.009 1.232.886 1.837 2.045 1.803.439-.013.742-.099.908-.154l-.26-1.206c-.085.021-.26.06-.452.06-.388 0-.699-.137-.699-.759v-3.383h1.292v-1.194zm3.173 6.677c1.027 0 1.641-.481 1.922-1.031h.051V39h1.483v-4.38c0-1.73-1.41-2.25-2.659-2.25-1.376 0-2.433.613-2.774 1.806l1.44.205c.154-.448.588-.831 1.343-.831.716 0 1.108.366 1.108 1.01v.025c0 .443-.465.465-1.62.588-1.27.137-2.484.516-2.484 1.99 0 1.287.942 1.97 2.19 1.97zm.401-1.133c-.644 0-1.104-.294-1.104-.861 0-.593.516-.84 1.206-.938.405-.055 1.215-.157 1.415-.32v.772c0 .729-.588 1.347-1.517 1.347z"/>
      <path fill="#1A1C21" d="M42.64 62l.756-2.322h3.674L47.825 62h2.307l-3.51-10.182h-2.774L40.333 62h2.307zm1.303-4.002l1.252-3.853h.08l1.253 3.853h-2.585zm9.753 4.126c1.233 0 1.875-.71 2.168-1.347h.09V62h2.087V51.818H55.93v3.828h-.065c-.283-.621-.895-1.382-2.173-1.382-1.675 0-3.092 1.303-3.092 3.928 0 2.555 1.357 3.932 3.097 3.932zm.671-1.685c-1.039 0-1.605-.925-1.605-2.257 0-1.323.556-2.232 1.605-2.232 1.03 0 1.606.87 1.606 2.232s-.586 2.257-1.606 2.257zm5.336-6.075v7.979c0 .577-.244.865-.925.865-.09 0-.169 0-.278-.01v1.656c.154.005.278.01.427.01 1.8 0 2.894-.716 2.894-2.486v-8.014h-2.118zm1.054-.985c.631 0 1.148-.482 1.148-1.074 0-.586-.517-1.069-1.148-1.069-.627 0-1.144.483-1.144 1.07 0 .591.517 1.073 1.144 1.073zm7.577 5.37c.005 1.024-.696 1.56-1.457 1.56-.8 0-1.317-.561-1.322-1.461v-4.484h-2.118v4.862c.005 1.785 1.05 2.873 2.585 2.873 1.149 0 1.974-.591 2.317-1.486h.08V62h2.033v-7.636h-2.118v4.385zM78.42 56.54c-.189-1.407-1.323-2.277-3.252-2.277-1.953 0-3.241.905-3.236 2.377-.005 1.143.716 1.884 2.207 2.182l1.323.264c.666.134.97.377.98.76-.01.453-.503.776-1.244.776-.755 0-1.257-.323-1.387-.945l-2.083.11c.199 1.461 1.442 2.361 3.465 2.361 1.979 0 3.396-1.01 3.4-2.516-.004-1.103-.725-1.764-2.207-2.068l-1.382-.278c-.71-.154-.974-.398-.97-.766-.004-.457.513-.755 1.17-.755.735 0 1.173.402 1.277.895l1.939-.12zm5.49-2.177h-1.438v-1.83h-2.117v1.83H79.31v1.59h1.044v3.978c-.01 1.496 1.009 2.237 2.545 2.172a4.12 4.12 0 001.148-.198l-.333-1.576c-.104.02-.328.07-.527.07-.422 0-.716-.16-.716-.747v-3.698h1.437v-1.591zm8.52 0h-1.436v-1.83h-2.118v1.83h-1.044v1.59h1.044v3.978c-.01 1.496 1.01 2.237 2.546 2.172.547-.02.934-.129 1.148-.198l-.333-1.576c-.104.02-.328.07-.527.07-.422 0-.716-.16-.716-.747v-3.698h1.437v-1.591zm3.582 3.221c.005-.984.607-1.56 1.472-1.56.86 0 1.367.551 1.362 1.49V62h2.118v-4.862c.005-1.79-1.049-2.874-2.64-2.874-1.158 0-1.934.547-2.282 1.447h-.09v-3.893h-2.057V62h2.118v-4.415zm10.019 4.564c1.889 0 3.162-.92 3.46-2.337l-1.959-.129c-.213.582-.76.885-1.466.885-1.059 0-1.73-.7-1.73-1.84v-.004h5.2v-.582c0-2.595-1.571-3.878-3.589-3.878-2.248 0-3.704 1.596-3.704 3.953 0 2.42 1.437 3.932 3.788 3.932zm-1.695-4.738c.044-.87.706-1.566 1.645-1.566.92 0 1.556.656 1.561 1.566h-3.206zm13.724-3.047h-1.437v-1.83h-2.118v1.83h-1.044v1.59h1.044v3.978c-.009 1.496 1.01 2.237 2.546 2.172.547-.02.935-.129 1.148-.198l-.333-1.576c-.104.02-.328.07-.527.07-.422 0-.716-.16-.716-.747v-3.698h1.437v-1.591zm1.3 7.636h2.118v-7.636h-2.118V62zm1.064-8.62c.631 0 1.148-.483 1.148-1.075 0-.586-.517-1.069-1.148-1.069-.627 0-1.144.483-1.144 1.07 0 .591.517 1.073 1.144 1.073zm2.67 8.62h2.118v-4.584c0-.845.537-1.407 1.243-1.407.696 0 1.163.477 1.163 1.228V62h2.054v-4.663c0-.79.452-1.328 1.223-1.328.676 0 1.183.423 1.183 1.273V62h2.113v-5.136c0-1.655-.985-2.6-2.406-2.6-1.119 0-1.989.572-2.302 1.447h-.08c-.243-.885-1.024-1.447-2.073-1.447-1.029 0-1.81.547-2.128 1.447h-.089v-1.347h-2.019V62zm16.17.15c1.889 0 3.162-.92 3.46-2.337l-1.959-.13c-.213.582-.76.885-1.466.885-1.059 0-1.73-.7-1.73-1.84v-.004h5.2v-.582c0-2.595-1.571-3.878-3.59-3.878-2.247 0-3.703 1.596-3.703 3.953 0 2.42 1.436 3.932 3.788 3.932zm-1.695-4.739c.044-.87.706-1.566 1.645-1.566.92 0 1.556.656 1.561 1.566h-3.206zM147.231 62h2.118v-4.32c0-.94.686-1.586 1.621-1.586.293 0 .696.05.895.114v-1.88a3.186 3.186 0 00-.666-.074c-.856 0-1.557.497-1.835 1.442h-.08v-1.332h-2.053V62zm7.608.144c1.128 0 1.859-.492 2.232-1.203h.059V62h2.009v-5.15c0-1.82-1.541-2.586-3.242-2.586-1.829 0-3.032.875-3.326 2.267l1.959.16c.144-.508.597-.88 1.358-.88.72 0 1.133.362 1.133.989v.03c0 .492-.522.556-1.849.686-1.512.139-2.869.646-2.869 2.351 0 1.512 1.079 2.277 2.536 2.277zm.606-1.462c-.651 0-1.119-.303-1.119-.884 0-.597.493-.89 1.238-.995.463-.064 1.218-.174 1.472-.343v.81c0 .801-.661 1.412-1.591 1.412zm7.375-3.097c.005-.984.592-1.56 1.447-1.56.85 0 1.362.556 1.357 1.49V62h2.118v-4.862c0-1.78-1.044-2.874-2.635-2.874-1.134 0-1.954.557-2.297 1.447h-.089v-1.347h-2.019V62h2.118v-4.415zm9.951 7.438c2.183 0 3.734-.995 3.734-2.948v-7.711h-2.103v1.282h-.079c-.284-.621-.905-1.382-2.183-1.382-1.675 0-3.092 1.303-3.092 3.903 0 2.54 1.377 3.724 3.097 3.724 1.218 0 1.899-.612 2.178-1.243h.089v1.397c0 1.049-.671 1.456-1.591 1.456-.935 0-1.407-.407-1.581-.87l-1.959.264c.254 1.203 1.432 2.128 3.49 2.128zm.045-4.723c-1.039 0-1.606-.826-1.606-2.143 0-1.298.557-2.207 1.606-2.207 1.029 0 1.606.87 1.606 2.207 0 1.347-.587 2.143-1.606 2.143zm8.775 1.85c1.889 0 3.161-.92 3.46-2.337l-1.959-.13c-.214.582-.761.885-1.467.885-1.059 0-1.73-.7-1.73-1.84v-.004h5.2v-.582c0-2.595-1.571-3.878-3.589-3.878-2.247 0-3.704 1.596-3.704 3.953 0 2.42 1.437 3.932 3.789 3.932zm-1.696-4.739c.045-.87.706-1.566 1.646-1.566.92 0 1.556.656 1.561 1.566h-3.207z"/>
      <path fill="#343741" d="M41.886 91.364H40.41L44.682 103h1.454l4.273-11.636h-1.477l-3.455 9.795h-.136l-3.455-9.795zM51.96 103h1.34v-8.727h-1.34V103zm.682-10.182c.522 0 .954-.409.954-.909S53.164 91 52.642 91c-.523 0-.955.41-.955.91s.432.908.955.908zm6.694 10.364c1.773 0 3.068-.887 3.477-2.205l-1.295-.363c-.341.909-1.131 1.363-2.182 1.363-1.574 0-2.66-1.017-2.722-2.886h6.335v-.568c0-3.25-1.931-4.364-3.75-4.364-2.363 0-3.931 1.864-3.931 4.545 0 2.682 1.545 4.478 4.068 4.478zm-2.722-5.25c.091-1.358 1.051-2.568 2.585-2.568 1.455 0 2.387 1.09 2.387 2.568h-4.972zM66.886 103h1.319l1.909-6.704h.136L72.16 103h1.317l2.66-8.727h-1.41l-1.886 6.659h-.09l-1.842-6.66h-1.432l-1.863 6.683h-.091l-1.887-6.682h-1.409l2.66 8.727zm16.704-5.25c0-1.523.972-2.386 2.295-2.386 1.262 0 2.023.795 2.023 2.181V103h1.341v-5.546c0-2.244-1.193-3.295-2.977-3.295-1.375 0-2.16.574-2.568 1.477h-.114v-4.272h-1.34V103h1.34v-5.25zm8.032 5.25h1.341v-8.727h-1.34V103zm.682-10.182c.523 0 .955-.409.955-.909S92.827 91 92.304 91c-.523 0-.954.41-.954.91s.431.908.954.908zm6.83 1.455h-1.863v-2.091h-1.34v2.09h-1.32v1.137h1.32v5.455c0 1.522 1.226 2.25 2.363 2.25.5 0 .818-.091 1-.159l-.273-1.205c-.114.023-.296.068-.59.068-.592 0-1.16-.182-1.16-1.318v-5.09h1.864v-1.137zm7.963 1.954c-.42-1.238-1.363-2.068-3.091-2.068-1.841 0-3.204 1.045-3.204 2.523 0 1.204.716 2.011 2.318 2.386l1.454.341c.881.205 1.296.625 1.296 1.227 0 .75-.796 1.364-2.046 1.364-1.096 0-1.784-.472-2.022-1.409l-1.273.318c.313 1.483 1.534 2.273 3.318 2.273 2.029 0 3.409-1.108 3.409-2.614 0-1.216-.761-1.983-2.318-2.364l-1.295-.318c-1.034-.255-1.5-.602-1.5-1.272 0-.75.795-1.296 1.863-1.296 1.171 0 1.654.648 1.887 1.25l1.204-.34zm10.404-1.954h-1.954v-.887c0-.863.363-1.318 1.25-1.318.386 0 .613.091.75.136l.386-1.158c-.205-.092-.614-.228-1.273-.228-1.25 0-2.454.75-2.454 2.25v1.205h-1.409v1.136h1.409V103h1.341v-7.59h1.954v-1.137zm4.985 8.909c2.364 0 3.955-1.796 3.955-4.5 0-2.728-1.591-4.523-3.955-4.523-2.363 0-3.954 1.795-3.954 4.523 0 2.704 1.591 4.5 3.954 4.5zm0-1.205c-1.795 0-2.613-1.545-2.613-3.295s.818-3.318 2.613-3.318c1.796 0 2.614 1.568 2.614 3.318s-.818 3.295-2.614 3.295zm5.922 1.023h1.341v-5.523c0-1.181.932-2.045 2.204-2.045.358 0 .728.068.819.09V94.16a12.887 12.887 0 00-.705-.023c-1.045 0-1.955.591-2.273 1.455h-.091v-1.318h-1.295V103zm12.861.205c1.523 0 2.318-.819 2.591-1.387h.068V103h1.341v-5.75c0-2.773-2.113-3.09-3.227-3.09-1.318 0-2.818.454-3.5 2.044l1.273.455c.295-.636.994-1.318 2.272-1.318 1.233 0 1.841.653 1.841 1.773v.045c0 .648-.659.591-2.25.795-1.619.21-3.386.569-3.386 2.569 0 1.704 1.318 2.682 2.977 2.682zm.205-1.205c-1.068 0-1.841-.477-1.841-1.409 0-1.023.932-1.341 1.977-1.477.568-.069 2.091-.228 2.318-.5v1.227c0 1.091-.863 2.159-2.454 2.159zm10.583 4.273h1.341v-4.614h.113c.296.477.864 1.523 2.546 1.523 2.181 0 3.704-1.75 3.704-4.523 0-2.75-1.523-4.5-3.727-4.5-1.705 0-2.227 1.045-2.523 1.5h-.159v-1.386h-1.295v12zm1.318-7.637c0-1.954.863-3.272 2.5-3.272 1.704 0 2.545 1.431 2.545 3.272 0 1.864-.863 3.341-2.545 3.341-1.614 0-2.5-1.363-2.5-3.34zm10.92 4.569c1.523 0 2.318-.819 2.591-1.387h.068V103h1.341v-5.75c0-2.773-2.114-3.09-3.227-3.09-1.319 0-2.819.454-3.5 2.044l1.272.455c.296-.636.995-1.318 2.273-1.318 1.233 0 1.841.653 1.841 1.773v.045c0 .648-.659.591-2.25.795-1.619.21-3.386.569-3.386 2.569 0 1.704 1.318 2.682 2.977 2.682zm.204-1.205c-1.068 0-1.841-.477-1.841-1.409 0-1.023.932-1.341 1.978-1.477.568-.069 2.091-.228 2.318-.5v1.227c0 1.091-.864 2.159-2.455 2.159zm6.163 1h1.341v-5.523c0-1.181.932-2.045 2.205-2.045a4.1 4.1 0 01.818.09V94.16a12.887 12.887 0 00-.705-.023c-1.045 0-1.954.591-2.272 1.455h-.091v-1.318h-1.296V103zm10.216-8.727h-1.864v-2.091h-1.341v2.09h-1.318v1.137h1.318v5.455c0 1.522 1.227 2.25 2.364 2.25.5 0 .818-.091 1-.159l-.273-1.205c-.114.023-.295.068-.591.068-.591 0-1.159-.182-1.159-1.318v-5.09h1.864v-1.137zm1.937 8.727h1.341v-8.727h-1.341V103zm.682-10.182c.522 0 .954-.409.954-.909s-.432-.909-.954-.909c-.523 0-.955.41-.955.91s.432.908.955.908zm6.58 10.364c1.932 0 3.205-1.182 3.432-2.727h-1.341c-.25.954-1.045 1.522-2.091 1.522-1.591 0-2.614-1.318-2.614-3.34 0-1.978 1.046-3.273 2.614-3.273 1.182 0 1.886.727 2.091 1.522h1.341c-.227-1.636-1.614-2.727-3.455-2.727-2.363 0-3.931 1.864-3.931 4.523 0 2.613 1.5 4.5 3.954 4.5zm10.812-3.75c0 1.636-1.25 2.386-2.25 2.386-1.113 0-1.909-.818-1.909-2.09v-5.455h-1.341v5.545c0 2.227 1.182 3.296 2.818 3.296 1.319 0 2.182-.705 2.591-1.591h.091V103h1.341v-8.727h-1.341v5.159zm5.058-8.068h-1.341V103h1.341V91.364zm4.944 11.841c1.523 0 2.318-.819 2.591-1.387h.068V103h1.341v-5.75c0-2.773-2.114-3.09-3.227-3.09-1.318 0-2.818.454-3.5 2.044l1.273.455c.295-.636.994-1.318 2.272-1.318 1.233 0 1.841.653 1.841 1.773v.045c0 .648-.659.591-2.25.795-1.619.21-3.386.569-3.386 2.569 0 1.704 1.318 2.682 2.977 2.682zm.205-1.205c-1.069 0-1.841-.477-1.841-1.409 0-1.023.932-1.341 1.977-1.477.568-.069 2.091-.228 2.318-.5v1.227c0 1.091-.863 2.159-2.454 2.159zm6.163 1h1.34v-5.523c0-1.181.932-2.045 2.205-2.045a4.1 4.1 0 01.818.09V94.16a12.849 12.849 0 00-.704-.023c-1.046 0-1.955.591-2.273 1.455h-.091v-1.318h-1.295V103zm13.588.182c1.682 0 2.25-1.046 2.546-1.523h.159V103h1.295V91.364h-1.341v4.295h-.113c-.296-.455-.819-1.5-2.523-1.5-2.205 0-3.727 1.75-3.727 4.5 0 2.773 1.522 4.523 3.704 4.523zm.182-1.205c-1.682 0-2.546-1.477-2.546-3.34 0-1.841.841-3.273 2.546-3.273 1.636 0 2.5 1.318 2.5 3.272 0 1.978-.886 3.341-2.5 3.341zm8.948 1.228c1.523 0 2.319-.819 2.591-1.387h.068V103h1.341v-5.75c0-2.773-2.113-3.09-3.227-3.09-1.318 0-2.818.454-3.5 2.044l1.273.455c.295-.636.994-1.318 2.273-1.318 1.232 0 1.84.653 1.84 1.773v.045c0 .648-.659.591-2.25.795-1.619.21-3.386.569-3.386 2.569 0 1.704 1.318 2.682 2.977 2.682zm.205-1.205c-1.068 0-1.841-.477-1.841-1.409 0-1.023.932-1.341 1.977-1.477.568-.069 2.091-.228 2.318-.5v1.227c0 1.091-.863 2.159-2.454 2.159zm6.714 4.273c1.21 0 2.062-.642 2.568-2l3.716-9.977-1.466-.023-2.409 6.954h-.091l-2.409-6.954h-1.455l3.228 8.772-.25.682c-.489 1.33-1.091 1.455-2.068 1.205l-.341 1.182c.136.068.522.159.977.159zm9.431-4.864h-1.454l-.068.636c-.165 1.54-.489 3.074-.637 3.796h1.023c.273-.773.852-2.523 1.045-3.818l.091-.614zm10.62-7.136h-1.864v-2.091h-1.34v2.09h-1.319v1.137h1.319v5.455c0 1.522 1.227 2.25 2.363 2.25.5 0 .818-.091 1-.159l-.273-1.205c-.113.023-.295.068-.59.068-.591 0-1.16-.182-1.16-1.318v-5.09h1.864v-1.137zm3.466 3.477c0-1.523.971-2.386 2.295-2.386 1.261 0 2.023.795 2.023 2.181V103h1.341v-5.546c0-2.244-1.194-3.295-2.978-3.295-1.375 0-2.159.574-2.568 1.477h-.113v-4.272h-1.341V103h1.341v-5.25zm11.691 5.432c1.773 0 3.068-.887 3.477-2.205l-1.295-.363c-.341.909-1.131 1.363-2.182 1.363-1.574 0-2.659-1.017-2.722-2.886h6.335v-.568c0-3.25-1.931-4.364-3.75-4.364-2.363 0-3.931 1.864-3.931 4.545 0 2.682 1.545 4.478 4.068 4.478zm-2.722-5.25c.091-1.358 1.051-2.568 2.585-2.568 1.455 0 2.387 1.09 2.387 2.568h-4.972zm14.056-6.568h-1.341V103h1.341V91.364zm4.944 11.841c1.523 0 2.319-.819 2.591-1.387h.068V103h1.341v-5.75c0-2.773-2.113-3.09-3.227-3.09-1.318 0-2.818.454-3.5 2.044l1.273.455c.295-.636.994-1.318 2.273-1.318 1.232 0 1.84.653 1.84 1.773v.045c0 .648-.659.591-2.25.795-1.619.21-3.386.569-3.386 2.569 0 1.704 1.318 2.682 2.977 2.682zm.205-1.205c-1.068 0-1.841-.477-1.841-1.409 0-1.023.932-1.341 1.977-1.477.568-.069 2.091-.228 2.318-.5v1.227c0 1.091-.863 2.159-2.454 2.159zm12.345-5.773c-.421-1.238-1.364-2.068-3.091-2.068-1.841 0-3.205 1.045-3.205 2.523 0 1.204.716 2.011 2.318 2.386l1.455.341c.881.205 1.295.625 1.295 1.227 0 .75-.795 1.364-2.045 1.364-1.097 0-1.784-.472-2.023-1.409l-1.273.318c.313 1.483 1.534 2.273 3.319 2.273 2.028 0 3.409-1.108 3.409-2.614 0-1.216-.762-1.983-2.319-2.364l-1.295-.318c-1.034-.255-1.5-.602-1.5-1.272 0-.75.795-1.296 1.864-1.296 1.17 0 1.653.648 1.886 1.25l1.205-.34zm5.893-1.954h-1.864v-2.091h-1.341v2.09h-1.318v1.137h1.318v5.455c0 1.522 1.227 2.25 2.364 2.25.5 0 .818-.091 1-.159l-.273-1.205c-.114.023-.295.068-.591.068-.591 0-1.159-.182-1.159-1.318v-5.09h1.864v-1.137zm7.22 12c1.211 0 2.063-.642 2.568-2l3.716-9.977-1.466-.023-2.409 6.954h-.091l-2.409-6.954H322.5l3.227 8.772-.25.682c-.489 1.33-1.091 1.455-2.068 1.205l-.341 1.182c.136.068.523.159.977.159zm11.325-3.091c1.773 0 3.068-.887 3.477-2.205l-1.295-.363c-.341.909-1.131 1.363-2.182 1.363-1.574 0-2.659-1.017-2.721-2.886h6.335v-.568c0-3.25-1.932-4.364-3.75-4.364-2.364 0-3.932 1.864-3.932 4.545 0 2.682 1.545 4.478 4.068 4.478zm-2.721-5.25c.09-1.358 1.051-2.568 2.585-2.568 1.454 0 2.386 1.09 2.386 2.568h-4.971zm10.863 5.273c1.522 0 2.318-.819 2.591-1.387h.068V103h1.341v-5.75c0-2.773-2.114-3.09-3.228-3.09-1.318 0-2.818.454-3.5 2.044l1.273.455c.296-.636.994-1.318 2.273-1.318 1.233 0 1.841.653 1.841 1.773v.045c0 .648-.659.591-2.25.795-1.62.21-3.387.569-3.387 2.569 0 1.704 1.319 2.682 2.978 2.682zm.204-1.205c-1.068 0-1.841-.477-1.841-1.409 0-1.023.932-1.341 1.978-1.477.568-.069 2.091-.228 2.318-.5v1.227c0 1.091-.864 2.159-2.455 2.159zm6.163 1h1.341v-5.523c0-1.181.932-2.045 2.205-2.045a4.1 4.1 0 01.818.09V94.16a12.887 12.887 0 00-.705-.023c-1.045 0-1.954.591-2.272 1.455h-.091v-1.318h-1.296V103zm6.873-1.591h-1.454l-.068.636c-.165 1.54-.489 3.074-.637 3.796h1.023c.273-.773.852-2.523 1.045-3.818l.091-.614zm-311.98 25.773c2.364 0 3.955-1.796 3.955-4.5 0-2.727-1.59-4.523-3.954-4.523s-3.955 1.796-3.955 4.523c0 2.704 1.591 4.5 3.955 4.5zm0-1.205c-1.795 0-2.613-1.545-2.613-3.295s.818-3.318 2.614-3.318c1.795 0 2.613 1.568 2.613 3.318s-.818 3.295-2.613 3.295zM50.695 127h1.341v-5.523c0-1.182.932-2.045 2.205-2.045.358 0 .727.068.818.091v-1.364a13.248 13.248 0 00-.705-.023c-1.045 0-1.954.591-2.273 1.455h-.09v-1.318h-1.296V127zm12.27 0h1.319l1.909-6.705h.136l1.91 6.705h1.317l2.66-8.727h-1.41l-1.886 6.659h-.09l-1.842-6.659h-1.431l-1.864 6.682H63.6l-1.886-6.682h-1.41l2.66 8.727zm12.284-5.25c0-1.523.972-2.386 2.296-2.386 1.261 0 2.022.795 2.022 2.181V127h1.341v-5.545c0-2.245-1.193-3.296-2.977-3.296-1.375 0-2.16.574-2.568 1.477h-.114v-4.272h-1.34V127h1.34v-5.25zm10.6 5.455c1.523 0 2.319-.819 2.591-1.387h.069V127h1.34v-5.75c0-2.773-2.113-3.091-3.227-3.091-1.318 0-2.818.455-3.5 2.046l1.273.454c.295-.636.994-1.318 2.273-1.318 1.233 0 1.84.653 1.84 1.773v.045c0 .648-.658.591-2.25.796-1.619.21-3.386.568-3.386 2.568 0 1.704 1.319 2.682 2.978 2.682zm.205-1.205c-1.068 0-1.84-.477-1.84-1.409 0-1.023.931-1.341 1.977-1.477.568-.069 2.09-.228 2.318-.5v1.227c0 1.091-.864 2.159-2.455 2.159zm9.959-7.727h-1.864v-2.091h-1.341v2.091h-1.318v1.136h1.318v5.455c0 1.522 1.227 2.25 2.364 2.25.5 0 .818-.091 1-.159l-.273-1.205c-.114.023-.296.068-.591.068-.591 0-1.16-.182-1.16-1.318v-5.091h1.864v-1.136zm5.502 8.909c1.773 0 3.068-.887 3.477-2.205l-1.295-.363c-.341.909-1.131 1.363-2.182 1.363-1.574 0-2.66-1.017-2.722-2.886h6.335v-.568c0-3.25-1.931-4.364-3.75-4.364-2.363 0-3.931 1.864-3.931 4.546 0 2.681 1.545 4.477 4.068 4.477zm-2.722-5.25c.091-1.358 1.051-2.568 2.585-2.568 1.455 0 2.387 1.091 2.387 2.568h-4.972zm15.166-3.659h-1.455l-2.409 6.954h-.091l-2.409-6.954h-1.454l3.227 8.727h1.364l3.227-8.727zm5.036 8.909c1.773 0 3.069-.887 3.478-2.205l-1.296-.363c-.341.909-1.13 1.363-2.182 1.363-1.573 0-2.659-1.017-2.721-2.886h6.335v-.568c0-3.25-1.932-4.364-3.75-4.364-2.364 0-3.932 1.864-3.932 4.546 0 2.681 1.546 4.477 4.068 4.477zm-2.721-5.25c.091-1.358 1.051-2.568 2.585-2.568 1.455 0 2.386 1.091 2.386 2.568h-4.971zm8.295 5.068h1.341v-5.523c0-1.182.932-2.045 2.204-2.045.358 0 .728.068.819.091v-1.364a13.282 13.282 0 00-.705-.023c-1.045 0-1.955.591-2.273 1.455h-.091v-1.318h-1.295V127zm14.088-8.727h-1.863v-2.091h-1.341v2.091h-1.318v1.136h1.318v5.455c0 1.522 1.227 2.25 2.364 2.25.5 0 .818-.091 1-.159l-.273-1.205c-.114.023-.296.068-.591.068-.591 0-1.159-.182-1.159-1.318v-5.091h1.863v-1.136zm1.938 8.727h1.34v-8.727h-1.34V127zm.681-10.182c.523 0 .955-.409.955-.909s-.432-.909-.955-.909c-.522 0-.954.409-.954.909s.432.909.954.909zM144.31 127h1.341v-5.455c0-1.278.932-2.181 1.978-2.181 1.017 0 1.727.664 1.727 1.659V127h1.363v-5.682c0-1.125.705-1.954 1.932-1.954.955 0 1.773.505 1.773 1.795V127h1.341v-5.841c0-2.051-1.102-3-2.659-3-1.25 0-2.165.574-2.614 1.477h-.091c-.432-.931-1.193-1.477-2.341-1.477-1.136 0-1.977.546-2.341 1.477h-.113v-1.363h-1.296V127zm17.486.182c1.772 0 3.068-.887 3.477-2.205l-1.295-.363c-.341.909-1.131 1.363-2.182 1.363-1.574 0-2.659-1.017-2.722-2.886h6.335v-.568c0-3.25-1.931-4.364-3.75-4.364-2.363 0-3.931 1.864-3.931 4.546 0 2.681 1.545 4.477 4.068 4.477zm-2.722-5.25c.091-1.358 1.051-2.568 2.585-2.568 1.455 0 2.387 1.091 2.387 2.568h-4.972zM171.789 127h1.341v-5.523c0-1.182.932-2.045 2.205-2.045.358 0 .727.068.818.091v-1.364a13.282 13.282 0 00-.705-.023c-1.045 0-1.954.591-2.272 1.455h-.091v-1.318h-1.296V127zm8.441.205c1.523 0 2.319-.819 2.591-1.387h.069V127h1.34v-5.75c0-2.773-2.113-3.091-3.227-3.091-1.318 0-2.818.455-3.5 2.046l1.273.454c.295-.636.994-1.318 2.273-1.318 1.233 0 1.841.653 1.841 1.773v.045c0 .648-.66.591-2.25.796-1.62.21-3.387.568-3.387 2.568 0 1.704 1.318 2.682 2.977 2.682zm.205-1.205c-1.068 0-1.841-.477-1.841-1.409 0-1.023.932-1.341 1.977-1.477.569-.069 2.091-.228 2.319-.5v1.227c0 1.091-.864 2.159-2.455 2.159zm7.504-4.25c0-1.523.943-2.386 2.227-2.386 1.244 0 2 .812 2 2.181V127h1.341v-5.545c0-2.228-1.188-3.296-2.955-3.296-1.318 0-2.136.591-2.545 1.477h-.114v-1.363h-1.295V127h1.341v-5.25zm11.461 8.705c2.091 0 3.773-.955 3.773-3.205v-8.977h-1.296v1.386h-.136c-.296-.454-.841-1.5-2.546-1.5-2.204 0-3.727 1.75-3.727 4.432 0 2.727 1.591 4.273 3.705 4.273 1.704 0 2.25-1 2.545-1.478h.114v1.773c0 1.455-1.023 2.114-2.432 2.114-1.585 0-2.142-.835-2.5-1.318l-1.068.75c.545.914 1.619 1.75 3.568 1.75zm-.045-4.796c-1.682 0-2.546-1.273-2.546-3.091 0-1.773.841-3.204 2.546-3.204 1.636 0 2.5 1.318 2.5 3.204 0 1.932-.887 3.091-2.5 3.091zm9.851 1.523c1.773 0 3.069-.887 3.478-2.205l-1.296-.363c-.341.909-1.13 1.363-2.182 1.363-1.573 0-2.659-1.017-2.721-2.886h6.335v-.568c0-3.25-1.932-4.364-3.75-4.364-2.364 0-3.932 1.864-3.932 4.546 0 2.681 1.546 4.477 4.068 4.477zm-2.721-5.25c.091-1.358 1.051-2.568 2.585-2.568 1.455 0 2.386 1.091 2.386 2.568h-4.971zm16.26 5.25c1.932 0 3.205-1.182 3.432-2.727h-1.341c-.25.954-1.045 1.522-2.091 1.522-1.591 0-2.613-1.318-2.613-3.341 0-1.977 1.045-3.272 2.613-3.272 1.182 0 1.887.727 2.091 1.522h1.341c-.227-1.636-1.614-2.727-3.454-2.727-2.364 0-3.932 1.864-3.932 4.523 0 2.613 1.5 4.5 3.954 4.5zm8.858 0c2.363 0 3.954-1.796 3.954-4.5 0-2.727-1.591-4.523-3.954-4.523-2.364 0-3.955 1.796-3.955 4.523 0 2.704 1.591 4.5 3.955 4.5zm0-1.205c-1.796 0-2.614-1.545-2.614-3.295s.818-3.318 2.614-3.318c1.795 0 2.613 1.568 2.613 3.318s-.818 3.295-2.613 3.295zm7.262-4.227c0-1.523.943-2.386 2.227-2.386 1.245 0 2 .812 2 2.181V127h1.341v-5.545c0-2.228-1.187-3.296-2.954-3.296-1.318 0-2.137.591-2.546 1.477h-.113v-1.363h-1.296V127h1.341v-5.25zm11.734-3.477h-1.864v-2.091h-1.341v2.091h-1.318v1.136h1.318v5.455c0 1.522 1.228 2.25 2.364 2.25.5 0 .818-.091 1-.159l-.273-1.205c-.113.023-.295.068-.591.068-.59 0-1.159-.182-1.159-1.318v-5.091h1.864v-1.136zm4.505 8.932c1.523 0 2.318-.819 2.591-1.387h.068V127h1.341v-5.75c0-2.773-2.113-3.091-3.227-3.091-1.318 0-2.818.455-3.5 2.046l1.273.454c.295-.636.994-1.318 2.272-1.318 1.233 0 1.841.653 1.841 1.773v.045c0 .648-.659.591-2.25.796-1.619.21-3.386.568-3.386 2.568 0 1.704 1.318 2.682 2.977 2.682zm.205-1.205c-1.068 0-1.841-.477-1.841-1.409 0-1.023.932-1.341 1.977-1.477.568-.069 2.091-.228 2.318-.5v1.227c0 1.091-.863 2.159-2.454 2.159zm6.163 1h1.341v-8.727h-1.341V127zm.681-10.182c.523 0 .955-.409.955-.909s-.432-.909-.955-.909c-.522 0-.954.409-.954.909s.432.909.954.909zm4.376 4.932c0-1.523.944-2.386 2.228-2.386 1.244 0 2 .812 2 2.181V127h1.341v-5.545c0-2.228-1.188-3.296-2.955-3.296-1.318 0-2.136.591-2.545 1.477h-.114v-1.363h-1.295V127h1.34v-5.25zm14.121-1.523c-.421-1.238-1.364-2.068-3.091-2.068-1.841 0-3.205 1.046-3.205 2.523 0 1.204.716 2.011 2.318 2.386l1.455.341c.881.205 1.295.625 1.295 1.227 0 .75-.795 1.364-2.045 1.364-1.097 0-1.784-.472-2.023-1.409l-1.272.318c.312 1.483 1.534 2.273 3.318 2.273 2.028 0 3.409-1.108 3.409-2.614 0-1.216-.762-1.983-2.318-2.363l-1.296-.319c-1.034-.255-1.5-.602-1.5-1.272 0-.75.796-1.296 1.864-1.296 1.17 0 1.653.648 1.886 1.25l1.205-.341zm7.381 10.046c1.21 0 2.062-.642 2.568-2l3.716-9.978-1.466-.022-2.409 6.954h-.091l-2.409-6.954h-1.455l3.228 8.772-.25.682c-.489 1.33-1.091 1.455-2.068 1.205l-.341 1.182c.136.068.522.159.977.159zm11.211-3.091c2.364 0 3.955-1.796 3.955-4.5 0-2.727-1.591-4.523-3.955-4.523s-3.954 1.796-3.954 4.523c0 2.704 1.59 4.5 3.954 4.5zm0-1.205c-1.795 0-2.614-1.545-2.614-3.295s.819-3.318 2.614-3.318c1.796 0 2.614 1.568 2.614 3.318s-.818 3.295-2.614 3.295zm11.422-2.545c0 1.636-1.25 2.386-2.25 2.386-1.114 0-1.91-.818-1.91-2.091v-5.454h-1.34v5.545c0 2.227 1.181 3.296 2.818 3.296 1.318 0 2.182-.705 2.591-1.591h.091V127h1.34v-8.727h-1.34v5.159zM314.38 127h1.341v-5.523c0-1.182.932-2.045 2.205-2.045.358 0 .727.068.818.091v-1.364a13.242 13.242 0 00-.704-.023c-1.046 0-1.955.591-2.273 1.455h-.091v-1.318h-1.296V127zm13.589.182c1.682 0 2.25-1.046 2.545-1.523h.16V127h1.295v-11.636h-1.341v4.295h-.114c-.295-.454-.818-1.5-2.522-1.5-2.205 0-3.728 1.75-3.728 4.5 0 2.773 1.523 4.523 3.705 4.523zm.182-1.205c-1.682 0-2.546-1.477-2.546-3.341 0-1.841.841-3.272 2.546-3.272 1.636 0 2.5 1.318 2.5 3.272 0 1.978-.887 3.341-2.5 3.341zm8.948 1.228c1.523 0 2.318-.819 2.591-1.387h.068V127h1.341v-5.75c0-2.773-2.113-3.091-3.227-3.091-1.318 0-2.818.455-3.5 2.046l1.273.454c.295-.636.994-1.318 2.272-1.318 1.233 0 1.841.653 1.841 1.773v.045c0 .648-.659.591-2.25.796-1.619.21-3.386.568-3.386 2.568 0 1.704 1.318 2.682 2.977 2.682zm.205-1.205c-1.068 0-1.841-.477-1.841-1.409 0-1.023.932-1.341 1.977-1.477.568-.069 2.091-.228 2.318-.5v1.227c0 1.091-.863 2.159-2.454 2.159zm9.958-7.727h-1.864v-2.091h-1.34v2.091h-1.319v1.136h1.319v5.455c0 1.522 1.227 2.25 2.363 2.25.5 0 .818-.091 1-.159l-.273-1.205c-.113.023-.295.068-.59.068-.591 0-1.16-.182-1.16-1.318v-5.091h1.864v-1.136zm4.505 8.932c1.523 0 2.318-.819 2.591-1.387h.068V127h1.341v-5.75c0-2.773-2.113-3.091-3.227-3.091-1.318 0-2.818.455-3.5 2.046l1.273.454c.295-.636.994-1.318 2.272-1.318 1.233 0 1.841.653 1.841 1.773v.045c0 .648-.659.591-2.25.796-1.619.21-3.386.568-3.386 2.568 0 1.704 1.318 2.682 2.977 2.682zm.205-1.205c-1.068 0-1.841-.477-1.841-1.409 0-1.023.932-1.341 1.977-1.477.568-.069 2.091-.228 2.318-.5v1.227c0 1.091-.863 2.159-2.454 2.159zm7.14 1.091c.563 0 1.023-.46 1.023-1.023 0-.562-.46-1.023-1.023-1.023-.562 0-1.023.461-1.023 1.023 0 .563.461 1.023 1.023 1.023z"/>
    </g>
    <g>
      <path fill="#D3DAE6" d="M396 36l-12 12V24l12 12z"/>
      <path fill="#fff" d="M394.6 36l-12 12V24l12 12z"/>
    </g>
  </g>
  <defs>
    <filter id="filter0_dddd_168:11203" width="408" height="211" x="0" y="0" color-interpolation-filters="sRGB" filterUnits="userSpaceOnUse">
      <feFlood flood-opacity="0" result="BackgroundImageFix"/>
      <feColorMatrix in="SourceAlpha" result="hardAlpha" values="0 0 0 0 0 0 0 0 0 0 0 0 0 0 0 0 0 0 127 0"/>
      <feOffset dy="2"/>
      <feGaussianBlur stdDeviation="1"/>
      <feColorMatrix values="0 0 0 0 0.254902 0 0 0 0 0.305882 0 0 0 0 0.396078 0 0 0 0.1 0"/>
      <feBlend in2="BackgroundImageFix" result="effect1_dropShadow_168:11203"/>
      <feColorMatrix in="SourceAlpha" result="hardAlpha" values="0 0 0 0 0 0 0 0 0 0 0 0 0 0 0 0 0 0 127 0"/>
      <feOffset dy="4"/>
      <feGaussianBlur stdDeviation="2"/>
      <feColorMatrix values="0 0 0 0 0.254902 0 0 0 0 0.305882 0 0 0 0 0.396078 0 0 0 0.1 0"/>
      <feBlend in2="effect1_dropShadow_168:11203" result="effect2_dropShadow_168:11203"/>
      <feColorMatrix in="SourceAlpha" result="hardAlpha" values="0 0 0 0 0 0 0 0 0 0 0 0 0 0 0 0 0 0 127 0"/>
      <feOffset dy="6"/>
      <feGaussianBlur stdDeviation="6"/>
      <feColorMatrix values="0 0 0 0 0.254902 0 0 0 0 0.305882 0 0 0 0 0.396078 0 0 0 0.1 0"/>
      <feBlend in2="effect2_dropShadow_168:11203" result="effect3_dropShadow_168:11203"/>
      <feColorMatrix in="SourceAlpha" result="hardAlpha" values="0 0 0 0 0 0 0 0 0 0 0 0 0 0 0 0 0 0 127 0"/>
      <feOffset dy="12"/>
      <feGaussianBlur stdDeviation="12"/>
      <feColorMatrix values="0 0 0 0 0.254902 0 0 0 0 0.305882 0 0 0 0 0.396078 0 0 0 0.1 0"/>
      <feBlend in2="effect3_dropShadow_168:11203" result="effect4_dropShadow_168:11203"/>
      <feBlend in="SourceGraphic" in2="effect4_dropShadow_168:11203" result="shape"/>
    </filter>
  </defs>
</svg>
