<svg width="405" height="310" fill="none" viewBox="0 0 405 310" xmlns="http://www.w3.org/2000/svg">
	<g filter="url(#b)" clip-path="url(#a)">
		<g clip-path="url(#c)">
			<path fill="#fff" d="M23.001 15.001h359.998v60H23.001z" />
			<path d="M41.336 34.274h-2.05L42.3 43h2.378l3.009-8.727H45.64l-2.114 6.63h-.08l-2.11-6.63ZM48.702 43h1.815v-6.545h-1.815V43Zm.912-7.39c.541 0 .984-.413.984-.92 0-.503-.443-.916-.984-.916-.537 0-.98.413-.98.916 0 .507.443.92.98.92Zm5.34 7.518c1.62 0 2.71-.788 2.966-2.003l-1.679-.11c-.183.498-.652.758-1.257.758-.907 0-1.483-.601-1.483-1.577v-.004h4.458v-.499c0-2.224-1.347-3.324-3.077-3.324-1.926 0-3.175 1.368-3.175 3.388 0 2.075 1.232 3.37 3.248 3.37Zm-1.453-4.061c.039-.746.605-1.343 1.41-1.343.79 0 1.335.563 1.339 1.343H53.5ZM60.388 43h1.917l1.125-4.116h.081L64.636 43h1.922l1.777-6.545h-1.832l-.997 4.372h-.056l-1.074-4.373h-1.802l-1.057 4.398h-.06l-1.014-4.398h-1.837l1.782 6.546Zm13.56.124c.967 0 1.593-.422 1.913-1.032h.05v.908h1.722v-4.415c0-1.56-1.32-2.216-2.778-2.216-1.568 0-2.6.75-2.85 1.944l1.678.136c.124-.435.511-.754 1.163-.754.618 0 .972.31.972.848v.025c0 .422-.447.477-1.585.588-1.296.12-2.459.554-2.459 2.016 0 1.295.925 1.952 2.173 1.952Zm.52-1.253c-.559 0-.96-.26-.96-.759 0-.511.422-.763 1.062-.852.396-.056 1.044-.15 1.26-.294v.694c0 .687-.566 1.21-1.363 1.21Zm6.39-2.655c.003-.844.506-1.338 1.24-1.338.728 0 1.167.477 1.163 1.278v3.844h1.815v-4.168c0-1.525-.895-2.463-2.259-2.463-.971 0-1.674.478-1.968 1.24h-.077v-1.154h-1.73V43h1.815v-3.784Zm8.06 3.89c1.057 0 1.607-.609 1.858-1.154h.077V43h1.79v-8.727h-1.811v3.281h-.055c-.243-.533-.767-1.185-1.863-1.185-1.436 0-2.65 1.117-2.65 3.367 0 2.19 1.163 3.37 2.655 3.37Zm.576-1.444c-.89 0-1.376-.793-1.376-1.935 0-1.133.477-1.913 1.376-1.913.882 0 1.376.746 1.376 1.913 0 1.168-.502 1.935-1.376 1.935Zm12.865-3.341c-.162-1.206-1.134-1.952-2.787-1.952-1.675 0-2.778.776-2.774 2.037-.004.98.614 1.615 1.892 1.871l1.133.226c.571.115.831.324.84.652-.009.388-.43.665-1.065.665-.648 0-1.079-.277-1.19-.81l-1.785.094c.17 1.253 1.236 2.024 2.97 2.024 1.696 0 2.911-.865 2.915-2.156-.004-.947-.622-1.513-1.892-1.773l-1.185-.239c-.609-.132-.835-.34-.83-.656-.005-.392.438-.648 1-.648.632 0 1.007.345 1.096.767l1.662-.102Zm4.275 4.807c1.619 0 2.71-.788 2.966-2.003l-1.679-.11c-.183.498-.652.758-1.257.758-.908 0-1.483-.601-1.483-1.577v-.004h4.457v-.499c0-2.224-1.346-3.324-3.076-3.324-1.926 0-3.175 1.368-3.175 3.388 0 2.075 1.232 3.37 3.247 3.37Zm-1.453-4.061c.038-.746.605-1.343 1.411-1.343.788 0 1.333.563 1.338 1.343h-2.749Zm7.509 4.057c.967 0 1.593-.422 1.913-1.032h.051v.908h1.722v-4.415c0-1.56-1.321-2.216-2.779-2.216-1.568 0-2.599.75-2.851 1.944l1.679.136c.124-.435.512-.754 1.164-.754.618 0 .971.31.971.848v.025c0 .422-.447.477-1.585.588-1.295.12-2.459.554-2.459 2.016 0 1.295.925 1.952 2.174 1.952Zm.519-1.253c-.558 0-.958-.26-.958-.759 0-.511.421-.763 1.061-.852.396-.056 1.044-.15 1.261-.294v.694c0 .687-.567 1.21-1.364 1.21ZM117.784 43h1.815v-3.703c0-.806.588-1.36 1.39-1.36.251 0 .596.043.767.098v-1.61a2.724 2.724 0 0 0-.571-.064c-.733 0-1.334.426-1.573 1.236h-.068v-1.142h-1.76V43Zm7.563.128c1.743 0 2.838-1.023 2.923-2.527h-1.713c-.106.699-.567 1.09-1.189 1.09-.848 0-1.398-.71-1.398-1.964 0-1.236.554-1.943 1.398-1.943.665 0 1.091.439 1.189 1.091h1.713c-.077-1.513-1.223-2.506-2.932-2.506-1.985 0-3.213 1.377-3.213 3.384 0 1.99 1.206 3.375 3.222 3.375Zm5.901-3.912c.004-.844.52-1.338 1.261-1.338.737 0 1.172.473 1.168 1.278v3.844h1.815v-4.168c.004-1.534-.899-2.463-2.263-2.463-.993 0-1.657.469-1.956 1.24h-.076v-3.336h-1.765V43h1.816v-3.784Zm10.862 3.89c1.057 0 1.607-.609 1.858-1.154h.077V43h1.789v-8.727h-1.811v3.281h-.055c-.243-.533-.767-1.185-1.862-1.185-1.436 0-2.651 1.117-2.651 3.367 0 2.19 1.164 3.37 2.655 3.37Zm.575-1.444c-.89 0-1.376-.793-1.376-1.935 0-1.133.477-1.913 1.376-1.913.882 0 1.377.746 1.377 1.913 0 1.168-.503 1.935-1.377 1.935Zm6.508 1.462c.968 0 1.594-.422 1.914-1.032h.051v.908h1.722v-4.415c0-1.56-1.321-2.216-2.779-2.216-1.568 0-2.599.75-2.851 1.944l1.679.136c.124-.435.512-.754 1.164-.754.617 0 .971.31.971.848v.025c0 .422-.447.477-1.585.588-1.295.12-2.459.554-2.459 2.016 0 1.295.925 1.952 2.173 1.952Zm.52-1.253c-.558 0-.958-.26-.958-.759 0-.511.421-.763 1.061-.852.396-.056 1.044-.15 1.261-.294v.694c0 .687-.567 1.21-1.364 1.21Zm8.056-5.416h-1.231v-1.569h-1.815v1.569h-.895v1.363h.895v3.41c-.009 1.282.865 1.917 2.181 1.861.469-.017.802-.11.985-.17l-.286-1.35c-.089.016-.281.059-.451.059-.363 0-.614-.136-.614-.64v-3.17h1.231v-1.364Zm3.049 6.669c.968 0 1.594-.422 1.914-1.032h.051v.908h1.722v-4.415c0-1.56-1.321-2.216-2.779-2.216-1.568 0-2.599.75-2.851 1.944l1.679.136c.124-.435.512-.754 1.164-.754.617 0 .971.31.971.848v.025c0 .422-.447.477-1.585.588-1.295.12-2.459.554-2.459 2.016 0 1.295.925 1.952 2.173 1.952Zm.52-1.253c-.558 0-.958-.26-.958-.759 0-.511.421-.763 1.061-.852.396-.056 1.044-.15 1.261-.294v.694c0 .687-.567 1.21-1.364 1.21Z" fill="#69707D" />
			<path d="m41.64 68.001.757-2.322h3.674l.755 2.322h2.307l-3.51-10.182H42.85l-3.515 10.182h2.307Zm1.303-4.002 1.253-3.853h.08l1.253 3.853h-2.586Zm9.414-6.18h-2.118v10.182h2.118V57.819Zm5.678 2.546h-1.437v-1.83H54.48v1.83h-1.044v1.59h1.044v3.978c-.01 1.496 1.01 2.237 2.546 2.172a4.12 4.12 0 0 0 1.148-.199l-.333-1.576c-.104.02-.328.07-.527.07-.422 0-.716-.159-.716-.746v-3.698h1.437v-1.591Zm4.698 7.785c1.889 0 3.162-.92 3.46-2.337l-1.959-.129c-.214.582-.76.885-1.466.885-1.06 0-1.73-.7-1.73-1.84v-.004h5.2v-.582c0-2.595-1.571-3.878-3.59-3.878-2.247 0-3.704 1.596-3.704 3.953 0 2.42 1.437 3.932 3.789 3.932Zm-1.696-4.738c.045-.87.706-1.566 1.646-1.566.92 0 1.556.656 1.561 1.566h-3.207Zm6.503 4.589h2.118v-4.32c0-.94.686-1.586 1.62-1.586.294 0 .697.05.895.114v-1.88a3.181 3.181 0 0 0-.666-.074c-.855 0-1.556.497-1.834 1.442h-.08v-1.332H67.54V68Zm12.87-7.636h-1.436v-1.83h-2.118v1.83h-1.044v1.59h1.044v3.978c-.01 1.496 1.009 2.237 2.545 2.172a4.12 4.12 0 0 0 1.149-.199l-.334-1.576c-.104.02-.328.07-.526.07-.423 0-.716-.159-.716-.746v-3.698h1.436v-1.591Zm3.582 3.221c.005-.984.606-1.56 1.471-1.56.86 0 1.368.551 1.363 1.49v4.485h2.118v-4.862c.005-1.79-1.05-2.874-2.64-2.874-1.159 0-1.934.547-2.282 1.447h-.09v-3.893h-2.058v10.182h2.118v-4.415ZM94.01 68.15c1.89 0 3.162-.92 3.46-2.337l-1.958-.129c-.214.582-.76.885-1.467.885-1.059 0-1.73-.7-1.73-1.84v-.004h5.2v-.582c0-2.595-1.57-3.878-3.589-3.878-2.247 0-3.704 1.596-3.704 3.953 0 2.42 1.437 3.932 3.788 3.932Zm-1.695-4.738c.045-.87.706-1.566 1.646-1.566.92 0 1.556.656 1.56 1.566h-3.206Zm13.113 4.738c2.033 0 3.311-1.193 3.411-2.948h-1.999c-.124.815-.661 1.273-1.387 1.273-.989 0-1.631-.83-1.631-2.292 0-1.442.647-2.267 1.631-2.267.775 0 1.273.512 1.387 1.273h1.999c-.09-1.765-1.427-2.924-3.421-2.924-2.317 0-3.748 1.606-3.748 3.948 0 2.321 1.407 3.937 3.758 3.937Zm9.584-3.4c.005 1.024-.696 1.56-1.457 1.56-.8 0-1.318-.561-1.323-1.461v-4.484h-2.117v4.862c.005 1.785 1.049 2.873 2.585 2.873 1.148 0 1.974-.591 2.317-1.486h.079V68h2.034v-7.636h-2.118v4.385ZM118.744 68h2.117v-4.32c0-.94.687-1.586 1.621-1.586.294 0 .696.05.895.114v-1.88a3.179 3.179 0 0 0-.666-.074c-.855 0-1.556.497-1.835 1.442h-.079v-1.332h-2.053V68Zm5.648 0h2.118v-4.32c0-.94.686-1.586 1.621-1.586.293 0 .696.05.895.114v-1.88a3.188 3.188 0 0 0-.667-.074c-.855 0-1.556.497-1.834 1.442h-.08v-1.332h-2.053V68Zm8.773.15c1.889 0 3.162-.92 3.46-2.337l-1.958-.13c-.214.582-.761.885-1.467.885-1.059 0-1.73-.7-1.73-1.84v-.004h5.2v-.582c0-2.595-1.571-3.878-3.589-3.878-2.247 0-3.704 1.596-3.704 3.953 0 2.42 1.437 3.932 3.788 3.932Zm-1.695-4.739c.045-.87.706-1.566 1.646-1.566.919 0 1.556.656 1.561 1.566h-3.207Zm8.62.174c.005-.984.592-1.56 1.447-1.56.85 0 1.362.556 1.357 1.49v4.485h2.118v-4.862c0-1.78-1.044-2.874-2.635-2.874-1.133 0-1.954.557-2.297 1.447h-.089v-1.347h-2.019V68h2.118v-4.415Zm10.573-3.221h-1.437v-1.83h-2.118v1.83h-1.044v1.59h1.044v3.978c-.01 1.496 1.01 2.237 2.546 2.172.547-.02.935-.129 1.148-.199l-.333-1.576c-.104.02-.328.07-.527.07-.422 0-.716-.159-.716-.746v-3.698h1.437v-1.591Zm7.274 7.76c1.233 0 1.874-.71 2.167-1.347h.09v1.223h2.088V57.819h-2.113v3.828h-.065c-.283-.621-.894-1.382-2.172-1.382-1.676 0-3.092 1.303-3.092 3.928 0 2.555 1.357 3.932 3.097 3.932Zm.671-1.685c-1.039 0-1.606-.925-1.606-2.257 0-1.323.557-2.232 1.606-2.232 1.029 0 1.606.87 1.606 2.232s-.587 2.257-1.606 2.257Zm7.513 1.705c1.128 0 1.859-.492 2.232-1.203h.06v1.059h2.008v-5.15c0-1.82-1.541-2.586-3.241-2.586-1.83 0-3.033.875-3.326 2.267l1.959.16c.144-.508.596-.88 1.357-.88.721 0 1.133.362 1.133.989v.03c0 .492-.522.556-1.849.686-1.511.139-2.869.646-2.869 2.351 0 1.511 1.079 2.277 2.536 2.277Zm.606-1.462c-.651 0-1.118-.303-1.118-.884 0-.597.492-.89 1.238-.995.462-.064 1.218-.174 1.471-.343v.81c0 .801-.661 1.412-1.591 1.412Zm9.319-6.318h-1.437v-1.83h-2.117v1.83h-1.045v1.59h1.045v3.978c-.01 1.496 1.009 2.237 2.545 2.172.547-.02.935-.129 1.148-.199l-.333-1.576c-.104.02-.328.07-.527.07-.422 0-.716-.159-.716-.746v-3.698h1.437v-1.591Zm4.698 7.785c1.889 0 3.162-.92 3.46-2.337l-1.959-.129c-.213.582-.76.885-1.466.885-1.059 0-1.73-.7-1.73-1.84v-.004h5.2v-.582c0-2.595-1.571-3.878-3.59-3.878-2.247 0-3.703 1.596-3.703 3.953 0 2.42 1.436 3.932 3.788 3.932Zm-1.695-4.738c.044-.87.706-1.566 1.645-1.566.92 0 1.556.656 1.561 1.566h-3.206Zm9.662 4.589h2.118v-4.32c0-.94.686-1.586 1.621-1.586.293 0 .696.05.895.114v-1.88a3.186 3.186 0 0 0-.666-.074c-.856 0-1.557.497-1.835 1.442h-.08v-1.332h-2.053V68Zm7.608.144c1.128 0 1.859-.492 2.232-1.203h.059v1.059h2.009v-5.15c0-1.82-1.541-2.586-3.242-2.586-1.829 0-3.032.875-3.325 2.267l1.958.16c.144-.508.597-.88 1.358-.88.72 0 1.133.362 1.133.989v.03c0 .492-.522.556-1.849.686-1.512.139-2.869.646-2.869 2.351 0 1.511 1.079 2.277 2.536 2.277Zm.606-1.462c-.651 0-1.119-.303-1.119-.884 0-.597.493-.89 1.238-.995.463-.064 1.218-.174 1.472-.343v.81c0 .801-.661 1.412-1.591 1.412Zm7.375-3.097c.005-.984.592-1.56 1.447-1.56.85 0 1.362.556 1.357 1.49v4.485h2.118v-4.862c0-1.78-1.044-2.874-2.635-2.874-1.134 0-1.954.557-2.297 1.447h-.089v-1.347h-2.019V68h2.118v-4.415Zm9.951 7.438c2.183 0 3.734-.995 3.734-2.948v-7.711h-2.103v1.282h-.079c-.284-.621-.905-1.382-2.183-1.382-1.675 0-3.092 1.303-3.092 3.903 0 2.54 1.377 3.724 3.097 3.724 1.218 0 1.899-.612 2.178-1.243h.089v1.397c0 1.049-.671 1.456-1.591 1.456-.935 0-1.407-.407-1.581-.87l-1.959.264c.254 1.203 1.432 2.128 3.49 2.128Zm.045-4.723c-1.039 0-1.606-.826-1.606-2.143 0-1.298.557-2.207 1.606-2.207 1.029 0 1.606.87 1.606 2.207 0 1.347-.587 2.143-1.606 2.143Zm8.775 1.85c1.889 0 3.161-.92 3.46-2.337l-1.959-.13c-.214.582-.761.885-1.467.885-1.059 0-1.73-.7-1.73-1.84v-.004h5.201v-.582c0-2.595-1.571-3.878-3.59-3.878-2.247 0-3.704 1.596-3.704 3.953 0 2.42 1.437 3.932 3.789 3.932Zm-1.696-4.739c.045-.87.706-1.566 1.646-1.566.92 0 1.556.656 1.561 1.566h-3.207Z" fill="#1A1C21" />
			<path fill="#fff" d="M23.001 75.001h359.998v128H23.001z" />
			<g clip-path="url(#d)">
				<path d="M48.308 97.82h-1.213v8.013h-.1l-5.568-8.014h-1.193v10.182h1.233v-7.994h.1l5.548 7.994h1.193V97.819Zm5.41 10.34c2.068 0 3.46-1.571 3.46-3.937 0-2.387-1.392-3.958-3.46-3.958s-3.46 1.571-3.46 3.958c0 2.366 1.392 3.937 3.46 3.937Zm0-1.054c-1.57 0-2.287-1.352-2.287-2.883 0-1.532.716-2.904 2.287-2.904s2.287 1.372 2.287 2.904c0 1.531-.716 2.883-2.287 2.883Zm6.722.895h1.153l1.67-5.867h.12l1.67 5.867h1.154l2.327-7.636H67.3l-1.65 5.826h-.08l-1.61-5.826h-1.253l-1.63 5.846h-.08l-1.651-5.846h-1.233l2.327 7.636Zm16.903-7.636h-1.63v-1.83h-1.174v1.83h-1.153v.994h1.153v4.773c0 1.332 1.074 1.968 2.068 1.968.438 0 .716-.079.875-.139l-.238-1.054c-.1.02-.259.06-.517.06-.517 0-1.015-.159-1.015-1.154v-4.454h1.631v-.994Zm1.765 7.636h1.173v-4.832c0-1.035.816-1.79 1.93-1.79.313 0 .636.059.715.079v-1.193c-.134-.01-.442-.02-.616-.02-.915 0-1.71.517-1.989 1.273h-.08v-1.153h-1.133v7.636Zm6.197 2.864c1.06 0 1.805-.562 2.247-1.75l3.252-8.731-1.283-.019-2.108 6.085h-.08l-2.107-6.085h-1.273l2.824 7.676-.219.596c-.428 1.164-.955 1.273-1.81 1.054l-.298 1.034c.12.06.457.14.855.14Zm13.236-2.685c1.332 0 2.028-.716 2.267-1.213h.059v1.034h1.174v-5.031c0-2.426-1.85-2.705-2.824-2.705-1.153 0-2.466.398-3.063 1.79l1.114.398c.258-.557.87-1.154 1.989-1.154 1.078 0 1.61.572 1.61 1.551v.04c0 .567-.576.517-1.968.696-1.417.184-2.963.497-2.963 2.247 0 1.492 1.153 2.347 2.605 2.347Zm.179-1.054c-.935 0-1.611-.418-1.611-1.233 0-.895.815-1.173 1.73-1.293.497-.059 1.83-.198 2.028-.437v1.074c0 .954-.755 1.889-2.147 1.889Zm6.636-9.307h-1.174v10.182h1.174V97.819Zm5.47 2.546h-1.631v-1.83h-1.173v1.83h-1.154v.994h1.154v4.773c0 1.332 1.073 1.968 2.068 1.968.437 0 .716-.079.875-.139l-.239-1.054c-.099.02-.258.06-.517.06-.517 0-1.014-.159-1.014-1.154v-4.454h1.631v-.994Zm4.884 7.795c1.551 0 2.685-.776 3.043-1.929l-1.134-.318c-.298.795-.989 1.193-1.909 1.193-1.377 0-2.327-.89-2.381-2.525h5.543v-.498c0-2.843-1.69-3.818-3.281-3.818-2.068 0-3.441 1.631-3.441 3.977 0 2.347 1.353 3.918 3.56 3.918Zm-2.381-4.594c.079-1.188.919-2.247 2.262-2.247 1.273 0 2.088.955 2.088 2.247h-4.35Zm7.328 4.435h1.173v-4.832c0-1.035.816-1.79 1.929-1.79.313 0 .637.059.716.079v-1.193c-.134-.01-.442-.02-.616-.02-.915 0-1.711.517-1.989 1.273h-.08v-1.153h-1.133v7.636Zm5.209 0h1.173v-7.636h-1.173v7.636Zm.596-8.91c.458 0 .836-.357.836-.795 0-.437-.378-.795-.836-.795-.457 0-.835.358-.835.795 0 .438.378.796.835.796Zm3.899 4.316c0-1.332.826-2.088 1.949-2.088 1.089 0 1.75.711 1.75 1.909v4.773h1.174v-4.852c0-1.949-1.039-2.884-2.586-2.884-1.153 0-1.869.517-2.227 1.293h-.099v-1.193h-1.134v7.636h1.173v-4.594Zm10.099 7.617c1.83 0 3.301-.836 3.301-2.804v-7.855h-1.133v1.213h-.12c-.258-.398-.736-1.313-2.227-1.313-1.929 0-3.261 1.531-3.261 3.878 0 2.386 1.392 3.739 3.241 3.739 1.492 0 1.969-.875 2.227-1.293h.1v1.551c0 1.273-.895 1.85-2.128 1.85-1.387 0-1.874-.731-2.188-1.154l-.934.656c.477.801 1.417 1.532 3.122 1.532Zm-.04-4.196c-1.471 0-2.227-1.114-2.227-2.705 0-1.551.736-2.804 2.227-2.804 1.432 0 2.188 1.154 2.188 2.804 0 1.69-.776 2.705-2.188 2.705Zm12.747-6.463h-1.63v-1.83h-1.174v1.83h-1.153v.994h1.153v4.773c0 1.332 1.074 1.968 2.069 1.968.437 0 .715-.079.875-.139l-.239-1.054c-.1.02-.259.06-.517.06-.517 0-1.014-.159-1.014-1.154v-4.454h1.63v-.994Zm3.103 3.042c0-1.332.85-2.088 2.008-2.088 1.104 0 1.77.696 1.77 1.909v4.773h1.173v-4.852c0-1.964-1.044-2.884-2.605-2.884-1.203 0-1.889.502-2.247 1.293h-.099v-3.739h-1.174v10.182h1.174v-4.594Zm10.3 4.753c1.551 0 2.684-.776 3.042-1.929l-1.133-.318c-.299.795-.99 1.193-1.909 1.193-1.378 0-2.327-.89-2.382-2.525h5.543v-.498c0-2.843-1.69-3.818-3.281-3.818-2.068 0-3.44 1.631-3.44 3.977 0 2.347 1.352 3.918 3.56 3.918Zm-2.382-4.594c.08-1.188.92-2.247 2.262-2.247 1.273 0 2.088.955 2.088 2.247h-4.35Zm16.675-1.491c-.368-1.084-1.193-1.81-2.705-1.81-1.611 0-2.804.915-2.804 2.208 0 1.054.627 1.76 2.029 2.088l1.272.298c.771.179 1.134.547 1.134 1.074 0 .656-.696 1.193-1.79 1.193-.959 0-1.561-.413-1.77-1.233l-1.113.278c.273 1.298 1.342 1.989 2.903 1.989 1.775 0 2.983-.969 2.983-2.287 0-1.064-.666-1.735-2.028-2.068l-1.134-.278c-.905-.224-1.312-.527-1.312-1.114 0-.656.696-1.134 1.63-1.134 1.024 0 1.447.567 1.651 1.094l1.054-.298Zm5.007 6.085c1.691 0 2.804-1.034 3.003-2.386H187.7c-.219.835-.915 1.332-1.83 1.332-1.392 0-2.286-1.153-2.286-2.923 0-1.73.914-2.864 2.286-2.864 1.035 0 1.651.637 1.83 1.333h1.173c-.199-1.432-1.412-2.387-3.022-2.387-2.069 0-3.441 1.631-3.441 3.958 0 2.286 1.313 3.937 3.46 3.937Zm7.821 0c2.068 0 3.46-1.571 3.46-3.937 0-2.387-1.392-3.958-3.46-3.958s-3.46 1.571-3.46 3.958c0 2.366 1.392 3.937 3.46 3.937Zm0-1.054c-1.571 0-2.287-1.352-2.287-2.883 0-1.532.716-2.904 2.287-2.904s2.287 1.372 2.287 2.904c0 1.531-.716 2.883-2.287 2.883Zm5.251 3.759h1.173v-4.037h.1c.258.417.755 1.332 2.227 1.332 1.909 0 3.242-1.531 3.242-3.957 0-2.407-1.333-3.938-3.262-3.938-1.491 0-1.949.915-2.207 1.313h-.139v-1.213h-1.134v10.5Zm1.153-6.682c0-1.71.756-2.864 2.188-2.864 1.491 0 2.227 1.253 2.227 2.864 0 1.63-.755 2.923-2.227 2.923-1.412 0-2.188-1.193-2.188-2.923Zm10.58 3.977c1.551 0 2.685-.776 3.043-1.929l-1.134-.318c-.298.795-.989 1.193-1.909 1.193-1.377 0-2.327-.89-2.381-2.525h5.543v-.498c0-2.843-1.69-3.818-3.281-3.818-2.069 0-3.441 1.631-3.441 3.977 0 2.347 1.353 3.918 3.56 3.918Zm-2.381-4.594c.079-1.188.919-2.247 2.262-2.247 1.272 0 2.088.955 2.088 2.247h-4.35Zm14.367 4.594c2.069 0 3.461-1.571 3.461-3.937 0-2.387-1.392-3.958-3.461-3.958-2.068 0-3.46 1.571-3.46 3.958 0 2.366 1.392 3.937 3.46 3.937Zm0-1.054c-1.571 0-2.286-1.352-2.286-2.883 0-1.532.715-2.904 2.286-2.904 1.572 0 2.287 1.372 2.287 2.904 0 1.531-.715 2.883-2.287 2.883Zm8.652-6.741h-1.71v-.776c0-.756.318-1.153 1.094-1.153.338 0 .537.08.656.119l.338-1.014c-.179-.08-.537-.2-1.113-.2-1.094 0-2.148.657-2.148 1.97v1.054h-1.233v.994h1.233v6.642h1.173v-6.642h1.71v-.994Zm8.903 0h-1.631v-1.83h-1.173v1.83h-1.153v.994h1.153v4.773c0 1.332 1.074 1.968 2.068 1.968.438 0 .716-.079.875-.139l-.238-1.054c-.1.02-.259.06-.517.06-.517 0-1.015-.159-1.015-1.154v-4.454h1.631v-.994Zm3.102 3.042c0-1.332.851-2.088 2.009-2.088 1.104 0 1.77.696 1.77 1.909v4.773h1.173v-4.852c0-1.964-1.044-2.884-2.605-2.884-1.203 0-1.889.502-2.247 1.293h-.1v-3.739h-1.173v10.182h1.173v-4.594Zm10.3 4.753c1.551 0 2.685-.776 3.043-1.929l-1.134-.318c-.298.795-.989 1.193-1.909 1.193-1.377 0-2.326-.89-2.381-2.525h5.543v-.498c0-2.843-1.69-3.818-3.281-3.818-2.068 0-3.44 1.631-3.44 3.977 0 2.347 1.352 3.918 3.559 3.918Zm-2.381-4.594c.079-1.188.92-2.247 2.262-2.247 1.273 0 2.088.955 2.088 2.247h-4.35Zm14.149 4.594c1.472 0 1.969-.915 2.227-1.332h.14v1.173h1.133V97.819h-1.173v3.759h-.1c-.258-.398-.716-1.313-2.207-1.313-1.929 0-3.261 1.531-3.261 3.938 0 2.426 1.332 3.957 3.241 3.957Zm.159-1.054c-1.471 0-2.227-1.293-2.227-2.923 0-1.611.736-2.864 2.227-2.864 1.432 0 2.188 1.154 2.188 2.864 0 1.73-.776 2.923-2.188 2.923Zm7.9 1.074c1.332 0 2.028-.716 2.267-1.213h.06v1.034h1.173v-5.031c0-2.426-1.849-2.705-2.824-2.705-1.153 0-2.466.398-3.062 1.79l1.113.398c.259-.557.87-1.154 1.989-1.154 1.079 0 1.611.572 1.611 1.551v.04c0 .567-.577.517-1.969.696-1.417.184-2.963.497-2.963 2.247 0 1.492 1.153 2.347 2.605 2.347Zm.179-1.054c-.935 0-1.611-.418-1.611-1.233 0-.895.816-1.173 1.73-1.293.498-.059 1.83-.198 2.029-.437v1.074c0 .954-.756 1.889-2.148 1.889Zm8.784-6.761h-1.631v-1.83h-1.173v1.83h-1.154v.994h1.154v4.773c0 1.332 1.073 1.968 2.068 1.968.437 0 .716-.079.875-.139l-.239-1.054c-.099.02-.258.06-.517.06-.517 0-1.014-.159-1.014-1.154v-4.454h1.631v-.994Zm4.884 7.795c1.551 0 2.685-.776 3.043-1.929l-1.134-.318c-.298.795-.989 1.193-1.909 1.193-1.377 0-2.327-.89-2.381-2.525h5.543v-.498c0-2.843-1.69-3.818-3.281-3.818-2.068 0-3.44 1.631-3.44 3.977 0 2.347 1.352 3.918 3.559 3.918Zm-2.381-4.594c.079-1.188.92-2.247 2.262-2.247 1.273 0 2.088.955 2.088 2.247h-4.35Zm11.265 4.435h1.174v-4.832c0-1.035.815-1.79 1.929-1.79a3.6 3.6 0 0 1 .716.079v-1.193a11.26 11.26 0 0 0-.617-.02c-.915 0-1.71.517-1.989 1.273h-.079v-1.153h-1.134v7.636Zm7.457.179c1.332 0 2.028-.716 2.267-1.213h.059v1.034h1.174v-5.031c0-2.426-1.85-2.705-2.824-2.705-1.154 0-2.466.398-3.063 1.79l1.114.398c.258-.557.87-1.154 1.988-1.154 1.079 0 1.611.572 1.611 1.551v.04c0 .567-.576.517-1.968.696-1.417.184-2.964.497-2.964 2.247 0 1.492 1.154 2.347 2.606 2.347Zm.179-1.054c-.935 0-1.611-.418-1.611-1.233 0-.895.815-1.173 1.73-1.293.497-.059 1.829-.198 2.028-.437v1.074c0 .954-.755 1.889-2.147 1.889Zm6.635-3.719c0-1.332.826-2.088 1.949-2.088 1.089 0 1.75.711 1.75 1.909v4.773h1.174v-4.852c0-1.949-1.04-2.884-2.586-2.884-1.153 0-1.869.517-2.227 1.293h-.099v-1.193h-1.134v7.636h1.173v-4.594Zm10.099 7.617c1.829 0 3.301-.836 3.301-2.804v-7.855h-1.133v1.213h-.12c-.258-.398-.736-1.313-2.227-1.313-1.929 0-3.261 1.531-3.261 3.878 0 2.386 1.392 3.739 3.241 3.739 1.492 0 1.969-.875 2.227-1.293h.1v1.551c0 1.273-.895 1.85-2.128 1.85-1.387 0-1.874-.731-2.188-1.154l-.934.656c.477.801 1.417 1.532 3.122 1.532Zm-.04-4.196c-1.471 0-2.227-1.114-2.227-2.705 0-1.551.736-2.804 2.227-2.804 1.432 0 2.188 1.154 2.188 2.804 0 1.69-.776 2.705-2.188 2.705Zm8.69 1.332c1.552 0 2.685-.776 3.043-1.929l-1.133-.318c-.299.795-.99 1.193-1.91 1.193-1.377 0-2.326-.89-2.381-2.525h5.543v-.498c0-2.843-1.69-3.818-3.281-3.818-2.068 0-3.44 1.631-3.44 3.977 0 2.347 1.352 3.918 3.559 3.918Zm-2.381-4.594c.08-1.188.92-2.247 2.262-2.247 1.273 0 2.088.955 2.088 2.247h-4.35Zm8.183 4.515a.897.897 0 0 0 .895-.895.897.897 0 0 0-.895-.895.897.897 0 0 0-.895.895c0 .492.403.895.895.895Zm6.222-10.262 3.679 5.986v4.196h1.233v-4.196l3.679-5.986h-1.412l-2.824 4.753h-.119l-2.824-4.753h-1.412Zm12.049 10.341c2.068 0 3.46-1.571 3.46-3.937 0-2.387-1.392-3.958-3.46-3.958s-3.46 1.571-3.46 3.958c0 2.366 1.392 3.937 3.46 3.937Zm0-1.054c-1.571 0-2.287-1.352-2.287-2.883 0-1.532.716-2.904 2.287-2.904s2.287 1.372 2.287 2.904c0 1.531-.716 2.883-2.287 2.883Zm10.064-2.227c0 1.432-1.094 2.088-1.969 2.088-.975 0-1.671-.716-1.671-1.83v-4.772h-1.173v4.852c0 1.949 1.034 2.883 2.466 2.883 1.153 0 1.909-.616 2.267-1.392h.08v1.293h1.173v-7.636h-1.173v4.514ZM43.177 132.16c1.69 0 2.804-1.034 3.003-2.386h-1.173c-.22.835-.915 1.332-1.83 1.332-1.392 0-2.287-1.153-2.287-2.923 0-1.73.915-2.864 2.287-2.864 1.034 0 1.65.637 1.83 1.333h1.173c-.199-1.432-1.412-2.387-3.023-2.387-2.068 0-3.44 1.631-3.44 3.958 0 2.286 1.312 3.937 3.46 3.937Zm6.965.02c1.333 0 2.029-.716 2.267-1.213h.06v1.034h1.173v-5.031c0-2.426-1.85-2.705-2.824-2.705-1.153 0-2.465.398-3.062 1.79l1.114.398c.258-.557.87-1.154 1.988-1.154 1.08 0 1.611.572 1.611 1.551v.04c0 .567-.577.517-1.969.696-1.417.184-2.963.497-2.963 2.247 0 1.492 1.154 2.347 2.605 2.347Zm.18-1.054c-.935 0-1.611-.418-1.611-1.233 0-.895.815-1.173 1.73-1.293.497-.059 1.83-.198 2.028-.437v1.074c0 .954-.756 1.889-2.148 1.889Zm6.635-3.719c0-1.332.825-2.088 1.949-2.088 1.089 0 1.75.711 1.75 1.909v4.773h1.173v-4.852c0-1.949-1.039-2.884-2.585-2.884-1.153 0-1.87.517-2.227 1.293h-.1v-1.193h-1.133v7.636h1.173v-4.594Zm15.766 1.472c0 1.432-1.094 2.088-1.969 2.088-.974 0-1.67-.716-1.67-1.83v-4.772h-1.173v4.852c0 1.949 1.034 2.883 2.466 2.883 1.153 0 1.909-.616 2.267-1.392h.08v1.293h1.173v-7.636h-1.174v4.514Zm8.732-2.804c-.368-1.084-1.194-1.81-2.705-1.81-1.61 0-2.804.915-2.804 2.208 0 1.054.627 1.76 2.029 2.088l1.272.298c.77.179 1.134.547 1.134 1.074 0 .656-.696 1.193-1.79 1.193-.96 0-1.561-.413-1.77-1.233l-1.114.278c.274 1.298 1.343 1.989 2.904 1.989 1.775 0 2.983-.969 2.983-2.287 0-1.064-.666-1.735-2.029-2.068l-1.133-.278c-.905-.224-1.313-.527-1.313-1.114 0-.656.696-1.134 1.631-1.134 1.024 0 1.447.567 1.65 1.094l1.055-.298Zm5.107 6.085c1.55 0 2.684-.776 3.042-1.929l-1.133-.318c-.299.795-.99 1.193-1.91 1.193-1.376 0-2.326-.89-2.38-2.525h5.543v-.498c0-2.843-1.69-3.818-3.282-3.818-2.068 0-3.44 1.631-3.44 3.977 0 2.347 1.352 3.918 3.56 3.918Zm-2.382-4.594c.08-1.188.92-2.247 2.262-2.247 1.273 0 2.089.955 2.089 2.247h-4.35Zm14.587-3.201h-1.63v-1.83h-1.174v1.83H94.81v.994h1.153v4.773c0 1.332 1.074 1.968 2.068 1.968.438 0 .716-.079.875-.139l-.239-1.054c-.099.02-.258.06-.517.06-.517 0-1.014-.159-1.014-1.154v-4.454h1.631v-.994Zm3.102 3.042c0-1.332.85-2.088 2.009-2.088 1.103 0 1.77.696 1.77 1.909v4.773h1.173v-4.852c0-1.964-1.044-2.884-2.605-2.884-1.203 0-1.889.502-2.247 1.293h-.1v-3.739h-1.173v10.182h1.173v-4.594Zm10.3 4.753c1.551 0 2.685-.776 3.043-1.929l-1.134-.318c-.298.795-.989 1.193-1.909 1.193-1.377 0-2.327-.89-2.381-2.525h5.543v-.498c0-2.843-1.69-3.818-3.281-3.818-2.068 0-3.441 1.631-3.441 3.977 0 2.347 1.353 3.918 3.56 3.918Zm-2.381-4.594c.079-1.188.919-2.247 2.262-2.247 1.273 0 2.088.955 2.088 2.247h-4.35Zm14.149 4.594c1.471 0 1.969-.915 2.227-1.332h.139v1.173h1.134v-10.182h-1.173v3.759h-.1c-.258-.398-.716-1.313-2.207-1.313-1.929 0-3.262 1.531-3.262 3.938 0 2.426 1.333 3.957 3.242 3.957Zm.159-1.054c-1.472 0-2.227-1.293-2.227-2.923 0-1.611.735-2.864 2.227-2.864 1.432 0 2.187 1.154 2.187 2.864 0 1.73-.775 2.923-2.187 2.923Zm7.9 1.074c1.332 0 2.028-.716 2.267-1.213h.06v1.034h1.173v-5.031c0-2.426-1.85-2.705-2.824-2.705-1.153 0-2.466.398-3.063 1.79l1.114.398c.259-.557.87-1.154 1.989-1.154 1.079 0 1.611.572 1.611 1.551v.04c0 .567-.577.517-1.969.696-1.417.184-2.963.497-2.963 2.247 0 1.492 1.153 2.347 2.605 2.347Zm.179-1.054c-.935 0-1.611-.418-1.611-1.233 0-.895.815-1.173 1.73-1.293.497-.059 1.83-.198 2.029-.437v1.074c0 .954-.756 1.889-2.148 1.889Zm8.783-6.761h-1.63v-1.83h-1.174v1.83h-1.153v.994h1.153v4.773c0 1.332 1.074 1.968 2.069 1.968.437 0 .715-.079.875-.139l-.239-1.054c-.1.02-.259.06-.517.06-.517 0-1.014-.159-1.014-1.154v-4.454h1.63v-.994Zm4.885 7.795c1.551 0 2.685-.776 3.043-1.929l-1.134-.318c-.298.795-.989 1.193-1.909 1.193-1.377 0-2.327-.89-2.381-2.525h5.543v-.498c0-2.843-1.69-3.818-3.281-3.818-2.069 0-3.441 1.631-3.441 3.977 0 2.347 1.353 3.918 3.56 3.918Zm-2.381-4.594c.079-1.188.919-2.247 2.262-2.247 1.272 0 2.088.955 2.088 2.247h-4.35Zm11.265 7.299h1.173v-4.037h.1c.258.417.756 1.332 2.227 1.332 1.909 0 3.242-1.531 3.242-3.957 0-2.407-1.333-3.938-3.262-3.938-1.491 0-1.949.915-2.207 1.313h-.139v-1.213h-1.134v10.5Zm1.154-6.682c0-1.71.755-2.864 2.187-2.864 1.492 0 2.227 1.253 2.227 2.864 0 1.63-.755 2.923-2.227 2.923-1.412 0-2.187-1.193-2.187-2.923Zm7.377 3.818h1.174v-7.636h-1.174v7.636Zm.597-8.909c.457 0 .835-.358.835-.796 0-.437-.378-.795-.835-.795-.457 0-.835.358-.835.795 0 .438.378.796.835.796Zm5.828 9.068c1.69 0 2.804-1.034 3.003-2.386h-1.173c-.219.835-.915 1.332-1.83 1.332-1.392 0-2.287-1.153-2.287-2.923 0-1.73.915-2.864 2.287-2.864 1.034 0 1.651.637 1.83 1.333h1.173c-.199-1.432-1.412-2.387-3.023-2.387-2.068 0-3.44 1.631-3.44 3.958 0 2.286 1.312 3.937 3.46 3.937Zm4.718-.159h1.173v-2.859l.821-.76 2.858 3.619h1.492l-3.465-4.375 3.226-3.261h-1.452l-3.34 3.4h-.14v-5.946h-1.173v10.182Zm10.502.159c1.552 0 2.685-.776 3.043-1.929l-1.133-.318c-.299.795-.99 1.193-1.91 1.193-1.377 0-2.326-.89-2.381-2.525h5.543v-.498c0-2.843-1.69-3.818-3.281-3.818-2.068 0-3.44 1.631-3.44 3.977 0 2.347 1.352 3.918 3.559 3.918Zm-2.381-4.594c.08-1.188.92-2.247 2.262-2.247 1.273 0 2.088.955 2.088 2.247h-4.35Zm7.328 4.435h1.174v-4.832c0-1.035.815-1.79 1.929-1.79.313 0 .636.059.715.079v-1.193c-.134-.01-.442-.02-.616-.02-.915 0-1.71.517-1.989 1.273h-.079v-1.153h-1.134v7.636Zm6.476-10.182h-1.114v.915c0 .736-.358 1.372-.775 1.969l.636.517c.795-.637 1.253-1.691 1.253-2.506v-.895Zm5.879 4.256c-.368-1.084-1.194-1.81-2.705-1.81-1.611 0-2.804.915-2.804 2.208 0 1.054.627 1.76 2.029 2.088l1.272.298c.771.179 1.134.547 1.134 1.074 0 .656-.696 1.193-1.79 1.193-.96 0-1.561-.413-1.77-1.233l-1.114.278c.274 1.298 1.343 1.989 2.904 1.989 1.775 0 2.983-.969 2.983-2.287 0-1.064-.666-1.735-2.029-2.068l-1.133-.278c-.905-.224-1.313-.527-1.313-1.114 0-.656.696-1.134 1.631-1.134 1.024 0 1.447.567 1.651 1.094l1.054-.298Zm8.726 6.085c1.472 0 1.969-.915 2.227-1.332h.139v1.173h1.134v-10.182h-1.173v3.759h-.1c-.258-.398-.716-1.313-2.207-1.313-1.929 0-3.261 1.531-3.261 3.938 0 2.426 1.332 3.957 3.241 3.957Zm.159-1.054c-1.471 0-2.227-1.293-2.227-2.923 0-1.611.736-2.864 2.227-2.864 1.432 0 2.188 1.154 2.188 2.864 0 1.73-.776 2.923-2.188 2.923Zm5.653.895h1.173v-4.832c0-1.035.815-1.79 1.929-1.79a3.6 3.6 0 0 1 .716.079v-1.193c-.134-.01-.442-.02-.616-.02-.915 0-1.711.517-1.989 1.273h-.08v-1.153h-1.133v7.636Zm8.079.159c2.068 0 3.46-1.571 3.46-3.937 0-2.387-1.392-3.958-3.46-3.958-2.069 0-3.461 1.571-3.461 3.958 0 2.366 1.392 3.937 3.461 3.937Zm0-1.054c-1.571 0-2.287-1.352-2.287-2.883 0-1.532.716-2.904 2.287-2.904s2.287 1.372 2.287 2.904c0 1.531-.716 2.883-2.287 2.883Zm5.251 3.759h1.173v-4.037h.1c.258.417.755 1.332 2.227 1.332 1.909 0 3.241-1.531 3.241-3.957 0-2.407-1.332-3.938-3.261-3.938-1.491 0-1.949.915-2.207 1.313h-.14v-1.213h-1.133v10.5Zm1.153-6.682c0-1.71.756-2.864 2.188-2.864 1.491 0 2.227 1.253 2.227 2.864 0 1.63-.756 2.923-2.227 2.923-1.412 0-2.188-1.193-2.188-2.923Zm10.262 3.977c1.471 0 1.968-.915 2.227-1.332h.139v1.173h1.134v-10.182h-1.174v3.759h-.099c-.259-.398-.716-1.313-2.207-1.313-1.929 0-3.262 1.531-3.262 3.938 0 2.426 1.333 3.957 3.242 3.957Zm.159-1.054c-1.472 0-2.228-1.293-2.228-2.923 0-1.611.736-2.864 2.228-2.864 1.432 0 2.187 1.154 2.187 2.864 0 1.73-.775 2.923-2.187 2.923Zm8.755 1.054c2.068 0 3.46-1.571 3.46-3.937 0-2.387-1.392-3.958-3.46-3.958s-3.461 1.571-3.461 3.958c0 2.366 1.393 3.937 3.461 3.937Zm0-1.054c-1.571 0-2.287-1.352-2.287-2.883 0-1.532.716-2.904 2.287-2.904s2.287 1.372 2.287 2.904c0 1.531-.716 2.883-2.287 2.883Zm6.721.895h1.154l1.67-5.867h.119l1.671 5.867h1.153l2.327-7.636h-1.233l-1.65 5.826h-.08l-1.611-5.826h-1.253l-1.63 5.846h-.08l-1.65-5.846h-1.233l2.326 7.636Zm10.818-4.594c0-1.332.826-2.088 1.949-2.088 1.089 0 1.75.711 1.75 1.909v4.773h1.174v-4.852c0-1.949-1.039-2.884-2.586-2.884-1.153 0-1.869.517-2.227 1.293h-.099v-1.193h-1.134v7.636h1.173v-4.594Zm10.954 4.594h1.173v-4.773c0-1.118.816-1.909 1.731-1.909.889 0 1.511.582 1.511 1.452v5.23h1.193v-4.972c0-.984.617-1.71 1.69-1.71.836 0 1.552.443 1.552 1.571v5.111h1.173v-5.111c0-1.795-.965-2.625-2.327-2.625-1.094 0-1.894.502-2.287 1.293h-.079c-.378-.816-1.044-1.293-2.049-1.293-.994 0-1.73.477-2.048 1.293h-.099v-1.193h-1.134v7.636Zm15.37.159c1.551 0 2.684-.776 3.042-1.929l-1.133-.318c-.298.795-.989 1.193-1.909 1.193-1.377 0-2.327-.89-2.382-2.525h5.544v-.498c0-2.843-1.691-3.818-3.281-3.818-2.069 0-3.441 1.631-3.441 3.977 0 2.347 1.352 3.918 3.56 3.918Zm-2.382-4.594c.08-1.188.92-2.247 2.263-2.247 1.272 0 2.088.955 2.088 2.247h-4.351Zm8.502-.159c0-1.332.825-2.088 1.949-2.088 1.088 0 1.75.711 1.75 1.909v4.773h1.173v-4.852c0-1.949-1.039-2.884-2.585-2.884-1.154 0-1.87.517-2.227 1.293h-.1v-1.193h-1.133v7.636h1.173v-4.594Zm11.829 1.472c0 1.432-1.094 2.088-1.969 2.088-.975 0-1.671-.716-1.671-1.83v-4.772h-1.173v4.852c0 1.949 1.034 2.883 2.466 2.883 1.153 0 1.909-.616 2.267-1.392h.08v1.293h1.173v-7.636h-1.173v4.514Zm10.58-4.514h-1.63v-1.83h-1.174v1.83h-1.153v.994h1.153v4.773c0 1.332 1.074 1.968 2.069 1.968.437 0 .715-.079.875-.139l-.239-1.054c-.1.02-.259.06-.517.06-.517 0-1.014-.159-1.014-1.154v-4.454h1.63v-.994Zm4.785 7.795c2.069 0 3.461-1.571 3.461-3.937 0-2.387-1.392-3.958-3.461-3.958-2.068 0-3.46 1.571-3.46 3.958 0 2.366 1.392 3.937 3.46 3.937Zm0-1.054c-1.571 0-2.286-1.352-2.286-2.883 0-1.532.715-2.904 2.286-2.904 1.571 0 2.287 1.372 2.287 2.904 0 1.531-.716 2.883-2.287 2.883ZM45.484 150.075c-.368-1.084-1.193-1.81-2.705-1.81-1.61 0-2.804.915-2.804 2.208 0 1.054.627 1.76 2.029 2.088l1.273.298c.77.179 1.133.547 1.133 1.074 0 .656-.696 1.193-1.79 1.193-.96 0-1.56-.413-1.77-1.233l-1.113.278c.273 1.298 1.342 1.989 2.903 1.989 1.775 0 2.983-.969 2.983-2.287 0-1.064-.666-1.735-2.028-2.068l-1.134-.278c-.905-.224-1.312-.527-1.312-1.114 0-.656.696-1.134 1.63-1.134 1.024 0 1.447.567 1.651 1.094l1.054-.298Zm5.107 6.085c1.551 0 2.685-.776 3.043-1.929l-1.134-.318c-.298.795-.99 1.193-1.909 1.193-1.377 0-2.327-.89-2.381-2.525h5.543v-.498c0-2.843-1.69-3.818-3.281-3.818-2.069 0-3.44 1.631-3.44 3.977 0 2.347 1.352 3.918 3.559 3.918Zm-2.381-4.594c.08-1.188.92-2.247 2.262-2.247 1.272 0 2.088.955 2.088 2.247h-4.35Zm8.501-5.747h-1.173v10.182h1.173v-10.182Zm5.35 10.341c1.552 0 2.685-.776 3.043-1.929l-1.133-.318c-.298.795-.99 1.193-1.91 1.193-1.376 0-2.326-.89-2.38-2.525h5.543v-.498c0-2.843-1.69-3.818-3.282-3.818-2.068 0-3.44 1.631-3.44 3.977 0 2.347 1.352 3.918 3.56 3.918Zm-2.38-4.594c.079-1.188.92-2.247 2.261-2.247 1.273 0 2.089.955 2.089 2.247h-4.35Zm10.43 4.594c1.69 0 2.804-1.034 3.002-2.386H71.94c-.218.835-.915 1.332-1.83 1.332-1.391 0-2.286-1.153-2.286-2.923 0-1.73.915-2.864 2.287-2.864 1.034 0 1.65.637 1.83 1.333h1.172c-.198-1.432-1.411-2.387-3.022-2.387-2.068 0-3.44 1.631-3.44 3.958 0 2.286 1.312 3.937 3.46 3.937Zm8.039-7.795h-1.63v-1.83h-1.174v1.83h-1.154v.994h1.154v4.773c0 1.332 1.074 1.968 2.068 1.968.438 0 .716-.079.875-.139l-.239-1.054c-.1.02-.258.06-.517.06-.517 0-1.014-.159-1.014-1.154v-4.454h1.63v-.994Zm8.804 7.795c1.69 0 2.804-1.034 3.003-2.386h-1.173c-.219.835-.915 1.332-1.83 1.332-1.392 0-2.286-1.153-2.286-2.923 0-1.73.914-2.864 2.286-2.864 1.035 0 1.651.637 1.83 1.333h1.173c-.199-1.432-1.412-2.387-3.022-2.387-2.069 0-3.44 1.631-3.44 3.958 0 2.286 1.312 3.937 3.46 3.937Zm7.82 0c2.069 0 3.461-1.571 3.461-3.937 0-2.387-1.392-3.958-3.46-3.958s-3.46 1.571-3.46 3.958c0 2.366 1.392 3.937 3.46 3.937Zm0-1.054c-1.57 0-2.286-1.352-2.286-2.883 0-1.532.716-2.904 2.287-2.904 1.57 0 2.287 1.372 2.287 2.904 0 1.531-.716 2.883-2.287 2.883Zm5.252.895h1.173v-4.773c0-1.118.816-1.909 1.73-1.909.89 0 1.512.582 1.512 1.452v5.23h1.193v-4.972c0-.984.616-1.71 1.69-1.71.836 0 1.551.443 1.551 1.571v5.111h1.174v-5.111c0-1.795-.965-2.625-2.327-2.625-1.094 0-1.894.502-2.287 1.293h-.079c-.378-.816-1.044-1.293-2.049-1.293-.994 0-1.73.477-2.048 1.293h-.099v-1.193h-1.134v7.636Zm12.168 0h1.173v-4.773c0-1.118.816-1.909 1.73-1.909.89 0 1.512.582 1.512 1.452v5.23h1.193v-4.972c0-.984.616-1.71 1.69-1.71.836 0 1.551.443 1.551 1.571v5.111h1.174v-5.111c0-1.795-.965-2.625-2.327-2.625-1.094 0-1.894.502-2.287 1.293h-.079c-.378-.816-1.045-1.293-2.049-1.293-.994 0-1.73.477-2.048 1.293h-.099v-1.193h-1.134v7.636Zm15.27.159c2.068 0 3.46-1.571 3.46-3.937 0-2.387-1.392-3.958-3.46-3.958s-3.46 1.571-3.46 3.958c0 2.366 1.392 3.937 3.46 3.937Zm0-1.054c-1.571 0-2.287-1.352-2.287-2.883 0-1.532.716-2.904 2.287-2.904s2.287 1.372 2.287 2.904c0 1.531-.716 2.883-2.287 2.883Zm6.425-3.699c0-1.332.825-2.088 1.949-2.088 1.088 0 1.75.711 1.75 1.909v4.773h1.173v-4.852c0-1.949-1.039-2.884-2.585-2.884-1.154 0-1.87.517-2.228 1.293h-.099v-1.193h-1.134v7.636h1.174v-4.594Zm8.766 3.202h-1.273l-.059.557c-.145 1.347-.428 2.689-.557 3.321h.895c.238-.676.745-2.208.914-3.341l.08-.537Zm6.111 4.256h1.174v-4.037h.099c.258.417.756 1.332 2.227 1.332 1.909 0 3.242-1.531 3.242-3.957 0-2.407-1.333-3.938-3.262-3.938-1.491 0-1.949.915-2.207 1.313h-.139v-1.213h-1.134v10.5Zm1.154-6.682c0-1.71.755-2.864 2.187-2.864 1.492 0 2.227 1.253 2.227 2.864 0 1.63-.755 2.923-2.227 2.923-1.412 0-2.187-1.193-2.187-2.923Zm7.377 3.818h1.174v-4.832c0-1.035.815-1.79 1.929-1.79a3.6 3.6 0 0 1 .716.079v-1.193a11.26 11.26 0 0 0-.617-.02c-.915 0-1.71.517-1.988 1.273h-.08v-1.153h-1.134v7.636Zm8.179.159c1.551 0 2.684-.776 3.042-1.929l-1.133-.318c-.298.795-.989 1.193-1.909 1.193-1.377 0-2.327-.89-2.382-2.525h5.544v-.498c0-2.843-1.691-3.818-3.282-3.818-2.068 0-3.44 1.631-3.44 3.977 0 2.347 1.352 3.918 3.56 3.918Zm-2.382-4.594c.08-1.188.92-2.247 2.262-2.247 1.273 0 2.089.955 2.089 2.247h-4.351Zm10.729-3.201h-1.71v-.776c0-.756.318-1.153 1.094-1.153.338 0 .537.079.656.119l.338-1.014c-.179-.08-.537-.199-1.114-.199-1.093 0-2.147.656-2.147 1.969v1.054h-1.233v.994h1.233v6.642h1.173v-6.642h1.71v-.994Zm4.432 7.795c2.068 0 3.46-1.571 3.46-3.937 0-2.387-1.392-3.958-3.46-3.958s-3.46 1.571-3.46 3.958c0 2.366 1.392 3.937 3.46 3.937Zm0-1.054c-1.571 0-2.287-1.352-2.287-2.883 0-1.532.716-2.904 2.287-2.904s2.287 1.372 2.287 2.904c0 1.531-.716 2.883-2.287 2.883Zm5.251.895h1.174v-4.832c0-1.035.815-1.79 1.929-1.79a3.6 3.6 0 0 1 .716.079v-1.193a11.26 11.26 0 0 0-.617-.02c-.915 0-1.71.517-1.988 1.273h-.08v-1.153h-1.134v7.636Zm5.209 0h1.174v-4.773c0-1.118.815-1.909 1.73-1.909.89 0 1.511.582 1.511 1.452v5.23h1.193v-4.972c0-.984.617-1.71 1.691-1.71.835 0 1.551.443 1.551 1.571v5.111h1.173v-5.111c0-1.795-.964-2.625-2.327-2.625-1.093 0-1.894.502-2.286 1.293h-.08c-.378-.816-1.044-1.293-2.048-1.293-.995 0-1.73.477-2.049 1.293h-.099v-1.193h-1.134v7.636Zm14.416.179c1.332 0 2.028-.716 2.267-1.213h.059v1.034h1.174v-5.031c0-2.426-1.85-2.705-2.824-2.705-1.154 0-2.466.398-3.063 1.79l1.114.398c.258-.557.87-1.154 1.989-1.154 1.078 0 1.61.572 1.61 1.551v.04c0 .567-.576.517-1.968.696-1.417.184-2.964.497-2.964 2.247 0 1.492 1.154 2.347 2.606 2.347Zm.179-1.054c-.935 0-1.611-.418-1.611-1.233 0-.895.815-1.173 1.73-1.293.497-.059 1.829-.198 2.028-.437v1.074c0 .954-.755 1.889-2.147 1.889Zm8.783-6.761h-1.631v-1.83h-1.173v1.83h-1.153v.994h1.153v4.773c0 1.332 1.074 1.968 2.068 1.968.438 0 .716-.079.875-.139l-.238-1.054c-.1.02-.259.06-.517.06-.517 0-1.015-.159-1.015-1.154v-4.454h1.631v-.994Zm5.086 0h-1.631v-1.83h-1.173v1.83h-1.153v.994h1.153v4.773c0 1.332 1.074 1.968 2.068 1.968.438 0 .716-.079.875-.139l-.238-1.054c-.1.02-.259.06-.517.06-.517 0-1.015-.159-1.015-1.154v-4.454h1.631v-.994Zm4.885 7.795c1.551 0 2.684-.776 3.042-1.929l-1.133-.318c-.299.795-.99 1.193-1.909 1.193-1.377 0-2.327-.89-2.382-2.525h5.544v-.498c0-2.843-1.691-3.818-3.282-3.818-2.068 0-3.44 1.631-3.44 3.977 0 2.347 1.352 3.918 3.56 3.918Zm-2.382-4.594c.08-1.188.92-2.247 2.262-2.247 1.273 0 2.088.955 2.088 2.247h-4.35Zm10.212 4.594c1.472 0 1.969-.915 2.227-1.332h.139v1.173h1.134v-10.182h-1.173v3.759h-.1c-.258-.398-.716-1.313-2.207-1.313-1.929 0-3.262 1.531-3.262 3.938 0 2.426 1.333 3.957 3.242 3.957Zm.159-1.054c-1.472 0-2.227-1.293-2.227-2.923 0-1.611.736-2.864 2.227-2.864 1.432 0 2.188 1.154 2.188 2.864 0 1.73-.776 2.923-2.188 2.923Zm12.911-6.741h-1.63v-1.83h-1.174v1.83h-1.153v.994h1.153v4.773c0 1.332 1.074 1.968 2.068 1.968.438 0 .716-.079.875-.139l-.238-1.054c-.1.02-.259.06-.517.06-.517 0-1.014-.159-1.014-1.154v-4.454h1.63v-.994Zm1.765 7.636h1.173v-7.636h-1.173v7.636Zm.597-8.909c.457 0 .835-.358.835-.796 0-.437-.378-.795-.835-.795-.458 0-.835.358-.835.795 0 .438.377.796.835.796Zm2.725 8.909h1.174v-4.773c0-1.118.815-1.909 1.73-1.909.89 0 1.511.582 1.511 1.452v5.23h1.193v-4.972c0-.984.617-1.71 1.691-1.71.835 0 1.551.443 1.551 1.571v5.111h1.173v-5.111c0-1.795-.964-2.625-2.327-2.625-1.093 0-1.894.502-2.287 1.293h-.079c-.378-.816-1.044-1.293-2.048-1.293-.995 0-1.73.477-2.049 1.293h-.099v-1.193h-1.134v7.636Zm15.37.159c1.551 0 2.685-.776 3.043-1.929l-1.134-.318c-.298.795-.989 1.193-1.909 1.193-1.377 0-2.327-.89-2.381-2.525h5.543v-.498c0-2.843-1.69-3.818-3.281-3.818-2.068 0-3.441 1.631-3.441 3.977 0 2.347 1.353 3.918 3.56 3.918Zm-2.381-4.594c.079-1.188.919-2.247 2.262-2.247 1.272 0 2.088.955 2.088 2.247h-4.35Zm11.265 4.435h1.174v-4.832c0-1.035.815-1.79 1.929-1.79.313 0 .636.059.715.079v-1.193c-.134-.01-.442-.02-.616-.02-.915 0-1.71.517-1.989 1.273h-.079v-1.153h-1.134v7.636Zm7.456.179c1.333 0 2.029-.716 2.267-1.213h.06v1.034h1.173v-5.031c0-2.426-1.849-2.705-2.823-2.705-1.154 0-2.466.398-3.063 1.79l1.114.398c.258-.557.87-1.154 1.988-1.154 1.079 0 1.611.572 1.611 1.551v.04c0 .567-.577.517-1.969.696-1.416.184-2.963.497-2.963 2.247 0 1.492 1.154 2.347 2.605 2.347Zm.179-1.054c-.934 0-1.61-.418-1.61-1.233 0-.895.815-1.173 1.73-1.293.497-.059 1.829-.198 2.028-.437v1.074c0 .954-.756 1.889-2.148 1.889Zm6.636-3.719c0-1.332.826-2.088 1.949-2.088 1.089 0 1.75.711 1.75 1.909v4.773h1.173v-4.852c0-1.949-1.039-2.884-2.585-2.884-1.153 0-1.869.517-2.227 1.293h-.1v-1.193h-1.133v7.636h1.173v-4.594Zm10.099 7.617c1.829 0 3.301-.836 3.301-2.804v-7.855h-1.134v1.213h-.119c-.258-.398-.736-1.313-2.227-1.313-1.929 0-3.262 1.531-3.262 3.878 0 2.386 1.393 3.739 3.242 3.739 1.491 0 1.969-.875 2.227-1.293h.1v1.551c0 1.273-.895 1.85-2.128 1.85-1.387 0-1.874-.731-2.188-1.154l-.934.656c.477.801 1.417 1.532 3.122 1.532Zm-.04-4.196c-1.472 0-2.227-1.114-2.227-2.705 0-1.551.736-2.804 2.227-2.804 1.432 0 2.188 1.154 2.188 2.804 0 1.69-.776 2.705-2.188 2.705Zm8.69 1.332c1.552 0 2.685-.776 3.043-1.929l-1.134-.318c-.298.795-.989 1.193-1.909 1.193-1.377 0-2.326-.89-2.381-2.525h5.543v-.498c0-2.843-1.69-3.818-3.281-3.818-2.068 0-3.44 1.631-3.44 3.977 0 2.347 1.352 3.918 3.559 3.918Zm-2.381-4.594c.08-1.188.92-2.247 2.262-2.247 1.273 0 2.088.955 2.088 2.247h-4.35Zm12.737-1.491c-.368-1.084-1.193-1.81-2.704-1.81-1.611 0-2.804.915-2.804 2.208 0 1.054.626 1.76 2.028 2.088l1.273.298c.77.179 1.133.547 1.133 1.074 0 .656-.696 1.193-1.789 1.193-.96 0-1.562-.413-1.77-1.233l-1.114.278c.273 1.298 1.342 1.989 2.903 1.989 1.775 0 2.983-.969 2.983-2.287 0-1.064-.666-1.735-2.028-2.068l-1.134-.278c-.904-.224-1.312-.527-1.312-1.114 0-.656.696-1.134 1.631-1.134 1.024 0 1.446.567 1.65 1.094l1.054-.298Zm3.656 4.534h-1.273l-.06.557c-.144 1.347-.427 2.689-.557 3.321h.895c.239-.676.746-2.208.915-3.341l.08-.537Zm9.213 1.551c2.068 0 3.46-1.571 3.46-3.937 0-2.387-1.392-3.958-3.46-3.958s-3.46 1.571-3.46 3.958c0 2.366 1.392 3.937 3.46 3.937Zm0-1.054c-1.571 0-2.287-1.352-2.287-2.883 0-1.532.716-2.904 2.287-2.904s2.287 1.372 2.287 2.904c0 1.531-.716 2.883-2.287 2.883Zm5.251.895h1.174v-4.832c0-1.035.815-1.79 1.929-1.79a3.6 3.6 0 0 1 .716.079v-1.193a11.26 11.26 0 0 0-.617-.02c-.915 0-1.71.517-1.989 1.273h-.079v-1.153h-1.134v7.636Zm-293.726 24h1.173v-4.773c0-1.118.816-1.909 1.73-1.909.89 0 1.512.582 1.512 1.452v5.23h1.193v-4.972c0-.984.616-1.71 1.69-1.71.835 0 1.551.443 1.551 1.571v5.111h1.174v-5.111c0-1.795-.965-2.625-2.327-2.625-1.094 0-1.894.502-2.287 1.293h-.08c-.378-.816-1.044-1.293-2.048-1.293-.994 0-1.73.477-2.048 1.293h-.1v-1.193h-1.133v7.636Zm14.415.179c1.332 0 2.028-.716 2.267-1.213h.06v1.034h1.173v-5.031c0-2.426-1.85-2.705-2.824-2.705-1.153 0-2.466.398-3.062 1.79l1.113.398c.259-.557.87-1.154 1.989-1.154 1.079 0 1.61.572 1.61 1.551v.04c0 .567-.576.517-1.968.696-1.417.184-2.963.497-2.963 2.247 0 1.492 1.153 2.347 2.605 2.347Zm.179-1.054c-.935 0-1.61-.418-1.61-1.233 0-.895.815-1.173 1.73-1.293.496-.059 1.829-.198 2.028-.437v1.074c0 .954-.756 1.889-2.148 1.889Zm6.636-3.719c0-1.332.825-2.088 1.949-2.088 1.088 0 1.75.711 1.75 1.909v4.773h1.173v-4.852c0-1.949-1.04-2.884-2.585-2.884-1.154 0-1.87.517-2.228 1.293h-.099v-1.193h-1.133v7.636h1.173v-4.594Zm11.828 1.472c0 1.432-1.093 2.088-1.968 2.088-.975 0-1.67-.716-1.67-1.83v-4.772H68.32v4.852c0 1.949 1.034 2.883 2.466 2.883 1.153 0 1.909-.616 2.267-1.392h.08v1.293h1.173v-7.636h-1.174v4.514Zm5.57 3.301c1.332 0 2.028-.716 2.267-1.213h.06v1.034h1.173v-5.031c0-2.426-1.85-2.705-2.824-2.705-1.153 0-2.466.398-3.063 1.79l1.114.398c.259-.557.87-1.154 1.989-1.154 1.079 0 1.61.572 1.61 1.551v.04c0 .567-.576.517-1.968.696-1.417.184-2.963.497-2.963 2.247 0 1.492 1.153 2.347 2.605 2.347Zm.179-1.054c-.935 0-1.611-.418-1.611-1.233 0-.895.815-1.173 1.73-1.293.497-.059 1.83-.198 2.029-.437v1.074c0 .954-.756 1.889-2.148 1.889Zm6.636-9.307h-1.174v10.182h1.174v-10.182Zm3.322 0h-1.173v10.182h1.173v-10.182Zm2.905 13.046c1.058 0 1.804-.562 2.247-1.75l3.251-8.731-1.282-.019-2.108 6.085h-.08l-2.108-6.085h-1.273l2.824 7.676-.219.596c-.427 1.164-.954 1.273-1.81 1.054l-.297 1.034c.119.06.457.14.855.14Zm14.19-2.705c1.551 0 2.684-.776 3.042-1.929l-1.133-.318c-.298.795-.99 1.193-1.909 1.193-1.377 0-2.327-.89-2.382-2.525h5.544v-.498c0-2.843-1.691-3.818-3.282-3.818-2.068 0-3.44 1.631-3.44 3.977 0 2.347 1.352 3.918 3.56 3.918Zm-2.382-4.594c.08-1.188.92-2.247 2.262-2.247 1.273 0 2.088.955 2.088 2.247h-4.35Zm8.502-.159c0-1.332.825-2.088 1.949-2.088 1.088 0 1.75.711 1.75 1.909v4.773h1.173v-4.852c0-1.949-1.039-2.884-2.585-2.884-1.154 0-1.87.517-2.228 1.293h-.099v-1.193h-1.134v7.636h1.174v-4.594Zm10.337-3.042h-1.631v-1.83h-1.173v1.83h-1.153v.994h1.153v4.773c0 1.332 1.074 1.968 2.068 1.968.438 0 .716-.079.875-.139l-.238-1.054c-.1.02-.259.06-.518.06-.517 0-1.014-.159-1.014-1.154v-4.454h1.631v-.994Zm4.885 7.795c1.551 0 2.684-.776 3.042-1.929l-1.133-.318c-.299.795-.99 1.193-1.909 1.193-1.378 0-2.327-.89-2.382-2.525h5.543v-.498c0-2.843-1.69-3.818-3.281-3.818-2.068 0-3.44 1.631-3.44 3.977 0 2.347 1.352 3.918 3.56 3.918Zm-2.382-4.594c.08-1.188.92-2.247 2.262-2.247 1.273 0 2.088.955 2.088 2.247h-4.35Zm7.328 4.435h1.174v-4.832c0-1.035.815-1.79 1.929-1.79.313 0 .636.059.715.079v-1.193c-.134-.01-.442-.02-.616-.02-.915 0-1.71.517-1.989 1.273h-.079v-1.153h-1.134v7.636Zm11.394.179c1.332 0 2.028-.716 2.267-1.213h.06v1.034h1.173v-5.031c0-2.426-1.85-2.705-2.824-2.705-1.153 0-2.466.398-3.062 1.79l1.113.398c.259-.557.87-1.154 1.989-1.154 1.079 0 1.611.572 1.611 1.551v.04c0 .567-.577.517-1.969.696-1.417.184-2.963.497-2.963 2.247 0 1.492 1.153 2.347 2.605 2.347Zm.179-1.054c-.935 0-1.611-.418-1.611-1.233 0-.895.815-1.173 1.73-1.293.497-.059 1.83-.198 2.029-.437v1.074c0 .954-.756 1.889-2.148 1.889Zm12.502 1.034c1.691 0 2.804-1.034 3.003-2.386h-1.173c-.219.835-.915 1.332-1.83 1.332-1.392 0-2.287-1.153-2.287-2.923 0-1.73.915-2.864 2.287-2.864 1.034 0 1.651.637 1.83 1.333h1.173c-.199-1.432-1.412-2.387-3.023-2.387-2.068 0-3.44 1.631-3.44 3.958 0 2.286 1.312 3.937 3.46 3.937Zm9.531-3.281c0 1.432-1.094 2.088-1.969 2.088-.974 0-1.67-.716-1.67-1.83v-4.772h-1.174v4.852c0 1.949 1.034 2.883 2.466 2.883 1.154 0 1.909-.616 2.267-1.392h.08v1.293h1.173v-7.636h-1.173v4.514Zm8.731-2.804c-.368-1.084-1.193-1.81-2.704-1.81-1.611 0-2.804.915-2.804 2.208 0 1.054.626 1.76 2.028 2.088l1.273.298c.77.179 1.133.547 1.133 1.074 0 .656-.696 1.193-1.79 1.193-.959 0-1.561-.413-1.769-1.233l-1.114.278c.273 1.298 1.342 1.989 2.903 1.989 1.775 0 2.983-.969 2.983-2.287 0-1.064-.666-1.735-2.028-2.068l-1.134-.278c-.904-.224-1.312-.527-1.312-1.114 0-.656.696-1.134 1.631-1.134 1.024 0 1.446.567 1.65 1.094l1.054-.298Zm5.226-1.71h-1.63v-1.83h-1.173v1.83h-1.154v.994h1.154v4.773c0 1.332 1.073 1.968 2.068 1.968.437 0 .716-.079.875-.139l-.239-1.054c-.099.02-.258.06-.517.06-.517 0-1.014-.159-1.014-1.154v-4.454h1.63v-.994Zm4.786 7.795c2.068 0 3.46-1.571 3.46-3.937 0-2.387-1.392-3.958-3.46-3.958-2.069 0-3.461 1.571-3.461 3.958 0 2.366 1.392 3.937 3.461 3.937Zm0-1.054c-1.571 0-2.287-1.352-2.287-2.883 0-1.532.716-2.904 2.287-2.904s2.287 1.372 2.287 2.904c0 1.531-.716 2.883-2.287 2.883Zm5.251.895h1.173v-4.773c0-1.118.816-1.909 1.73-1.909.89 0 1.512.582 1.512 1.452v5.23h1.193v-4.972c0-.984.616-1.71 1.69-1.71.835 0 1.551.443 1.551 1.571v5.111h1.174v-5.111c0-1.795-.965-2.625-2.327-2.625-1.094 0-1.894.502-2.287 1.293h-.08c-.377-.816-1.044-1.293-2.048-1.293-.994 0-1.73.477-2.048 1.293h-.1v-1.193h-1.133v7.636Zm18.989.159c1.471 0 1.969-.915 2.227-1.332h.139v1.173h1.134v-10.182h-1.173v3.759h-.1c-.258-.398-.716-1.313-2.207-1.313-1.929 0-3.262 1.531-3.262 3.938 0 2.426 1.333 3.957 3.242 3.957Zm.159-1.054c-1.472 0-2.227-1.293-2.227-2.923 0-1.611.735-2.864 2.227-2.864 1.432 0 2.187 1.154 2.187 2.864 0 1.73-.775 2.923-2.187 2.923Zm7.9 1.074c1.332 0 2.028-.716 2.267-1.213h.06v1.034h1.173v-5.031c0-2.426-1.85-2.705-2.824-2.705-1.153 0-2.466.398-3.063 1.79l1.114.398c.259-.557.87-1.154 1.989-1.154 1.079 0 1.611.572 1.611 1.551v.04c0 .567-.577.517-1.969.696-1.417.184-2.963.497-2.963 2.247 0 1.492 1.153 2.347 2.605 2.347Zm.179-1.054c-.935 0-1.611-.418-1.611-1.233 0-.895.815-1.173 1.73-1.293.497-.059 1.83-.198 2.029-.437v1.074c0 .954-.756 1.889-2.148 1.889Zm8.783-6.761h-1.63v-1.83h-1.174v1.83h-1.153v.994h1.153v4.773c0 1.332 1.074 1.968 2.069 1.968.437 0 .715-.079.875-.139l-.239-1.054c-.1.02-.259.06-.517.06-.517 0-1.014-.159-1.014-1.154v-4.454h1.63v-.994Zm4.885 7.795c1.551 0 2.685-.776 3.043-1.929l-1.134-.318c-.298.795-.989 1.193-1.909 1.193-1.377 0-2.327-.89-2.381-2.525h5.543v-.498c0-2.843-1.69-3.818-3.281-3.818-2.069 0-3.441 1.631-3.441 3.977 0 2.347 1.353 3.918 3.56 3.918Zm-2.381-4.594c.079-1.188.919-2.247 2.262-2.247 1.272 0 2.088.955 2.088 2.247h-4.35Zm11.265 4.435h1.173v-4.832c0-1.035.816-1.79 1.929-1.79.314 0 .637.059.716.079v-1.193c-.134-.01-.442-.02-.616-.02-.915 0-1.71.517-1.989 1.273h-.079v-1.153h-1.134v7.636Zm7.456.179c1.333 0 2.029-.716 2.267-1.213h.06v1.034h1.173v-5.031c0-2.426-1.849-2.705-2.824-2.705-1.153 0-2.465.398-3.062 1.79l1.114.398c.258-.557.87-1.154 1.988-1.154 1.079 0 1.611.572 1.611 1.551v.04c0 .567-.577.517-1.969.696-1.417.184-2.963.497-2.963 2.247 0 1.492 1.154 2.347 2.605 2.347Zm.179-1.054c-.934 0-1.61-.418-1.61-1.233 0-.895.815-1.173 1.73-1.293.497-.059 1.829-.198 2.028-.437v1.074c0 .954-.756 1.889-2.148 1.889Zm6.636-3.719c0-1.332.825-2.088 1.949-2.088 1.089 0 1.75.711 1.75 1.909v4.773h1.173v-4.852c0-1.949-1.039-2.884-2.585-2.884-1.153 0-1.869.517-2.227 1.293h-.1v-1.193H252.7v7.636h1.173v-4.594Zm10.099 7.617c1.829 0 3.301-.836 3.301-2.804v-7.855h-1.134v1.213h-.119c-.259-.398-.736-1.313-2.227-1.313-1.929 0-3.262 1.531-3.262 3.878 0 2.386 1.392 3.739 3.242 3.739 1.491 0 1.969-.875 2.227-1.293h.1v1.551c0 1.273-.895 1.85-2.128 1.85-1.387 0-1.875-.731-2.188-1.154l-.934.656c.477.801 1.416 1.532 3.122 1.532Zm-.04-4.196c-1.472 0-2.227-1.114-2.227-2.705 0-1.551.735-2.804 2.227-2.804 1.432 0 2.187 1.154 2.187 2.804 0 1.69-.775 2.705-2.187 2.705Zm8.69 1.332c1.551 0 2.685-.776 3.043-1.929l-1.134-.318c-.298.795-.989 1.193-1.909 1.193-1.377 0-2.326-.89-2.381-2.525h5.543v-.498c0-2.843-1.69-3.818-3.281-3.818-2.068 0-3.44 1.631-3.44 3.977 0 2.347 1.352 3.918 3.559 3.918Zm-2.381-4.594c.079-1.188.92-2.247 2.262-2.247 1.273 0 2.088.955 2.088 2.247h-4.35Zm14.368 4.594c2.068 0 3.46-1.571 3.46-3.937 0-2.387-1.392-3.958-3.46-3.958s-3.46 1.571-3.46 3.958c0 2.366 1.392 3.937 3.46 3.937Zm0-1.054c-1.571 0-2.287-1.352-2.287-2.883 0-1.532.716-2.904 2.287-2.904s2.287 1.372 2.287 2.904c0 1.531-.716 2.883-2.287 2.883Zm8.652-6.741h-1.711v-.776c0-.756.319-1.153 1.094-1.153.338 0 .537.079.656.119l.338-1.014c-.179-.08-.537-.199-1.113-.199-1.094 0-2.148.656-2.148 1.969v1.054h-1.233v.994h1.233v6.642h1.173v-6.642h1.711v-.994Zm6.337 10.5c1.059 0 1.805-.562 2.247-1.75l3.252-8.731-1.283-.019-2.108 6.085h-.079l-2.108-6.085h-1.273l2.824 7.676-.219.596c-.428 1.164-.955 1.273-1.81 1.054l-.298 1.034c.119.06.457.14.855.14Zm9.88-2.705c2.068 0 3.46-1.571 3.46-3.937 0-2.387-1.392-3.958-3.46-3.958s-3.46 1.571-3.46 3.958c0 2.366 1.392 3.937 3.46 3.937Zm0-1.054c-1.571 0-2.287-1.352-2.287-2.883 0-1.532.716-2.904 2.287-2.904s2.287 1.372 2.287 2.904c0 1.531-.716 2.883-2.287 2.883Zm10.064-2.227c0 1.432-1.094 2.088-1.969 2.088-.975 0-1.671-.716-1.671-1.83v-4.772h-1.173v4.852c0 1.949 1.034 2.883 2.466 2.883 1.153 0 1.909-.616 2.267-1.392h.08v1.293h1.173v-7.636h-1.173v4.514Zm3.322 3.122h1.173v-4.832c0-1.035.816-1.79 1.929-1.79.313 0 .637.059.716.079v-1.193c-.134-.01-.442-.02-.616-.02-.915 0-1.711.517-1.989 1.273h-.08v-1.153h-1.133v7.636Zm12.249.159c2.068 0 3.46-1.571 3.46-3.937 0-2.387-1.392-3.958-3.46-3.958-2.069 0-3.461 1.571-3.461 3.958 0 2.366 1.392 3.937 3.461 3.937Zm0-1.054c-1.571 0-2.287-1.352-2.287-2.883 0-1.532.716-2.904 2.287-2.904s2.287 1.372 2.287 2.904c0 1.531-.716 2.883-2.287 2.883Zm6.721.895h1.154l1.67-5.867h.119l1.671 5.867h1.153l2.327-7.636h-1.233l-1.651 5.826h-.079l-1.611-5.826h-1.253l-1.63 5.846h-.08l-1.65-5.846h-1.233l2.326 7.636Zm10.818-4.594c0-1.332.826-2.088 1.949-2.088 1.089 0 1.75.711 1.75 1.909v4.773h1.174v-4.852c0-1.949-1.039-2.884-2.586-2.884-1.153 0-1.869.517-2.227 1.293h-.099v-1.193h-1.134v7.636h1.173v-4.594Zm7.872 4.674a.898.898 0 0 0 .895-.895.897.897 0 0 0-.895-.895.897.897 0 0 0-.895.895c0 .492.403.895.895.895Z" fill="#343741" />
			</g>
			<g filter="url(#e)">
				<path fill="#F5F7FA" d="M23.001 203.001h359.998v56H23.001z" />
				<g clip-path="url(#f)">
					<path d="M47.001 235.001a4 4 0 1 0 0-8 4 4 0 0 0 0 8Z" fill="#69707D" />
					<path d="M63.001 235.001a4 4 0 1 0 0-8 4 4 0 0 0 0 8Z" fill="#00BFB3" />
					<path d="M79.001 235.001a4 4 0 1 0 0-8 4 4 0 0 0 0 8ZM95.001 235.001a4 4 0 1 0 0-8 4 4 0 0 0 0 8Z" fill="#69707D" />
				</g>
				<g clip-path="url(#g)">
					<path d="M321.048 228.566h1.27c-.039-1.397-1.274-2.412-3.047-2.412-1.752 0-3.094 1.002-3.094 2.506 0 1.215.869 1.926 2.271 2.305l1.032.282c.933.247 1.653.554 1.653 1.329 0 .853-.814 1.415-1.935 1.415-1.014 0-1.858-.452-1.934-1.402h-1.321c.085 1.581 1.308 2.557 3.264 2.557 2.05 0 3.23-1.078 3.23-2.557 0-1.572-1.402-2.182-2.51-2.455l-.852-.221c-.682-.175-1.59-.494-1.585-1.33 0-.741.677-1.291 1.751-1.291 1.001 0 1.713.469 1.807 1.274Zm2.86 6.435h1.274v-2.322l.635-.635 2.225 2.957h1.564l-2.83-3.737 2.651-2.808h-1.526l-2.608 2.769h-.111v-4.951h-1.274v8.727Zm6.68 0h1.274v-6.545h-1.274v6.545Zm.643-7.555c.439 0 .806-.341.806-.759s-.367-.763-.806-.763c-.443 0-.805.345-.805.763 0 .418.362.759.805.759Zm2.345 10.01h1.274v-3.473h.077c.23.417.699 1.146 1.892 1.146 1.585 0 2.736-1.27 2.736-3.388 0-2.122-1.168-3.371-2.749-3.371-1.214 0-1.653.742-1.879 1.147h-.106v-1.061h-1.245v9Zm1.249-5.728c0-1.368.596-2.275 1.709-2.275 1.154 0 1.734.976 1.734 2.275 0 1.313-.597 2.314-1.734 2.314-1.096 0-1.709-.937-1.709-2.314Zm12.389-3.272h-1.343v-1.569h-1.274v1.569h-.959v1.022h.959v3.865c-.004 1.189.904 1.765 1.909 1.743.405-.004.678-.081.827-.136l-.23-1.053c-.085.017-.243.056-.448.056-.413 0-.784-.137-.784-.874v-3.601h1.343v-1.022Zm4.096 6.677c1.845 0 3.051-1.351 3.051-3.375 0-2.037-1.206-3.388-3.051-3.388-1.845 0-3.051 1.351-3.051 3.388 0 2.024 1.206 3.375 3.051 3.375Zm.004-1.07c-1.206 0-1.768-1.052-1.768-2.309 0-1.253.562-2.318 1.768-2.318 1.198 0 1.76 1.065 1.76 2.318 0 1.257-.562 2.309-1.76 2.309Zm8.616-1.777c.004 1.113-.823 1.641-1.539 1.641-.788 0-1.334-.571-1.334-1.462v-4.009h-1.274v4.163c0 1.623.891 2.467 2.148 2.467.984 0 1.653-.52 1.956-1.219h.068v1.134h1.253v-6.545h-1.278v3.83Zm2.99 2.715h1.274v-3.997c0-.857.661-1.475 1.564-1.475.264 0 .563.047.665.077v-1.219a5.198 5.198 0 0 0-.541-.029c-.767 0-1.424.434-1.662 1.137h-.069v-1.039h-1.231v6.545Z" fill="#343741" />
				</g>
			</g>
		</g>
		<path d="m394.999 43.001-12 12v-24l12 12Z" fill="#fff" />
	</g>
	<defs>
		<clipPath id="a">
			<path fill="#fff" d="M0 0h405v310H0z" />
		</clipPath>
		<clipPath id="c">
			<rect x="23.001" y="15.001" width="359.998" height="244" rx="6" fill="#fff" />
		</clipPath>
		<clipPath id="d">
			<path fill="#fff" transform="translate(39.001 91.001)" d="M0 0h327.998v96H0z" />
		</clipPath>
		<clipPath id="f">
			<path fill="#fff" transform="translate(39.001 223.001)" d="M0 0h64v16H0z" />
		</clipPath>
		<clipPath id="g">
			<path d="M314.999 225.001a6 6 0 0 1 6-6h40a6 6 0 0 1 6 6v12a6 6 0 0 1-6 6h-40a6 6 0 0 1-6-6v-12Z" fill="#fff" />
		</clipPath>
		<filter id="b" x="-12" y=".4" width="441.999" height="316.602" filterUnits="userSpaceOnUse" color-interpolation-filters="sRGB">
			<feFlood flood-opacity="0" result="BackgroundImageFix" />
			<feColorMatrix in="SourceAlpha" values="0 0 0 0 0 0 0 0 0 0 0 0 0 0 0 0 0 0 127 0" result="hardAlpha" />
			<feOffset dy="23" />
			<feGaussianBlur stdDeviation="17.5" />
			<feColorMatrix values="0 0 0 0 0 0 0 0 0 0 0 0 0 0 0 0 0 0 0.05 0" />
			<feBlend in2="BackgroundImageFix" result="effect1_dropShadow_21976:315614" />
			<feColorMatrix in="SourceAlpha" values="0 0 0 0 0 0 0 0 0 0 0 0 0 0 0 0 0 0 127 0" result="hardAlpha" />
			<feOffset dy="8.4" />
			<feGaussianBlur stdDeviation="11.5" />
			<feColorMatrix values="0 0 0 0 0 0 0 0 0 0 0 0 0 0 0 0 0 0 0.06 0" />
			<feBlend in2="effect1_dropShadow_21976:315614" result="effect2_dropShadow_21976:315614" />
			<feColorMatrix in="SourceAlpha" values="0 0 0 0 0 0 0 0 0 0 0 0 0 0 0 0 0 0 127 0" result="hardAlpha" />
			<feOffset dy="3.6" />
			<feGaussianBlur stdDeviation="6.5" />
			<feColorMatrix values="0 0 0 0 0 0 0 0 0 0 0 0 0 0 0 0 0 0 0.07 0" />
			<feBlend in2="effect2_dropShadow_21976:315614" result="effect3_dropShadow_21976:315614" />
			<feColorMatrix in="SourceAlpha" values="0 0 0 0 0 0 0 0 0 0 0 0 0 0 0 0 0 0 127 0" result="hardAlpha" />
			<feOffset dy="1" />
			<feGaussianBlur stdDeviation="2.5" />
			<feColorMatrix values="0 0 0 0 0 0 0 0 0 0 0 0 0 0 0 0 0 0 0.1 0" />
			<feBlend in2="effect3_dropShadow_21976:315614" result="effect4_dropShadow_21976:315614" />
			<feBlend in="SourceGraphic" in2="effect4_dropShadow_21976:315614" result="shape" />
		</filter>
		<filter id="e" x="23.001" y="203.001" width="359.998" height="56" filterUnits="userSpaceOnUse" color-interpolation-filters="sRGB">
			<feFlood flood-opacity="0" result="BackgroundImageFix" />
			<feBlend in="SourceGraphic" in2="BackgroundImageFix" result="shape" />
			<feColorMatrix in="SourceAlpha" values="0 0 0 0 0 0 0 0 0 0 0 0 0 0 0 0 0 0 127 0" result="hardAlpha" />
			<feOffset dy="1" />
			<feComposite in2="hardAlpha" operator="arithmetic" k2="-1" k3="1" />
			<feColorMatrix values="0 0 0 0 0.827451 0 0 0 0 0.854902 0 0 0 0 0.901961 0 0 0 1 0" />
			<feBlend in2="shape" result="effect1_innerShadow_21976:315614" />
		</filter>
	</defs>
</svg>
