<svg width="1200" height="551" viewBox="0 0 1200 551" fill="none" xmlns="http://www.w3.org/2000/svg">
<rect width="1200" height="550" transform="translate(0 0.5)" fill="#FAFBFD"/>
<g filter="url(#filter0_dddd_22764_276515)">
<g clip-path="url(#clip0_22764_276515)">
<path d="M372 77.5C372 74.1863 374.686 71.5 378 71.5H822C825.314 71.5 828 74.1863 828 77.5V457.5C828 460.814 825.314 463.5 822 463.5H378C374.686 463.5 372 460.814 372 457.5V77.5Z" fill="white"/>
<g clip-path="url(#clip1_22764_276515)">
<path fill-rule="evenodd" clip-rule="evenodd" d="M591.25 104.26V95.5H616.25V116.43C616.25 121.322 608.277 124.526 604.981 125.5V104.26H591.25Z" fill="#FA744E"/>
<path fill-rule="evenodd" clip-rule="evenodd" d="M583.75 120.591V108H601.25V135.5C601.25 135.5 583.75 127.963 583.75 120.591Z" fill="#00BFB3"/>
<path fill-rule="evenodd" clip-rule="evenodd" d="M591.25 108H601.25V125.5C597.521 124.074 591.25 120.804 591.25 116.696V108Z" fill="#343741"/>
</g>
<path d="M488.446 163.511H492.425C492.368 160.011 489.492 157.595 485.119 157.595C480.814 157.595 477.66 159.973 477.679 163.54C477.669 166.435 479.712 168.094 483.029 168.89L485.167 169.427C487.305 169.945 488.494 170.558 488.504 171.881C488.494 173.32 487.133 174.298 485.023 174.298C482.866 174.298 481.313 173.3 481.179 171.335H477.161C477.267 175.582 480.306 177.778 485.071 177.778C489.865 177.778 492.684 175.487 492.694 171.891C492.684 168.621 490.22 166.886 486.807 166.119L485.043 165.697C483.336 165.304 481.907 164.671 481.936 163.262C481.936 161.996 483.058 161.066 485.091 161.066C487.075 161.066 488.293 161.967 488.446 163.511ZM503.243 162.773H500.472V159.244H496.388V162.773H494.374V165.841H496.388V173.511C496.369 176.397 498.334 177.826 501.297 177.701C502.352 177.663 503.099 177.452 503.512 177.318L502.869 174.278C502.668 174.317 502.236 174.413 501.853 174.413C501.038 174.413 500.472 174.106 500.472 172.974V165.841H503.243V162.773ZM510.103 177.778C512.28 177.778 513.689 176.829 514.409 175.458H514.524V177.5H518.397V167.567C518.397 164.058 515.425 162.581 512.146 162.581C508.617 162.581 506.297 164.268 505.731 166.953L509.509 167.26C509.787 166.282 510.66 165.563 512.127 165.563C513.517 165.563 514.313 166.263 514.313 167.471V167.528C514.313 168.478 513.306 168.602 510.746 168.852C507.831 169.12 505.214 170.098 505.214 173.387C505.214 176.301 507.294 177.778 510.103 177.778ZM511.273 174.959C510.017 174.959 509.116 174.374 509.116 173.252C509.116 172.102 510.065 171.536 511.503 171.335C512.395 171.21 513.852 170.999 514.341 170.673V172.236C514.341 173.78 513.066 174.959 511.273 174.959ZM521.566 177.5H525.651V169.168C525.651 167.356 526.974 166.109 528.776 166.109C529.342 166.109 530.119 166.205 530.502 166.33V162.706C530.138 162.619 529.63 162.562 529.217 162.562C527.568 162.562 526.216 163.521 525.679 165.342H525.526V162.773H521.566V177.5ZM541.186 162.773H538.415V159.244H534.33V162.773H532.317V165.841H534.33V173.511C534.311 176.397 536.277 177.826 539.239 177.701C540.294 177.663 541.042 177.452 541.454 177.318L540.812 174.278C540.61 174.317 540.179 174.413 539.795 174.413C538.98 174.413 538.415 174.106 538.415 172.974V165.841H541.186V162.773ZM554.295 177.778C556.471 177.778 557.881 176.829 558.6 175.458H558.715V177.5H562.589V167.567C562.589 164.058 559.616 162.581 556.337 162.581C552.809 162.581 550.488 164.268 549.923 166.953L553.7 167.26C553.978 166.282 554.851 165.563 556.318 165.563C557.708 165.563 558.504 166.263 558.504 167.471V167.528C558.504 168.478 557.497 168.602 554.937 168.852C552.023 169.12 549.405 170.098 549.405 173.387C549.405 176.301 551.486 177.778 554.295 177.778ZM555.465 174.959C554.209 174.959 553.307 174.374 553.307 173.252C553.307 172.102 554.257 171.536 555.695 171.335C556.586 171.21 558.044 170.999 558.533 170.673V172.236C558.533 173.78 557.258 174.959 555.465 174.959ZM571.184 177.74C573.562 177.74 574.799 176.369 575.365 175.141H575.537V177.5H579.564V157.864H575.489V165.246H575.365C574.818 164.048 573.639 162.581 571.175 162.581C567.943 162.581 565.211 165.093 565.211 170.156C565.211 175.084 567.828 177.74 571.184 177.74ZM572.479 174.489C570.475 174.489 569.382 172.706 569.382 170.136C569.382 167.586 570.456 165.831 572.479 165.831C574.463 165.831 575.576 167.509 575.576 170.136C575.576 172.763 574.444 174.489 572.479 174.489ZM588.349 177.74C590.727 177.74 591.964 176.369 592.53 175.141H592.702V177.5H596.729V157.864H592.654V165.246H592.53C591.983 164.048 590.804 162.581 588.34 162.581C585.109 162.581 582.376 165.093 582.376 170.156C582.376 175.084 584.993 177.74 588.349 177.74ZM589.644 174.489C587.64 174.489 586.547 172.706 586.547 170.136C586.547 167.586 587.621 165.831 589.644 165.831C591.628 165.831 592.741 167.509 592.741 170.136C592.741 172.763 591.609 174.489 589.644 174.489ZM600.087 177.5H604.172V162.773H600.087V177.5ZM602.139 160.874C603.357 160.874 604.354 159.944 604.354 158.803C604.354 157.672 603.357 156.742 602.139 156.742C600.931 156.742 599.934 157.672 599.934 158.803C599.934 159.944 600.931 160.874 602.139 160.874ZM611.528 168.986C611.538 167.087 612.669 165.975 614.319 165.975C615.958 165.975 616.946 167.049 616.936 168.852V177.5H621.021V168.123C621.021 164.69 619.007 162.581 615.939 162.581C613.753 162.581 612.171 163.655 611.509 165.371H611.337V162.773H607.444V177.5H611.528V168.986ZM630.875 183.33C635.084 183.33 638.075 181.412 638.075 177.644V162.773H634.02V165.246H633.866C633.32 164.048 632.121 162.581 629.657 162.581C626.426 162.581 623.693 165.093 623.693 170.108C623.693 175.007 626.349 177.289 629.667 177.289C632.016 177.289 633.329 176.11 633.866 174.892H634.039V177.586C634.039 179.609 632.744 180.396 630.971 180.396C629.168 180.396 628.257 179.609 627.922 178.718L624.144 179.226C624.633 181.546 626.905 183.33 630.875 183.33ZM630.961 174.221C628.957 174.221 627.864 172.629 627.864 170.088C627.864 167.586 628.938 165.831 630.961 165.831C632.946 165.831 634.058 167.509 634.058 170.088C634.058 172.687 632.927 174.221 630.961 174.221ZM654.229 177.788C658.15 177.788 660.615 175.487 660.806 172.102H656.952C656.712 173.674 655.677 174.556 654.277 174.556C652.369 174.556 651.132 172.955 651.132 170.136C651.132 167.356 652.378 165.764 654.277 165.764C655.773 165.764 656.731 166.752 656.952 168.219H660.806C660.634 164.815 658.055 162.581 654.21 162.581C649.742 162.581 646.98 165.678 646.98 170.194C646.98 174.672 649.694 177.788 654.229 177.788ZM667.621 177.778C669.798 177.778 671.207 176.829 671.926 175.458H672.041V177.5H675.915V167.567C675.915 164.058 672.942 162.581 669.663 162.581C666.135 162.581 663.815 164.268 663.249 166.953L667.027 167.26C667.305 166.282 668.177 165.563 669.644 165.563C671.034 165.563 671.83 166.263 671.83 167.471V167.528C671.83 168.478 670.823 168.602 668.263 168.852C665.349 169.12 662.731 170.098 662.731 173.387C662.731 176.301 664.812 177.778 667.621 177.778ZM668.791 174.959C667.535 174.959 666.633 174.374 666.633 173.252C666.633 172.102 667.583 171.536 669.021 171.335C669.913 171.21 671.37 170.999 671.859 170.673V172.236C671.859 173.78 670.584 174.959 668.791 174.959ZM691.337 166.972C690.973 164.259 688.787 162.581 685.067 162.581C681.298 162.581 678.815 164.326 678.825 167.164C678.815 169.369 680.205 170.798 683.082 171.373L685.632 171.881C686.917 172.14 687.502 172.61 687.521 173.348C687.502 174.221 686.553 174.844 685.124 174.844C683.667 174.844 682.698 174.221 682.449 173.022L678.432 173.233C678.815 176.052 681.212 177.788 685.114 177.788C688.931 177.788 691.663 175.841 691.673 172.936C691.663 170.808 690.273 169.532 687.416 168.947L684.75 168.411C683.379 168.113 682.871 167.643 682.88 166.934C682.871 166.052 683.868 165.477 685.134 165.477C686.553 165.477 687.396 166.253 687.598 167.202L691.337 166.972ZM700.956 177.788C704.6 177.788 707.054 176.014 707.63 173.281L703.852 173.032C703.44 174.154 702.385 174.739 701.023 174.739C698.981 174.739 697.687 173.387 697.687 171.191V171.181H707.716V170.06C707.716 165.055 704.686 162.581 700.793 162.581C696.46 162.581 693.65 165.659 693.65 170.203C693.65 174.873 696.421 177.788 700.956 177.788ZM697.687 168.65C697.773 166.972 699.048 165.63 700.86 165.63C702.634 165.63 703.862 166.896 703.871 168.65H697.687ZM722.635 166.972C722.271 164.259 720.085 162.581 716.364 162.581C712.596 162.581 710.113 164.326 710.123 167.164C710.113 169.369 711.503 170.798 714.38 171.373L716.93 171.881C718.215 172.14 718.8 172.61 718.819 173.348C718.8 174.221 717.851 174.844 716.422 174.844C714.965 174.844 713.996 174.221 713.747 173.022L709.729 173.233C710.113 176.052 712.51 177.788 716.412 177.788C720.228 177.788 722.961 175.841 722.971 172.936C722.961 170.808 721.571 169.532 718.713 168.947L716.048 168.411C714.677 168.113 714.169 167.643 714.178 166.934C714.169 166.052 715.166 165.477 716.432 165.477C717.851 165.477 718.694 166.253 718.896 167.202L722.635 166.972Z" fill="#1A1C21"/>
<path d="M415.359 207.114H419.018V217.5H420.427V207.114H424.086V205.864H415.359V207.114ZM427.42 212.25C427.42 210.727 428.391 209.864 429.715 209.864C430.977 209.864 431.738 210.659 431.738 212.045V217.5H433.079V211.955C433.079 209.71 431.886 208.659 430.102 208.659C428.727 208.659 427.942 209.233 427.533 210.136H427.42V205.864H426.079V217.5H427.42V212.25ZM439.191 217.682C440.964 217.682 442.259 216.795 442.668 215.477L441.373 215.114C441.032 216.023 440.242 216.477 439.191 216.477C437.617 216.477 436.532 215.46 436.469 213.591H442.805V213.023C442.805 209.773 440.873 208.659 439.055 208.659C436.691 208.659 435.123 210.523 435.123 213.205C435.123 215.886 436.668 217.682 439.191 217.682ZM436.469 212.432C436.56 211.074 437.521 209.864 439.055 209.864C440.509 209.864 441.441 210.955 441.441 212.432H436.469ZM444.844 217.5H446.185V211.977C446.185 210.795 447.117 209.932 448.39 209.932C448.748 209.932 449.117 210 449.208 210.023V208.659C449.055 208.648 448.702 208.636 448.504 208.636C447.458 208.636 446.549 209.227 446.231 210.091H446.14V208.773H444.844V217.5ZM454.191 217.682C455.964 217.682 457.259 216.795 457.668 215.477L456.373 215.114C456.032 216.023 455.242 216.477 454.191 216.477C452.617 216.477 451.532 215.46 451.469 213.591H457.805V213.023C457.805 209.773 455.873 208.659 454.055 208.659C451.691 208.659 450.123 210.523 450.123 213.205C450.123 215.886 451.668 217.682 454.191 217.682ZM451.469 212.432C451.56 211.074 452.521 209.864 454.055 209.864C455.509 209.864 456.441 210.955 456.441 212.432H451.469ZM466.913 217.705C468.435 217.705 469.231 216.886 469.504 216.318H469.572V217.5H470.913V211.75C470.913 208.977 468.799 208.659 467.685 208.659C466.367 208.659 464.867 209.114 464.185 210.705L465.458 211.159C465.754 210.523 466.452 209.841 467.731 209.841C468.964 209.841 469.572 210.494 469.572 211.614V211.659C469.572 212.307 468.913 212.25 467.322 212.455C465.702 212.665 463.935 213.023 463.935 215.023C463.935 216.727 465.254 217.705 466.913 217.705ZM467.117 216.5C466.049 216.5 465.276 216.023 465.276 215.091C465.276 214.068 466.208 213.75 467.254 213.614C467.822 213.545 469.344 213.386 469.572 213.114V214.341C469.572 215.432 468.708 216.5 467.117 216.5ZM473.36 217.5H474.701V211.977C474.701 210.795 475.633 209.932 476.906 209.932C477.263 209.932 477.633 210 477.724 210.023V208.659C477.57 208.648 477.218 208.636 477.019 208.636C475.974 208.636 475.065 209.227 474.746 210.091H474.656V208.773H473.36V217.5ZM482.707 217.682C484.479 217.682 485.775 216.795 486.184 215.477L484.888 215.114C484.548 216.023 483.758 216.477 482.707 216.477C481.133 216.477 480.048 215.46 479.985 213.591H486.32V213.023C486.32 209.773 484.388 208.659 482.57 208.659C480.207 208.659 478.638 210.523 478.638 213.205C478.638 215.886 480.184 217.682 482.707 217.682ZM479.985 212.432C480.076 211.074 481.036 209.864 482.57 209.864C484.025 209.864 484.957 210.955 484.957 212.432H479.985ZM494.201 212.25C494.201 210.727 495.144 209.864 496.428 209.864C497.673 209.864 498.428 210.676 498.428 212.045V217.5H499.769V211.955C499.769 209.727 498.582 208.659 496.815 208.659C495.496 208.659 494.678 209.25 494.269 210.136H494.156V208.773H492.86V217.5H494.201V212.25ZM505.765 217.682C508.129 217.682 509.719 215.886 509.719 213.182C509.719 210.455 508.129 208.659 505.765 208.659C503.401 208.659 501.81 210.455 501.81 213.182C501.81 215.886 503.401 217.682 505.765 217.682ZM505.765 216.477C503.969 216.477 503.151 214.932 503.151 213.182C503.151 211.432 503.969 209.864 505.765 209.864C507.56 209.864 508.379 211.432 508.379 213.182C508.379 214.932 507.56 216.477 505.765 216.477ZM519.812 217.682C521.744 217.682 523.016 216.5 523.244 214.955H521.903C521.653 215.909 520.857 216.477 519.812 216.477C518.221 216.477 517.198 215.159 517.198 213.136C517.198 211.159 518.244 209.864 519.812 209.864C520.994 209.864 521.698 210.591 521.903 211.386H523.244C523.016 209.75 521.63 208.659 519.789 208.659C517.425 208.659 515.857 210.523 515.857 213.182C515.857 215.795 517.357 217.682 519.812 217.682ZM527.772 217.705C529.295 217.705 530.09 216.886 530.363 216.318H530.431V217.5H531.772V211.75C531.772 208.977 529.658 208.659 528.545 208.659C527.227 208.659 525.727 209.114 525.045 210.705L526.317 211.159C526.613 210.523 527.312 209.841 528.59 209.841C529.823 209.841 530.431 210.494 530.431 211.614V211.659C530.431 212.307 529.772 212.25 528.181 212.455C526.562 212.665 524.795 213.023 524.795 215.023C524.795 216.727 526.113 217.705 527.772 217.705ZM527.977 216.5C526.908 216.5 526.136 216.023 526.136 215.091C526.136 214.068 527.067 213.75 528.113 213.614C528.681 213.545 530.204 213.386 530.431 213.114V214.341C530.431 215.432 529.567 216.5 527.977 216.5ZM540.401 210.727C539.981 209.489 539.038 208.659 537.31 208.659C535.469 208.659 534.106 209.705 534.106 211.182C534.106 212.386 534.822 213.193 536.424 213.568L537.879 213.909C538.759 214.114 539.174 214.534 539.174 215.136C539.174 215.886 538.379 216.5 537.129 216.5C536.032 216.5 535.344 216.028 535.106 215.091L533.833 215.409C534.146 216.892 535.367 217.682 537.151 217.682C539.18 217.682 540.56 216.574 540.56 215.068C540.56 213.852 539.799 213.085 538.242 212.705L536.947 212.386C535.913 212.131 535.447 211.784 535.447 211.114C535.447 210.364 536.242 209.818 537.31 209.818C538.481 209.818 538.964 210.466 539.197 211.068L540.401 210.727ZM546.238 217.682C548.011 217.682 549.306 216.795 549.715 215.477L548.42 215.114C548.079 216.023 547.289 216.477 546.238 216.477C544.664 216.477 543.579 215.46 543.516 213.591H549.852V213.023C549.852 209.773 547.92 208.659 546.102 208.659C543.738 208.659 542.17 210.523 542.17 213.205C542.17 215.886 543.715 217.682 546.238 217.682ZM543.516 212.432C543.607 211.074 544.567 209.864 546.102 209.864C547.556 209.864 548.488 210.955 548.488 212.432H543.516ZM558.073 210.727C557.653 209.489 556.71 208.659 554.982 208.659C553.141 208.659 551.778 209.705 551.778 211.182C551.778 212.386 552.494 213.193 554.096 213.568L555.55 213.909C556.431 214.114 556.846 214.534 556.846 215.136C556.846 215.886 556.05 216.5 554.8 216.5C553.704 216.5 553.016 216.028 552.778 215.091L551.505 215.409C551.817 216.892 553.039 217.682 554.823 217.682C556.852 217.682 558.232 216.574 558.232 215.068C558.232 213.852 557.471 213.085 555.914 212.705L554.619 212.386C553.585 212.131 553.119 211.784 553.119 211.114C553.119 210.364 553.914 209.818 554.982 209.818C556.153 209.818 556.636 210.466 556.869 211.068L558.073 210.727ZM568.546 208.773H566.683V206.682H565.342V208.773H564.023V209.909H565.342V215.364C565.342 216.886 566.569 217.614 567.705 217.614C568.205 217.614 568.523 217.523 568.705 217.455L568.433 216.25C568.319 216.273 568.137 216.318 567.842 216.318C567.251 216.318 566.683 216.136 566.683 215V209.909H568.546V208.773ZM574.015 217.682C576.379 217.682 577.969 215.886 577.969 213.182C577.969 210.455 576.379 208.659 574.015 208.659C571.651 208.659 570.06 210.455 570.06 213.182C570.06 215.886 571.651 217.682 574.015 217.682ZM574.015 216.477C572.219 216.477 571.401 214.932 571.401 213.182C571.401 211.432 572.219 209.864 574.015 209.864C575.81 209.864 576.629 211.432 576.629 213.182C576.629 214.932 575.81 216.477 574.015 216.477ZM587.812 217.682C589.494 217.682 590.062 216.636 590.357 216.159H590.516V217.5H591.812V205.864H590.471V210.159H590.357C590.062 209.705 589.539 208.659 587.835 208.659C585.63 208.659 584.107 210.409 584.107 213.159C584.107 215.932 585.63 217.682 587.812 217.682ZM587.994 216.477C586.312 216.477 585.448 215 585.448 213.136C585.448 211.295 586.289 209.864 587.994 209.864C589.63 209.864 590.494 211.182 590.494 213.136C590.494 215.114 589.607 216.477 587.994 216.477ZM594.454 217.5H595.795V208.773H594.454V217.5ZM595.136 207.318C595.658 207.318 596.09 206.909 596.09 206.409C596.09 205.909 595.658 205.5 595.136 205.5C594.613 205.5 594.181 205.909 594.181 206.409C594.181 206.909 594.613 207.318 595.136 207.318ZM604.433 210.727C604.012 209.489 603.069 208.659 601.342 208.659C599.501 208.659 598.137 209.705 598.137 211.182C598.137 212.386 598.853 213.193 600.455 213.568L601.91 213.909C602.79 214.114 603.205 214.534 603.205 215.136C603.205 215.886 602.41 216.5 601.16 216.5C600.063 216.5 599.376 216.028 599.137 215.091L597.864 215.409C598.177 216.892 599.398 217.682 601.183 217.682C603.211 217.682 604.592 216.574 604.592 215.068C604.592 213.852 603.83 213.085 602.273 212.705L600.978 212.386C599.944 212.131 599.478 211.784 599.478 211.114C599.478 210.364 600.273 209.818 601.342 209.818C602.512 209.818 602.995 210.466 603.228 211.068L604.433 210.727ZM606.61 220.773H607.951V216.159H608.065C608.36 216.636 608.928 217.682 610.61 217.682C612.792 217.682 614.315 215.932 614.315 213.159C614.315 210.409 612.792 208.659 610.587 208.659C608.883 208.659 608.36 209.705 608.065 210.159H607.906V208.773H606.61V220.773ZM607.928 213.136C607.928 211.182 608.792 209.864 610.428 209.864C612.133 209.864 612.974 211.295 612.974 213.136C612.974 215 612.11 216.477 610.428 216.477C608.815 216.477 607.928 215.114 607.928 213.136ZM617.701 205.864H616.36V217.5H617.701V205.864ZM622.725 217.705C624.248 217.705 625.043 216.886 625.316 216.318H625.384V217.5H626.725V211.75C626.725 208.977 624.612 208.659 623.498 208.659C622.18 208.659 620.68 209.114 619.998 210.705L621.271 211.159C621.566 210.523 622.265 209.841 623.543 209.841C624.776 209.841 625.384 210.494 625.384 211.614V211.659C625.384 212.307 624.725 212.25 623.134 212.455C621.515 212.665 619.748 213.023 619.748 215.023C619.748 216.727 621.066 217.705 622.725 217.705ZM622.93 216.5C621.862 216.5 621.089 216.023 621.089 215.091C621.089 214.068 622.021 213.75 623.066 213.614C623.634 213.545 625.157 213.386 625.384 213.114V214.341C625.384 215.432 624.521 216.5 622.93 216.5ZM629.724 220.773C630.934 220.773 631.786 220.131 632.292 218.773L636.008 208.795L634.542 208.773L632.133 215.727H632.042L629.633 208.773H628.178L631.406 217.545L631.156 218.227C630.667 219.557 630.065 219.682 629.087 219.432L628.746 220.614C628.883 220.682 629.269 220.773 629.724 220.773ZM638.212 217.591C638.775 217.591 639.235 217.131 639.235 216.568C639.235 216.006 638.775 215.545 638.212 215.545C637.65 215.545 637.19 216.006 637.19 216.568C637.19 217.131 637.65 217.591 638.212 217.591ZM646.8 217.5L647.971 214.205H652.675L653.846 217.5H655.323L651.05 205.864H649.596L645.323 217.5H646.8ZM648.414 212.955L650.278 207.705H650.369L652.232 212.955H648.414ZM660.249 217.682C661.931 217.682 662.499 216.636 662.795 216.159H662.954V217.5H664.249V205.864H662.908V210.159H662.795C662.499 209.705 661.977 208.659 660.272 208.659C658.067 208.659 656.545 210.409 656.545 213.159C656.545 215.932 658.067 217.682 660.249 217.682ZM660.431 216.477C658.749 216.477 657.886 215 657.886 213.136C657.886 211.295 658.727 209.864 660.431 209.864C662.067 209.864 662.931 211.182 662.931 213.136C662.931 215.114 662.045 216.477 660.431 216.477ZM670.187 217.682C671.869 217.682 672.437 216.636 672.732 216.159H672.891V217.5H674.187V205.864H672.846V210.159H672.732C672.437 209.705 671.914 208.659 670.21 208.659C668.005 208.659 666.482 210.409 666.482 213.159C666.482 215.932 668.005 217.682 670.187 217.682ZM670.369 216.477C668.687 216.477 667.823 215 667.823 213.136C667.823 211.295 668.664 209.864 670.369 209.864C672.005 209.864 672.869 211.182 672.869 213.136C672.869 215.114 671.982 216.477 670.369 216.477ZM683.897 217.705C685.42 217.705 686.215 216.886 686.488 216.318H686.556V217.5H687.897V211.75C687.897 208.977 685.783 208.659 684.67 208.659C683.352 208.659 681.852 209.114 681.17 210.705L682.442 211.159C682.738 210.523 683.437 209.841 684.715 209.841C685.948 209.841 686.556 210.494 686.556 211.614V211.659C686.556 212.307 685.897 212.25 684.306 212.455C682.687 212.665 680.92 213.023 680.92 215.023C680.92 216.727 682.238 217.705 683.897 217.705ZM684.102 216.5C683.033 216.5 682.261 216.023 682.261 215.091C682.261 214.068 683.192 213.75 684.238 213.614C684.806 213.545 686.329 213.386 686.556 213.114V214.341C686.556 215.432 685.692 216.5 684.102 216.5ZM696.185 212.25C696.185 210.727 697.129 209.864 698.413 209.864C699.657 209.864 700.413 210.676 700.413 212.045V217.5H701.754V211.955C701.754 209.727 700.566 208.659 698.799 208.659C697.481 208.659 696.663 209.25 696.254 210.136H696.14V208.773H694.844V217.5H696.185V212.25ZM707.863 217.682C709.636 217.682 710.931 216.795 711.34 215.477L710.045 215.114C709.704 216.023 708.914 216.477 707.863 216.477C706.289 216.477 705.204 215.46 705.141 213.591H711.477V213.023C711.477 209.773 709.545 208.659 707.727 208.659C705.363 208.659 703.795 210.523 703.795 213.205C703.795 215.886 705.34 217.682 707.863 217.682ZM705.141 212.432C705.232 211.074 706.192 209.864 707.727 209.864C709.181 209.864 710.113 210.955 710.113 212.432H705.141ZM715.494 217.5H716.812L718.721 210.795H718.857L720.766 217.5H722.085L724.744 208.773H723.335L721.448 215.432H721.357L719.516 208.773H718.085L716.221 215.455H716.13L714.244 208.773H712.835L715.494 217.5ZM734.562 217.682C736.494 217.682 737.766 216.5 737.994 214.955H736.653C736.403 215.909 735.607 216.477 734.562 216.477C732.971 216.477 731.948 215.159 731.948 213.136C731.948 211.159 732.994 209.864 734.562 209.864C735.744 209.864 736.448 210.591 736.653 211.386H737.994C737.766 209.75 736.38 208.659 734.539 208.659C732.175 208.659 730.607 210.523 730.607 213.182C730.607 215.795 732.107 217.682 734.562 217.682ZM742.522 217.705C744.045 217.705 744.84 216.886 745.113 216.318H745.181V217.5H746.522V211.75C746.522 208.977 744.408 208.659 743.295 208.659C741.977 208.659 740.477 209.114 739.795 210.705L741.067 211.159C741.363 210.523 742.062 209.841 743.34 209.841C744.573 209.841 745.181 210.494 745.181 211.614V211.659C745.181 212.307 744.522 212.25 742.931 212.455C741.312 212.665 739.545 213.023 739.545 215.023C739.545 216.727 740.863 217.705 742.522 217.705ZM742.727 216.5C741.658 216.5 740.886 216.023 740.886 215.091C740.886 214.068 741.817 213.75 742.863 213.614C743.431 213.545 744.954 213.386 745.181 213.114V214.341C745.181 215.432 744.317 216.5 742.727 216.5ZM755.151 210.727C754.731 209.489 753.788 208.659 752.06 208.659C750.219 208.659 748.856 209.705 748.856 211.182C748.856 212.386 749.572 213.193 751.174 213.568L752.629 213.909C753.509 214.114 753.924 214.534 753.924 215.136C753.924 215.886 753.129 216.5 751.879 216.5C750.782 216.5 750.094 216.028 749.856 215.091L748.583 215.409C748.896 216.892 750.117 217.682 751.901 217.682C753.93 217.682 755.31 216.574 755.31 215.068C755.31 213.852 754.549 213.085 752.992 212.705L751.697 212.386C750.663 212.131 750.197 211.784 750.197 211.114C750.197 210.364 750.992 209.818 752.06 209.818C753.231 209.818 753.714 210.466 753.947 211.068L755.151 210.727ZM760.988 217.682C762.761 217.682 764.056 216.795 764.465 215.477L763.17 215.114C762.829 216.023 762.039 216.477 760.988 216.477C759.414 216.477 758.329 215.46 758.266 213.591H764.602V213.023C764.602 209.773 762.67 208.659 760.852 208.659C758.488 208.659 756.92 210.523 756.92 213.205C756.92 215.886 758.465 217.682 760.988 217.682ZM758.266 212.432C758.357 211.074 759.317 209.864 760.852 209.864C762.306 209.864 763.238 210.955 763.238 212.432H758.266ZM774.687 217.682C777.05 217.682 778.641 215.886 778.641 213.182C778.641 210.455 777.05 208.659 774.687 208.659C772.323 208.659 770.732 210.455 770.732 213.182C770.732 215.886 772.323 217.682 774.687 217.682ZM774.687 216.477C772.891 216.477 772.073 214.932 772.073 213.182C772.073 211.432 772.891 209.864 774.687 209.864C776.482 209.864 777.3 211.432 777.3 213.182C777.3 214.932 776.482 216.477 774.687 216.477ZM780.688 217.5H782.029V211.977C782.029 210.795 782.961 209.932 784.234 209.932C784.592 209.932 784.961 210 785.052 210.023V208.659C784.898 208.648 784.546 208.636 784.347 208.636C783.302 208.636 782.393 209.227 782.075 210.091H781.984V208.773H780.688V217.5ZM503.749 241.682C505.681 241.682 506.954 240.5 507.181 238.955H505.84C505.59 239.909 504.795 240.477 503.749 240.477C502.158 240.477 501.136 239.159 501.136 237.136C501.136 235.159 502.181 233.864 503.749 233.864C504.931 233.864 505.636 234.591 505.84 235.386H507.181C506.954 233.75 505.567 232.659 503.727 232.659C501.363 232.659 499.795 234.523 499.795 237.182C499.795 239.795 501.295 241.682 503.749 241.682ZM510.482 236.25C510.482 234.727 511.454 233.864 512.778 233.864C514.039 233.864 514.8 234.659 514.8 236.045V241.5H516.141V235.955C516.141 233.71 514.948 232.659 513.164 232.659C511.789 232.659 511.005 233.233 510.596 234.136H510.482V229.864H509.141V241.5H510.482V236.25ZM521.163 241.705C522.685 241.705 523.481 240.886 523.754 240.318H523.822V241.5H525.163V235.75C525.163 232.977 523.049 232.659 521.935 232.659C520.617 232.659 519.117 233.114 518.435 234.705L519.708 235.159C520.004 234.523 520.702 233.841 521.981 233.841C523.214 233.841 523.822 234.494 523.822 235.614V235.659C523.822 236.307 523.163 236.25 521.572 236.455C519.952 236.665 518.185 237.023 518.185 239.023C518.185 240.727 519.504 241.705 521.163 241.705ZM521.367 240.5C520.299 240.5 519.526 240.023 519.526 239.091C519.526 238.068 520.458 237.75 521.504 237.614C522.072 237.545 523.594 237.386 523.822 237.114V238.341C523.822 239.432 522.958 240.5 521.367 240.5ZM528.951 236.25C528.951 234.727 529.894 233.864 531.178 233.864C532.423 233.864 533.178 234.676 533.178 236.045V241.5H534.519V235.955C534.519 233.727 533.332 232.659 531.565 232.659C530.246 232.659 529.428 233.25 529.019 234.136H528.906V232.773H527.61V241.5H528.951V236.25ZM540.492 244.955C542.583 244.955 544.265 244 544.265 241.75V232.773H542.969V234.159H542.833C542.538 233.705 541.992 232.659 540.288 232.659C538.083 232.659 536.56 234.409 536.56 237.091C536.56 239.818 538.151 241.364 540.265 241.364C541.969 241.364 542.515 240.364 542.81 239.886H542.924V241.659C542.924 243.114 541.901 243.773 540.492 243.773C538.907 243.773 538.35 242.938 537.992 242.455L536.924 243.205C537.469 244.119 538.543 244.955 540.492 244.955ZM540.447 240.159C538.765 240.159 537.901 238.886 537.901 237.068C537.901 235.295 538.742 233.864 540.447 233.864C542.083 233.864 542.947 235.182 542.947 237.068C542.947 239 542.06 240.159 540.447 240.159ZM550.379 241.682C552.151 241.682 553.447 240.795 553.856 239.477L552.56 239.114C552.219 240.023 551.43 240.477 550.379 240.477C548.805 240.477 547.719 239.46 547.657 237.591H553.992V237.023C553.992 233.773 552.06 232.659 550.242 232.659C547.879 232.659 546.31 234.523 546.31 237.205C546.31 239.886 547.856 241.682 550.379 241.682ZM547.657 236.432C547.748 235.074 548.708 233.864 550.242 233.864C551.697 233.864 552.629 234.955 552.629 236.432H547.657ZM561.396 244.773C562.606 244.773 563.458 244.131 563.964 242.773L567.68 232.795L566.214 232.773L563.805 239.727H563.714L561.305 232.773H559.85L563.077 241.545L562.827 242.227C562.339 243.557 561.737 243.682 560.759 243.432L560.418 244.614C560.555 244.682 560.941 244.773 561.396 244.773ZM572.687 241.682C575.05 241.682 576.641 239.886 576.641 237.182C576.641 234.455 575.05 232.659 572.687 232.659C570.323 232.659 568.732 234.455 568.732 237.182C568.732 239.886 570.323 241.682 572.687 241.682ZM572.687 240.477C570.891 240.477 570.073 238.932 570.073 237.182C570.073 235.432 570.891 233.864 572.687 233.864C574.482 233.864 575.3 235.432 575.3 237.182C575.3 238.932 574.482 240.477 572.687 240.477ZM584.188 237.932C584.188 239.568 582.938 240.318 581.938 240.318C580.825 240.318 580.029 239.5 580.029 238.227V232.773H578.688V238.318C578.688 240.545 579.87 241.614 581.506 241.614C582.825 241.614 583.688 240.909 584.097 240.023H584.188V241.5H585.529V232.773H584.188V237.932ZM587.985 241.5H589.326V235.977C589.326 234.795 590.258 233.932 591.531 233.932C591.888 233.932 592.258 234 592.349 234.023V232.659C592.195 232.648 591.843 232.636 591.644 232.636C590.599 232.636 589.69 233.227 589.371 234.091H589.281V232.773H587.985V241.5ZM602.325 232.773H600.37V231.886C600.37 231.023 600.734 230.568 601.62 230.568C602.006 230.568 602.234 230.659 602.37 230.705L602.756 229.545C602.552 229.455 602.143 229.318 601.484 229.318C600.234 229.318 599.029 230.068 599.029 231.568V232.773H597.62V233.909H599.029V241.5H600.37V233.909H602.325V232.773ZM604.204 241.5H605.545V232.773H604.204V241.5ZM604.886 231.318C605.408 231.318 605.84 230.909 605.84 230.409C605.84 229.909 605.408 229.5 604.886 229.5C604.363 229.5 603.931 229.909 603.931 230.409C603.931 230.909 604.363 231.318 604.886 231.318ZM609.342 229.864H608.001V241.5H609.342V229.864ZM615.593 232.773H613.729V230.682H612.388V232.773H611.07V233.909H612.388V239.364C612.388 240.886 613.616 241.614 614.752 241.614C615.252 241.614 615.57 241.523 615.752 241.455L615.479 240.25C615.366 240.273 615.184 240.318 614.888 240.318C614.298 240.318 613.729 240.136 613.729 239V233.909H615.593V232.773ZM621.175 241.682C622.948 241.682 624.244 240.795 624.653 239.477L623.357 239.114C623.016 240.023 622.227 240.477 621.175 240.477C619.602 240.477 618.516 239.46 618.454 237.591H624.789V237.023C624.789 233.773 622.857 232.659 621.039 232.659C618.675 232.659 617.107 234.523 617.107 237.205C617.107 239.886 618.653 241.682 621.175 241.682ZM618.454 236.432C618.545 235.074 619.505 233.864 621.039 233.864C622.494 233.864 623.425 234.955 623.425 236.432H618.454ZM626.829 241.5H628.17V235.977C628.17 234.795 629.102 233.932 630.374 233.932C630.732 233.932 631.102 234 631.192 234.023V232.659C631.039 232.648 630.687 232.636 630.488 232.636C629.442 232.636 628.533 233.227 628.215 234.091H628.124V232.773H626.829V241.5ZM643.464 234.727C643.043 233.489 642.1 232.659 640.373 232.659C638.532 232.659 637.168 233.705 637.168 235.182C637.168 236.386 637.884 237.193 639.487 237.568L640.941 237.909C641.822 238.114 642.237 238.534 642.237 239.136C642.237 239.886 641.441 240.5 640.191 240.5C639.094 240.5 638.407 240.028 638.168 239.091L636.896 239.409C637.208 240.892 638.43 241.682 640.214 241.682C642.242 241.682 643.623 240.574 643.623 239.068C643.623 237.852 642.862 237.085 641.305 236.705L640.009 236.386C638.975 236.131 638.509 235.784 638.509 235.114C638.509 234.364 639.305 233.818 640.373 233.818C641.543 233.818 642.026 234.466 642.259 235.068L643.464 234.727ZM649.3 241.682C651.073 241.682 652.369 240.795 652.778 239.477L651.482 239.114C651.141 240.023 650.352 240.477 649.3 240.477C647.727 240.477 646.641 239.46 646.579 237.591H652.914V237.023C652.914 233.773 650.982 232.659 649.164 232.659C646.8 232.659 645.232 234.523 645.232 237.205C645.232 239.886 646.778 241.682 649.3 241.682ZM646.579 236.432C646.67 235.074 647.63 233.864 649.164 233.864C650.619 233.864 651.55 234.955 651.55 236.432H646.579ZM658.749 232.773H656.886V230.682H655.545V232.773H654.227V233.909H655.545V239.364C655.545 240.886 656.772 241.614 657.908 241.614C658.408 241.614 658.727 241.523 658.908 241.455L658.636 240.25C658.522 240.273 658.34 240.318 658.045 240.318C657.454 240.318 656.886 240.136 656.886 239V233.909H658.749V232.773ZM664.562 232.773H662.698V230.682H661.357V232.773H660.039V233.909H661.357V239.364C661.357 240.886 662.585 241.614 663.721 241.614C664.221 241.614 664.539 241.523 664.721 241.455L664.448 240.25C664.335 240.273 664.153 240.318 663.857 240.318C663.266 240.318 662.698 240.136 662.698 239V233.909H664.562V232.773ZM666.579 241.5H667.92V232.773H666.579V241.5ZM667.261 231.318C667.783 231.318 668.215 230.909 668.215 230.409C668.215 229.909 667.783 229.5 667.261 229.5C666.738 229.5 666.306 229.909 666.306 230.409C666.306 230.909 666.738 231.318 667.261 231.318ZM671.717 236.25C671.717 234.727 672.66 233.864 673.944 233.864C675.188 233.864 675.944 234.676 675.944 236.045V241.5H677.285V235.955C677.285 233.727 676.097 232.659 674.33 232.659C673.012 232.659 672.194 233.25 671.785 234.136H671.671V232.773H670.376V241.5H671.717V236.25ZM683.258 244.955C685.349 244.955 687.031 244 687.031 241.75V232.773H685.735V234.159H685.599C685.303 233.705 684.758 232.659 683.053 232.659C680.849 232.659 679.326 234.409 679.326 237.091C679.326 239.818 680.917 241.364 683.031 241.364C684.735 241.364 685.281 240.364 685.576 239.886H685.69V241.659C685.69 243.114 684.667 243.773 683.258 243.773C681.673 243.773 681.116 242.938 680.758 242.455L679.69 243.205C680.235 244.119 681.309 244.955 683.258 244.955ZM683.212 240.159C681.531 240.159 680.667 238.886 680.667 237.068C680.667 235.295 681.508 233.864 683.212 233.864C684.849 233.864 685.712 235.182 685.712 237.068C685.712 239 684.826 240.159 683.212 240.159ZM695.667 234.727C695.246 233.489 694.303 232.659 692.576 232.659C690.735 232.659 689.371 233.705 689.371 235.182C689.371 236.386 690.087 237.193 691.69 237.568L693.144 237.909C694.025 238.114 694.44 238.534 694.44 239.136C694.44 239.886 693.644 240.5 692.394 240.5C691.298 240.5 690.61 240.028 690.371 239.091L689.099 239.409C689.411 240.892 690.633 241.682 692.417 241.682C694.445 241.682 695.826 240.574 695.826 239.068C695.826 237.852 695.065 237.085 693.508 236.705L692.212 236.386C691.178 236.131 690.712 235.784 690.712 235.114C690.712 234.364 691.508 233.818 692.576 233.818C693.746 233.818 694.229 234.466 694.462 235.068L695.667 234.727ZM698.822 241.591C699.384 241.591 699.844 241.131 699.844 240.568C699.844 240.006 699.384 239.545 698.822 239.545C698.259 239.545 697.799 240.006 697.799 240.568C697.799 241.131 698.259 241.591 698.822 241.591Z" fill="#69707D"/>
<g clip-path="url(#clip2_22764_276515)">
<g clip-path="url(#clip3_22764_276515)">
<path d="M544 277.5C544 274.186 546.686 271.5 550 271.5H650C653.314 271.5 656 274.186 656 277.5V305.5C656 308.814 653.314 311.5 650 311.5H550C546.686 311.5 544 308.814 544 305.5V277.5Z" fill="#0071C2"/>
<path d="M564.866 297L565.801 294.305H569.778L570.708 297H572.339L568.675 286.818H566.9L563.236 297H564.866ZM566.248 293.013L567.75 288.668H567.829L569.331 293.013H566.248ZM576.425 297.149C577.817 297.149 578.364 296.299 578.633 295.812H578.757V297H580.209V286.818H578.722V290.602H578.633C578.364 290.129 577.857 289.264 576.435 289.264C574.591 289.264 573.234 290.721 573.234 293.197C573.234 295.668 574.571 297.149 576.425 297.149ZM576.753 295.881C575.426 295.881 574.735 294.713 574.735 293.182C574.735 291.665 575.411 290.527 576.753 290.527C578.051 290.527 578.747 291.586 578.747 293.182C578.747 294.788 578.036 295.881 576.753 295.881ZM585.189 297.149C586.581 297.149 587.128 296.299 587.396 295.812H587.521V297H588.972V286.818H587.486V290.602H587.396C587.128 290.129 586.621 289.264 585.199 289.264C583.354 289.264 581.997 290.721 581.997 293.197C581.997 295.668 583.335 297.149 585.189 297.149ZM585.517 295.881C584.19 295.881 583.499 294.713 583.499 293.182C583.499 291.665 584.175 290.527 585.517 290.527C586.815 290.527 587.511 291.586 587.511 293.182C587.511 294.788 586.8 295.881 585.517 295.881ZM597.021 297.169C598.284 297.169 598.995 296.528 599.278 295.956H599.338V297H600.79V291.929C600.79 289.707 599.04 289.264 597.827 289.264C596.445 289.264 595.172 289.821 594.675 291.213L596.072 291.531C596.291 290.989 596.847 290.467 597.847 290.467C598.806 290.467 599.298 290.969 599.298 291.835V291.869C599.298 292.411 598.742 292.401 597.369 292.56C595.923 292.729 594.441 293.107 594.441 294.842C594.441 296.344 595.57 297.169 597.021 297.169ZM597.345 295.976C596.504 295.976 595.898 295.598 595.898 294.862C595.898 294.067 596.604 293.783 597.464 293.669C597.946 293.604 599.09 293.475 599.303 293.261V294.246C599.303 295.151 598.582 295.976 597.345 295.976ZM609.691 297.154C611.496 297.154 612.665 296.07 612.829 294.584H611.382C611.193 295.409 610.552 295.896 609.701 295.896C608.444 295.896 607.633 294.847 607.633 293.182C607.633 291.546 608.459 290.517 609.701 290.517C610.646 290.517 611.223 291.114 611.382 291.83H612.829C612.669 290.288 611.412 289.264 609.677 289.264C607.524 289.264 606.132 290.885 606.132 293.217C606.132 295.518 607.474 297.154 609.691 297.154ZM616.641 297.169C617.903 297.169 618.614 296.528 618.898 295.956H618.957V297H620.409V291.929C620.409 289.707 618.659 289.264 617.446 289.264C616.064 289.264 614.791 289.821 614.294 291.213L615.691 291.531C615.91 290.989 616.467 290.467 617.466 290.467C618.425 290.467 618.918 290.969 618.918 291.835V291.869C618.918 292.411 618.361 292.401 616.989 292.56C615.542 292.729 614.06 293.107 614.06 294.842C614.06 296.344 615.189 297.169 616.641 297.169ZM616.964 295.976C616.123 295.976 615.517 295.598 615.517 294.862C615.517 294.067 616.223 293.783 617.083 293.669C617.565 293.604 618.709 293.475 618.922 293.261V294.246C618.922 295.151 618.202 295.976 616.964 295.976ZM628.111 291.228C627.803 290.04 626.873 289.264 625.223 289.264C623.498 289.264 622.275 290.174 622.275 291.526C622.275 292.61 622.931 293.331 624.363 293.649L625.655 293.933C626.391 294.097 626.734 294.425 626.734 294.902C626.734 295.494 626.103 295.956 625.128 295.956C624.238 295.956 623.667 295.573 623.488 294.822L622.051 295.041C622.299 296.393 623.423 297.154 625.138 297.154C626.983 297.154 628.26 296.175 628.26 294.793C628.26 293.714 627.574 293.048 626.172 292.724L624.959 292.446C624.119 292.247 623.756 291.964 623.761 291.447C623.756 290.86 624.392 290.442 625.238 290.442C626.162 290.442 626.59 290.955 626.764 291.467L628.111 291.228ZM633.186 297.154C634.851 297.154 636.03 296.334 636.368 295.091L634.961 294.837C634.692 295.558 634.046 295.926 633.201 295.926C631.928 295.926 631.073 295.101 631.033 293.629H636.462V293.102C636.462 290.343 634.812 289.264 633.082 289.264C630.954 289.264 629.552 290.885 629.552 293.232C629.552 295.603 630.934 297.154 633.186 297.154ZM631.038 292.516C631.098 291.432 631.883 290.492 633.092 290.492C634.245 290.492 635.001 291.347 635.006 292.516H631.038Z" fill="white"/>
</g>
<path d="M547.985 345.493H549.467C549.422 343.862 547.98 342.679 545.912 342.679C543.869 342.679 542.303 343.847 542.303 345.602C542.303 347.019 543.317 347.849 544.953 348.292L546.156 348.62C547.245 348.908 548.085 349.266 548.085 350.171C548.085 351.165 547.135 351.822 545.828 351.822C544.644 351.822 543.66 351.295 543.571 350.186H542.029C542.129 352.031 543.556 353.169 545.838 353.169C548.229 353.169 549.606 351.911 549.606 350.186C549.606 348.352 547.97 347.641 546.678 347.322L545.684 347.064C544.888 346.86 543.829 346.487 543.834 345.513C543.834 344.648 544.625 344.006 545.877 344.006C547.046 344.006 547.876 344.553 547.985 345.493ZM554.614 353.154C556.279 353.154 557.457 352.334 557.796 351.091L556.389 350.837C556.12 351.558 555.474 351.926 554.629 351.926C553.356 351.926 552.501 351.101 552.461 349.629H557.89V349.102C557.89 346.343 556.239 345.264 554.509 345.264C552.381 345.264 550.979 346.885 550.979 349.232C550.979 351.603 552.362 353.154 554.614 353.154ZM552.466 348.516C552.526 347.432 553.311 346.492 554.519 346.492C555.673 346.492 556.428 347.347 556.433 348.516H552.466ZM562.756 353.154C564.561 353.154 565.729 352.07 565.893 350.584H564.446C564.257 351.409 563.616 351.896 562.766 351.896C561.508 351.896 560.698 350.847 560.698 349.182C560.698 347.546 561.523 346.517 562.766 346.517C563.71 346.517 564.287 347.114 564.446 347.83H565.893C565.734 346.288 564.476 345.264 562.741 345.264C560.588 345.264 559.196 346.885 559.196 349.217C559.196 351.518 560.539 353.154 562.756 353.154ZM570.699 353.154C572.852 353.154 574.259 351.578 574.259 349.217C574.259 346.84 572.852 345.264 570.699 345.264C568.547 345.264 567.14 346.84 567.14 349.217C567.14 351.578 568.547 353.154 570.699 353.154ZM570.704 351.906C569.297 351.906 568.641 350.678 568.641 349.212C568.641 347.75 569.297 346.507 570.704 346.507C572.101 346.507 572.758 347.75 572.758 349.212C572.758 350.678 572.101 351.906 570.704 351.906ZM577.405 348.466C577.405 347.248 578.15 346.552 579.185 346.552C580.194 346.552 580.805 347.213 580.805 348.322V353H582.292V348.143C582.292 346.254 581.253 345.264 579.692 345.264C578.543 345.264 577.793 345.796 577.44 346.607H577.345V345.364H575.918V353H577.405V348.466ZM587.144 353.149C588.536 353.149 589.083 352.299 589.351 351.812H589.476V353H590.927V342.818H589.441V346.602H589.351C589.083 346.129 588.576 345.264 587.154 345.264C585.31 345.264 583.952 346.721 583.952 349.197C583.952 351.668 585.29 353.149 587.144 353.149ZM587.472 351.881C586.145 351.881 585.454 350.713 585.454 349.182C585.454 347.665 586.13 346.527 587.472 346.527C588.77 346.527 589.466 347.586 589.466 349.182C589.466 350.788 588.755 351.881 587.472 351.881ZM595.271 353.169C596.534 353.169 597.245 352.528 597.528 351.956H597.588V353H599.04V347.929C599.04 345.707 597.29 345.264 596.077 345.264C594.695 345.264 593.422 345.821 592.925 347.213L594.322 347.531C594.541 346.989 595.097 346.467 596.097 346.467C597.056 346.467 597.548 346.969 597.548 347.835V347.869C597.548 348.411 596.992 348.401 595.619 348.56C594.173 348.729 592.691 349.107 592.691 350.842C592.691 352.344 593.82 353.169 595.271 353.169ZM595.595 351.976C594.754 351.976 594.148 351.598 594.148 350.862C594.148 350.067 594.854 349.783 595.714 349.669C596.196 349.604 597.34 349.475 597.553 349.261V350.246C597.553 351.151 596.832 351.976 595.595 351.976ZM601.02 353H602.506V348.337C602.506 347.337 603.277 346.616 604.331 346.616C604.639 346.616 604.987 346.671 605.106 346.706V345.284C604.957 345.264 604.664 345.249 604.475 345.249C603.58 345.249 602.815 345.756 602.536 346.577H602.457V345.364H601.02V353ZM607.565 355.864C608.793 355.864 609.568 355.222 610.011 354.019L613.168 345.379L611.562 345.364L609.628 351.29H609.549L607.615 345.364H606.024L608.818 353.099L608.634 353.607C608.256 354.621 607.724 354.705 606.909 354.482L606.551 355.7C606.73 355.779 607.117 355.864 607.565 355.864ZM620.496 353.169C621.759 353.169 622.47 352.528 622.753 351.956H622.813V353H624.264V347.929C624.264 345.707 622.514 345.264 621.301 345.264C619.919 345.264 618.647 345.821 618.149 347.213L619.546 347.531C619.765 346.989 620.322 346.467 621.321 346.467C622.281 346.467 622.773 346.969 622.773 347.835V347.869C622.773 348.411 622.216 348.401 620.844 348.56C619.397 348.729 617.916 349.107 617.916 350.842C617.916 352.344 619.044 353.169 620.496 353.169ZM620.819 351.976C619.979 351.976 619.372 351.598 619.372 350.862C619.372 350.067 620.078 349.783 620.938 349.669C621.421 349.604 622.564 349.475 622.778 349.261V350.246C622.778 351.151 622.057 351.976 620.819 351.976ZM629.461 353.154C631.266 353.154 632.434 352.07 632.598 350.584H631.151C630.962 351.409 630.321 351.896 629.471 351.896C628.213 351.896 627.403 350.847 627.403 349.182C627.403 347.546 628.228 346.517 629.471 346.517C630.416 346.517 630.992 347.114 631.151 347.83H632.598C632.439 346.288 631.181 345.264 629.446 345.264C627.293 345.264 625.901 346.885 625.901 349.217C625.901 351.518 627.244 353.154 629.461 353.154ZM637.752 345.364H636.186V343.534H634.7V345.364H633.581V346.557H634.7V351.066C634.695 352.453 635.754 353.124 636.927 353.099C637.399 353.094 637.718 353.005 637.892 352.94L637.623 351.712C637.524 351.732 637.34 351.777 637.101 351.777C636.619 351.777 636.186 351.618 636.186 350.758V346.557H637.752V345.364ZM639.397 353H640.883V345.364H639.397V353ZM640.147 344.185C640.66 344.185 641.087 343.788 641.087 343.3C641.087 342.813 640.66 342.411 640.147 342.411C639.63 342.411 639.208 342.813 639.208 343.3C639.208 343.788 639.63 344.185 640.147 344.185ZM646.1 353.154C648.252 353.154 649.659 351.578 649.659 349.217C649.659 346.84 648.252 345.264 646.1 345.264C643.947 345.264 642.54 346.84 642.54 349.217C642.54 351.578 643.947 353.154 646.1 353.154ZM646.105 351.906C644.698 351.906 644.041 350.678 644.041 349.212C644.041 347.75 644.698 346.507 646.105 346.507C647.502 346.507 648.158 347.75 648.158 349.212C648.158 350.678 647.502 351.906 646.105 351.906ZM652.805 348.466C652.805 347.248 653.551 346.552 654.585 346.552C655.594 346.552 656.206 347.213 656.206 348.322V353H657.692V348.143C657.692 346.254 656.653 345.264 655.092 345.264C653.944 345.264 653.193 345.796 652.84 346.607H652.745V345.364H651.319V353H652.805V348.466Z" fill="#005EC4"/>
</g>
<rect width="456" height="72" transform="translate(372 391.5)" fill="#FAFBFD"/>
<path d="M454.01 432.5H456.108L458.042 425.843H458.121L460.06 432.5H462.158L465.072 422.318H462.72L461.035 429.408H460.945L459.091 422.318H457.077L455.218 429.393H455.133L453.448 422.318H451.097L454.01 432.5ZM467.541 432.644C468.67 432.644 469.401 432.152 469.774 431.441H469.833V432.5H471.842V427.349C471.842 425.53 470.301 424.764 468.6 424.764C466.771 424.764 465.568 425.639 465.274 427.031L467.233 427.19C467.377 426.683 467.83 426.31 468.59 426.31C469.311 426.31 469.724 426.673 469.724 427.3V427.33C469.724 427.822 469.202 427.886 467.874 428.016C466.363 428.155 465.006 428.662 465.006 430.367C465.006 431.879 466.085 432.644 467.541 432.644ZM468.148 431.183C467.497 431.183 467.029 430.879 467.029 430.298C467.029 429.701 467.521 429.408 468.267 429.303C468.729 429.239 469.485 429.129 469.739 428.96V429.771C469.739 430.571 469.078 431.183 468.148 431.183ZM475.603 428.085C475.608 427.101 476.194 426.524 477.049 426.524C477.9 426.524 478.412 427.081 478.407 428.016V432.5H480.525V427.638C480.525 425.858 479.481 424.764 477.89 424.764C476.756 424.764 475.936 425.321 475.593 426.211H475.503V424.864H473.485V432.5H475.603V428.085ZM486.256 424.864H484.819V423.034H482.701V424.864H481.657V426.455H482.701V430.432C482.691 431.928 483.71 432.669 485.246 432.604C485.793 432.585 486.181 432.475 486.395 432.406L486.062 430.83C485.957 430.849 485.734 430.899 485.535 430.899C485.112 430.899 484.819 430.74 484.819 430.153V426.455H486.256V424.864ZM494.937 424.864H493.5V423.034H491.383V424.864H490.339V426.455H491.383V430.432C491.373 431.928 492.392 432.669 493.928 432.604C494.475 432.585 494.863 432.475 495.076 432.406L494.743 430.83C494.639 430.849 494.415 430.899 494.216 430.899C493.794 430.899 493.5 430.74 493.5 430.153V426.455H494.937V424.864ZM499.685 432.649C502.002 432.649 503.444 431.063 503.444 428.712C503.444 426.345 502.002 424.764 499.685 424.764C497.368 424.764 495.927 426.345 495.927 428.712C495.927 431.063 497.368 432.649 499.685 432.649ZM499.695 431.009C498.626 431.009 498.079 430.029 498.079 428.697C498.079 427.364 498.626 426.38 499.695 426.38C500.744 426.38 501.291 427.364 501.291 428.697C501.291 430.029 500.744 431.009 499.695 431.009ZM510.179 422.318H508.061V432.5H510.179V422.318ZM515.356 432.649C517.245 432.649 518.517 431.729 518.816 430.312L516.857 430.183C516.643 430.765 516.096 431.068 515.39 431.068C514.331 431.068 513.66 430.367 513.66 429.229V429.224H518.861V428.642C518.861 426.047 517.29 424.764 515.271 424.764C513.024 424.764 511.567 426.36 511.567 428.717C511.567 431.138 513.004 432.649 515.356 432.649ZM513.66 427.911C513.705 427.041 514.366 426.345 515.306 426.345C516.226 426.345 516.862 427.001 516.867 427.911H513.66ZM522.42 432.644C523.549 432.644 524.28 432.152 524.652 431.441H524.712V432.5H526.721V427.349C526.721 425.53 525.179 424.764 523.479 424.764C521.65 424.764 520.446 425.639 520.153 427.031L522.112 427.19C522.256 426.683 522.709 426.31 523.469 426.31C524.19 426.31 524.603 426.673 524.603 427.3V427.33C524.603 427.822 524.081 427.886 522.753 428.016C521.242 428.155 519.885 428.662 519.885 430.367C519.885 431.879 520.964 432.644 522.42 432.644ZM523.027 431.183C522.375 431.183 521.908 430.879 521.908 430.298C521.908 429.701 522.4 429.408 523.146 429.303C523.608 429.239 524.364 429.129 524.618 428.96V429.771C524.618 430.571 523.956 431.183 523.027 431.183ZM528.364 432.5H530.482V428.18C530.482 427.24 531.168 426.594 532.102 426.594C532.396 426.594 532.798 426.643 532.997 426.708V424.829C532.808 424.784 532.545 424.754 532.331 424.754C531.476 424.754 530.775 425.251 530.497 426.196H530.417V424.864H528.364V432.5ZM536.21 428.085C536.215 427.101 536.802 426.524 537.657 426.524C538.507 426.524 539.019 427.081 539.014 428.016V432.5H541.132V427.638C541.132 425.858 540.088 424.764 538.497 424.764C537.364 424.764 536.543 425.321 536.2 426.211H536.111V424.864H534.092V432.5H536.21V428.085ZM546.041 432.5H548.159V427.916C548.159 427.071 548.696 426.509 549.402 426.509C550.098 426.509 550.566 426.987 550.566 427.737V432.5H552.619V427.837C552.619 427.046 553.071 426.509 553.842 426.509C554.518 426.509 555.025 426.932 555.025 427.782V432.5H557.138V427.364C557.138 425.709 556.154 424.764 554.732 424.764C553.613 424.764 552.743 425.336 552.43 426.211H552.35C552.107 425.326 551.326 424.764 550.277 424.764C549.248 424.764 548.468 425.311 548.149 426.211H548.06V424.864H546.041V432.5ZM562.261 432.649C564.578 432.649 566.02 431.063 566.02 428.712C566.02 426.345 564.578 424.764 562.261 424.764C559.945 424.764 558.503 426.345 558.503 428.712C558.503 431.063 559.945 432.649 562.261 432.649ZM562.271 431.009C561.202 431.009 560.655 430.029 560.655 428.697C560.655 427.364 561.202 426.38 562.271 426.38C563.32 426.38 563.867 427.364 563.867 428.697C563.867 430.029 563.32 431.009 562.271 431.009ZM567.397 432.5H569.515V428.18C569.515 427.24 570.201 426.594 571.136 426.594C571.429 426.594 571.832 426.643 572.03 426.708V424.829C571.842 424.784 571.578 424.754 571.364 424.754C570.509 424.754 569.808 425.251 569.53 426.196H569.45V424.864H567.397V432.5ZM576.25 432.649C578.139 432.649 579.412 431.729 579.71 430.312L577.752 430.183C577.538 430.765 576.991 431.068 576.285 431.068C575.226 431.068 574.555 430.367 574.555 429.229V429.224H579.755V428.642C579.755 426.047 578.184 424.764 576.166 424.764C573.918 424.764 572.462 426.36 572.462 428.717C572.462 431.138 573.899 432.649 576.25 432.649ZM574.555 427.911C574.6 427.041 575.261 426.345 576.2 426.345C577.12 426.345 577.756 427.001 577.761 427.911H574.555ZM582.957 429.447H584.841V429.278C584.851 428.309 585.199 427.857 585.984 427.384C586.914 426.832 587.521 426.102 587.521 424.933C587.521 423.193 586.119 422.179 584.145 422.179C582.34 422.179 580.869 423.124 580.824 425.112H582.852C582.882 424.302 583.484 423.869 584.135 423.869C584.806 423.869 585.348 424.317 585.348 425.008C585.348 425.659 584.876 426.092 584.264 426.479C583.429 427.006 582.962 427.538 582.957 429.278V429.447ZM583.936 432.629C584.573 432.629 585.124 432.097 585.129 431.436C585.124 430.785 584.573 430.253 583.936 430.253C583.28 430.253 582.738 430.785 582.743 431.436C582.738 432.097 583.28 432.629 583.936 432.629Z" fill="black"/>
<g clip-path="url(#clip4_22764_276515)">
<path d="M595.775 433H597.311V429.147H599.399C599.434 429.147 599.464 429.147 599.499 429.147L601.567 433H603.317L601.06 428.879C602.308 428.416 602.929 427.377 602.929 426.01C602.929 424.136 601.766 422.818 599.404 422.818H595.775V433ZM597.311 427.825V424.136H599.24C600.756 424.136 601.383 424.857 601.383 426.01C601.383 427.158 600.756 427.825 599.26 427.825H597.311ZM607.874 433.154C609.54 433.154 610.718 432.334 611.056 431.091L609.649 430.837C609.381 431.558 608.735 431.926 607.889 431.926C606.617 431.926 605.762 431.101 605.722 429.629H611.151V429.102C611.151 426.343 609.5 425.264 607.77 425.264C605.642 425.264 604.24 426.885 604.24 429.232C604.24 431.603 605.622 433.154 607.874 433.154ZM605.727 428.516C605.786 427.432 606.572 426.492 607.78 426.492C608.933 426.492 609.689 427.347 609.694 428.516H605.727ZM615.022 433.169C616.285 433.169 616.996 432.528 617.279 431.956H617.339V433H618.791V427.929C618.791 425.707 617.041 425.264 615.828 425.264C614.446 425.264 613.173 425.821 612.676 427.213L614.073 427.531C614.292 426.989 614.848 426.467 615.848 426.467C616.807 426.467 617.299 426.969 617.299 427.835V427.869C617.299 428.411 616.743 428.401 615.37 428.56C613.924 428.729 612.442 429.107 612.442 430.842C612.442 432.344 613.571 433.169 615.022 433.169ZM615.346 431.976C614.505 431.976 613.899 431.598 613.899 430.862C613.899 430.067 614.605 429.783 615.465 429.669C615.947 429.604 617.091 429.475 617.304 429.261V430.246C617.304 431.151 616.583 431.976 615.346 431.976ZM623.629 433.149C625.021 433.149 625.568 432.299 625.837 431.812H625.961V433H627.413V422.818H625.926V426.602H625.837C625.568 426.129 625.061 425.264 623.639 425.264C621.795 425.264 620.438 426.721 620.438 429.197C620.438 431.668 621.775 433.149 623.629 433.149ZM623.958 431.881C622.63 431.881 621.939 430.713 621.939 429.182C621.939 427.665 622.615 426.527 623.958 426.527C625.255 426.527 625.951 427.586 625.951 429.182C625.951 430.788 625.24 431.881 623.958 431.881ZM636.098 433.149C637.49 433.149 638.037 432.299 638.306 431.812H638.43V433H639.882V422.818H638.395V426.602H638.306C638.037 426.129 637.53 425.264 636.108 425.264C634.264 425.264 632.906 426.721 632.906 429.197C632.906 431.668 634.244 433.149 636.098 433.149ZM636.426 431.881C635.099 431.881 634.408 430.713 634.408 429.182C634.408 427.665 635.084 426.527 636.426 426.527C637.724 426.527 638.42 427.586 638.42 429.182C638.42 430.788 637.709 431.881 636.426 431.881ZM645.22 433.154C647.373 433.154 648.779 431.578 648.779 429.217C648.779 426.84 647.373 425.264 645.22 425.264C643.067 425.264 641.66 426.84 641.66 429.217C641.66 431.578 643.067 433.154 645.22 433.154ZM645.225 431.906C643.818 431.906 643.162 430.678 643.162 429.212C643.162 427.75 643.818 426.507 645.225 426.507C646.622 426.507 647.278 427.75 647.278 429.212C647.278 430.678 646.622 431.906 645.225 431.906ZM653.655 433.154C655.46 433.154 656.628 432.07 656.792 430.584H655.346C655.157 431.409 654.515 431.896 653.665 431.896C652.407 431.896 651.597 430.847 651.597 429.182C651.597 427.546 652.422 426.517 653.665 426.517C654.61 426.517 655.187 427.114 655.346 427.83H656.792C656.633 426.288 655.376 425.264 653.64 425.264C651.488 425.264 650.096 426.885 650.096 429.217C650.096 431.518 651.438 433.154 653.655 433.154ZM663.219 429.833C663.224 431.131 662.26 431.747 661.425 431.747C660.505 431.747 659.869 431.081 659.869 430.042V425.364H658.382V430.221C658.382 432.115 659.421 433.099 660.888 433.099C662.036 433.099 662.817 432.493 663.17 431.678H663.249V433H664.711V425.364H663.219V429.833ZM666.708 433H668.195V428.292C668.195 427.263 668.916 426.547 669.761 426.547C670.586 426.547 671.158 427.094 671.158 427.924V433H672.639V428.133C672.639 427.213 673.201 426.547 674.171 426.547C674.956 426.547 675.602 426.984 675.602 428.018V433H677.089V427.879C677.089 426.134 676.115 425.264 674.732 425.264C673.634 425.264 672.808 425.791 672.441 426.607H672.361C672.028 425.771 671.327 425.264 670.308 425.264C669.298 425.264 668.548 425.766 668.23 426.607H668.135V425.364H666.708V433ZM682.373 433.154C684.038 433.154 685.216 432.334 685.554 431.091L684.147 430.837C683.879 431.558 683.233 431.926 682.387 431.926C681.115 431.926 680.26 431.101 680.22 429.629H685.649V429.102C685.649 426.343 683.998 425.264 682.268 425.264C680.14 425.264 678.738 426.885 678.738 429.232C678.738 431.603 680.12 433.154 682.373 433.154ZM680.225 428.516C680.284 427.432 681.07 426.492 682.278 426.492C683.431 426.492 684.187 427.347 684.192 428.516H680.225ZM688.785 428.466C688.785 427.248 689.53 426.552 690.564 426.552C691.574 426.552 692.185 427.213 692.185 428.322V433H693.672V428.143C693.672 426.254 692.633 425.264 691.072 425.264C689.923 425.264 689.172 425.796 688.819 426.607H688.725V425.364H687.298V433H688.785V428.466ZM699.23 425.364H697.664V423.534H696.177V425.364H695.059V426.557H696.177V431.066C696.172 432.453 697.231 433.124 698.405 433.099C698.877 433.094 699.195 433.005 699.369 432.94L699.101 431.712C699.001 431.732 698.817 431.777 698.579 431.777C698.096 431.777 697.664 431.618 697.664 430.758V426.557H699.23V425.364ZM703.097 433.169C704.359 433.169 705.07 432.528 705.354 431.956H705.413V433H706.865V427.929C706.865 425.707 705.115 425.264 703.902 425.264C702.52 425.264 701.247 425.821 700.75 427.213L702.147 427.531C702.366 426.989 702.923 426.467 703.922 426.467C704.881 426.467 705.374 426.969 705.374 427.835V427.869C705.374 428.411 704.817 428.401 703.445 428.56C701.998 428.729 700.516 429.107 700.516 430.842C700.516 432.344 701.645 433.169 703.097 433.169ZM703.42 431.976C702.58 431.976 701.973 431.598 701.973 430.862C701.973 430.067 702.679 429.783 703.539 429.669C704.021 429.604 705.165 429.475 705.379 429.261V430.246C705.379 431.151 704.658 431.976 703.42 431.976ZM712.41 425.364H710.844V423.534H709.357V425.364H708.238V426.557H709.357V431.066C709.352 432.453 710.411 433.124 711.584 433.099C712.057 433.094 712.375 433.005 712.549 432.94L712.28 431.712C712.181 431.732 711.997 431.777 711.758 431.777C711.276 431.777 710.844 431.618 710.844 430.758V426.557H712.41V425.364ZM714.054 433H715.54V425.364H714.054V433ZM714.805 424.185C715.317 424.185 715.744 423.788 715.744 423.3C715.744 422.813 715.317 422.411 714.805 422.411C714.288 422.411 713.865 422.813 713.865 423.3C713.865 423.788 714.288 424.185 714.805 424.185ZM720.757 433.154C722.91 433.154 724.317 431.578 724.317 429.217C724.317 426.84 722.91 425.264 720.757 425.264C718.604 425.264 717.197 426.84 717.197 429.217C717.197 431.578 718.604 433.154 720.757 433.154ZM720.762 431.906C719.355 431.906 718.699 430.678 718.699 429.212C718.699 427.75 719.355 426.507 720.762 426.507C722.159 426.507 722.815 427.75 722.815 429.212C722.815 430.678 722.159 431.906 720.762 431.906ZM727.462 428.466C727.462 427.248 728.208 426.552 729.242 426.552C730.251 426.552 730.863 427.213 730.863 428.322V433H732.349V428.143C732.349 426.254 731.31 425.264 729.749 425.264C728.601 425.264 727.85 425.796 727.497 426.607H727.403V425.364H725.976V433H727.462V428.466Z" fill="#0071C2"/>
<path fill-rule="evenodd" clip-rule="evenodd" d="M747.25 428.875C747.25 428.668 747.418 428.5 747.625 428.5C747.832 428.5 748 428.668 748 428.875V431.5C748 432.328 747.328 433 746.5 433H740.5C739.672 433 739 432.328 739 431.5V425.5C739 424.672 739.672 424 740.5 424H743.125C743.332 424 743.5 424.168 743.5 424.375C743.5 424.582 743.332 424.75 743.125 424.75H740.5C740.086 424.75 739.75 425.086 739.75 425.5V431.5C739.75 431.914 740.086 432.25 740.5 432.25H746.5C746.914 432.25 747.25 431.914 747.25 431.5V428.875ZM743.41 429.129C743.264 429.276 743.027 429.276 742.88 429.129C742.734 428.983 742.734 428.745 742.88 428.599L747.479 424H745.375C745.168 424 745 423.832 745 423.625C745 423.418 745.168 423.25 745.375 423.25H748C748.414 423.25 748.75 423.586 748.75 424V426.625C748.75 426.832 748.582 427 748.375 427C748.168 427 748 426.832 748 426.625V424.54L743.41 429.129Z" fill="#0071C2"/>
</g>
</g>
</g>
<rect width="428.844" height="4" transform="matrix(-1 0 0 1 1091.84 114.5)" fill="#005EC4"/>
<circle r="6" transform="matrix(-1 0 0 1 659 116.5)" fill="#005EC4"/>
<circle cx="1097" cy="116.5" r="17" fill="#005EC4"/>
<path d="M1098.59 110.864H1096.28L1093.4 112.688V114.869L1096.06 113.199H1096.13V122.5H1098.59V110.864Z" fill="white"/>
<rect width="346.085" height="4" transform="matrix(-1 0 0 1 1094.08 169.5)" fill="#005EC4"/>
<circle r="6" transform="matrix(-1 0 0 1 744 171.5)" fill="#005EC4"/>
<circle cx="1097" cy="171.5" r="17" fill="#005EC4"/>
<path d="M1092.9 177.5H1101.2V175.489H1096.31V175.409L1098.01 173.744C1100.4 171.562 1101.05 170.472 1101.05 169.148C1101.05 167.131 1099.4 165.705 1096.9 165.705C1094.46 165.705 1092.78 167.165 1092.79 169.449H1095.13C1095.12 168.335 1095.82 167.653 1096.89 167.653C1097.91 167.653 1098.67 168.29 1098.67 169.312C1098.67 170.239 1098.1 170.875 1097.05 171.892L1092.9 175.727V177.5Z" fill="white"/>
<rect width="289.615" height="4" transform="matrix(-1 0 0 1 1095.61 229.5)" fill="#005EC4"/>
<circle r="6" transform="matrix(-1 0 0 1 802 231.5)" fill="#005EC4"/>
<circle cx="1097" cy="231.5" r="17" fill="#005EC4"/>
<path d="M1096.97 237.659C1099.58 237.659 1101.45 236.222 1101.45 234.233C1101.45 232.784 1100.53 231.75 1098.82 231.534V231.443C1100.12 231.21 1101.02 230.29 1101.02 228.983C1101.02 227.148 1099.41 225.705 1097 225.705C1094.62 225.705 1092.82 227.102 1092.79 229.114H1095.15C1095.18 228.227 1095.99 227.653 1096.99 227.653C1097.99 227.653 1098.65 228.256 1098.65 229.131C1098.65 230.045 1097.87 230.665 1096.75 230.665H1095.67V232.472H1096.75C1098.07 232.472 1098.9 233.131 1098.89 234.068C1098.9 234.994 1098.1 235.631 1096.98 235.631C1095.89 235.631 1095.08 235.062 1095.03 234.21H1092.56C1092.6 236.244 1094.41 237.659 1096.97 237.659Z" fill="white"/>
<rect width="387.951" height="4" transform="matrix(-1 0 0 1 1092.95 312.5)" fill="#005EC4"/>
<circle r="6" transform="matrix(-1 0 0 1 701 314.5)" fill="#005EC4"/>
<circle cx="1097" cy="314.5" r="17" fill="#005EC4"/>
<path d="M1092.35 318.455H1097.93V320.5H1100.28V318.455H1101.73V316.483H1100.28V308.864H1097.2L1092.35 316.517V318.455ZM1097.98 316.483H1094.82V316.392L1097.88 311.545H1097.98V316.483Z" fill="white"/>
<rect width="310.061" height="4" transform="matrix(-1 0 0 1 1095.06 423.5)" fill="#005EC4"/>
<circle r="6" transform="matrix(-1 0 0 1 781 425.5)" fill="#005EC4"/>
<circle cx="1097" cy="425.5" r="17" fill="#005EC4"/>
<path d="M1097.04 431.659C1099.63 431.659 1101.39 429.972 1101.38 427.619C1101.39 425.392 1099.83 423.79 1097.74 423.79C1096.71 423.79 1095.83 424.216 1095.42 424.79H1095.36L1095.66 421.875H1100.74V419.864H1093.63L1093.08 426L1095.26 426.392C1095.62 425.909 1096.32 425.608 1097 425.608C1098.17 425.614 1099.01 426.46 1099.01 427.682C1099.01 428.892 1098.19 429.727 1097.04 429.727C1096.06 429.727 1095.27 429.114 1095.21 428.21H1092.83C1092.87 430.222 1094.63 431.659 1097.04 431.659Z" fill="white"/>
<defs>
<filter id="filter0_dddd_22764_276515" x="358" y="66.2" width="484" height="426.3" filterUnits="userSpaceOnUse" color-interpolation-filters="sRGB">
<feFlood flood-opacity="0" result="BackgroundImageFix"/>
<feColorMatrix in="SourceAlpha" type="matrix" values="0 0 0 0 0 0 0 0 0 0 0 0 0 0 0 0 0 0 127 0" result="hardAlpha"/>
<feMorphology radius="1" operator="erode" in="SourceAlpha" result="effect1_dropShadow_22764_276515"/>
<feOffset dy="15"/>
<feGaussianBlur stdDeviation="7.5"/>
<feColorMatrix type="matrix" values="0 0 0 0 0 0 0 0 0 0 0 0 0 0 0 0 0 0 0.04 0"/>
<feBlend mode="normal" in2="BackgroundImageFix" result="effect1_dropShadow_22764_276515"/>
<feColorMatrix in="SourceAlpha" type="matrix" values="0 0 0 0 0 0 0 0 0 0 0 0 0 0 0 0 0 0 127 0" result="hardAlpha"/>
<feMorphology radius="1" operator="erode" in="SourceAlpha" result="effect2_dropShadow_22764_276515"/>
<feOffset dy="5.7"/>
<feGaussianBlur stdDeviation="6"/>
<feColorMatrix type="matrix" values="0 0 0 0 0 0 0 0 0 0 0 0 0 0 0 0 0 0 0.05 0"/>
<feBlend mode="normal" in2="effect1_dropShadow_22764_276515" result="effect2_dropShadow_22764_276515"/>
<feColorMatrix in="SourceAlpha" type="matrix" values="0 0 0 0 0 0 0 0 0 0 0 0 0 0 0 0 0 0 127 0" result="hardAlpha"/>
<feMorphology radius="1" operator="erode" in="SourceAlpha" result="effect3_dropShadow_22764_276515"/>
<feOffset dy="2.6"/>
<feGaussianBlur stdDeviation="4"/>
<feColorMatrix type="matrix" values="0 0 0 0 0 0 0 0 0 0 0 0 0 0 0 0 0 0 0.06 0"/>
<feBlend mode="normal" in2="effect2_dropShadow_22764_276515" result="effect3_dropShadow_22764_276515"/>
<feColorMatrix in="SourceAlpha" type="matrix" values="0 0 0 0 0 0 0 0 0 0 0 0 0 0 0 0 0 0 127 0" result="hardAlpha"/>
<feMorphology radius="1" operator="erode" in="SourceAlpha" result="effect4_dropShadow_22764_276515"/>
<feOffset dy="0.9"/>
<feGaussianBlur stdDeviation="2"/>
<feColorMatrix type="matrix" values="0 0 0 0 0 0 0 0 0 0 0 0 0 0 0 0 0 0 0.08 0"/>
<feBlend mode="normal" in2="effect3_dropShadow_22764_276515" result="effect4_dropShadow_22764_276515"/>
<feBlend mode="normal" in="SourceGraphic" in2="effect4_dropShadow_22764_276515" result="shape"/>
</filter>
<clipPath id="clip0_22764_276515">
<path d="M372 77.5C372 74.1863 374.686 71.5 378 71.5H822C825.314 71.5 828 74.1863 828 77.5V457.5C828 460.814 825.314 463.5 822 463.5H378C374.686 463.5 372 460.814 372 457.5V77.5Z" fill="white"/>
</clipPath>
<clipPath id="clip1_22764_276515">
<rect width="40" height="40" fill="white" transform="translate(580 95.5)"/>
</clipPath>
<clipPath id="clip2_22764_276515">
<rect width="134" height="104" fill="white" transform="translate(533 263.5)"/>
</clipPath>
<clipPath id="clip3_22764_276515">
<path d="M544 277.5C544 274.186 546.686 271.5 550 271.5H650C653.314 271.5 656 274.186 656 277.5V305.5C656 308.814 653.314 311.5 650 311.5H550C546.686 311.5 544 308.814 544 305.5V277.5Z" fill="white"/>
</clipPath>
<clipPath id="clip4_22764_276515">
<rect width="155" height="21" fill="white" transform="translate(594.5 417)"/>
</clipPath>
</defs>
</svg>
