<svg width="485" height="371" viewBox="0 0 485 371" fill="none" xmlns="http://www.w3.org/2000/svg">
<g filter="url(#filter0_dddd_23023_280701)">
<g clip-path="url(#clip0_23023_280701)">
<path d="M14.5 12C14.5 8.68629 17.1863 6 20.5 6H464.5C467.814 6 470.5 8.68629 470.5 12V336C470.5 339.314 467.814 342 464.5 342H20.5C17.1863 342 14.5 339.314 14.5 336V12Z" fill="white"/>
<g clip-path="url(#clip1_23023_280701)">
<path d="M244.49 52.621C240.609 47.0245 241.493 39.312 246.017 32.3703C237.34 32.0695 229.514 37.9497 227.843 46.5499C225.987 56.0977 232.417 65.3815 242.215 67.2859C249.547 68.7579 257.029 65.559 261.031 59.2406C254.044 59.6825 247.856 57.4619 244.49 52.621Z" fill="#343741"/>
</g>
<path d="M130.946 98.011H134.925C134.868 94.5114 131.992 92.0952 127.619 92.0952C123.314 92.0952 120.16 94.473 120.179 98.0398C120.169 100.935 122.212 102.594 125.529 103.39L127.667 103.927C129.805 104.445 130.994 105.058 131.004 106.381C130.994 107.82 129.633 108.798 127.523 108.798C125.366 108.798 123.813 107.8 123.679 105.835H119.661C119.767 110.082 122.806 112.278 127.571 112.278C132.365 112.278 135.184 109.987 135.194 106.391C135.184 103.121 132.72 101.386 129.307 100.619L127.543 100.197C125.836 99.804 124.407 99.1712 124.436 97.7617C124.436 96.4961 125.558 95.5661 127.591 95.5661C129.575 95.5661 130.793 96.4673 130.946 98.011ZM145.743 97.2727H142.972V93.7443H138.888V97.2727H136.874V100.341H138.888V108.011C138.869 110.897 140.834 112.326 143.797 112.201C144.852 112.163 145.599 111.952 146.012 111.818L145.369 108.778C145.168 108.817 144.736 108.913 144.353 108.913C143.538 108.913 142.972 108.606 142.972 107.474V100.341H145.743V97.2727ZM152.603 112.278C154.78 112.278 156.189 111.329 156.909 109.958H157.024V112H160.897V102.067C160.897 98.5575 157.925 97.081 154.646 97.081C151.117 97.081 148.797 98.7685 148.231 101.453L152.009 101.76C152.287 100.782 153.16 100.063 154.627 100.063C156.017 100.063 156.813 100.763 156.813 101.971V102.028C156.813 102.978 155.806 103.102 153.246 103.352C150.331 103.62 147.714 104.598 147.714 107.887C147.714 110.801 149.794 112.278 152.603 112.278ZM153.773 109.459C152.517 109.459 151.616 108.874 151.616 107.752C151.616 106.602 152.565 106.036 154.003 105.835C154.895 105.71 156.352 105.499 156.841 105.173V106.736C156.841 108.28 155.566 109.459 153.773 109.459ZM164.066 112H168.151V103.668C168.151 101.856 169.474 100.609 171.276 100.609C171.842 100.609 172.619 100.705 173.002 100.83V97.2056C172.638 97.1193 172.13 97.0618 171.717 97.0618C170.068 97.0618 168.716 98.0206 168.179 99.8423H168.026V97.2727H164.066V112ZM183.686 97.2727H180.915V93.7443H176.83V97.2727H174.817V100.341H176.83V108.011C176.811 110.897 178.777 112.326 181.739 112.201C182.794 112.163 183.542 111.952 183.954 111.818L183.312 108.778C183.11 108.817 182.679 108.913 182.295 108.913C181.48 108.913 180.915 108.606 180.915 107.474V100.341H183.686V97.2727ZM196.795 112.278C198.971 112.278 200.381 111.329 201.1 109.958H201.215V112H205.089V102.067C205.089 98.5575 202.116 97.081 198.837 97.081C195.309 97.081 192.988 98.7685 192.423 101.453L196.2 101.76C196.478 100.782 197.351 100.063 198.818 100.063C200.208 100.063 201.004 100.763 201.004 101.971V102.028C201.004 102.978 199.997 103.102 197.437 103.352C194.523 103.62 191.905 104.598 191.905 107.887C191.905 110.801 193.986 112.278 196.795 112.278ZM197.965 109.459C196.709 109.459 195.807 108.874 195.807 107.752C195.807 106.602 196.757 106.036 198.195 105.835C199.086 105.71 200.544 105.499 201.033 105.173V106.736C201.033 108.28 199.758 109.459 197.965 109.459ZM213.684 112.24C216.062 112.24 217.299 110.869 217.865 109.641H218.037V112H222.064V92.3636H217.989V99.7464H217.865C217.318 98.5479 216.139 97.081 213.675 97.081C210.443 97.081 207.711 99.593 207.711 104.656C207.711 109.584 210.328 112.24 213.684 112.24ZM214.979 108.989C212.975 108.989 211.882 107.206 211.882 104.636C211.882 102.086 212.956 100.331 214.979 100.331C216.963 100.331 218.076 102.009 218.076 104.636C218.076 107.263 216.944 108.989 214.979 108.989ZM230.849 112.24C233.227 112.24 234.464 110.869 235.03 109.641H235.202V112H239.229V92.3636H235.154V99.7464H235.03C234.483 98.5479 233.304 97.081 230.84 97.081C227.609 97.081 224.876 99.593 224.876 104.656C224.876 109.584 227.493 112.24 230.849 112.24ZM232.144 108.989C230.14 108.989 229.047 107.206 229.047 104.636C229.047 102.086 230.121 100.331 232.144 100.331C234.128 100.331 235.241 102.009 235.241 104.636C235.241 107.263 234.109 108.989 232.144 108.989ZM242.587 112H246.672V97.2727H242.587V112ZM244.639 95.3743C245.857 95.3743 246.854 94.4442 246.854 93.3033C246.854 92.1719 245.857 91.2418 244.639 91.2418C243.431 91.2418 242.434 92.1719 242.434 93.3033C242.434 94.4442 243.431 95.3743 244.639 95.3743ZM254.028 103.486C254.038 101.587 255.169 100.475 256.819 100.475C258.458 100.475 259.446 101.549 259.436 103.352V112H263.521V102.623C263.521 99.1903 261.507 97.081 258.439 97.081C256.253 97.081 254.671 98.1548 254.009 99.8711H253.837V97.2727H249.944V112H254.028V103.486ZM273.375 117.83C277.584 117.83 280.575 115.912 280.575 112.144V97.2727H276.52V99.7464H276.366C275.82 98.5479 274.621 97.081 272.157 97.081C268.926 97.081 266.193 99.593 266.193 104.608C266.193 109.507 268.849 111.789 272.167 111.789C274.516 111.789 275.829 110.61 276.366 109.392H276.539V112.086C276.539 114.109 275.244 114.896 273.471 114.896C271.668 114.896 270.757 114.109 270.422 113.218L266.644 113.726C267.133 116.046 269.405 117.83 273.375 117.83ZM273.461 108.721C271.457 108.721 270.364 107.129 270.364 104.588C270.364 102.086 271.438 100.331 273.461 100.331C275.446 100.331 276.558 102.009 276.558 104.588C276.558 107.187 275.427 108.721 273.461 108.721ZM296.729 112.288C300.65 112.288 303.115 109.987 303.306 106.602H299.452C299.212 108.174 298.177 109.056 296.777 109.056C294.869 109.056 293.632 107.455 293.632 104.636C293.632 101.856 294.878 100.264 296.777 100.264C298.273 100.264 299.231 101.252 299.452 102.719H303.306C303.134 99.315 300.555 97.081 296.71 97.081C292.242 97.081 289.48 100.178 289.48 104.694C289.48 109.172 292.194 112.288 296.729 112.288ZM310.121 112.278C312.298 112.278 313.707 111.329 314.426 109.958H314.541V112H318.415V102.067C318.415 98.5575 315.442 97.081 312.163 97.081C308.635 97.081 306.315 98.7685 305.749 101.453L309.527 101.76C309.805 100.782 310.677 100.063 312.144 100.063C313.534 100.063 314.33 100.763 314.33 101.971V102.028C314.33 102.978 313.323 103.102 310.763 103.352C307.849 103.62 305.231 104.598 305.231 107.887C305.231 110.801 307.312 112.278 310.121 112.278ZM311.291 109.459C310.035 109.459 309.133 108.874 309.133 107.752C309.133 106.602 310.083 106.036 311.521 105.835C312.413 105.71 313.87 105.499 314.359 105.173V106.736C314.359 108.28 313.084 109.459 311.291 109.459ZM333.837 101.472C333.473 98.7589 331.287 97.081 327.567 97.081C323.798 97.081 321.315 98.826 321.325 101.664C321.315 103.869 322.705 105.298 325.582 105.873L328.132 106.381C329.417 106.64 330.002 107.11 330.021 107.848C330.002 108.721 329.053 109.344 327.624 109.344C326.167 109.344 325.198 108.721 324.949 107.522L320.932 107.733C321.315 110.552 323.712 112.288 327.614 112.288C331.431 112.288 334.163 110.341 334.173 107.436C334.163 105.308 332.773 104.032 329.916 103.447L327.25 102.911C325.879 102.613 325.371 102.143 325.38 101.434C325.371 100.552 326.368 99.9766 327.634 99.9766C329.053 99.9766 329.896 100.753 330.098 101.702L333.837 101.472ZM343.456 112.288C347.1 112.288 349.554 110.514 350.13 107.781L346.352 107.532C345.94 108.654 344.885 109.239 343.523 109.239C341.481 109.239 340.187 107.887 340.187 105.691V105.681H350.216V104.56C350.216 99.5547 347.186 97.081 343.293 97.081C338.96 97.081 336.15 100.159 336.15 104.703C336.15 109.373 338.921 112.288 343.456 112.288ZM340.187 103.15C340.273 101.472 341.548 100.13 343.36 100.13C345.134 100.13 346.362 101.396 346.371 103.15H340.187ZM365.135 101.472C364.771 98.7589 362.585 97.081 358.864 97.081C355.096 97.081 352.613 98.826 352.623 101.664C352.613 103.869 354.003 105.298 356.88 105.873L359.43 106.381C360.715 106.64 361.3 107.11 361.319 107.848C361.3 108.721 360.351 109.344 358.922 109.344C357.465 109.344 356.496 108.721 356.247 107.522L352.229 107.733C352.613 110.552 355.01 112.288 358.912 112.288C362.728 112.288 365.461 110.341 365.471 107.436C365.461 105.308 364.071 104.032 361.213 103.447L358.548 102.911C357.177 102.613 356.669 102.143 356.678 101.434C356.669 100.552 357.666 99.9766 358.932 99.9766C360.351 99.9766 361.194 100.753 361.396 101.702L365.135 101.472Z" fill="#1A1C21"/>
<path d="M57.8587 141.614H61.5178V152H62.9268V141.614H66.5859V140.364H57.8587V141.614ZM69.9197 146.75C69.9197 145.227 70.8913 144.364 72.2152 144.364C73.4766 144.364 74.2379 145.159 74.2379 146.545V152H75.5788V146.455C75.5788 144.21 74.3857 143.159 72.6016 143.159C71.2266 143.159 70.4425 143.733 70.0334 144.636H69.9197V140.364H68.5788V152H69.9197V146.75ZM81.6911 152.182C83.4638 152.182 84.7592 151.295 85.1683 149.977L83.8729 149.614C83.532 150.523 82.7422 150.977 81.6911 150.977C80.1172 150.977 79.032 149.96 78.9695 148.091H85.3047V147.523C85.3047 144.273 83.3729 143.159 81.5547 143.159C79.1911 143.159 77.6229 145.023 77.6229 147.705C77.6229 150.386 79.1683 152.182 81.6911 152.182ZM78.9695 146.932C79.0604 145.574 80.0206 144.364 81.5547 144.364C83.0092 144.364 83.9411 145.455 83.9411 146.932H78.9695ZM87.3445 152H88.6854V146.477C88.6854 145.295 89.6172 144.432 90.8899 144.432C91.2479 144.432 91.6172 144.5 91.7081 144.523V143.159C91.5547 143.148 91.2024 143.136 91.0036 143.136C89.9581 143.136 89.049 143.727 88.7308 144.591H88.6399V143.273H87.3445V152ZM96.6911 152.182C98.4638 152.182 99.7592 151.295 100.168 149.977L98.8729 149.614C98.532 150.523 97.7422 150.977 96.6911 150.977C95.1172 150.977 94.032 149.96 93.9695 148.091H100.305V147.523C100.305 144.273 98.3729 143.159 96.5547 143.159C94.1911 143.159 92.6229 145.023 92.6229 147.705C92.6229 150.386 94.1683 152.182 96.6911 152.182ZM93.9695 146.932C94.0604 145.574 95.0206 144.364 96.5547 144.364C98.0092 144.364 98.9411 145.455 98.9411 146.932H93.9695ZM109.413 152.205C110.935 152.205 111.731 151.386 112.004 150.818H112.072V152H113.413V146.25C113.413 143.477 111.299 143.159 110.185 143.159C108.867 143.159 107.367 143.614 106.685 145.205L107.958 145.659C108.254 145.023 108.952 144.341 110.231 144.341C111.464 144.341 112.072 144.994 112.072 146.114V146.159C112.072 146.807 111.413 146.75 109.822 146.955C108.202 147.165 106.435 147.523 106.435 149.523C106.435 151.227 107.754 152.205 109.413 152.205ZM109.617 151C108.549 151 107.776 150.523 107.776 149.591C107.776 148.568 108.708 148.25 109.754 148.114C110.322 148.045 111.844 147.886 112.072 147.614V148.841C112.072 149.932 111.208 151 109.617 151ZM115.86 152H117.201V146.477C117.201 145.295 118.133 144.432 119.406 144.432C119.763 144.432 120.133 144.5 120.224 144.523V143.159C120.07 143.148 119.718 143.136 119.519 143.136C118.474 143.136 117.565 143.727 117.246 144.591H117.156V143.273H115.86V152ZM125.207 152.182C126.979 152.182 128.275 151.295 128.684 149.977L127.388 149.614C127.048 150.523 126.258 150.977 125.207 150.977C123.633 150.977 122.548 149.96 122.485 148.091H128.82V147.523C128.82 144.273 126.888 143.159 125.07 143.159C122.707 143.159 121.138 145.023 121.138 147.705C121.138 150.386 122.684 152.182 125.207 152.182ZM122.485 146.932C122.576 145.574 123.536 144.364 125.07 144.364C126.525 144.364 127.457 145.455 127.457 146.932H122.485ZM136.701 146.75C136.701 145.227 137.644 144.364 138.928 144.364C140.173 144.364 140.928 145.176 140.928 146.545V152H142.269V146.455C142.269 144.227 141.082 143.159 139.315 143.159C137.996 143.159 137.178 143.75 136.769 144.636H136.656V143.273H135.36V152H136.701V146.75ZM148.265 152.182C150.629 152.182 152.219 150.386 152.219 147.682C152.219 144.955 150.629 143.159 148.265 143.159C145.901 143.159 144.31 144.955 144.31 147.682C144.31 150.386 145.901 152.182 148.265 152.182ZM148.265 150.977C146.469 150.977 145.651 149.432 145.651 147.682C145.651 145.932 146.469 144.364 148.265 144.364C150.06 144.364 150.879 145.932 150.879 147.682C150.879 149.432 150.06 150.977 148.265 150.977ZM162.312 152.182C164.244 152.182 165.516 151 165.744 149.455H164.403C164.153 150.409 163.357 150.977 162.312 150.977C160.721 150.977 159.698 149.659 159.698 147.636C159.698 145.659 160.744 144.364 162.312 144.364C163.494 144.364 164.198 145.091 164.403 145.886H165.744C165.516 144.25 164.13 143.159 162.289 143.159C159.925 143.159 158.357 145.023 158.357 147.682C158.357 150.295 159.857 152.182 162.312 152.182ZM170.272 152.205C171.795 152.205 172.59 151.386 172.863 150.818H172.931V152H174.272V146.25C174.272 143.477 172.158 143.159 171.045 143.159C169.727 143.159 168.227 143.614 167.545 145.205L168.817 145.659C169.113 145.023 169.812 144.341 171.09 144.341C172.323 144.341 172.931 144.994 172.931 146.114V146.159C172.931 146.807 172.272 146.75 170.681 146.955C169.062 147.165 167.295 147.523 167.295 149.523C167.295 151.227 168.613 152.205 170.272 152.205ZM170.477 151C169.408 151 168.636 150.523 168.636 149.591C168.636 148.568 169.567 148.25 170.613 148.114C171.181 148.045 172.704 147.886 172.931 147.614V148.841C172.931 149.932 172.067 151 170.477 151ZM182.901 145.227C182.481 143.989 181.538 143.159 179.81 143.159C177.969 143.159 176.606 144.205 176.606 145.682C176.606 146.886 177.322 147.693 178.924 148.068L180.379 148.409C181.259 148.614 181.674 149.034 181.674 149.636C181.674 150.386 180.879 151 179.629 151C178.532 151 177.844 150.528 177.606 149.591L176.333 149.909C176.646 151.392 177.867 152.182 179.651 152.182C181.68 152.182 183.06 151.074 183.06 149.568C183.06 148.352 182.299 147.585 180.742 147.205L179.447 146.886C178.413 146.631 177.947 146.284 177.947 145.614C177.947 144.864 178.742 144.318 179.81 144.318C180.981 144.318 181.464 144.966 181.697 145.568L182.901 145.227ZM188.738 152.182C190.511 152.182 191.806 151.295 192.215 149.977L190.92 149.614C190.579 150.523 189.789 150.977 188.738 150.977C187.164 150.977 186.079 149.96 186.016 148.091H192.352V147.523C192.352 144.273 190.42 143.159 188.602 143.159C186.238 143.159 184.67 145.023 184.67 147.705C184.67 150.386 186.215 152.182 188.738 152.182ZM186.016 146.932C186.107 145.574 187.067 144.364 188.602 144.364C190.056 144.364 190.988 145.455 190.988 146.932H186.016ZM200.573 145.227C200.153 143.989 199.21 143.159 197.482 143.159C195.641 143.159 194.278 144.205 194.278 145.682C194.278 146.886 194.994 147.693 196.596 148.068L198.05 148.409C198.931 148.614 199.346 149.034 199.346 149.636C199.346 150.386 198.55 151 197.3 151C196.204 151 195.516 150.528 195.278 149.591L194.005 149.909C194.317 151.392 195.539 152.182 197.323 152.182C199.352 152.182 200.732 151.074 200.732 149.568C200.732 148.352 199.971 147.585 198.414 147.205L197.119 146.886C196.085 146.631 195.619 146.284 195.619 145.614C195.619 144.864 196.414 144.318 197.482 144.318C198.653 144.318 199.136 144.966 199.369 145.568L200.573 145.227ZM211.046 143.273H209.183V141.182H207.842V143.273H206.523V144.409H207.842V149.864C207.842 151.386 209.069 152.114 210.205 152.114C210.705 152.114 211.023 152.023 211.205 151.955L210.933 150.75C210.819 150.773 210.637 150.818 210.342 150.818C209.751 150.818 209.183 150.636 209.183 149.5V144.409H211.046V143.273ZM216.515 152.182C218.879 152.182 220.469 150.386 220.469 147.682C220.469 144.955 218.879 143.159 216.515 143.159C214.151 143.159 212.56 144.955 212.56 147.682C212.56 150.386 214.151 152.182 216.515 152.182ZM216.515 150.977C214.719 150.977 213.901 149.432 213.901 147.682C213.901 145.932 214.719 144.364 216.515 144.364C218.31 144.364 219.129 145.932 219.129 147.682C219.129 149.432 218.31 150.977 216.515 150.977ZM230.312 152.182C231.994 152.182 232.562 151.136 232.857 150.659H233.016V152H234.312V140.364H232.971V144.659H232.857C232.562 144.205 232.039 143.159 230.335 143.159C228.13 143.159 226.607 144.909 226.607 147.659C226.607 150.432 228.13 152.182 230.312 152.182ZM230.494 150.977C228.812 150.977 227.948 149.5 227.948 147.636C227.948 145.795 228.789 144.364 230.494 144.364C232.13 144.364 232.994 145.682 232.994 147.636C232.994 149.614 232.107 150.977 230.494 150.977ZM236.954 152H238.295V143.273H236.954V152ZM237.636 141.818C238.158 141.818 238.59 141.409 238.59 140.909C238.59 140.409 238.158 140 237.636 140C237.113 140 236.681 140.409 236.681 140.909C236.681 141.409 237.113 141.818 237.636 141.818ZM246.933 145.227C246.512 143.989 245.569 143.159 243.842 143.159C242.001 143.159 240.637 144.205 240.637 145.682C240.637 146.886 241.353 147.693 242.955 148.068L244.41 148.409C245.29 148.614 245.705 149.034 245.705 149.636C245.705 150.386 244.91 151 243.66 151C242.563 151 241.876 150.528 241.637 149.591L240.364 149.909C240.677 151.392 241.898 152.182 243.683 152.182C245.711 152.182 247.092 151.074 247.092 149.568C247.092 148.352 246.33 147.585 244.773 147.205L243.478 146.886C242.444 146.631 241.978 146.284 241.978 145.614C241.978 144.864 242.773 144.318 243.842 144.318C245.012 144.318 245.495 144.966 245.728 145.568L246.933 145.227ZM249.11 155.273H250.451V150.659H250.565C250.86 151.136 251.428 152.182 253.11 152.182C255.292 152.182 256.815 150.432 256.815 147.659C256.815 144.909 255.292 143.159 253.087 143.159C251.383 143.159 250.86 144.205 250.565 144.659H250.406V143.273H249.11V155.273ZM250.428 147.636C250.428 145.682 251.292 144.364 252.928 144.364C254.633 144.364 255.474 145.795 255.474 147.636C255.474 149.5 254.61 150.977 252.928 150.977C251.315 150.977 250.428 149.614 250.428 147.636ZM260.201 140.364H258.86V152H260.201V140.364ZM265.225 152.205C266.748 152.205 267.543 151.386 267.816 150.818H267.884V152H269.225V146.25C269.225 143.477 267.112 143.159 265.998 143.159C264.68 143.159 263.18 143.614 262.498 145.205L263.771 145.659C264.066 145.023 264.765 144.341 266.043 144.341C267.276 144.341 267.884 144.994 267.884 146.114V146.159C267.884 146.807 267.225 146.75 265.634 146.955C264.015 147.165 262.248 147.523 262.248 149.523C262.248 151.227 263.566 152.205 265.225 152.205ZM265.43 151C264.362 151 263.589 150.523 263.589 149.591C263.589 148.568 264.521 148.25 265.566 148.114C266.134 148.045 267.657 147.886 267.884 147.614V148.841C267.884 149.932 267.021 151 265.43 151ZM272.224 155.273C273.434 155.273 274.286 154.631 274.792 153.273L278.508 143.295L277.042 143.273L274.633 150.227H274.542L272.133 143.273H270.678L273.906 152.045L273.656 152.727C273.167 154.057 272.565 154.182 271.587 153.932L271.246 155.114C271.383 155.182 271.769 155.273 272.224 155.273ZM280.712 152.091C281.275 152.091 281.735 151.631 281.735 151.068C281.735 150.506 281.275 150.045 280.712 150.045C280.15 150.045 279.69 150.506 279.69 151.068C279.69 151.631 280.15 152.091 280.712 152.091ZM289.3 152L290.471 148.705H295.175L296.346 152H297.823L293.55 140.364H292.096L287.823 152H289.3ZM290.914 147.455L292.778 142.205H292.869L294.732 147.455H290.914ZM302.749 152.182C304.431 152.182 304.999 151.136 305.295 150.659H305.454V152H306.749V140.364H305.408V144.659H305.295C304.999 144.205 304.477 143.159 302.772 143.159C300.567 143.159 299.045 144.909 299.045 147.659C299.045 150.432 300.567 152.182 302.749 152.182ZM302.931 150.977C301.249 150.977 300.386 149.5 300.386 147.636C300.386 145.795 301.227 144.364 302.931 144.364C304.567 144.364 305.431 145.682 305.431 147.636C305.431 149.614 304.545 150.977 302.931 150.977ZM312.687 152.182C314.369 152.182 314.937 151.136 315.232 150.659H315.391V152H316.687V140.364H315.346V144.659H315.232C314.937 144.205 314.414 143.159 312.71 143.159C310.505 143.159 308.982 144.909 308.982 147.659C308.982 150.432 310.505 152.182 312.687 152.182ZM312.869 150.977C311.187 150.977 310.323 149.5 310.323 147.636C310.323 145.795 311.164 144.364 312.869 144.364C314.505 144.364 315.369 145.682 315.369 147.636C315.369 149.614 314.482 150.977 312.869 150.977ZM326.397 152.205C327.92 152.205 328.715 151.386 328.988 150.818H329.056V152H330.397V146.25C330.397 143.477 328.283 143.159 327.17 143.159C325.852 143.159 324.352 143.614 323.67 145.205L324.942 145.659C325.238 145.023 325.937 144.341 327.215 144.341C328.448 144.341 329.056 144.994 329.056 146.114V146.159C329.056 146.807 328.397 146.75 326.806 146.955C325.187 147.165 323.42 147.523 323.42 149.523C323.42 151.227 324.738 152.205 326.397 152.205ZM326.602 151C325.533 151 324.761 150.523 324.761 149.591C324.761 148.568 325.692 148.25 326.738 148.114C327.306 148.045 328.829 147.886 329.056 147.614V148.841C329.056 149.932 328.192 151 326.602 151ZM338.685 146.75C338.685 145.227 339.629 144.364 340.913 144.364C342.157 144.364 342.913 145.176 342.913 146.545V152H344.254V146.455C344.254 144.227 343.066 143.159 341.299 143.159C339.981 143.159 339.163 143.75 338.754 144.636H338.64V143.273H337.344V152H338.685V146.75ZM350.363 152.182C352.136 152.182 353.431 151.295 353.84 149.977L352.545 149.614C352.204 150.523 351.414 150.977 350.363 150.977C348.789 150.977 347.704 149.96 347.641 148.091H353.977V147.523C353.977 144.273 352.045 143.159 350.227 143.159C347.863 143.159 346.295 145.023 346.295 147.705C346.295 150.386 347.84 152.182 350.363 152.182ZM347.641 146.932C347.732 145.574 348.692 144.364 350.227 144.364C351.681 144.364 352.613 145.455 352.613 146.932H347.641ZM357.994 152H359.312L361.221 145.295H361.357L363.266 152H364.585L367.244 143.273H365.835L363.948 149.932H363.857L362.016 143.273H360.585L358.721 149.955H358.63L356.744 143.273H355.335L357.994 152ZM377.062 152.182C378.994 152.182 380.266 151 380.494 149.455H379.153C378.903 150.409 378.107 150.977 377.062 150.977C375.471 150.977 374.448 149.659 374.448 147.636C374.448 145.659 375.494 144.364 377.062 144.364C378.244 144.364 378.948 145.091 379.153 145.886H380.494C380.266 144.25 378.88 143.159 377.039 143.159C374.675 143.159 373.107 145.023 373.107 147.682C373.107 150.295 374.607 152.182 377.062 152.182ZM385.022 152.205C386.545 152.205 387.34 151.386 387.613 150.818H387.681V152H389.022V146.25C389.022 143.477 386.908 143.159 385.795 143.159C384.477 143.159 382.977 143.614 382.295 145.205L383.567 145.659C383.863 145.023 384.562 144.341 385.84 144.341C387.073 144.341 387.681 144.994 387.681 146.114V146.159C387.681 146.807 387.022 146.75 385.431 146.955C383.812 147.165 382.045 147.523 382.045 149.523C382.045 151.227 383.363 152.205 385.022 152.205ZM385.227 151C384.158 151 383.386 150.523 383.386 149.591C383.386 148.568 384.317 148.25 385.363 148.114C385.931 148.045 387.454 147.886 387.681 147.614V148.841C387.681 149.932 386.817 151 385.227 151ZM397.651 145.227C397.231 143.989 396.288 143.159 394.56 143.159C392.719 143.159 391.356 144.205 391.356 145.682C391.356 146.886 392.072 147.693 393.674 148.068L395.129 148.409C396.009 148.614 396.424 149.034 396.424 149.636C396.424 150.386 395.629 151 394.379 151C393.282 151 392.594 150.528 392.356 149.591L391.083 149.909C391.396 151.392 392.617 152.182 394.401 152.182C396.43 152.182 397.81 151.074 397.81 149.568C397.81 148.352 397.049 147.585 395.492 147.205L394.197 146.886C393.163 146.631 392.697 146.284 392.697 145.614C392.697 144.864 393.492 144.318 394.56 144.318C395.731 144.318 396.214 144.966 396.447 145.568L397.651 145.227ZM403.488 152.182C405.261 152.182 406.556 151.295 406.965 149.977L405.67 149.614C405.329 150.523 404.539 150.977 403.488 150.977C401.914 150.977 400.829 149.96 400.766 148.091H407.102V147.523C407.102 144.273 405.17 143.159 403.352 143.159C400.988 143.159 399.42 145.023 399.42 147.705C399.42 150.386 400.965 152.182 403.488 152.182ZM400.766 146.932C400.857 145.574 401.817 144.364 403.352 144.364C404.806 144.364 405.738 145.455 405.738 146.932H400.766ZM417.187 152.182C419.55 152.182 421.141 150.386 421.141 147.682C421.141 144.955 419.55 143.159 417.187 143.159C414.823 143.159 413.232 144.955 413.232 147.682C413.232 150.386 414.823 152.182 417.187 152.182ZM417.187 150.977C415.391 150.977 414.573 149.432 414.573 147.682C414.573 145.932 415.391 144.364 417.187 144.364C418.982 144.364 419.8 145.932 419.8 147.682C419.8 149.432 418.982 150.977 417.187 150.977ZM423.188 152H424.529V146.477C424.529 145.295 425.461 144.432 426.734 144.432C427.092 144.432 427.461 144.5 427.552 144.523V143.159C427.398 143.148 427.046 143.136 426.847 143.136C425.802 143.136 424.893 143.727 424.575 144.591H424.484V143.273H423.188V152ZM146.249 176.182C148.181 176.182 149.454 175 149.681 173.455H148.34C148.09 174.409 147.295 174.977 146.249 174.977C144.658 174.977 143.636 173.659 143.636 171.636C143.636 169.659 144.681 168.364 146.249 168.364C147.431 168.364 148.136 169.091 148.34 169.886H149.681C149.454 168.25 148.067 167.159 146.227 167.159C143.863 167.159 142.295 169.023 142.295 171.682C142.295 174.295 143.795 176.182 146.249 176.182ZM152.982 170.75C152.982 169.227 153.954 168.364 155.278 168.364C156.539 168.364 157.3 169.159 157.3 170.545V176H158.641V170.455C158.641 168.21 157.448 167.159 155.664 167.159C154.289 167.159 153.505 167.733 153.096 168.636H152.982V164.364H151.641V176H152.982V170.75ZM163.663 176.205C165.185 176.205 165.981 175.386 166.254 174.818H166.322V176H167.663V170.25C167.663 167.477 165.549 167.159 164.435 167.159C163.117 167.159 161.617 167.614 160.935 169.205L162.208 169.659C162.504 169.023 163.202 168.341 164.481 168.341C165.714 168.341 166.322 168.994 166.322 170.114V170.159C166.322 170.807 165.663 170.75 164.072 170.955C162.452 171.165 160.685 171.523 160.685 173.523C160.685 175.227 162.004 176.205 163.663 176.205ZM163.867 175C162.799 175 162.026 174.523 162.026 173.591C162.026 172.568 162.958 172.25 164.004 172.114C164.572 172.045 166.094 171.886 166.322 171.614V172.841C166.322 173.932 165.458 175 163.867 175ZM171.451 170.75C171.451 169.227 172.394 168.364 173.678 168.364C174.923 168.364 175.678 169.176 175.678 170.545V176H177.019V170.455C177.019 168.227 175.832 167.159 174.065 167.159C172.746 167.159 171.928 167.75 171.519 168.636H171.406V167.273H170.11V176H171.451V170.75ZM182.992 179.455C185.083 179.455 186.765 178.5 186.765 176.25V167.273H185.469V168.659H185.333C185.038 168.205 184.492 167.159 182.788 167.159C180.583 167.159 179.06 168.909 179.06 171.591C179.06 174.318 180.651 175.864 182.765 175.864C184.469 175.864 185.015 174.864 185.31 174.386H185.424V176.159C185.424 177.614 184.401 178.273 182.992 178.273C181.407 178.273 180.85 177.438 180.492 176.955L179.424 177.705C179.969 178.619 181.043 179.455 182.992 179.455ZM182.947 174.659C181.265 174.659 180.401 173.386 180.401 171.568C180.401 169.795 181.242 168.364 182.947 168.364C184.583 168.364 185.447 169.682 185.447 171.568C185.447 173.5 184.56 174.659 182.947 174.659ZM192.879 176.182C194.651 176.182 195.947 175.295 196.356 173.977L195.06 173.614C194.719 174.523 193.93 174.977 192.879 174.977C191.305 174.977 190.219 173.96 190.157 172.091H196.492V171.523C196.492 168.273 194.56 167.159 192.742 167.159C190.379 167.159 188.81 169.023 188.81 171.705C188.81 174.386 190.356 176.182 192.879 176.182ZM190.157 170.932C190.248 169.574 191.208 168.364 192.742 168.364C194.197 168.364 195.129 169.455 195.129 170.932H190.157ZM203.896 179.273C205.106 179.273 205.958 178.631 206.464 177.273L210.18 167.295L208.714 167.273L206.305 174.227H206.214L203.805 167.273H202.35L205.577 176.045L205.327 176.727C204.839 178.057 204.237 178.182 203.259 177.932L202.918 179.114C203.055 179.182 203.441 179.273 203.896 179.273ZM215.187 176.182C217.55 176.182 219.141 174.386 219.141 171.682C219.141 168.955 217.55 167.159 215.187 167.159C212.823 167.159 211.232 168.955 211.232 171.682C211.232 174.386 212.823 176.182 215.187 176.182ZM215.187 174.977C213.391 174.977 212.573 173.432 212.573 171.682C212.573 169.932 213.391 168.364 215.187 168.364C216.982 168.364 217.8 169.932 217.8 171.682C217.8 173.432 216.982 174.977 215.187 174.977ZM226.688 172.432C226.688 174.068 225.438 174.818 224.438 174.818C223.325 174.818 222.529 174 222.529 172.727V167.273H221.188V172.818C221.188 175.045 222.37 176.114 224.006 176.114C225.325 176.114 226.188 175.409 226.597 174.523H226.688V176H228.029V167.273H226.688V172.432ZM230.485 176H231.826V170.477C231.826 169.295 232.758 168.432 234.031 168.432C234.388 168.432 234.758 168.5 234.849 168.523V167.159C234.695 167.148 234.343 167.136 234.144 167.136C233.099 167.136 232.19 167.727 231.871 168.591H231.781V167.273H230.485V176ZM244.825 167.273H242.87V166.386C242.87 165.523 243.234 165.068 244.12 165.068C244.506 165.068 244.734 165.159 244.87 165.205L245.256 164.045C245.052 163.955 244.643 163.818 243.984 163.818C242.734 163.818 241.529 164.568 241.529 166.068V167.273H240.12V168.409H241.529V176H242.87V168.409H244.825V167.273ZM246.704 176H248.045V167.273H246.704V176ZM247.386 165.818C247.908 165.818 248.34 165.409 248.34 164.909C248.34 164.409 247.908 164 247.386 164C246.863 164 246.431 164.409 246.431 164.909C246.431 165.409 246.863 165.818 247.386 165.818ZM251.842 164.364H250.501V176H251.842V164.364ZM258.093 167.273H256.229V165.182H254.888V167.273H253.57V168.409H254.888V173.864C254.888 175.386 256.116 176.114 257.252 176.114C257.752 176.114 258.07 176.023 258.252 175.955L257.979 174.75C257.866 174.773 257.684 174.818 257.388 174.818C256.798 174.818 256.229 174.636 256.229 173.5V168.409H258.093V167.273ZM263.675 176.182C265.448 176.182 266.744 175.295 267.153 173.977L265.857 173.614C265.516 174.523 264.727 174.977 263.675 174.977C262.102 174.977 261.016 173.96 260.954 172.091H267.289V171.523C267.289 168.273 265.357 167.159 263.539 167.159C261.175 167.159 259.607 169.023 259.607 171.705C259.607 174.386 261.153 176.182 263.675 176.182ZM260.954 170.932C261.045 169.574 262.005 168.364 263.539 168.364C264.994 168.364 265.925 169.455 265.925 170.932H260.954ZM269.329 176H270.67V170.477C270.67 169.295 271.602 168.432 272.874 168.432C273.232 168.432 273.602 168.5 273.692 168.523V167.159C273.539 167.148 273.187 167.136 272.988 167.136C271.942 167.136 271.033 167.727 270.715 168.591H270.624V167.273H269.329V176ZM285.964 169.227C285.543 167.989 284.6 167.159 282.873 167.159C281.032 167.159 279.668 168.205 279.668 169.682C279.668 170.886 280.384 171.693 281.987 172.068L283.441 172.409C284.322 172.614 284.737 173.034 284.737 173.636C284.737 174.386 283.941 175 282.691 175C281.594 175 280.907 174.528 280.668 173.591L279.396 173.909C279.708 175.392 280.93 176.182 282.714 176.182C284.742 176.182 286.123 175.074 286.123 173.568C286.123 172.352 285.362 171.585 283.805 171.205L282.509 170.886C281.475 170.631 281.009 170.284 281.009 169.614C281.009 168.864 281.805 168.318 282.873 168.318C284.043 168.318 284.526 168.966 284.759 169.568L285.964 169.227ZM291.8 176.182C293.573 176.182 294.869 175.295 295.278 173.977L293.982 173.614C293.641 174.523 292.852 174.977 291.8 174.977C290.227 174.977 289.141 173.96 289.079 172.091H295.414V171.523C295.414 168.273 293.482 167.159 291.664 167.159C289.3 167.159 287.732 169.023 287.732 171.705C287.732 174.386 289.278 176.182 291.8 176.182ZM289.079 170.932C289.17 169.574 290.13 168.364 291.664 168.364C293.119 168.364 294.05 169.455 294.05 170.932H289.079ZM301.249 167.273H299.386V165.182H298.045V167.273H296.727V168.409H298.045V173.864C298.045 175.386 299.272 176.114 300.408 176.114C300.908 176.114 301.227 176.023 301.408 175.955L301.136 174.75C301.022 174.773 300.84 174.818 300.545 174.818C299.954 174.818 299.386 174.636 299.386 173.5V168.409H301.249V167.273ZM307.062 167.273H305.198V165.182H303.857V167.273H302.539V168.409H303.857V173.864C303.857 175.386 305.085 176.114 306.221 176.114C306.721 176.114 307.039 176.023 307.221 175.955L306.948 174.75C306.835 174.773 306.653 174.818 306.357 174.818C305.766 174.818 305.198 174.636 305.198 173.5V168.409H307.062V167.273ZM309.079 176H310.42V167.273H309.079V176ZM309.761 165.818C310.283 165.818 310.715 165.409 310.715 164.909C310.715 164.409 310.283 164 309.761 164C309.238 164 308.806 164.409 308.806 164.909C308.806 165.409 309.238 165.818 309.761 165.818ZM314.217 170.75C314.217 169.227 315.16 168.364 316.444 168.364C317.688 168.364 318.444 169.176 318.444 170.545V176H319.785V170.455C319.785 168.227 318.597 167.159 316.83 167.159C315.512 167.159 314.694 167.75 314.285 168.636H314.171V167.273H312.876V176H314.217V170.75ZM325.758 179.455C327.849 179.455 329.531 178.5 329.531 176.25V167.273H328.235V168.659H328.099C327.803 168.205 327.258 167.159 325.553 167.159C323.349 167.159 321.826 168.909 321.826 171.591C321.826 174.318 323.417 175.864 325.531 175.864C327.235 175.864 327.781 174.864 328.076 174.386H328.19V176.159C328.19 177.614 327.167 178.273 325.758 178.273C324.173 178.273 323.616 177.438 323.258 176.955L322.19 177.705C322.735 178.619 323.809 179.455 325.758 179.455ZM325.712 174.659C324.031 174.659 323.167 173.386 323.167 171.568C323.167 169.795 324.008 168.364 325.712 168.364C327.349 168.364 328.212 169.682 328.212 171.568C328.212 173.5 327.326 174.659 325.712 174.659ZM338.167 169.227C337.746 167.989 336.803 167.159 335.076 167.159C333.235 167.159 331.871 168.205 331.871 169.682C331.871 170.886 332.587 171.693 334.19 172.068L335.644 172.409C336.525 172.614 336.94 173.034 336.94 173.636C336.94 174.386 336.144 175 334.894 175C333.798 175 333.11 174.528 332.871 173.591L331.599 173.909C331.911 175.392 333.133 176.182 334.917 176.182C336.945 176.182 338.326 175.074 338.326 173.568C338.326 172.352 337.565 171.585 336.008 171.205L334.712 170.886C333.678 170.631 333.212 170.284 333.212 169.614C333.212 168.864 334.008 168.318 335.076 168.318C336.246 168.318 336.729 168.966 336.962 169.568L338.167 169.227ZM341.322 176.091C341.884 176.091 342.344 175.631 342.344 175.068C342.344 174.506 341.884 174.045 341.322 174.045C340.759 174.045 340.299 174.506 340.299 175.068C340.299 175.631 340.759 176.091 341.322 176.091Z" fill="#69707D"/>
<g clip-path="url(#clip2_23023_280701)">
<g clip-path="url(#clip3_23023_280701)">
<path d="M186.5 212C186.5 208.686 189.186 206 192.5 206H292.5C295.814 206 298.5 208.686 298.5 212V240C298.5 243.314 295.814 246 292.5 246H192.5C189.186 246 186.5 243.314 186.5 240V212Z" fill="#0071C2"/>
<path d="M213.204 231.5L214.139 228.805H218.116L219.046 231.5H220.677L217.013 221.318H215.238L211.574 231.5H213.204ZM214.586 227.513L216.088 223.168H216.167L217.669 227.513H214.586ZM224.763 231.649C226.155 231.649 226.702 230.799 226.971 230.312H227.095V231.5H228.547V221.318H227.06V225.102H226.971C226.702 224.629 226.195 223.764 224.773 223.764C222.929 223.764 221.571 225.221 221.571 227.697C221.571 230.168 222.909 231.649 224.763 231.649ZM225.091 230.381C223.764 230.381 223.073 229.213 223.073 227.682C223.073 226.165 223.749 225.027 225.091 225.027C226.389 225.027 227.085 226.086 227.085 227.682C227.085 229.288 226.374 230.381 225.091 230.381ZM233.527 231.649C234.919 231.649 235.466 230.799 235.734 230.312H235.859V231.5H237.31V221.318H235.824V225.102H235.734C235.466 224.629 234.959 223.764 233.537 223.764C231.692 223.764 230.335 225.221 230.335 227.697C230.335 230.168 231.672 231.649 233.527 231.649ZM233.855 230.381C232.528 230.381 231.837 229.213 231.837 227.682C231.837 226.165 232.513 225.027 233.855 225.027C235.153 225.027 235.849 226.086 235.849 227.682C235.849 229.288 235.138 230.381 233.855 230.381ZM246.354 231.654C248.158 231.654 249.327 230.57 249.491 229.084H248.044C247.855 229.909 247.214 230.396 246.364 230.396C245.106 230.396 244.295 229.347 244.295 227.682C244.295 226.046 245.121 225.017 246.364 225.017C247.308 225.017 247.885 225.614 248.044 226.33H249.491C249.332 224.788 248.074 223.764 246.339 223.764C244.186 223.764 242.794 225.385 242.794 227.717C242.794 230.018 244.136 231.654 246.354 231.654ZM253.303 231.669C254.565 231.669 255.276 231.028 255.56 230.456H255.619V231.5H257.071V226.429C257.071 224.207 255.321 223.764 254.108 223.764C252.726 223.764 251.453 224.321 250.956 225.713L252.353 226.031C252.572 225.489 253.129 224.967 254.128 224.967C255.087 224.967 255.58 225.469 255.58 226.335V226.369C255.58 226.911 255.023 226.901 253.651 227.06C252.204 227.229 250.722 227.607 250.722 229.342C250.722 230.844 251.851 231.669 253.303 231.669ZM253.626 230.476C252.786 230.476 252.179 230.098 252.179 229.362C252.179 228.567 252.885 228.283 253.745 228.169C254.227 228.104 255.371 227.975 255.585 227.761V228.746C255.585 229.651 254.864 230.476 253.626 230.476ZM264.773 225.728C264.465 224.54 263.535 223.764 261.885 223.764C260.16 223.764 258.937 224.674 258.937 226.026C258.937 227.11 259.593 227.831 261.025 228.149L262.317 228.433C263.053 228.597 263.396 228.925 263.396 229.402C263.396 229.994 262.765 230.456 261.79 230.456C260.9 230.456 260.329 230.073 260.15 229.322L258.713 229.541C258.962 230.893 260.085 231.654 261.8 231.654C263.645 231.654 264.922 230.675 264.922 229.293C264.922 228.214 264.236 227.548 262.834 227.224L261.621 226.946C260.781 226.747 260.418 226.464 260.423 225.947C260.418 225.36 261.055 224.942 261.9 224.942C262.824 224.942 263.252 225.455 263.426 225.967L264.773 225.728ZM269.848 231.654C271.514 231.654 272.692 230.834 273.03 229.591L271.623 229.337C271.354 230.058 270.708 230.426 269.863 230.426C268.59 230.426 267.735 229.601 267.695 228.129H273.124V227.602C273.124 224.843 271.474 223.764 269.744 223.764C267.616 223.764 266.214 225.385 266.214 227.732C266.214 230.103 267.596 231.654 269.848 231.654ZM267.7 227.016C267.76 225.932 268.546 224.992 269.754 224.992C270.907 224.992 271.663 225.847 271.668 227.016H267.7Z" fill="white"/>
</g>
</g>
<rect width="456" height="72" transform="translate(14.5 270)" fill="#FAFBFD"/>
<path d="M96.5099 311H98.6079L100.542 304.343H100.621L102.56 311H104.658L107.572 300.818H105.22L103.535 307.908H103.445L101.591 300.818H99.5773L97.718 307.893H97.6334L95.9481 300.818H93.5965L96.5099 311ZM110.041 311.144C111.17 311.144 111.901 310.652 112.274 309.941H112.333V311H114.342V305.849C114.342 304.03 112.801 303.264 111.1 303.264C109.271 303.264 108.068 304.139 107.774 305.531L109.733 305.69C109.877 305.183 110.33 304.81 111.09 304.81C111.811 304.81 112.224 305.173 112.224 305.8V305.83C112.224 306.322 111.702 306.386 110.374 306.516C108.863 306.655 107.506 307.162 107.506 308.867C107.506 310.379 108.585 311.144 110.041 311.144ZM110.648 309.683C109.997 309.683 109.529 309.379 109.529 308.798C109.529 308.201 110.021 307.908 110.767 307.803C111.229 307.739 111.985 307.629 112.239 307.46V308.271C112.239 309.071 111.578 309.683 110.648 309.683ZM118.103 306.585C118.108 305.601 118.694 305.024 119.549 305.024C120.4 305.024 120.912 305.581 120.907 306.516V311H123.025V306.138C123.025 304.358 121.981 303.264 120.39 303.264C119.256 303.264 118.436 303.821 118.093 304.711H118.003V303.364H115.985V311H118.103V306.585ZM128.756 303.364H127.319V301.534H125.201V303.364H124.157V304.955H125.201V308.932C125.191 310.428 126.21 311.169 127.746 311.104C128.293 311.085 128.681 310.975 128.895 310.906L128.562 309.33C128.457 309.349 128.234 309.399 128.035 309.399C127.612 309.399 127.319 309.24 127.319 308.653V304.955H128.756V303.364ZM137.437 303.364H136V301.534H133.883V303.364H132.839V304.955H133.883V308.932C133.873 310.428 134.892 311.169 136.428 311.104C136.975 311.085 137.363 310.975 137.576 310.906L137.243 309.33C137.139 309.349 136.915 309.399 136.716 309.399C136.294 309.399 136 309.24 136 308.653V304.955H137.437V303.364ZM142.185 311.149C144.502 311.149 145.944 309.563 145.944 307.212C145.944 304.845 144.502 303.264 142.185 303.264C139.868 303.264 138.427 304.845 138.427 307.212C138.427 309.563 139.868 311.149 142.185 311.149ZM142.195 309.509C141.126 309.509 140.579 308.529 140.579 307.197C140.579 305.864 141.126 304.88 142.195 304.88C143.244 304.88 143.791 305.864 143.791 307.197C143.791 308.529 143.244 309.509 142.195 309.509ZM152.679 300.818H150.561V311H152.679V300.818ZM157.856 311.149C159.745 311.149 161.017 310.229 161.316 308.812L159.357 308.683C159.143 309.265 158.596 309.568 157.89 309.568C156.831 309.568 156.16 308.867 156.16 307.729V307.724H161.361V307.142C161.361 304.547 159.79 303.264 157.771 303.264C155.524 303.264 154.067 304.86 154.067 307.217C154.067 309.638 155.504 311.149 157.856 311.149ZM156.16 306.411C156.205 305.541 156.866 304.845 157.806 304.845C158.726 304.845 159.362 305.501 159.367 306.411H156.16ZM164.92 311.144C166.049 311.144 166.78 310.652 167.152 309.941H167.212V311H169.221V305.849C169.221 304.03 167.679 303.264 165.979 303.264C164.15 303.264 162.946 304.139 162.653 305.531L164.612 305.69C164.756 305.183 165.209 304.81 165.969 304.81C166.69 304.81 167.103 305.173 167.103 305.8V305.83C167.103 306.322 166.581 306.386 165.253 306.516C163.742 306.655 162.385 307.162 162.385 308.867C162.385 310.379 163.464 311.144 164.92 311.144ZM165.527 309.683C164.875 309.683 164.408 309.379 164.408 308.798C164.408 308.201 164.9 307.908 165.646 307.803C166.108 307.739 166.864 307.629 167.118 307.46V308.271C167.118 309.071 166.456 309.683 165.527 309.683ZM170.864 311H172.982V306.68C172.982 305.74 173.668 305.094 174.602 305.094C174.896 305.094 175.298 305.143 175.497 305.208V303.329C175.308 303.284 175.045 303.254 174.831 303.254C173.976 303.254 173.275 303.751 172.997 304.696H172.917V303.364H170.864V311ZM178.71 306.585C178.715 305.601 179.302 305.024 180.157 305.024C181.007 305.024 181.519 305.581 181.514 306.516V311H183.632V306.138C183.632 304.358 182.588 303.264 180.997 303.264C179.864 303.264 179.043 303.821 178.7 304.711H178.611V303.364H176.592V311H178.71V306.585ZM188.541 311H190.659V306.416C190.659 305.571 191.196 305.009 191.902 305.009C192.598 305.009 193.066 305.487 193.066 306.237V311H195.119V306.337C195.119 305.546 195.571 305.009 196.342 305.009C197.018 305.009 197.525 305.432 197.525 306.282V311H199.638V305.864C199.638 304.209 198.654 303.264 197.232 303.264C196.113 303.264 195.243 303.836 194.93 304.711H194.85C194.607 303.826 193.826 303.264 192.777 303.264C191.748 303.264 190.968 303.811 190.649 304.711H190.56V303.364H188.541V311ZM204.761 311.149C207.078 311.149 208.52 309.563 208.52 307.212C208.52 304.845 207.078 303.264 204.761 303.264C202.445 303.264 201.003 304.845 201.003 307.212C201.003 309.563 202.445 311.149 204.761 311.149ZM204.771 309.509C203.702 309.509 203.155 308.529 203.155 307.197C203.155 305.864 203.702 304.88 204.771 304.88C205.82 304.88 206.367 305.864 206.367 307.197C206.367 308.529 205.82 309.509 204.771 309.509ZM209.897 311H212.015V306.68C212.015 305.74 212.701 305.094 213.636 305.094C213.929 305.094 214.332 305.143 214.53 305.208V303.329C214.342 303.284 214.078 303.254 213.864 303.254C213.009 303.254 212.308 303.751 212.03 304.696H211.95V303.364H209.897V311ZM218.75 311.149C220.639 311.149 221.912 310.229 222.21 308.812L220.252 308.683C220.038 309.265 219.491 309.568 218.785 309.568C217.726 309.568 217.055 308.867 217.055 307.729V307.724H222.255V307.142C222.255 304.547 220.684 303.264 218.666 303.264C216.418 303.264 214.962 304.86 214.962 307.217C214.962 309.638 216.399 311.149 218.75 311.149ZM217.055 306.411C217.1 305.541 217.761 304.845 218.7 304.845C219.62 304.845 220.256 305.501 220.261 306.411H217.055ZM225.457 307.947H227.341V307.778C227.351 306.809 227.699 306.357 228.484 305.884C229.414 305.332 230.021 304.602 230.021 303.433C230.021 301.693 228.619 300.679 226.645 300.679C224.84 300.679 223.369 301.624 223.324 303.612H225.352C225.382 302.802 225.984 302.369 226.635 302.369C227.306 302.369 227.848 302.817 227.848 303.508C227.848 304.159 227.376 304.592 226.764 304.979C225.929 305.506 225.462 306.038 225.457 307.778V307.947ZM226.436 311.129C227.073 311.129 227.624 310.597 227.629 309.936C227.624 309.285 227.073 308.753 226.436 308.753C225.78 308.753 225.238 309.285 225.243 309.936C225.238 310.597 225.78 311.129 226.436 311.129Z" fill="black"/>
<g clip-path="url(#clip4_23023_280701)">
<path d="M238.275 311.5H239.811V307.647H241.899C241.934 307.647 241.964 307.647 241.999 307.647L244.067 311.5H245.817L243.56 307.379C244.808 306.916 245.429 305.877 245.429 304.51C245.429 302.636 244.266 301.318 241.904 301.318H238.275V311.5ZM239.811 306.325V302.636H241.74C243.256 302.636 243.883 303.357 243.883 304.51C243.883 305.658 243.256 306.325 241.76 306.325H239.811ZM250.374 311.654C252.04 311.654 253.218 310.834 253.556 309.591L252.149 309.337C251.881 310.058 251.235 310.426 250.389 310.426C249.117 310.426 248.262 309.601 248.222 308.129H253.651V307.602C253.651 304.843 252 303.764 250.27 303.764C248.142 303.764 246.74 305.385 246.74 307.732C246.74 310.103 248.122 311.654 250.374 311.654ZM248.227 307.016C248.286 305.932 249.072 304.992 250.28 304.992C251.433 304.992 252.189 305.847 252.194 307.016H248.227ZM257.522 311.669C258.785 311.669 259.496 311.028 259.779 310.456H259.839V311.5H261.291V306.429C261.291 304.207 259.541 303.764 258.328 303.764C256.946 303.764 255.673 304.321 255.176 305.713L256.573 306.031C256.792 305.489 257.348 304.967 258.348 304.967C259.307 304.967 259.799 305.469 259.799 306.335V306.369C259.799 306.911 259.243 306.901 257.87 307.06C256.424 307.229 254.942 307.607 254.942 309.342C254.942 310.844 256.071 311.669 257.522 311.669ZM257.846 310.476C257.005 310.476 256.399 310.098 256.399 309.362C256.399 308.567 257.105 308.283 257.965 308.169C258.447 308.104 259.591 307.975 259.804 307.761V308.746C259.804 309.651 259.083 310.476 257.846 310.476ZM266.129 311.649C267.521 311.649 268.068 310.799 268.337 310.312H268.461V311.5H269.913V301.318H268.426V305.102H268.337C268.068 304.629 267.561 303.764 266.139 303.764C264.295 303.764 262.938 305.221 262.938 307.697C262.938 310.168 264.275 311.649 266.129 311.649ZM266.458 310.381C265.13 310.381 264.439 309.213 264.439 307.682C264.439 306.165 265.115 305.027 266.458 305.027C267.755 305.027 268.451 306.086 268.451 307.682C268.451 309.288 267.74 310.381 266.458 310.381ZM278.598 311.649C279.99 311.649 280.537 310.799 280.806 310.312H280.93V311.5H282.382V301.318H280.895V305.102H280.806C280.537 304.629 280.03 303.764 278.608 303.764C276.764 303.764 275.406 305.221 275.406 307.697C275.406 310.168 276.744 311.649 278.598 311.649ZM278.926 310.381C277.599 310.381 276.908 309.213 276.908 307.682C276.908 306.165 277.584 305.027 278.926 305.027C280.224 305.027 280.92 306.086 280.92 307.682C280.92 309.288 280.209 310.381 278.926 310.381ZM287.72 311.654C289.873 311.654 291.279 310.078 291.279 307.717C291.279 305.34 289.873 303.764 287.72 303.764C285.567 303.764 284.16 305.34 284.16 307.717C284.16 310.078 285.567 311.654 287.72 311.654ZM287.725 310.406C286.318 310.406 285.662 309.178 285.662 307.712C285.662 306.25 286.318 305.007 287.725 305.007C289.122 305.007 289.778 306.25 289.778 307.712C289.778 309.178 289.122 310.406 287.725 310.406ZM296.155 311.654C297.96 311.654 299.128 310.57 299.292 309.084H297.846C297.657 309.909 297.015 310.396 296.165 310.396C294.907 310.396 294.097 309.347 294.097 307.682C294.097 306.046 294.922 305.017 296.165 305.017C297.11 305.017 297.687 305.614 297.846 306.33H299.292C299.133 304.788 297.876 303.764 296.14 303.764C293.988 303.764 292.596 305.385 292.596 307.717C292.596 310.018 293.938 311.654 296.155 311.654ZM305.719 308.333C305.724 309.631 304.76 310.247 303.925 310.247C303.005 310.247 302.369 309.581 302.369 308.542V303.864H300.882V308.721C300.882 310.615 301.921 311.599 303.388 311.599C304.536 311.599 305.317 310.993 305.67 310.178H305.749V311.5H307.211V303.864H305.719V308.333ZM309.208 311.5H310.695V306.792C310.695 305.763 311.416 305.047 312.261 305.047C313.086 305.047 313.658 305.594 313.658 306.424V311.5H315.139V306.633C315.139 305.713 315.701 305.047 316.671 305.047C317.456 305.047 318.102 305.484 318.102 306.518V311.5H319.589V306.379C319.589 304.634 318.615 303.764 317.232 303.764C316.134 303.764 315.308 304.291 314.941 305.107H314.861C314.528 304.271 313.827 303.764 312.808 303.764C311.798 303.764 311.048 304.266 310.73 305.107H310.635V303.864H309.208V311.5ZM324.873 311.654C326.538 311.654 327.716 310.834 328.054 309.591L326.647 309.337C326.379 310.058 325.733 310.426 324.887 310.426C323.615 310.426 322.76 309.601 322.72 308.129H328.149V307.602C328.149 304.843 326.498 303.764 324.768 303.764C322.64 303.764 321.238 305.385 321.238 307.732C321.238 310.103 322.62 311.654 324.873 311.654ZM322.725 307.016C322.784 305.932 323.57 304.992 324.778 304.992C325.931 304.992 326.687 305.847 326.692 307.016H322.725ZM331.285 306.966C331.285 305.748 332.03 305.052 333.064 305.052C334.074 305.052 334.685 305.713 334.685 306.822V311.5H336.172V306.643C336.172 304.754 335.133 303.764 333.572 303.764C332.423 303.764 331.672 304.296 331.319 305.107H331.225V303.864H329.798V311.5H331.285V306.966ZM341.73 303.864H340.164V302.034H338.677V303.864H337.559V305.057H338.677V309.566C338.672 310.953 339.731 311.624 340.905 311.599C341.377 311.594 341.695 311.505 341.869 311.44L341.601 310.212C341.501 310.232 341.317 310.277 341.079 310.277C340.596 310.277 340.164 310.118 340.164 309.258V305.057H341.73V303.864ZM345.597 311.669C346.859 311.669 347.57 311.028 347.854 310.456H347.913V311.5H349.365V306.429C349.365 304.207 347.615 303.764 346.402 303.764C345.02 303.764 343.747 304.321 343.25 305.713L344.647 306.031C344.866 305.489 345.423 304.967 346.422 304.967C347.381 304.967 347.874 305.469 347.874 306.335V306.369C347.874 306.911 347.317 306.901 345.945 307.06C344.498 307.229 343.016 307.607 343.016 309.342C343.016 310.844 344.145 311.669 345.597 311.669ZM345.92 310.476C345.08 310.476 344.473 310.098 344.473 309.362C344.473 308.567 345.179 308.283 346.039 308.169C346.521 308.104 347.665 307.975 347.879 307.761V308.746C347.879 309.651 347.158 310.476 345.92 310.476ZM354.91 303.864H353.344V302.034H351.857V303.864H350.738V305.057H351.857V309.566C351.852 310.953 352.911 311.624 354.084 311.599C354.557 311.594 354.875 311.505 355.049 311.44L354.78 310.212C354.681 310.232 354.497 310.277 354.258 310.277C353.776 310.277 353.344 310.118 353.344 309.258V305.057H354.91V303.864ZM356.554 311.5H358.04V303.864H356.554V311.5ZM357.305 302.685C357.817 302.685 358.244 302.288 358.244 301.8C358.244 301.313 357.817 300.911 357.305 300.911C356.788 300.911 356.365 301.313 356.365 301.8C356.365 302.288 356.788 302.685 357.305 302.685ZM363.257 311.654C365.41 311.654 366.817 310.078 366.817 307.717C366.817 305.34 365.41 303.764 363.257 303.764C361.104 303.764 359.697 305.34 359.697 307.717C359.697 310.078 361.104 311.654 363.257 311.654ZM363.262 310.406C361.855 310.406 361.199 309.178 361.199 307.712C361.199 306.25 361.855 305.007 363.262 305.007C364.659 305.007 365.315 306.25 365.315 307.712C365.315 309.178 364.659 310.406 363.262 310.406ZM369.962 306.966C369.962 305.748 370.708 305.052 371.742 305.052C372.751 305.052 373.363 305.713 373.363 306.822V311.5H374.849V306.643C374.849 304.754 373.81 303.764 372.249 303.764C371.101 303.764 370.35 304.296 369.997 305.107H369.903V303.864H368.476V311.5H369.962V306.966Z" fill="#0071C2"/>
<path fill-rule="evenodd" clip-rule="evenodd" d="M389.75 307.375C389.75 307.168 389.918 307 390.125 307C390.332 307 390.5 307.168 390.5 307.375V310C390.5 310.828 389.828 311.5 389 311.5H383C382.172 311.5 381.5 310.828 381.5 310V304C381.5 303.172 382.172 302.5 383 302.5H385.625C385.832 302.5 386 302.668 386 302.875C386 303.082 385.832 303.25 385.625 303.25H383C382.586 303.25 382.25 303.586 382.25 304V310C382.25 310.414 382.586 310.75 383 310.75H389C389.414 310.75 389.75 310.414 389.75 310V307.375ZM385.91 307.629C385.764 307.776 385.527 307.776 385.38 307.629C385.234 307.483 385.234 307.245 385.38 307.099L389.979 302.5H387.875C387.668 302.5 387.5 302.332 387.5 302.125C387.5 301.918 387.668 301.75 387.875 301.75H390.5C390.914 301.75 391.25 302.086 391.25 302.5V305.125C391.25 305.332 391.082 305.5 390.875 305.5C390.668 305.5 390.5 305.332 390.5 305.125V303.04L385.91 307.629Z" fill="#0071C2"/>
</g>
</g>
</g>
<defs>
<filter id="filter0_dddd_23023_280701" x="0.5" y="0.7" width="484" height="370.3" filterUnits="userSpaceOnUse" color-interpolation-filters="sRGB">
<feFlood flood-opacity="0" result="BackgroundImageFix"/>
<feColorMatrix in="SourceAlpha" type="matrix" values="0 0 0 0 0 0 0 0 0 0 0 0 0 0 0 0 0 0 127 0" result="hardAlpha"/>
<feMorphology radius="1" operator="erode" in="SourceAlpha" result="effect1_dropShadow_23023_280701"/>
<feOffset dy="15"/>
<feGaussianBlur stdDeviation="7.5"/>
<feColorMatrix type="matrix" values="0 0 0 0 0 0 0 0 0 0 0 0 0 0 0 0 0 0 0.04 0"/>
<feBlend mode="normal" in2="BackgroundImageFix" result="effect1_dropShadow_23023_280701"/>
<feColorMatrix in="SourceAlpha" type="matrix" values="0 0 0 0 0 0 0 0 0 0 0 0 0 0 0 0 0 0 127 0" result="hardAlpha"/>
<feMorphology radius="1" operator="erode" in="SourceAlpha" result="effect2_dropShadow_23023_280701"/>
<feOffset dy="5.7"/>
<feGaussianBlur stdDeviation="6"/>
<feColorMatrix type="matrix" values="0 0 0 0 0 0 0 0 0 0 0 0 0 0 0 0 0 0 0.05 0"/>
<feBlend mode="normal" in2="effect1_dropShadow_23023_280701" result="effect2_dropShadow_23023_280701"/>
<feColorMatrix in="SourceAlpha" type="matrix" values="0 0 0 0 0 0 0 0 0 0 0 0 0 0 0 0 0 0 127 0" result="hardAlpha"/>
<feMorphology radius="1" operator="erode" in="SourceAlpha" result="effect3_dropShadow_23023_280701"/>
<feOffset dy="2.6"/>
<feGaussianBlur stdDeviation="4"/>
<feColorMatrix type="matrix" values="0 0 0 0 0 0 0 0 0 0 0 0 0 0 0 0 0 0 0.06 0"/>
<feBlend mode="normal" in2="effect2_dropShadow_23023_280701" result="effect3_dropShadow_23023_280701"/>
<feColorMatrix in="SourceAlpha" type="matrix" values="0 0 0 0 0 0 0 0 0 0 0 0 0 0 0 0 0 0 127 0" result="hardAlpha"/>
<feMorphology radius="1" operator="erode" in="SourceAlpha" result="effect4_dropShadow_23023_280701"/>
<feOffset dy="0.9"/>
<feGaussianBlur stdDeviation="2"/>
<feColorMatrix type="matrix" values="0 0 0 0 0 0 0 0 0 0 0 0 0 0 0 0 0 0 0.08 0"/>
<feBlend mode="normal" in2="effect3_dropShadow_23023_280701" result="effect4_dropShadow_23023_280701"/>
<feBlend mode="normal" in="SourceGraphic" in2="effect4_dropShadow_23023_280701" result="shape"/>
</filter>
<clipPath id="clip0_23023_280701">
<path d="M14.5 12C14.5 8.68629 17.1863 6 20.5 6H464.5C467.814 6 470.5 8.68629 470.5 12V336C470.5 339.314 467.814 342 464.5 342H20.5C17.1863 342 14.5 339.314 14.5 336V12Z" fill="white"/>
</clipPath>
<clipPath id="clip1_23023_280701">
<rect width="40" height="40" fill="white" transform="translate(222.5 30)"/>
</clipPath>
<clipPath id="clip2_23023_280701">
<rect width="112" height="48.0001" fill="white" transform="translate(186.5 198)"/>
</clipPath>
<clipPath id="clip3_23023_280701">
<path d="M186.5 212C186.5 208.686 189.186 206 192.5 206H292.5C295.814 206 298.5 208.686 298.5 212V240C298.5 243.314 295.814 246 292.5 246H192.5C189.186 246 186.5 243.314 186.5 240V212Z" fill="white"/>
</clipPath>
<clipPath id="clip4_23023_280701">
<rect width="155" height="21" fill="white" transform="translate(237 295.5)"/>
</clipPath>
</defs>
</svg>
