<svg width="484" height="275" viewBox="0 0 484 275" fill="none" xmlns="http://www.w3.org/2000/svg">
<g filter="url(#filter0_dddd_23338_281568)">
<rect x="14" y="6" width="456" height="240" rx="6" fill="white"/>
<path fill-rule="evenodd" clip-rule="evenodd" d="M257 51.25H227C224.929 51.25 223.25 52.9289 223.25 55V57.5C223.25 59.5711 224.929 61.25 227 61.25H257C259.071 61.25 260.75 59.5711 260.75 57.5V55C260.75 52.9289 259.071 51.25 257 51.25ZM225.75 55C225.75 54.3096 226.31 53.75 227 53.75H257C257.69 53.75 258.25 54.3096 258.25 55V57.5C258.25 58.1904 257.69 58.75 257 58.75H227C226.31 58.75 225.75 58.1904 225.75 57.5V55Z" fill="#535766"/>
<path fill-rule="evenodd" clip-rule="evenodd" d="M237 63.75H227C224.929 63.75 223.25 65.4289 223.25 67.5V71.25C223.25 73.3211 224.929 75 227 75H237C239.071 75 240.75 73.3211 240.75 71.25V67.5C240.75 65.4289 239.071 63.75 237 63.75ZM225.75 67.5C225.75 66.8096 226.31 66.25 227 66.25H237C237.69 66.25 238.25 66.8096 238.25 67.5V71.25C238.25 71.9404 237.69 72.5 237 72.5H227C226.31 72.5 225.75 71.9404 225.75 71.25V67.5Z" fill="#00BFB3"/>
<path fill-rule="evenodd" clip-rule="evenodd" d="M237 77.5H227C224.929 77.5 223.25 79.1789 223.25 81.25V85C223.25 87.0711 224.929 88.75 227 88.75H237C239.071 88.75 240.75 87.0711 240.75 85V81.25C240.75 79.1789 239.071 77.5 237 77.5ZM225.75 81.25C225.75 80.5596 226.31 80 227 80H237C237.69 80 238.25 80.5596 238.25 81.25V85C238.25 85.6904 237.69 86.25 237 86.25H227C226.31 86.25 225.75 85.6904 225.75 85V81.25Z" fill="#535766"/>
<path fill-rule="evenodd" clip-rule="evenodd" d="M257 63.75H247C244.929 63.75 243.25 65.4289 243.25 67.5V85C243.25 87.0711 244.929 88.75 247 88.75H257C259.071 88.75 260.75 87.0711 260.75 85V67.5C260.75 65.4289 259.071 63.75 257 63.75ZM245.75 67.5C245.75 66.8096 246.31 66.25 247 66.25H257C257.69 66.25 258.25 66.8096 258.25 67.5V85C258.25 85.6904 257.69 86.25 257 86.25H247C246.31 86.25 245.75 85.6904 245.75 85V67.5Z" fill="#00BFB3"/>
<path d="M97.2765 132H105.666C110.077 132 112.426 129.699 112.426 126.573C112.426 123.668 110.345 121.913 108.111 121.808V121.616C110.153 121.156 111.659 119.708 111.659 117.397C111.659 114.454 109.473 112.364 105.139 112.364H97.2765V132ZM101.428 128.606V123.39H104.909C106.903 123.39 108.14 124.54 108.14 126.161C108.14 127.637 107.133 128.606 104.813 128.606H101.428ZM101.428 120.581V115.719H104.583C106.424 115.719 107.469 116.669 107.469 118.088C107.469 119.641 106.203 120.581 104.506 120.581H101.428ZM124.495 125.729C124.504 127.705 123.152 128.74 121.685 128.74C120.142 128.74 119.144 127.657 119.135 125.921V117.273H115.05V126.65C115.06 130.092 117.073 132.192 120.036 132.192C122.251 132.192 123.843 131.051 124.504 129.325H124.658V132H128.579V117.273H124.495V125.729ZM131.846 132H135.931V117.273H131.846V132ZM133.898 115.374C135.116 115.374 136.113 114.444 136.113 113.303C136.113 112.172 135.116 111.242 133.898 111.242C132.69 111.242 131.693 112.172 131.693 113.303C131.693 114.444 132.69 115.374 133.898 115.374ZM143.287 112.364H139.203V132H143.287V112.364ZM151.986 132.24C154.364 132.24 155.601 130.869 156.166 129.641H156.339V132H160.366V112.364H156.291V119.746H156.166C155.62 118.548 154.441 117.081 151.976 117.081C148.745 117.081 146.013 119.593 146.013 124.656C146.013 129.584 148.63 132.24 151.986 132.24ZM153.28 128.989C151.277 128.989 150.183 127.206 150.183 124.636C150.183 122.086 151.257 120.331 153.28 120.331C155.265 120.331 156.377 122.009 156.377 124.636C156.377 127.263 155.246 128.989 153.28 128.989ZM163.724 132H167.809V117.273H163.724V132ZM165.776 115.374C166.994 115.374 167.991 114.444 167.991 113.303C167.991 112.172 166.994 111.242 165.776 111.242C164.568 111.242 163.571 112.172 163.571 113.303C163.571 114.444 164.568 115.374 165.776 115.374ZM175.165 123.486C175.175 121.587 176.306 120.475 177.955 120.475C179.595 120.475 180.582 121.549 180.573 123.352V132H184.657V122.623C184.657 119.19 182.644 117.081 179.576 117.081C177.39 117.081 175.808 118.155 175.146 119.871H174.973V117.273H171.081V132H175.165V123.486ZM194.511 137.83C198.721 137.83 201.712 135.912 201.712 132.144V117.273H197.656V119.746H197.503C196.956 118.548 195.758 117.081 193.294 117.081C190.063 117.081 187.33 119.593 187.33 124.608C187.33 129.507 189.986 131.789 193.303 131.789C195.652 131.789 196.966 130.61 197.503 129.392H197.676V132.086C197.676 134.109 196.381 134.896 194.607 134.896C192.805 134.896 191.894 134.109 191.558 133.218L187.781 133.726C188.27 136.046 190.542 137.83 194.511 137.83ZM194.598 128.721C192.594 128.721 191.501 127.129 191.501 124.588C191.501 122.086 192.575 120.331 194.598 120.331C196.583 120.331 197.695 122.009 197.695 124.588C197.695 127.187 196.563 128.721 194.598 128.721ZM215.411 132.278C217.588 132.278 218.997 131.329 219.716 129.958H219.831V132H223.705V122.067C223.705 118.558 220.732 117.081 217.453 117.081C213.925 117.081 211.605 118.768 211.039 121.453L214.817 121.76C215.095 120.782 215.967 120.063 217.434 120.063C218.824 120.063 219.62 120.763 219.62 121.971V122.028C219.62 122.978 218.614 123.102 216.053 123.352C213.139 123.62 210.521 124.598 210.521 127.887C210.521 130.801 212.602 132.278 215.411 132.278ZM216.581 129.459C215.325 129.459 214.424 128.874 214.424 127.752C214.424 126.602 215.373 126.036 216.811 125.835C217.703 125.71 219.16 125.499 219.649 125.173V126.736C219.649 128.28 218.374 129.459 216.581 129.459ZM238.549 132.24C240.927 132.24 242.164 130.869 242.73 129.641H242.902V132H246.929V112.364H242.855V119.746H242.73C242.183 118.548 241.004 117.081 238.54 117.081C235.309 117.081 232.576 119.593 232.576 124.656C232.576 129.584 235.194 132.24 238.549 132.24ZM239.844 128.989C237.84 128.989 236.747 127.206 236.747 124.636C236.747 122.086 237.821 120.331 239.844 120.331C241.829 120.331 242.941 122.009 242.941 124.636C242.941 127.263 241.809 128.989 239.844 128.989ZM254.487 132.278C256.664 132.278 258.073 131.329 258.792 129.958H258.907V132H262.781V122.067C262.781 118.558 259.809 117.081 256.53 117.081C253.001 117.081 250.681 118.768 250.115 121.453L253.893 121.76C254.171 120.782 255.043 120.063 256.51 120.063C257.901 120.063 258.696 120.763 258.696 121.971V122.028C258.696 122.978 257.69 123.102 255.13 123.352C252.215 123.62 249.597 124.598 249.597 127.887C249.597 130.801 251.678 132.278 254.487 132.278ZM255.657 129.459C254.401 129.459 253.5 128.874 253.5 127.752C253.5 126.602 254.449 126.036 255.887 125.835C256.779 125.71 258.236 125.499 258.725 125.173V126.736C258.725 128.28 257.45 129.459 255.657 129.459ZM278.203 121.472C277.839 118.759 275.653 117.081 271.933 117.081C268.165 117.081 265.681 118.826 265.691 121.664C265.681 123.869 267.072 125.298 269.948 125.873L272.498 126.381C273.783 126.64 274.368 127.11 274.387 127.848C274.368 128.721 273.419 129.344 271.99 129.344C270.533 129.344 269.564 128.721 269.315 127.522L265.298 127.733C265.681 130.552 268.078 132.288 271.981 132.288C275.797 132.288 278.529 130.341 278.539 127.436C278.529 125.308 277.139 124.032 274.282 123.447L271.616 122.911C270.245 122.613 269.737 122.143 269.747 121.434C269.737 120.552 270.734 119.977 272 119.977C273.419 119.977 274.263 120.753 274.464 121.702L278.203 121.472ZM285.195 123.486C285.205 121.587 286.365 120.475 288.034 120.475C289.692 120.475 290.67 121.539 290.661 123.352V132H294.745V122.623C294.755 119.171 292.722 117.081 289.654 117.081C287.42 117.081 285.924 118.136 285.253 119.871H285.08V112.364H281.111V132H285.195V123.486ZM298.036 132H302.063V129.641H302.245C302.811 130.869 304.048 132.24 306.426 132.24C309.782 132.24 312.399 129.584 312.399 124.656C312.399 119.593 309.667 117.081 306.435 117.081C303.971 117.081 302.792 118.548 302.245 119.746H302.121V112.364H298.036V132ZM302.034 124.636C302.034 122.009 303.147 120.331 305.131 120.331C307.155 120.331 308.228 122.086 308.228 124.636C308.228 127.206 307.135 128.989 305.131 128.989C303.166 128.989 302.034 127.263 302.034 124.636ZM321.779 132.288C326.247 132.288 329.027 129.229 329.027 124.694C329.027 120.13 326.247 117.081 321.779 117.081C317.311 117.081 314.53 120.13 314.53 124.694C314.53 129.229 317.311 132.288 321.779 132.288ZM321.798 129.124C319.736 129.124 318.682 127.235 318.682 124.665C318.682 122.096 319.736 120.197 321.798 120.197C323.821 120.197 324.876 122.096 324.876 124.665C324.876 127.235 323.821 129.124 321.798 129.124ZM335.883 132.278C338.059 132.278 339.469 131.329 340.188 129.958H340.303V132H344.176V122.067C344.176 118.558 341.204 117.081 337.925 117.081C334.397 117.081 332.076 118.768 331.511 121.453L335.288 121.76C335.566 120.782 336.439 120.063 337.906 120.063C339.296 120.063 340.092 120.763 340.092 121.971V122.028C340.092 122.978 339.085 123.102 336.525 123.352C333.61 123.62 330.993 124.598 330.993 127.887C330.993 130.801 333.073 132.278 335.883 132.278ZM337.053 129.459C335.796 129.459 334.895 128.874 334.895 127.752C334.895 126.602 335.844 126.036 337.283 125.835C338.174 125.71 339.632 125.499 340.121 125.173V126.736C340.121 128.28 338.845 129.459 337.053 129.459ZM347.345 132H351.43V123.668C351.43 121.856 352.753 120.609 354.556 120.609C355.121 120.609 355.898 120.705 356.281 120.83V117.206C355.917 117.119 355.409 117.062 354.997 117.062C353.347 117.062 351.996 118.021 351.459 119.842H351.305V117.273H347.345V132ZM363.134 132.24C365.512 132.24 366.749 130.869 367.315 129.641H367.487V132H371.514V112.364H367.439V119.746H367.315C366.768 118.548 365.589 117.081 363.125 117.081C359.894 117.081 357.161 119.593 357.161 124.656C357.161 129.584 359.779 132.24 363.134 132.24ZM364.429 128.989C362.425 128.989 361.332 127.206 361.332 124.636C361.332 122.086 362.406 120.331 364.429 120.331C366.414 120.331 367.526 122.009 367.526 124.636C367.526 127.263 366.394 128.989 364.429 128.989ZM378.382 126.113H382.016V125.787C382.035 123.917 382.706 123.045 384.221 122.134C386.014 121.07 387.184 119.66 387.184 117.407C387.184 114.051 384.48 112.095 380.673 112.095C377.193 112.095 374.355 113.917 374.269 117.752H378.181C378.238 116.189 379.398 115.355 380.654 115.355C381.949 115.355 382.994 116.218 382.994 117.551C382.994 118.807 382.083 119.641 380.904 120.389C379.293 121.405 378.391 122.431 378.382 125.787V126.113ZM380.271 132.249C381.498 132.249 382.562 131.223 382.572 129.948C382.562 128.692 381.498 127.666 380.271 127.666C379.005 127.666 377.96 128.692 377.97 129.948C377.96 131.223 379.005 132.249 380.271 132.249Z" fill="#1A1C21"/>
<path d="M48.7727 164C48.3409 161.614 46.4318 160.205 44.0909 160.205C41.1136 160.205 38.9545 162.5 38.9545 166.182C38.9545 169.864 41.1136 172.159 44.0909 172.159C46.4318 172.159 48.3409 170.75 48.7727 168.364H47.3636C47.0227 169.977 45.6364 170.841 44.0909 170.841C41.9773 170.841 40.3182 169.205 40.3182 166.182C40.3182 163.159 41.9773 161.523 44.0909 161.523C45.6364 161.523 47.0227 162.386 47.3636 164H48.7727ZM50.8679 172H52.2088V166.477C52.2088 165.295 53.1406 164.432 54.4134 164.432C54.7713 164.432 55.1406 164.5 55.2315 164.523V163.159C55.0781 163.148 54.7259 163.136 54.527 163.136C53.4815 163.136 52.5724 163.727 52.2543 164.591H52.1634V163.273H50.8679V172ZM60.2145 172.182C61.9872 172.182 63.2827 171.295 63.6918 169.977L62.3963 169.614C62.0554 170.523 61.2656 170.977 60.2145 170.977C58.6406 170.977 57.5554 169.96 57.4929 168.091H63.8281V167.523C63.8281 164.273 61.8963 163.159 60.0781 163.159C57.7145 163.159 56.1463 165.023 56.1463 167.705C56.1463 170.386 57.6918 172.182 60.2145 172.182ZM57.4929 166.932C57.5838 165.574 58.544 164.364 60.0781 164.364C61.5327 164.364 62.4645 165.455 62.4645 166.932H57.4929ZM68.4361 172.205C69.9588 172.205 70.7543 171.386 71.027 170.818H71.0952V172H72.4361V166.25C72.4361 163.477 70.3224 163.159 69.2088 163.159C67.8906 163.159 66.3906 163.614 65.7088 165.205L66.9815 165.659C67.277 165.023 67.9759 164.341 69.2543 164.341C70.4872 164.341 71.0952 164.994 71.0952 166.114V166.159C71.0952 166.807 70.4361 166.75 68.8452 166.955C67.2259 167.165 65.4588 167.523 65.4588 169.523C65.4588 171.227 66.777 172.205 68.4361 172.205ZM68.6406 171C67.5724 171 66.7997 170.523 66.7997 169.591C66.7997 168.568 67.7315 168.25 68.777 168.114C69.3452 168.045 70.8679 167.886 71.0952 167.614V168.841C71.0952 169.932 70.2315 171 68.6406 171ZM78.679 163.273H76.8153V161.182H75.4744V163.273H74.1562V164.409H75.4744V169.864C75.4744 171.386 76.7017 172.114 77.8381 172.114C78.3381 172.114 78.6562 172.023 78.8381 171.955L78.5653 170.75C78.4517 170.773 78.2699 170.818 77.9744 170.818C77.3835 170.818 76.8153 170.636 76.8153 169.5V164.409H78.679V163.273ZM84.2614 172.182C86.0341 172.182 87.3295 171.295 87.7386 169.977L86.4432 169.614C86.1023 170.523 85.3125 170.977 84.2614 170.977C82.6875 170.977 81.6023 169.96 81.5398 168.091H87.875V167.523C87.875 164.273 85.9432 163.159 84.125 163.159C81.7614 163.159 80.1932 165.023 80.1932 167.705C80.1932 170.386 81.7386 172.182 84.2614 172.182ZM81.5398 166.932C81.6307 165.574 82.5909 164.364 84.125 164.364C85.5795 164.364 86.5114 165.455 86.5114 166.932H81.5398ZM97.9602 172.182C99.892 172.182 101.165 171 101.392 169.455H100.051C99.8011 170.409 99.0057 170.977 97.9602 170.977C96.3693 170.977 95.3466 169.659 95.3466 167.636C95.3466 165.659 96.392 164.364 97.9602 164.364C99.142 164.364 99.8466 165.091 100.051 165.886H101.392C101.165 164.25 99.7784 163.159 97.9375 163.159C95.5739 163.159 94.0057 165.023 94.0057 167.682C94.0057 170.295 95.5057 172.182 97.9602 172.182ZM106.898 172.182C109.261 172.182 110.852 170.386 110.852 167.682C110.852 164.955 109.261 163.159 106.898 163.159C104.534 163.159 102.943 164.955 102.943 167.682C102.943 170.386 104.534 172.182 106.898 172.182ZM106.898 170.977C105.102 170.977 104.284 169.432 104.284 167.682C104.284 165.932 105.102 164.364 106.898 164.364C108.693 164.364 109.511 165.932 109.511 167.682C109.511 169.432 108.693 170.977 106.898 170.977ZM114.24 166.75C114.24 165.227 115.183 164.364 116.467 164.364C117.712 164.364 118.467 165.176 118.467 166.545V172H119.808V166.455C119.808 164.227 118.621 163.159 116.854 163.159C115.536 163.159 114.717 163.75 114.308 164.636H114.195V163.273H112.899V172H114.24V166.75ZM126.054 163.273H124.19V161.182H122.849V163.273H121.531V164.409H122.849V169.864C122.849 171.386 124.077 172.114 125.213 172.114C125.713 172.114 126.031 172.023 126.213 171.955L125.94 170.75C125.827 170.773 125.645 170.818 125.349 170.818C124.759 170.818 124.19 170.636 124.19 169.5V164.409H126.054V163.273ZM131.636 172.182C133.409 172.182 134.705 171.295 135.114 169.977L133.818 169.614C133.477 170.523 132.688 170.977 131.636 170.977C130.062 170.977 128.977 169.96 128.915 168.091H135.25V167.523C135.25 164.273 133.318 163.159 131.5 163.159C129.136 163.159 127.568 165.023 127.568 167.705C127.568 170.386 129.114 172.182 131.636 172.182ZM128.915 166.932C129.006 165.574 129.966 164.364 131.5 164.364C132.955 164.364 133.886 165.455 133.886 166.932H128.915ZM138.631 166.75C138.631 165.227 139.574 164.364 140.858 164.364C142.102 164.364 142.858 165.176 142.858 166.545V172H144.199V166.455C144.199 164.227 143.011 163.159 141.244 163.159C139.926 163.159 139.108 163.75 138.699 164.636H138.585V163.273H137.29V172H138.631V166.75ZM150.445 163.273H148.581V161.182H147.24V163.273H145.922V164.409H147.24V169.864C147.24 171.386 148.467 172.114 149.604 172.114C150.104 172.114 150.422 172.023 150.604 171.955L150.331 170.75C150.217 170.773 150.036 170.818 149.74 170.818C149.149 170.818 148.581 170.636 148.581 169.5V164.409H150.445V163.273ZM160.257 172.182C161.939 172.182 162.507 171.136 162.803 170.659H162.962V172H164.257V160.364H162.916V164.659H162.803C162.507 164.205 161.984 163.159 160.28 163.159C158.075 163.159 156.553 164.909 156.553 167.659C156.553 170.432 158.075 172.182 160.257 172.182ZM160.439 170.977C158.757 170.977 157.893 169.5 157.893 167.636C157.893 165.795 158.734 164.364 160.439 164.364C162.075 164.364 162.939 165.682 162.939 167.636C162.939 169.614 162.053 170.977 160.439 170.977ZM166.899 172H168.24V163.273H166.899V172ZM167.581 161.818C168.104 161.818 168.536 161.409 168.536 160.909C168.536 160.409 168.104 160 167.581 160C167.058 160 166.626 160.409 166.626 160.909C166.626 161.409 167.058 161.818 167.581 161.818ZM170.696 172H172.037V166.477C172.037 165.295 172.969 164.432 174.241 164.432C174.599 164.432 174.969 164.5 175.06 164.523V163.159C174.906 163.148 174.554 163.136 174.355 163.136C173.31 163.136 172.401 163.727 172.082 164.591H171.991V163.273H170.696V172ZM180.043 172.182C181.815 172.182 183.111 171.295 183.52 169.977L182.224 169.614C181.884 170.523 181.094 170.977 180.043 170.977C178.469 170.977 177.384 169.96 177.321 168.091H183.656V167.523C183.656 164.273 181.724 163.159 179.906 163.159C177.543 163.159 175.974 165.023 175.974 167.705C175.974 170.386 177.52 172.182 180.043 172.182ZM177.321 166.932C177.412 165.574 178.372 164.364 179.906 164.364C181.361 164.364 182.293 165.455 182.293 166.932H177.321ZM189.241 172.182C191.173 172.182 192.446 171 192.673 169.455H191.332C191.082 170.409 190.287 170.977 189.241 170.977C187.651 170.977 186.628 169.659 186.628 167.636C186.628 165.659 187.673 164.364 189.241 164.364C190.423 164.364 191.128 165.091 191.332 165.886H192.673C192.446 164.25 191.06 163.159 189.219 163.159C186.855 163.159 185.287 165.023 185.287 167.682C185.287 170.295 186.787 172.182 189.241 172.182ZM198.429 163.273H196.565V161.182H195.224V163.273H193.906V164.409H195.224V169.864C195.224 171.386 196.452 172.114 197.588 172.114C198.088 172.114 198.406 172.023 198.588 171.955L198.315 170.75C198.202 170.773 198.02 170.818 197.724 170.818C197.134 170.818 196.565 170.636 196.565 169.5V164.409H198.429V163.273ZM201.974 160.364H200.634V172H201.974V160.364ZM205.294 175.273C206.504 175.273 207.357 174.631 207.862 173.273L211.578 163.295L210.112 163.273L207.703 170.227H207.612L205.203 163.273H203.749L206.976 172.045L206.726 172.727C206.237 174.057 205.635 174.182 204.658 173.932L204.317 175.114C204.453 175.182 204.839 175.273 205.294 175.273ZM221.739 163.273H219.784V162.386C219.784 161.523 220.148 161.068 221.034 161.068C221.42 161.068 221.648 161.159 221.784 161.205L222.17 160.045C221.966 159.955 221.557 159.818 220.898 159.818C219.648 159.818 218.443 160.568 218.443 162.068V163.273H217.034V164.409H218.443V172H219.784V164.409H221.739V163.273ZM223.618 172H224.959V166.477C224.959 165.295 225.891 164.432 227.163 164.432C227.521 164.432 227.891 164.5 227.982 164.523V163.159C227.828 163.148 227.476 163.136 227.277 163.136C226.232 163.136 225.322 163.727 225.004 164.591H224.913V163.273H223.618V172ZM232.851 172.182C235.214 172.182 236.805 170.386 236.805 167.682C236.805 164.955 235.214 163.159 232.851 163.159C230.487 163.159 228.896 164.955 228.896 167.682C228.896 170.386 230.487 172.182 232.851 172.182ZM232.851 170.977C231.055 170.977 230.237 169.432 230.237 167.682C230.237 165.932 231.055 164.364 232.851 164.364C234.646 164.364 235.464 165.932 235.464 167.682C235.464 169.432 234.646 170.977 232.851 170.977ZM238.852 172H240.193V166.545C240.193 165.267 241.125 164.364 242.17 164.364C243.188 164.364 243.898 165.028 243.898 166.023V172H245.261V166.318C245.261 165.193 245.966 164.364 247.193 164.364C248.148 164.364 248.966 164.869 248.966 166.159V172H250.307V166.159C250.307 164.108 249.205 163.159 247.648 163.159C246.398 163.159 245.483 163.733 245.034 164.636H244.943C244.511 163.705 243.75 163.159 242.602 163.159C241.466 163.159 240.625 163.705 240.261 164.636H240.148V163.273H238.852V172ZM260.804 172.182C263.168 172.182 264.759 170.386 264.759 167.682C264.759 164.955 263.168 163.159 260.804 163.159C258.44 163.159 256.849 164.955 256.849 167.682C256.849 170.386 258.44 172.182 260.804 172.182ZM260.804 170.977C259.009 170.977 258.19 169.432 258.19 167.682C258.19 165.932 259.009 164.364 260.804 164.364C262.599 164.364 263.418 165.932 263.418 167.682C263.418 169.432 262.599 170.977 260.804 170.977ZM272.305 168.432C272.305 170.068 271.055 170.818 270.055 170.818C268.942 170.818 268.146 170 268.146 168.727V163.273H266.805V168.818C266.805 171.045 267.987 172.114 269.624 172.114C270.942 172.114 271.805 171.409 272.214 170.523H272.305V172H273.646V163.273H272.305V168.432ZM276.102 172H277.443V166.477C277.443 165.295 278.375 164.432 279.648 164.432C280.006 164.432 280.375 164.5 280.466 164.523V163.159C280.312 163.148 279.96 163.136 279.761 163.136C278.716 163.136 277.807 163.727 277.489 164.591H277.398V163.273H276.102V172ZM290.328 172C293.874 172 295.874 169.795 295.874 166.159C295.874 162.545 293.874 160.364 290.487 160.364H286.737V172H290.328ZM288.146 170.75V161.614H290.396C293.124 161.614 294.51 163.341 294.51 166.159C294.51 169 293.124 170.75 290.237 170.75H288.146ZM300.624 172.205C302.146 172.205 302.942 171.386 303.214 170.818H303.283V172H304.624V166.25C304.624 163.477 302.51 163.159 301.396 163.159C300.078 163.159 298.578 163.614 297.896 165.205L299.169 165.659C299.464 165.023 300.163 164.341 301.442 164.341C302.675 164.341 303.283 164.994 303.283 166.114V166.159C303.283 166.807 302.624 166.75 301.033 166.955C299.413 167.165 297.646 167.523 297.646 169.523C297.646 171.227 298.964 172.205 300.624 172.205ZM300.828 171C299.76 171 298.987 170.523 298.987 169.591C298.987 168.568 299.919 168.25 300.964 168.114C301.533 168.045 303.055 167.886 303.283 167.614V168.841C303.283 169.932 302.419 171 300.828 171ZM313.253 165.227C312.832 163.989 311.889 163.159 310.162 163.159C308.321 163.159 306.957 164.205 306.957 165.682C306.957 166.886 307.673 167.693 309.276 168.068L310.73 168.409C311.611 168.614 312.026 169.034 312.026 169.636C312.026 170.386 311.23 171 309.98 171C308.884 171 308.196 170.528 307.957 169.591L306.685 169.909C306.997 171.392 308.219 172.182 310.003 172.182C312.031 172.182 313.412 171.074 313.412 169.568C313.412 168.352 312.651 167.585 311.094 167.205L309.798 166.886C308.764 166.631 308.298 166.284 308.298 165.614C308.298 164.864 309.094 164.318 310.162 164.318C311.332 164.318 311.815 164.966 312.048 165.568L313.253 165.227ZM316.771 166.75C316.771 165.227 317.743 164.364 319.067 164.364C320.328 164.364 321.089 165.159 321.089 166.545V172H322.43V166.455C322.43 164.21 321.237 163.159 319.453 163.159C318.078 163.159 317.294 163.733 316.885 164.636H316.771V160.364H315.43V172H316.771V166.75ZM325.065 172H326.361V170.659H326.52C326.815 171.136 327.384 172.182 329.065 172.182C331.247 172.182 332.77 170.432 332.77 167.659C332.77 164.909 331.247 163.159 329.043 163.159C327.338 163.159 326.815 164.205 326.52 164.659H326.406V160.364H325.065V172ZM326.384 167.636C326.384 165.682 327.247 164.364 328.884 164.364C330.588 164.364 331.429 165.795 331.429 167.636C331.429 169.5 330.565 170.977 328.884 170.977C327.27 170.977 326.384 169.614 326.384 167.636ZM338.366 172.182C340.73 172.182 342.321 170.386 342.321 167.682C342.321 164.955 340.73 163.159 338.366 163.159C336.003 163.159 334.412 164.955 334.412 167.682C334.412 170.386 336.003 172.182 338.366 172.182ZM338.366 170.977C336.571 170.977 335.753 169.432 335.753 167.682C335.753 165.932 336.571 164.364 338.366 164.364C340.162 164.364 340.98 165.932 340.98 167.682C340.98 169.432 340.162 170.977 338.366 170.977ZM346.936 172.205C348.459 172.205 349.254 171.386 349.527 170.818H349.595V172H350.936V166.25C350.936 163.477 348.822 163.159 347.709 163.159C346.391 163.159 344.891 163.614 344.209 165.205L345.482 165.659C345.777 165.023 346.476 164.341 347.754 164.341C348.987 164.341 349.595 164.994 349.595 166.114V166.159C349.595 166.807 348.936 166.75 347.345 166.955C345.726 167.165 343.959 167.523 343.959 169.523C343.959 171.227 345.277 172.205 346.936 172.205ZM347.141 171C346.072 171 345.3 170.523 345.3 169.591C345.3 168.568 346.232 168.25 347.277 168.114C347.845 168.045 349.368 167.886 349.595 167.614V168.841C349.595 169.932 348.732 171 347.141 171ZM353.384 172H354.724V166.477C354.724 165.295 355.656 164.432 356.929 164.432C357.287 164.432 357.656 164.5 357.747 164.523V163.159C357.594 163.148 357.241 163.136 357.043 163.136C355.997 163.136 355.088 163.727 354.77 164.591H354.679V163.273H353.384V172ZM362.366 172.182C364.048 172.182 364.616 171.136 364.912 170.659H365.071V172H366.366V160.364H365.026V164.659H364.912C364.616 164.205 364.094 163.159 362.389 163.159C360.185 163.159 358.662 164.909 358.662 167.659C358.662 170.432 360.185 172.182 362.366 172.182ZM362.548 170.977C360.866 170.977 360.003 169.5 360.003 167.636C360.003 165.795 360.844 164.364 362.548 164.364C364.185 164.364 365.048 165.682 365.048 167.636C365.048 169.614 364.162 170.977 362.548 170.977ZM376.077 172.205C377.599 172.205 378.395 171.386 378.668 170.818H378.736V172H380.077V166.25C380.077 163.477 377.963 163.159 376.849 163.159C375.531 163.159 374.031 163.614 373.349 165.205L374.622 165.659C374.918 165.023 375.616 164.341 376.895 164.341C378.128 164.341 378.736 164.994 378.736 166.114V166.159C378.736 166.807 378.077 166.75 376.486 166.955C374.866 167.165 373.099 167.523 373.099 169.523C373.099 171.227 374.418 172.205 376.077 172.205ZM376.281 171C375.213 171 374.44 170.523 374.44 169.591C374.44 168.568 375.372 168.25 376.418 168.114C376.986 168.045 378.509 167.886 378.736 167.614V168.841C378.736 169.932 377.872 171 376.281 171ZM382.524 175.273H383.865V170.659H383.979C384.274 171.136 384.842 172.182 386.524 172.182C388.706 172.182 390.229 170.432 390.229 167.659C390.229 164.909 388.706 163.159 386.501 163.159C384.797 163.159 384.274 164.205 383.979 164.659H383.82V163.273H382.524V175.273ZM383.842 167.636C383.842 165.682 384.706 164.364 386.342 164.364C388.047 164.364 388.888 165.795 388.888 167.636C388.888 169.5 388.024 170.977 386.342 170.977C384.729 170.977 383.842 169.614 383.842 167.636ZM392.274 175.273H393.615V170.659H393.729C394.024 171.136 394.592 172.182 396.274 172.182C398.456 172.182 399.979 170.432 399.979 167.659C399.979 164.909 398.456 163.159 396.251 163.159C394.547 163.159 394.024 164.205 393.729 164.659H393.57V163.273H392.274V175.273ZM393.592 167.636C393.592 165.682 394.456 164.364 396.092 164.364C397.797 164.364 398.638 165.795 398.638 167.636C398.638 169.5 397.774 170.977 396.092 170.977C394.479 170.977 393.592 169.614 393.592 167.636ZM412.024 168.432C412.024 170.068 410.774 170.818 409.774 170.818C408.661 170.818 407.865 170 407.865 168.727V163.273H406.524V168.818C406.524 171.045 407.706 172.114 409.342 172.114C410.661 172.114 411.524 171.409 411.933 170.523H412.024V172H413.365V163.273H412.024V168.432ZM422.003 165.227C421.582 163.989 420.639 163.159 418.912 163.159C417.071 163.159 415.707 164.205 415.707 165.682C415.707 166.886 416.423 167.693 418.026 168.068L419.48 168.409C420.361 168.614 420.776 169.034 420.776 169.636C420.776 170.386 419.98 171 418.73 171C417.634 171 416.946 170.528 416.707 169.591L415.435 169.909C415.747 171.392 416.969 172.182 418.753 172.182C420.781 172.182 422.162 171.074 422.162 169.568C422.162 168.352 421.401 167.585 419.844 167.205L418.548 166.886C417.514 166.631 417.048 166.284 417.048 165.614C417.048 164.864 417.844 164.318 418.912 164.318C420.082 164.318 420.565 164.966 420.798 165.568L422.003 165.227ZM424.18 172H425.521V163.273H424.18V172ZM424.862 161.818C425.385 161.818 425.817 161.409 425.817 160.909C425.817 160.409 425.385 160 424.862 160C424.339 160 423.908 160.409 423.908 160.909C423.908 161.409 424.339 161.818 424.862 161.818ZM429.318 166.75C429.318 165.227 430.261 164.364 431.545 164.364C432.79 164.364 433.545 165.176 433.545 166.545V172H434.886V166.455C434.886 164.227 433.699 163.159 431.932 163.159C430.614 163.159 429.795 163.75 429.386 164.636H429.273V163.273H427.977V172H429.318V166.75ZM440.859 175.455C442.95 175.455 444.632 174.5 444.632 172.25V163.273H443.337V164.659H443.2C442.905 164.205 442.359 163.159 440.655 163.159C438.45 163.159 436.928 164.909 436.928 167.591C436.928 170.318 438.518 171.864 440.632 171.864C442.337 171.864 442.882 170.864 443.178 170.386H443.291V172.159C443.291 173.614 442.268 174.273 440.859 174.273C439.274 174.273 438.717 173.438 438.359 172.955L437.291 173.705C437.837 174.619 438.911 175.455 440.859 175.455ZM440.814 170.659C439.132 170.659 438.268 169.386 438.268 167.568C438.268 165.795 439.109 164.364 440.814 164.364C442.45 164.364 443.314 165.682 443.314 167.568C443.314 169.5 442.428 170.659 440.814 170.659ZM42.7727 196.182C45.1364 196.182 46.7273 194.386 46.7273 191.682C46.7273 188.955 45.1364 187.159 42.7727 187.159C40.4091 187.159 38.8182 188.955 38.8182 191.682C38.8182 194.386 40.4091 196.182 42.7727 196.182ZM42.7727 194.977C40.9773 194.977 40.1591 193.432 40.1591 191.682C40.1591 189.932 40.9773 188.364 42.7727 188.364C44.5682 188.364 45.3864 189.932 45.3864 191.682C45.3864 193.432 44.5682 194.977 42.7727 194.977ZM54.2741 192.432C54.2741 194.068 53.0241 194.818 52.0241 194.818C50.9105 194.818 50.1151 194 50.1151 192.727V187.273H48.7741V192.818C48.7741 195.045 49.956 196.114 51.5923 196.114C52.9105 196.114 53.7741 195.409 54.1832 194.523H54.2741V196H55.6151V187.273H54.2741V192.432ZM58.071 196H59.4119V190.477C59.4119 189.295 60.3438 188.432 61.6165 188.432C61.9744 188.432 62.3438 188.5 62.4347 188.523V187.159C62.2812 187.148 61.929 187.136 61.7301 187.136C60.6847 187.136 59.7756 187.727 59.4574 188.591H59.3665V187.273H58.071V196ZM69.8651 190.75C69.8651 189.227 70.8082 188.364 72.0923 188.364C73.3366 188.364 74.0923 189.176 74.0923 190.545V196H75.4332V190.455C75.4332 188.227 74.2457 187.159 72.4787 187.159C71.1605 187.159 70.3423 187.75 69.9332 188.636H69.8196V187.273H68.5241V196H69.8651V190.75ZM81.5426 196.182C83.3153 196.182 84.6108 195.295 85.0199 193.977L83.7244 193.614C83.3835 194.523 82.5938 194.977 81.5426 194.977C79.9688 194.977 78.8835 193.96 78.821 192.091H85.1562V191.523C85.1562 188.273 83.2244 187.159 81.4062 187.159C79.0426 187.159 77.4744 189.023 77.4744 191.705C77.4744 194.386 79.0199 196.182 81.5426 196.182ZM78.821 190.932C78.9119 189.574 79.8722 188.364 81.4062 188.364C82.8608 188.364 83.7926 189.455 83.7926 190.932H78.821ZM89.1733 196H90.4915L92.4006 189.295H92.5369L94.446 196H95.7642L98.4233 187.273H97.0142L95.1278 193.932H95.0369L93.196 187.273H91.7642L89.9006 193.955H89.8097L87.9233 187.273H86.5142L89.1733 196ZM104.696 196H106.037V187.273H104.696V196ZM105.378 185.818C105.901 185.818 106.332 185.409 106.332 184.909C106.332 184.409 105.901 184 105.378 184C104.855 184 104.423 184.409 104.423 184.909C104.423 185.409 104.855 185.818 105.378 185.818ZM109.834 190.75C109.834 189.227 110.777 188.364 112.061 188.364C113.305 188.364 114.061 189.176 114.061 190.545V196H115.402V190.455C115.402 188.227 114.214 187.159 112.447 187.159C111.129 187.159 110.311 187.75 109.902 188.636H109.788V187.273H108.493V196H109.834V190.75ZM121.648 187.273H119.784V185.182H118.443V187.273H117.125V188.409H118.443V193.864C118.443 195.386 119.67 196.114 120.807 196.114C121.307 196.114 121.625 196.023 121.807 195.955L121.534 194.75C121.42 194.773 121.239 194.818 120.943 194.818C120.352 194.818 119.784 194.636 119.784 193.5V188.409H121.648V187.273ZM127.23 196.182C129.003 196.182 130.298 195.295 130.707 193.977L129.412 193.614C129.071 194.523 128.281 194.977 127.23 194.977C125.656 194.977 124.571 193.96 124.509 192.091H130.844V191.523C130.844 188.273 128.912 187.159 127.094 187.159C124.73 187.159 123.162 189.023 123.162 191.705C123.162 194.386 124.707 196.182 127.23 196.182ZM124.509 190.932C124.599 189.574 125.56 188.364 127.094 188.364C128.548 188.364 129.48 189.455 129.48 190.932H124.509ZM136.406 199.455C138.497 199.455 140.179 198.5 140.179 196.25V187.273H138.884V188.659H138.747C138.452 188.205 137.906 187.159 136.202 187.159C133.997 187.159 132.474 188.909 132.474 191.591C132.474 194.318 134.065 195.864 136.179 195.864C137.884 195.864 138.429 194.864 138.724 194.386H138.838V196.159C138.838 197.614 137.815 198.273 136.406 198.273C134.821 198.273 134.264 197.438 133.906 196.955L132.838 197.705C133.384 198.619 134.457 199.455 136.406 199.455ZM136.361 194.659C134.679 194.659 133.815 193.386 133.815 191.568C133.815 189.795 134.656 188.364 136.361 188.364C137.997 188.364 138.861 189.682 138.861 191.568C138.861 193.5 137.974 194.659 136.361 194.659ZM142.634 196H143.974V190.477C143.974 189.295 144.906 188.432 146.179 188.432C146.537 188.432 146.906 188.5 146.997 188.523V187.159C146.844 187.148 146.491 187.136 146.293 187.136C145.247 187.136 144.338 187.727 144.02 188.591H143.929V187.273H142.634V196ZM151.155 196.205C152.678 196.205 153.473 195.386 153.746 194.818H153.814V196H155.155V190.25C155.155 187.477 153.041 187.159 151.928 187.159C150.609 187.159 149.109 187.614 148.428 189.205L149.7 189.659C149.996 189.023 150.695 188.341 151.973 188.341C153.206 188.341 153.814 188.994 153.814 190.114V190.159C153.814 190.807 153.155 190.75 151.564 190.955C149.945 191.165 148.178 191.523 148.178 193.523C148.178 195.227 149.496 196.205 151.155 196.205ZM151.359 195C150.291 195 149.518 194.523 149.518 193.591C149.518 192.568 150.45 192.25 151.496 192.114C152.064 192.045 153.587 191.886 153.814 191.614V192.841C153.814 193.932 152.95 195 151.359 195ZM161.398 187.273H159.534V185.182H158.193V187.273H156.875V188.409H158.193V193.864C158.193 195.386 159.42 196.114 160.557 196.114C161.057 196.114 161.375 196.023 161.557 195.955L161.284 194.75C161.17 194.773 160.989 194.818 160.693 194.818C160.102 194.818 159.534 194.636 159.534 193.5V188.409H161.398V187.273ZM166.98 196.182C168.753 196.182 170.048 195.295 170.457 193.977L169.162 193.614C168.821 194.523 168.031 194.977 166.98 194.977C165.406 194.977 164.321 193.96 164.259 192.091H170.594V191.523C170.594 188.273 168.662 187.159 166.844 187.159C164.48 187.159 162.912 189.023 162.912 191.705C162.912 194.386 164.457 196.182 166.98 196.182ZM164.259 190.932C164.349 189.574 165.31 188.364 166.844 188.364C168.298 188.364 169.23 189.455 169.23 190.932H164.259ZM175.929 196.182C177.611 196.182 178.179 195.136 178.474 194.659H178.634V196H179.929V184.364H178.588V188.659H178.474C178.179 188.205 177.656 187.159 175.952 187.159C173.747 187.159 172.224 188.909 172.224 191.659C172.224 194.432 173.747 196.182 175.929 196.182ZM176.111 194.977C174.429 194.977 173.565 193.5 173.565 191.636C173.565 189.795 174.406 188.364 176.111 188.364C177.747 188.364 178.611 189.682 178.611 191.636C178.611 193.614 177.724 194.977 176.111 194.977ZM189.048 196H190.366L192.276 189.295H192.412L194.321 196H195.639L198.298 187.273H196.889L195.003 193.932H194.912L193.071 187.273H191.639L189.776 193.955H189.685L187.798 187.273H186.389L189.048 196ZM203.32 196.182C205.683 196.182 207.274 194.386 207.274 191.682C207.274 188.955 205.683 187.159 203.32 187.159C200.956 187.159 199.365 188.955 199.365 191.682C199.365 194.386 200.956 196.182 203.32 196.182ZM203.32 194.977C201.524 194.977 200.706 193.432 200.706 191.682C200.706 189.932 201.524 188.364 203.32 188.364C205.115 188.364 205.933 189.932 205.933 191.682C205.933 193.432 205.115 194.977 203.32 194.977ZM209.321 196H210.662V190.477C210.662 189.295 211.594 188.432 212.866 188.432C213.224 188.432 213.594 188.5 213.685 188.523V187.159C213.531 187.148 213.179 187.136 212.98 187.136C211.935 187.136 211.026 187.727 210.707 188.591H210.616V187.273H209.321V196ZM215.274 196H216.615V192.733L217.553 191.864L220.82 196H222.524L218.564 191L222.251 187.273H220.592L216.774 191.159H216.615V184.364H215.274V196ZM227.864 187.273H225.909V186.386C225.909 185.523 226.273 185.068 227.159 185.068C227.545 185.068 227.773 185.159 227.909 185.205L228.295 184.045C228.091 183.955 227.682 183.818 227.023 183.818C225.773 183.818 224.568 184.568 224.568 186.068V187.273H223.159V188.409H224.568V196H225.909V188.409H227.864V187.273ZM231.084 184.364H229.743V196H231.084V184.364ZM237.085 196.182C239.449 196.182 241.04 194.386 241.04 191.682C241.04 188.955 239.449 187.159 237.085 187.159C234.722 187.159 233.131 188.955 233.131 191.682C233.131 194.386 234.722 196.182 237.085 196.182ZM237.085 194.977C235.29 194.977 234.472 193.432 234.472 191.682C234.472 189.932 235.29 188.364 237.085 188.364C238.881 188.364 239.699 189.932 239.699 191.682C239.699 193.432 238.881 194.977 237.085 194.977ZM244.767 196H246.085L247.994 189.295H248.131L250.04 196H251.358L254.017 187.273H252.608L250.722 193.932H250.631L248.79 187.273H247.358L245.494 193.955H245.403L243.517 187.273H242.108L244.767 196ZM255.58 196.091C256.142 196.091 256.602 195.631 256.602 195.068C256.602 194.506 256.142 194.045 255.58 194.045C255.017 194.045 254.557 194.506 254.557 195.068C254.557 195.631 255.017 196.091 255.58 196.091Z" fill="#69707D"/>
</g>
<g clip-path="url(#clip0_23338_281568)">
<path d="M264.044 196H271.072V194.489H265.8V184.364H264.044V196ZM276.7 196.176C278.604 196.176 279.95 195.239 280.337 193.818L278.729 193.528C278.422 194.352 277.683 194.773 276.717 194.773C275.263 194.773 274.286 193.83 274.24 192.148H280.445V191.545C280.445 188.392 278.558 187.159 276.581 187.159C274.149 187.159 272.547 189.011 272.547 191.693C272.547 194.403 274.126 196.176 276.7 196.176ZM274.246 190.875C274.314 189.636 275.212 188.562 276.592 188.562C277.911 188.562 278.774 189.54 278.78 190.875H274.246ZM284.869 196.193C286.312 196.193 287.125 195.46 287.449 194.807H287.517V196H289.176V190.205C289.176 187.665 287.176 187.159 285.79 187.159C284.21 187.159 282.756 187.795 282.188 189.386L283.784 189.75C284.034 189.131 284.67 188.534 285.812 188.534C286.909 188.534 287.472 189.108 287.472 190.097V190.136C287.472 190.756 286.835 190.744 285.267 190.926C283.614 191.119 281.92 191.551 281.92 193.534C281.92 195.25 283.21 196.193 284.869 196.193ZM285.239 194.83C284.278 194.83 283.585 194.398 283.585 193.557C283.585 192.648 284.392 192.324 285.375 192.193C285.926 192.119 287.233 191.972 287.477 191.727V192.852C287.477 193.886 286.653 194.83 285.239 194.83ZM291.439 196H293.138V190.67C293.138 189.528 294.018 188.705 295.223 188.705C295.575 188.705 295.973 188.767 296.109 188.807V187.182C295.939 187.159 295.604 187.142 295.388 187.142C294.365 187.142 293.49 187.722 293.172 188.659H293.081V187.273H291.439V196ZM299.278 190.818C299.278 189.426 300.131 188.631 301.312 188.631C302.466 188.631 303.165 189.386 303.165 190.653V196H304.864V190.449C304.864 188.29 303.676 187.159 301.892 187.159C300.58 187.159 299.722 187.767 299.318 188.693H299.21V187.273H297.58V196H299.278V190.818ZM311.376 196H313.075V190.619C313.075 189.443 313.899 188.625 314.865 188.625C315.808 188.625 316.462 189.25 316.462 190.199V196H318.155V190.438C318.155 189.386 318.797 188.625 319.905 188.625C320.803 188.625 321.541 189.125 321.541 190.307V196H323.24V190.148C323.24 188.153 322.126 187.159 320.547 187.159C319.291 187.159 318.348 187.761 317.928 188.693H317.837C317.456 187.739 316.655 187.159 315.49 187.159C314.337 187.159 313.479 187.733 313.115 188.693H313.007V187.273H311.376V196ZM329.193 196.176C331.653 196.176 333.261 194.375 333.261 191.676C333.261 188.96 331.653 187.159 329.193 187.159C326.733 187.159 325.125 188.96 325.125 191.676C325.125 194.375 326.733 196.176 329.193 196.176ZM329.199 194.75C327.591 194.75 326.841 193.347 326.841 191.67C326.841 190 327.591 188.58 329.199 188.58C330.795 188.58 331.545 190 331.545 191.67C331.545 193.347 330.795 194.75 329.199 194.75ZM335.158 196H336.857V190.67C336.857 189.528 337.737 188.705 338.942 188.705C339.294 188.705 339.692 188.767 339.828 188.807V187.182C339.658 187.159 339.322 187.142 339.107 187.142C338.084 187.142 337.209 187.722 336.891 188.659H336.8V187.273H335.158V196ZM344.747 196.176C346.651 196.176 347.997 195.239 348.384 193.818L346.776 193.528C346.469 194.352 345.73 194.773 344.764 194.773C343.31 194.773 342.332 193.83 342.287 192.148H348.491V191.545C348.491 188.392 346.605 187.159 344.628 187.159C342.196 187.159 340.594 189.011 340.594 191.693C340.594 194.403 342.173 196.176 344.747 196.176ZM342.293 190.875C342.361 189.636 343.259 188.562 344.639 188.562C345.957 188.562 346.821 189.54 346.827 190.875H342.293Z" fill="#0071C2"/>
<path fill-rule="evenodd" clip-rule="evenodd" d="M363.25 191.875C363.25 191.668 363.418 191.5 363.625 191.5C363.832 191.5 364 191.668 364 191.875V194.5C364 195.328 363.328 196 362.5 196H356.5C355.672 196 355 195.328 355 194.5V188.5C355 187.672 355.672 187 356.5 187H359.125C359.332 187 359.5 187.168 359.5 187.375C359.5 187.582 359.332 187.75 359.125 187.75H356.5C356.086 187.75 355.75 188.086 355.75 188.5V194.5C355.75 194.914 356.086 195.25 356.5 195.25H362.5C362.914 195.25 363.25 194.914 363.25 194.5V191.875ZM359.41 192.129C359.264 192.276 359.027 192.276 358.88 192.129C358.734 191.983 358.734 191.745 358.88 191.599L363.479 187H361.375C361.168 187 361 186.832 361 186.625C361 186.418 361.168 186.25 361.375 186.25H364C364.414 186.25 364.75 186.586 364.75 187V189.625C364.75 189.832 364.582 190 364.375 190C364.168 190 364 189.832 364 189.625V187.54L359.41 192.129Z" fill="#0071C2"/>
</g>
<defs>
<filter id="filter0_dddd_23338_281568" x="0" y="0.7" width="484" height="274.3" filterUnits="userSpaceOnUse" color-interpolation-filters="sRGB">
<feFlood flood-opacity="0" result="BackgroundImageFix"/>
<feColorMatrix in="SourceAlpha" type="matrix" values="0 0 0 0 0 0 0 0 0 0 0 0 0 0 0 0 0 0 127 0" result="hardAlpha"/>
<feMorphology radius="1" operator="erode" in="SourceAlpha" result="effect1_dropShadow_23338_281568"/>
<feOffset dy="15"/>
<feGaussianBlur stdDeviation="7.5"/>
<feColorMatrix type="matrix" values="0 0 0 0 0 0 0 0 0 0 0 0 0 0 0 0 0 0 0.04 0"/>
<feBlend mode="normal" in2="BackgroundImageFix" result="effect1_dropShadow_23338_281568"/>
<feColorMatrix in="SourceAlpha" type="matrix" values="0 0 0 0 0 0 0 0 0 0 0 0 0 0 0 0 0 0 127 0" result="hardAlpha"/>
<feMorphology radius="1" operator="erode" in="SourceAlpha" result="effect2_dropShadow_23338_281568"/>
<feOffset dy="5.7"/>
<feGaussianBlur stdDeviation="6"/>
<feColorMatrix type="matrix" values="0 0 0 0 0 0 0 0 0 0 0 0 0 0 0 0 0 0 0.05 0"/>
<feBlend mode="normal" in2="effect1_dropShadow_23338_281568" result="effect2_dropShadow_23338_281568"/>
<feColorMatrix in="SourceAlpha" type="matrix" values="0 0 0 0 0 0 0 0 0 0 0 0 0 0 0 0 0 0 127 0" result="hardAlpha"/>
<feMorphology radius="1" operator="erode" in="SourceAlpha" result="effect3_dropShadow_23338_281568"/>
<feOffset dy="2.6"/>
<feGaussianBlur stdDeviation="4"/>
<feColorMatrix type="matrix" values="0 0 0 0 0 0 0 0 0 0 0 0 0 0 0 0 0 0 0.06 0"/>
<feBlend mode="normal" in2="effect2_dropShadow_23338_281568" result="effect3_dropShadow_23338_281568"/>
<feColorMatrix in="SourceAlpha" type="matrix" values="0 0 0 0 0 0 0 0 0 0 0 0 0 0 0 0 0 0 127 0" result="hardAlpha"/>
<feMorphology radius="1" operator="erode" in="SourceAlpha" result="effect4_dropShadow_23338_281568"/>
<feOffset dy="0.9"/>
<feGaussianBlur stdDeviation="2"/>
<feColorMatrix type="matrix" values="0 0 0 0 0 0 0 0 0 0 0 0 0 0 0 0 0 0 0.08 0"/>
<feBlend mode="normal" in2="effect3_dropShadow_23338_281568" result="effect4_dropShadow_23338_281568"/>
<feBlend mode="normal" in="SourceGraphic" in2="effect4_dropShadow_23338_281568" result="shape"/>
</filter>
<clipPath id="clip0_23338_281568">
<rect width="103" height="24" fill="white" transform="translate(262.5 178)"/>
</clipPath>
</defs>
</svg>
