<svg width="629" height="496" viewBox="0 0 629 496" fill="none" xmlns="http://www.w3.org/2000/svg">
<mask id="path-2-inside-1_23023_279389" fill="white">
<rect x="0.736816" y="0.29834" width="301.529" height="235.701" rx="6"/>
</mask>
<rect x="0.736816" y="0.29834" width="301.529" height="235.701" rx="6" fill="white" stroke="#D3DAE6" stroke-width="16" mask="url(#path-2-inside-1_23023_279389)"/>
<rect x="86.5901" y="46.8926" width="129.82" height="22.3961" rx="6" fill="#D3DAE6"/>
<rect x="105.728" y="138.157" width="91.5438" height="22.3961" rx="6" fill="#525761"/>
<rect x="131.681" y="147.115" width="39.6375" height="4.47922" rx="2.23961" fill="white"/>
<rect x="79.6335" y="175.67" width="160.721" height="13.4377" rx="4" fill="#D3DAE6"/>
<ellipse cx="68.3085" cy="182.389" rx="5.6625" ry="6.71883" fill="#D3DAE6"/>
<rect x="53.5859" y="82.7266" width="195.828" height="13.4376" rx="4" fill="#D3DAE6"/>
<rect x="69.8657" y="109.602" width="163.269" height="13.4377" rx="4" fill="#D3DAE6"/>
<mask id="path-11-inside-2_23023_279389" fill="white">
<rect x="326.737" y="0.29834" width="301.529" height="235.701" rx="6"/>
</mask>
<rect x="326.737" y="0.29834" width="301.529" height="235.701" rx="6" fill="white" stroke="#D3DAE6" stroke-width="16" mask="url(#path-11-inside-2_23023_279389)"/>
<rect x="412.59" y="46.8926" width="129.82" height="22.3961" rx="6" fill="#D3DAE6"/>
<rect x="431.728" y="138.157" width="91.5438" height="22.3961" rx="6" fill="#525761"/>
<rect x="457.681" y="147.115" width="39.6375" height="4.47922" rx="2.23961" fill="white"/>
<rect x="405.634" y="175.67" width="160.721" height="13.4377" rx="4" fill="#D3DAE6"/>
<ellipse cx="394.309" cy="182.389" rx="5.6625" ry="6.71883" fill="#D3DAE6"/>
<rect x="379.586" y="82.7266" width="195.828" height="13.4376" rx="4" fill="#D3DAE6"/>
<rect x="395.866" y="109.602" width="163.269" height="13.4377" rx="4" fill="#D3DAE6"/>
<mask id="path-20-inside-3_23023_279389" fill="white">
<rect x="0.736816" y="260.298" width="301.529" height="235.701" rx="6"/>
</mask>
<rect x="0.736816" y="260.298" width="301.529" height="235.701" rx="6" fill="white" stroke="#D3DAE6" stroke-width="16" mask="url(#path-20-inside-3_23023_279389)"/>
<rect x="86.5901" y="306.893" width="129.82" height="22.3961" rx="6" fill="#D3DAE6"/>
<rect x="105.728" y="398.157" width="91.5438" height="22.3961" rx="6" fill="#525761"/>
<rect x="131.681" y="407.115" width="39.6375" height="4.47922" rx="2.23961" fill="white"/>
<rect x="79.6335" y="435.67" width="160.721" height="13.4377" rx="4" fill="#D3DAE6"/>
<ellipse cx="68.3085" cy="442.389" rx="5.6625" ry="6.71883" fill="#D3DAE6"/>
<rect x="53.5859" y="342.727" width="195.828" height="13.4376" rx="4" fill="#D3DAE6"/>
<rect x="69.8657" y="369.602" width="163.269" height="13.4377" rx="4" fill="#D3DAE6"/>
<mask id="path-29-inside-4_23023_279389" fill="white">
<rect x="326.737" y="260.298" width="301.529" height="235.701" rx="6"/>
</mask>
<rect x="326.737" y="260.298" width="301.529" height="235.701" rx="6" fill="white" stroke="#D3DAE6" stroke-width="16" mask="url(#path-29-inside-4_23023_279389)"/>
<rect x="412.59" y="306.893" width="129.82" height="22.3961" rx="6" fill="#D3DAE6"/>
<rect x="431.728" y="398.157" width="91.5438" height="22.3961" rx="6" fill="#525761"/>
<rect x="457.681" y="407.115" width="39.6375" height="4.47922" rx="2.23961" fill="white"/>
<rect x="405.634" y="435.67" width="160.721" height="13.4377" rx="4" fill="#D3DAE6"/>
<ellipse cx="394.309" cy="442.389" rx="5.6625" ry="6.71883" fill="#D3DAE6"/>
<rect x="379.586" y="342.727" width="195.828" height="13.4376" rx="4" fill="#D3DAE6"/>
<rect x="395.866" y="369.602" width="163.269" height="13.4377" rx="4" fill="#D3DAE6"/>
</svg>
