<svg width="663" height="531" viewBox="0 0 663 531" fill="none" xmlns="http://www.w3.org/2000/svg">
<g filter="url(#filter0_dddd_2_8640)">
<rect x="14.7367" y="5.73267" width="301.529" height="235.701" rx="6" fill="white"/>
<rect x="100.59" y="52.3265" width="129.82" height="22.3961" rx="6" fill="#D3DAE6"/>
<rect x="119.728" y="143.591" width="91.5438" height="22.3961" rx="6" fill="#525761"/>
<rect x="145.681" y="152.549" width="39.6375" height="4.47922" rx="2.23961" fill="white"/>
<rect x="93.6335" y="181.104" width="160.721" height="13.4377" rx="4" fill="#D3DAE6"/>
<ellipse cx="82.3085" cy="187.823" rx="5.6625" ry="6.71883" fill="#D3DAE6"/>
<rect x="67.5859" y="88.1603" width="195.828" height="13.4376" rx="4" fill="#D3DAE6"/>
<rect x="83.8656" y="115.036" width="163.269" height="13.4377" rx="4" fill="#D3DAE6"/>
<mask id="path-11-inside-1_2_8640" fill="white">
<rect x="341.74" y="6.68579" width="301.529" height="198.748" rx="6"/>
</mask>
<rect x="341.74" y="6.68579" width="301.529" height="198.748" rx="6" fill="white" stroke="#D3DAE6" stroke-width="16" mask="url(#path-11-inside-1_2_8640)"/>
<rect x="341.488" y="6.2832" width="303.526" height="234.328" rx="6" fill="white"/>
<g opacity="0.3">
<path d="M470.213 38.9472C470.213 45.324 465.055 50.4935 458.694 50.4935C452.332 50.4935 447.175 45.324 447.175 38.9472C447.175 32.5703 452.332 27.4009 458.694 27.4009C465.055 27.4009 470.213 32.5703 470.213 38.9472Z" fill="#D6BF57"/>
<path d="M447.175 86.3316V74.688L470.213 57.2227L485.571 68.8662L523.967 39.7573L539.325 51.4009V86.3316H447.175Z" fill="#54B399"/>
</g>
<rect x="427.91" y="99.1633" width="130.68" height="19.0099" rx="6" fill="#D3DAE6"/>
<rect x="447.175" y="176.629" width="92.15" height="19.0099" rx="6" fill="#0071C2"/>
<rect x="473.3" y="184.233" width="39.9" height="3.80198" rx="1.90099" fill="white"/>
<rect x="420.908" y="208.47" width="161.785" height="11.4059" rx="4" fill="#D3DAE6"/>
<ellipse cx="409.508" cy="214.173" rx="5.7" ry="5.70297" fill="#D3DAE6"/>
<rect x="394.688" y="129.579" width="197.125" height="11.4059" rx="4" fill="#D3DAE6"/>
<rect x="411.075" y="152.391" width="164.35" height="11.4059" rx="4" fill="#D3DAE6"/>
<mask id="path-24-inside-2_2_8640" fill="white">
<rect x="15.7404" y="266.686" width="301.529" height="198.748" rx="6"/>
</mask>
<rect x="15.7404" y="266.686" width="301.529" height="198.748" rx="6" fill="white" stroke="#D3DAE6" stroke-width="16" mask="url(#path-24-inside-2_2_8640)"/>
<rect x="15.4883" y="266.283" width="303.526" height="234.328" rx="6" fill="white"/>
<g opacity="0.3">
<path d="M144.213 298.947C144.213 305.324 139.055 310.493 132.694 310.493C126.332 310.493 121.175 305.324 121.175 298.947C121.175 292.57 126.332 287.401 132.694 287.401C139.055 287.401 144.213 292.57 144.213 298.947Z" fill="#D6BF57"/>
<path d="M121.175 346.332V334.688L144.213 317.223L159.571 328.866L197.967 299.757L213.325 311.401V346.332H121.175Z" fill="#54B399"/>
</g>
<rect x="101.91" y="359.163" width="130.68" height="19.0099" rx="6" fill="#D3DAE6"/>
<rect x="121.175" y="436.629" width="92.15" height="19.0099" rx="6" fill="#0071C2"/>
<rect x="147.3" y="444.233" width="39.9" height="3.80198" rx="1.90099" fill="white"/>
<rect x="94.9076" y="468.47" width="161.785" height="11.4059" rx="4" fill="#D3DAE6"/>
<ellipse cx="83.5076" cy="474.173" rx="5.7" ry="5.70297" fill="#D3DAE6"/>
<rect x="68.6875" y="389.579" width="197.125" height="11.4059" rx="4" fill="#D3DAE6"/>
<rect x="85.075" y="412.391" width="164.35" height="11.4059" rx="4" fill="#D3DAE6"/>
<mask id="path-37-inside-3_2_8640" fill="white">
<rect x="344.74" y="266.686" width="301.529" height="198.748" rx="6"/>
</mask>
<rect x="344.74" y="266.686" width="301.529" height="198.748" rx="6" fill="white" stroke="#D3DAE6" stroke-width="16" mask="url(#path-37-inside-3_2_8640)"/>
<rect x="344.488" y="266.283" width="303.526" height="234.328" rx="6" fill="white"/>
<g opacity="0.3">
<path d="M473.213 298.947C473.213 305.324 468.055 310.493 461.694 310.493C455.332 310.493 450.175 305.324 450.175 298.947C450.175 292.57 455.332 287.401 461.694 287.401C468.055 287.401 473.213 292.57 473.213 298.947Z" fill="#D6BF57"/>
<path d="M450.175 346.332V334.688L473.213 317.223L488.571 328.866L526.967 299.757L542.325 311.401V346.332H450.175Z" fill="#54B399"/>
</g>
<rect x="430.91" y="359.163" width="130.68" height="19.0099" rx="6" fill="#D3DAE6"/>
<rect x="450.175" y="436.629" width="92.15" height="19.0099" rx="6" fill="#0071C2"/>
<rect x="476.3" y="444.233" width="39.9" height="3.80198" rx="1.90099" fill="white"/>
<rect x="423.908" y="468.47" width="161.785" height="11.4059" rx="4" fill="#D3DAE6"/>
<ellipse cx="412.508" cy="474.173" rx="5.7" ry="5.70297" fill="#D3DAE6"/>
<rect x="397.688" y="389.579" width="197.125" height="11.4059" rx="4" fill="#D3DAE6"/>
<rect x="414.075" y="412.391" width="164.35" height="11.4059" rx="4" fill="#D3DAE6"/>
</g>
<defs>
<filter id="filter0_dddd_2_8640" x="0.5" y="0.134082" width="662.491" height="530.3" filterUnits="userSpaceOnUse" color-interpolation-filters="sRGB">
<feFlood flood-opacity="0" result="BackgroundImageFix"/>
<feColorMatrix in="SourceAlpha" type="matrix" values="0 0 0 0 0 0 0 0 0 0 0 0 0 0 0 0 0 0 127 0" result="hardAlpha"/>
<feMorphology radius="1" operator="erode" in="SourceAlpha" result="effect1_dropShadow_2_8640"/>
<feOffset dy="15"/>
<feGaussianBlur stdDeviation="7.5"/>
<feColorMatrix type="matrix" values="0 0 0 0 0 0 0 0 0 0 0 0 0 0 0 0 0 0 0.04 0"/>
<feBlend mode="normal" in2="BackgroundImageFix" result="effect1_dropShadow_2_8640"/>
<feColorMatrix in="SourceAlpha" type="matrix" values="0 0 0 0 0 0 0 0 0 0 0 0 0 0 0 0 0 0 127 0" result="hardAlpha"/>
<feMorphology radius="1" operator="erode" in="SourceAlpha" result="effect2_dropShadow_2_8640"/>
<feOffset dy="5.7"/>
<feGaussianBlur stdDeviation="6"/>
<feColorMatrix type="matrix" values="0 0 0 0 0 0 0 0 0 0 0 0 0 0 0 0 0 0 0.05 0"/>
<feBlend mode="normal" in2="effect1_dropShadow_2_8640" result="effect2_dropShadow_2_8640"/>
<feColorMatrix in="SourceAlpha" type="matrix" values="0 0 0 0 0 0 0 0 0 0 0 0 0 0 0 0 0 0 127 0" result="hardAlpha"/>
<feMorphology radius="1" operator="erode" in="SourceAlpha" result="effect3_dropShadow_2_8640"/>
<feOffset dy="2.6"/>
<feGaussianBlur stdDeviation="4"/>
<feColorMatrix type="matrix" values="0 0 0 0 0 0 0 0 0 0 0 0 0 0 0 0 0 0 0.06 0"/>
<feBlend mode="normal" in2="effect2_dropShadow_2_8640" result="effect3_dropShadow_2_8640"/>
<feColorMatrix in="SourceAlpha" type="matrix" values="0 0 0 0 0 0 0 0 0 0 0 0 0 0 0 0 0 0 127 0" result="hardAlpha"/>
<feMorphology radius="1" operator="erode" in="SourceAlpha" result="effect4_dropShadow_2_8640"/>
<feOffset dy="0.9"/>
<feGaussianBlur stdDeviation="2"/>
<feColorMatrix type="matrix" values="0 0 0 0 0 0 0 0 0 0 0 0 0 0 0 0 0 0 0.08 0"/>
<feBlend mode="normal" in2="effect3_dropShadow_2_8640" result="effect4_dropShadow_2_8640"/>
<feBlend mode="normal" in="SourceGraphic" in2="effect4_dropShadow_2_8640" result="shape"/>
</filter>
</defs>
</svg>
