<svg width="484" height="388" viewBox="0 0 484 388" fill="none" xmlns="http://www.w3.org/2000/svg">
<g filter="url(#filter0_dddd_2_8301)">
<g clip-path="url(#clip0_2_8301)">
<rect x="14" y="6" width="456" height="352.839" rx="6" fill="white"/>
<mask id="path-3-inside-1_2_8301" fill="white">
<rect x="15.8545" y="7.87146" width="450.81" height="297.145" rx="6"/>
</mask>
<rect x="15.8545" y="7.87146" width="450.81" height="297.145" rx="6" fill="white" stroke="#D3DAE6" stroke-width="16" mask="url(#path-3-inside-1_2_8301)"/>
<rect x="15.4775" y="7.26953" width="453.796" height="350.339" rx="6" fill="white"/>
<rect x="144.685" y="146.133" width="195.377" height="28.4214" rx="6" fill="#D3DAE6"/>
<rect x="173.488" y="261.95" width="137.772" height="28.4214" rx="6" fill="#0077CC"/>
<rect x="212.547" y="273.318" width="59.6538" height="5.68428" rx="2.84214" fill="white"/>
<rect x="122" y="309.556" width="241.882" height="17.0528" rx="4" fill="#D3DAE6"/>
<rect x="95.0148" y="191.607" width="294.718" height="17.0528" rx="4" fill="#D3DAE6"/>
<rect x="119.515" y="225.713" width="245.717" height="17.0528" rx="4" fill="#D3DAE6"/>
<g opacity="0.7">
<path d="M239.199 86L216.912 63.7128C215.863 62.6633 215.863 60.9617 216.912 59.9122C217.962 58.8626 219.663 58.8626 220.713 59.9122L243 82.1993L265.287 59.9122C266.337 58.8626 268.038 58.8626 269.088 59.9122C270.137 60.9617 270.137 62.6633 269.088 63.7128L246.801 86L269.088 108.287C270.137 109.337 270.137 111.038 269.088 112.088C268.038 113.137 266.337 113.137 265.287 112.088L243 89.8007L220.713 112.088C219.663 113.137 217.962 113.137 216.912 112.088C215.863 111.038 215.863 109.337 216.912 108.287L239.199 86Z" fill="#BD271E"/>
</g>
</g>
</g>
<defs>
<filter id="filter0_dddd_2_8301" x="0" y="0.7" width="484" height="387.139" filterUnits="userSpaceOnUse" color-interpolation-filters="sRGB">
<feFlood flood-opacity="0" result="BackgroundImageFix"/>
<feColorMatrix in="SourceAlpha" type="matrix" values="0 0 0 0 0 0 0 0 0 0 0 0 0 0 0 0 0 0 127 0" result="hardAlpha"/>
<feMorphology radius="1" operator="erode" in="SourceAlpha" result="effect1_dropShadow_2_8301"/>
<feOffset dy="15"/>
<feGaussianBlur stdDeviation="7.5"/>
<feColorMatrix type="matrix" values="0 0 0 0 0 0 0 0 0 0 0 0 0 0 0 0 0 0 0.04 0"/>
<feBlend mode="normal" in2="BackgroundImageFix" result="effect1_dropShadow_2_8301"/>
<feColorMatrix in="SourceAlpha" type="matrix" values="0 0 0 0 0 0 0 0 0 0 0 0 0 0 0 0 0 0 127 0" result="hardAlpha"/>
<feMorphology radius="1" operator="erode" in="SourceAlpha" result="effect2_dropShadow_2_8301"/>
<feOffset dy="5.7"/>
<feGaussianBlur stdDeviation="6"/>
<feColorMatrix type="matrix" values="0 0 0 0 0 0 0 0 0 0 0 0 0 0 0 0 0 0 0.05 0"/>
<feBlend mode="normal" in2="effect1_dropShadow_2_8301" result="effect2_dropShadow_2_8301"/>
<feColorMatrix in="SourceAlpha" type="matrix" values="0 0 0 0 0 0 0 0 0 0 0 0 0 0 0 0 0 0 127 0" result="hardAlpha"/>
<feMorphology radius="1" operator="erode" in="SourceAlpha" result="effect3_dropShadow_2_8301"/>
<feOffset dy="2.6"/>
<feGaussianBlur stdDeviation="4"/>
<feColorMatrix type="matrix" values="0 0 0 0 0 0 0 0 0 0 0 0 0 0 0 0 0 0 0.06 0"/>
<feBlend mode="normal" in2="effect2_dropShadow_2_8301" result="effect3_dropShadow_2_8301"/>
<feColorMatrix in="SourceAlpha" type="matrix" values="0 0 0 0 0 0 0 0 0 0 0 0 0 0 0 0 0 0 127 0" result="hardAlpha"/>
<feMorphology radius="1" operator="erode" in="SourceAlpha" result="effect4_dropShadow_2_8301"/>
<feOffset dy="0.9"/>
<feGaussianBlur stdDeviation="2"/>
<feColorMatrix type="matrix" values="0 0 0 0 0 0 0 0 0 0 0 0 0 0 0 0 0 0 0.08 0"/>
<feBlend mode="normal" in2="effect3_dropShadow_2_8301" result="effect4_dropShadow_2_8301"/>
<feBlend mode="normal" in="SourceGraphic" in2="effect4_dropShadow_2_8301" result="shape"/>
</filter>
<clipPath id="clip0_2_8301">
<rect x="14" y="6" width="456" height="352.839" rx="6" fill="white"/>
</clipPath>
</defs>
</svg>
