<svg width="663" height="531" viewBox="0 0 663 531" fill="none" xmlns="http://www.w3.org/2000/svg">
<g filter="url(#filter0_dddd_23023_279552)">
<rect x="14.7368" y="5.73242" width="301.529" height="235.701" rx="6" fill="white"/>
<rect x="100.5" y="66.4341" width="129.82" height="22.3961" rx="6" fill="#D3DAE6"/>
<rect x="119.639" y="157.698" width="91.5438" height="22.3961" rx="6" fill="#525761"/>
<rect x="145.592" y="166.657" width="39.6375" height="4.47922" rx="2.23961" fill="white"/>
<rect x="67.4963" y="102.268" width="195.828" height="13.4376" rx="4" fill="#D3DAE6"/>
<rect x="83.7761" y="129.144" width="163.269" height="13.4377" rx="4" fill="#D3DAE6"/>
<mask id="path-9-inside-1_23023_279552" fill="white">
<rect x="341.74" y="6.68604" width="301.529" height="198.748" rx="6"/>
</mask>
<rect x="341.74" y="6.68604" width="301.529" height="198.748" rx="6" fill="white" stroke="#D3DAE6" stroke-width="16" mask="url(#path-9-inside-1_23023_279552)"/>
<rect x="341.488" y="6.2832" width="303.526" height="234.328" rx="6" fill="white"/>
<g opacity="0.3">
<path d="M470.516 50.9804C470.516 57.3572 465.359 62.5267 458.997 62.5267C452.636 62.5267 447.479 57.3572 447.479 50.9804C447.479 44.6035 452.636 39.4341 458.997 39.4341C465.359 39.4341 470.516 44.6035 470.516 50.9804Z" fill="#D6BF57"/>
<path d="M447.479 98.3648V86.7212L470.516 69.2559L485.874 80.8994L524.27 51.7905L539.629 63.4341V98.3648H447.479Z" fill="#54B399"/>
</g>
<rect x="428.214" y="111.196" width="130.68" height="19.0099" rx="6" fill="#D3DAE6"/>
<rect x="447.479" y="188.662" width="92.15" height="19.0099" rx="6" fill="#0071C2"/>
<rect x="473.604" y="196.266" width="39.9" height="3.80198" rx="1.90099" fill="white"/>
<rect x="394.991" y="141.612" width="197.125" height="11.4059" rx="4" fill="#D3DAE6"/>
<rect x="411.379" y="164.424" width="164.35" height="11.4059" rx="4" fill="#D3DAE6"/>
<mask id="path-20-inside-2_23023_279552" fill="white">
<rect x="15.7405" y="266.686" width="301.529" height="198.748" rx="6"/>
</mask>
<rect x="15.7405" y="266.686" width="301.529" height="198.748" rx="6" fill="white" stroke="#D3DAE6" stroke-width="16" mask="url(#path-20-inside-2_23023_279552)"/>
<rect x="15.4883" y="266.283" width="303.526" height="234.328" rx="6" fill="white"/>
<g opacity="0.3">
<path d="M144.517 310.98C144.517 317.357 139.359 322.527 132.998 322.527C126.636 322.527 121.479 317.357 121.479 310.98C121.479 304.604 126.636 299.434 132.998 299.434C139.359 299.434 144.517 304.604 144.517 310.98Z" fill="#D6BF57"/>
<path d="M121.479 358.365V346.721L144.517 329.256L159.875 340.899L198.271 311.791L213.629 323.434V358.365H121.479Z" fill="#54B399"/>
</g>
<rect x="102.214" y="371.196" width="130.68" height="19.0099" rx="6" fill="#D3DAE6"/>
<rect x="121.479" y="448.662" width="92.15" height="19.0099" rx="6" fill="#0071C2"/>
<rect x="147.604" y="456.266" width="39.9" height="3.80198" rx="1.90099" fill="white"/>
<rect x="68.9915" y="401.612" width="197.125" height="11.4059" rx="4" fill="#D3DAE6"/>
<rect x="85.3789" y="424.424" width="164.35" height="11.4059" rx="4" fill="#D3DAE6"/>
<mask id="path-31-inside-3_23023_279552" fill="white">
<rect x="344.74" y="266.686" width="301.529" height="198.748" rx="6"/>
</mask>
<rect x="344.74" y="266.686" width="301.529" height="198.748" rx="6" fill="white" stroke="#D3DAE6" stroke-width="16" mask="url(#path-31-inside-3_23023_279552)"/>
<rect x="344.488" y="266.283" width="303.526" height="234.328" rx="6" fill="white"/>
<g opacity="0.3">
<path d="M473.516 310.98C473.516 317.357 468.359 322.527 461.997 322.527C455.636 322.527 450.479 317.357 450.479 310.98C450.479 304.604 455.636 299.434 461.997 299.434C468.359 299.434 473.516 304.604 473.516 310.98Z" fill="#D6BF57"/>
<path d="M450.479 358.365V346.721L473.516 329.256L488.874 340.899L527.27 311.791L542.629 323.434V358.365H450.479Z" fill="#54B399"/>
</g>
<rect x="431.214" y="371.196" width="130.68" height="19.0099" rx="6" fill="#D3DAE6"/>
<rect x="450.479" y="448.662" width="92.15" height="19.0099" rx="6" fill="#0071C2"/>
<rect x="476.604" y="456.266" width="39.9" height="3.80198" rx="1.90099" fill="white"/>
<rect x="397.991" y="401.612" width="197.125" height="11.4059" rx="4" fill="#D3DAE6"/>
<rect x="414.379" y="424.424" width="164.35" height="11.4059" rx="4" fill="#D3DAE6"/>
</g>
<defs>
<filter id="filter0_dddd_23023_279552" x="0.5" y="0.134082" width="662.491" height="530.3" filterUnits="userSpaceOnUse" color-interpolation-filters="sRGB">
<feFlood flood-opacity="0" result="BackgroundImageFix"/>
<feColorMatrix in="SourceAlpha" type="matrix" values="0 0 0 0 0 0 0 0 0 0 0 0 0 0 0 0 0 0 127 0" result="hardAlpha"/>
<feMorphology radius="1" operator="erode" in="SourceAlpha" result="effect1_dropShadow_23023_279552"/>
<feOffset dy="15"/>
<feGaussianBlur stdDeviation="7.5"/>
<feColorMatrix type="matrix" values="0 0 0 0 0 0 0 0 0 0 0 0 0 0 0 0 0 0 0.04 0"/>
<feBlend mode="normal" in2="BackgroundImageFix" result="effect1_dropShadow_23023_279552"/>
<feColorMatrix in="SourceAlpha" type="matrix" values="0 0 0 0 0 0 0 0 0 0 0 0 0 0 0 0 0 0 127 0" result="hardAlpha"/>
<feMorphology radius="1" operator="erode" in="SourceAlpha" result="effect2_dropShadow_23023_279552"/>
<feOffset dy="5.7"/>
<feGaussianBlur stdDeviation="6"/>
<feColorMatrix type="matrix" values="0 0 0 0 0 0 0 0 0 0 0 0 0 0 0 0 0 0 0.05 0"/>
<feBlend mode="normal" in2="effect1_dropShadow_23023_279552" result="effect2_dropShadow_23023_279552"/>
<feColorMatrix in="SourceAlpha" type="matrix" values="0 0 0 0 0 0 0 0 0 0 0 0 0 0 0 0 0 0 127 0" result="hardAlpha"/>
<feMorphology radius="1" operator="erode" in="SourceAlpha" result="effect3_dropShadow_23023_279552"/>
<feOffset dy="2.6"/>
<feGaussianBlur stdDeviation="4"/>
<feColorMatrix type="matrix" values="0 0 0 0 0 0 0 0 0 0 0 0 0 0 0 0 0 0 0.06 0"/>
<feBlend mode="normal" in2="effect2_dropShadow_23023_279552" result="effect3_dropShadow_23023_279552"/>
<feColorMatrix in="SourceAlpha" type="matrix" values="0 0 0 0 0 0 0 0 0 0 0 0 0 0 0 0 0 0 127 0" result="hardAlpha"/>
<feMorphology radius="1" operator="erode" in="SourceAlpha" result="effect4_dropShadow_23023_279552"/>
<feOffset dy="0.9"/>
<feGaussianBlur stdDeviation="2"/>
<feColorMatrix type="matrix" values="0 0 0 0 0 0 0 0 0 0 0 0 0 0 0 0 0 0 0.08 0"/>
<feBlend mode="normal" in2="effect3_dropShadow_23023_279552" result="effect4_dropShadow_23023_279552"/>
<feBlend mode="normal" in="SourceGraphic" in2="effect4_dropShadow_23023_279552" result="shape"/>
</filter>
</defs>
</svg>
