<svg width="716" height="352" viewBox="0 0 716 352" fill="none" xmlns="http://www.w3.org/2000/svg">
<mask id="path-3-inside-1_2_8268" fill="white">
<rect y="1" width="716" height="351" rx="6"/>
</mask>
<rect y="1" width="716" height="351" rx="6" fill="white" stroke="#D3DAE6" stroke-width="16" mask="url(#path-3-inside-1_2_8268)"/>
<g opacity="0.3">
<path d="M497.792 77.4998C497.792 92.1353 485.971 104 471.39 104C456.809 104 444.988 92.1353 444.988 77.4998C444.988 62.8644 456.809 51 471.39 51C485.971 51 497.792 62.8644 497.792 77.4998Z" fill="#D6BF57"/>
<path d="M444.988 186.252V159.528L497.792 119.444L532.994 146.167L621.001 79.3592L656.203 106.082V186.252H444.988Z" fill="#54B399"/>
</g>
<rect x="33" y="51.1329" width="195.377" height="28.4214" rx="6" fill="#D3DAE6"/>
<rect x="33" y="169" width="137.772" height="28.4214" rx="6" fill="#0055B1"/>
<rect x="72.0591" y="180.369" width="59.6538" height="5.68428" rx="2.84214" fill="white"/>
<rect x="33" y="99" width="294.718" height="17.0528" rx="4" fill="#D3DAE6"/>
<rect x="33" y="133.106" width="245.717" height="17.0528" rx="4" fill="#D3DAE6"/>
<rect x="8" y="288" width="700" height="56" fill="#FAFBFD"/>
<rect x="32.5659" y="307" width="281.88" height="17.0528" rx="4" fill="#D3DAE6"/>
</svg>
