<svg width="484" height="388" viewBox="0 0 484 388" fill="none" xmlns="http://www.w3.org/2000/svg">
<g filter="url(#filter0_dddd_2_8469)">
<g clip-path="url(#clip0_2_8469)">
<mask id="path-3-inside-1_2_8469" fill="white">
<rect x="15.8544" y="7.87149" width="450.81" height="297.145" rx="6"/>
</mask>
<rect x="15.8544" y="7.87149" width="450.81" height="297.145" rx="6" fill="white" stroke="#D3DAE6" stroke-width="16" mask="url(#path-3-inside-1_2_8469)"/>
<rect x="15.4775" y="7.26952" width="453.796" height="350.339" rx="6" fill="white"/>
<g opacity="0.3">
<path d="M207.931 56.1048C207.931 65.6387 200.221 73.3675 190.709 73.3675C181.198 73.3675 173.488 65.6387 173.488 56.1048C173.488 46.5709 181.198 38.8422 190.709 38.8422C200.221 38.8422 207.931 46.5709 207.931 56.1048Z" fill="#D6BF57"/>
<path d="M173.488 126.948V109.54L207.931 83.4282L230.893 100.836L288.298 57.316L311.26 74.7241V126.948H173.488Z" fill="#54B399"/>
</g>
<rect x="144.685" y="146.133" width="195.377" height="28.4214" rx="6" fill="#D3DAE6"/>
<rect x="173.488" y="261.95" width="137.772" height="28.4214" rx="6" fill="#98A2B3"/>
<rect x="212.547" y="273.318" width="59.6538" height="5.68428" rx="2.84214" fill="white"/>
<rect x="122" y="309.556" width="241.882" height="17.0528" rx="4" fill="#D3DAE6"/>
<rect x="95.0148" y="191.607" width="294.718" height="17.0528" rx="4" fill="#D3DAE6"/>
<rect x="92" y="226" width="133" height="17" rx="4" fill="#D3DAE6"/>
<rect x="239" y="226" width="152" height="17" rx="4" fill="#0077CC"/>
</g>
</g>
<defs>
<filter id="filter0_dddd_2_8469" x="0" y="0.7" width="484" height="387.139" filterUnits="userSpaceOnUse" color-interpolation-filters="sRGB">
<feFlood flood-opacity="0" result="BackgroundImageFix"/>
<feColorMatrix in="SourceAlpha" type="matrix" values="0 0 0 0 0 0 0 0 0 0 0 0 0 0 0 0 0 0 127 0" result="hardAlpha"/>
<feMorphology radius="1" operator="erode" in="SourceAlpha" result="effect1_dropShadow_2_8469"/>
<feOffset dy="15"/>
<feGaussianBlur stdDeviation="7.5"/>
<feColorMatrix type="matrix" values="0 0 0 0 0 0 0 0 0 0 0 0 0 0 0 0 0 0 0.04 0"/>
<feBlend mode="normal" in2="BackgroundImageFix" result="effect1_dropShadow_2_8469"/>
<feColorMatrix in="SourceAlpha" type="matrix" values="0 0 0 0 0 0 0 0 0 0 0 0 0 0 0 0 0 0 127 0" result="hardAlpha"/>
<feMorphology radius="1" operator="erode" in="SourceAlpha" result="effect2_dropShadow_2_8469"/>
<feOffset dy="5.7"/>
<feGaussianBlur stdDeviation="6"/>
<feColorMatrix type="matrix" values="0 0 0 0 0 0 0 0 0 0 0 0 0 0 0 0 0 0 0.05 0"/>
<feBlend mode="normal" in2="effect1_dropShadow_2_8469" result="effect2_dropShadow_2_8469"/>
<feColorMatrix in="SourceAlpha" type="matrix" values="0 0 0 0 0 0 0 0 0 0 0 0 0 0 0 0 0 0 127 0" result="hardAlpha"/>
<feMorphology radius="1" operator="erode" in="SourceAlpha" result="effect3_dropShadow_2_8469"/>
<feOffset dy="2.6"/>
<feGaussianBlur stdDeviation="4"/>
<feColorMatrix type="matrix" values="0 0 0 0 0 0 0 0 0 0 0 0 0 0 0 0 0 0 0.06 0"/>
<feBlend mode="normal" in2="effect2_dropShadow_2_8469" result="effect3_dropShadow_2_8469"/>
<feColorMatrix in="SourceAlpha" type="matrix" values="0 0 0 0 0 0 0 0 0 0 0 0 0 0 0 0 0 0 127 0" result="hardAlpha"/>
<feMorphology radius="1" operator="erode" in="SourceAlpha" result="effect4_dropShadow_2_8469"/>
<feOffset dy="0.9"/>
<feGaussianBlur stdDeviation="2"/>
<feColorMatrix type="matrix" values="0 0 0 0 0 0 0 0 0 0 0 0 0 0 0 0 0 0 0.08 0"/>
<feBlend mode="normal" in2="effect3_dropShadow_2_8469" result="effect4_dropShadow_2_8469"/>
<feBlend mode="normal" in="SourceGraphic" in2="effect4_dropShadow_2_8469" result="shape"/>
</filter>
<clipPath id="clip0_2_8469">
<rect x="14" y="6" width="456" height="352.839" rx="6" fill="white"/>
</clipPath>
</defs>
</svg>
