<svg width="657" height="531" viewBox="0 0 657 531" fill="none" xmlns="http://www.w3.org/2000/svg">
<g filter="url(#filter0_dddd_2_8630)">
<rect x="14.7367" y="6.29858" width="301.529" height="235.701" rx="6" fill="white"/>
<rect x="100.59" y="52.8925" width="129.82" height="22.3961" rx="6" fill="#D3DAE6"/>
<rect x="119.728" y="144.156" width="91.5438" height="22.3961" rx="6" fill="#525761"/>
<rect x="145.681" y="153.115" width="39.6375" height="4.47922" rx="2.23961" fill="white"/>
<rect x="93.6335" y="181.67" width="160.721" height="13.4377" rx="4" fill="#D3DAE6"/>
<ellipse cx="82.3085" cy="188.389" rx="5.6625" ry="6.71883" fill="#D3DAE6"/>
<rect x="67.5859" y="88.7262" width="195.828" height="13.4376" rx="4" fill="#D3DAE6"/>
<rect x="83.8656" y="115.602" width="163.269" height="13.4377" rx="4" fill="#D3DAE6"/>
<rect x="340.737" y="6.29858" width="301.529" height="235.701" rx="6" fill="white"/>
<rect x="426.59" y="52.8925" width="129.82" height="22.3961" rx="6" fill="#D3DAE6"/>
<rect x="445.728" y="144.156" width="91.5438" height="22.3961" rx="6" fill="#525761"/>
<rect x="471.681" y="153.115" width="39.6375" height="4.47922" rx="2.23961" fill="white"/>
<rect x="419.633" y="181.67" width="160.721" height="13.4377" rx="4" fill="#D3DAE6"/>
<ellipse cx="408.309" cy="188.389" rx="5.6625" ry="6.71883" fill="#D3DAE6"/>
<rect x="393.586" y="88.7262" width="195.828" height="13.4376" rx="4" fill="#D3DAE6"/>
<rect x="409.866" y="115.602" width="163.269" height="13.4377" rx="4" fill="#D3DAE6"/>
<rect x="14.7367" y="266.299" width="301.529" height="235.701" rx="6" fill="white"/>
<rect x="100.59" y="312.892" width="129.82" height="22.3961" rx="6" fill="#D3DAE6"/>
<rect x="119.728" y="404.156" width="91.5438" height="22.3961" rx="6" fill="#525761"/>
<rect x="145.681" y="413.115" width="39.6375" height="4.47922" rx="2.23961" fill="white"/>
<rect x="93.6335" y="441.67" width="160.721" height="13.4377" rx="4" fill="#D3DAE6"/>
<ellipse cx="82.3085" cy="448.389" rx="5.6625" ry="6.71883" fill="#D3DAE6"/>
<rect x="67.5859" y="348.726" width="195.828" height="13.4376" rx="4" fill="#D3DAE6"/>
<rect x="83.8656" y="375.602" width="163.269" height="13.4377" rx="4" fill="#D3DAE6"/>
<rect x="340.737" y="266.299" width="301.529" height="235.701" rx="6" fill="white"/>
<rect x="426.59" y="312.892" width="129.82" height="22.3961" rx="6" fill="#D3DAE6"/>
<rect x="445.728" y="404.156" width="91.5438" height="22.3961" rx="6" fill="#525761"/>
<rect x="471.681" y="413.115" width="39.6375" height="4.47922" rx="2.23961" fill="white"/>
<rect x="419.633" y="441.67" width="160.721" height="13.4377" rx="4" fill="#D3DAE6"/>
<ellipse cx="408.309" cy="448.389" rx="5.6625" ry="6.71883" fill="#D3DAE6"/>
<rect x="393.586" y="348.726" width="195.828" height="13.4376" rx="4" fill="#D3DAE6"/>
<rect x="409.866" y="375.602" width="163.269" height="13.4377" rx="4" fill="#D3DAE6"/>
</g>
<defs>
<filter id="filter0_dddd_2_8630" x="0.5" y="0.7" width="656" height="530.3" filterUnits="userSpaceOnUse" color-interpolation-filters="sRGB">
<feFlood flood-opacity="0" result="BackgroundImageFix"/>
<feColorMatrix in="SourceAlpha" type="matrix" values="0 0 0 0 0 0 0 0 0 0 0 0 0 0 0 0 0 0 127 0" result="hardAlpha"/>
<feMorphology radius="1" operator="erode" in="SourceAlpha" result="effect1_dropShadow_2_8630"/>
<feOffset dy="15"/>
<feGaussianBlur stdDeviation="7.5"/>
<feColorMatrix type="matrix" values="0 0 0 0 0 0 0 0 0 0 0 0 0 0 0 0 0 0 0.04 0"/>
<feBlend mode="normal" in2="BackgroundImageFix" result="effect1_dropShadow_2_8630"/>
<feColorMatrix in="SourceAlpha" type="matrix" values="0 0 0 0 0 0 0 0 0 0 0 0 0 0 0 0 0 0 127 0" result="hardAlpha"/>
<feMorphology radius="1" operator="erode" in="SourceAlpha" result="effect2_dropShadow_2_8630"/>
<feOffset dy="5.7"/>
<feGaussianBlur stdDeviation="6"/>
<feColorMatrix type="matrix" values="0 0 0 0 0 0 0 0 0 0 0 0 0 0 0 0 0 0 0.05 0"/>
<feBlend mode="normal" in2="effect1_dropShadow_2_8630" result="effect2_dropShadow_2_8630"/>
<feColorMatrix in="SourceAlpha" type="matrix" values="0 0 0 0 0 0 0 0 0 0 0 0 0 0 0 0 0 0 127 0" result="hardAlpha"/>
<feMorphology radius="1" operator="erode" in="SourceAlpha" result="effect3_dropShadow_2_8630"/>
<feOffset dy="2.6"/>
<feGaussianBlur stdDeviation="4"/>
<feColorMatrix type="matrix" values="0 0 0 0 0 0 0 0 0 0 0 0 0 0 0 0 0 0 0.06 0"/>
<feBlend mode="normal" in2="effect2_dropShadow_2_8630" result="effect3_dropShadow_2_8630"/>
<feColorMatrix in="SourceAlpha" type="matrix" values="0 0 0 0 0 0 0 0 0 0 0 0 0 0 0 0 0 0 127 0" result="hardAlpha"/>
<feMorphology radius="1" operator="erode" in="SourceAlpha" result="effect4_dropShadow_2_8630"/>
<feOffset dy="0.9"/>
<feGaussianBlur stdDeviation="2"/>
<feColorMatrix type="matrix" values="0 0 0 0 0 0 0 0 0 0 0 0 0 0 0 0 0 0 0.08 0"/>
<feBlend mode="normal" in2="effect3_dropShadow_2_8630" result="effect4_dropShadow_2_8630"/>
<feBlend mode="normal" in="SourceGraphic" in2="effect4_dropShadow_2_8630" result="shape"/>
</filter>
</defs>
</svg>
