<svg width="484" height="410" viewBox="0 0 484 410" fill="none" xmlns="http://www.w3.org/2000/svg">
<g filter="url(#filter0_dddd_25131_282793)">
<path d="M14 12C14 8.68628 16.6863 6 20 6H464C467.314 6 470 8.68629 470 12V375C470 378.314 467.314 381 464 381H20C16.6863 381 14 378.314 14 375V12Z" fill="white"/>
<g opacity="0.3">
<path d="M206.931 53.1049C206.931 62.6388 199.221 70.3676 189.71 70.3676C180.198 70.3676 172.488 62.6388 172.488 53.1049C172.488 43.571 180.198 35.8423 189.71 35.8423C199.221 35.8423 206.931 43.571 206.931 53.1049Z" fill="#D6BF57"/>
<path d="M172.488 123.949V106.54L206.931 80.4283L229.893 97.8364L287.298 54.3162L310.26 71.7242V123.949H172.488Z" fill="#54B399"/>
</g>
<rect x="144" y="144" width="195.377" height="28.4214" rx="6" fill="#D3DAE6"/>
<rect x="172.488" y="263.95" width="137.772" height="28.4214" rx="6" fill="#0077CC"/>
<rect x="211.547" y="275.319" width="59.6538" height="5.68428" rx="2.84214" fill="white"/>
<path d="M14 317H470V375C470 378.314 467.314 381 464 381H20C16.6863 381 14 378.314 14 375V317Z" fill="#FAFBFD"/>
<rect x="121" y="340" width="241.882" height="17.0528" rx="4" fill="#D3DAE6"/>
<rect x="94" y="189" width="294.718" height="17.0528" rx="4" fill="#D3DAE6"/>
<rect x="132.985" y="222.393" width="213" height="17" rx="4" fill="#D3DAE6"/>
</g>
<defs>
<filter id="filter0_dddd_25131_282793" x="0" y="0.7" width="484" height="409.3" filterUnits="userSpaceOnUse" color-interpolation-filters="sRGB">
<feFlood flood-opacity="0" result="BackgroundImageFix"/>
<feColorMatrix in="SourceAlpha" type="matrix" values="0 0 0 0 0 0 0 0 0 0 0 0 0 0 0 0 0 0 127 0" result="hardAlpha"/>
<feMorphology radius="1" operator="erode" in="SourceAlpha" result="effect1_dropShadow_25131_282793"/>
<feOffset dy="15"/>
<feGaussianBlur stdDeviation="7.5"/>
<feColorMatrix type="matrix" values="0 0 0 0 0 0 0 0 0 0 0 0 0 0 0 0 0 0 0.04 0"/>
<feBlend mode="normal" in2="BackgroundImageFix" result="effect1_dropShadow_25131_282793"/>
<feColorMatrix in="SourceAlpha" type="matrix" values="0 0 0 0 0 0 0 0 0 0 0 0 0 0 0 0 0 0 127 0" result="hardAlpha"/>
<feMorphology radius="1" operator="erode" in="SourceAlpha" result="effect2_dropShadow_25131_282793"/>
<feOffset dy="5.7"/>
<feGaussianBlur stdDeviation="6"/>
<feColorMatrix type="matrix" values="0 0 0 0 0 0 0 0 0 0 0 0 0 0 0 0 0 0 0.05 0"/>
<feBlend mode="normal" in2="effect1_dropShadow_25131_282793" result="effect2_dropShadow_25131_282793"/>
<feColorMatrix in="SourceAlpha" type="matrix" values="0 0 0 0 0 0 0 0 0 0 0 0 0 0 0 0 0 0 127 0" result="hardAlpha"/>
<feMorphology radius="1" operator="erode" in="SourceAlpha" result="effect3_dropShadow_25131_282793"/>
<feOffset dy="2.6"/>
<feGaussianBlur stdDeviation="4"/>
<feColorMatrix type="matrix" values="0 0 0 0 0 0 0 0 0 0 0 0 0 0 0 0 0 0 0.06 0"/>
<feBlend mode="normal" in2="effect2_dropShadow_25131_282793" result="effect3_dropShadow_25131_282793"/>
<feColorMatrix in="SourceAlpha" type="matrix" values="0 0 0 0 0 0 0 0 0 0 0 0 0 0 0 0 0 0 127 0" result="hardAlpha"/>
<feMorphology radius="1" operator="erode" in="SourceAlpha" result="effect4_dropShadow_25131_282793"/>
<feOffset dy="0.9"/>
<feGaussianBlur stdDeviation="2"/>
<feColorMatrix type="matrix" values="0 0 0 0 0 0 0 0 0 0 0 0 0 0 0 0 0 0 0.08 0"/>
<feBlend mode="normal" in2="effect3_dropShadow_25131_282793" result="effect4_dropShadow_25131_282793"/>
<feBlend mode="normal" in="SourceGraphic" in2="effect4_dropShadow_25131_282793" result="shape"/>
</filter>
</defs>
</svg>
