<svg width="1200" height="666" viewBox="0 0 1200 666" fill="none" xmlns="http://www.w3.org/2000/svg">
<rect width="1200" height="666" rx="4" fill="white"/>
<path d="M128 80H828C831.866 80 835 83.134 835 87V151C835 154.866 831.866 158 828 158H128C124.134 158 121 154.866 121 151V87C121 83.2549 123.941 80.1963 127.64 80.0088L128 80Z" fill="white" stroke="#CAD3E2" stroke-width="2"/>
<path fill-rule="evenodd" clip-rule="evenodd" d="M165.55 128.792C163.371 130.19 160.78 131 158 131C150.268 131 144 124.732 144 117C144 109.268 150.268 103 158 103C165.732 103 172 109.268 172 117C172 119.78 171.19 122.371 169.792 124.549L175.122 129.879C176.293 131.05 176.293 132.95 175.122 134.121C173.95 135.293 172.05 135.293 170.879 134.121L165.55 128.792ZM170 117C170 123.627 164.627 129 158 129C151.373 129 146 123.627 146 117C146 110.373 151.373 105 158 105C164.627 105 170 110.373 170 117ZM167.167 127.581L172.293 132.707C172.684 133.098 173.317 133.098 173.707 132.707C174.098 132.317 174.098 131.683 173.707 131.293L168.582 126.167C168.144 126.671 167.672 127.144 167.167 127.581Z" fill="#1D2A3E"/>
<path d="M203.545 113.545C203.409 112.394 202.856 111.5 201.886 110.864C200.917 110.227 199.727 109.909 198.318 109.909C197.288 109.909 196.386 110.076 195.614 110.409C194.848 110.742 194.25 111.201 193.818 111.784C193.394 112.367 193.182 113.03 193.182 113.773C193.182 114.394 193.33 114.928 193.625 115.375C193.928 115.814 194.314 116.182 194.784 116.477C195.254 116.765 195.746 117.004 196.261 117.193C196.777 117.375 197.25 117.523 197.682 117.636L200.045 118.273C200.652 118.432 201.326 118.652 202.068 118.932C202.818 119.212 203.534 119.595 204.216 120.08C204.905 120.557 205.473 121.17 205.92 121.92C206.367 122.67 206.591 123.591 206.591 124.682C206.591 125.939 206.261 127.076 205.602 128.091C204.951 129.106 203.996 129.913 202.739 130.511C201.489 131.11 199.97 131.409 198.182 131.409C196.515 131.409 195.072 131.14 193.852 130.602C192.64 130.064 191.686 129.314 190.989 128.352C190.299 127.39 189.909 126.273 189.818 125H192.727C192.803 125.879 193.098 126.606 193.614 127.182C194.136 127.75 194.795 128.174 195.591 128.455C196.394 128.727 197.258 128.864 198.182 128.864C199.258 128.864 200.223 128.689 201.08 128.341C201.936 127.985 202.614 127.492 203.114 126.864C203.614 126.227 203.864 125.485 203.864 124.636C203.864 123.864 203.648 123.235 203.216 122.75C202.784 122.265 202.216 121.871 201.511 121.568C200.807 121.265 200.045 121 199.227 120.773L196.364 119.955C194.545 119.432 193.106 118.686 192.045 117.716C190.985 116.746 190.455 115.477 190.455 113.909C190.455 112.606 190.807 111.47 191.511 110.5C192.223 109.523 193.178 108.765 194.375 108.227C195.58 107.682 196.924 107.409 198.409 107.409C199.909 107.409 201.242 107.678 202.409 108.216C203.576 108.746 204.5 109.473 205.182 110.398C205.871 111.322 206.235 112.371 206.273 113.545H203.545ZM218.179 131.364C216.497 131.364 215.046 130.992 213.827 130.25C212.615 129.5 211.679 128.455 211.02 127.114C210.368 125.765 210.043 124.197 210.043 122.409C210.043 120.621 210.368 119.045 211.02 117.682C211.679 116.311 212.596 115.242 213.77 114.477C214.952 113.705 216.33 113.318 217.906 113.318C218.815 113.318 219.713 113.47 220.599 113.773C221.486 114.076 222.293 114.568 223.02 115.25C223.747 115.924 224.327 116.818 224.759 117.932C225.19 119.045 225.406 120.417 225.406 122.045V123.182H211.952V120.864H222.679C222.679 119.879 222.482 119 222.088 118.227C221.702 117.455 221.149 116.845 220.429 116.398C219.717 115.951 218.876 115.727 217.906 115.727C216.838 115.727 215.914 115.992 215.134 116.523C214.361 117.045 213.766 117.727 213.349 118.568C212.933 119.409 212.724 120.311 212.724 121.273V122.818C212.724 124.136 212.952 125.254 213.406 126.17C213.868 127.08 214.509 127.773 215.327 128.25C216.145 128.72 217.096 128.955 218.179 128.955C218.884 128.955 219.52 128.856 220.088 128.659C220.664 128.455 221.16 128.152 221.577 127.75C221.993 127.341 222.315 126.833 222.543 126.227L225.134 126.955C224.861 127.833 224.402 128.606 223.759 129.273C223.115 129.932 222.319 130.447 221.372 130.818C220.425 131.182 219.361 131.364 218.179 131.364ZM234.622 131.409C233.516 131.409 232.512 131.201 231.611 130.784C230.709 130.36 229.993 129.75 229.463 128.955C228.933 128.152 228.668 127.182 228.668 126.045C228.668 125.045 228.865 124.235 229.259 123.614C229.652 122.985 230.179 122.492 230.838 122.136C231.497 121.78 232.224 121.515 233.02 121.341C233.823 121.159 234.63 121.015 235.44 120.909C236.501 120.773 237.361 120.67 238.02 120.602C238.687 120.527 239.171 120.402 239.474 120.227C239.785 120.053 239.94 119.75 239.94 119.318V119.227C239.94 118.106 239.634 117.235 239.02 116.614C238.414 115.992 237.493 115.682 236.259 115.682C234.978 115.682 233.974 115.962 233.247 116.523C232.52 117.083 232.009 117.682 231.713 118.318L229.168 117.409C229.622 116.348 230.228 115.523 230.986 114.932C231.751 114.333 232.584 113.917 233.486 113.682C234.395 113.439 235.289 113.318 236.168 113.318C236.728 113.318 237.372 113.386 238.099 113.523C238.834 113.652 239.543 113.92 240.224 114.33C240.914 114.739 241.486 115.356 241.94 116.182C242.395 117.008 242.622 118.114 242.622 119.5V131H239.94V128.636H239.804C239.622 129.015 239.319 129.42 238.895 129.852C238.471 130.284 237.906 130.652 237.202 130.955C236.497 131.258 235.637 131.409 234.622 131.409ZM235.031 129C236.092 129 236.986 128.792 237.713 128.375C238.448 127.958 239.001 127.42 239.372 126.761C239.751 126.102 239.94 125.409 239.94 124.682V122.227C239.827 122.364 239.577 122.489 239.19 122.602C238.812 122.708 238.372 122.803 237.872 122.886C237.38 122.962 236.899 123.03 236.429 123.091C235.967 123.144 235.592 123.189 235.304 123.227C234.607 123.318 233.955 123.466 233.349 123.67C232.751 123.867 232.266 124.167 231.895 124.568C231.531 124.962 231.349 125.5 231.349 126.182C231.349 127.114 231.694 127.818 232.384 128.295C233.08 128.765 233.963 129 235.031 129ZM247.517 131V113.545H250.108V116.182H250.29C250.608 115.318 251.184 114.617 252.017 114.08C252.85 113.542 253.79 113.273 254.835 113.273C255.032 113.273 255.278 113.277 255.574 113.284C255.869 113.292 256.093 113.303 256.244 113.318V116.045C256.153 116.023 255.945 115.989 255.619 115.943C255.301 115.89 254.964 115.864 254.608 115.864C253.759 115.864 253.002 116.042 252.335 116.398C251.676 116.746 251.153 117.231 250.767 117.852C250.388 118.466 250.199 119.167 250.199 119.955V131H247.517ZM265.983 131.364C264.347 131.364 262.938 130.977 261.756 130.205C260.574 129.432 259.665 128.367 259.028 127.011C258.392 125.655 258.074 124.106 258.074 122.364C258.074 120.591 258.4 119.027 259.051 117.67C259.71 116.307 260.627 115.242 261.801 114.477C262.983 113.705 264.362 113.318 265.938 113.318C267.165 113.318 268.271 113.545 269.256 114C270.241 114.455 271.047 115.091 271.676 115.909C272.305 116.727 272.695 117.682 272.847 118.773H270.165C269.96 117.977 269.506 117.273 268.801 116.659C268.104 116.038 267.165 115.727 265.983 115.727C264.938 115.727 264.021 116 263.233 116.545C262.453 117.083 261.843 117.845 261.403 118.83C260.972 119.807 260.756 120.955 260.756 122.273C260.756 123.621 260.968 124.795 261.392 125.795C261.824 126.795 262.43 127.572 263.21 128.125C263.998 128.678 264.922 128.955 265.983 128.955C266.68 128.955 267.312 128.833 267.881 128.591C268.449 128.348 268.93 128 269.324 127.545C269.718 127.091 269.998 126.545 270.165 125.909H272.847C272.695 126.939 272.32 127.867 271.722 128.693C271.131 129.511 270.347 130.163 269.369 130.648C268.4 131.125 267.271 131.364 265.983 131.364ZM279.449 120.5V131H276.767V107.727H279.449V116.273H279.676C280.085 115.371 280.699 114.655 281.517 114.125C282.343 113.587 283.441 113.318 284.812 113.318C286.002 113.318 287.044 113.557 287.938 114.034C288.831 114.504 289.525 115.227 290.017 116.205C290.517 117.174 290.767 118.409 290.767 119.909V131H288.085V120.091C288.085 118.705 287.725 117.633 287.006 116.875C286.294 116.11 285.305 115.727 284.04 115.727C283.161 115.727 282.373 115.913 281.676 116.284C280.987 116.655 280.441 117.197 280.04 117.909C279.646 118.621 279.449 119.485 279.449 120.5Z" fill="#798EAF"/>
<rect x="857" y="80" width="222" height="78" rx="7" fill="white"/>
<rect x="857" y="80" width="222" height="78" rx="7" stroke="#CAD3E2" stroke-width="2"/>
<path d="M907.557 131V107.727H921.989V110.75H911.068V117.841H920.955V120.852H911.068V131H907.557ZM926.034 131V113.545H929.432V131H926.034ZM927.75 110.852C927.159 110.852 926.652 110.655 926.227 110.261C925.811 109.86 925.602 109.383 925.602 108.83C925.602 108.269 925.811 107.792 926.227 107.398C926.652 106.996 927.159 106.795 927.75 106.795C928.341 106.795 928.845 106.996 929.261 107.398C929.686 107.792 929.898 108.269 929.898 108.83C929.898 109.383 929.686 109.86 929.261 110.261C928.845 110.655 928.341 110.852 927.75 110.852ZM937.401 107.727V131H934.003V107.727H937.401ZM950.119 113.545V116.273H940.585V113.545H950.119ZM943.142 109.364H946.54V125.875C946.54 126.534 946.638 127.03 946.835 127.364C947.032 127.689 947.286 127.913 947.597 128.034C947.915 128.148 948.259 128.205 948.631 128.205C948.903 128.205 949.142 128.186 949.347 128.148C949.551 128.11 949.71 128.08 949.824 128.057L950.438 130.864C950.241 130.939 949.96 131.015 949.597 131.091C949.233 131.174 948.778 131.22 948.233 131.227C947.339 131.242 946.506 131.083 945.733 130.75C944.96 130.417 944.335 129.902 943.858 129.205C943.381 128.508 943.142 127.633 943.142 126.58V109.364ZM961.213 131.352C959.493 131.352 958.012 130.985 956.77 130.25C955.535 129.508 954.58 128.466 953.906 127.125C953.24 125.777 952.906 124.197 952.906 122.386C952.906 120.598 953.24 119.023 953.906 117.659C954.58 116.295 955.52 115.231 956.724 114.466C957.937 113.701 959.353 113.318 960.974 113.318C961.959 113.318 962.914 113.481 963.838 113.807C964.762 114.133 965.592 114.644 966.327 115.341C967.062 116.038 967.641 116.943 968.065 118.057C968.49 119.163 968.702 120.508 968.702 122.091V123.295H954.827V120.75H965.372C965.372 119.856 965.19 119.064 964.827 118.375C964.463 117.678 963.952 117.129 963.293 116.727C962.641 116.326 961.876 116.125 960.997 116.125C960.043 116.125 959.209 116.36 958.497 116.83C957.793 117.292 957.247 117.898 956.861 118.648C956.482 119.39 956.293 120.197 956.293 121.068V123.057C956.293 124.223 956.497 125.216 956.906 126.034C957.323 126.852 957.902 127.477 958.645 127.909C959.387 128.333 960.255 128.545 961.247 128.545C961.891 128.545 962.478 128.455 963.009 128.273C963.539 128.083 963.997 127.803 964.384 127.432C964.77 127.061 965.065 126.602 965.27 126.057L968.486 126.636C968.228 127.583 967.766 128.413 967.099 129.125C966.44 129.83 965.611 130.379 964.611 130.773C963.618 131.159 962.486 131.352 961.213 131.352ZM972.472 131V113.545H975.756V116.318H975.938C976.256 115.379 976.816 114.64 977.619 114.102C978.43 113.557 979.347 113.284 980.369 113.284C980.581 113.284 980.831 113.292 981.119 113.307C981.415 113.322 981.646 113.341 981.812 113.364V116.614C981.676 116.576 981.434 116.534 981.085 116.489C980.737 116.436 980.388 116.409 980.04 116.409C979.237 116.409 978.521 116.58 977.892 116.92C977.271 117.254 976.778 117.72 976.415 118.318C976.051 118.909 975.869 119.583 975.869 120.341V131H972.472Z" fill="#1D2A3E"/>
<path fill-rule="evenodd" clip-rule="evenodd" d="M1015 123.586L1026.29 112.293L1027.71 113.707L1015 126.414L1002.29 113.707L1003.71 112.293L1015 123.586Z" fill="#343741"/>
<g filter="url(#filter0_ddd_1606_1242)">
<path d="M532 203.667C532 201.089 534.089 199 536.667 199H1075.33C1077.91 199 1080 201.089 1080 203.667V582.333C1080 584.911 1077.91 587 1075.33 587H536.667C534.089 587 532 584.911 532 582.333V203.667Z" fill="white" shape-rendering="crispEdges"/>
<rect x="582" y="317" width="448" height="30" rx="6" fill="#ECF1F9"/>
<rect x="582" y="357" width="448" height="30" rx="6" fill="#ECF1F9"/>
<rect x="582" y="397" width="448" height="30" rx="6" fill="#ECF1F9"/>
<rect x="582" y="437" width="169" height="30" rx="6" fill="#ECF1F9"/>
<rect x="862" y="487" width="168" height="60" rx="6" fill="#0B64DD"/>
<path d="M916.392 526H913.597L919.878 508.545H922.92L929.202 526H926.406L921.472 511.716H921.335L916.392 526ZM916.861 519.165H925.929V521.381H916.861V519.165ZM931.518 530.909V512.909H934.006V515.031H934.219C934.367 514.759 934.58 514.443 934.859 514.085C935.137 513.727 935.523 513.415 936.018 513.148C936.512 512.875 937.165 512.739 937.978 512.739C939.035 512.739 939.978 513.006 940.808 513.54C941.637 514.074 942.288 514.844 942.759 515.849C943.237 516.855 943.475 518.065 943.475 519.48C943.475 520.895 943.239 522.108 942.768 523.119C942.296 524.125 941.648 524.901 940.825 525.446C940.001 525.986 939.06 526.256 938.004 526.256C937.208 526.256 936.558 526.122 936.052 525.855C935.552 525.588 935.16 525.276 934.876 524.918C934.592 524.56 934.373 524.241 934.219 523.963H934.066V530.909H931.518ZM934.015 519.455C934.015 520.375 934.148 521.182 934.415 521.875C934.683 522.568 935.069 523.111 935.575 523.503C936.08 523.889 936.7 524.082 937.433 524.082C938.194 524.082 938.83 523.881 939.342 523.477C939.853 523.068 940.239 522.514 940.501 521.815C940.768 521.116 940.901 520.33 940.901 519.455C940.901 518.591 940.771 517.815 940.509 517.128C940.254 516.44 939.867 515.898 939.35 515.5C938.839 515.102 938.2 514.903 937.433 514.903C936.694 514.903 936.069 515.094 935.558 515.474C935.052 515.855 934.668 516.386 934.407 517.068C934.146 517.75 934.015 518.545 934.015 519.455ZM946.33 530.909V512.909H948.819V515.031H949.032C949.18 514.759 949.393 514.443 949.671 514.085C949.95 513.727 950.336 513.415 950.83 513.148C951.325 512.875 951.978 512.739 952.79 512.739C953.847 512.739 954.79 513.006 955.62 513.54C956.45 514.074 957.1 514.844 957.572 515.849C958.049 516.855 958.288 518.065 958.288 519.48C958.288 520.895 958.052 522.108 957.58 523.119C957.109 524.125 956.461 524.901 955.637 525.446C954.813 525.986 953.873 526.256 952.816 526.256C952.021 526.256 951.37 526.122 950.864 525.855C950.364 525.588 949.972 525.276 949.688 524.918C949.404 524.56 949.185 524.241 949.032 523.963H948.879V530.909H946.33ZM948.827 519.455C948.827 520.375 948.961 521.182 949.228 521.875C949.495 522.568 949.881 523.111 950.387 523.503C950.893 523.889 951.512 524.082 952.245 524.082C953.006 524.082 953.643 523.881 954.154 523.477C954.665 523.068 955.052 522.514 955.313 521.815C955.58 521.116 955.714 520.33 955.714 519.455C955.714 518.591 955.583 517.815 955.322 517.128C955.066 516.44 954.68 515.898 954.163 515.5C953.651 515.102 953.012 514.903 952.245 514.903C951.506 514.903 950.881 515.094 950.37 515.474C949.864 515.855 949.481 516.386 949.219 517.068C948.958 517.75 948.827 518.545 948.827 519.455ZM963.691 508.545V526H961.143V508.545H963.691ZM968.73 530.909C968.349 530.909 968.003 530.878 967.69 530.815C967.378 530.759 967.145 530.696 966.991 530.628L967.605 528.54C968.071 528.665 968.486 528.719 968.849 528.702C969.213 528.685 969.534 528.548 969.812 528.293C970.097 528.037 970.347 527.619 970.562 527.04L970.878 526.17L966.088 512.909H968.815L972.131 523.068H972.267L975.582 512.909H978.318L972.923 527.747C972.673 528.429 972.355 529.006 971.969 529.477C971.582 529.955 971.122 530.313 970.588 530.551C970.054 530.79 969.435 530.909 968.73 530.909Z" fill="white"/>
<path d="M584.212 276V250.545H601.066V254.983H589.594V261.048H599.947V265.485H589.594V276H584.212ZM604.587 276V256.909H609.881V276H604.587ZM607.246 254.448C606.459 254.448 605.784 254.187 605.22 253.665C604.665 253.135 604.388 252.501 604.388 251.763C604.388 251.034 604.665 250.409 605.22 249.887C605.784 249.356 606.459 249.091 607.246 249.091C608.034 249.091 608.705 249.356 609.26 249.887C609.823 250.409 610.105 251.034 610.105 251.763C610.105 252.501 609.823 253.135 609.26 253.665C608.705 254.187 608.034 254.448 607.246 254.448ZM619.417 250.545V276H614.123V250.545H619.417ZM633.813 256.909V260.886H622.316V256.909H633.813ZM624.927 252.335H630.221V270.134C630.221 270.622 630.296 271.004 630.445 271.277C630.594 271.542 630.801 271.729 631.066 271.836C631.34 271.944 631.655 271.998 632.011 271.998C632.26 271.998 632.508 271.977 632.757 271.936C633.005 271.886 633.196 271.849 633.329 271.824L634.161 275.764C633.896 275.847 633.523 275.942 633.043 276.05C632.562 276.166 631.978 276.236 631.29 276.261C630.014 276.311 628.896 276.141 627.934 275.751C626.982 275.362 626.24 274.757 625.71 273.937C625.179 273.116 624.918 272.081 624.927 270.83V252.335ZM645.758 276.373C643.794 276.373 642.103 275.975 640.687 275.18C639.278 274.376 638.192 273.241 637.43 271.774C636.668 270.299 636.287 268.555 636.287 266.542C636.287 264.578 636.668 262.854 637.43 261.371C638.192 259.888 639.265 258.732 640.649 257.903C642.041 257.075 643.674 256.661 645.546 256.661C646.806 256.661 647.978 256.864 649.064 257.27C650.157 257.667 651.11 258.268 651.922 259.072C652.743 259.875 653.381 260.886 653.836 262.104C654.292 263.314 654.52 264.731 654.52 266.355V267.809H638.4V264.528H649.536C649.536 263.766 649.37 263.09 649.039 262.502C648.707 261.914 648.247 261.454 647.659 261.123C647.079 260.783 646.404 260.613 645.633 260.613C644.83 260.613 644.117 260.799 643.495 261.172C642.882 261.537 642.402 262.03 642.054 262.651C641.706 263.264 641.528 263.948 641.519 264.702V267.822C641.519 268.766 641.693 269.583 642.041 270.27C642.398 270.958 642.899 271.488 643.545 271.861C644.191 272.234 644.958 272.42 645.845 272.42C646.433 272.42 646.971 272.338 647.46 272.172C647.949 272.006 648.368 271.758 648.716 271.426C649.064 271.095 649.329 270.689 649.511 270.208L654.408 270.531C654.16 271.708 653.65 272.735 652.879 273.614C652.117 274.484 651.131 275.163 649.921 275.652C648.72 276.133 647.332 276.373 645.758 276.373ZM657.975 276V256.909H663.108V260.24H663.307C663.655 259.055 664.239 258.16 665.06 257.555C665.88 256.942 666.825 256.636 667.894 256.636C668.159 256.636 668.445 256.652 668.751 256.685C669.058 256.719 669.327 256.764 669.559 256.822V261.52C669.31 261.446 668.967 261.379 668.527 261.321C668.088 261.263 667.686 261.234 667.322 261.234C666.543 261.234 665.847 261.404 665.234 261.744C664.629 262.075 664.148 262.539 663.792 263.136C663.444 263.733 663.27 264.42 663.27 265.199V276H657.975Z" fill="#1D2A3E"/>
<path d="M966 168L995 199H937L966 168Z" fill="white"/>
</g>
<defs>
<filter id="filter0_ddd_1606_1242" x="472" y="108" width="668" height="539" filterUnits="userSpaceOnUse" color-interpolation-filters="sRGB">
<feFlood flood-opacity="0" result="BackgroundImageFix"/>
<feColorMatrix in="SourceAlpha" type="matrix" values="0 0 0 0 0 0 0 0 0 0 0 0 0 0 0 0 0 0 127 0" result="hardAlpha"/>
<feOffset/>
<feGaussianBlur stdDeviation="30"/>
<feComposite in2="hardAlpha" operator="out"/>
<feColorMatrix type="matrix" values="0 0 0 0 0.168627 0 0 0 0 0.223529 0 0 0 0 0.309804 0 0 0 0.12 0"/>
<feBlend mode="normal" in2="BackgroundImageFix" result="effect1_dropShadow_1606_1242"/>
<feColorMatrix in="SourceAlpha" type="matrix" values="0 0 0 0 0 0 0 0 0 0 0 0 0 0 0 0 0 0 127 0" result="hardAlpha"/>
<feOffset/>
<feGaussianBlur stdDeviation="10"/>
<feComposite in2="hardAlpha" operator="out"/>
<feColorMatrix type="matrix" values="0 0 0 0 0.168627 0 0 0 0 0.223529 0 0 0 0 0.309804 0 0 0 0.12 0"/>
<feBlend mode="normal" in2="effect1_dropShadow_1606_1242" result="effect2_dropShadow_1606_1242"/>
<feColorMatrix in="SourceAlpha" type="matrix" values="0 0 0 0 0 0 0 0 0 0 0 0 0 0 0 0 0 0 127 0" result="hardAlpha"/>
<feOffset/>
<feGaussianBlur stdDeviation="1"/>
<feComposite in2="hardAlpha" operator="out"/>
<feColorMatrix type="matrix" values="0 0 0 0 0.168627 0 0 0 0 0.223529 0 0 0 0 0.309804 0 0 0 0.12 0"/>
<feBlend mode="normal" in2="effect2_dropShadow_1606_1242" result="effect3_dropShadow_1606_1242"/>
<feBlend mode="normal" in="SourceGraphic" in2="effect3_dropShadow_1606_1242" result="shape"/>
</filter>
</defs>
</svg>
