<svg width="1200" height="742" viewBox="0 0 1200 742" fill="none" xmlns="http://www.w3.org/2000/svg">
<rect width="1200" height="742" rx="4" fill="white"/>
<rect x="856" y="82" width="224" height="80" rx="8" fill="#0B64DD"/>
<path d="M938.386 118.295H934.841C934.705 117.538 934.451 116.871 934.08 116.295C933.708 115.72 933.254 115.231 932.716 114.83C932.178 114.428 931.576 114.125 930.909 113.92C930.25 113.716 929.549 113.614 928.807 113.614C927.466 113.614 926.265 113.951 925.205 114.625C924.152 115.299 923.318 116.288 922.705 117.591C922.098 118.894 921.795 120.485 921.795 122.364C921.795 124.258 922.098 125.856 922.705 127.159C923.318 128.462 924.155 129.447 925.216 130.114C926.277 130.78 927.47 131.114 928.795 131.114C929.53 131.114 930.227 131.015 930.886 130.818C931.553 130.614 932.155 130.314 932.693 129.92C933.231 129.527 933.686 129.045 934.057 128.477C934.436 127.902 934.697 127.242 934.841 126.5L938.386 126.511C938.197 127.655 937.83 128.708 937.284 129.67C936.746 130.625 936.053 131.451 935.205 132.148C934.364 132.837 933.402 133.371 932.318 133.75C931.235 134.129 930.053 134.318 928.773 134.318C926.758 134.318 924.962 133.841 923.386 132.886C921.811 131.924 920.568 130.549 919.659 128.761C918.758 126.973 918.307 124.841 918.307 122.364C918.307 119.879 918.761 117.746 919.67 115.966C920.58 114.178 921.822 112.807 923.398 111.852C924.973 110.89 926.765 110.409 928.773 110.409C930.008 110.409 931.159 110.587 932.227 110.943C933.303 111.292 934.269 111.807 935.125 112.489C935.981 113.163 936.689 113.989 937.25 114.966C937.811 115.936 938.189 117.045 938.386 118.295ZM942.315 134V116.545H945.599V119.318H945.781C946.099 118.379 946.66 117.64 947.463 117.102C948.274 116.557 949.19 116.284 950.213 116.284C950.425 116.284 950.675 116.292 950.963 116.307C951.259 116.322 951.49 116.341 951.656 116.364V119.614C951.52 119.576 951.277 119.534 950.929 119.489C950.58 119.436 950.232 119.409 949.884 119.409C949.08 119.409 948.365 119.58 947.736 119.92C947.115 120.254 946.622 120.72 946.259 121.318C945.895 121.909 945.713 122.583 945.713 123.341V134H942.315ZM961.494 134.352C959.775 134.352 958.294 133.985 957.051 133.25C955.816 132.508 954.862 131.466 954.188 130.125C953.521 128.777 953.188 127.197 953.188 125.386C953.188 123.598 953.521 122.023 954.188 120.659C954.862 119.295 955.801 118.231 957.006 117.466C958.218 116.701 959.634 116.318 961.256 116.318C962.241 116.318 963.195 116.481 964.119 116.807C965.044 117.133 965.873 117.644 966.608 118.341C967.343 119.038 967.922 119.943 968.347 121.057C968.771 122.163 968.983 123.508 968.983 125.091V126.295H955.108V123.75H965.653C965.653 122.856 965.472 122.064 965.108 121.375C964.744 120.678 964.233 120.129 963.574 119.727C962.922 119.326 962.157 119.125 961.278 119.125C960.324 119.125 959.491 119.36 958.778 119.83C958.074 120.292 957.528 120.898 957.142 121.648C956.763 122.39 956.574 123.197 956.574 124.068V126.057C956.574 127.223 956.778 128.216 957.188 129.034C957.604 129.852 958.184 130.477 958.926 130.909C959.669 131.333 960.536 131.545 961.528 131.545C962.172 131.545 962.759 131.455 963.29 131.273C963.82 131.083 964.278 130.803 964.665 130.432C965.051 130.061 965.347 129.602 965.551 129.057L968.767 129.636C968.509 130.583 968.047 131.413 967.381 132.125C966.722 132.83 965.892 133.379 964.892 133.773C963.9 134.159 962.767 134.352 961.494 134.352ZM977.832 134.386C976.726 134.386 975.726 134.182 974.832 133.773C973.938 133.356 973.23 132.754 972.707 131.966C972.192 131.178 971.935 130.212 971.935 129.068C971.935 128.083 972.124 127.273 972.503 126.636C972.882 126 973.393 125.496 974.037 125.125C974.681 124.754 975.401 124.473 976.196 124.284C976.991 124.095 977.802 123.951 978.628 123.852C979.673 123.731 980.522 123.633 981.173 123.557C981.825 123.473 982.298 123.341 982.594 123.159C982.889 122.977 983.037 122.682 983.037 122.273V122.193C983.037 121.201 982.757 120.432 982.196 119.886C981.643 119.341 980.817 119.068 979.719 119.068C978.575 119.068 977.673 119.322 977.014 119.83C976.363 120.33 975.912 120.886 975.662 121.5L972.469 120.773C972.848 119.712 973.401 118.856 974.128 118.205C974.863 117.545 975.707 117.068 976.662 116.773C977.616 116.47 978.62 116.318 979.673 116.318C980.37 116.318 981.109 116.402 981.889 116.568C982.677 116.727 983.412 117.023 984.094 117.455C984.783 117.886 985.348 118.504 985.787 119.307C986.226 120.102 986.446 121.136 986.446 122.409V134H983.128V131.614H982.991C982.772 132.053 982.442 132.485 982.003 132.909C981.563 133.333 980.999 133.686 980.31 133.966C979.62 134.246 978.795 134.386 977.832 134.386ZM978.571 131.659C979.51 131.659 980.313 131.473 980.98 131.102C981.654 130.731 982.166 130.246 982.514 129.648C982.87 129.042 983.048 128.394 983.048 127.705V125.455C982.927 125.576 982.692 125.689 982.344 125.795C982.003 125.894 981.613 125.981 981.173 126.057C980.734 126.125 980.306 126.189 979.889 126.25C979.473 126.303 979.124 126.348 978.844 126.386C978.185 126.47 977.582 126.61 977.037 126.807C976.499 127.004 976.067 127.288 975.741 127.659C975.423 128.023 975.264 128.508 975.264 129.114C975.264 129.955 975.575 130.591 976.196 131.023C976.817 131.447 977.609 131.659 978.571 131.659ZM999.119 116.545V119.273H989.585V116.545H999.119ZM992.142 112.364H995.54V128.875C995.54 129.534 995.638 130.03 995.835 130.364C996.032 130.689 996.286 130.913 996.597 131.034C996.915 131.148 997.259 131.205 997.631 131.205C997.903 131.205 998.142 131.186 998.347 131.148C998.551 131.11 998.71 131.08 998.824 131.057L999.438 133.864C999.241 133.939 998.96 134.015 998.597 134.091C998.233 134.174 997.778 134.22 997.233 134.227C996.339 134.242 995.506 134.083 994.733 133.75C993.96 133.417 993.335 132.902 992.858 132.205C992.381 131.508 992.142 130.633 992.142 129.58V112.364ZM1010.21 134.352C1008.49 134.352 1007.01 133.985 1005.77 133.25C1004.54 132.508 1003.58 131.466 1002.91 130.125C1002.24 128.777 1001.91 127.197 1001.91 125.386C1001.91 123.598 1002.24 122.023 1002.91 120.659C1003.58 119.295 1004.52 118.231 1005.72 117.466C1006.94 116.701 1008.35 116.318 1009.97 116.318C1010.96 116.318 1011.91 116.481 1012.84 116.807C1013.76 117.133 1014.59 117.644 1015.33 118.341C1016.06 119.038 1016.64 119.943 1017.07 121.057C1017.49 122.163 1017.7 123.508 1017.7 125.091V126.295H1003.83V123.75H1014.37C1014.37 122.856 1014.19 122.064 1013.83 121.375C1013.46 120.678 1012.95 120.129 1012.29 119.727C1011.64 119.326 1010.88 119.125 1010 119.125C1009.04 119.125 1008.21 119.36 1007.5 119.83C1006.79 120.292 1006.25 120.898 1005.86 121.648C1005.48 122.39 1005.29 123.197 1005.29 124.068V126.057C1005.29 127.223 1005.5 128.216 1005.91 129.034C1006.32 129.852 1006.9 130.477 1007.64 130.909C1008.39 131.333 1009.25 131.545 1010.25 131.545C1010.89 131.545 1011.48 131.455 1012.01 131.273C1012.54 131.083 1013 130.803 1013.38 130.432C1013.77 130.061 1014.07 129.602 1014.27 129.057L1017.49 129.636C1017.23 130.583 1016.77 131.413 1016.1 132.125C1015.44 132.83 1014.61 133.379 1013.61 133.773C1012.62 134.159 1011.49 134.352 1010.21 134.352Z" fill="white"/>
<rect x="120" y="222" width="960" height="40" rx="8" fill="#ECF1F9"/>
<rect x="120" y="272" width="960" height="40" rx="8" fill="#ECF1F9"/>
<rect x="120" y="322" width="960" height="40" rx="8" fill="#ECF1F9"/>
<rect x="120" y="372" width="960" height="40" rx="8" fill="#ECF1F9"/>
<rect x="120" y="422" width="960" height="40" rx="8" fill="#ECF1F9"/>
<rect x="120" y="472" width="960" height="40" rx="8" fill="#ECF1F9"/>
<rect x="120" y="522" width="960" height="40" rx="8" fill="#ECF1F9"/>
<rect x="120" y="572" width="960" height="40" rx="8" fill="#ECF1F9"/>
<rect x="120" y="622" width="470" height="40" rx="8" fill="#ECF1F9"/>
<rect x="120" y="82" width="676" height="40" rx="8" fill="#CAD3E2"/>
<rect x="120" y="132" width="470" height="40" rx="8" fill="#CAD3E2"/>
</svg>
