<svg width="1200" height="742" viewBox="0 0 1200 742" fill="none" xmlns="http://www.w3.org/2000/svg">
<rect width="1200" height="742" rx="4" fill="#B4C1D5"/>
<g filter="url(#filter0_d_1603_42)">
<path d="M250 145.667C250 143.089 252.089 141 254.667 141H945.333C947.911 141 950 143.089 950 145.667V596.333C950 598.911 947.911 601 945.333 601H254.667C252.089 601 250 598.911 250 596.333V145.667Z" fill="white" shape-rendering="crispEdges"/>
<path d="M563.438 507.131C563.347 506.324 562.972 505.699 562.312 505.256C561.653 504.807 560.824 504.582 559.824 504.582C559.108 504.582 558.489 504.696 557.966 504.923C557.443 505.145 557.037 505.452 556.747 505.844C556.463 506.23 556.321 506.67 556.321 507.165C556.321 507.58 556.418 507.937 556.611 508.239C556.81 508.54 557.068 508.793 557.386 508.997C557.71 509.196 558.057 509.364 558.426 509.5C558.795 509.631 559.151 509.739 559.491 509.824L561.196 510.267C561.753 510.403 562.324 510.588 562.909 510.821C563.494 511.054 564.037 511.361 564.537 511.741C565.037 512.122 565.44 512.594 565.747 513.156C566.06 513.719 566.216 514.392 566.216 515.176C566.216 516.165 565.96 517.043 565.449 517.81C564.943 518.577 564.207 519.182 563.241 519.625C562.281 520.068 561.119 520.29 559.756 520.29C558.449 520.29 557.318 520.082 556.364 519.668C555.409 519.253 554.662 518.665 554.122 517.903C553.582 517.136 553.284 516.227 553.227 515.176H555.869C555.92 515.807 556.125 516.332 556.483 516.753C556.847 517.168 557.31 517.477 557.872 517.682C558.44 517.881 559.062 517.98 559.739 517.98C560.483 517.98 561.145 517.864 561.724 517.631C562.31 517.392 562.77 517.062 563.105 516.642C563.44 516.216 563.608 515.719 563.608 515.151C563.608 514.634 563.46 514.21 563.165 513.881C562.875 513.551 562.48 513.278 561.98 513.062C561.486 512.847 560.926 512.656 560.301 512.491L558.239 511.929C556.841 511.548 555.733 510.989 554.915 510.25C554.102 509.511 553.696 508.534 553.696 507.318C553.696 506.312 553.969 505.435 554.514 504.685C555.06 503.935 555.798 503.352 556.73 502.938C557.662 502.517 558.713 502.307 559.884 502.307C561.065 502.307 562.108 502.514 563.011 502.929C563.92 503.344 564.636 503.915 565.159 504.642C565.682 505.364 565.955 506.193 565.977 507.131H563.438ZM577.451 514.571V506.909H580.008V520H577.502V517.733H577.366C577.065 518.432 576.582 519.014 575.917 519.48C575.258 519.94 574.437 520.17 573.454 520.17C572.613 520.17 571.869 519.986 571.221 519.616C570.579 519.241 570.073 518.688 569.704 517.955C569.34 517.222 569.158 516.315 569.158 515.236V506.909H571.707V514.929C571.707 515.821 571.954 516.531 572.448 517.06C572.942 517.588 573.585 517.852 574.374 517.852C574.852 517.852 575.326 517.733 575.798 517.494C576.275 517.256 576.67 516.895 576.982 516.412C577.3 515.929 577.457 515.315 577.451 514.571ZM583.636 520V502.545H586.185V509.031H586.338C586.486 508.759 586.699 508.443 586.977 508.085C587.256 507.727 587.642 507.415 588.136 507.148C588.631 506.875 589.284 506.739 590.097 506.739C591.153 506.739 592.097 507.006 592.926 507.54C593.756 508.074 594.406 508.844 594.878 509.849C595.355 510.855 595.594 512.065 595.594 513.48C595.594 514.895 595.358 516.108 594.886 517.119C594.415 518.125 593.767 518.901 592.943 519.446C592.119 519.986 591.179 520.256 590.122 520.256C589.327 520.256 588.676 520.122 588.17 519.855C587.67 519.588 587.278 519.276 586.994 518.918C586.71 518.56 586.491 518.241 586.338 517.963H586.125V520H583.636ZM586.134 513.455C586.134 514.375 586.267 515.182 586.534 515.875C586.801 516.568 587.188 517.111 587.693 517.503C588.199 517.889 588.818 518.082 589.551 518.082C590.312 518.082 590.949 517.881 591.46 517.477C591.972 517.068 592.358 516.514 592.619 515.815C592.886 515.116 593.02 514.33 593.02 513.455C593.02 512.591 592.889 511.815 592.628 511.128C592.372 510.44 591.986 509.898 591.469 509.5C590.957 509.102 590.318 508.903 589.551 508.903C588.812 508.903 588.188 509.094 587.676 509.474C587.17 509.855 586.787 510.386 586.526 511.068C586.264 511.75 586.134 512.545 586.134 513.455ZM606.168 511.52V513.727H598.43V511.52H606.168ZM613.374 520.29C612.545 520.29 611.795 520.136 611.124 519.83C610.454 519.517 609.923 519.065 609.531 518.474C609.144 517.884 608.951 517.159 608.951 516.301C608.951 515.562 609.093 514.955 609.377 514.477C609.661 514 610.045 513.622 610.528 513.344C611.011 513.065 611.55 512.855 612.147 512.713C612.744 512.571 613.352 512.463 613.971 512.389C614.755 512.298 615.391 512.224 615.88 512.168C616.369 512.105 616.724 512.006 616.945 511.869C617.167 511.733 617.278 511.511 617.278 511.205V511.145C617.278 510.401 617.067 509.824 616.647 509.415C616.232 509.006 615.613 508.801 614.789 508.801C613.931 508.801 613.255 508.991 612.761 509.372C612.272 509.747 611.934 510.165 611.746 510.625L609.352 510.08C609.636 509.284 610.05 508.642 610.596 508.153C611.147 507.659 611.781 507.301 612.496 507.08C613.212 506.852 613.965 506.739 614.755 506.739C615.278 506.739 615.832 506.801 616.417 506.926C617.008 507.045 617.559 507.267 618.07 507.591C618.587 507.915 619.011 508.378 619.34 508.98C619.67 509.577 619.835 510.352 619.835 511.307V520H617.346V518.21H617.244C617.079 518.54 616.832 518.864 616.502 519.182C616.173 519.5 615.749 519.764 615.232 519.974C614.715 520.185 614.096 520.29 613.374 520.29ZM613.928 518.244C614.633 518.244 615.235 518.105 615.735 517.827C616.241 517.548 616.624 517.185 616.886 516.736C617.153 516.281 617.286 515.795 617.286 515.278V513.591C617.195 513.682 617.019 513.767 616.758 513.847C616.502 513.92 616.21 513.986 615.88 514.043C615.55 514.094 615.229 514.142 614.917 514.188C614.604 514.227 614.343 514.261 614.133 514.29C613.638 514.352 613.187 514.457 612.778 514.605C612.374 514.753 612.05 514.966 611.806 515.244C611.567 515.517 611.448 515.881 611.448 516.335C611.448 516.966 611.681 517.443 612.147 517.767C612.613 518.085 613.207 518.244 613.928 518.244ZM628.743 520.264C627.476 520.264 626.385 519.977 625.47 519.403C624.561 518.824 623.862 518.026 623.374 517.009C622.885 515.991 622.641 514.827 622.641 513.514C622.641 512.185 622.891 511.011 623.391 509.994C623.891 508.972 624.595 508.173 625.504 507.599C626.413 507.026 627.484 506.739 628.717 506.739C629.712 506.739 630.598 506.923 631.376 507.293C632.155 507.656 632.783 508.168 633.26 508.827C633.743 509.486 634.03 510.256 634.121 511.136H631.641C631.504 510.523 631.192 509.994 630.703 509.551C630.22 509.108 629.572 508.886 628.76 508.886C628.05 508.886 627.428 509.074 626.893 509.449C626.365 509.818 625.953 510.347 625.658 511.034C625.362 511.716 625.214 512.523 625.214 513.455C625.214 514.409 625.359 515.233 625.649 515.926C625.939 516.619 626.348 517.156 626.876 517.537C627.411 517.918 628.038 518.108 628.76 518.108C629.243 518.108 629.68 518.02 630.072 517.844C630.47 517.662 630.803 517.403 631.07 517.068C631.342 516.733 631.533 516.33 631.641 515.858H634.121C634.03 516.705 633.754 517.46 633.294 518.125C632.834 518.79 632.217 519.312 631.445 519.693C630.678 520.074 629.777 520.264 628.743 520.264ZM642.957 506.909V508.955H635.806V506.909H642.957ZM637.724 503.773H640.272V516.156C640.272 516.651 640.346 517.023 640.494 517.273C640.641 517.517 640.832 517.685 641.065 517.776C641.303 517.861 641.562 517.903 641.84 517.903C642.045 517.903 642.224 517.889 642.377 517.861C642.531 517.832 642.65 517.81 642.735 517.793L643.195 519.898C643.048 519.955 642.837 520.011 642.565 520.068C642.292 520.131 641.951 520.165 641.542 520.17C640.871 520.182 640.246 520.062 639.667 519.812C639.087 519.562 638.619 519.176 638.261 518.653C637.903 518.131 637.724 517.474 637.724 516.685V503.773ZM645.776 520V506.909H648.324V520H645.776ZM647.062 504.889C646.619 504.889 646.239 504.741 645.92 504.446C645.608 504.145 645.452 503.787 645.452 503.372C645.452 502.952 645.608 502.594 645.92 502.298C646.239 501.997 646.619 501.847 647.062 501.847C647.506 501.847 647.884 501.997 648.196 502.298C648.514 502.594 648.673 502.952 648.673 503.372C648.673 503.787 648.514 504.145 648.196 504.446C647.884 504.741 647.506 504.889 647.062 504.889ZM657.266 520.264C656.039 520.264 654.968 519.983 654.053 519.42C653.138 518.858 652.428 518.071 651.923 517.06C651.417 516.048 651.164 514.866 651.164 513.514C651.164 512.156 651.417 510.969 651.923 509.952C652.428 508.935 653.138 508.145 654.053 507.582C654.968 507.02 656.039 506.739 657.266 506.739C658.494 506.739 659.565 507.02 660.479 507.582C661.394 508.145 662.104 508.935 662.61 509.952C663.116 510.969 663.369 512.156 663.369 513.514C663.369 514.866 663.116 516.048 662.61 517.06C662.104 518.071 661.394 518.858 660.479 519.42C659.565 519.983 658.494 520.264 657.266 520.264ZM657.275 518.125C658.07 518.125 658.729 517.915 659.252 517.494C659.775 517.074 660.161 516.514 660.411 515.815C660.667 515.116 660.795 514.347 660.795 513.506C660.795 512.67 660.667 511.903 660.411 511.205C660.161 510.5 659.775 509.935 659.252 509.509C658.729 509.082 658.07 508.869 657.275 508.869C656.474 508.869 655.809 509.082 655.281 509.509C654.758 509.935 654.369 510.5 654.113 511.205C653.863 511.903 653.738 512.67 653.738 513.506C653.738 514.347 653.863 515.116 654.113 515.815C654.369 516.514 654.758 517.074 655.281 517.494C655.809 517.915 656.474 518.125 657.275 518.125ZM668.761 512.227V520H666.213V506.909H668.659V509.04H668.821C669.122 508.347 669.594 507.79 670.236 507.369C670.884 506.949 671.699 506.739 672.682 506.739C673.574 506.739 674.355 506.926 675.026 507.301C675.696 507.67 676.216 508.222 676.585 508.955C676.955 509.687 677.139 510.594 677.139 511.673V520H674.591V511.98C674.591 511.031 674.344 510.29 673.849 509.756C673.355 509.216 672.676 508.946 671.812 508.946C671.222 508.946 670.696 509.074 670.236 509.33C669.781 509.585 669.42 509.96 669.153 510.455C668.892 510.943 668.761 511.534 668.761 512.227Z" fill="#1750BA"/>
<rect x="712" y="481" width="168" height="60" rx="6" fill="#0B64DD"/>
<path d="M762.392 520H759.597L765.878 502.545H768.92L775.202 520H772.406L767.472 505.716H767.335L762.392 520ZM762.861 513.165H771.929V515.381H762.861V513.165ZM782.821 520.264C781.554 520.264 780.463 519.977 779.548 519.403C778.639 518.824 777.94 518.026 777.452 517.009C776.963 515.991 776.719 514.827 776.719 513.514C776.719 512.185 776.969 511.011 777.469 509.994C777.969 508.972 778.673 508.173 779.582 507.599C780.491 507.026 781.563 506.739 782.795 506.739C783.79 506.739 784.676 506.923 785.455 507.293C786.233 507.656 786.861 508.168 787.338 508.827C787.821 509.486 788.108 510.256 788.199 511.136H785.719C785.582 510.523 785.27 509.994 784.781 509.551C784.298 509.108 783.651 508.886 782.838 508.886C782.128 508.886 781.506 509.074 780.972 509.449C780.443 509.818 780.031 510.347 779.736 511.034C779.44 511.716 779.293 512.523 779.293 513.455C779.293 514.409 779.438 515.233 779.727 515.926C780.017 516.619 780.426 517.156 780.955 517.537C781.489 517.918 782.116 518.108 782.838 518.108C783.321 518.108 783.759 518.02 784.151 517.844C784.548 517.662 784.881 517.403 785.148 517.068C785.42 516.733 785.611 516.33 785.719 515.858H788.199C788.108 516.705 787.832 517.46 787.372 518.125C786.912 518.79 786.295 519.312 785.523 519.693C784.756 520.074 783.855 520.264 782.821 520.264ZM797.035 506.909V508.955H789.884V506.909H797.035ZM791.802 503.773H794.35V516.156C794.35 516.651 794.424 517.023 794.572 517.273C794.719 517.517 794.91 517.685 795.143 517.776C795.381 517.861 795.64 517.903 795.918 517.903C796.123 517.903 796.302 517.889 796.455 517.861C796.609 517.832 796.728 517.81 796.813 517.793L797.273 519.898C797.126 519.955 796.915 520.011 796.643 520.068C796.37 520.131 796.029 520.165 795.62 520.17C794.95 520.182 794.325 520.062 793.745 519.812C793.165 519.562 792.697 519.176 792.339 518.653C791.981 518.131 791.802 517.474 791.802 516.685V503.773ZM799.854 520V506.909H802.402V520H799.854ZM801.141 504.889C800.697 504.889 800.317 504.741 799.999 504.446C799.686 504.145 799.53 503.787 799.53 503.372C799.53 502.952 799.686 502.594 799.999 502.298C800.317 501.997 800.697 501.847 801.141 501.847C801.584 501.847 801.962 501.997 802.274 502.298C802.592 502.594 802.751 502.952 802.751 503.372C802.751 503.787 802.592 504.145 802.274 504.446C801.962 504.741 801.584 504.889 801.141 504.889ZM811.344 520.264C810.117 520.264 809.046 519.983 808.131 519.42C807.217 518.858 806.506 518.071 806.001 517.06C805.495 516.048 805.242 514.866 805.242 513.514C805.242 512.156 805.495 510.969 806.001 509.952C806.506 508.935 807.217 508.145 808.131 507.582C809.046 507.02 810.117 506.739 811.344 506.739C812.572 506.739 813.643 507.02 814.558 507.582C815.472 508.145 816.183 508.935 816.688 509.952C817.194 510.969 817.447 512.156 817.447 513.514C817.447 514.866 817.194 516.048 816.688 517.06C816.183 518.071 815.472 518.858 814.558 519.42C813.643 519.983 812.572 520.264 811.344 520.264ZM811.353 518.125C812.148 518.125 812.808 517.915 813.33 517.494C813.853 517.074 814.239 516.514 814.489 515.815C814.745 515.116 814.873 514.347 814.873 513.506C814.873 512.67 814.745 511.903 814.489 511.205C814.239 510.5 813.853 509.935 813.33 509.509C812.808 509.082 812.148 508.869 811.353 508.869C810.552 508.869 809.887 509.082 809.359 509.509C808.836 509.935 808.447 510.5 808.191 511.205C807.941 511.903 807.816 512.67 807.816 513.506C807.816 514.347 807.941 515.116 808.191 515.815C808.447 516.514 808.836 517.074 809.359 517.494C809.887 517.915 810.552 518.125 811.353 518.125ZM822.839 512.227V520H820.291V506.909H822.737V509.04H822.899C823.2 508.347 823.672 507.79 824.314 507.369C824.962 506.949 825.777 506.739 826.76 506.739C827.652 506.739 828.433 506.926 829.104 507.301C829.774 507.67 830.294 508.222 830.663 508.955C831.033 509.687 831.217 510.594 831.217 511.673V520H828.669V511.98C828.669 511.031 828.422 510.29 827.928 509.756C827.433 509.216 826.754 508.946 825.891 508.946C825.3 508.946 824.774 509.074 824.314 509.33C823.859 509.585 823.499 509.96 823.232 510.455C822.97 510.943 822.839 511.534 822.839 512.227Z" fill="white"/>
<rect x="320" y="201" width="560" height="30" rx="6" fill="#CAD3E2"/>
<rect x="320" y="241" width="250" height="30" rx="6" fill="#CAD3E2"/>
<rect x="320" y="301" width="560" height="30" rx="6" fill="#ECF1F9"/>
<rect x="320" y="341" width="560" height="30" rx="6" fill="#ECF1F9"/>
<rect x="320" y="381" width="560" height="30" rx="6" fill="#ECF1F9"/>
<rect x="320" y="421" width="250" height="30" rx="6" fill="#ECF1F9"/>
</g>
<defs>
<filter id="filter0_d_1603_42" x="190" y="81" width="820" height="580" filterUnits="userSpaceOnUse" color-interpolation-filters="sRGB">
<feFlood flood-opacity="0" result="BackgroundImageFix"/>
<feColorMatrix in="SourceAlpha" type="matrix" values="0 0 0 0 0 0 0 0 0 0 0 0 0 0 0 0 0 0 127 0" result="hardAlpha"/>
<feOffset/>
<feGaussianBlur stdDeviation="30"/>
<feComposite in2="hardAlpha" operator="out"/>
<feColorMatrix type="matrix" values="0 0 0 0 0.168627 0 0 0 0 0.223529 0 0 0 0 0.309804 0 0 0 0.12 0"/>
<feBlend mode="normal" in2="BackgroundImageFix" result="effect1_dropShadow_1603_42"/>
<feBlend mode="normal" in="SourceGraphic" in2="effect1_dropShadow_1603_42" result="shape"/>
</filter>
</defs>
</svg>
