<svg width="1948" height="418" viewBox="0 0 1948 418" fill="none" xmlns="http://www.w3.org/2000/svg">
<rect width="1948" height="418" rx="4" fill="white"/>
<rect x="121" y="80" width="78" height="78" rx="7" fill="white"/>
<rect x="121" y="80" width="78" height="78" rx="7" stroke="#CAD3E2" stroke-width="2"/>
<path d="M162.293 122.707C162.683 123.098 163.317 123.098 163.707 122.707C164.098 122.317 164.098 121.683 163.707 121.293L159.707 117.293C159.317 116.902 158.683 116.902 158.293 117.293L154.293 121.293C153.902 121.683 153.902 122.317 154.293 122.707C154.683 123.098 155.317 123.098 155.707 122.707L158 120.414V128C158 128.552 158.448 129 159 129C159.552 129 160 128.552 160 128V120.414L162.293 122.707Z" fill="#1D2A3E"/>
<path fill-rule="evenodd" clip-rule="evenodd" d="M174 107V129C174 131.209 172.209 133 170 133H148C145.791 133 144 131.209 144 129V107C144 104.791 145.791 103 148 103H170C172.209 103 174 104.791 174 107ZM172 112.414V113H169.414L161.414 105H164.586L172 112.414ZM146 115H172V129C172 130.105 171.105 131 170 131H148C146.895 131 146 130.105 146 129V115ZM148.586 113H146V110.414L148.586 113ZM154.586 113H151.414L146 107.586V107C146 106.298 146.362 105.68 146.909 105.323L154.586 113ZM160.586 113H157.414L149.414 105H152.586L160.586 113ZM166.586 113H163.414L155.414 105H158.586L166.586 113ZM172 109.586V107C172 105.895 171.105 105 170 105H167.414L172 109.586Z" fill="#1D2A3E"/>
<rect x="221" y="80" width="259" height="78" rx="7" fill="white"/>
<rect x="221" y="80" width="259" height="78" rx="7" stroke="#CAD3E2" stroke-width="2"/>
<path d="M248.523 131H244.795L253.17 107.727H257.227L265.602 131H261.875L255.295 111.955H255.114L248.523 131ZM249.148 121.886H261.239V124.841H249.148V121.886ZM275.761 131.352C274.072 131.352 272.617 130.97 271.398 130.205C270.186 129.432 269.254 128.367 268.602 127.011C267.951 125.655 267.625 124.102 267.625 122.352C267.625 120.58 267.958 119.015 268.625 117.659C269.292 116.295 270.231 115.231 271.443 114.466C272.655 113.701 274.083 113.318 275.727 113.318C277.053 113.318 278.235 113.564 279.273 114.057C280.311 114.542 281.148 115.223 281.784 116.102C282.428 116.981 282.811 118.008 282.932 119.182H279.625C279.443 118.364 279.027 117.659 278.375 117.068C277.731 116.477 276.867 116.182 275.784 116.182C274.837 116.182 274.008 116.432 273.295 116.932C272.591 117.424 272.042 118.129 271.648 119.045C271.254 119.955 271.057 121.03 271.057 122.273C271.057 123.545 271.25 124.644 271.636 125.568C272.023 126.492 272.568 127.208 273.273 127.716C273.985 128.223 274.822 128.477 275.784 128.477C276.428 128.477 277.011 128.36 277.534 128.125C278.064 127.883 278.508 127.538 278.864 127.091C279.227 126.644 279.481 126.106 279.625 125.477H282.932C282.811 126.606 282.443 127.614 281.83 128.5C281.216 129.386 280.394 130.083 279.364 130.591C278.341 131.098 277.14 131.352 275.761 131.352ZM294.713 113.545V116.273H285.179V113.545H294.713ZM287.736 109.364H291.134V125.875C291.134 126.534 291.232 127.03 291.429 127.364C291.626 127.689 291.88 127.913 292.19 128.034C292.509 128.148 292.853 128.205 293.224 128.205C293.497 128.205 293.736 128.186 293.94 128.148C294.145 128.11 294.304 128.08 294.418 128.057L295.031 130.864C294.834 130.939 294.554 131.015 294.19 131.091C293.827 131.174 293.372 131.22 292.827 131.227C291.933 131.242 291.099 131.083 290.327 130.75C289.554 130.417 288.929 129.902 288.452 129.205C287.974 128.508 287.736 127.633 287.736 126.58V109.364ZM298.472 131V113.545H301.869V131H298.472ZM300.188 110.852C299.597 110.852 299.089 110.655 298.665 110.261C298.248 109.86 298.04 109.383 298.04 108.83C298.04 108.269 298.248 107.792 298.665 107.398C299.089 106.996 299.597 106.795 300.188 106.795C300.778 106.795 301.282 106.996 301.699 107.398C302.123 107.792 302.335 108.269 302.335 108.83C302.335 109.383 302.123 109.86 301.699 110.261C301.282 110.655 300.778 110.852 300.188 110.852ZM313.793 131.352C312.156 131.352 310.728 130.977 309.509 130.227C308.289 129.477 307.342 128.428 306.668 127.08C305.993 125.731 305.656 124.155 305.656 122.352C305.656 120.542 305.993 118.958 306.668 117.602C307.342 116.246 308.289 115.193 309.509 114.443C310.728 113.693 312.156 113.318 313.793 113.318C315.429 113.318 316.857 113.693 318.077 114.443C319.296 115.193 320.243 116.246 320.918 117.602C321.592 118.958 321.929 120.542 321.929 122.352C321.929 124.155 321.592 125.731 320.918 127.08C320.243 128.428 319.296 129.477 318.077 130.227C316.857 130.977 315.429 131.352 313.793 131.352ZM313.804 128.5C314.865 128.5 315.743 128.22 316.44 127.659C317.137 127.098 317.652 126.352 317.986 125.42C318.327 124.489 318.497 123.462 318.497 122.341C318.497 121.227 318.327 120.205 317.986 119.273C317.652 118.333 317.137 117.58 316.44 117.011C315.743 116.443 314.865 116.159 313.804 116.159C312.736 116.159 311.849 116.443 311.145 117.011C310.448 117.58 309.929 118.333 309.588 119.273C309.255 120.205 309.088 121.227 309.088 122.341C309.088 123.462 309.255 124.489 309.588 125.42C309.929 126.352 310.448 127.098 311.145 127.659C311.849 128.22 312.736 128.5 313.804 128.5ZM329.119 120.636V131H325.722V113.545H328.983V116.386H329.199C329.6 115.462 330.229 114.72 331.085 114.159C331.949 113.598 333.036 113.318 334.347 113.318C335.536 113.318 336.578 113.568 337.472 114.068C338.366 114.561 339.059 115.295 339.551 116.273C340.044 117.25 340.29 118.458 340.29 119.898V131H336.892V120.307C336.892 119.042 336.563 118.053 335.903 117.341C335.244 116.621 334.339 116.261 333.188 116.261C332.4 116.261 331.699 116.432 331.085 116.773C330.479 117.114 329.998 117.614 329.642 118.273C329.294 118.924 329.119 119.712 329.119 120.636ZM360.668 131.352C359.031 131.352 357.603 130.977 356.384 130.227C355.164 129.477 354.217 128.428 353.543 127.08C352.868 125.731 352.531 124.155 352.531 122.352C352.531 120.542 352.868 118.958 353.543 117.602C354.217 116.246 355.164 115.193 356.384 114.443C357.603 113.693 359.031 113.318 360.668 113.318C362.304 113.318 363.732 113.693 364.952 114.443C366.171 115.193 367.118 116.246 367.793 117.602C368.467 118.958 368.804 120.542 368.804 122.352C368.804 124.155 368.467 125.731 367.793 127.08C367.118 128.428 366.171 129.477 364.952 130.227C363.732 130.977 362.304 131.352 360.668 131.352ZM360.679 128.5C361.74 128.5 362.618 128.22 363.315 127.659C364.012 127.098 364.527 126.352 364.861 125.42C365.202 124.489 365.372 123.462 365.372 122.341C365.372 121.227 365.202 120.205 364.861 119.273C364.527 118.333 364.012 117.58 363.315 117.011C362.618 116.443 361.74 116.159 360.679 116.159C359.611 116.159 358.724 116.443 358.02 117.011C357.323 117.58 356.804 118.333 356.463 119.273C356.13 120.205 355.963 121.227 355.963 122.341C355.963 123.462 356.13 124.489 356.463 125.42C356.804 126.352 357.323 127.098 358.02 127.659C358.724 128.22 359.611 128.5 360.679 128.5ZM375.994 120.636V131H372.597V113.545H375.858V116.386H376.074C376.475 115.462 377.104 114.72 377.96 114.159C378.824 113.598 379.911 113.318 381.222 113.318C382.411 113.318 383.453 113.568 384.347 114.068C385.241 114.561 385.934 115.295 386.426 116.273C386.919 117.25 387.165 118.458 387.165 119.898V131H383.767V120.307C383.767 119.042 383.438 118.053 382.778 117.341C382.119 116.621 381.214 116.261 380.062 116.261C379.275 116.261 378.574 116.432 377.96 116.773C377.354 117.114 376.873 117.614 376.517 118.273C376.169 118.924 375.994 119.712 375.994 120.636ZM399.244 131.352C397.525 131.352 396.044 130.985 394.801 130.25C393.566 129.508 392.612 128.466 391.938 127.125C391.271 125.777 390.938 124.197 390.938 122.386C390.938 120.598 391.271 119.023 391.938 117.659C392.612 116.295 393.551 115.231 394.756 114.466C395.968 113.701 397.384 113.318 399.006 113.318C399.991 113.318 400.945 113.481 401.869 113.807C402.794 114.133 403.623 114.644 404.358 115.341C405.093 116.038 405.672 116.943 406.097 118.057C406.521 119.163 406.733 120.508 406.733 122.091V123.295H392.858V120.75H403.403C403.403 119.856 403.222 119.064 402.858 118.375C402.494 117.678 401.983 117.129 401.324 116.727C400.672 116.326 399.907 116.125 399.028 116.125C398.074 116.125 397.241 116.36 396.528 116.83C395.824 117.292 395.278 117.898 394.892 118.648C394.513 119.39 394.324 120.197 394.324 121.068V123.057C394.324 124.223 394.528 125.216 394.938 126.034C395.354 126.852 395.934 127.477 396.676 127.909C397.419 128.333 398.286 128.545 399.278 128.545C399.922 128.545 400.509 128.455 401.04 128.273C401.57 128.083 402.028 127.803 402.415 127.432C402.801 127.061 403.097 126.602 403.301 126.057L406.517 126.636C406.259 127.583 405.797 128.413 405.131 129.125C404.472 129.83 403.642 130.379 402.642 130.773C401.65 131.159 400.517 131.352 399.244 131.352Z" fill="#1D2A3E"/>
<path fill-rule="evenodd" clip-rule="evenodd" d="M441 123.586L452.293 112.293L453.707 113.707L441 126.414L428.293 113.707L429.707 112.293L441 123.586Z" fill="#343741"/>
<rect x="502" y="80" width="259" height="78" rx="7" fill="white"/>
<rect x="502" y="80" width="259" height="78" rx="7" stroke="#CAD3E2" stroke-width="2"/>
<path d="M529.523 131H525.795L534.17 107.727H538.227L546.602 131H542.875L536.295 111.955H536.114L529.523 131ZM530.148 121.886H542.239V124.841H530.148V121.886ZM556.761 131.352C555.072 131.352 553.617 130.97 552.398 130.205C551.186 129.432 550.254 128.367 549.602 127.011C548.951 125.655 548.625 124.102 548.625 122.352C548.625 120.58 548.958 119.015 549.625 117.659C550.292 116.295 551.231 115.231 552.443 114.466C553.655 113.701 555.083 113.318 556.727 113.318C558.053 113.318 559.235 113.564 560.273 114.057C561.311 114.542 562.148 115.223 562.784 116.102C563.428 116.981 563.811 118.008 563.932 119.182H560.625C560.443 118.364 560.027 117.659 559.375 117.068C558.731 116.477 557.867 116.182 556.784 116.182C555.837 116.182 555.008 116.432 554.295 116.932C553.591 117.424 553.042 118.129 552.648 119.045C552.254 119.955 552.057 121.03 552.057 122.273C552.057 123.545 552.25 124.644 552.636 125.568C553.023 126.492 553.568 127.208 554.273 127.716C554.985 128.223 555.822 128.477 556.784 128.477C557.428 128.477 558.011 128.36 558.534 128.125C559.064 127.883 559.508 127.538 559.864 127.091C560.227 126.644 560.481 126.106 560.625 125.477H563.932C563.811 126.606 563.443 127.614 562.83 128.5C562.216 129.386 561.394 130.083 560.364 130.591C559.341 131.098 558.14 131.352 556.761 131.352ZM575.713 113.545V116.273H566.179V113.545H575.713ZM568.736 109.364H572.134V125.875C572.134 126.534 572.232 127.03 572.429 127.364C572.626 127.689 572.88 127.913 573.19 128.034C573.509 128.148 573.853 128.205 574.224 128.205C574.497 128.205 574.736 128.186 574.94 128.148C575.145 128.11 575.304 128.08 575.418 128.057L576.031 130.864C575.834 130.939 575.554 131.015 575.19 131.091C574.827 131.174 574.372 131.22 573.827 131.227C572.933 131.242 572.099 131.083 571.327 130.75C570.554 130.417 569.929 129.902 569.452 129.205C568.974 128.508 568.736 127.633 568.736 126.58V109.364ZM579.472 131V113.545H582.869V131H579.472ZM581.188 110.852C580.597 110.852 580.089 110.655 579.665 110.261C579.248 109.86 579.04 109.383 579.04 108.83C579.04 108.269 579.248 107.792 579.665 107.398C580.089 106.996 580.597 106.795 581.188 106.795C581.778 106.795 582.282 106.996 582.699 107.398C583.123 107.792 583.335 108.269 583.335 108.83C583.335 109.383 583.123 109.86 582.699 110.261C582.282 110.655 581.778 110.852 581.188 110.852ZM594.793 131.352C593.156 131.352 591.728 130.977 590.509 130.227C589.289 129.477 588.342 128.428 587.668 127.08C586.993 125.731 586.656 124.155 586.656 122.352C586.656 120.542 586.993 118.958 587.668 117.602C588.342 116.246 589.289 115.193 590.509 114.443C591.728 113.693 593.156 113.318 594.793 113.318C596.429 113.318 597.857 113.693 599.077 114.443C600.296 115.193 601.243 116.246 601.918 117.602C602.592 118.958 602.929 120.542 602.929 122.352C602.929 124.155 602.592 125.731 601.918 127.08C601.243 128.428 600.296 129.477 599.077 130.227C597.857 130.977 596.429 131.352 594.793 131.352ZM594.804 128.5C595.865 128.5 596.743 128.22 597.44 127.659C598.137 127.098 598.652 126.352 598.986 125.42C599.327 124.489 599.497 123.462 599.497 122.341C599.497 121.227 599.327 120.205 598.986 119.273C598.652 118.333 598.137 117.58 597.44 117.011C596.743 116.443 595.865 116.159 594.804 116.159C593.736 116.159 592.849 116.443 592.145 117.011C591.448 117.58 590.929 118.333 590.588 119.273C590.255 120.205 590.088 121.227 590.088 122.341C590.088 123.462 590.255 124.489 590.588 125.42C590.929 126.352 591.448 127.098 592.145 127.659C592.849 128.22 593.736 128.5 594.804 128.5ZM610.119 120.636V131H606.722V113.545H609.983V116.386H610.199C610.6 115.462 611.229 114.72 612.085 114.159C612.949 113.598 614.036 113.318 615.347 113.318C616.536 113.318 617.578 113.568 618.472 114.068C619.366 114.561 620.059 115.295 620.551 116.273C621.044 117.25 621.29 118.458 621.29 119.898V131H617.892V120.307C617.892 119.042 617.563 118.053 616.903 117.341C616.244 116.621 615.339 116.261 614.188 116.261C613.4 116.261 612.699 116.432 612.085 116.773C611.479 117.114 610.998 117.614 610.642 118.273C610.294 118.924 610.119 119.712 610.119 120.636ZM642.463 113.545V116.273H632.929V113.545H642.463ZM635.486 109.364H638.884V125.875C638.884 126.534 638.982 127.03 639.179 127.364C639.376 127.689 639.63 127.913 639.94 128.034C640.259 128.148 640.603 128.205 640.974 128.205C641.247 128.205 641.486 128.186 641.69 128.148C641.895 128.11 642.054 128.08 642.168 128.057L642.781 130.864C642.584 130.939 642.304 131.015 641.94 131.091C641.577 131.174 641.122 131.22 640.577 131.227C639.683 131.242 638.849 131.083 638.077 130.75C637.304 130.417 636.679 129.902 636.202 129.205C635.724 128.508 635.486 127.633 635.486 126.58V109.364ZM650.006 131L644.869 113.545H648.381L651.801 126.364H651.972L655.403 113.545H658.915L662.324 126.307H662.494L665.892 113.545H669.403L664.278 131H660.812L657.267 118.398H657.006L653.46 131H650.006ZM679.449 131.352C677.813 131.352 676.384 130.977 675.165 130.227C673.945 129.477 672.998 128.428 672.324 127.08C671.65 125.731 671.312 124.155 671.312 122.352C671.312 120.542 671.65 118.958 672.324 117.602C672.998 116.246 673.945 115.193 675.165 114.443C676.384 113.693 677.813 113.318 679.449 113.318C681.085 113.318 682.513 113.693 683.733 114.443C684.953 115.193 685.9 116.246 686.574 117.602C687.248 118.958 687.585 120.542 687.585 122.352C687.585 124.155 687.248 125.731 686.574 127.08C685.9 128.428 684.953 129.477 683.733 130.227C682.513 130.977 681.085 131.352 679.449 131.352ZM679.46 128.5C680.521 128.5 681.4 128.22 682.097 127.659C682.794 127.098 683.309 126.352 683.642 125.42C683.983 124.489 684.153 123.462 684.153 122.341C684.153 121.227 683.983 120.205 683.642 119.273C683.309 118.333 682.794 117.58 682.097 117.011C681.4 116.443 680.521 116.159 679.46 116.159C678.392 116.159 677.506 116.443 676.801 117.011C676.104 117.58 675.585 118.333 675.244 119.273C674.911 120.205 674.744 121.227 674.744 122.341C674.744 123.462 674.911 124.489 675.244 125.42C675.585 126.352 676.104 127.098 676.801 127.659C677.506 128.22 678.392 128.5 679.46 128.5Z" fill="#1D2A3E"/>
<path fill-rule="evenodd" clip-rule="evenodd" d="M722 123.586L733.293 112.293L734.707 113.707L722 126.414L709.293 113.707L710.707 112.293L722 123.586Z" fill="#343741"/>
<path d="M790 80H1530C1533.87 80 1537 83.134 1537 87V151C1537 154.866 1533.87 158 1530 158H790C786.134 158 783 154.866 783 151V87C783 83.134 786.134 80 790 80Z" fill="white" stroke="#CAD3E2" stroke-width="2"/>
<path fill-rule="evenodd" clip-rule="evenodd" d="M827.55 128.792C825.371 130.19 822.78 131 820 131C812.268 131 806 124.732 806 117C806 109.268 812.268 103 820 103C827.732 103 834 109.268 834 117C834 119.78 833.19 122.371 831.792 124.549L837.122 129.879C838.293 131.05 838.293 132.95 837.122 134.121C835.95 135.293 834.05 135.293 832.879 134.121L827.55 128.792ZM832 117C832 123.627 826.627 129 820 129C813.373 129 808 123.627 808 117C808 110.373 813.373 105 820 105C826.627 105 832 110.373 832 117ZM829.167 127.581L834.293 132.707C834.684 133.098 835.317 133.098 835.707 132.707C836.098 132.317 836.098 131.683 835.707 131.293L830.582 126.167C830.144 126.671 829.672 127.144 829.167 127.581Z" fill="#1D2A3E"/>
<path d="M865.545 113.545C865.409 112.394 864.856 111.5 863.886 110.864C862.917 110.227 861.727 109.909 860.318 109.909C859.288 109.909 858.386 110.076 857.614 110.409C856.848 110.742 856.25 111.201 855.818 111.784C855.394 112.367 855.182 113.03 855.182 113.773C855.182 114.394 855.33 114.928 855.625 115.375C855.928 115.814 856.314 116.182 856.784 116.477C857.254 116.765 857.746 117.004 858.261 117.193C858.777 117.375 859.25 117.523 859.682 117.636L862.045 118.273C862.652 118.432 863.326 118.652 864.068 118.932C864.818 119.212 865.534 119.595 866.216 120.08C866.905 120.557 867.473 121.17 867.92 121.92C868.367 122.67 868.591 123.591 868.591 124.682C868.591 125.939 868.261 127.076 867.602 128.091C866.951 129.106 865.996 129.913 864.739 130.511C863.489 131.11 861.97 131.409 860.182 131.409C858.515 131.409 857.072 131.14 855.852 130.602C854.64 130.064 853.686 129.314 852.989 128.352C852.299 127.39 851.909 126.273 851.818 125H854.727C854.803 125.879 855.098 126.606 855.614 127.182C856.136 127.75 856.795 128.174 857.591 128.455C858.394 128.727 859.258 128.864 860.182 128.864C861.258 128.864 862.223 128.689 863.08 128.341C863.936 127.985 864.614 127.492 865.114 126.864C865.614 126.227 865.864 125.485 865.864 124.636C865.864 123.864 865.648 123.235 865.216 122.75C864.784 122.265 864.216 121.871 863.511 121.568C862.807 121.265 862.045 121 861.227 120.773L858.364 119.955C856.545 119.432 855.106 118.686 854.045 117.716C852.985 116.746 852.455 115.477 852.455 113.909C852.455 112.606 852.807 111.47 853.511 110.5C854.223 109.523 855.178 108.765 856.375 108.227C857.58 107.682 858.924 107.409 860.409 107.409C861.909 107.409 863.242 107.678 864.409 108.216C865.576 108.746 866.5 109.473 867.182 110.398C867.871 111.322 868.235 112.371 868.273 113.545H865.545ZM880.179 131.364C878.497 131.364 877.046 130.992 875.827 130.25C874.615 129.5 873.679 128.455 873.02 127.114C872.368 125.765 872.043 124.197 872.043 122.409C872.043 120.621 872.368 119.045 873.02 117.682C873.679 116.311 874.596 115.242 875.77 114.477C876.952 113.705 878.33 113.318 879.906 113.318C880.815 113.318 881.713 113.47 882.599 113.773C883.486 114.076 884.293 114.568 885.02 115.25C885.747 115.924 886.327 116.818 886.759 117.932C887.19 119.045 887.406 120.417 887.406 122.045V123.182H873.952V120.864H884.679C884.679 119.879 884.482 119 884.088 118.227C883.702 117.455 883.149 116.845 882.429 116.398C881.717 115.951 880.876 115.727 879.906 115.727C878.838 115.727 877.914 115.992 877.134 116.523C876.361 117.045 875.766 117.727 875.349 118.568C874.933 119.409 874.724 120.311 874.724 121.273V122.818C874.724 124.136 874.952 125.254 875.406 126.17C875.868 127.08 876.509 127.773 877.327 128.25C878.145 128.72 879.096 128.955 880.179 128.955C880.884 128.955 881.52 128.856 882.088 128.659C882.664 128.455 883.16 128.152 883.577 127.75C883.993 127.341 884.315 126.833 884.543 126.227L887.134 126.955C886.861 127.833 886.402 128.606 885.759 129.273C885.115 129.932 884.319 130.447 883.372 130.818C882.425 131.182 881.361 131.364 880.179 131.364ZM896.622 131.409C895.516 131.409 894.512 131.201 893.611 130.784C892.709 130.36 891.993 129.75 891.463 128.955C890.933 128.152 890.668 127.182 890.668 126.045C890.668 125.045 890.865 124.235 891.259 123.614C891.652 122.985 892.179 122.492 892.838 122.136C893.497 121.78 894.224 121.515 895.02 121.341C895.823 121.159 896.63 121.015 897.44 120.909C898.501 120.773 899.361 120.67 900.02 120.602C900.687 120.527 901.171 120.402 901.474 120.227C901.785 120.053 901.94 119.75 901.94 119.318V119.227C901.94 118.106 901.634 117.235 901.02 116.614C900.414 115.992 899.493 115.682 898.259 115.682C896.978 115.682 895.974 115.962 895.247 116.523C894.52 117.083 894.009 117.682 893.713 118.318L891.168 117.409C891.622 116.348 892.228 115.523 892.986 114.932C893.751 114.333 894.584 113.917 895.486 113.682C896.395 113.439 897.289 113.318 898.168 113.318C898.728 113.318 899.372 113.386 900.099 113.523C900.834 113.652 901.543 113.92 902.224 114.33C902.914 114.739 903.486 115.356 903.94 116.182C904.395 117.008 904.622 118.114 904.622 119.5V131H901.94V128.636H901.804C901.622 129.015 901.319 129.42 900.895 129.852C900.471 130.284 899.906 130.652 899.202 130.955C898.497 131.258 897.637 131.409 896.622 131.409ZM897.031 129C898.092 129 898.986 128.792 899.713 128.375C900.448 127.958 901.001 127.42 901.372 126.761C901.751 126.102 901.94 125.409 901.94 124.682V122.227C901.827 122.364 901.577 122.489 901.19 122.602C900.812 122.708 900.372 122.803 899.872 122.886C899.38 122.962 898.899 123.03 898.429 123.091C897.967 123.144 897.592 123.189 897.304 123.227C896.607 123.318 895.955 123.466 895.349 123.67C894.751 123.867 894.266 124.167 893.895 124.568C893.531 124.962 893.349 125.5 893.349 126.182C893.349 127.114 893.694 127.818 894.384 128.295C895.08 128.765 895.963 129 897.031 129ZM909.517 131V113.545H912.108V116.182H912.29C912.608 115.318 913.184 114.617 914.017 114.08C914.85 113.542 915.79 113.273 916.835 113.273C917.032 113.273 917.278 113.277 917.574 113.284C917.869 113.292 918.093 113.303 918.244 113.318V116.045C918.153 116.023 917.945 115.989 917.619 115.943C917.301 115.89 916.964 115.864 916.608 115.864C915.759 115.864 915.002 116.042 914.335 116.398C913.676 116.746 913.153 117.231 912.767 117.852C912.388 118.466 912.199 119.167 912.199 119.955V131H909.517ZM927.983 131.364C926.347 131.364 924.938 130.977 923.756 130.205C922.574 129.432 921.665 128.367 921.028 127.011C920.392 125.655 920.074 124.106 920.074 122.364C920.074 120.591 920.4 119.027 921.051 117.67C921.71 116.307 922.627 115.242 923.801 114.477C924.983 113.705 926.362 113.318 927.938 113.318C929.165 113.318 930.271 113.545 931.256 114C932.241 114.455 933.047 115.091 933.676 115.909C934.305 116.727 934.695 117.682 934.847 118.773H932.165C931.96 117.977 931.506 117.273 930.801 116.659C930.104 116.038 929.165 115.727 927.983 115.727C926.938 115.727 926.021 116 925.233 116.545C924.453 117.083 923.843 117.845 923.403 118.83C922.972 119.807 922.756 120.955 922.756 122.273C922.756 123.621 922.968 124.795 923.392 125.795C923.824 126.795 924.43 127.572 925.21 128.125C925.998 128.678 926.922 128.955 927.983 128.955C928.68 128.955 929.312 128.833 929.881 128.591C930.449 128.348 930.93 128 931.324 127.545C931.718 127.091 931.998 126.545 932.165 125.909H934.847C934.695 126.939 934.32 127.867 933.722 128.693C933.131 129.511 932.347 130.163 931.369 130.648C930.4 131.125 929.271 131.364 927.983 131.364ZM941.449 120.5V131H938.767V107.727H941.449V116.273H941.676C942.085 115.371 942.699 114.655 943.517 114.125C944.343 113.587 945.441 113.318 946.812 113.318C948.002 113.318 949.044 113.557 949.938 114.034C950.831 114.504 951.525 115.227 952.017 116.205C952.517 117.174 952.767 118.409 952.767 119.909V131H950.085V120.091C950.085 118.705 949.725 117.633 949.006 116.875C948.294 116.11 947.305 115.727 946.04 115.727C945.161 115.727 944.373 115.913 943.676 116.284C942.987 116.655 942.441 117.197 942.04 117.909C941.646 118.621 941.449 119.485 941.449 120.5Z" fill="#798EAF"/>
<rect x="1558" y="79" width="270" height="80" rx="8" fill="#0B64DD"/>
<path d="M1584.56 131V107.727H1592.85C1594.66 107.727 1596.16 108.057 1597.35 108.716C1598.54 109.375 1599.43 110.277 1600.02 111.42C1600.61 112.557 1600.91 113.837 1600.91 115.261C1600.91 116.693 1600.61 117.981 1600.01 119.125C1599.42 120.261 1598.53 121.163 1597.33 121.83C1596.14 122.489 1594.64 122.818 1592.84 122.818H1587.14V119.841H1592.52C1593.67 119.841 1594.59 119.644 1595.31 119.25C1596.02 118.848 1596.54 118.303 1596.88 117.614C1597.21 116.924 1597.38 116.14 1597.38 115.261C1597.38 114.383 1597.21 113.602 1596.88 112.92C1596.54 112.239 1596.02 111.705 1595.3 111.318C1594.58 110.932 1593.64 110.739 1592.48 110.739H1588.07V131H1584.56ZM1604.75 131V113.545H1608.04V116.318H1608.22C1608.54 115.379 1609.1 114.64 1609.9 114.102C1610.71 113.557 1611.63 113.284 1612.65 113.284C1612.86 113.284 1613.11 113.292 1613.4 113.307C1613.7 113.322 1613.93 113.341 1614.09 113.364V116.614C1613.96 116.576 1613.71 116.534 1613.37 116.489C1613.02 116.436 1612.67 116.409 1612.32 116.409C1611.52 116.409 1610.8 116.58 1610.17 116.92C1609.55 117.254 1609.06 117.72 1608.7 118.318C1608.33 118.909 1608.15 119.583 1608.15 120.341V131H1604.75ZM1617.03 131V113.545H1620.43V131H1617.03ZM1618.75 110.852C1618.16 110.852 1617.65 110.655 1617.23 110.261C1616.81 109.86 1616.6 109.383 1616.6 108.83C1616.6 108.269 1616.81 107.792 1617.23 107.398C1617.65 106.996 1618.16 106.795 1618.75 106.795C1619.34 106.795 1619.84 106.996 1620.26 107.398C1620.69 107.792 1620.9 108.269 1620.9 108.83C1620.9 109.383 1620.69 109.86 1620.26 110.261C1619.84 110.655 1619.34 110.852 1618.75 110.852ZM1625 131V113.545H1628.26V116.386H1628.48C1628.84 115.424 1629.44 114.674 1630.26 114.136C1631.09 113.591 1632.08 113.318 1633.23 113.318C1634.4 113.318 1635.37 113.591 1636.16 114.136C1636.96 114.682 1637.54 115.432 1637.92 116.386H1638.11C1638.52 115.455 1639.18 114.712 1640.09 114.159C1641 113.598 1642.09 113.318 1643.34 113.318C1644.93 113.318 1646.22 113.814 1647.22 114.807C1648.23 115.799 1648.73 117.295 1648.73 119.295V131H1645.33V119.614C1645.33 118.432 1645.01 117.576 1644.37 117.045C1643.72 116.515 1642.95 116.25 1642.06 116.25C1640.95 116.25 1640.09 116.591 1639.48 117.273C1638.87 117.947 1638.56 118.814 1638.56 119.875V131H1635.17V119.398C1635.17 118.451 1634.88 117.689 1634.29 117.114C1633.7 116.538 1632.93 116.25 1631.98 116.25C1631.34 116.25 1630.74 116.42 1630.2 116.761C1629.66 117.095 1629.22 117.561 1628.89 118.159C1628.56 118.758 1628.4 119.451 1628.4 120.239V131H1625ZM1658.36 131.386C1657.26 131.386 1656.26 131.182 1655.36 130.773C1654.47 130.356 1653.76 129.754 1653.24 128.966C1652.72 128.178 1652.47 127.212 1652.47 126.068C1652.47 125.083 1652.66 124.273 1653.03 123.636C1653.41 123 1653.92 122.496 1654.57 122.125C1655.21 121.754 1655.93 121.473 1656.73 121.284C1657.52 121.095 1658.33 120.951 1659.16 120.852C1660.2 120.731 1661.05 120.633 1661.7 120.557C1662.36 120.473 1662.83 120.341 1663.12 120.159C1663.42 119.977 1663.57 119.682 1663.57 119.273V119.193C1663.57 118.201 1663.29 117.432 1662.73 116.886C1662.17 116.341 1661.35 116.068 1660.25 116.068C1659.11 116.068 1658.2 116.322 1657.55 116.83C1656.89 117.33 1656.44 117.886 1656.19 118.5L1653 117.773C1653.38 116.712 1653.93 115.856 1654.66 115.205C1655.39 114.545 1656.24 114.068 1657.19 113.773C1658.15 113.47 1659.15 113.318 1660.2 113.318C1660.9 113.318 1661.64 113.402 1662.42 113.568C1663.21 113.727 1663.94 114.023 1664.62 114.455C1665.31 114.886 1665.88 115.504 1666.32 116.307C1666.76 117.102 1666.98 118.136 1666.98 119.409V131H1663.66V128.614H1663.52C1663.3 129.053 1662.97 129.485 1662.53 129.909C1662.09 130.333 1661.53 130.686 1660.84 130.966C1660.15 131.246 1659.33 131.386 1658.36 131.386ZM1659.1 128.659C1660.04 128.659 1660.84 128.473 1661.51 128.102C1662.19 127.731 1662.7 127.246 1663.05 126.648C1663.4 126.042 1663.58 125.394 1663.58 124.705V122.455C1663.46 122.576 1663.22 122.689 1662.88 122.795C1662.53 122.894 1662.14 122.981 1661.7 123.057C1661.27 123.125 1660.84 123.189 1660.42 123.25C1660 123.303 1659.66 123.348 1659.38 123.386C1658.72 123.47 1658.11 123.61 1657.57 123.807C1657.03 124.004 1656.6 124.288 1656.27 124.659C1655.95 125.023 1655.8 125.508 1655.8 126.114C1655.8 126.955 1656.11 127.591 1656.73 128.023C1657.35 128.447 1658.14 128.659 1659.1 128.659ZM1671.5 131V113.545H1674.79V116.318H1674.97C1675.29 115.379 1675.85 114.64 1676.65 114.102C1677.46 113.557 1678.38 113.284 1679.4 113.284C1679.61 113.284 1679.86 113.292 1680.15 113.307C1680.45 113.322 1680.68 113.341 1680.84 113.364V116.614C1680.71 116.576 1680.46 116.534 1680.12 116.489C1679.77 116.436 1679.42 116.409 1679.07 116.409C1678.27 116.409 1677.55 116.58 1676.92 116.92C1676.3 117.254 1675.81 117.72 1675.45 118.318C1675.08 118.909 1674.9 119.583 1674.9 120.341V131H1671.5ZM1686.46 137.545C1685.96 137.545 1685.49 137.504 1685.08 137.42C1684.66 137.345 1684.35 137.261 1684.14 137.17L1684.96 134.386C1685.58 134.553 1686.14 134.625 1686.62 134.602C1687.11 134.58 1687.54 134.398 1687.91 134.057C1688.29 133.716 1688.62 133.159 1688.91 132.386L1689.33 131.227L1682.94 113.545H1686.58L1691 127.091H1691.18L1695.6 113.545H1699.25L1692.05 133.33C1691.72 134.239 1691.3 135.008 1690.78 135.636C1690.27 136.273 1689.65 136.75 1688.94 137.068C1688.23 137.386 1687.4 137.545 1686.46 137.545ZM1715.99 131.386C1714.88 131.386 1713.88 131.182 1712.99 130.773C1712.09 130.356 1711.39 129.754 1710.86 128.966C1710.35 128.178 1710.09 127.212 1710.09 126.068C1710.09 125.083 1710.28 124.273 1710.66 123.636C1711.04 123 1711.55 122.496 1712.19 122.125C1712.84 121.754 1713.56 121.473 1714.35 121.284C1715.15 121.095 1715.96 120.951 1716.78 120.852C1717.83 120.731 1718.68 120.633 1719.33 120.557C1719.98 120.473 1720.45 120.341 1720.75 120.159C1721.05 119.977 1721.19 119.682 1721.19 119.273V119.193C1721.19 118.201 1720.91 117.432 1720.35 116.886C1719.8 116.341 1718.97 116.068 1717.88 116.068C1716.73 116.068 1715.83 116.322 1715.17 116.83C1714.52 117.33 1714.07 117.886 1713.82 118.5L1710.62 117.773C1711 116.712 1711.56 115.856 1712.28 115.205C1713.02 114.545 1713.86 114.068 1714.82 113.773C1715.77 113.47 1716.78 113.318 1717.83 113.318C1718.53 113.318 1719.27 113.402 1720.05 113.568C1720.83 113.727 1721.57 114.023 1722.25 114.455C1722.94 114.886 1723.5 115.504 1723.94 116.307C1724.38 117.102 1724.6 118.136 1724.6 119.409V131H1721.28V128.614H1721.15C1720.93 129.053 1720.6 129.485 1720.16 129.909C1719.72 130.333 1719.16 130.686 1718.47 130.966C1717.78 131.246 1716.95 131.386 1715.99 131.386ZM1716.73 128.659C1717.67 128.659 1718.47 128.473 1719.14 128.102C1719.81 127.731 1720.32 127.246 1720.67 126.648C1721.03 126.042 1721.2 125.394 1721.2 124.705V122.455C1721.08 122.576 1720.85 122.689 1720.5 122.795C1720.16 122.894 1719.77 122.981 1719.33 123.057C1718.89 123.125 1718.46 123.189 1718.05 123.25C1717.63 123.303 1717.28 123.348 1717 123.386C1716.34 123.47 1715.74 123.61 1715.19 123.807C1714.66 124.004 1714.22 124.288 1713.9 124.659C1713.58 125.023 1713.42 125.508 1713.42 126.114C1713.42 126.955 1713.73 127.591 1714.35 128.023C1714.97 128.447 1715.77 128.659 1716.73 128.659ZM1736.48 131.352C1734.79 131.352 1733.34 130.97 1732.12 130.205C1730.9 129.432 1729.97 128.367 1729.32 127.011C1728.67 125.655 1728.34 124.102 1728.34 122.352C1728.34 120.58 1728.68 119.015 1729.34 117.659C1730.01 116.295 1730.95 115.231 1732.16 114.466C1733.37 113.701 1734.8 113.318 1736.45 113.318C1737.77 113.318 1738.95 113.564 1739.99 114.057C1741.03 114.542 1741.87 115.223 1742.5 116.102C1743.15 116.981 1743.53 118.008 1743.65 119.182H1740.34C1740.16 118.364 1739.75 117.659 1739.09 117.068C1738.45 116.477 1737.59 116.182 1736.5 116.182C1735.56 116.182 1734.73 116.432 1734.01 116.932C1733.31 117.424 1732.76 118.129 1732.37 119.045C1731.97 119.955 1731.78 121.03 1731.78 122.273C1731.78 123.545 1731.97 124.644 1732.36 125.568C1732.74 126.492 1733.29 127.208 1733.99 127.716C1734.7 128.223 1735.54 128.477 1736.5 128.477C1737.15 128.477 1737.73 128.36 1738.25 128.125C1738.78 127.883 1739.23 127.538 1739.58 127.091C1739.95 126.644 1740.2 126.106 1740.34 125.477H1743.65C1743.53 126.606 1743.16 127.614 1742.55 128.5C1741.93 129.386 1741.11 130.083 1740.08 130.591C1739.06 131.098 1737.86 131.352 1736.48 131.352ZM1755.43 113.545V116.273H1745.9V113.545H1755.43ZM1748.45 109.364H1751.85V125.875C1751.85 126.534 1751.95 127.03 1752.15 127.364C1752.34 127.689 1752.6 127.913 1752.91 128.034C1753.23 128.148 1753.57 128.205 1753.94 128.205C1754.22 128.205 1754.45 128.186 1754.66 128.148C1754.86 128.11 1755.02 128.08 1755.14 128.057L1755.75 130.864C1755.55 130.939 1755.27 131.015 1754.91 131.091C1754.55 131.174 1754.09 131.22 1753.55 131.227C1752.65 131.242 1751.82 131.083 1751.05 130.75C1750.27 130.417 1749.65 129.902 1749.17 129.205C1748.69 128.508 1748.45 127.633 1748.45 126.58V109.364ZM1759.19 131V113.545H1762.59V131H1759.19ZM1760.91 110.852C1760.32 110.852 1759.81 110.655 1759.38 110.261C1758.97 109.86 1758.76 109.383 1758.76 108.83C1758.76 108.269 1758.97 107.792 1759.38 107.398C1759.81 106.996 1760.32 106.795 1760.91 106.795C1761.5 106.795 1762 106.996 1762.42 107.398C1762.84 107.792 1763.05 108.269 1763.05 108.83C1763.05 109.383 1762.84 109.86 1762.42 110.261C1762 110.655 1761.5 110.852 1760.91 110.852ZM1774.51 131.352C1772.88 131.352 1771.45 130.977 1770.23 130.227C1769.01 129.477 1768.06 128.428 1767.39 127.08C1766.71 125.731 1766.38 124.155 1766.38 122.352C1766.38 120.542 1766.71 118.958 1767.39 117.602C1768.06 116.246 1769.01 115.193 1770.23 114.443C1771.45 113.693 1772.88 113.318 1774.51 113.318C1776.15 113.318 1777.58 113.693 1778.8 114.443C1780.02 115.193 1780.96 116.246 1781.64 117.602C1782.31 118.958 1782.65 120.542 1782.65 122.352C1782.65 124.155 1782.31 125.731 1781.64 127.08C1780.96 128.428 1780.02 129.477 1778.8 130.227C1777.58 130.977 1776.15 131.352 1774.51 131.352ZM1774.52 128.5C1775.58 128.5 1776.46 128.22 1777.16 127.659C1777.86 127.098 1778.37 126.352 1778.7 125.42C1779.05 124.489 1779.22 123.462 1779.22 122.341C1779.22 121.227 1779.05 120.205 1778.7 119.273C1778.37 118.333 1777.86 117.58 1777.16 117.011C1776.46 116.443 1775.58 116.159 1774.52 116.159C1773.45 116.159 1772.57 116.443 1771.86 117.011C1771.17 117.58 1770.65 118.333 1770.31 119.273C1769.97 120.205 1769.81 121.227 1769.81 122.341C1769.81 123.462 1769.97 124.489 1770.31 125.42C1770.65 126.352 1771.17 127.098 1771.86 127.659C1772.57 128.22 1773.45 128.5 1774.52 128.5ZM1789.84 120.636V131H1786.44V113.545H1789.7V116.386H1789.92C1790.32 115.462 1790.95 114.72 1791.8 114.159C1792.67 113.598 1793.75 113.318 1795.07 113.318C1796.25 113.318 1797.3 113.568 1798.19 114.068C1799.08 114.561 1799.78 115.295 1800.27 116.273C1800.76 117.25 1801.01 118.458 1801.01 119.898V131H1797.61V120.307C1797.61 119.042 1797.28 118.053 1796.62 117.341C1795.96 116.621 1795.06 116.261 1793.91 116.261C1793.12 116.261 1792.42 116.432 1791.8 116.773C1791.2 117.114 1790.72 117.614 1790.36 118.273C1790.01 118.924 1789.84 119.712 1789.84 120.636Z" fill="white"/>
<rect x="120" y="199" width="1708" height="40" rx="8" fill="#ECF1F9"/>
<rect x="120" y="249" width="1708" height="40" rx="8" fill="#ECF1F9"/>
<rect x="120" y="299" width="401" height="40" rx="8" fill="#ECF1F9"/>
</svg>
