<svg xmlns="http://www.w3.org/2000/svg" width="16" height="16" viewBox="0 0 16 16">
  <path fill-rule="evenodd" d="M8 3a2 2 0 0 1 1.73 3h.77a1.5 1.5 0 0 1 0 3h-.278l.66 1.764A1.655 1.655 0 0 1 8 12.325a1.655 1.655 0 0 1-2.883-1.561L5.778 9H5.5a1.5 1.5 0 1 1 0-3h.77A2 2 0 0 1 8 3ZM5.5 7a.5.5 0 0 0 0 1h1.722l-1.168 3.114a.655.655 0 1 0 1.235.438L8 9.419l.71 2.133a.656.656 0 1 0 1.236-.438L8.778 8H10.5a.5.5 0 0 0 0-1h-5ZM8 4a1 1 0 1 0 0 2 1 1 0 0 0 0-2Z" clip-rule="evenodd"/>
  <path fill-rule="evenodd" d="M8 1a7 7 0 1 1 0 14A7 7 0 0 1 8 1Zm0 1a6 6 0 1 0 0 12A6 6 0 0 0 8 2Z" clip-rule="evenodd"/>
</svg>
