<svg xmlns="http://www.w3.org/2000/svg" width="16" height="16" viewBox="0 0 16 16">
  <path d="m8.5 9.207 3.854-3.853-.708-.708L8.5 7.793l-2-2-3.854 3.853.708.708L6.5 7.207zM14 13h2v1h-2v2h-1v-2h-2v-1h2v-2h1z"/>
  <mask id="a" width="13" height="13" x="1" y="1" maskUnits="userSpaceOnUse" style="mask-type:alpha">
    <path fill-rule="evenodd" d="M13.072 1c.464 0 .928.542.928 1.083v10.834c0 .541-.464 1.083-.929 1.083H1.931C1.464 14 1 13.567 1 12.917V2.083C1 1.542 1.467 1 1.93 1zM1.93 12.917h11.14V2.083H1.932z"/>
  </mask>
  <g mask="url(#a)">
    <path d="M1-.083h13.464V9H9v5H1z"/>
  </g>
</svg>
