<svg xmlns="http://www.w3.org/2000/svg" width="32" height="32" viewBox="0 0 32 32">
  <g>
    <path class="euiIcon__fillSecondary" d="M16,20 C13.790861,20 12,18.209139 12,16 C12,13.790861 13.790861,12 16,12 C18.209139,12 20,13.790861 20,16 C20,17.060866 19.5785726,18.0782816 18.8284271,18.8284271 C18.0782816,19.5785726 17.060866,20 16,20 Z M16,14 C14.8954305,14 14,14.8954305 14,16 C14,17.1045695 14.8954305,18 16,18 C17.1045695,18 18,17.1045695 18,16 C18,14.8954305 17.1045695,14 16,14 Z"/>
    <path d="M8 4C8 1.790861 6.209139 1.3527075e-16 4 0 1.790861-1.3527075e-16 2.705415e-16 1.790861 0 4-2.705415e-16 6.209139 1.790861 8 4 8 4.70526179 7.98965756 5.39524882 7.79301125 6 7.43L11.27 12.7 12.68 11.29 7.43 6C7.79301125 5.39524882 7.98965756 4.70526179 8 4zM4 6C2.8954305 6 2 5.1045695 2 4 2 2.8954305 2.8954305 2 4 2 5.1045695 2 6 2.8954305 6 4 6 4.53043298 5.78928632 5.03914081 5.41421356 5.41421356 5.03914081 5.78928632 4.53043298 6 4 6zM20.71 12.71L26 7.43C26.6047512 7.79301125 27.2947382 7.98965756 28 8 30.209139 8 32 6.209139 32 4 32 1.790861 30.209139 1.3527075e-16 28 0 25.790861-1.3527075e-16 24 1.790861 24 4 24.0103424 4.70526179 24.2069887 5.39524882 24.57 6L19.3 11.27 20.71 12.71zM28 2C29.1045695 2 30 2.8954305 30 4 30 5.1045695 29.1045695 6 28 6 26.8954305 6 26 5.1045695 26 4 26 2.8954305 26.8954305 2 28 2zM11.29 19.29L6 24.57C5.39524882 24.2069887 4.70526179 24.0103424 4 24 1.790861 24 2.705415e-16 25.790861 0 28-2.705415e-16 30.209139 1.790861 32 4 32 6.209139 32 8 30.209139 8 28 7.98965756 27.2947382 7.79301125 26.6047512 7.43 26L12.7 20.73 11.29 19.29zM4 30C2.8954305 30 2 29.1045695 2 28 2 26.8954305 2.8954305 26 4 26 5.1045695 26 6 26.8954305 6 28 6 29.1045695 5.1045695 30 4 30zM28 24C27.2947382 24.0103424 26.6047512 24.2069887 26 24.57L20.73 19.3 19.32 20.71 24.57 26C24.2069887 26.6047512 24.0103424 27.2947382 24 28 24 30.209139 25.790861 32 28 32 30.209139 32 32 30.209139 32 28 32 25.790861 30.209139 24 28 24zM28 30C26.8954305 30 26 29.1045695 26 28 26 26.8954305 26.8954305 26 28 26 29.1045695 26 30 26.8954305 30 28 30 29.1045695 29.1045695 30 28 30z"/>
  </g>
</svg>
