<svg xmlns="http://www.w3.org/2000/svg" width="32" height="32" viewBox="0 0 32 32">
  <path d="M14,32 L13.64,31.86 C5.40770859,28.7577886 -0.0306724145,20.8673517 -8.8823263e-16,12.07 L-8.8823263e-16,5.44 L14,0.06 L28,5.44 L28,12.07 C28.0264911,20.8636969 22.5888536,28.7490686 14.36,31.85 L14,32 Z M2,6.82 L2,12.07 C1.97860307,19.8933432 6.73516378,26.9370168 14,29.84 C21.2648362,26.9370168 26.0213969,19.8933432 26,12.07 L26,6.82 L14,2.2 L2,6.82 Z"/>
  <rect width="2" height="5.17" x="9" y="17.83" class="euiIcon__fillSecondary"/>
  <path class="euiIcon__fillSecondary" d="M11,10.18 L11,7 L9,7 L9,10.18 C7.62245331,10.6670363 6.79612791,12.0756662 7.04320432,13.5157331 C7.29028073,14.9557999 8.5388911,16.0084271 10,16.0084271 C11.4611089,16.0084271 12.7097193,14.9557999 12.9567957,13.5157331 C13.2038721,12.0756662 12.3775467,10.6670363 11,10.18 Z M10,14 C9.44771525,14 9,13.5522847 9,13 C9,12.4477153 9.44771525,12 10,12 C10.5522847,12 11,12.4477153 11,13 C11,13.5522847 10.5522847,14 10,14 Z"/>
  <rect width="2" height="5.17" x="17" y="7" class="euiIcon__fillSecondary"/>
  <path class="euiIcon__fillSecondary" d="M21,17 C21.0042865,15.4732917 19.8613086,14.1868612 18.3447053,14.0114451 C16.8281019,13.836029 15.4216438,14.827582 15.0773096,16.314959 C14.7329755,17.8023361 15.5606021,19.3110892 17,19.82 L17,23 L19,23 L19,19.82 C20.1957287,19.3972517 20.9964356,18.2682549 21,17 Z M18,18 C17.4477153,18 17,17.5522847 17,17 C17,16.4477153 17.4477153,16 18,16 C18.5522847,16 19,16.4477153 19,17 C19,17.5522847 18.5522847,18 18,18 Z"/>
</svg>
