<svg xmlns="http://www.w3.org/2000/svg" width="32" height="32" viewBox="0 0 32 32">
  <g>
    <path class="euiIcon__fillSecondary" d="M4.21618422,12.3774411 C3.20713028,13.7136935 2.49594427,15.2874631 2.18137623,17 L0.152896362,17 C0.506775805,14.7082028 1.45922982,12.6140165 2.84552418,10.8821756 L4.21618422,12.3774411 Z M7.16422435,9.67391373 L5.79352316,8.17860333 C7.85609268,6.80230199 10.3343525,6 13,6 L13,8 C10.8562203,8 8.85567468,8.61325828 7.16422435,9.67391373 Z"/>
    <path d="M26,4.41421356 L26,19 C26,26.1797017 20.1797017,32 13,32 C6.5004278,32 1.11490671,27.2301801 0.152896362,21 L2.18137623,21 C3.1218889,26.1202361 7.60786074,30 13,30 C19.0751322,30 24,25.0751322 24,19 L24,4.41421356 L19.7071068,8.70710678 L18.2928932,7.29289322 L25,0.585786438 L31.7071068,7.29289322 L30.2928932,8.70710678 L26,4.41421356 Z M18.1644755,14.3229229 L19.6362996,15.6770771 L12.0592992,23.9124846 L7.22381534,19.4697096 L8.57695981,17.9969571 L11.9407008,21.0875154 L18.1644755,14.3229229 Z"/>
  </g>
</svg>
