<svg xmlns="http://www.w3.org/2000/svg" width="32" height="32" viewBox="0 0 32 32">
  <g transform="translate(1)">
    <polygon points="16 18 16 16 14 16 14 18 2 18 2 24 4 24 4 20 14 20 14 24 16 24 16 20 26 20 26 24 28 24 28 18"/>
    <path class="euiIcon__fillSecondary" d="M3 32C1.34314575 32-6.66133815e-16 30.6568542-8.8817842e-16 29-1.11022302e-15 27.3431458 1.34314575 26 3 26 4.65685425 26 6 27.3431458 6 29 6 30.6568542 4.65685425 32 3 32zM3 28C2.44771525 28 2 28.4477153 2 29 2 29.5522847 2.44771525 30 3 30 3.55228475 30 4 29.5522847 4 29 4 28.4477153 3.55228475 28 3 28zM15 32C13.3431458 32 12 30.6568542 12 29 12 27.3431458 13.3431458 26 15 26 16.6568542 26 18 27.3431458 18 29 18 30.6568542 16.6568542 32 15 32zM15 28C14.4477153 28 14 28.4477153 14 29 14 29.5522847 14.4477153 30 15 30 15.5522847 30 16 29.5522847 16 29 16 28.4477153 15.5522847 28 15 28zM27 32C25.3431458 32 24 30.6568542 24 29 24 27.3431458 25.3431458 26 27 26 28.6568542 26 30 27.3431458 30 29 30 30.6568542 28.6568542 32 27 32zM27 28C26.4477153 28 26 28.4477153 26 29 26 29.5522847 26.4477153 30 27 30 27.5522847 30 28 29.5522847 28 29 28 28.4477153 27.5522847 28 27 28zM22 8L22 6 19.9 6C19.7705156 5.37544429 19.5227274 4.78143151 19.17 4.25L20.66 2.76 19.24 1.34 17.75 2.83C17.2185685 2.47727262 16.6245557 2.22948443 16 2.1L16 0 14 0 14 2.1C13.3754443 2.22948443 12.7814315 2.47727262 12.25 2.83L10.76 1.34 9.34 2.76 10.83 4.25C10.4772726 4.78143151 10.2294844 5.37544429 10.1 6L8 6 8 8 10.1 8C10.2294844 8.62455571 10.4772726 9.21856849 10.83 9.75L9.34 11.24 10.75 12.65 12.24 11.16C12.7736889 11.5174254 13.3712476 11.7686717 14 11.9L14 14 16 14 16 11.9C16.6245557 11.7705156 17.2185685 11.5227274 17.75 11.17L19.24 12.66 20.65 11.25 19.17 9.75C19.5227274 9.21856849 19.7705156 8.62455571 19.9 8L22 8zM15 10C13.3431458 10 12 8.65685425 12 7 12 5.34314575 13.3431458 4 15 4 16.6568542 4 18 5.34314575 18 7 18 7.79564947 17.6839295 8.55871121 17.1213203 9.12132034 16.5587112 9.68392948 15.7956495 10 15 10z"/>
    <path d="M15,8 C14.4477153,8 14,7.55228475 14,7 C13.9951976,6.93341982 13.9951976,6.86658018 14,6.8 C14.0110881,6.73738824 14.0313034,6.67674229 14.06,6.62 C14.0816633,6.55618159 14.1119433,6.49562171 14.15,6.44 C14.1869789,6.38765618 14.2270502,6.33756705 14.27,6.29 C14.3638689,6.19739731 14.4763566,6.12581424 14.6,6.08 C14.9723971,5.92340327 15.4024393,6.00625544 15.69,6.29 L15.81,6.44 C15.8476468,6.49586192 15.8778986,6.55636537 15.9,6.62 C15.9431335,6.67400659 15.9769328,6.73484546 16,6.8 C16.0052575,6.86656301 16.0052575,6.93343699 16,7 C16,7.55228475 15.5522847,8 15,8 Z"/>
  </g>
</svg>
