<svg width="32" height="32" viewBox="0 0 32 32" fill="none" xmlns="http://www.w3.org/2000/svg">
  <path fill-rule="evenodd" clip-rule="evenodd" d="M0 1H24V6.72043H22V3H2V27H0V1Z" class="euiIcon__fillSecondary"/>
  <path fill-rule="evenodd" clip-rule="evenodd" d="M1.49743 30.0902C0.588401 29.415 0 28.3679 0 27H2C2 27.7321 2.2866 28.185 2.69007 28.4848C3.13039 28.8119 3.77842 29 4.5 29C5.51465 29 6.11857 28.6947 6.46556 28.3515C6.81988 28.0011 7 27.5194 7 27H9C9 27.9806 8.65512 28.9989 7.87194 29.7735C7.08143 30.5553 5.93535 31 4.5 31C3.47158 31 2.36961 30.7381 1.49743 30.0902Z" class="euiIcon__fillSecondary"/>
  <path fill-rule="evenodd" clip-rule="evenodd" d="M7.06122 14H31V19.1046H29V16H9.06122V27.0017H7.06122V14ZM5 29L16.2245 29L16.2245 31H5V29Z" class="euiIcon__fillSecondary"/>
  <path fill-rule="evenodd" clip-rule="evenodd" d="M9.83333 12H7V10H9.83333V12ZM24 12H10.8636V10H24V12Z" />
  <path fill-rule="evenodd" clip-rule="evenodd" d="M4 6H27V12.8974H25V8H6V27H4V6Z" />
  <path fill-rule="evenodd" clip-rule="evenodd" d="M23 30C25.7614 30 28 27.7614 28 25C28 22.2386 25.7614 20 23 20C20.2386 20 18 22.2386 18 25C18 27.7614 20.2386 30 23 30ZM23 32C26.866 32 30 28.866 30 25C30 21.134 26.866 18 23 18C19.134 18 16 21.134 16 25C16 28.866 19.134 32 23 32Z" class="euiIcon__fillSecondary"/>
  <path fill-rule="evenodd" clip-rule="evenodd" d="M21.9006 28.9361V20.9565H23.9006V28.9361H21.9006Z" class="euiIcon__fillSecondary"/>
  <path fill-rule="evenodd" clip-rule="evenodd" d="M26.8902 25.9463H18.9106V23.9463H26.8902V25.9463Z" class="euiIcon__fillSecondary"/>
</svg>
