<svg xmlns="http://www.w3.org/2000/svg" width="32" height="32" viewBox="0 0 32 32">
  <g transform="translate(0 1)">
    <path class="euiIcon__fillSecondary" d="M4.14060606,14.390303 C3.02924121,13.2851724 2.26427713,11.87993 1.93939394,10.3466667 C1.68367533,8.13593317 2.52788184,5.9402716 4.19878788,4.47030303 C6.66091134,2.26604257 10.3591783,2.17564049 12.9260606,4.2569697 L14.1866667,2.79272727 C10.8869724,0.0713407896 6.09370517,0.17025602 2.90909091,3.02545455 C0.778697556,4.93212257 -0.282716334,7.76135209 0.0678787879,10.5987879 C0.450344528,12.5968747 1.42314199,14.4343811 2.86060606,15.8739394 L4.14060606,14.390303 Z"/>
    <path d="M15.5151515,30.2739394 L4.54787879,17.4545455 L15.8545455,3.76242424 C17.3791659,2.03180661 19.530569,0.98007398 21.8327133,0.839943457 C24.1348576,0.699812935 26.3979416,1.48283765 28.1212121,3.01575758 C30.1654836,4.82943395 31.2421508,7.49597975 31.030303,10.2206061 C30.7878788,12.9163636 28.9939394,14.9527273 27.5490909,16.5915152 L15.5151515,30.2739394 Z M7.08848485,17.4545455 L15.5151515,27.3163636 L26.0654545,15.3212121 C27.3842424,13.8181818 28.8872727,12.1115152 29.0715152,10.0557576 C29.2360501,7.94660005 28.4077883,5.88132396 26.8315152,4.47030303 C25.4969512,3.28427125 23.7457795,2.67717901 21.9634761,2.78266228 C20.1811726,2.88814554 18.5138348,3.69755773 17.3284848,5.03272727 L7.08848485,17.4545455 Z"/>
  </g>
</svg>
