<svg xmlns="http://www.w3.org/2000/svg" xmlns:xlink="http://www.w3.org/1999/xlink" width="16" height="16" viewBox="0 0 16 16">
  <path d="M5.27726043,10.0883785 C5.29709934,10.1023279 5.31623158,10.1179445 5.33448667,10.1352375 C5.91552612,10.6856578 6.46821849,10.9474413 7.0000043,10.9474413 C7.58613583,10.9474413 8.84002099,10.6539049 10.7133671,10.0672903 L9,6.21221445 L9,2 L7,2 L7,6.21221445 L5.27726043,10.0883785 Z M4.83869746,11.0751452 L3.53876198,14 L12.461238,14 L11.141734,11.031116 C9.09543356,11.6772032 7.73218741,12 7.0000043,12 C6.25978567,12 5.53739673,11.6846654 4.83869746,11.0751452 Z M6,2 L5,2 L5,1 L11,1 L11,2 L10,2 L10,6 L13.3750496,13.5938615 C13.5993537,14.0985457 13.3720607,14.6895075 12.8673765,14.9138115 C12.7395175,14.9706378 12.6011564,15 12.461238,15 L3.53876198,15 C2.98647723,15 2.53876198,14.5522847 2.53876198,14 C2.53876198,13.8600817 2.56812421,13.7217205 2.62495043,13.5938615 L6,6 L6,2 Z"/>
</svg>
