<svg width="16" height="16" viewBox="0 0 16 16" xmlns="http://www.w3.org/2000/svg">
<path d="M7.99999 6.39448H9.02953C9.7502 6.39448 10.313 6.5472 10.718 6.85263C11.1229 7.15806 11.394 7.54585 11.5313 8.01601C11.6686 8.48616 11.696 8.96833 11.6137 9.46251C11.5141 10.0596 11.2842 10.5984 10.9239 11.0789C10.567 11.5559 10.1226 11.9351 9.59063 12.2165C9.0587 12.4945 8.48044 12.6335 7.85585 12.6335C7.47492 12.6335 7.10944 12.5631 6.75939 12.4224C6.40935 12.2783 6.12279 12.0055 5.89973 11.604L5.81736 11.6451L6.14682 9.62724C6.09191 9.96355 6.12279 10.2741 6.23947 10.559C6.35959 10.8438 6.55863 11.072 6.83661 11.2436C7.11802 11.4152 7.47149 11.501 7.89703 11.501C8.34317 11.501 8.74297 11.4066 9.09645 11.2179C9.45335 11.0291 9.74506 10.7803 9.97156 10.4715C10.1981 10.1626 10.3405 9.82628 10.3988 9.46251C10.4572 9.11933 10.4331 8.79502 10.3267 8.48959C10.2238 8.18073 10.0453 7.93021 9.79139 7.73803C9.54086 7.54242 9.22171 7.44461 8.83391 7.44461H7.82497L7.99999 6.39448ZM9.35898 1.80273C9.84973 1.80273 10.2718 1.88167 10.6253 2.03953C10.9788 2.19739 11.2636 2.41016 11.4798 2.67784C11.6995 2.94209 11.8487 3.23894 11.9277 3.5684C12.01 3.89785 12.0221 4.23588 11.9637 4.58249C11.8951 5.0149 11.7149 5.44559 11.4232 5.87456C11.1349 6.30011 10.7403 6.6553 10.2392 6.94014C9.74163 7.22154 9.14278 7.36225 8.44269 7.36225H7.84556L8.02058 6.31212H8.59712C8.99521 6.31212 9.34868 6.22975 9.65755 6.06503C9.96641 5.9003 10.2169 5.68582 10.4091 5.42157C10.6013 5.15732 10.7214 4.87763 10.7694 4.58249C10.8484 4.1089 10.7334 3.71596 10.4246 3.40367C10.1157 3.09137 9.69873 2.93523 9.17366 2.93523C8.82362 2.93523 8.49073 3.0073 8.17501 3.15143C7.86272 3.29557 7.59847 3.49633 7.38226 3.75371C7.16606 4.0111 7.02879 4.30795 6.97045 4.64426L5.18934 15.4544H3.97449L5.75559 4.64426C5.84825 4.10204 6.06445 3.61644 6.4042 3.18747C6.74395 2.75849 7.16949 2.42046 7.68083 2.17337C8.1956 1.92628 8.75498 1.80273 9.35898 1.80273Z" />
</svg>
