<svg xmlns="http://www.w3.org/2000/svg" width="16" height="16" viewBox="0 0 16 16">
  <path fill-rule="evenodd" d="M5 1a1.998 1.998 0 0 1 .5 3.934v4.163C6.105 8.476 7.053 8 8.5 8c1.654 0 2.372-.47 2.687-.83.082-.093.14-.187.185-.273a2 2 0 1 1 1.053.056 2.321 2.321 0 0 1-.487.876C11.378 8.47 10.346 9 8.5 9c-1.574 0-2.284.657-2.63 1.252a2.797 2.797 0 0 0-.313.828 2 2 0 1 1-1.057-.015V4.934A1.998 1.998 0 0 1 5 1Zm0 11a1 1 0 1 0 0 2 1 1 0 0 0 0-2Zm7-8a1 1 0 1 0 0 2 1 1 0 0 0 0-2ZM5 2a1 1 0 1 0 0 2 1 1 0 0 0 0-2Z" clip-rule="evenodd"/>
</svg>
