<svg xmlns="http://www.w3.org/2000/svg" width="16" height="16" viewBox="0 0 16 16">
  <path fill-rule="evenodd" d="M6 7.987a3.49 3.49 0 00-2.5 1.05v-4.1a2 2 0 10-1 0v6.126a2 2 0 101.034.01A2.5 2.5 0 016 8.986h1a3.5 3.5 0 003.47-3.043 2 2 0 10-1.009-.017A2.5 2.5 0 017 7.987H6zM4 3a1 1 0 11-2 0 1 1 0 012 0zm0 10a1 1 0 11-2 0 1 1 0 012 0zm7-9a1 1 0 11-2 0 1 1 0 012 0z" clip-rule="evenodd"/>
  <path d="M13.5 10.5a1.5 1.5 0 11-3 0 1.5 1.5 0 013 0zM9 15c.284-1.223 1.519-2.143 3-2.143s2.716.92 3 2.143H9z"/>
</svg>
