<svg width="16" height="16" viewBox="0 0 16 16" xmlns="http://www.w3.org/2000/svg">
<path d="M8 10C8.55228 10 9 10.4477 9 11C9 11.5523 8.55228 12 8 12C7.44772 12 7 11.5523 7 11C7 10.4477 7.44772 10 8 10Z"/>
<path fill-rule="evenodd" clip-rule="evenodd" d="M10 1C10.2652 1 10.5195 1.10543 10.707 1.29297C10.8946 1.4805 11 1.73479 11 2V4H14C14.5523 4 15 4.44772 15 5V14C15 14.2652 14.8946 14.5195 14.707 14.707C14.5195 14.8946 14.2652 15 14 15H2C1.44773 15 1.00003 14.5523 1 14V5C1 4.44772 1.44772 4 2 4H5V2C5.00003 1.44777 5.44778 1.00006 6 1H10ZM2 14H14V9H2V14ZM2 8H14V5H2V8ZM6 4H10V2H6V4Z"/>
</svg>