<svg xmlns="http://www.w3.org/2000/svg" width="16" height="16" viewBox="0 0 16 16">
  <path fill-rule="evenodd" d="M13.553.336a1.5 1.5 0 0 1 2.007 2.225L9.262 8.858c.247.293.31.703.149 1.056l-2.5 5.5a1.001 1.001 0 0 1-1.617.293l-5-5A1 1 0 0 1 .587 9.09l5.5-2.5a.997.997 0 0 1 1.054.146L13.44.44l.114-.104ZM1.001 10l1.145 1.146 1.5-1.5.707.708-1.5 1.499 1.293 1.293 1.5-1.5.707.708-1.5 1.499L6.001 15l1.34-2.951-3.39-3.39L1 10Zm3.922-1.784 2.86 2.86.618-1.358-.003.004L8.5 9.5l-2-2-1.577.716Zm9.93-7.07a.5.5 0 0 0-.707 0L7.853 7.44l.707.707 6.293-6.292a.502.502 0 0 0 .065-.63l-.065-.077Z" clip-rule="evenodd"/>
</svg>
