<svg xmlns="http://www.w3.org/2000/svg" width="16" height="16" viewBox="0 0 16 16">
  <path d="M2 14h13v1H2a1 1 0 0 1-1-1V1h1v13Z"/>
  <path fill-rule="evenodd" d="M5 10a1 1 0 0 1 1 1v1a1 1 0 0 1-1 1H4a1 1 0 0 1-1-1v-1a1 1 0 0 1 1-1h1Zm-1 2h1v-1H4v1Zm5-9a1 1 0 0 1 1 1v8a1 1 0 0 1-1 1H8a1 1 0 0 1-1-1V4a1 1 0 0 1 1-1h1Zm-1 9h1V4H8v8Zm5-3a1 1 0 0 1 1 1v2a1 1 0 0 1-1 1h-1a1 1 0 0 1-1-1v-2a1 1 0 0 1 1-1h1Zm-1 3h1v-2h-1v2Z" clip-rule="evenodd"/>
  <path d="M4 7H3V6h1v1Zm2 0H5V6h1v1Zm6 0h-1V6h1v1Zm2 0h-1V6h1v1Z"/>
</svg>
