<svg xmlns="http://www.w3.org/2000/svg" width="16" height="16" viewBox="0 0 16 16">
  <path d="M3,13 L13,13 L13,9.91320216 L10.4285232,7.08652971 L8.56068891,8.75255137 C8.34446152,8.94541619 8.01009245,8.91469507 7.83262843,8.68565874 L4.44774459,4.31710345 L3,6.19114546 L3,13 Z M8.29492153,7.64961053 L10.1323775,6.01068495 C10.3370274,5.82814675 10.6505158,5.84450779 10.8350522,6.04735771 L13.8698544,9.38333647 C13.953595,9.47538754 14,9.59535769 14,9.71979998 L14,13.5 C14,13.7761424 13.7761424,14 13.5,14 L2.5,14 C2.22385763,14 2,13.7761424 2,13.5 L2,6.02050792 C2,5.90988198 2.03668793,5.80237946 2.10431881,5.71483425 L4.05147457,3.19432633 C4.25145496,2.93546046 4.64204271,2.93517899 4.84239599,3.19375637 L8.29492153,7.64961053 Z M1,15 L14.5,15 C14.7761424,15 15,15.2238576 15,15.5 C15,15.7761424 14.7761424,16 14.5,16 L0.5,16 C0.223857625,16 0,15.7761424 0,15.5 L0,1.5 C0,1.22385763 0.223857625,1 0.5,1 C0.776142375,1 1,1.22385763 1,1.5 L1,15 Z"/>
</svg>
