<svg xmlns="http://www.w3.org/2000/svg" width="16" height="16" viewBox="0 0 16 16">
  <path d="M2 14h13v1H2a1 1 0 0 1-1-1V1h1v13Z"/>
  <path fill-rule="evenodd" d="M5 10a1 1 0 0 1 1 1v1a1 1 0 0 1-.897.995L5 13H4l-.103-.005a1 1 0 0 1-.892-.893L3 12v-1a1 1 0 0 1 1-1h1Zm-1 2h1v-1H4v1Zm9-2a1 1 0 0 1 1 1v1a1 1 0 0 1-.898.995L13 13h-1l-.102-.005a1 1 0 0 1-.893-.893L11 12v-1a1 1 0 0 1 1-1h1Zm-1 2h1v-1h-1v1Z" clip-rule="evenodd"/>
  <path d="M9 12H8v-1h1v1Z"/>
  <path fill-rule="evenodd" d="M5 6a1 1 0 0 1 1 1v1a1 1 0 0 1-.897.995L5 9H4l-.103-.005a1 1 0 0 1-.892-.892L3 8V7a1 1 0 0 1 1-1h1ZM4 8h1V7H4v1Zm5-2a1 1 0 0 1 1 1v1a1 1 0 0 1-.897.995L9 9H8l-.103-.005a1 1 0 0 1-.892-.892L7 8V7a1 1 0 0 1 1-1h1ZM8 8h1V7H8v1Z" clip-rule="evenodd"/>
  <path d="M13 8h-1V7h1v1Z"/>
  <path fill-rule="evenodd" d="M9 2a1 1 0 0 1 1 1v1a1 1 0 0 1-.897.995L9 5H8l-.103-.005a1 1 0 0 1-.892-.892L7 4V3a1 1 0 0 1 1-1h1ZM8 4h1V3H8v1Zm5-2a1 1 0 0 1 1 1v1a1 1 0 0 1-.898.995L13 5h-1l-.102-.005a1 1 0 0 1-.893-.892L11 4V3a1 1 0 0 1 1-1h1Zm-1 2h1V3h-1v1Z" clip-rule="evenodd"/>
  <path d="M5 4H4V3h1v1Z"/>
</svg>
