<svg xmlns="http://www.w3.org/2000/svg" width="16" height="16" viewBox="0 0 16 16">
  <path d="M12.8772103,5.84655446 L11.8562026,6.86756216 C11.6609405,7.06282431 11.344358,7.06282431 11.1490958,6.86756216 C10.9538337,6.67230001 10.9538337,6.35571753 11.1490958,6.16045538 L12.2485466,5.0610046 C12.1988537,5.00782756 12.1482406,4.95542864 12.0967258,4.90383233 C11.5025672,4.31061087 10.8008129,3.83641438 10.0304311,3.51058976 C9.38755834,3.23901823 8.70410671,3.07251346 8,3.01894921 L8,4.5 C8,4.77614237 7.77614237,5 7.5,5 C7.22385763,5 7,4.77614237 7,4.5 L7,3.01894874 C6.29589956,3.07251066 5.6124788,3.23900253 4.96976615,3.5105064 C4.19918712,3.83641438 3.49743285,4.31061087 2.90383233,4.90327423 C2.84780681,4.95938826 2.79285085,5.01644485 2.738988,5.07441348 L3.80982378,6.14524926 C4.00508592,6.3405114 4.00508592,6.65709389 3.80982378,6.85235604 C3.61456163,7.04761818 3.29797914,7.04761818 3.102717,6.85235604 L2.11233909,5.86197813 C1.87646035,6.21038297 1.67467819,6.58113363 1.51058976,6.96956894 C1.17498913,7.76401338 1,8.61902057 1,9.5 C1,9.66763651 1.00635055,9.8343896 1.01894921,10 L2.5,10 C2.77614237,10 3,10.2238576 3,10.5 C3,10.7761424 2.77614237,11 2.5,11 L1.17388082,11 C1.25711173,11.3525424 1.36971441,11.6969465 1.51058976,12.0304311 C1.61804722,12.2848078 1.49894564,12.5781323 1.24456894,12.6855898 C0.990192244,12.7930472 0.696867701,12.6739456 0.589410241,12.4195689 C0.202203228,11.5029603 1.687539e-14,10.5147123 1.687539e-14,9.5 C1.687539e-14,8.48464699 0.202056471,7.49738716 0.589410241,6.58043106 C0.965266146,5.69069307 1.51176868,4.88220596 2.19672577,4.19616767 C2.88141183,3.51256156 3.69065631,2.96573069 4.58043106,2.58941024 C5.49703975,2.20220323 6.4852877,2 7.5,2 C8.5147123,2 9.50296025,2.20220323 10.4197661,2.5894936 C11.3093437,2.96573069 12.1185882,3.51256156 12.8038323,4.19672577 C13.4882313,4.88220596 14.0347339,5.69069307 14.4105898,6.58043106 C14.7979435,7.49738716 15,8.48464699 15,9.5 C15,10.5147123 14.7977968,11.5029603 14.4105898,12.4195689 C14.3031323,12.6739456 14.0098078,12.7930472 13.7554311,12.6855898 C13.5010544,12.5781323 13.3819528,12.2848078 13.4894102,12.0304311 C13.6302856,11.6969465 13.7428883,11.3525424 13.8261192,11 L12.5,11 C12.2238576,11 12,10.7761424 12,10.5 C12,10.2238576 12.2238576,10 12.5,10 L13.9810508,10 C13.9936494,9.8343896 14,9.66763651 14,9.5 C14,8.61902057 13.8250109,7.76401338 13.4894102,6.96956894 C13.3228864,6.57536842 13.1175416,6.19938141 12.8772103,5.84655446 Z M6.83578644,11.1642136 C6.44526215,10.7736893 6.44067299,10.1451134 6.82553628,9.76025016 C7.21039957,9.37538687 9.70750761,7.75776015 9.97487373,8.02512627 C10.2422399,8.29249239 8.62461313,10.7896004 8.23974984,11.1744637 C7.85488656,11.559327 7.22631073,11.5547379 6.83578644,11.1642136 Z"/>
</svg>
