<svg xmlns="http://www.w3.org/2000/svg" width="16" height="16" viewBox="0 0 16 16">
  <path d="M10.7458178,5.00539515 C13.6693111,5.13397889 16,7.54480866 16,10.5 C16,13.5375661 13.5375661,16 10.5,16 L4,16 C1.790861,16 0,14.209139 0,12 C0,10.3632968 0.983004846,8.95618668 2.39082809,8.33685609 C2.20209747,7.91526722 2.07902056,7.46524082 2.02752078,7 L0.5,7 C0.223857625,7 0,6.77614237 0,6.5 C0,6.22385763 0.223857625,6 0.5,6 L2.02746439,6 C2.1234088,5.13207349 2.46618907,4.33854089 2.98405031,3.69115709 L1.64644661,2.35355339 C1.45118446,2.15829124 1.45118446,1.84170876 1.64644661,1.64644661 C1.84170876,1.45118446 2.15829124,1.45118446 2.35355339,1.64644661 L3.69115709,2.98405031 C4.33854089,2.46618907 5.13207349,2.1234088 6,2.02746439 L6,0.5 C6,0.223857625 6.22385763,8.8817842e-16 6.5,8.8817842e-16 C6.77614237,8.8817842e-16 7,0.223857625 7,0.5 L7,2.02763291 C7.86199316,2.12340881 8.65776738,2.46398198 9.30889273,2.98400049 L10.6464466,1.64644661 C10.8417088,1.45118446 11.1582912,1.45118446 11.3535534,1.64644661 C11.5488155,1.84170876 11.5488155,2.15829124 11.3535534,2.35355339 L10.0163882,3.69071859 C10.3273281,4.07929253 10.5759739,4.52210317 10.7458178,5.00539515 Z M4,15 L10.5,15 C12.9852814,15 15,12.9852814 15,10.5 C15,8.01471863 12.9852814,6 10.5,6 C8.66116238,6 7.03779702,7.11297909 6.34791295,8.76123609 C7.34903712,9.48824913 8,10.6681043 8,12 C8,12.2761424 7.77614237,12.5 7.5,12.5 C7.22385763,12.5 7,12.2761424 7,12 C7,10.3431458 5.65685425,9 4,9 C2.34314575,9 1,10.3431458 1,12 C1,13.6568542 2.34314575,15 4,15 Z M9.69118222,5.05939327 C9.13621169,3.82983527 7.90059172,3 6.5,3 C4.56700338,3 3,4.56700338 3,6.5 C3,7.04681795 3.12529266,7.57427865 3.36125461,8.05072309 C3.56924679,8.01734375 3.78259797,8 4,8 C4.51800602,8 5.01301412,8.0984658 5.46732834,8.27770144 C6.22579284,6.55947236 7.82085903,5.33623457 9.69118222,5.05939327 Z"/>
</svg>
