<svg xmlns="http://www.w3.org/2000/svg" width="16" height="16" viewBox="0 0 16 16">
  <path fill-rule="evenodd" d="M4.5 1a3.5 3.5 0 0 1 3.465 3h3.12a1.5 1.5 0 1 1 0 1h-3.12a3.482 3.482 0 0 1-.662 1.596l2.1 2.1A3.5 3.5 0 1 1 8.036 12h-3.12a1.5 1.5 0 1 1 0-.999h3.12a3.482 3.482 0 0 1 .662-1.596l-2.1-2.1A3.5 3.5 0 1 1 4.5 1Zm0 6a2.5 2.5 0 1 0 0-5 2.5 2.5 0 0 0 0 5ZM12 4.5a.5.5 0 1 0 1 0 .5.5 0 0 0-1 0Zm-.5 9.5a2.5 2.5 0 1 1 0-5 2.5 2.5 0 0 1 0 5ZM4 11.5a.5.5 0 1 1-1 0 .5.5 0 0 1 1 0Z" clip-rule="evenodd"/>
</svg>
