<svg width="16" height="16" viewBox="0 0 16 16" fill="none" xmlns="http://www.w3.org/2000/svg">
  <path fill-rule="evenodd" clip-rule="evenodd" d="M4.5 7C5.88071 7 7 5.88071 7 4.5S5.88071 2 4.5 2 2 3.11929 2 4.5 3.11929 7 4.5 7zm0-6c1.76324 0 3.22194 1.30385 3.46456 3h3.12084c.2059-.5826.7615-1 1.4146-1 .8284 0 1.5.67157 1.5 1.5S13.3284 6 12.5 6c-.6531 0-1.2087-.4174-1.4146-1H7.96456c-.08482.59296-.31826 1.13798-.66139 1.59611l2.10061 2.1008C9.9881 8.25924 10.7138 8 11.5 8c1.933 0 3.5 1.567 3.5 3.5S13.433 15 11.5 15c-1.76324 0-3.22194-1.3039-3.46456-3H4.91465c-.20592.5826-.76154 1-1.41465 1-.82843 0-1.5-.6716-1.5-1.5S2.67157 10 3.5 10c.65311 0 1.20873.4174 1.41465 1h3.12079c.08481-.5929.31821-1.13786.66127-1.59595L6.59606 7.30321C6.01178 7.74081 5.28616 8 4.5 8 2.567 8 1 6.433 1 4.5S2.567 1 4.5 1zM12 4.5c0 .27614.2239.5.5.5s.5-.22386.5-.5-.2239-.5-.5-.5-.5.22386-.5.5zm-.5 9.5C10.1193 14 9 12.8807 9 11.5S10.1193 9 11.5 9s2.5 1.1193 2.5 2.5-1.1193 2.5-2.5 2.5zM4 11.5c0 .2761-.22386.5-.5.5s-.5-.2239-.5-.5.22386-.5.5-.5.5.2239.5.5z" />
</svg>