<svg xmlns="http://www.w3.org/2000/svg" width="16" height="16" viewBox="0 0 16 16">
  <path fill-rule="evenodd" d="M8.5 9h4a1 1 0 0 1 1 1v2.065A1.999 1.999 0 1 1 11 14c0-.932.638-1.712 1.5-1.935V10h-4v2.065A1.999 1.999 0 1 1 6 14c0-.932.638-1.712 1.5-1.935V10h-4v2.065A1.999 1.999 0 1 1 1 14c0-.932.638-1.712 1.5-1.935V10a1 1 0 0 1 1-1h4V7h1v2ZM3 13a1 1 0 1 0 0 2 1 1 0 0 0 0-2Zm5 0a1 1 0 1 0 0 2 1 1 0 0 0 0-2Zm5 0a1 1 0 1 0 0 2 1 1 0 0 0 0-2ZM7 0a3 3 0 0 1 3 3c0 .648-.208 1.246-.557 1.736l1.91 1.91-.707.708-1.91-1.91A3 3 0 1 1 7 0Zm0 1a2 2 0 1 0 0 4 2 2 0 0 0 0-4Z" clip-rule="evenodd"/>
</svg>
