<svg xmlns="http://www.w3.org/2000/svg" width="16" height="16" viewBox="0 0 16 16">
  <path d="M12.9497475,1.63603897 L14.363961,3.05025253 L12.1715651,5.24255219 C12.6951083,6.03299682 13,6.98089278 13,8 C13,9.01910722 12.6951083,9.96700318 12.1715651,10.7574478 L14.363961,12.9497475 L12.9497475,14.363961 L10.7574478,12.1715651 C9.96700318,12.6951083 9.01910722,13 8,13 C6.98089278,13 6.03299682,12.6951083 5.24255219,12.1715651 L3.05025253,14.363961 L1.63603897,12.9497475 L3.8284349,10.7574478 C3.30489166,9.96700318 3,9.01910722 3,8 C3,6.98089278 3.30489166,6.03299682 3.8284349,5.24255219 L1.63603897,3.05025253 L3.05025253,1.63603897 L5.24255219,3.8284349 C6.03299682,3.30489166 6.98089278,3 8,3 C9.01910722,3 9.96700318,3.30489166 10.7574478,3.8284349 L12.9497475,1.63603897 Z M8,5 C7.58578644,5 7.19117966,5.08394661 6.83226461,5.23575487 L6.70628361,5.29251502 L6.48768737,5.40850816 L6.48768737,5.40850816 L6.35602031,5.49014516 L6.28345259,5.5393031 C6.1997004,5.5978364 6.11907535,5.66053646 6.04187811,5.7271026 L5.9286907,5.82981378 L5.78166211,5.98032197 C5.73257349,6.03418367 5.68500371,6.0903701 5.63951837,6.14827155 L5.53947583,6.28320547 L5.48997329,6.3562822 L5.42914153,6.45294572 C5.37970803,6.53491693 5.33408414,6.61944462 5.29251502,6.70628361 L5.23575487,6.83226461 C5.08394661,7.19117966 5,7.58578644 5,8 C5,8.41421356 5.08394661,8.80882034 5.23575487,9.16773539 L5.29251502,9.29371639 L5.40850816,9.51231263 L5.40850816,9.51231263 L5.49014516,9.64397969 C5.54850423,9.73289549 5.61146095,9.81852339 5.67867734,9.90052541 L5.82981378,10.0713093 L5.82981378,10.0713093 L5.98032197,10.2183379 C6.03604049,10.2691188 6.09421076,10.3182438 6.15421109,10.3651355 L6.29647824,10.4697493 C6.35009596,10.5068027 6.4049792,10.542155 6.46104994,10.5757284 L6.33718034,10.4973878 L6.42875572,10.5561143 L6.42875572,10.5561143 L6.52255897,10.6115728 C6.95868326,10.858832 7.46285585,11 8,11 C8.41421356,11 8.80882034,10.9160534 9.16773539,10.7642451 L9.29272878,10.7079575 L9.50576516,10.5953099 L9.50576516,10.5953099 L9.65704188,10.5012328 L9.70765097,10.4668907 C9.76683534,10.4258442 9.82447159,10.3827226 9.88045446,10.3376312 C9.93193394,10.2961538 9.98166508,10.2533321 10.0299375,10.2089485 L9.88045446,10.3376312 L9.96940728,10.2631174 L9.96940728,10.2631174 L10.1382182,10.1042877 L10.1382182,10.1042877 L10.2180238,10.0200228 C10.2691188,9.96395951 10.3182438,9.90578924 10.3651355,9.84578891 L10.4696061,9.70372897 L10.5756523,9.53907708 C10.6232447,9.45960218 10.667263,9.37774124 10.707485,9.29371639 L10.7642451,9.16773539 C10.9160534,8.80882034 11,8.41421356 11,8 C11,7.58578644 10.9160534,7.19117966 10.7642451,6.83226461 L10.7079575,6.70727122 L10.5961887,6.49574728 L10.5961887,6.49574728 L10.4999267,6.34099217 L10.4668907,6.29234903 C10.4258442,6.23316466 10.3827226,6.17552841 10.3376312,6.11954554 C10.2961538,6.06806606 10.2533321,6.01833492 10.2089485,5.97006253 L10.3376312,6.11954554 L10.2631174,6.03059272 L10.2631174,6.03059272 L10.1042877,5.86178181 L10.1042877,5.86178181 L10.0200228,5.78197621 C9.96395951,5.73088122 9.90578924,5.68175615 9.84578891,5.63486449 L9.66281966,5.5026122 L9.53907708,5.42434766 C9.45960218,5.37675528 9.37774124,5.33273703 9.29371639,5.29251502 L9.16773539,5.23575487 C8.80882034,5.08394661 8.41421356,5 8,5 Z"/>
</svg>
