<svg xmlns="http://www.w3.org/2000/svg" width="16" height="16" viewBox="0 0 16 16">
  <path fill-rule="evenodd" d="M5.14228037,11.0742125 L3.23043281,11.622426 C1.88627467,12.0078572 0.484165522,11.2306554 0.0987343768,9.88649722 C-0.286696768,8.54233908 0.490505024,7.14022993 1.83466317,6.75479879 L3.78171406,6.19649093 C4.73049374,5.92443273 5.70814636,6.23163334 6.33674869,6.90860647 L7.86641544,1.57402457 C8.00553879,1.08884376 8.46629811,0.676991552 9.02568663,0.3364033 C9.29620276,0.171697348 9.54608194,0.0584557438 9.80489693,0.0163373829 C10.6185366,-0.116070585 11.3079672,0.574262924 11.0661457,1.43796091 L9.57367776,6.64281516 L14.5620391,5.21242556 C15.4257371,4.97060411 16.1160706,5.66003471 15.9836626,6.47367433 C15.9415443,6.73248932 15.8283027,6.9823685 15.6635967,7.25288464 C15.3230084,7.81227315 14.9111562,8.27303247 14.4259754,8.41215583 L9.52293007,9.81808146 C10.0917332,10.4456677 10.3327122,11.3442289 10.0820803,12.2182859 L9.52377248,14.1653368 C9.13834133,15.509495 7.73623218,16.2866968 6.39207404,15.9012656 C5.0479159,15.5158345 4.2707141,14.1137253 4.65614525,12.7695672 L5.14228037,11.0742125 Z M5.47145265,9.92625237 L5.95119576,8.25318933 C5.94763108,8.23930935 5.94386212,8.22543636 5.93988705,8.21157365 C5.70862836,7.40507876 4.86736287,6.93875769 4.06086799,7.17001637 L2.1138171,7.72832423 C1.30732221,7.95958292 0.841001135,8.80084841 1.07225982,9.6073433 C1.30351851,10.4138382 2.144784,10.8801593 2.95127888,10.6489006 L5.47145265,9.92625237 Z M9.24450548,7.79077534 L8.91533319,8.93873552 L14.1468215,7.43863038 C14.47133,7.34557907 15.3288325,6.04943157 14.841193,6.18595101 L9.24450548,7.79077534 Z M5.62967069,13.0487211 C5.39841201,13.855216 5.86473308,14.6964815 6.67122797,14.9277402 C7.47772285,15.1589989 8.31898834,14.6926778 8.55024703,13.8861829 L9.10855489,11.939132 C9.33981358,11.1326371 8.8734925,10.2913716 8.06699761,10.060113 C7.89632136,10.0111723 7.72408787,9.99347355 7.55640831,10.0036292 L10.0926203,1.15880698 C10.2291397,0.671167524 8.93299219,1.52867001 8.83994088,1.8531785 L5.62967069,13.0487211 Z M6.60319614,13.327875 L7.161504,11.3808242 C7.23859023,11.1119925 7.51901206,10.9565522 7.78784369,11.0336384 C8.05667531,11.1107246 8.21211567,11.3911465 8.13502944,11.6599781 L7.57672158,13.607029 C7.49963536,13.8758606 7.21921353,14.031301 6.9503819,13.9542147 C6.68155027,13.8771285 6.52610991,13.5967067 6.60319614,13.327875 Z M2.67212495,9.67537512 C2.40329333,9.75246135 2.1228715,9.59702099 2.04578527,9.32818937 C1.96869904,9.05935774 2.1241394,8.77893591 2.39297103,8.70184968 L4.34002192,8.14354182 C4.60885354,8.06645559 4.88927537,8.22189595 4.9663616,8.49072758 C5.04344783,8.75955921 4.88800747,9.03998104 4.61917585,9.11706727 L2.67212495,9.67537512 Z"/>
</svg>
