<svg xmlns="http://www.w3.org/2000/svg" width="16" height="16" viewBox="0 0 16 16">
	<path d="M7.01436 14.2223C7.07439 13.8407 7.43288 13.5844 7.81903 13.5968C7.87934 13.5987 7.93993 13.5997 8.00079 13.5997V14.9997C7.86663 14.9997 7.73337 14.9958 7.6011 14.9882C7.2153 14.966 6.95433 14.6041 7.01436 14.2223ZM8.98662 14.2229C9.04624 14.6044 8.78531 14.9659 8.39982 14.9882C8.26777 14.9958 8.13473 14.9997 8.00079 14.9997V13.5997C8.06147 13.5997 8.1219 13.5987 8.18204 13.5968C8.56837 13.5845 8.92694 13.841 8.98662 14.2229ZM3.18685 11.9856C3.3096 11.6826 3.72315 11.6293 3.94885 11.8657C4.03695 11.958 4.12817 12.0473 4.22233 12.1335C4.47896 12.3682 4.5436 12.7598 4.3386 13.0408L4.30044 13.0931L4.02614 12.6036C3.96532 12.4951 3.79997 12.5383 3.79997 12.6627C3.79997 12.7614 3.6873 12.8183 3.60589 12.7625C3.32703 12.571 3.42905 12.6718 3.22829 12.3808C3.15007 12.2674 3.13141 12.1224 3.18314 11.9947L3.18685 11.9856ZM13.0981 11.7022C13.4098 11.9294 13.4809 12.3689 13.2241 12.6567C13.0463 12.8561 12.8573 13.0451 12.658 13.2229C12.3701 13.4797 11.9306 13.4086 11.7035 13.0969C11.4761 12.7849 11.5484 12.3505 11.83 12.0865C11.9186 12.0034 12.0046 11.9174 12.0877 11.8288C12.3517 11.5471 12.7861 11.4749 13.0981 11.7022ZM1.01235 7.60061C1.03355 7.21443 1.39518 6.9531 1.77726 7.01313C2.15933 7.07316 2.41656 7.4321 2.40464 7.81868C2.40093 7.93898 2.40093 8.05965 2.40463 8.17995C2.41652 8.5667 2.15895 8.92573 1.77666 8.98542C1.39483 9.04503 1.03367 8.78374 1.01243 8.39786C0.997838 8.13288 0.997808 7.86559 1.01235 7.60061ZM14.9878 8.39845C14.9665 8.78398 14.6056 9.04502 14.2241 8.9854C13.8423 8.92572 13.585 8.56706 13.5969 8.18072C13.6007 8.05991 13.6006 7.93872 13.5969 7.81791C13.5849 7.43174 13.8419 7.07317 14.2235 7.01314C14.6053 6.95311 14.9666 7.21418 14.9878 7.60003C15.0024 7.8654 15.0024 8.13308 14.9878 8.39845ZM4.29736 2.90146C4.52515 3.21386 4.45279 3.64893 4.17078 3.91342C4.08269 3.99604 3.99726 4.08147 3.91464 4.16956C3.65015 4.45157 3.21508 4.52393 2.90268 4.29614C2.59064 4.06862 2.5195 3.62857 2.77664 3.34044C2.95412 3.14157 3.14279 2.9529 3.34166 2.77542C3.62979 2.51828 4.06984 2.58942 4.29736 2.90146ZM11.7032 2.90186C11.9305 2.58965 12.3705 2.51831 12.6586 2.77545C12.8577 2.95312 13.0465 3.14201 13.2242 3.34113C13.481 3.62896 13.4101 4.06849 13.0985 4.29592C12.7864 4.52379 12.3514 4.45159 12.0871 4.1697C12.0042 4.08134 11.9185 3.99566 11.8301 3.91281C11.5484 3.64864 11.4759 3.21412 11.7032 2.90186ZM8.39908 1.01121C8.78496 1.03245 9.04625 1.3936 8.98664 1.77544C8.92695 2.15773 8.56792 2.4153 8.18117 2.40341C8.06087 2.39971 7.9402 2.39971 7.8199 2.40342C7.43332 2.41534 7.07438 2.15811 7.01435 1.77604C6.95432 1.39396 7.21565 1.03233 7.60183 1.01113C7.86681 0.996587 8.13411 0.996618 8.39908 1.01121Z" />
	<path d="M3.37618 13.1777C3.17687 12.9999 2.98782 12.8108 2.81 12.6115C2.55322 12.3237 2.62433 11.8842 2.93604 11.657C3.24803 11.4296 3.68242 11.5019 3.94647 11.7835C4.02956 11.8722 4.11551 11.9581 4.20414 12.0412C4.48578 12.3053 4.55807 12.7397 4.33069 13.0516C4.10351 13.3633 3.664 13.4345 3.37618 13.1777Z" />
</svg>

