<svg xmlns="http://www.w3.org/2000/svg" width="16" height="16" viewBox="0 0 16 16">
  <path d="M8.50527808,8.99473346 L14.9584808,2.5556488 L13.4584808,1.0556488 L7.00529149,7.49472008 L8.50527808,8.99473346 Z M12.9682532,0.190086059 C13.2259779,-0.0478468896 13.6252088,-0.0693312646 13.8772369,0.190086059 L15.8057739,2.11865749 C16.0571266,2.36937177 16.0571266,2.7769432 15.8057739,3.02765749 L9.02587454,9.81164286 C8.9056624,9.9325 8.74173675,10 8.57138265,10 L6.64284566,10 C6.28799486,10 6,9.712 6,9.35714286 L6,7.42857143 C6,7.25821429 6.06749879,7.09428571 6.18835378,6.97407143 L12.9682532,0.190086059 Z M4.5,13 C4.22385763,13 4,12.7761424 4,12.5 C4,12.2238576 4.22385763,12 4.5,12 L11.5,12 C11.7761424,12 12,12.2238576 12,12.5 C12,12.7761424 11.7761424,13 11.5,13 L4.5,13 Z M8.5,1 C8.77614237,1 9,1.22385763 9,1.5 C9,1.77614237 8.77614237,2 8.5,2 L2,2 L2,15 L14,15 L14,7.5 C14,7.22385763 14.2238576,7 14.5,7 C14.7761424,7 15,7.22385763 15,7.5 L15,15 C15,15.5522847 14.5522847,16 14,16 L2,16 C1.44771525,16 1,15.5522847 1,15 L1,2 C1,1.44771525 1.44771525,1 2,1 L8.5,1 Z"/>
</svg>
