<svg width="16" height="16" viewBox="0 0 16 16" fill="none" xmlns="http://www.w3.org/2000/svg">
<path fill-rule="evenodd" clip-rule="evenodd" d="M2.23214 14.0425C1.93252 13.7565 1.92148 13.2818 2.20748 12.9821L6.79839 8.17262C6.89061 8.07601 6.89061 7.92399 6.79839 7.82738L2.20748 3.01786C1.92148 2.71823 1.93252 2.24349 2.23214 1.95748C2.53177 1.67148 3.00651 1.68252 3.29252 1.98214L7.88343 6.79167C8.52893 7.46791 8.52893 8.53209 7.88343 9.20833L3.29252 14.0179C3.00651 14.3175 2.53177 14.3285 2.23214 14.0425Z" />
<path fill-rule="evenodd" clip-rule="evenodd" d="M8.23214 14.0425C7.93252 13.7565 7.92148 13.2818 8.20748 12.9821L12.7984 8.17262C12.8906 8.07601 12.8906 7.92399 12.7984 7.82738L8.20748 3.01786C7.92148 2.71823 7.93252 2.24349 8.23214 1.95748C8.53177 1.67148 9.00651 1.68252 9.29252 1.98214L13.8834 6.79167C14.5289 7.46791 14.5289 8.53209 13.8834 9.20833L9.29252 14.0179C9.00651 14.3175 8.53177 14.3285 8.23214 14.0425Z" />
</svg>
