<svg width="16" height="16" viewBox="0 0 16 16" fill="none" xmlns="http://www.w3.org/2000/svg">
<path fill-rule="evenodd" clip-rule="evenodd" d="M8.13504 14.0425C8.43467 13.7565 8.44571 13.2818 8.1597 12.9821L3.56879 8.17262C3.47658 8.07601 3.47658 7.92399 3.56879 7.82738L8.1597 3.01786C8.44571 2.71823 8.43467 2.24349 8.13504 1.95748C7.83542 1.67148 7.36067 1.68252 7.07467 1.98214L2.48376 6.79167C1.83826 7.46791 1.83826 8.53209 2.48376 9.20833L7.07467 14.0179C7.36067 14.3175 7.83542 14.3285 8.13504 14.0425Z" />
<path fill-rule="evenodd" clip-rule="evenodd" d="M14.135 14.0425C14.4347 13.7565 14.4457 13.2818 14.1597 12.9821L9.56879 8.17262C9.47658 8.07601 9.47658 7.92399 9.56879 7.82738L14.1597 3.01786C14.4457 2.71823 14.4347 2.24349 14.135 1.95748C13.8354 1.67148 13.3607 1.68252 13.0747 1.98214L8.48376 6.79167C7.83826 7.46791 7.83826 8.53209 8.48376 9.20833L13.0747 14.0179C13.3607 14.3175 13.8354 14.3285 14.135 14.0425Z" />
</svg>
