<svg xmlns="http://www.w3.org/2000/svg" xmlns:xlink="http://www.w3.org/1999/xlink" width="16" height="16" viewBox="0 0 16 16">
  <path d="M10.0226104,10 L11.2973722,10 C11.3034551,10.080871 11.3064965,10.1642043 11.3064965,10.25 C11.3064965,10.6323549 11.2305169,10.9901944 11.0785554,11.3235294 C10.9265938,11.6568644 10.7084587,11.9485282 10.4241436,12.1985294 C10.1398284,12.4485307 9.79669462,12.6446071 9.39473182,12.7867647 C8.99276903,12.9289223 8.53689124,13 8.02708477,13 C7.3506108,13 6.72316609,12.8725503 6.14473182,12.6176471 C5.56629756,12.3627438 5.06630256,12.0147081 4.64473182,11.5735294 C4.45175606,11.3150174 4.45175606,11.0739635 4.64473182,10.8503679 C4.83770759,10.6267722 5.08280563,10.5835123 5.38002594,10.7205882 C5.72316491,11.0833351 6.12757263,11.3749989 6.59326124,11.5955882 C7.05894984,11.8161776 7.54178815,11.9264706 8.04179065,11.9264706 C8.67904874,11.9264706 9.17414182,11.7818642 9.52708477,11.4926471 C9.88002771,11.2034299 10.0564965,10.8235318 10.0564965,10.3529412 C10.0564965,10.225327 10.0452012,10.1076802 10.0226104,10 Z M5.58567021,7 C5.47124521,6.8485238 5.37328586,6.67940692 5.29179065,6.49264706 C5.174143,6.22303787 5.11532006,5.91176647 5.11532006,5.55882353 C5.11532006,5.19607662 5.19129969,4.85784471 5.34326124,4.54411765 C5.49522278,4.23039059 5.70600499,3.95833449 5.97561418,3.72794118 C6.24522337,3.49754787 6.56384763,3.31862809 6.93149653,3.19117647 C7.29914543,3.06372485 7.70355315,3 8.14473182,3 C8.72316609,3 9.25747447,3.11029301 9.747673,3.33088235 C10.2378715,3.55147169 10.654534,3.83823353 10.997673,4.19117647 C11.1575623,4.47251925 11.1575623,4.7032362 10.997673,4.88332734 C10.8377838,5.06341848 10.6171955,5.0974074 10.3359083,4.98529412 C10.0417892,4.70097897 9.71581205,4.47794199 9.35796712,4.31617647 C9.00012219,4.15441096 8.59571447,4.07352941 8.14473182,4.07352941 C7.60551344,4.07352941 7.17169425,4.19852816 6.84326124,4.44852941 C6.51482822,4.69853066 6.35061418,5.04411544 6.35061418,5.48529412 C6.35061418,5.72058941 6.39718234,5.91911684 6.49032006,6.08088235 C6.58345778,6.24264787 6.70845653,6.38480331 6.86532006,6.50735294 C7.02218359,6.62990257 7.1937505,6.73774463 7.38002594,6.83088235 C7.49874507,6.89024192 7.61945417,6.94661424 7.74215473,7 L5.58567021,7 Z M2.5,8 L13.5,8 C13.7761424,8 14,8.22385763 14,8.5 C14,8.77614237 13.7761424,9 13.5,9 L2.5,9 C2.22385763,9 2,8.77614237 2,8.5 C2,8.22385763 2.22385763,8 2.5,8 Z" />
</svg>
