<svg width="16" height="16" viewBox="0 0 16 16" fill="none" xmlns="http://www.w3.org/2000/svg">
<path fill-rule="evenodd" clip-rule="evenodd" d="M1 8C1 11.866 4.13401 15 8 15C11.866 15 15 11.866 15 8C15 4.13401 11.866 1 8 1C4.13401 1 1 4.13401 1 8ZM4.12558 12.5815C5.17092 13.4664 6.52315 14 8 14C11.3137 14 14 11.3137 14 8C14 6.52315 13.4664 5.17092 12.5815 4.12558L4.12558 12.5815ZM3.41847 11.8744L11.8744 3.41847C10.8291 2.53358 9.47685 2 8 2C4.68629 2 2 4.68629 2 8C2 9.47685 2.53358 10.8291 3.41847 11.8744Z" fill="black"/>
</svg>
