<svg xmlns="http://www.w3.org/2000/svg" xmlns:xlink="http://www.w3.org/1999/xlink" width="16" height="16" viewBox="0 0 16 16">
  <path fill-rule="nonzero" d="M8.50532094,1.00003081 C8.92662776,0.997350222 9.34852751,1.16959648 9.67075,1.51592954 L11.62075,3.56545152 C11.83375,3.79366147 11.83375,4.16600404 11.62075,4.394214 C11.40875,4.62242396 11.06275,4.62242396 10.84975,4.394214 L9,2.45109425 L9,10.4444444 C9,10.7512693 8.77614237,11 8.5,11 C8.22385763,11 8,10.7512693 8,10.4444444 L8,2.4831338 L6.18075,4.394214 C5.96775,4.62242396 5.62175,4.62242396 5.40975,4.394214 C5.19675,4.16600404 5.19675,3.79366147 5.40975,3.56545152 L7.35975,1.51592954 C7.67148887,1.18084793 8.07547011,1.00924378 8.48174282,1.00036348 C8.48780169,1.00012185 8.49388804,1 8.5,1 L8.50532094,1.00003081 Z M4.17971569,7 C3.70742974,7 3.30079901,7.29440221 3.20817611,7.70339838 L2.01924028,12.9533984 C2.00644471,13.0098999 2,13.0673795 2,13.125 C2,13.6082492 2.44358725,14 2.99077986,14 L14.0090291,14 C14.0742739,14 14.1393592,13.9943084 14.203337,13.9830081 C14.7399035,13.8882351 15.087882,13.4272632 14.9805687,12.9533984 L13.7916328,7.70339838 C13.6990099,7.29440221 13.2923792,7 12.8200932,7 L4.17971569,7 Z M6,6 L6,7 L11,7 L11,6 L12.8252599,6 C13.7709824,6 14.5852345,6.6056274 14.7707059,7.44699096 L15.96109,12.846991 C16.175978,13.8217985 15.4791733,14.7700837 14.4047332,14.9650452 C14.2766217,14.9882916 14.1462925,15 14.015644,15 L2.98397345,15 C1.88825517,15 1,14.1941125 1,13.2 C1,13.0814664 1.01290513,12.9632227 1.03852742,12.846991 L2.2289115,7.44699096 C2.41438294,6.6056274 3.22863504,6 4.17435752,6 L6,6 Z"/>
</svg>
