<svg xmlns="http://www.w3.org/2000/svg" width="16" height="16" viewBox="0 0 16 16">
  <path d="M8,16 C3.58172201,16 0,12.418278 0,8 C0,3.58172201 3.58172201,0 8,0 C12.418278,0 16,3.58172201 16,8 C16,12.418278 12.418278,16 8,16 Z M8,14.9333333 C11.8291743,14.9333333 14.9333333,11.8291743 14.9333333,8 C14.9333333,4.17082574 11.8291743,1.06666667 8,1.06666667 C4.17082574,1.06666667 1.06666667,4.17082574 1.06666667,8 C1.06666667,11.8291743 4.17082574,14.9333333 8,14.9333333 Z M5.33333333,6.4 C4.7442296,6.4 4.26666667,5.92243707 4.26666667,5.33333333 C4.26666667,4.7442296 4.7442296,4.26666667 5.33333333,4.26666667 C5.92243707,4.26666667 6.4,4.7442296 6.4,5.33333333 C6.4,5.92243707 5.92243707,6.4 5.33333333,6.4 Z M10.6666667,6.4 C10.0775629,6.4 9.6,5.92243707 9.6,5.33333333 C9.6,4.7442296 10.0775629,4.26666667 10.6666667,4.26666667 C11.2557704,4.26666667 11.7333333,4.7442296 11.7333333,5.33333333 C11.7333333,5.92243707 11.2557704,6.4 10.6666667,6.4 Z M13.1543274,10.2680484 C13.3744782,10.463738 13.3943079,10.8008432 13.1986183,11.020994 C13.0029287,11.2411449 12.6658234,11.2609746 12.4456726,11.065285 C10.9368257,9.72408769 9.45762837,9.06666667 8,9.06666667 C6.54237163,9.06666667 5.06317429,9.72408769 3.55432736,11.065285 C3.33417653,11.2609746 2.99707125,11.2411449 2.80138165,11.020994 C2.60569205,10.8008432 2.62552181,10.463738 2.84567264,10.2680484 C4.53682571,8.76480119 6.25762837,8 8,8 C9.74237163,8 11.4631743,8.76480119 13.1543274,10.2680484 Z" fillmode="evenodd"></path>
</svg>
