<svg xmlns="http://www.w3.org/2000/svg" width="16" height="16" viewBox="0 0 16 16">
  <path fill-rule="evenodd" d="M2 1h1v1.27c.918-.27 2.658-.516 5.147.252 1.726.533 3.025.527 3.877.4.427-.064.744-.16.949-.235a2.685 2.685 0 0 0 .271-.116l.007-.004L14 2.13v7.157l-.249.145L13.5 9l.251.433-.002.001-.003.002-.009.005a1.372 1.372 0 0 1-.111.056c-.072.035-.175.08-.307.128a5.83 5.83 0 0 1-1.147.285c-1 .15-2.451.144-4.32-.432-1.725-.533-3.024-.527-3.876-.4A4.818 4.818 0 0 0 3 9.325V15H2V1Zm1 7.27a6.21 6.21 0 0 1 .828-.18c1-.15 2.451-.144 4.32.432 1.725.533 3.024.527 3.876.4.427-.064.744-.16.949-.235l.027-.01V3.73a6.21 6.21 0 0 1-.828.18c-1 .15-2.451.144-4.32-.432-2.611-.806-4.256-.38-4.852-.154V8.27Z" clip-rule="evenodd"/>
</svg>
