<svg xmlns="http://www.w3.org/2000/svg" width="16" height="16" viewBox="0 0 16 16">
  <path d="M8.5 13h-1v-1h1v1Z"/>
  <path fill-rule="evenodd" d="M13 2h-1v2.47a2.5 2.5 0 0 1-1.047 2.035L8.86 8l2.093 1.495A2.5 2.5 0 0 1 12 11.53V14h1v1H3v-1h1v-2.47a2.5 2.5 0 0 1 1.047-2.035L7.139 8 5.047 6.505A2.5 2.5 0 0 1 4 4.47V2H3V1h10v1Zm-4.5 9h-1V8.97l-1.872 1.34A1.5 1.5 0 0 0 5 11.529V14h6v-2.47a1.5 1.5 0 0 0-.628-1.221L8.5 8.97V11ZM5.097 5a1.5 1.5 0 0 0 .53.691L8 7.385l2.372-1.694c.245-.175.428-.417.531-.691H5.097ZM5 4h6V2H5v2Z" clip-rule="evenodd"/>
</svg>
