<svg xmlns="http://www.w3.org/2000/svg" xmlns:xlink="http://www.w3.org/1999/xlink" width="16" height="16" viewBox="0 0 16 16">
  <path fill-rule="nonzero" d="M9,10.1142772 L10.84975,8.17115747 C11.06275,7.94294751 11.40875,7.94294751 11.62075,8.17115747 C11.83375,8.39936743 11.83375,8.77170999 11.62075,8.99991995 L9.67075,11.0494419 C9.03175,11.7362556 8.00075,11.7384395 7.35975,11.0494419 L5.40975,8.99991995 C5.19675,8.77170999 5.19675,8.39936743 5.40975,8.17115747 C5.62175,7.94294751 5.96775,7.94294751 6.18075,8.17115747 L8,10.0822377 L8,1.55555556 C8,1.24873069 8.22385763,1 8.5,1 C8.77614237,1 9,1.24873069 9,1.55555556 L9,10.1142772 Z M4.17971569,6 C3.70742974,6 3.30079901,6.33645967 3.20817611,6.80388386 L2.01924028,12.8038839 C2.00644471,12.868457 2,12.934148 2,13 C2,13.5522847 2.44358725,14 2.99077986,14 L14.0090291,14 C14.0742739,14 14.1393592,13.9934953 14.203337,13.9805807 C14.7399035,13.8722687 15.087882,13.3454436 14.9805687,12.8038839 L13.7916328,6.80388386 C13.6990099,6.33645967 13.2923792,6 12.8200932,6 L4.17971569,6 Z M6,5 L6,6 L11,6 L11,5 L12.8252599,5 C13.7709824,5 14.5852345,5.67291934 14.7707059,6.60776773 L15.96109,12.6077677 C16.175978,13.6908872 15.4791733,14.7445375 14.4047332,14.9611614 C14.2766217,14.9869906 14.1462925,15 14.015644,15 L2.98397345,15 C1.88825517,15 1,14.1045695 1,13 C1,12.868296 1.01290513,12.7369141 1.03852742,12.6077677 L2.2289115,6.60776773 C2.41438294,5.67291934 3.22863504,5 4.17435752,5 L6,5 Z"/>
</svg>
