<svg xmlns="http://www.w3.org/2000/svg" width="16" height="16" viewBox="0 0 16 16">
  <path d="M5,4.77179451 C5,5.04793689 4.77614237,5.27179451 4.5,5.27179451 C4.22385763,5.27179451 4,5.04793689 4,4.77179451 L4,1.49883476 C4,-0.180238185 5.58511246,-1.50116524 7.5,-1.50116524 C9.41488754,-1.50116524 11,-0.180238185 11,1.49883476 L11,6.49883476 C11,8.17790771 9.41488754,9.49883476 7.5,9.49883476 C7.22385763,9.49883476 7,9.27497714 7,8.99883476 C7,8.72269239 7.22385763,8.49883476 7.5,8.49883476 C8.89882096,8.49883476 10,7.58118556 10,6.49883476 L10,1.49883476 C10,0.416483965 8.89882096,-0.501165235 7.5,-0.501165235 C6.10117904,-0.501165235 5,0.416483965 5,1.49883476 L5,4.77179451 Z M10,10.225875 C10,9.94973264 10.2238576,9.72587502 10.5,9.72587502 C10.7761424,9.72587502 11,9.94973264 11,10.225875 L11,13.4988348 C11,15.1779077 9.41488754,16.4988348 7.5,16.4988348 C5.58511246,16.4988348 4,15.1779077 4,13.4988348 L4,8.49883476 C4,6.81976182 5.58511246,5.49883476 7.5,5.49883476 C7.77614237,5.49883476 8,5.72269239 8,5.99883476 C8,6.27497714 7.77614237,6.49883476 7.5,6.49883476 C6.10117904,6.49883476 5,7.41648397 5,8.49883476 L5,13.4988348 C5,14.5811856 6.10117904,15.4988348 7.5,15.4988348 C8.89882096,15.4988348 10,14.5811856 10,13.4988348 L10,10.225875 Z" transform="rotate(45 7.5 7.499)"/>
</svg>
