<svg xmlns="http://www.w3.org/2000/svg" width="16" height="16" viewBox="0 0 16 16">
  <path d="M4,5 L4,4.2 C4,1.88040405 5.790861,-1.0658141e-14 8,-1.0658141e-14 C10.209139,-1.0658141e-14 12,1.88040405 12,4.2 L12,5 L13.1428571,5 C13.616,5 14,5.448 14,6 L14,15 C14,15.552 13.616,16 13.1428571,16 L2.85714286,16 C2.384,16 2,15.552 2,15 L2,6 C2,5.448 2.384,5 2.85714286,5 L4,5 Z M3,15 L13,15 L13,6 L3,6 L3,15 Z M8.99769447,11.2944667 L9.5,12.5 L6.5,12.5 L7.00230553,11.2944667 C6.69414445,11.0013648 6.5,10.5747193 6.5,10.1 C6.5,9.2168 7.172,8.5 8,8.5 C8.828,8.5 9.5,9.2168 9.5,10.1 C9.5,10.5747193 9.30585555,11.0013648 8.99769447,11.2944667 Z M11,4.36 C11,2.50432324 9.65685425,1 8,1 C6.34314575,1 5,2.50432324 5,4.36 L5,5 L11,5 L11,4.36 Z"/>
</svg>
