<svg xmlns="http://www.w3.org/2000/svg" width="16" height="16" viewBox="0 0 16 16">
  <path d="M3 1h10a2 2 0 0 1 2 2v10a2 2 0 0 1-2 2H3a2 2 0 0 1-2-2V3a2 2 0 0 1 2-2Zm0 1a1 1 0 0 0-1 1v10a1 1 0 0 0 1 1h10a1 1 0 0 0 1-1V3a1 1 0 0 0-1-1H3Zm.5 1h4a.5.5 0 0 1 0 1h-4a.5.5 0 0 1 0-1Z"/>
  <path d="M9.5 3a.5.5 0 1 0 0 1 .5.5 0 0 0 0-1Zm3 0h-1a.5.5 0 0 0 0 1h1a.5.5 0 0 0 0-1Z"/>
  <path d="M9.5 3a.5.5 0 1 0 0 1 .5.5 0 0 0 0-1Zm3 0h-1a.5.5 0 0 0 0 1h1a.5.5 0 0 0 0-1Zm0 3h-4a.5.5 0 0 0 0 1h4a.5.5 0 0 0 0-1Zm-8 0h-1a.5.5 0 0 0 0 1h1a.5.5 0 0 0 0-1Zm2 0a.5.5 0 1 0 0 1 .5.5 0 0 0 0-1Z"/>
  <path d="M4.5 6h-1a.5.5 0 0 0 0 1h1a.5.5 0 0 0 0-1Zm2 0a.5.5 0 1 0 0 1 .5.5 0 0 0 0-1Zm6 6h-4a.5.5 0 0 0 0 1h4a.5.5 0 0 0 0-1Zm-8 0h-1a.5.5 0 0 0 0 1h1a.5.5 0 0 0 0-1Zm2 0a.5.5 0 1 0 0 1 .5.5 0 0 0 0-1Z"/>
  <path d="M4.5 12h-1a.5.5 0 0 0 0 1h1a.5.5 0 0 0 0-1Zm2 0a.5.5 0 1 0 0 1 .5.5 0 0 0 0-1Zm3-9a.5.5 0 1 0 0 1 .5.5 0 0 0 0-1Zm3 0h-1a.5.5 0 0 0 0 1h1a.5.5 0 0 0 0-1Z"/>
  <path d="M9.5 3a.5.5 0 1 0 0 1 .5.5 0 0 0 0-1Zm3 0h-1a.5.5 0 0 0 0 1h1a.5.5 0 0 0 0-1Z"/>
  <path d="M9.5 3a.5.5 0 1 0 0 1 .5.5 0 0 0 0-1Zm3 0h-1a.5.5 0 0 0 0 1h1a.5.5 0 0 0 0-1Z"/>
  <path d="M9.5 3a.5.5 0 1 0 0 1 .5.5 0 0 0 0-1Zm3 0h-1a.5.5 0 0 0 0 1h1a.5.5 0 0 0 0-1Z"/>
  <path d="M9.5 3a.5.5 0 1 0 0 1 .5.5 0 0 0 0-1Zm3 0h-1a.5.5 0 0 0 0 1h1a.5.5 0 0 0 0-1Z"/>
  <path d="M9.5 3a.5.5 0 1 0 0 1 .5.5 0 0 0 0-1Zm3 0h-1a.5.5 0 0 0 0 1h1a.5.5 0 0 0 0-1Zm-3 6a.5.5 0 1 0 0 1 .5.5 0 0 0 0-1Zm3 0h-1a.5.5 0 0 0 0 1h1a.5.5 0 0 0 0-1Z"/>
  <path d="M9.5 9a.5.5 0 1 0 0 1 .5.5 0 0 0 0-1Zm3 0h-1a.5.5 0 0 0 0 1h1a.5.5 0 0 0 0-1Z"/>
  <path d="M9.5 9a.5.5 0 1 0 0 1 .5.5 0 0 0 0-1Zm3 0h-1a.5.5 0 0 0 0 1h1a.5.5 0 0 0 0-1Z"/>
  <path d="M9.5 9a.5.5 0 1 0 0 1 .5.5 0 0 0 0-1Zm3 0h-1a.5.5 0 0 0 0 1h1a.5.5 0 0 0 0-1Z"/>
  <path d="M9.5 9a.5.5 0 1 0 0 1 .5.5 0 0 0 0-1Zm3 0h-1a.5.5 0 0 0 0 1h1a.5.5 0 0 0 0-1Z"/>
  <path d="M9.5 9a.5.5 0 1 0 0 1 .5.5 0 0 0 0-1Zm3 0h-1a.5.5 0 0 0 0 1h1a.5.5 0 0 0 0-1Z"/>
  <path d="M9.5 9a.5.5 0 1 0 0 1 .5.5 0 0 0 0-1Zm3 0h-1a.5.5 0 0 0 0 1h1a.5.5 0 0 0 0-1Z"/>
  <path d="M9.5 9a.5.5 0 1 0 0 1 .5.5 0 0 0 0-1Zm3 0h-1a.5.5 0 0 0 0 1h1a.5.5 0 0 0 0-1Zm-5 0h-4a.5.5 0 0 0 0 1h4a.5.5 0 0 0 0-1Z"/>
</svg>
