<svg width="32px" height="32px" viewBox="0 0 32 32" xmlns="http://www.w3.org/2000/svg">
	<g>
		<path d="M17.557156,5.04959958 C17.7269332,4.84782463 18.0136075,4.53806468 18.4171789,4.12031973 C19.4828218,3.01725095 21.8280637,1 23.8006269,1 L30,1 L30,31 L23.8006269,31 C21.8280637,31 19.8054444,29.5514025 18.4171789,27.8935938 L17.6529392,26.8419755 L20.4033871,23.3645116 C23.8651814,18.9885363 23.8656388,13.0331367 20.4043305,8.65807026 L17.557156,5.04959958 Z" fill="#FEC514"></path>
		<path d="M2,31 L2,1 L7.81071407,1 C9.5204846,1 11.1604686,1.78551405 12.1972129,3.09966245 L18.0515949,10.5194233 C20.6496655,13.803364 20.6496655,18.2178042 18.0504121,21.5034613 L12.1954386,28.9060587 C11.1581029,30.2173465 9.5204846,31 7.81426254,31 L2,31 Z" fill="#F04E98"></path>
		<path d="M15.3836465,24.8892512 L12.1514742,21.7004291 C9.28262429,18.3823214 9.28262429,13.4807899 12.1527803,10.3776899 C13.6875267,8.73940293 14.7644821,7.66029907 15.3836465,7.14037834 L18.0533684,10.3776899 C20.6896088,13.7628935 20.6282658,18.364759 17.9908252,21.7517318 L15.3836465,24.8892512 Z" class="euiIcon__fillNegative"></path>
	</g>
</svg>