<svg data-type="logoElastic" xmlns="http://www.w3.org/2000/svg" width="32" height="32" fill="none" viewBox="0 0 32 32">
<path d="M27.5648 11.2425C32.6654 13.182 32.4373 20.6378 27.3197 22.3694L27.1576 22.4241L26.9906 22.3851L21.7103 21.1468L21.4427 21.0843L21.3158 20.8401L19.9154 18.1497L19.6986 17.7327L20.0511 17.4222L26.9554 11.3528L27.2269 11.1136L27.5648 11.2425Z" fill="#0B64DD" stroke="white" stroke-width="1.2"/>
<path d="M22.0472 21.239L26.847 22.364L27.1625 22.4382L27.2738 22.7419L27.3392 22.9324C27.9615 24.8962 27.0797 26.7117 25.6869 27.7292C24.2528 28.7767 22.1775 29.0488 20.5052 27.7507L20.2152 27.5261L20.2836 27.1648L21.3207 21.7107L21.4379 21.0964L22.0472 21.239Z" fill="#9ADC30" stroke="white" stroke-width="1.2"/>
<path d="M5.01074 9.62997L10.2773 10.8849L10.5596 10.9522L10.6816 11.2159L11.917 13.8653L12.1035 14.2667L11.7764 14.5636L5.04297 20.6642L4.77051 20.9122L4.42578 20.7804C1.9389 19.8303 0.720407 17.4558 0.751953 15.1534C0.783686 12.8453 2.07305 10.5094 4.68359 9.64462L4.8457 9.59091L5.01074 9.62997Z" fill="#1BA9F5" stroke="white" stroke-width="1.2"/>
<path d="M6.28101 4.31982C7.69723 3.2394 9.76135 2.9334 11.5027 4.25146L11.7996 4.47705L11.7292 4.84326L10.6775 10.3169L10.5593 10.9321L9.94995 10.7876L5.15015 9.65088L4.83374 9.57568L4.72339 9.27002C4.01507 7.30295 4.87263 5.39429 6.28101 4.31982Z" fill="#F04E98" stroke="white" stroke-width="1.2"/>
<path d="M12.4661 14.4331L19.4963 17.644L19.6838 17.73L19.7786 17.9126L21.3342 20.8979L21.4299 21.0825L21.3909 21.2876L20.2249 27.3892L20.2014 27.5112L20.1331 27.6138C17.4534 31.572 13.2305 32.3245 9.8645 30.8735C6.50932 29.4272 4.0307 25.8044 4.7395 21.1382L4.77173 20.9272L4.92993 20.7837L11.8137 14.5347L12.1067 14.269L12.4661 14.4331Z" fill="#02BCB7" stroke="white" stroke-width="1.2"/>
<path d="M11.8923 4.41022C14.4381 0.676426 18.741 0.105303 22.1335 1.53912C25.5263 2.97302 28.1231 6.45979 27.2361 10.9024L27.197 11.1016L27.0437 11.2354L19.9783 17.4483L19.6853 17.7061L19.3318 17.543L12.3298 14.3321L12.1287 14.2403L12.0349 14.0391L10.655 11.0518L10.574 10.8751L10.6111 10.6846L11.7996 4.63287L11.823 4.51178L11.8923 4.41022Z" fill="#FEC514" stroke="white" stroke-width="1.2"/>
</svg>