<svg xmlns="http://www.w3.org/2000/svg" width="32" height="32" viewBox="0 0 32 32">
  <path fill="#3EBEB0" d="M19.0002,15 C19.0002,22.062 14.1122,27.969 7.5392,29.563 C9.9962,31.098 12.8902,32 16.0002,32 C24.8362,32 32.0002,24.837 32.0002,16 L32.0002,13 L25.5002,7 L19.0002,13 L19.0002,15 Z"/>
  <path fill="#07C" d="M6.8333,26.6465 C10.9393,25.6515 14.0983,22.6385 15.3773,18.8125 C13.8883,16.7545 13.0003,14.2335 13.0003,11.5005 L13.0003,0.2915 C5.5993,1.6965 0.0003,8.1895 0.0003,16.0005 C0.0003,20.3595 1.7493,24.3075 4.5773,27.1935 L6.8333,26.6465 Z"/>
  <path class="euiIcon__fillNegative" d="M30.3616,23.0195 L30.3616,23.0195 C28.8676,23.6505 27.2246,23.9995 25.5006,23.9995 C22.5246,23.9995 19.7956,22.9565 17.6486,21.2205 C15.7576,25.3495 12.0466,28.4695 7.5396,29.5625 C9.9966,31.0975 12.8896,31.9995 16.0006,31.9995 C22.3146,31.9995 27.7586,28.3315 30.3616,23.0195"/>
</svg>
