<svg width="32" height="32" viewBox="0 0 32 32" fill="none" xmlns="http://www.w3.org/2000/svg">
<path d="M4.315 17.3012C4.36002 18.2467 5.31559 17.8015 5.73083 17.5113C6.14608 17.2211 6.23113 17.4663 6.29116 16.9109C6.32805 16.5486 6.34309 16.1844 6.33619 15.8203C5.70571 15.7558 5.07281 15.9171 4.55013 16.2756C4.28998 16.4657 3.80469 17.066 4.30999 17.2762" fill="#F6D2A2"/>
<path d="M4.80547 17.9866C4.71198 17.9879 4.61946 17.9673 4.53532 17.9265C4.43906 17.871 4.35949 17.7906 4.30493 17.6938C4.25036 17.597 4.22281 17.4873 4.22513 17.3762C4.16324 17.3454 4.11015 17.2994 4.07079 17.2425C4.03143 17.1857 4.00708 17.1198 4 17.051C4.01794 16.8845 4.072 16.7239 4.15841 16.5805C4.24482 16.4371 4.3615 16.3142 4.50029 16.2205C5.04003 15.8489 5.69465 15.6822 6.34638 15.7502H6.42143V15.8253C6.43188 16.1107 6.42353 16.3965 6.39641 16.6808V16.9309C6.3714 17.3212 6.29635 17.3812 6.09624 17.4312C5.98947 17.4643 5.88829 17.5132 5.79606 17.5763C5.5082 17.7987 5.16626 17.9403 4.80547 17.9866V17.9866ZM6.07622 15.9203C5.55081 15.9122 5.03618 16.0698 4.60536 16.3706C4.49341 16.4479 4.39841 16.5472 4.32615 16.6625C4.2539 16.7778 4.2059 16.9066 4.18511 17.041C4.19125 17.0877 4.21048 17.1318 4.24057 17.1681C4.27067 17.2044 4.31041 17.2314 4.35521 17.2461H4.40524V17.3012C4.39801 17.388 4.4136 17.4752 4.45045 17.5542C4.48731 17.6332 4.54415 17.7012 4.61536 17.7514C4.80486 17.7808 4.9985 17.7683 5.18263 17.7147C5.36675 17.6611 5.53687 17.5677 5.68099 17.4412C5.78537 17.368 5.90001 17.3107 6.02119 17.2711C6.15127 17.2261 6.18129 17.2161 6.2013 16.9059V16.6558C6.22472 16.4063 6.23474 16.1558 6.23132 15.9053H6.07622V15.9203Z" fill="#010101"/>
<path d="M4.31543 17.3009C4.45843 17.2693 4.58894 17.1962 4.69065 17.0908Z" fill="#C7B199"/>
<path d="M4.31509 17.391C4.29187 17.3983 4.2667 17.3961 4.24512 17.3848C4.22354 17.3736 4.20732 17.3542 4.20002 17.331C4.19273 17.3077 4.19495 17.2826 4.20621 17.261C4.21747 17.2394 4.23684 17.2232 4.26006 17.2159H4.32009C4.42581 17.1914 4.52169 17.1356 4.59526 17.0558C4.60248 17.0463 4.61152 17.0383 4.62184 17.0322C4.63216 17.0262 4.64357 17.0222 4.65542 17.0206C4.66726 17.019 4.67931 17.0197 4.69088 17.0228C4.70245 17.0258 4.7133 17.0311 4.72283 17.0383C4.73236 17.0455 4.74037 17.0545 4.7464 17.0649C4.75244 17.0752 4.75638 17.0866 4.75801 17.0984C4.75963 17.1103 4.75891 17.1223 4.75588 17.1339C4.75285 17.1455 4.74757 17.1563 4.74034 17.1659C4.64577 17.2745 4.51998 17.3514 4.38013 17.386H4.31509V17.391Z" fill="#010101"/>
<path d="M6.49634 6.04955C2.87921 5.04896 5.57079 0.431234 8.49752 2.32235L6.49634 6.04955Z" fill="#74CDDD"/>
<path d="M6.54138 6.15447H6.47134C5.44073 5.8643 4.80535 5.25394 4.68528 4.43846C4.64272 3.99509 4.72457 3.54863 4.92164 3.14919C5.11871 2.74975 5.4232 2.41313 5.80094 2.17712C6.21131 1.9175 6.69027 1.78727 7.1756 1.80333C7.66094 1.81939 8.13023 1.981 8.52255 2.26718L8.59259 2.3122L6.54138 6.15447ZM7.04167 1.962C6.63112 1.96253 6.22958 2.08247 5.88599 2.3072C5.53637 2.52416 5.25421 2.83436 5.07125 3.20292C4.8883 3.57148 4.81181 3.98377 4.85038 4.39343C4.96045 5.11886 5.52078 5.66918 6.43632 5.94435L8.33744 2.35723C7.95289 2.11672 7.51018 1.98529 7.05668 1.97701L7.04167 1.962Z" fill="#010101"/>
<path d="M22.5659 1.97712C25.4276 -0.0240604 28.0141 4.47859 24.6872 5.64428L22.5659 1.97712Z" fill="#74CDDD"/>
<path d="M24.6471 5.75433L22.4458 1.95208L22.5108 1.90706C22.8772 1.61342 23.3227 1.43564 23.7905 1.39643C24.2584 1.35723 24.7273 1.45836 25.1374 1.68693C25.5243 1.91355 25.8409 2.24296 26.052 2.63861C26.2631 3.03425 26.3604 3.48065 26.3331 3.92825C26.2831 4.42854 26.0129 5.28405 24.7171 5.72931L24.6471 5.75433ZM22.6859 2.00211L24.7271 5.5342C25.0976 5.43372 25.4304 5.22645 25.6839 4.93822C25.9375 4.64999 26.1006 4.29352 26.153 3.91324C26.1792 3.4987 26.0897 3.08504 25.8944 2.71843C25.6992 2.35181 25.4059 2.04665 25.0473 1.83702C24.6817 1.62739 24.262 1.53117 23.8415 1.56057C23.4211 1.58996 23.0189 1.74365 22.6859 2.00211V2.00211Z" fill="#010101"/>
<path d="M23.1813 28.928C23.9067 29.3782 25.2375 30.739 24.1468 31.3994C23.1012 32.36 22.5109 30.3438 21.5903 30.0687C21.7672 29.783 21.9988 29.5351 22.2718 29.3393C22.5449 29.1436 22.8539 29.0038 23.1813 28.928Z" fill="#F6D2A2"/>
<path d="M23.5916 31.7446H23.5516C23.1363 31.7196 22.7961 31.3143 22.4659 30.9291C22.2378 30.5972 21.9275 30.33 21.5654 30.1537L21.4453 30.1186L21.5204 29.9936C21.8925 29.3999 22.4841 28.9774 23.1663 28.8179H23.2314C23.6966 29.108 24.6572 29.9485 24.6522 30.709C24.6493 30.8592 24.606 31.0059 24.5267 31.1336C24.4475 31.2612 24.3353 31.3652 24.2019 31.4344C24.0469 31.6137 23.8278 31.7251 23.5916 31.7446ZM21.7305 30.0236C22.0699 30.2232 22.3645 30.4906 22.596 30.809C22.8147 31.1683 23.1558 31.4366 23.5566 31.5645C23.6514 31.5604 23.7444 31.5376 23.8303 31.4972C23.9162 31.4568 23.9932 31.3998 24.0569 31.3294C24.166 31.276 24.2582 31.1936 24.3236 31.0912C24.3889 30.9888 24.4247 30.8704 24.4271 30.749C24.4271 30.1386 23.6566 29.3732 23.1213 29.028C22.551 29.1746 22.0565 29.5299 21.7355 30.0236H21.7305Z" fill="#010101"/>
<path d="M24.1469 31.4945C24.1302 31.4944 24.1139 31.4896 24.0998 31.4808C24.0856 31.472 24.0742 31.4594 24.0668 31.4444C24.0139 31.3337 23.9671 31.2201 23.9267 31.1042C23.8659 30.8778 23.7528 30.6688 23.5965 30.4939C23.588 30.4857 23.5812 30.4759 23.5764 30.465C23.5717 30.4541 23.5691 30.4425 23.5689 30.4306C23.5686 30.4188 23.5707 30.407 23.5751 30.396C23.5794 30.3849 23.5858 30.3749 23.594 30.3663C23.6022 30.3578 23.6121 30.3509 23.6229 30.3462C23.6338 30.3414 23.6455 30.3389 23.6573 30.3386C23.6692 30.3384 23.6809 30.3405 23.692 30.3448C23.703 30.3491 23.7131 30.3556 23.7216 30.3638C23.8944 30.5524 24.0211 30.7784 24.0918 31.0242C24.131 31.1333 24.1761 31.2402 24.2269 31.3444C24.2374 31.3656 24.239 31.3902 24.2315 31.4126C24.2241 31.4351 24.208 31.4537 24.1869 31.4645L24.1469 31.4945Z" fill="#010101"/>
<path d="M10.1887 30.4639C9.3332 30.594 8.85291 31.3644 8.1425 31.7547C8.06796 31.8235 7.97768 31.873 7.87957 31.8988C7.78147 31.9246 7.67853 31.926 7.57977 31.9028C7.48102 31.8795 7.38946 31.8325 7.31312 31.7657C7.23678 31.6989 7.17799 31.6143 7.14191 31.5195C7.09225 31.5207 7.04299 31.5105 6.99789 31.4897C6.9528 31.4689 6.91307 31.438 6.88175 31.3995C6.26139 30.3989 7.52713 29.7035 8.19253 29.2132C9.12808 29.0331 9.70342 29.8285 10.1887 30.4639V30.4639Z" fill="#F6D2A2"/>
<path d="M7.69242 31.9948C7.63929 32.0018 7.58546 32.0018 7.53233 31.9948C7.43843 31.9644 7.35156 31.9156 7.27681 31.8511C7.20207 31.7867 7.14095 31.708 7.09707 31.6196C7.04876 31.6192 7.00124 31.6072 6.95856 31.5846C6.91588 31.5619 6.8793 31.5293 6.85193 31.4895C6.25157 30.5439 7.27217 29.8285 7.94757 29.3532L8.18271 29.1831C9.12827 28.993 9.72862 29.7735 10.2089 30.4039L10.344 30.584H10.1939C9.71111 30.6993 9.27172 30.9511 8.92815 31.3094C8.69773 31.5212 8.44628 31.709 8.17771 31.8697C8.02917 31.9519 7.86217 31.9949 7.69242 31.9948V31.9948ZM7.09207 31.4145C7.12668 31.4069 7.16252 31.4069 7.19713 31.4145H7.22214L7.26217 31.4945C7.2947 31.5653 7.34115 31.6287 7.39874 31.6812C7.45632 31.7336 7.52387 31.7739 7.59736 31.7997C7.77339 31.8261 7.95281 31.7831 8.09766 31.6796C8.35713 31.5245 8.60018 31.3435 8.82309 31.1393C9.16078 30.8017 9.57412 30.5496 10.0288 30.4039C9.56853 29.8035 9.02821 29.1531 8.24275 29.3032L8.01761 29.4633C7.32721 29.9636 6.4717 30.5539 6.96699 31.3494C6.9781 31.3682 6.99331 31.3843 7.01151 31.3965C7.0297 31.4086 7.0504 31.4164 7.07206 31.4195L7.09207 31.4145Z" fill="#010101"/>
<path d="M7.15685 31.6145C7.14201 31.6154 7.12719 31.6125 7.11371 31.6063C7.10024 31.6 7.08852 31.5905 7.0796 31.5786C7.07068 31.5667 7.06485 31.5528 7.06261 31.5381C7.06038 31.5234 7.06181 31.5084 7.06679 31.4944C7.10368 31.2541 7.20383 31.0279 7.35696 30.839C7.42939 30.7397 7.493 30.6343 7.54708 30.5239C7.55703 30.502 7.57527 30.4849 7.59779 30.4765C7.6203 30.468 7.64525 30.4689 7.66715 30.4788C7.68904 30.4888 7.70608 30.507 7.71453 30.5295C7.72297 30.5521 7.72212 30.577 7.71217 30.5989C7.65408 30.7198 7.58544 30.8353 7.50705 30.9441C7.37495 31.1141 7.29036 31.3161 7.26191 31.5294C7.26138 31.5422 7.25813 31.5547 7.25239 31.5662C7.24664 31.5776 7.23853 31.5877 7.22859 31.5957C7.21865 31.6038 7.20711 31.6096 7.19474 31.6128C7.18237 31.6161 7.16945 31.6166 7.15685 31.6145V31.6145ZM6.64654 4.77867C6.14625 4.52852 5.82106 4.18332 6.11123 3.633C6.4014 3.08267 6.88168 3.17773 7.36197 3.42787L6.64654 4.77867ZM23.9317 4.29839C24.432 4.04824 24.7572 3.70304 24.4671 3.15271C24.1769 2.60239 23.6966 2.69744 23.2163 2.94759L23.9317 4.29839Z" fill="#010101"/>
<path d="M27.2186 17.181C27.1736 18.1266 26.218 17.6813 25.8028 17.3912C25.3875 17.101 25.3025 17.3461 25.2425 16.7908C25.2056 16.4285 25.1905 16.0643 25.1974 15.7002C25.8279 15.6357 26.4608 15.797 26.9835 16.1554C27.2436 16.3456 27.7289 16.9459 27.2236 17.156" fill="#F6D2A2"/>
<path d="M26.7284 17.8463C26.3845 17.8089 26.0558 17.685 25.7728 17.4861C25.6806 17.423 25.5794 17.3741 25.4726 17.341C25.2725 17.271 25.1975 17.2109 25.1724 16.8407V16.5906C25.1453 16.3062 25.137 16.0205 25.1474 15.7351V15.615H25.2225C25.8742 15.5469 26.5288 15.7137 27.0686 16.0853C27.2074 16.1789 27.324 16.3018 27.4104 16.4452C27.4969 16.5887 27.5509 16.7493 27.5689 16.9158C27.5618 16.9845 27.5374 17.0504 27.4981 17.1073C27.4587 17.1641 27.4056 17.2101 27.3437 17.2409C27.346 17.352 27.3185 17.4617 27.2639 17.5585C27.2094 17.6554 27.1298 17.7357 27.0335 17.7913C26.9383 17.8358 26.8331 17.8548 26.7284 17.8463V17.8463ZM25.2725 15.7851C25.2691 16.0356 25.2791 16.2861 25.3025 16.5355V16.7857C25.3025 17.0909 25.3475 17.1009 25.4826 17.1509C25.6038 17.1905 25.7184 17.2478 25.8228 17.321C25.9668 17.4478 26.1369 17.5413 26.321 17.5949C26.5052 17.6485 26.699 17.6609 26.8885 17.6312C26.9597 17.5809 27.0165 17.5129 27.0534 17.434C27.0902 17.355 27.1058 17.2678 27.0986 17.1809V17.1209H27.1486C27.1934 17.1062 27.2331 17.0791 27.2632 17.0428C27.2933 17.0066 27.3126 16.9625 27.3187 16.9158C27.2979 16.7813 27.2499 16.6525 27.1777 16.5372C27.1054 16.422 27.0104 16.3227 26.8985 16.2454C26.4245 15.9117 25.851 15.7494 25.2725 15.7851V15.7851Z" fill="#010101"/>
<path d="M27.2185 17.181C27.0772 17.1535 26.9469 17.0857 26.8433 16.9858Z" fill="#C7B199"/>
<path d="M27.2187 17.271H27.1236C26.9835 17.2264 26.861 17.1389 26.7734 17.0208C26.7662 17.0113 26.7609 17.0005 26.7579 16.9889C26.7548 16.9773 26.7541 16.9653 26.7557 16.9534C26.7574 16.9416 26.7613 16.9302 26.7673 16.9199C26.7734 16.9095 26.7814 16.9005 26.7909 16.8933C26.8004 16.886 26.8113 16.8808 26.8229 16.8777C26.8344 16.8747 26.8465 16.874 26.8583 16.8756C26.8702 16.8772 26.8816 16.8812 26.8919 16.8872C26.9022 16.8932 26.9113 16.9013 26.9185 16.9108C26.992 16.9906 27.0879 17.0464 27.1936 17.0709H27.2537C27.2802 17.0755 27.3038 17.0905 27.3193 17.1126C27.3348 17.1346 27.3409 17.1619 27.3362 17.1884C27.3316 17.215 27.3166 17.2386 27.2945 17.2541C27.2725 17.2695 27.2452 17.2756 27.2187 17.271V17.271Z" fill="#010101"/>
<path d="M15.4069 0.065918C19.0291 0.065918 22.4111 0.566213 24.1921 4.06828C25.778 7.96558 25.1927 12.1731 25.4579 16.2905C25.668 19.8276 26.1282 23.915 24.4873 27.1969C22.7713 30.6389 18.4387 31.4944 14.8866 31.3794C12.095 31.2793 8.72299 30.3788 7.14706 27.8173C5.29597 24.8155 6.17148 20.3729 6.30656 17.0459C6.46666 13.1036 5.23593 9.14627 6.5317 5.28399C7.87749 1.28163 11.4996 0.376101 15.4019 0.065918" fill="#74CDDD"/>
<path d="M15.5018 31.4944H14.8814C13.3901 31.4525 11.9167 31.1582 10.5238 30.6239C9.10569 30.1099 7.89261 29.1496 7.06679 27.8873C5.56591 25.4659 5.83607 22.1239 6.0662 19.1722C6.12624 18.4317 6.18127 17.7263 6.20628 17.0659C6.23279 15.6661 6.17264 14.2659 6.02618 12.8735C5.81605 10.372 5.59592 7.78545 6.43642 5.27897C6.70759 4.39838 7.15897 3.58382 7.76187 2.88704C8.36477 2.19026 9.106 1.6265 9.93848 1.23159C11.2893 0.571198 12.9403 0.190974 15.3667 0.000861973C18.9388 -0.0241528 22.4609 0.476142 24.2719 4.02323C25.4326 6.87492 25.4476 9.93672 25.4676 12.8985C25.4676 14.0091 25.4676 15.1548 25.5477 16.2755C25.5477 16.6157 25.5877 16.9609 25.6127 17.3061C25.8228 20.553 26.063 24.2402 24.5671 27.2219C22.696 30.9541 17.9932 31.4944 15.5018 31.4944ZM15.4067 0.155953C11.6395 0.476142 7.96732 1.28662 6.61653 5.314C5.78604 7.78545 6.00617 10.352 6.21129 12.8184C6.35825 14.2175 6.4184 15.6244 6.39139 17.0309C6.36638 17.6963 6.30634 18.4017 6.25131 19.1472C6.02117 22.0689 5.75102 25.3858 7.21688 27.7522C7.83224 28.7528 9.81341 31.0892 14.8864 31.2543C17.0827 31.3343 22.3908 31.0842 24.392 27.1119C25.8629 24.1701 25.6277 20.513 25.4176 17.2861C25.4176 16.9358 25.3726 16.5906 25.3526 16.2554C25.2975 15.1648 25.2725 14.0141 25.2725 12.9035C25.2725 9.96174 25.2425 6.89993 24.0918 4.09828C23.3517 2.5753 22.0414 1.40519 20.4447 0.841358C18.8168 0.327078 17.1128 0.0952625 15.4067 0.155953V0.155953Z" fill="#010101"/>
<path d="M16.0419 4.92371C16.6923 8.70094 22.866 7.70535 21.9804 3.8931C21.185 0.476085 15.8268 1.42164 16.0419 4.92371Z" fill="white"/>
<path d="M18.979 7.3902C18.5944 7.39182 18.2123 7.32926 17.8483 7.20509C17.3531 7.04127 16.9136 6.74222 16.5794 6.34174C16.2452 5.94125 16.0297 5.45529 15.9572 4.93876C15.9236 4.53442 15.9757 4.12755 16.1102 3.74476C16.2447 3.36197 16.4585 3.0119 16.7376 2.71745C17.273 2.16815 17.9781 1.8156 18.7388 1.71686C19.436 1.60652 20.1501 1.72964 20.77 2.06706C21.1007 2.26022 21.387 2.52088 21.6103 2.83206C21.8336 3.14324 21.9887 3.49797 22.0658 3.87313C22.2004 4.34747 22.1996 4.85003 22.0635 5.32394C21.9273 5.79785 21.6612 6.22419 21.2953 6.55471C20.6498 7.10443 19.8268 7.40129 18.979 7.3902V7.3902ZM16.1323 4.91374C16.2008 5.39845 16.4033 5.85438 16.7172 6.23008C17.031 6.60578 17.4436 6.8863 17.9083 7.04C18.462 7.22516 19.054 7.26536 19.6276 7.15676C20.2013 7.04816 20.7375 6.79438 21.1853 6.41963C21.5225 6.10841 21.7676 5.71042 21.8938 5.26922C22.02 4.82803 22.0223 4.36062 21.9007 3.91816C21.7471 3.23775 21.3336 2.64439 20.7484 2.26484C20.1631 1.8853 19.4527 1.74968 18.7688 1.88696C18.0226 1.95084 17.3303 2.3023 16.8384 2.86708C16.3464 3.43186 16.0932 4.16576 16.1323 4.91374V4.91374Z" fill="#010101"/>
<path d="M8.66254 5.53901C9.50304 8.82595 14.7661 7.98045 14.571 4.68351C14.3359 0.731178 7.85707 1.47662 8.66254 5.53901Z" fill="white"/>
<path d="M11.4742 7.70538C10.9391 7.7094 10.4113 7.58047 9.93831 7.33016C9.59971 7.14666 9.30382 6.89352 9.07013 6.58739C8.83644 6.28127 8.67025 5.92911 8.58251 5.55411C8.45204 5.04236 8.47133 4.50389 8.63807 4.00278C8.80481 3.50167 9.11199 3.05901 9.52307 2.72745C10.0201 2.34819 10.6084 2.10684 11.2286 2.02778C11.8488 1.94872 12.4789 2.03475 13.0551 2.27718C13.5239 2.48214 13.924 2.8174 14.2078 3.2431C14.4916 3.6688 14.6472 4.16704 14.6561 4.6786C14.7612 6.42963 13.3703 7.45023 12.0395 7.68037C11.852 7.70329 11.663 7.71166 11.4742 7.70538V7.70538ZM8.76262 5.51909C8.93578 6.21453 9.37531 6.81406 9.98644 7.18842C10.5976 7.56277 11.3313 7.68195 12.0295 7.52027C13.2903 7.32015 14.6061 6.35959 14.506 4.71362C14.5 4.23223 14.3551 3.76281 14.0889 3.3617C13.8227 2.96059 13.4464 2.64481 13.0051 2.45228C12.4572 2.2223 11.8583 2.14097 11.2688 2.21651C10.6794 2.29206 10.1204 2.5218 9.64814 2.88254C9.2657 3.1928 8.97939 3.60542 8.82259 4.07225C8.6658 4.53909 8.645 5.04088 8.76262 5.51909V5.51909Z" fill="#010101"/>
<path d="M16.7674 9.48143C16.8156 10.0023 16.8156 10.5265 16.7674 11.0474C16.6209 11.2328 16.4136 11.3604 16.1821 11.4076C16.0397 11.3857 15.905 11.3284 15.7905 11.241C15.676 11.1536 15.5853 11.0389 15.5267 10.9073C15.4945 10.3167 15.5096 9.72444 15.5717 9.13623L16.7674 9.48143Z" fill="white"/>
<path d="M16.2372 11.4827H16.2122C16.0531 11.458 15.903 11.3931 15.7761 11.2941C15.6491 11.1952 15.5495 11.0655 15.4867 10.9173C15.4452 10.5132 15.4452 10.1058 15.4867 9.70163C15.4867 9.51652 15.5167 9.3214 15.5218 9.13129V8.9812L16.8725 9.39645V9.4815C16.8725 9.64159 16.8725 9.81169 16.8976 9.98179C16.9427 10.3389 16.9427 10.7003 16.8976 11.0574V11.0824C16.8451 11.1681 16.776 11.2423 16.6944 11.3007C16.6128 11.3591 16.5202 11.4006 16.4223 11.4226L16.2672 11.4827H16.2372ZM15.6568 10.8523C15.7069 10.9666 15.7841 11.0669 15.8818 11.1445C15.9794 11.2221 16.0946 11.2746 16.2172 11.2976L16.3572 11.2425C16.508 11.2062 16.6389 11.113 16.7225 10.9824C16.7622 10.65 16.7622 10.3141 16.7225 9.98179C16.7225 9.8267 16.7225 9.67661 16.6974 9.52652L15.6969 9.22134C15.6969 9.37643 15.6969 9.53153 15.6668 9.68161C15.6225 10.0687 15.6175 10.4592 15.6518 10.8473L15.6568 10.8523Z" fill="#010101"/>
<path d="M10.1137 5.96434C10.6055 5.96434 11.0042 5.53204 11.0042 4.99877C11.0042 4.4655 10.6055 4.0332 10.1137 4.0332C9.62185 4.0332 9.22314 4.4655 9.22314 4.99877C9.22314 5.53204 9.62185 5.96434 10.1137 5.96434Z" fill="#010101"/>
<path d="M10.5187 5.46417C10.6348 5.46417 10.7288 5.35441 10.7288 5.21902C10.7288 5.08363 10.6348 4.97388 10.5187 4.97388C10.4027 4.97388 10.3086 5.08363 10.3086 5.21902C10.3086 5.35441 10.4027 5.46417 10.5187 5.46417Z" fill="white"/>
<path d="M17.5679 5.72435C18.0514 5.72435 18.4434 5.29205 18.4434 4.75878C18.4434 4.22551 18.0514 3.79321 17.5679 3.79321C17.0844 3.79321 16.6924 4.22551 16.6924 4.75878C16.6924 5.29205 17.0844 5.72435 17.5679 5.72435Z" fill="#010101"/>
<path d="M17.9634 5.22393C18.0767 5.22393 18.1685 5.11418 18.1685 4.97879C18.1685 4.8434 18.0767 4.73364 17.9634 4.73364C17.8501 4.73364 17.7583 4.8434 17.7583 4.97879C17.7583 5.11418 17.8501 5.22393 17.9634 5.22393Z" fill="white"/>
<path d="M14.2662 9.40649C13.8759 10.347 14.4813 12.2282 15.5369 10.8423C15.5048 10.2517 15.5198 9.6595 15.5819 9.07129L14.2662 9.40649Z" fill="white"/>
<path d="M14.8116 11.4275C14.7201 11.4284 14.6301 11.4042 14.5514 11.3575C14.1262 11.1123 13.861 10.1067 14.1612 9.35628V9.31626L15.6621 8.93604V9.05611C15.6621 9.25122 15.6621 9.44634 15.6271 9.63144C15.5863 10.024 15.5863 10.4196 15.6271 10.8121V10.8772C15.546 11.0282 15.4294 11.1573 15.2873 11.2531C15.1453 11.349 14.982 11.4089 14.8116 11.4275V11.4275ZM14.3163 9.48136C14.1012 10.0667 14.2713 10.9822 14.6465 11.1974C14.9166 11.3525 15.2168 11.0823 15.4269 10.8121C15.3889 10.4195 15.3889 10.0241 15.4269 9.63144C15.4269 9.48636 15.4269 9.33127 15.457 9.18118L14.3163 9.48136Z" fill="#010101"/>
<path d="M14.3809 7.5953C14.2005 7.61247 14.0267 7.67219 13.8738 7.76958C13.721 7.86696 13.5934 7.99921 13.5016 8.15548C13.4098 8.31174 13.3564 8.48756 13.3457 8.66849C13.3351 8.84941 13.3675 9.03028 13.4403 9.19624C13.9406 10.0968 15.0513 9.11619 15.7417 9.19624C16.5372 9.19624 17.1926 10.0367 17.8329 9.34633C18.5433 8.57587 17.5277 7.84544 16.7323 7.49023L14.3809 7.5953Z" fill="#F6D2A2"/>
<path d="M17.2677 9.72652C17.0134 9.70535 16.7654 9.63572 16.5373 9.5214C16.2899 9.39924 16.0217 9.32457 15.7468 9.30127C15.4603 9.30116 15.1771 9.36258 14.9163 9.48138C14.356 9.67649 13.7206 9.89662 13.3604 9.25124C13.271 9.09058 13.2241 8.90978 13.2241 8.72593C13.2241 8.54209 13.271 8.36128 13.3604 8.20062C13.4576 8.0126 13.5998 7.85158 13.7744 7.73197C13.949 7.61237 14.1506 7.53789 14.361 7.51522L16.7674 7.41016C17.3577 7.6603 18.0331 8.11557 18.1482 8.64588C18.1656 8.77536 18.1563 8.90703 18.1208 9.03275C18.0854 9.15848 18.0245 9.2756 17.942 9.37688C17.8594 9.47816 17.757 9.56143 17.6411 9.62157C17.5251 9.68171 17.398 9.71743 17.2677 9.72652V9.72652ZM15.7668 9.12117C16.0626 9.14517 16.3512 9.22496 16.6173 9.3563C17.0676 9.54642 17.4228 9.6915 17.783 9.30127C17.8653 9.2257 17.9272 9.13063 17.963 9.02484C17.9989 8.91904 18.0075 8.80592 17.9881 8.69591C17.8881 8.23564 17.2527 7.8154 16.7324 7.59527L14.406 7.69032C14.227 7.71226 14.056 7.77748 13.9078 7.88034C13.7596 7.98319 13.6387 8.1206 13.5555 8.28067C13.4815 8.4147 13.4427 8.56532 13.4427 8.71843C13.4427 8.87154 13.4815 9.02215 13.5555 9.15619C13.8407 9.65648 14.351 9.49138 14.8963 9.30627C15.1701 9.18371 15.4668 9.12062 15.7668 9.12117V9.12117Z" fill="#231F20"/>
<path d="M14.2661 7.56023C14.211 6.30949 16.6024 6.14939 16.8826 7.20001C17.1628 8.25063 14.3811 8.49077 14.2661 7.56023Z" fill="#010101"/>
</svg>
