<svg xmlns="http://www.w3.org/2000/svg" width="32" height="32" viewBox="0 0 32 32">
  <g fill="#419EDA">
    <path d="M14.6504995 14.1635973C14.6504995 15.3527212 13.7171274 16.3145799 12.5667352 16.3145799 11.4154857 16.3145799 10.4846852 15.3528687 10.4846852 14.1635973 10.4846852 12.9794877 11.4156286 12.013942 12.5667352 12.013942 13.7171274 12.013942 14.6504995 12.9794877 14.6504995 14.1635973zM17.3430346 14.1635973C17.3430346 15.3527212 18.2765496 16.3145799 19.4269419 16.3145799 20.5770484 16.3145799 21.5095633 15.3528687 21.5095633 14.1635973 21.5095633 12.9790453 20.5770484 12.0134996 19.4269419 12.0134996 18.2765496 12.0134996 17.3430346 12.9790453 17.3430346 14.1635973z"/>
    <path d="M31.5223477,16.4950943 C31.3723338,16.5080725 31.2216055,16.5141191 31.0614478,16.5141191 C30.1323618,16.5141191 29.2309926,16.2892135 28.4177745,15.8773044 C28.6885138,14.2740591 28.8036673,12.6588681 28.7735217,11.0495763 C27.8918686,9.73317783 26.8842039,8.49110889 25.7468128,7.34681859 C26.2402871,6.39174397 26.9697832,5.56999045 27.880439,4.98730055 L28.2714752,4.73776593 L27.9667327,4.3830787 C26.396873,2.55831986 24.5232709,1.14753483 22.3990742,0.190248032 L21.9754636,0 L21.8678822,0.462199484 C21.614573,1.5393868 21.0850954,2.51112654 20.358171,3.29099601 C18.9610416,2.52439967 17.5014778,1.90483999 15.9963385,1.43556151 C14.4947708,1.90380764 13.0377788,2.52159756 11.6412209,3.28701407 C10.9172967,2.50817697 10.3891049,1.53879687 10.1367958,0.464706628 L10.0285001,0.00265462371 L9.60646102,0.192017782 C7.50898107,1.13544155 5.5838028,2.58442366 4.0396598,4.38204635 L3.73406007,4.73747097 L4.12466767,4.98700559 C5.03246603,5.56748331 5.75996197,6.38437002 6.25257901,7.33428287 C5.11861686,8.47414879 4.11209508,9.7122358 3.23115636,11.0225876 C3.19686747,12.6311421 3.30616331,14.2581314 3.5781885,15.8834985 C2.7689707,16.2915732 1.87260198,16.5139716 0.949659371,16.5139716 C0.787644367,16.5139716 0.636058901,16.5079251 0.488759547,16.4952418 L0.029859908,16.4591095 L0.0728638903,16.9320748 C0.297741858,19.3249233 1.0175228,21.6008206 2.21334782,23.6972359 L2.44679801,24.1063429 L2.79725904,23.7992915 C3.60947711,23.0881473 4.5908537,22.6172466 5.63437891,22.4274409 C6.32229975,23.8793726 7.13766097,25.2435543 8.06260377,26.5101047 C9.53845473,27.0429467 11.0761686,27.4406978 12.6641728,27.6774017 C12.8164726,28.7615206 12.6951756,29.8828041 12.2808515,30.9195821 L12.1061211,31.3589224 L12.5554484,31.460978 C13.7059835,31.7221634 14.8666624,31.8551896 16.0031962,31.8551896 L19.449944,31.460978 L19.8996999,31.3589224 L19.7245409,30.9186973 C19.3113597,29.8819193 19.1900628,28.7593084 19.3423626,27.6750421 C20.9240805,27.4381907 22.4560795,27.0413244 23.9265014,26.5101047 C24.8523014,25.2425219 25.668377,23.8774554 26.3574408,22.4236065 C27.404252,22.6122323 28.3912006,23.0834279 29.2084191,23.7966368 L29.5588801,24.1032458 L29.7911873,23.6951712 C30.9891554,21.5961013 31.7087935,19.3203514 31.9302426,16.9313375 L31.9732466,16.4592569 L31.5223477,16.4950943 Z M20.929081,22.2778971 C19.2985014,22.7356723 17.6424909,22.9667719 15.9963385,22.9667719 C14.345757,22.9667719 12.6917467,22.7358197 11.0597385,22.2778971 C10.1643698,20.8417457 9.45644713,19.3032438 8.94697138,17.6834809 C8.43963869,16.0712394 8.14275405,14.3821613 8.05660321,12.6429404 C9.11055796,11.2977835 10.3090975,10.1194256 11.633363,9.12748119 C12.9790591,8.1171019 14.4430518,7.29623326 15.9963385,6.67873829 C17.5470535,7.29638074 19.0083317,8.11606955 20.3508846,9.12217193 C21.6802934,10.1194256 22.8841192,11.3069273 23.9432172,12.6604904 C23.8529232,14.3898303 23.5524668,16.0691747 23.0442768,17.6787615 C22.5360869,19.2982295 21.8258783,20.8415982 20.929081,22.2778971 Z"/>
  </g>
</svg>
