<svg xmlns="http://www.w3.org/2000/svg" width="16" height="16" viewBox="0 0 16 16">
  <path d="M2.2107,4.0075 L13.7587,4.0075 L13.7587,-0.0002 L14.7587,-0.0002 L14.7587,4.0078 L14.8467,4.0078 C15.4657,4.0078 15.9687,4.5118 15.9687,5.1308 L15.9687,7.4898 C15.9687,8.1098 15.4657,8.6118 14.8467,8.6118 L1.1217,8.6118 C0.5027,8.6118 -0.0003,8.1098 -0.0003,7.4898 L-0.0003,5.1308 C-0.0003,4.5118 0.5027,4.0078 1.1217,4.0078 L1.2107,4.0078 L1.2107,-0.0002 L2.2107,-0.0002 L2.2107,4.0075 Z M13.7587,5.0075 L2.2107,5.0075 L1.1217,5.0078 C1.0547,5.0078 0.9997,5.0638 0.9997,5.1308 L0.9997,7.4898 C0.9997,7.5578 1.0547,7.6118 1.1217,7.6118 L14.8467,7.6118 C14.9137,7.6118 14.9687,7.5578 14.9687,7.4898 L14.9687,5.1308 C14.9687,5.0638 14.9137,5.0078 14.8467,5.0078 L13.7587,5.0078 Z M8.458,14.1048249 L10.8626,11.8448 L11.5486,12.5728 L7.9686,15.9358 L4.3886,12.5728 L5.0746,11.8448 L7.458,14.0848995 L7.458,9.5775 L8.458,9.5775 L8.458,14.1048249 Z"/>
</svg>
