<svg xmlns="http://www.w3.org/2000/svg" width="16" height="16" viewBox="0 0 16 16">
  <path d="M6.91755555,9.79864445 L2.09855568,14.6176443 L4.978,14.1874 L5.126,15.1754 L0,15.9434 L0.768,10.8174 L1.756,10.9654 L1.30294071,13.9975353 L6.2386533,9.06319506 C6.08697843,8.78127739 6.0009,8.45881476 6.0009,8.1162 C6.0009,7.184518 6.63973647,6.40025981 7.5033,6.17813587 L7.5033,-0.0001 L8.5033,-0.0001 L8.5033,6.17835875 C9.36620215,6.400784 10.0039,7.18482936 10.0039,8.1162 C10.0039,8.45849333 9.91807879,8.78067231 9.76680148,9.06240148 L14.6319937,13.9275937 L14.1894,10.9655 L15.1774,10.8175 L15.9454,15.9435 L10.8184,15.1755 L10.9674,14.1875 L13.917905,14.6283622 L9.08848444,9.79829625 C8.77577724,10.0007072 8.40304174,10.1182 8.0029,10.1182 C7.60298776,10.1182 7.23031935,10.000842 6.91755555,9.79864445 Z"/>
</svg>
