<svg xmlns="http://www.w3.org/2000/svg" width="16" height="16" viewBox="0 0 16 16">
  <path d="M11.3389,15.4636 L4.7709,15.4636 C2.9819,15.4636 1.5259,14.0086 1.5259,12.2196 L1.5259,4.5486 L-0.0001,4.5486 L-0.0001,3.5486 L2.5259,3.5486 L2.5259,12.2196 C2.5259,13.4566 3.5329,14.4636 4.7709,14.4636 L11.3389,14.4636 C12.5759,14.4636 13.5829,13.4566 13.5829,12.2196 L13.5829,3.5486 L16.0379,3.5486 L16.0379,4.5486 L14.5829,4.5486 L14.5829,12.2196 C14.5829,14.0086 13.1279,15.4636 11.3389,15.4636 Z M11.8525,9.5017 L11.8525,10.5967 L8.0035,12.3167 L4.1545,10.5967 L4.1545,9.5017 L8.0035,11.2217 L11.8525,9.5017 Z M11.8525,5.2507 L11.8525,6.3457 L8.0035,8.0657 L4.1545,6.3457 L4.1545,5.2507 L8.0035,6.9707 L11.8525,5.2507 Z M11.8525,0.9997 L11.8525,2.0947 L8.0035,3.8147 L4.1545,2.0947 L4.1545,0.9997 L8.0035,2.7197 L11.8525,0.9997 Z"/>
</svg>
