<svg xmlns="http://www.w3.org/2000/svg" width="16" height="16" viewBox="0 0 16 16">
  <path d="m15.143 15.85-3.872-3.872a.5.5 0 0 1-.034-.738 6.01 6.01 0 0 0 0-8.486c-2.341-2.34-6.147-2.34-8.484 0a6.01 6.01 0 0 0 0 8.486 5.96 5.96 0 0 0 4.242 1.757.5.5 0 0 1 0 1 6.955 6.955 0 0 1-4.949-2.05c-2.728-2.73-2.728-7.171 0-9.9 2.728-2.73 7.168-2.73 9.898 0 2.609 2.61 2.723 6.785.342 9.532l3.565 3.564a.502.502 0 0 1-.708.708ZM6.254 3l.277 5.063h.935L7.754 3h-1.5Zm.222 7.548a.727.727 0 0 0 .533.222c.198 0 .371-.073.52-.22a.715.715 0 0 0 .225-.53.716.716 0 0 0-.222-.534.724.724 0 0 0-.523-.216.731.731 0 0 0-.533.219.719.719 0 0 0-.222.53c0 .205.074.38.222.529Z" />
</svg>