<svg xmlns="http://www.w3.org/2000/svg" width="16" height="16" viewBox="0 0 16 16">
  <path d="M6.5,2.30901699 L6.5,10.9994368 C6.5,11.0612587 6.48878006,11.1204601 6.46826537,11.1751157 L9.5,12.690983 L9.5,3.80901699 L6.5,2.30901699 Z M5.5,2.26944034 L2.00085449,3.82491148 L2.00085449,12.7305597 L5.52734271,11.1629339 C5.50962404,11.1117023 5.5,11.0566935 5.5,10.9994368 L5.5,2.26944034 Z M5.77431882,1.05314589 C5.84211628,1.01879409 5.91879757,0.999436831 6,0.999436831 C6.08907405,0.999436831 6.17270794,1.02272891 6.24514327,1.06355464 L10.0125558,2.94726089 L14.2969308,1.04309423 C14.6275745,0.896141471 15,1.1381708 15,1.5 L15,11.5 C15,11.6975944 14.8836332,11.8766551 14.7030692,11.9569058 L10.2030692,13.9569058 C10.0665392,14.0175858 9.9100271,14.0140305 9.7763932,13.9472136 L5.9874635,12.0527487 L1.70395593,13.9568915 C1.37330869,14.1038737 1.00085449,13.8618444 1.00085449,13.5 L1.00085449,3.5 C1.00085449,3.30241842 1.11720638,3.12336675 1.29775305,3.04310854 L5.77431882,1.05314589 Z M10.5,3.82493654 L10.5,12.730619 L14,11.1750635 L14,2.26938099 L10.5,3.82493654 Z"/>
</svg>
