<svg xmlns="http://www.w3.org/2000/svg" width="16" height="16" viewBox="0 0 16 16">
  <path d="M5 9H3V8h2v1Zm0-2H3V6h2v1Z"/>
  <path fill-rule="evenodd" d="M12.553 1.105A1 1 0 0 1 14 2v3.5a2 2 0 1 1 0 4V13a1 1 0 0 1-1.474.88l-.012-.006-.037-.02-.138-.074a173.09 173.09 0 0 0-2.173-1.141C8.954 12.013 7.607 11.342 6.798 11H6v3a1 1 0 0 1-1 1H4a1 1 0 0 1-1-1v-3.036A3.5 3.5 0 0 1 3.5 4h3.264l5.789-2.894ZM4 14h1v-3H4v3Zm3-9v5c1.667.667 6 3 6 3V2L7 5ZM3.5 5a2.5 2.5 0 0 0 0 5H6V5H3.5ZM14 8.5a1 1 0 1 0 0-2v2Z" clip-rule="evenodd"/>
</svg>
