<svg xmlns="http://www.w3.org/2000/svg" width="32" height="32" viewBox="0 0 32 32">
  <path d="M16 0c5.5228475 0 10 4.4771525 10 10s-4.4771525 10-10 10S6 15.5228475 6 10 10.4771525 0 16 0zm0 2c-4.418278 0-8 3.581722-8 8s3.581722 8 8 8 8-3.581722 8-8-3.581722-8-8-8z"/>
  <path class="euiIcon__fillSecondary" d="M8.40092 19.2878c.49076.402 1.01397.7659 1.56509 1.0871L7.26023 23.682C7.72604 24.3359 8 25.136 8 26c0 2.2092-1.79086 4-4 4s-4-1.7908-4-4c0-2.2091 1.79086-4 4-4 .65662 0 1.27629.1582 1.82296.4386l2.57796-3.1508zm15.19818 0l2.5779 3.1508C26.7237 22.1582 27.3434 22 28 22c2.2091 0 4 1.7909 4 4 0 2.2092-1.7909 4-4 4-2.2091 0-4-1.7908-4-4 0-.864.274-1.6641.7398-2.318l-2.7058-3.3071c.5511-.3212 1.0743-.6851 1.5651-1.0871zM4 24c-1.10457 0-2 .8954-2 2s.89543 2 2 2 2-.8954 2-2-.89543-2-2-2zm24 0c-1.1046 0-2 .8954-2 2s.8954 2 2 2 2-.8954 2-2-.8954-2-2-2zM17 6v3h3v2h-3v3h-2v-3h-3V9h3V6h2z"/>
</svg>
