<svg xmlns="http://www.w3.org/2000/svg" width="32" height="32" viewBox="0 0 32 32">
  <path d="M2 20v10h10v2H0V20h2zm30 0v12H20v-2h10V20h2zM12 4c4.4183 0 8 3.58172 8 8 0 4.4183-3.5817 8-8 8-4.41828 0-8-3.5817-8-8 0-4.41828 3.58172-8 8-8zm0 2c-3.31371 0-6 2.68629-6 6 0 3.3137 2.68629 6 6 6 3.3137 0 6-2.6863 6-6 0-3.31371-2.6863-6-6-6zm0-6v2H2v10H0V0h12zm20 0v12h-2V2H20V0h12z"/>
  <path class="euiIcon__fillSecondary" d="M21.9969 12.2512c-.017.6883-.1035 1.3592-.2528 2.0062C24.2072 15.0045 26 17.2929 26 20c0 3.3137-2.6863 6-6 6-2.7071 0-4.9955-1.7928-5.7426-4.2559-.6469.1493-1.3179.2358-2.0062.2528C13.1382 25.4489 16.2712 28 20 28c4.4183 0 8-3.5817 8-8 0-3.7288-2.5511-6.8618-6.0031-7.7488z"/>
</svg>
