<svg xmlns="http://www.w3.org/2000/svg" width="16" height="16" viewBox="0 0 16 16">
  <path d="M4.05 12.95A6.982 6.982 0 0 1 2 8c0-1.79.684-3.583 2.05-4.95A6.982 6.982 0 0 1 9 1a1 1 0 0 1 .708 1.707 4.982 4.982 0 0 0-1.465 3.536 4.98 4.98 0 0 0 1.465 3.535 4.98 4.98 0 0 0 3.535 1.465 1 1 0 0 1 .707 1.707A6.981 6.981 0 0 1 9 15a6.983 6.983 0 0 1-4.95-2.05Zm.708-.707A5.983 5.983 0 0 0 9 14c1.535 0 3.07-.586 4.242-1.757a5.98 5.98 0 0 1-4.018-1.545L9 10.485a5.982 5.982 0 0 1-1.758-4.242A5.986 5.986 0 0 1 9 2a5.983 5.983 0 0 0-4.243 1.757A5.98 5.98 0 0 0 3 8l.006.288a5.978 5.978 0 0 0 1.75 3.955Z"/>
</svg>
