<svg xmlns="http://www.w3.org/2000/svg" width="16" height="16" viewBox="0 0 16 16">
	<path d="M5.5,1 C5.77614237,1 6,1.22385763 6,1.5 C6,1.77614237 5.77614237,2 5.5,2 L3.00585866,2 C2.44976457,2 2,2.44991848 2,3.00585866 L2,12.9941413 C2,13.5502354 2.44991848,14 3.00585866,14 L5.5,14 C5.77614237,14 6,14.2238576 6,14.5 C6,14.7761424 5.77614237,15 5.5,15 L3.00585866,15 C1.89805351,15 1,14.1029399 1,12.9941413 L1,3.00585866 C1,1.89805351 1.89706013,1 3.00585866,1 L5.5,1 Z M12.9941413,1 C14.0525399,1 14.9180116,1.81826777 14.9945041,2.85615908 L15,3.00585866 L15,12.9941413 C15,14.0525399 14.1817322,14.9180116 13.1438409,14.9945041 L12.9941413,15 L10.5,15 C10.2238576,15 10,14.7761424 10,14.5 C10,14.2545401 10.1768752,14.0503916 10.4101244,14.0080557 L10.5,14 L12.9941413,14 C13.5103715,14 13.935185,13.6121928 13.9932388,13.1115517 L14,12.9941413 L14,3.00585866 C14,2.48962849 13.6121928,2.064815 13.1115517,2.00676118 L12.9941413,2 L10.5,2 C10.2238576,2 10,1.77614237 10,1.5 C10,1.25454011 10.1768752,1.05039163 10.4101244,1.00805567 L10.5,1 L12.9941413,1 Z M5,7 C5.55228475,7 6,7.44771525 6,8 C6,8.55228475 5.55228475,9 5,9 C4.44771525,9 4,8.55228475 4,8 C4,7.44771525 4.44771525,7 5,7 Z M8,7 C8.55228475,7 9,7.44771525 9,8 C9,8.55228475 8.55228475,9 8,9 C7.44771525,9 7,8.55228475 7,8 C7,7.44771525 7.44771525,7 8,7 Z M11,7 C11.5522847,7 12,7.44771525 12,8 C12,8.55228475 11.5522847,9 11,9 C10.4477153,9 10,8.55228475 10,8 C10,7.44771525 10.4477153,7 11,7 Z" />
</svg>
