<svg width="16" height="16" viewBox="0 0 16 16"  xmlns="http://www.w3.org/2000/svg">
<path d="M8 4C8.27614 4 8.5 4.22386 8.5 4.5V6H10C10.2761 6 10.5 6.22386 10.5 6.5C10.5 6.77614 10.2761 7 10 7H8.5V8.5C8.5 8.77614 8.27614 9 8 9C7.72386 9 7.5 8.77614 7.5 8.5V7H6C5.72386 7 5.5 6.77614 5.5 6.5C5.5 6.22386 5.72386 6 6 6H7.5V4.5C7.5 4.22386 7.72386 4 8 4Z" />
<path fill-rule="evenodd" clip-rule="evenodd" d="M1 4C1 2.61929 2.11929 1.5 3.5 1.5H12.5C13.8807 1.5 15 2.61929 15 4V9C15 10.3807 13.8807 11.5 12.5 11.5H7.70711L4.5 14.7071V11.5H3.5C2.11929 11.5 1 10.3807 1 9V4ZM3.5 2.5C2.67157 2.5 2 3.17157 2 4V9C2 9.82843 2.67157 10.5 3.5 10.5H5.5V12.2929L7.29289 10.5H12.5C13.3284 10.5 14 9.82843 14 9V4C14 3.17157 13.3284 2.5 12.5 2.5H3.5Z" />
</svg>
