<svg xmlns="http://www.w3.org/2000/svg" width="16" height="16" viewBox="0 0 16 16">
  <path d="M8,14 C7.17157288,14 6.5,13.3284271 6.5,12.5 C6.5,11.6715729 7.17157288,11 8,11 C8.82842712,11 9.5,11.6715729 9.5,12.5 C9.5,13.3284271 8.82842712,14 8,14 Z M8,13 C8.27614237,13 8.5,12.7761424 8.5,12.5 C8.5,12.2238576 8.27614237,12 8,12 C7.72385763,12 7.5,12.2238576 7.5,12.5 C7.5,12.7761424 7.72385763,13 8,13 Z M11.1890025,9.35949205 C11.3802321,9.55870511 11.3737603,9.87522144 11.1745472,10.0664511 C10.9753341,10.2576807 10.6588178,10.2512088 10.4675882,10.0519958 C9.82636793,9.38400594 8.94440427,9 8,9 C7.06303116,9 6.18742402,9.37793616 5.5472099,10.036675 C5.35475201,10.2347017 5.03820171,10.2392161 4.84017501,10.0467582 C4.64214831,9.85430036 4.6376339,9.53775006 4.83009179,9.33972336 C5.65670997,8.4891868 6.79006396,8 8,8 C9.219552,8 10.3611037,8.49703028 11.1890025,9.35949205 Z M13.2092134,7.22073771 C13.400443,7.41995077 13.3939712,7.7364671 13.1947581,7.92769672 C12.9955451,8.11892635 12.6790288,8.1124545 12.4877991,7.91324144 C11.3218935,6.69866174 9.7172458,6 8,6 C6.29627942,6 4.70318616,6.68762294 3.53910336,7.88538873 C3.34664547,8.08341543 3.03009517,8.08792984 2.83206847,7.89547196 C2.63404177,7.70301407 2.62952736,7.38646377 2.82198525,7.18843707 C4.17247211,5.79887358 6.02331222,5 8,5 C9.99239353,5 11.8566293,5.81168608 13.2092134,7.22073771 Z M15.2294244,5.08198337 C15.420654,5.28119642 15.4141821,5.59771276 15.2149691,5.78894238 C15.015756,5.98017201 14.6992397,5.97370016 14.5080101,5.7744871 C12.8174191,4.01331753 10.4900873,3 8,3 C5.52952768,3 3.21894831,3.99730971 1.53099681,5.73410244 C1.33853893,5.93212914 1.02198863,5.93664355 0.823961929,5.74418566 C0.625935231,5.55172778 0.621420819,5.23517748 0.813878706,5.03715078 C2.68823426,3.10856035 5.25656047,2 8,2 C10.7652351,2 13.3521549,3.12634187 15.2294244,5.08198337 Z"/>
</svg>
