<svg xmlns="http://www.w3.org/2000/svg" width="16" height="16" viewBox="0 0 16 16">
    <path d="M14.4472,3.72363l-6-3a.99965.99965,0,0,0-.8944,0l-6,3A.99992.99992,0,0,0,1,4.618v6.764a1.00012,1.00012,0,0,0,.5528.89441l6,3a1,1,0,0,0,.8944,0l6-3A1.00012,1.00012,0,0,0,15,11.382V4.618A.99992.99992,0,0,0,14.4472,3.72363ZM5.87085,5.897l5.34357-2.67181L13.372,4.304,8,6.94293ZM8,1.618,10.09637,2.6662,4.74292,5.343,2.628,4.30408ZM2,5.10968,4.25,6.215V9a.5.5,0,0,0,1,0V6.70618L7.5,7.81146V14.132L2,11.382ZM8.5,14.132V7.81146L14,5.10968V11.382Z"/>
</svg>