<svg xmlns="http://www.w3.org/2000/svg" width="16" height="16" viewBox="0 0 16 16">
  <path d="M8,7 L8,3.5 C8,3.22385763 7.77614237,3 7.5,3 C7.22385763,3 7,3.22385763 7,3.5 L7,7 L3.5,7 C3.22385763,7 3,7.22385763 3,7.5 C3,7.77614237 3.22385763,8 3.5,8 L7,8 L7,11.5 C7,11.7761424 7.22385763,12 7.5,12 C7.77614237,12 8,11.7761424 8,11.5 L8,8 L11.5,8 C11.7761424,8 12,7.77614237 12,7.5 C12,7.22385763 11.7761424,7 11.5,7 L8,7 Z M7.5,15 C3.35786438,15 0,11.6421356 0,7.5 C0,3.35786438 3.35786438,0 7.5,0 C11.6421356,0 15,3.35786438 15,7.5 C15,11.6421356 11.6421356,15 7.5,15 Z"/>
</svg>
