<svg xmlns="http://www.w3.org/2000/svg" width="16" height="16" viewBox="0 0 16 16">
	<path d="M13,8.5 C13,8.22385763 13.2238576,8 13.5,8 C13.7761424,8 14,8.22385763 14,8.5 L14,12 C14,13.1045695 13.1045695,14 12,14 L4,14 C2.8954305,14 2,13.1045695 2,12 L2,4 C2,2.8954305 2.8954305,2 4,2 L7.5,2 C7.77614237,2 8,2.22385763 8,2.5 C8,2.77614237 7.77614237,3 7.5,3 L4,3 C3.44771525,3 3,3.44771525 3,4 L3,12 C3,12.5522847 3.44771525,13 4,13 L12,13 C12.5522847,13 13,12.5522847 13,12 L13,8.5 Z M7.88066017,8.83883476 C7.68539803,9.03409691 7.36881554,9.03409691 7.17355339,8.83883476 C6.97829124,8.64357262 6.97829124,8.32699013 7.17355339,8.13172798 L13.3052814,2 L10.5,2 C10.2238576,2 10,1.77614237 10,1.5 C10,1.22385763 10.2238576,1 10.5,1 L14,1 C14.5522847,1 15,1.44771525 15,2 L15,5.5 C15,5.77614237 14.7761424,6 14.5,6 C14.2238576,6 14,5.77614237 14,5.5 L14,2.71949494 L7.88066017,8.83883476 Z" />
</svg>
