<svg xmlns="http://www.w3.org/2000/svg" width="16" height="16" viewBox="0 0 16 16">
  <path fill-rule="evenodd" d="m13.207 10.793-.707.707-.743-.743-9.351 4.157a1 1 0 0 1-1.32-1.32l4.156-9.352L4.5 3.5l.707-.707 8 8ZM2 14l3.664-1.629-2.036-2.036L2 14Zm2.063-4.644 2.58 2.58 1.79-.795L4.86 7.566l-.796 1.79Zm1.23-2.77 4.119 4.12L11 10 6 5l-.706 1.587Z" clip-rule="evenodd"/>
  <path d="M15 8h-.086a2.91 2.91 0 0 0-2.06.854l-.708-.708A3.915 3.915 0 0 1 14.914 7H15v1Zm-3.5-2a.5.5 0 1 1 0 1 .5.5 0 0 1 0-1Zm3-1a.5.5 0 1 1 0 1 .5.5 0 0 1 0-1Zm.853-2.646L13.56 4.146A2.915 2.915 0 0 1 11.5 5c-.508 0-.995.202-1.354.56l-.293.294-.707-.708.293-.292.214-.194A2.914 2.914 0 0 1 11.5 4c.507 0 .994-.202 1.353-.56l1.793-1.794.707.708ZM9 1.086a3.914 3.914 0 0 1-1.147 2.768l-.707-.708A2.914 2.914 0 0 0 8 1.086V1h1v.086ZM10.5 2a.5.5 0 1 1 0 1 .5.5 0 0 1 0-1Zm-4-1a.5.5 0 1 1 0 1 .5.5 0 0 1 0-1Zm6 0a.5.5 0 1 1 0 1 .5.5 0 0 1 0-1Z"/>
</svg>
