<svg xmlns="http://www.w3.org/2000/svg" width="16" height="16" viewBox="0 0 16 16">
  <path fill-rule="evenodd" d="M6 13a1 1 0 0 1-1 1H2a1 1 0 0 1-1-1v-3h1v3h3v-3h3.5a.5.5 0 0 0 0-1H4c-2 0-2 1-2 1-.995 0-1-.002-1-.002v-.015l.001-.018a1.235 1.235 0 0 1 .013-.15c.011-.08.032-.178.069-.288a1.88 1.88 0 0 1 .46-.734c.232-.232.527-.418.89-.552a1.999 1.999 0 0 1 .665-3.025l.05-.024c.046-.022.094-.042.142-.06.025-.01.05-.02.074-.028A1.985 1.985 0 0 1 4 5a2 2 0 0 1 1.73 3H8.5a1.5 1.5 0 0 1 .645.147l2.502-2.5.707.707-2.502 2.5A1.5 1.5 0 0 1 8.5 11H6v2ZM4 6a1 1 0 1 0 0 2 1 1 0 0 0 0-2Z" clip-rule="evenodd"/>
  <path d="M14 3H4v1c-.351 0-.687.063-1 .174V2h12v11H7v-1h7V3Z"/>
</svg>
