<svg width="16" height="16" viewBox="0 0 16 16" xmlns="http://www.w3.org/2000/svg">
<path fill-rule="evenodd" clip-rule="evenodd" d="M6 11C6.55228 11 7 11.4477 7 12V13L6.99512 13.1025C6.94379 13.6067 6.51768 14 6 14H2C1.44772 14 1 13.5523 1 13V12C1 11.4477 1.44772 11 2 11H6ZM2 13H6V12H2V13Z"/>
<path fill-rule="evenodd" clip-rule="evenodd" d="M14 7C14.5523 7 15 7.44772 15 8V13C15 13.5523 14.5523 14 14 14H9C8.44772 14 8 13.5523 8 13V8C8 7.44772 8.44772 7 9 7H14ZM9 13H14V8H9V13Z"/>
<path fill-rule="evenodd" clip-rule="evenodd" d="M6 7C6.55228 7 7 7.44772 7 8V9L6.99512 9.10254C6.94379 9.60667 6.51768 10 6 10H2C1.44772 10 1 9.55229 1 9V8C1 7.44772 1.44772 7 2 7H6ZM2 9H6V8H2V9Z"/>
<path fill-rule="evenodd" clip-rule="evenodd" d="M14 2C14.5177 2 14.9438 2.39333 14.9951 2.89746L15 3V5C15 5.55228 14.5523 6 14 6H2C1.44772 6 1 5.55228 1 5V3C1 2.44772 1.44772 2 2 2H14ZM2 5H14V3H2V5Z"/>
</svg>
