<svg width="16" height="16" viewBox="0 0 16 16" xmlns="http://www.w3.org/2000/svg">
<path d="M15 8C15.5523 8 16 8.44772 16 9V14C16 14.5523 15.5523 15 15 15H7C6.44772 15 6 14.5523 6 14V9C6 8.44772 6.44772 8 7 8H15ZM7 14H15V12H9V13H8V12H7V14ZM8 1C9.87133 1 11.4408 2.2849 11.8779 4.02051C13.4681 4.19126 14.7398 5.42673 14.9648 7H13.9502C13.7186 5.85886 12.7095 5 11.5 5C11.4902 5 11.4805 4.99989 11.4707 5C10.7921 5.00785 10.1789 5.2859 9.73242 5.73242L9.02539 5.02539C9.51263 4.53815 10.1438 4.19431 10.8496 4.06152C10.4557 2.86453 9.3288 2 8 2C6.34315 2 5 3.34315 5 5C5 5.16376 5.01302 5.32443 5.03809 5.48047L5.15527 6.20703L4.43652 6.04785C4.29661 6.01678 4.15029 6 4 6C2.89543 6 2 6.89543 2 8C2 9.10457 2.89543 10 4 10H5V11H4C2.34315 11 1 9.65685 1 8C1 6.34315 2.34315 5 4 5C4 2.79086 5.79086 1 8 1ZM7 11H15V9H9V10H8V9H7V11Z"/>
</svg>
