<svg width="16" height="16" viewBox="0 0 16 16" xmlns="http://www.w3.org/2000/svg">
<path fill-rule="evenodd" clip-rule="evenodd" d="M5.5 12C6.32843 12 7 12.6716 7 13.5C7 14.3284 6.32843 15 5.5 15C4.67157 15 4 14.3284 4 13.5C4 12.6716 4.67157 12 5.5 12ZM5.5 13C5.22386 13 5 13.2239 5 13.5C5 13.7761 5.22386 14 5.5 14C5.77614 14 6 13.7761 6 13.5C6 13.2239 5.77614 13 5.5 13Z"/>
<path fill-rule="evenodd" clip-rule="evenodd" d="M10.5 12C11.3284 12 12 12.6716 12 13.5C12 14.3284 11.3284 15 10.5 15C9.67157 15 9 14.3284 9 13.5C9 12.6716 9.67157 12 10.5 12ZM10.5 13C10.2239 13 10 13.2239 10 13.5C10 13.7761 10.2239 14 10.5 14C10.7761 14 11 13.7761 11 13.5C11 13.2239 10.7761 13 10.5 13Z"/>
<path d="M3.7998 3.90039L2.2002 5.09961C2.07429 5.19404 2 5.34262 2 5.5V10.3594L4.62109 9.7041C4.84368 9.64846 5 9.44818 5 9.21875V9H6V9.21875C6 9.90693 5.53183 10.5077 4.86426 10.6748L2.63965 11.2305L3.7998 12.0996L3.2002 12.9004L1.59961 11.7002C1.222 11.4169 1 10.9721 1 10.5V5.5C1 5.02793 1.222 4.58309 1.59961 4.2998L3.2002 3.09961L3.7998 3.90039Z"/>
<path d="M14.4004 4.2998C14.778 4.58309 15 5.02793 15 5.5V10.5C15 10.9721 14.778 11.4169 14.4004 11.7002L12.7998 12.9004L12.2002 12.0996L13.3594 11.2305L11.1357 10.6748C10.4682 10.5077 10 9.90693 10 9.21875V9H11V9.21875C11 9.44818 11.1563 9.64846 11.3789 9.7041L14 10.3594V5.5C14 5.34262 13.9257 5.19404 13.7998 5.09961L12.2002 3.90039L12.7998 3.09961L14.4004 4.2998Z"/>
<path fill-rule="evenodd" clip-rule="evenodd" d="M5.5 5C6.32843 5 7 5.67157 7 6.5C7 7.32843 6.32843 8 5.5 8C4.67157 8 4 7.32843 4 6.5C4 5.67157 4.67157 5 5.5 5ZM5.5 6C5.22386 6 5 6.22386 5 6.5C5 6.77614 5.22386 7 5.5 7C5.77614 7 6 6.77614 6 6.5C6 6.22386 5.77614 6 5.5 6Z"/>
<path fill-rule="evenodd" clip-rule="evenodd" d="M10.5 5C11.3284 5 12 5.67157 12 6.5C12 7.32843 11.3284 8 10.5 8C9.67157 8 9 7.32843 9 6.5C9 5.67157 9.67157 5 10.5 5ZM10.5 6C10.2239 6 10 6.22386 10 6.5C10 6.77614 10.2239 7 10.5 7C10.7761 7 11 6.77614 11 6.5C11 6.22386 10.7761 6 10.5 6Z"/>
<path fill-rule="evenodd" clip-rule="evenodd" d="M5.5 1C6.32843 1 7 1.67157 7 2.5C7 3.32843 6.32843 4 5.5 4C4.67157 4 4 3.32843 4 2.5C4 1.67157 4.67157 1 5.5 1ZM5.5 2C5.22386 2 5 2.22386 5 2.5C5 2.77614 5.22386 3 5.5 3C5.77614 3 6 2.77614 6 2.5C6 2.22386 5.77614 2 5.5 2Z"/>
<path fill-rule="evenodd" clip-rule="evenodd" d="M10.5 1C11.3284 1 12 1.67157 12 2.5C12 3.32843 11.3284 4 10.5 4C9.67157 4 9 3.32843 9 2.5C9 1.67157 9.67157 1 10.5 1ZM10.5 2C10.2239 2 10 2.22386 10 2.5C10 2.77614 10.2239 3 10.5 3C10.7761 3 11 2.77614 11 2.5C11 2.22386 10.7761 2 10.5 2Z"/>
</svg>