<svg width="16" height="16" viewBox="0 0 16 16" xmlns="http://www.w3.org/2000/svg">
<path d="M8 1C11.866 1 15 4.13401 15 8C15 11.866 11.866 15 8 15C4.13401 15 1 11.866 1 8C1 4.13401 4.13401 1 8 1ZM8.5 3.5H7.5V2.02246C4.58523 2.263 2.263 4.58523 2.02246 7.5H3.5V8.5H2.02246C2.263 11.4147 4.58527 13.736 7.5 13.9766V12.5H8.5V13.9766C11.4147 13.736 13.737 11.4147 13.9775 8.5H12.5V7.5H13.9775C13.737 4.58523 11.4148 2.263 8.5 2.02246V3.5ZM10.293 5.04492C10.4827 4.95868 10.7061 4.99911 10.8535 5.14648C11.0009 5.29386 11.0413 5.51729 10.9551 5.70703L8.45508 11.207C8.36524 11.4045 8.15791 11.5219 7.94238 11.4971C7.72698 11.4721 7.5523 11.3103 7.50977 11.0977L7.0752 8.9248L4.90234 8.49023C4.68968 8.4477 4.5279 8.27302 4.50293 8.05762C4.47812 7.84209 4.5955 7.63476 4.79297 7.54492L10.293 5.04492ZM6.61719 7.81348L7.59766 8.00977L7.66992 8.03027C7.83269 8.08911 7.9556 8.22915 7.99023 8.40234L8.18555 9.38184L9.49316 6.50684L6.61719 7.81348Z"/>
</svg>
