<svg width="16" height="16" viewBox="0 0 16 16" xmlns="http://www.w3.org/2000/svg">
<path fill-rule="evenodd" d="M8 14C11.3137 14 14 11.3137 14 8C14 4.68629 11.3137 2 8 2C4.68629 2 2 4.68629 2 8C2 11.3137 4.68629 14 8 14ZM8 15C11.866 15 15 11.866 15 8C15 4.13401 11.866 1 8 1C4.13401 1 1 4.13401 1 8C1 11.866 4.13401 15 8 15Z" />
<path d="M9 11C9 11.5523 8.55228 12 8 12C7.44772 12 7 11.5523 7 11C7 10.4477 7.44772 10 8 10C8.55228 10 9 10.4477 9 11Z" />
<path fill-rule="evenodd" d="M7.99954 4.00006L8.00105 4.00006L8.00224 4.00006L8.00506 4.00008L8.01237 4.00017L8.0335 4.0007C8.05039 4.00127 8.07284 4.00231 8.10008 4.00426C8.15439 4.00814 8.22871 4.01566 8.31658 4.0303C8.48996 4.0592 8.72876 4.11793 8.97362 4.24037C9.22044 4.36379 9.48246 4.55677 9.68166 4.85559C9.88295 5.15755 10 5.53767 10 6.00019C10 6.4627 9.88295 6.84283 9.68164 7.14476C9.48242 7.44357 9.22037 7.6365 8.97353 7.75987C8.8066 7.8433 8.64249 7.89712 8.5 7.93207V8.99995H7.5V6.99983L7.99707 6.99995L8.00031 6.99986C8.0054 6.99969 8.01517 6.99928 8.02895 6.9983C8.05667 6.99633 8.09953 6.99213 8.15229 6.98335C8.26016 6.9654 8.39634 6.93041 8.52647 6.86537C8.65463 6.80131 8.76758 6.71306 8.84961 6.59003C8.92955 6.47012 9 6.28774 9 6.00019C9 5.71264 8.92956 5.53022 8.84959 5.41026C8.76754 5.28717 8.65456 5.19888 8.52638 5.13478C8.39624 5.06971 8.26004 5.03468 8.15217 5.0167C8.09942 5.0079 8.05655 5.0037 8.02883 5.00172C8.01505 5.00073 8.00528 5.00032 8.00019 5.00015C7.9951 5.00032 7.98491 5.00073 7.97113 5.00172C7.94341 5.00369 7.90055 5.00789 7.84779 5.01668C7.73992 5.03465 7.60373 5.06967 7.4736 5.13474C7.34543 5.19882 7.23246 5.28711 7.15041 5.41019C7.07045 5.53014 7 5.71257 7 6.00014H6C6 5.53761 6.11705 5.15747 6.31834 4.85552C6.51754 4.55669 6.77957 4.36371 7.0264 4.2403C7.27127 4.11788 7.51008 4.05916 7.68346 4.03028C7.77133 4.01564 7.84565 4.00813 7.89996 4.00425C7.9272 4.00231 7.94965 4.00126 7.96654 4.0007L7.98768 4.00017L7.99499 4.00008L7.9978 4.00006L7.99954 4.00006Z"/>
</svg>
