<svg xmlns="http://www.w3.org/2000/svg" width="16" height="16" viewBox="0 0 16 16">
  <path d="M5.00836286,2 L2.2819426,2 C2.10094559,2 2.03675011,2.00221025 2.00740355,2.00740355 C2.00221025,2.03675011 2,2.10094559 2,2.2819426 L2,13.7180574 C2,13.8990544 2.00221025,13.9632499 2.00740355,13.9925965 C2.03675011,13.9977897 2.10094559,14 2.2819426,14 L13.7180574,14 C13.8990544,14 13.9632499,13.9977897 13.9925965,13.9925965 C13.9977897,13.9632499 14,13.8990544 14,13.7180574 L14,4.61960463 C14,4.48940244 13.9986988,4.44015292 13.9962263,4.41577669 C13.9807381,4.39679172 13.9468334,4.361047 13.8547666,4.26898015 L11.7310199,2.14523341 C11.638953,2.05316656 11.6032083,2.01926195 11.5842233,2.00377372 C11.5598471,2.00130115 11.5105976,2 11.3803954,2 L10.9916371,2 C10.9971841,2.07958716 11,2.17214619 11,2.2819426 L11,4.7180574 C11,5.16381677 10.9535872,5.32545989 10.8664336,5.48842285 C10.7792801,5.65138581 10.6513858,5.7792801 10.4884229,5.86643365 C10.3254599,5.95358719 10.1638168,6 9.7180574,6 L6.2819426,6 C5.83618323,6 5.67454011,5.95358719 5.51157715,5.86643365 C5.34861419,5.7792801 5.2207199,5.65138581 5.13356635,5.48842285 C5.04641281,5.32545989 5,5.16381677 5,4.7180574 L5,2.2819426 C5,2.17214619 5.00281587,2.07958716 5.00836286,2 Z M2.2819426,1 L11.3803954,1 C11.6386035,1 11.7279223,1.00934929 11.8269182,1.0321654 C11.9259141,1.0549815 12.0135088,1.09126442 12.0996429,1.14513166 C12.185777,1.1989989 12.2555459,1.25554593 12.4381266,1.43812663 L14.5618734,3.56187337 C14.7444541,3.74445407 14.8010011,3.81422299 14.8548683,3.90035708 C14.9087356,3.98649117 14.9450185,4.07408587 14.9678346,4.17308176 C14.9906507,4.27207766 15,4.36139652 15,4.61960463 L15,13.7180574 C15,14.1638168 14.9535872,14.3254599 14.8664336,14.4884229 C14.7792801,14.6513858 14.6513858,14.7792801 14.4884229,14.8664336 C14.3254599,14.9535872 14.1638168,15 13.7180574,15 L2.2819426,15 C1.83618323,15 1.67454011,14.9535872 1.51157715,14.8664336 C1.34861419,14.7792801 1.2207199,14.6513858 1.13356635,14.4884229 C1.04641281,14.3254599 1,14.1638168 1,13.7180574 L1,2.2819426 C1,1.83618323 1.04641281,1.67454011 1.13356635,1.51157715 C1.2207199,1.34861419 1.34861419,1.2207199 1.51157715,1.13356635 C1.67454011,1.04641281 1.83618323,1 2.2819426,1 Z M6,2.2819426 L6,4.7180574 C6,4.89905441 6.00221025,4.96324989 6.00740355,4.99259645 C6.03675011,4.99778975 6.10094559,5 6.2819426,5 L9.7180574,5 C9.89905441,5 9.96324989,4.99778975 9.99259645,4.99259645 C9.99778975,4.96324989 10,4.89905441 10,4.7180574 L10,2.2819426 C10,2.10094559 9.99778975,2.03675011 9.99259645,2.00740355 C9.96324989,2.00221025 9.89905441,2 9.7180574,2 L6.2819426,2 C6.10094559,2 6.03675011,2.00221025 6.00740355,2.00740355 C6.00221025,2.03675011 6,2.10094559 6,2.2819426 Z M8,12 C6.8954305,12 6,11.1045695 6,10 C6,8.8954305 6.8954305,8 8,8 C9.1045695,8 10,8.8954305 10,10 C10,11.1045695 9.1045695,12 8,12 Z M8,11 C8.55228475,11 9,10.5522847 9,10 C9,9.44771525 8.55228475,9 8,9 C7.44771525,9 7,9.44771525 7,10 C7,10.5522847 7.44771525,11 8,11 Z"/>
</svg>
