<svg xmlns="http://www.w3.org/2000/svg" width="16" height="16" viewBox="0 0 16 16">
  <path d="M3,6.81092456 L3,13.1890754 C3,13.6827785 3.4476522,14.0909091 3.99201702,14.0909091 L11.007983,14.0909091 C11.5510564,14.0909091 12,13.6839525 12,13.1890754 L12,6.81092456 C12,6.3172215 11.5523478,5.90909091 11.007983,5.90909091 L3.99201702,5.90909091 C3.44894365,5.90909091 3,6.31604746 3,6.81092456 Z M6,5 L6,5.90909091 L9,5.90909091 L9,5 L11.007983,5 C12.1081436,5 13,5.81834197 13,6.81092456 L13,13.1890754 C13,14.1892215 12.0998238,15 11.007983,15 L3.99201702,15 C2.8918564,15 2,14.181658 2,13.1890754 L2,6.81092456 C2,5.81077854 2.90017617,5 3.99201702,5 L6,5 Z M7.99736189,1.44832298 C7.9991062,1.46531103 8,1.48255114 8,1.5 L8,9.5 C8,9.77614237 7.77614237,10 7.5,10 C7.22385763,10 7,9.77614237 7,9.5 L7,1.5 C7,1.49425348 7.00009694,1.4885296 7.00028928,1.48282991 L5.18075,3.394214 C4.96775,3.62242396 4.62175,3.62242396 4.40975,3.394214 C4.19675,3.16600404 4.19675,2.79366147 4.40975,2.56545152 L6.35975,0.515929539 C7.00075,-0.173067993 8.03175,-0.170884166 8.67075,0.515929539 L10.62075,2.56545152 C10.83375,2.79366147 10.83375,3.16600404 10.62075,3.394214 C10.40875,3.62242396 10.06275,3.62242396 9.84975,3.394214 L7.99736189,1.44832298 Z"/>
</svg>
