<svg xmlns="http://www.w3.org/2000/svg" width="16" height="16" viewBox="0 0 16 16">
  <path fill="none" stroke="currentColor" d="M10 5.5H6C5.72386 5.5 5.5 5.72386 5.5 6V10C5.5 10.2761 5.72386 10.5 6 10.5H10C10.2761 10.5 10.5 10.2761 10.5 10V6C10.5 5.72386 10.2761 5.5 10 5.5Z"/>
  <path fill="none" stroke="currentColor" d="M12 4L13.5 2.5"/>
  <path fill="none" stroke="currentColor" d="M4 4L2.5 2.5"/>
  <path fill="none" stroke="currentColor" d="M4 12L2.5 13.5"/>
  <path fill="none" stroke="currentColor" d="M12 12L13.5 13.5"/>
  <path fill="none" stroke="currentColor" d="M8 4V1"/>
  <path fill="none" stroke="currentColor" d="M8 15V12"/>
  <path fill="none" stroke="currentColor" d="M12.0049 7.99609H15.0049"/>
  <path fill="none" stroke="currentColor" d="M1.00488 7.99609H4.00488"/>
</svg>
