<svg xmlns="http://www.w3.org/2000/svg" width="16" height="16" viewBox="0 0 16 16">
  <path d="M8.5 15H7.5V12H8.5V15Z"/>
  <path d="M4.35352 12.3535L2.85352 13.8535L2.14648 13.1465L3.64648 11.6465L4.35352 12.3535Z"/>
  <path d="M13.8535 13.1465L13.1465 13.8535L11.6465 12.3535L12.3535 11.6465L13.8535 13.1465Z"/>
  <path fill-rule="evenodd" clip-rule="evenodd" d="M10 5C10.5523 5 11 5.44772 11 6V10C11 10.5523 10.5523 11 10 11H6C5.44772 11 5 10.5523 5 10V6C5 5.44772 5.44772 5 6 5H10ZM6 10H10V6H6V10Z"/>
  <path d="M4.00488 8.49512H1.00488V7.49512H4.00488V8.49512Z"/>
  <path d="M15.0049 8.49512H12.0049V7.49512H15.0049V8.49512Z"/>
  <path d="M4.35352 3.64648L3.64648 4.35352L2.14648 2.85352L2.85352 2.14648L4.35352 3.64648Z"/>
  <path d="M13.8535 2.85352L12.3535 4.35352L11.6465 3.64648L13.1465 2.14648L13.8535 2.85352Z"/>
  <path d="M8.5 4H7.5V1H8.5V4Z"/>
</svg>
