<svg xmlns="http://www.w3.org/2000/svg" width="16" height="16" viewBox="0 0 16 16">
  <path fill-rule="evenodd" d="M14.354 2.354 11.707 5H14v1h-3.293L10 6.707V7.5h3v1h-3v.793l.707.707H14v1h-2.293l2.646 2.646-.707.707L11 11.707V14h-1v-3.293L9.293 10H8.5v3h-1v-3h-.793L6 10.707V14H5v-2.293l-2.646 2.646-.708-.707L4.293 11H2v-1h3.293L6 9.293V8.5H3v-1h3v-.793L5.293 6H2V5h2.293L1.646 2.354l.708-.708L5 4.293V2h1v3.293L6.707 6H7.5V3h1v3h.793L10 5.293V2h1v2.293l2.646-2.647.707.708ZM7 9h2V7H7v2Z" clip-rule="evenodd"/>
</svg>
