<svg xmlns="http://www.w3.org/2000/svg" width="16" height="16" viewBox="0 0 16 16">
  <path d="M7,12.7855339 L7,3.19974747 L3.60355339,6.59619408 C3.40829124,6.79145622 3.09170876,6.79145622 2.89644661,6.59619408 C2.70118446,6.40093193 2.70118446,6.08434944 2.89644661,5.8890873 L6.43198052,2.35355339 C7.01776695,1.76776695 7.96751442,1.76776695 8.55330086,2.35355339 L12.0888348,5.8890873 C12.2840969,6.08434944 12.2840969,6.40093193 12.0888348,6.59619408 C11.8935726,6.79145622 11.5769901,6.79145622 11.381728,6.59619408 L8,3.21446609 L8,12.7708153 L11.381728,9.3890873 C11.5769901,9.19382515 11.8935726,9.19382515 12.0888348,9.3890873 C12.2840969,9.58434944 12.2840969,9.90093193 12.0888348,10.0961941 L8.55330086,13.631728 C7.96751442,14.2175144 7.01776695,14.2175144 6.43198052,13.631728 L2.89644661,10.0961941 C2.70118446,9.90093193 2.70118446,9.58434944 2.89644661,9.3890873 C3.09170876,9.19382515 3.40829124,9.19382515 3.60355339,9.3890873 L7,12.7855339 Z"/>
</svg>
