<svg xmlns="http://www.w3.org/2000/svg" xmlns:xlink="http://www.w3.org/1999/xlink" width="16" height="16" viewBox="0 0 16 16">
  <g fill-rule="evenodd" transform="translate(3 2)">
    <path d="M1.30761231,5 L9.44444444,5 C9.75126931,5 10,5.22385763 10,5.5 C10,5.77614237 9.75126931,6 9.44444444,6 L1.30761138,6 L5.40380592,10.0961945 C5.59906807,10.2914567 5.59906807,10.6080392 5.40380592,10.8033013 C5.20854378,10.9985635 4.89196129,10.9985635 4.69669914,10.8033013 L0.454058454,6.56066064 C0.195860972,6.30246316 0.0514693675,5.97355577 0.0208836412,5.63627218 C0.00727936293,5.59295096 0,5.54724056 0,5.5 C0,5.4527593 0.00727940553,5.40704878 0.0208837606,5.36372744 C0.0514697433,5.02644431 0.195861308,4.69753744 0.454058454,4.4393403 L4.69669914,0.196699609 C4.89196129,0.00143746353 5.20854378,0.00143746353 5.40380592,0.196699609 C5.59906807,0.391961755 5.59906807,0.708544245 5.40380592,0.903806391 L1.30761231,5 Z"/>
  </g>
</svg>
