<svg xmlns="http://www.w3.org/2000/svg" width="16" height="16" viewBox="0 0 16 16">
  <path fill-rule="evenodd" d="M8,2 C7.68125129,2 7.36250258,2.171 7.2080032,2.5115 L5.87750858,5.435 L2.75002123,5.88125 C2.03977411,5.98325 1.74877528,6.857 2.25427324,7.36775 L4.56651389,9.704 L4.00401616,12.9725 C3.90651656,13.54175 4.35726473,14 4.86351269,14 C5.00601211,14 5.15301151,13.964 5.29251095,13.8845 L8,12.3425 L10.707489,13.8845 C10.8469885,13.964 10.9939879,14 11.1364873,14 C11.6427353,14 12.0934834,13.54175 11.9959838,12.9725 L11.4334861,9.704 L13.7457268,7.36775 C14.2512247,6.857 13.9602259,5.98325 13.2499788,5.88125 L10.1224914,5.435 L8.7919968,2.5115 C8.63749742,2.171 8.31874871,2 8,2"/>
</svg>
