<svg width="16" height="16" viewBox="0 0 16 16" xmlns="http://www.w3.org/2000/svg">
<path fill-rule="evenodd" clip-rule="evenodd" d="M13.5 1C14.3284 1 15 1.67157 15 2.5C15 3.32843 14.3284 4 13.5 4C12.8471 4 12.293 3.58234 12.0869 3H11.5C10.6716 3 10 3.67157 10 4.5V5.5C10 6.06369 9.81083 6.58183 9.49609 7H9.49902C9.48356 7.02057 9.46725 7.04047 9.45117 7.06055C9.43959 7.075 9.42791 7.08932 9.41602 7.10352C9.37765 7.14932 9.33739 7.1934 9.2959 7.23633C9.27604 7.25686 9.2559 7.27703 9.23535 7.29688C9.1911 7.33965 9.14593 7.38145 9.09863 7.4209C9.08848 7.42936 9.07768 7.43701 9.06738 7.44531C9.0211 7.48269 8.97372 7.51868 8.9248 7.55273C8.91042 7.56274 8.89644 7.5733 8.88184 7.58301C8.82731 7.6193 8.77129 7.65354 8.71387 7.68555C8.69848 7.69411 8.68258 7.70171 8.66699 7.70996C8.60987 7.74023 8.55182 7.76906 8.49219 7.79492C8.47423 7.8027 8.45567 7.80904 8.4375 7.81641C8.30767 7.86909 8.17283 7.91199 8.0332 7.94238C8.01731 7.94584 8.00135 7.949 7.98535 7.95215C7.91855 7.96532 7.85083 7.97567 7.78223 7.9834C7.76016 7.98588 7.73806 7.98833 7.71582 7.99023C7.64468 7.99633 7.57273 8 7.5 8H6.99609C7.31083 8.41817 7.5 8.93631 7.5 9.5V10.5C7.5 11.3284 8.17157 12 9 12H12.0869C12.293 11.4177 12.8471 11 13.5 11C14.3284 11 15 11.6716 15 12.5C15 13.3284 14.3284 14 13.5 14C12.8471 14 12.293 13.5823 12.0869 13H9C7.61929 13 6.5 11.8807 6.5 10.5V9.5C6.5 8.67157 5.82843 8 5 8H3.91309C3.70703 8.58234 3.15293 9 2.5 9C1.67157 9 1 8.32843 1 7.5C1 6.67157 1.67157 6 2.5 6C3.15293 6 3.70703 6.41766 3.91309 7H7.5C8.32843 7 9 6.32843 9 5.5V4.5C9 3.11929 10.1193 2 11.5 2H12.0869C12.293 1.41766 12.8471 1 13.5 1ZM13.5 12C13.2239 12 13 12.2239 13 12.5C13 12.7761 13.2239 13 13.5 13C13.7761 13 14 12.7761 14 12.5C14 12.2239 13.7761 12 13.5 12ZM2.5 7C2.22386 7 2 7.22386 2 7.5C2 7.77614 2.22386 8 2.5 8C2.77614 8 3 7.77614 3 7.5C3 7.22386 2.77614 7 2.5 7ZM13.5 2C13.2239 2 13 2.22386 13 2.5C13 2.77614 13.2239 3 13.5 3C13.7761 3 14 2.77614 14 2.5C14 2.22386 13.7761 2 13.5 2Z" />
<path fill-rule="evenodd" clip-rule="evenodd" d="M13.5 6C14.3284 6 15 6.67157 15 7.5C15 8.32843 14.3284 9 13.5 9C12.8471 9 12.293 8.58234 12.0869 8H9.94824C10.2413 7.7129 10.484 7.37491 10.6621 7H12.0869C12.293 6.41766 12.8471 6 13.5 6ZM13.5 7C13.2239 7 13 7.22386 13 7.5C13 7.77614 13.2239 8 13.5 8C13.7761 8 14 7.77614 14 7.5C14 7.22386 13.7761 7 13.5 7Z" fill="black"/>
</svg>