<svg width="16" height="16" viewBox="0 0 16 16" xmlns="http://www.w3.org/2000/svg">
  <path d="M12 8a4 4 0 1 1-8 0 4 4 0 0 1 8 0ZM7.25.75a.75.75 0 0 1 1.5 0v1.5a.75.75 0 1 1-1.5 0V.75ZM7.25 13.75a.75.75 0 0 1 1.5 0v1.5a.75.75 0 0 1-1.5 0v-1.5ZM12.596 2.343a.75.75 0 0 1 1.06 1.06l-1.06 1.061a.75.75 0 0 1-1.06-1.06l1.06-1.06ZM3.404 11.536a.75.75 0 1 1 1.06 1.06l-1.06 1.06a.75.75 0 0 1-1.06-1.06l1.06-1.06ZM.75 8.75a.75.75 0 0 1 0-1.5h1.5a.75.75 0 1 1 0 1.5H.75ZM13.75 8.75a.75.75 0 0 1 0-1.5h1.5a.75.75 0 0 1 0 1.5h-1.5ZM2.343 3.404a.75.75 0 1 1 1.06-1.06l1.061 1.06a.75.75 0 0 1-1.06 1.06l-1.06-1.06ZM11.536 12.596a.75.75 0 0 1 1.06-1.06l1.06 1.06a.75.75 0 0 1-1.06 1.06l-1.06-1.06Z" />
</svg>