<svg xmlns="http://www.w3.org/2000/svg" width="16" height="16" viewBox="0 0 16 16">
  <path d="M16.000488,3 L16.000488,4 L16,14 C16,15.1045695 15.1045695,16 14,16 L2,16 C0.8954305,16 8.8817842e-16,15.1045695 8.8817842e-16,14 L8.8817842e-16,2 C8.8817842e-16,0.8954305 0.8954305,0 2,0 L14,0 C15.1045695,0 16,0.8954305 16,2 L16,3 L16.000488,3 Z M15,3 L15,2 C15,1.44771525 14.5522847,1 14,1 L2,1 C1.44771525,1 1,1.44771525 1,2 L1,3 L15,3 Z M15,4 L1,4 L1,14 C1,14.5522847 1.44771525,15 2,15 L14,15 C14.5522847,15 15,14.5522847 15,14 L15,4 Z M4.5,6 C4.77614237,6 5,6.22385763 5,6.5 C5,6.77614237 4.77614237,7 4.5,7 L2.49572754,7 C2.21958516,7 1.99572754,6.77614237 1.99572754,6.5 C1.99572754,6.22385763 2.21958516,6 2.49572754,6 L4.5,6 Z M9.71428571,6 C9.87208137,6 10,6.22385763 10,6.5 C10,6.77614237 9.87208137,7 9.71428571,7 L6.28571429,7 C6.12791865,7 6,6.77614237 6,6.5 C6,6.22385763 6.12791865,6 6.28571429,6 L9.71428571,6 Z M4.5,9 C4.77614237,9 5,9.22385763 5,9.5 C5,9.77614237 4.77614237,10 4.5,10 L2.49572754,10 C2.21958516,10 1.99572754,9.77614237 1.99572754,9.5 C1.99572754,9.22385763 2.21958516,9 2.49572754,9 L4.5,9 Z M9.71428571,9 C9.87208137,9 10,9.22385763 10,9.5 C10,9.77614237 9.87208137,10 9.71428571,10 L6.28571429,10 C6.12791865,10 6,9.77614237 6,9.5 C6,9.22385763 6.12791865,9 6.28571429,9 L9.71428571,9 Z M4.5,12 C4.77614237,12 5,12.2238576 5,12.5 C5,12.7761424 4.77614237,13 4.5,13 L2.49572754,13 C2.21958516,13 1.99572754,12.7761424 1.99572754,12.5 C1.99572754,12.2238576 2.21958516,12 2.49572754,12 L4.5,12 Z M13.5,6 C13.7761424,6 14,6.22385763 14,6.5 C14,6.77614237 13.7761424,7 13.5,7 L11.4957275,7 C11.2195852,7 10.9957275,6.77614237 10.9957275,6.5 C10.9957275,6.22385763 11.2195852,6 11.4957275,6 L13.5,6 Z M13.5,9 C13.7761424,9 14,9.22385763 14,9.5 C14,9.77614237 13.7761424,10 13.5,10 L11.4957275,10 C11.2195852,10 10.9957275,9.77614237 10.9957275,9.5 C10.9957275,9.22385763 11.2195852,9 11.4957275,9 L13.5,9 Z M13.5,12 C13.7761424,12 14,12.2238576 14,12.5 C14,12.7761424 13.7761424,13 13.5,13 L11.4957275,13 C11.2195852,13 10.9957275,12.7761424 10.9957275,12.5 C10.9957275,12.2238576 11.2195852,12 11.4957275,12 L13.5,12 Z M9.71428571,12 C9.87208137,12 10,12.2238576 10,12.5 C10,12.7761424 9.87208137,13 9.71428571,13 L6.28571429,13 C6.12791865,13 6,12.7761424 6,12.5 C6,12.2238576 6.12791865,12 6.28571429,12 L9.71428571,12 Z"/>
</svg>
