<svg xmlns="http://www.w3.org/2000/svg" width="16" height="16" viewBox="0 0 16 16">
  <path d="M5.41806912,-0.96334428 L12.8541839,-0.96334428 C13.2999433,-0.96334428 13.4615864,-0.916931474 13.6245494,-0.829777928 C13.7875123,-0.742624382 13.9154066,-0.614730095 14.0025602,-0.451767132 C14.0897137,-0.288804169 14.1361265,-0.12716105 14.1361265,0.31859832 L14.1361265,9.41705109 C14.1361265,9.6752592 14.1267772,9.76457806 14.1039611,9.86357396 C14.081145,9.96256985 14.0448621,10.0501646 13.9909949,10.1362986 C13.9371276,10.2224327 13.8805806,10.2922016 13.6979999,10.4747824 L10.0403276,14.1324547 C9.72565301,14.4471292 9.5788541,14.5285689 9.40233617,14.582264 C9.22581823,14.6359591 9.04526899,14.6362218 8.86859552,14.5830407 C8.69192206,14.5298596 8.54488674,14.4488475 8.22929768,14.1350901 L4.57692697,10.5039179 C4.39334831,10.3214047 4.3364612,10.2515484 4.28225818,10.1652525 C4.22805516,10.0789565 4.19152224,9.99112003 4.16854008,9.89183874 C4.14555792,9.79255745 4.13612652,9.70296339 4.13612652,9.44409628 L4.13612652,0.31859832 C4.13612652,-0.12716105 4.18253933,-0.288804169 4.26969287,-0.451767132 C4.35684642,-0.614730095 4.48474071,-0.742624382 4.64770367,-0.829777928 C4.81066663,-0.916931474 4.97230975,-0.96334428 5.41806912,-0.96334428 Z M5.13612652,0.31859832 L5.13612652,9.44409628 C5.13612652,9.57447926 5.13743293,9.62378262 5.13991633,9.64818007 C5.15546716,9.66714252 5.18951014,9.7028301 5.28197276,9.79475607 L8.93434347,13.4259284 C9.06256139,13.5534021 9.10960122,13.5970535 9.13405632,13.6140548 C9.15846182,13.5969824 9.20537441,13.5531943 9.33322078,13.4253479 L12.9908931,9.76767557 C13.08296,9.67560872 13.1168646,9.639864 13.1323528,9.62087903 C13.1348254,9.5965028 13.1361265,9.54725328 13.1361265,9.41705109 L13.1361265,0.31859832 C13.1361265,0.137601314 13.1339163,0.0734058266 13.128723,0.0440592686 C13.0993764,0.0388659751 13.0351809,0.0366557202 12.8541839,0.0366557202 L5.41806912,0.0366557202 C5.23707211,0.0366557202 5.17287663,0.0388659751 5.14353007,0.0440592686 C5.13833678,0.0734058266 5.13612652,0.137601314 5.13612652,0.31859832 Z M9.12051506,11.3347528 C8.01594556,11.3347528 7.12051506,10.4393223 7.12051506,9.33475276 C7.12051506,8.23018326 8.01594556,7.33475276 9.12051506,7.33475276 C10.2250846,7.33475276 11.1205151,8.23018326 11.1205151,9.33475276 C11.1205151,10.4393223 10.2250846,11.3347528 9.12051506,11.3347528 Z M9.12051506,10.3347528 C9.67279981,10.3347528 10.1205151,9.88703751 10.1205151,9.33475276 C10.1205151,8.78246801 9.67279981,8.33475276 9.12051506,8.33475276 C8.56823031,8.33475276 8.12051506,8.78246801 8.12051506,9.33475276 C8.12051506,9.88703751 8.56823031,10.3347528 9.12051506,10.3347528 Z M7.63612652,2.03665572 L10.6361265,2.03665572 C10.9122689,2.03665572 11.1361265,2.26051335 11.1361265,2.53665572 C11.1361265,2.8127981 10.9122689,3.03665572 10.6361265,3.03665572 L7.63612652,3.03665572 C7.35998415,3.03665572 7.13612652,2.8127981 7.13612652,2.53665572 C7.13612652,2.26051335 7.35998415,2.03665572 7.63612652,2.03665572 Z M7.63612652,4.03665572 L10.6361265,4.03665572 C10.9122689,4.03665572 11.1361265,4.26051335 11.1361265,4.53665572 C11.1361265,4.8127981 10.9122689,5.03665572 10.6361265,5.03665572 L7.63612652,5.03665572 C7.35998415,5.03665572 7.13612652,4.8127981 7.13612652,4.53665572 C7.13612652,4.26051335 7.35998415,4.03665572 7.63612652,4.03665572 Z" transform="rotate(-135 9.136 6.83)"/>
</svg>
