<svg xmlns="http://www.w3.org/2000/svg" width="16" height="16" viewBox="0 0 16 16">
  <path d="M10.834 9.5c.04.103.074.21.097.323.088.435.028.897-.182 1.377A2.993 2.993 0 0 1 6 12.231V13H5v-2.977L4.999 10H6v.019c.005.545.227 1.037.585 1.395A1.99 1.99 0 0 0 7.999 12a2.007 2.007 0 0 0 1.834-1.2c.142-.324.158-.577.117-.777a1.14 1.14 0 0 0-.278-.523h1.162ZM14 8.5H2v-1h12v1ZM11 6H9.999a1.995 1.995 0 0 0-2-2 2.006 2.006 0 0 0-1.834 1.2c-.142.324-.158.577-.117.778.037.18.129.352.278.522H5.164a1.96 1.96 0 0 1-.097-.323C4.98 5.742 5.04 5.28 5.25 4.8A3.006 3.006 0 0 1 7.999 3c.77 0 1.47.292 2.001.769V3h1v3Z"/>
</svg>
