<svg xmlns="http://www.w3.org/2000/svg" width="16" height="16" viewBox="0 0 16 16">
  <path d="M12 7h1v2h-1V7Z"/>
  <path fill-rule="evenodd" d="M7.8 14.22a1.135 1.135 0 0 1-1.89.437 3.221 3.221 0 0 1-.655-3.519l.484-1.132H3.001a2 2 0 0 1-1.977-2.308L1.74 3.12a2.5 2.5 0 0 1 2.47-2.114h2.988c.995 0 1.972.23 2.859.666a.999.999 0 0 1 .941-.666h3a1 1 0 0 1 1 1v8a1 1 0 0 1-1 1h-3a1 1 0 0 1-.943-.67A5.012 5.012 0 0 0 8.268 12.8L7.8 14.22Zm6.198-12.214h-3v8h3v-8ZM6.626 13.958c.07.073.193.044.225-.051l.467-1.42a6.012 6.012 0 0 1 2.68-3.309V2.78a5.472 5.472 0 0 0-2.8-.774H4.21a1.5 1.5 0 0 0-1.483 1.269l-.714 4.577A1 1 0 0 0 3 9.006h3.497a.5.5 0 0 1 .46.697l-.784 1.829a2.222 2.222 0 0 0 .452 2.426Z" clip-rule="evenodd"/>
</svg>
