<svg width="16" height="16" viewBox="0 0 16 16" xmlns="http://www.w3.org/2000/svg">
<path fill-rule="evenodd" d="M7.85361 4.85355C7.75985 4.94732 7.63267 5 7.50006 5C7.36745 5 7.24028 4.94732 7.14651 4.85355C7.05274 4.75979 7.00006 4.63261 7.00006 4.5V4H6.00006C5.73484 4 5.48049 3.89464 5.29295 3.70711C5.10542 3.51957 5.00006 3.26522 5.00006 3V1C5.00006 0.734783 5.10542 0.480429 5.29295 0.292893C5.48049 0.105357 5.73484 0 6.00006 0H9.00006C9.26526 0 9.51966 0.105357 9.70716 0.292893C9.89466 0.48043 10.0001 0.734784 10.0001 1V3C10.0001 3.26522 9.89466 3.51957 9.70716 3.70711C9.51966 3.89464 9.26526 4 9.00006 4H8.00006V4.5C8.00006 4.63261 7.94738 4.75979 7.85361 4.85355ZM6.00006 3V1H9.00006V3H6.00006Z"/>
<path fill-rule="evenodd" d="M2.14645 9.14645C2.05268 9.24022 2 9.36739 2 9.5V10H1C0.73478 10 0.48043 10.1054 0.29289 10.2929C0.10536 10.4804 0 10.7348 0 11V13C0 13.2652 0.10536 13.5196 0.29289 13.7071C0.48043 13.8946 0.73478 14 1 14H4C4.26522 14 4.51957 13.8946 4.70711 13.7071C4.89464 13.5196 5 13.2652 5 13V11C5 10.7348 4.89464 10.4804 4.70711 10.2929C4.51957 10.1054 4.26522 10 4 10H3V9.5C3 9.36739 2.94732 9.24022 2.85355 9.14645C2.75978 9.05268 2.63261 9 2.5 9C2.36739 9 2.24021 9.05268 2.14645 9.14645ZM4 13V11H1V13H4Z"/>
<path fill-rule="evenodd" d="M11.5001 15C13.9853 15 16.0001 12.9853 16.0001 10.5C16.0001 8.01472 13.9853 6 11.5001 6C9.01478 6 7.00006 8.01472 7.00006 10.5C7.00006 12.9853 9.01478 15 11.5001 15ZM11.8536 8.14645L13.8536 10.1464C14.0489 10.3417 14.0489 10.6583 13.8536 10.8536L11.8536 12.8536C11.6584 13.0488 11.3418 13.0488 11.1465 12.8536C10.9512 12.6583 10.9512 12.3417 11.1465 12.1464L12.293 11H9.50006C9.22392 11 9.00006 10.7761 9.00006 10.5C9.00006 10.2239 9.22392 10 9.50006 10H12.293L11.1465 8.85355C10.9512 8.65829 10.9512 8.34171 11.1465 8.14645C11.3418 7.95118 11.6584 7.95118 11.8536 8.14645Z"/>
<path fill-rule="evenodd" d="M8.33698 6H3.91471C3.70879 5.4174 3.15317 5 2.50006 5C1.84695 5 1.29133 5.4174 1.08541 6H0.500061C0.223919 6 6.10352e-05 6.22386 6.10352e-05 6.5C6.10352e-05 6.77614 0.223919 7 0.500061 7H1.08541C1.29133 7.5826 1.84695 8 2.50006 8C3.15317 8 3.70879 7.5826 3.91471 7H7.25722C7.57058 6.62057 7.93385 6.28389 8.33698 6ZM2.00006 6.5C2.00006 6.22386 2.22392 6 2.50006 6C2.7762 6 3.00006 6.22386 3.00006 6.5C3.00006 6.77614 2.7762 7 2.50006 7C2.22392 7 2.00006 6.77614 2.00006 6.5Z"/>
</svg>
