<svg xmlns="http://www.w3.org/2000/svg" width="16" height="16" viewBox="0 0 16 16">
  <path d="M6 1v2h4V1H6Zm5 2a1 1 0 0 1-1 1H8.5v1h-1V4H6a1 1 0 0 1-.995-.897L5 3V1a1 1 0 0 1 1-1h4a1 1 0 0 1 1 1v2ZM5 15v-2H1v2h4Zm-5-2a1 1 0 0 1 1-1h1.5v-1h1v1H5a1 1 0 0 1 .995.898L6 13v2a1 1 0 0 1-1 1H1a1 1 0 0 1-1-1v-2Z"/>
  <path fill-rule="evenodd" d="M3 6.5a1.5 1.5 0 0 1 1.413 1h3.315a5.524 5.524 0 0 0-.836 1H4.413a1.5 1.5 0 0 1-2.826 0H0v-1h1.587A1.5 1.5 0 0 1 3 6.5Zm0 1a.5.5 0 1 0 0 1 .5.5 0 0 0 0-1Z" clip-rule="evenodd"/>
  <path d="M15 11.5a3.5 3.5 0 1 0-3.5 3.5v1a4.5 4.5 0 1 1 0-9 4.5 4.5 0 0 1 0 9v-1a3.5 3.5 0 0 0 3.5-3.5Z"/>
  <path d="m14.207 11.5-2.354 2.354-.707-.707L12.293 12H9v-1h3.293l-1.146-1.146.707-.708 2.353 2.354Z"/>
</svg>
