<svg width="16" height="16" viewBox="0 0 16 16" fill="none" xmlns="http://www.w3.org/2000/svg">
<path d="M11 9H12V11H14V12H11V9Z" fill="#1D2A3E"/>
<path fill-rule="evenodd" clip-rule="evenodd" d="M7.75448 13.9951C7.27786 13.281 7 12.4229 7 11.5C7 9.01472 9.01472 7 11.5 7C12.4229 7 13.281 7.27786 13.9951 7.75448C14.3622 7.99951 14.6912 8.29707 14.9715 8.63642C15.614 9.41445 16 10.4121 16 11.5C16 13.9853 13.9853 16 11.5 16C10.4121 16 9.41446 15.614 8.63642 14.9715C8.29707 14.6912 7.99951 14.3622 7.75448 13.9951ZM15 11.5C15 13.433 13.433 15 11.5 15C9.567 15 8 13.433 8 11.5C8 9.567 9.567 8 11.5 8C13.433 8 15 9.567 15 11.5Z" fill="#1D2A3E"/>
<path d="M7.22224 14.9573C6.94006 14.6086 6.69966 14.2247 6.50864 13.8132C3.91642 13.1501 2 10.7989 2 8C2 6.34301 2.67109 4.84377 3.75741 3.75744L3.76415 3.75044L3.76685 3.74766L3.78 3.73433C3.79212 3.72212 3.81084 3.70349 3.83552 3.67952C3.87565 3.64055 3.93135 3.58767 4 3.52549L4 6H5L5 2L1 2V3L3.1002 3L3.07052 3.0296L3.05162 3.04878L3.04754 3.05296C1.78293 4.31895 1 6.06852 1 8C1 11.6031 3.72227 14.5704 7.22224 14.9573Z" fill="#1D2A3E"/>
<path d="M14.9573 7.22224C14.5704 3.72227 11.6031 1 8 1V2C10.7989 2 13.1501 3.91642 13.8132 6.50864C14.2247 6.69966 14.6086 6.94006 14.9573 7.22224Z" fill="#1D2A3E"/>
</svg>
