<svg xmlns="http://www.w3.org/2000/svg" width="16" height="16" viewBox="0 0 16 16">
  <path d="M6.5 8V4.207L4.854 5.854l-.708-.708L7 2.293l2.854 2.853-.708.708L7.5 4.207V8h-1Z"/>
  <path fill-rule="evenodd" d="M1 14a1 1 0 0 1-1-1V1a1 1 0 0 1 1-1h12a1 1 0 0 1 1 1v12a1 1 0 0 1-1 1H1ZM13 1H1v8h12V1Zm0 9.793V10h-.793l-3 3h1.586L13 10.793ZM10.793 10H9.207l-3 3h1.586l3-3Zm-3 0H6.207l-3 3h1.586l3-3Zm-3 0H3.207L1 12.207V13h.793l3-3Zm-3 0H1v.793L1.793 10ZM13 12.207l-.793.793H13v-.793Z" clip-rule="evenodd"/>
</svg>
