<svg xmlns="http://www.w3.org/2000/svg" width="16" height="16" viewBox="0 0 16 16">
  <path d="M9.146 9.854a.5.5 0 0 0 .708-.708l-2-2a.5.5 0 0 0-.708 0l-2 2a.5.5 0 1 0 .708.708L7 8.707V12.5a.5.5 0 0 0 1 0V8.707l1.146 1.147Z"/>
  <path fill-rule="evenodd" d="M15 2v11a2 2 0 0 1-2 2H2a2 2 0 0 1-2-2V2a2 2 0 0 1 2-2h11a2 2 0 0 1 2 2Zm-1 2.707V5h-1.293l-4-4h1.586L14 4.707ZM1 6h13v7a1 1 0 0 1-1 1H2a1 1 0 0 1-1-1V6Zm1.293-1H1V3.707L2.293 5Zm3 0H3.707L1 2.293V2a1 1 0 0 1 .455-.838L5.293 5Zm3 0H6.707l-4-4h1.586l4 4Zm3 0H9.707l-4-4h1.586l4 4ZM14 3.293V2a1 1 0 0 0-1-1h-1.293L14 3.293Z"/>
</svg>
