<svg xmlns="http://www.w3.org/2000/svg" width="16" height="16" viewBox="0 0 16 16">
  <path d="M6.53194523,7.34011741 C6.10557278,6.9453275 5.83866882,6.38076337 5.83866882,5.75386047 C5.83866882,4.56019023 6.80632975,3.5925293 8,3.5925293 C9.19367025,3.5925293 10.1613312,4.56019023 10.1613312,5.75386047 C10.1613312,6.38076337 9.89442722,6.9453275 9.46805477,7.34011741 C10.2362126,7.82695813 10.7461395,8.68459475 10.7461395,9.66133118 C10.7461395,11.1779822 9.51665098,12.4074707 8,12.4074707 C6.48334902,12.4074707 5.25386047,11.1779822 5.25386047,9.66133118 C5.25386047,8.68459475 5.76378742,7.82695813 6.53194523,7.34011741 Z M2,0 L14,0 C15.1045695,-2.02906125e-16 16,0.8954305 16,2 L16,14 C16,15.1045695 15.1045695,16 14,16 L2,16 C0.8954305,16 1.3527075e-16,15.1045695 0,14 L0,2 C-1.3527075e-16,0.8954305 0.8954305,2.02906125e-16 2,0 Z M2,1 C1.44771525,1 1,1.44771525 1,2 L1,14 C1,14.5522847 1.44771525,15 2,15 L14,15 C14.5522847,15 15,14.5522847 15,14 L15,2 C15,1.44771525 14.5522847,1 14,1 L2,1 Z M8,6.91519165 C8.6413855,6.91519165 9.16133118,6.39524597 9.16133118,5.75386047 C9.16133118,5.11247498 8.6413855,4.5925293 8,4.5925293 C7.3586145,4.5925293 6.83866882,5.11247498 6.83866882,5.75386047 C6.83866882,6.39524597 7.3586145,6.91519165 8,6.91519165 Z M8,11.4074707 C8.96436623,11.4074707 9.74613953,10.6256974 9.74613953,9.66133118 C9.74613953,8.69696495 8.96436623,7.91519165 8,7.91519165 C7.03563377,7.91519165 6.25386047,8.69696495 6.25386047,9.66133118 C6.25386047,10.6256974 7.03563377,11.4074707 8,11.4074707 Z"/>
</svg>
