<svg xmlns="http://www.w3.org/2000/svg" width="16" height="16" viewBox="0 0 16 16">
  <path d="M9.83695197,6.99999726 C9.94701098,7.92925264 10.0019989,8.88550237 10.0019989,9.86867166 L10.0019989,13.5 C10.0019989,13.7761424 9.77814128,14 9.5019989,14 C9.22585653,14 9.0019989,13.7761424 9.0019989,13.5 L9.0019989,9.86867166 C9.0019989,8.88265924 8.94451321,7.92646376 8.82963658,7 L7.29063577,7 C7.09528714,8.03975588 6.9980011,8.98493067 6.9980011,9.83482627 L6.9980011,13.5 C6.9980011,13.7761424 6.77414347,14 6.4980011,14 C6.22185872,14 5.9980011,13.7761424 5.9980011,13.5 L5.9980011,9.83482627 C5.9980011,8.97115506 6.09020368,8.02640651 6.27395422,6.99999214 L2.50008421,6.99998672 C2.19623652,6.99998629 1.96262845,6.73120946 2.00496144,6.4303252 C2.2895781,4.40739509 3.63105924,3.07191794 5.93631713,2.46953294 C7.9029179,1.95564214 10.1551173,1.86447329 12.6919122,2.19163653 C13.4399864,2.28811354 14.0000806,2.92507089 14.0000914,3.67934064 L14.0000849,5.50000285 C14.0000849,6.3284282 13.3285121,7.00000108 12.5000849,7.00000108 L9.83695197,6.99999726 Z M9.26801447,6.00000108 L12.5000856,6.00000108 C12.7762273,6.00000108 13.0000849,5.77614345 13.0000849,5.50000108 L13.0000914,3.67934605 C13.0000878,3.42791601 12.813378,3.2155836 12.5640044,3.18342258 C10.1477445,2.87180441 8.02312321,2.95780891 6.18913722,3.43704625 C4.49426064,3.87993302 3.49096303,4.72403158 3.11673811,6.00000108 L6.87871525,6.00000108 C6.87906368,6.00000036 6.87941217,6 6.87976074,6 L9.26696777,6 C9.26731675,6 9.26766564,6.00000036 9.26801447,6.00000108 Z M2,10 L2,13.5 C2,13.7761424 1.77614237,14 1.5,14 C1.22385763,14 1,13.7761424 1,13.5 L1,9.5 C1,9.22385763 1.22385763,9 1.5,9 L4.5,9 C4.77614237,9 5,9.22385763 5,9.5 L5,13.5 C5,13.7761424 4.77614237,14 4.5,14 C4.22385763,14 4,13.7761424 4,13.5 L4,10 L2,10 Z M12,13.5 C12,13.7761424 11.7761424,14 11.5,14 C11.2238576,14 11,13.7761424 11,13.5 L11,11.5 C11,11.2238576 11.2238576,11 11.5,11 L14.5,11 C14.7761424,11 15,11.2238576 15,11.5 L15,13.5 C15,13.7761424 14.7761424,14 14.5,14 C14.2238576,14 14,13.7761424 14,13.5 L14,12 L12,12 L12,13.5 Z M1.01623535,16.0264893 C0.740092977,16.0264893 0.516235352,15.8026316 0.516235352,15.5264893 C0.516235352,15.2503469 0.740092977,15.0264893 1.01623535,15.0264893 L15.0002578,15.0264893 C15.2764002,15.0264893 15.5002578,15.2503469 15.5002578,15.5264893 C15.5002578,15.8026316 15.2764002,16.0264893 15.0002578,16.0264893 L1.01623535,16.0264893 Z"/>
</svg>
