<svg width="16" height="16" viewBox="0 0 16 16" xmlns="http://www.w3.org/2000/svg">
<path d="M8 2C9.31526 2 10.6306 2.37004 11.7783 3.10742L11.0527 3.83301C10.1145 3.27771 9.05768 3 8 3C6.46369 3 4.92948 3.58614 3.75781 4.75781C2.58614 5.92948 2 7.46369 2 9C2 10.5363 2.58614 12.0705 3.75781 13.2422L3.0498 13.9502C1.68307 12.5835 1 10.7907 1 9C1 7.20932 1.68307 5.41654 3.0498 4.0498C4.41654 2.68307 6.20932 2 8 2Z"/>
<path d="M13.8916 5.22168C14.6292 6.36952 15 7.68457 15 9C15 10.7907 14.3169 12.5835 12.9502 13.9502L12.2422 13.2422C13.4139 12.0705 14 10.5363 14 9C14 7.94216 13.7215 6.88558 13.166 5.94727L13.8916 5.22168Z"/>
<path d="M4.46484 11.8281C4.66009 11.6329 4.97661 11.6329 5.17188 11.8281C5.36714 12.0234 5.36714 12.3399 5.17188 12.5352C4.97661 12.7304 4.66009 12.7304 4.46484 12.5352C4.26963 12.3399 4.26963 12.0234 4.46484 11.8281Z"/>
<path d="M10.8281 11.8281C11.0234 11.6329 11.3399 11.6329 11.5352 11.8281C11.7304 12.0234 11.7304 12.3399 11.5352 12.5352C11.3399 12.7304 11.0234 12.7304 10.8281 12.5352C10.6329 12.3399 10.6329 12.0234 10.8281 11.8281Z"/>
<path fill-rule="evenodd" clip-rule="evenodd" d="M13.3506 4.34961L9.71777 7.97949C9.8958 8.27851 10 8.62673 10 9C10 10.1046 9.10457 11 8 11C7.62673 11 7.27851 10.8958 6.97949 10.7178L6.34961 11.3496L5.65039 10.6504L6.28125 10.0186C6.10391 9.71995 6 9.37249 6 9C6 7.89543 6.89543 7 8 7C8.37231 7 8.72005 7.10309 9.01855 7.28027L12.6504 3.65039L13.3506 4.34961ZM8 8C7.44772 8 7 8.44772 7 9C7 9.55228 7.44772 10 8 10C8.55228 10 9 9.55228 9 9C9 8.44772 8.55228 8 8 8Z"/>
<path d="M3.5 8.5C3.77614 8.5 4 8.72386 4 9C4 9.27614 3.77614 9.5 3.5 9.5C3.22386 9.5 3 9.27614 3 9C3 8.72386 3.22386 8.5 3.5 8.5Z"/>
<path d="M12.5 8.5C12.7761 8.5 13 8.72386 13 9C13 9.27614 12.7761 9.5 12.5 9.5C12.2239 9.5 12 9.27614 12 9C12 8.72386 12.2239 8.5 12.5 8.5Z"/>
<path d="M4.46484 5.46484C4.6601 5.26963 4.97662 5.26963 5.17188 5.46484C5.36712 5.66009 5.3671 5.97661 5.17188 6.17188C4.97661 6.36714 4.66011 6.36714 4.46484 6.17188C4.26962 5.97661 4.26959 5.66009 4.46484 5.46484Z"/>
<path d="M8 4C8.27614 4 8.5 4.22386 8.5 4.5C8.5 4.77614 8.27614 5 8 5C7.72386 5 7.5 4.77614 7.5 4.5C7.5 4.22386 7.72386 4 8 4Z"/>
</svg>
