<svg xmlns="http://www.w3.org/2000/svg" width="16" height="16" viewBox="0 0 16 16">
  <path d="M16.000488,3 L16.000488,4 L16,14 C16,15.1045695 15.1045695,16 14,16 L2,16 C0.8954305,16 1.02344917e-15,15.1045695 8.8817842e-16,14 L8.8817842e-16,2 C7.52907669e-16,0.8954305 0.8954305,2.02906125e-16 2,0 L14,0 C15.1045695,-2.02906125e-16 16,0.8954305 16,2 L16,3 Z M15,3 L15,2 C15,1.44771525 14.5522847,1 14,1 L2,1 C1.44771525,1 1,1.44771525 1,2 L1,3 L15,3 Z M15,4 L1,4 L1,14 C1,14.5522847 1.44771525,15 2,15 L14,15 C14.5522847,15 15,14.5522847 15,14 L15,4 Z M4.5,6 C4.77614237,6 5,6.22385763 5,6.5 C5,6.77614237 4.77614237,7 4.5,7 L2.49572754,7 C2.21958516,7 1.99572754,6.77614237 1.99572754,6.5 C1.99572754,6.22385763 2.21958516,6 2.49572754,6 L4.5,6 Z M13.5,6 C13.7761424,6 14,6.22385763 14,6.5 C14,6.77614237 13.7761424,7 13.5,7 L7.5,7 C7.22385763,7 7,6.77614237 7,6.5 C7,6.22385763 7.22385763,6 7.5,6 L13.5,6 Z M4.5,9 C4.77614237,9 5,9.22385763 5,9.5 C5,9.77614237 4.77614237,10 4.5,10 L2.49572754,10 C2.21958516,10 1.99572754,9.77614237 1.99572754,9.5 C1.99572754,9.22385763 2.21958516,9 2.49572754,9 L4.5,9 Z M13.5,9 C13.7761424,9 14,9.22385763 14,9.5 C14,9.77614237 13.7761424,10 13.5,10 L7.5,10 C7.22385763,10 7,9.77614237 7,9.5 C7,9.22385763 7.22385763,9 7.5,9 L13.5,9 Z M4.5,12 C4.77614237,12 5,12.2238576 5,12.5 C5,12.7761424 4.77614237,13 4.5,13 L2.49572754,13 C2.21958516,13 1.99572754,12.7761424 1.99572754,12.5 C1.99572754,12.2238576 2.21958516,12 2.49572754,12 L4.5,12 Z M13.5,12 C13.7761424,12 14,12.2238576 14,12.5 C14,12.7761424 13.7761424,13 13.5,13 L7.5,13 C7.22385763,13 7,12.7761424 7,12.5 C7,12.2238576 7.22385763,12 7.5,12 L13.5,12 Z"/>
</svg>
