<svg xmlns="http://www.w3.org/2000/svg" width="16" height="16" viewBox="0 0 16 16">
  <path d="M6.5,9.0002 C6.22385763,9.0002 6,8.77634237 6,8.5002 L6,3.02261846 C3.19663787,3.27521002 1,5.63104173 1,8.5002 C1,11.5379038 3.46229622,14.0002 6.5,14.0002 C9.36915827,14.0002 11.72499,11.8035621 11.9775815,9.0002 L6.5,9.0002 Z M7,8.0002 L12.5,8.0002 C12.7761424,8.0002 13,8.22405763 13,8.5002 C13,12.0901885 10.0899885,15.0002 6.5,15.0002 C2.91001147,15.0002 0,12.0901885 0,8.5002 C0,4.91021147 2.91001147,2.0002 6.5,2.0002 C6.77614237,2.0002 7,2.22405763 7,2.5002 L7,8.0002 Z M9,1.02833713 L9,6.00002857 L13.9716914,6.00002857 C13.6960397,3.55245988 11.4475687,1.3039889 9,1.02833713 Z M14.5,7.00002857 L8.5,7.00002857 C8.22385763,7.00002857 8,6.77617095 8,6.50002857 L8,0.500028571 C8,0.223886197 8.22385763,2.85714262e-05 8.5,2.85714262e-05 C11.8531236,2.85714262e-05 15,3.14690498 15,6.50002857 C15,6.77617095 14.7761424,7.00002857 14.5,7.00002857 Z M6.14644661,8.85355339 C5.95118446,8.65829124 5.95118446,8.34170876 6.14644661,8.14644661 C6.34170876,7.95118446 6.65829124,7.95118446 6.85355339,8.14644661 L10.8535534,12.1464466 C11.0488155,12.3417088 11.0488155,12.6582912 10.8535534,12.8535534 C10.6582912,13.0488155 10.3417088,13.0488155 10.1464466,12.8535534 L6.14644661,8.85355339 Z"/>
</svg>
