<svg width="16" height="16" viewBox="0 0 16 16" fill="none" xmlns="http://www.w3.org/2000/svg">
<path d="M9 12C9 12.5523 8.55229 13 8 13C7.44772 13 7 12.5523 7 12C7 11.4477 7.44772 11 8 11C8.55229 11 9 11.4477 9 12Z" fill="#1D2A3E"/>
<path fill-rule="evenodd" clip-rule="evenodd" d="M7.5 10V5H8.5V10H7.5Z" fill="#1D2A3E"/>
<path fill-rule="evenodd" clip-rule="evenodd" d="M8 1C8.35567 1 8.68457 1.18891 8.86378 1.49613L15.8638 13.4961C16.0442 13.8054 16.0455 14.1876 15.8671 14.4981C15.6888 14.8086 15.3581 15 15 15H1C0.641935 15 0.311196 14.8086 0.132858 14.4981C-0.0454804 14.1876 -0.0441976 13.8054 0.136221 13.4961L7.13622 1.49613C7.31543 1.18891 7.64433 1 8 1ZM1 14H15L8 2L1 14Z" fill="#1D2A3E"/>
</svg>
