<svg xmlns="http://www.w3.org/2000/svg" width="16" height="16" viewBox="0 0 16 16">
  <path d="M7.5,15 C5.7691588,15 2,9.96991297 2,6.59539065 C2,3.50723463 4.46029677,1 7.5,1 C10.5397032,1 13,3.50723463 13,6.59539065 C13,9.96991297 9.2308412,15 7.5,15 Z M7.5,14 C7.7859738,14 8.98006789,12.9564862 9.95861936,11.6505717 C11.2191613,9.96833012 12,8.15224508 12,6.59539065 C12,4.05533357 9.98314426,2 7.5,2 C5.01685574,2 3,4.05533357 3,6.59539065 C3,8.15224508 3.78083868,9.96833012 5.04138064,11.6505717 C6.01993211,12.9564862 7.2140262,14 7.5,14 Z M7.5,9.00390625 C6.11928813,9.00390625 5,7.88461812 5,6.50390625 C5,5.12319438 6.11928813,4.00390625 7.5,4.00390625 C8.88071187,4.00390625 10,5.12319438 10,6.50390625 C10,7.88461812 8.88071187,9.00390625 7.5,9.00390625 Z M7.5,8.00390625 C8.32842712,8.00390625 9,7.33233337 9,6.50390625 C9,5.67547913 8.32842712,5.00390625 7.5,5.00390625 C6.67157288,5.00390625 6,5.67547913 6,6.50390625 C6,7.33233337 6.67157288,8.00390625 7.5,8.00390625 Z"/>
</svg>
