<svg xmlns="http://www.w3.org/2000/svg" width="16" height="16" viewBox="0 0 16 16">
  <path d="M8.001 12c.658 0 1.24.319 1.604.809l-.897.898a1 1 0 0 1-1.414 0l-.898-.897c.365-.49.947-.81 1.605-.81Zm0-3c1.486 0 2.82.649 3.735 1.678l-.709.709A3.99 3.99 0 0 0 8.001 10a3.99 3.99 0 0 0-3.027 1.387l-.71-.71A4.988 4.988 0 0 1 8.002 9Z"/>
  <path d="M8.001 6c2.314 0 4.398.984 5.858 2.555l-.707.707A6.98 6.98 0 0 0 8.001 7a6.981 6.981 0 0 0-5.152 2.262l-.707-.707A7.977 7.977 0 0 1 8 6Z"/>
  <path d="M8.001 3c3.143 0 5.976 1.32 7.98 3.433l-.708.708A9.969 9.969 0 0 0 8.001 4 9.97 9.97 0 0 0 .728 7.14L.02 6.434A10.968 10.968 0 0 1 8 3Z"/>
</svg>
