<svg xmlns="http://www.w3.org/2000/svg" width="16" height="16" viewBox="0 0 16 16">
  <g fill-rule="evenodd">
    <path d="M7.5,2.23606798 L1.61803399,14 L13.381966,14 L7.5,2.23606798 Z M8.39442719,1.78885438 L14.2763932,13.5527864 C14.5233825,14.0467649 14.3231581,14.6474379 13.8291796,14.8944272 C13.6903242,14.9638549 13.5372111,15 13.381966,15 L1.61803399,15 C1.06574924,15 0.618033989,14.5522847 0.618033989,14 C0.618033989,13.8447549 0.654179081,13.6916418 0.723606798,13.5527864 L6.60557281,1.78885438 C6.85256206,1.29487588 7.4532351,1.09465154 7.9472136,1.34164079 C8.140741,1.43840449 8.29766349,1.59532698 8.39442719,1.78885438 Z"/>
    <rect width="1" height="5" x="7" y="6"/>
    <rect width="1" height="1" x="7" y="12"/>
  </g>
</svg>
