<svg xmlns="http://www.w3.org/2000/svg" width="32" height="32" viewBox="0 0 32 32">
  <g fill="none" transform="translate(0 1)">
    <path fill="#07A5DE" d="M27.68 19.04C27.04 18.72 26.24 18.96 25.92 19.6 23.76 23.6 19.44 25.92 14.96 25.52 10.16 25.04 6.24 21.6 5.12 17.04L6.72 17.04C7.36 17.04 7.68 16.24 7.28 15.84L4.32 12.64C4 12.32 3.52 12.32 3.28 12.64L.32 15.84C-.08 16.32.24 17.04.88 17.04L2.4 17.04C3.6 22.96 8.56 27.52 14.64 28.08 15.12 28.16 15.52 28.16 16 28.16 21.04 28.16 25.76 25.36 28.24 20.88 28.56 20.16 28.32 19.36 27.68 19.04M31.28 11.44L29.6 11.44C28.4 5.6 23.44 1.04 17.28.48 11.76-.08 6.4 2.8 3.76 7.68 3.44 8.32 3.68 9.12 4.32 9.44 4.96 9.76 5.76 9.52 6.08 8.88 8.24 4.88 12.56 2.56 17.04 2.96 21.76 3.44 25.76 6.88 26.88 11.36L25.28 11.36C24.64 11.36 24.32 12.16 24.72 12.56L27.68 15.76C28 16.08 28.48 16.08 28.72 15.76L31.68 12.56C32.24 12.24 31.92 11.44 31.28 11.44"/>
    <path fill="#3EBEB0" d="M16.16,9.52 C13.52,9.52 11.36,11.68 11.36,14.32 C11.36,16.96 13.52,19.12 16.16,19.12 C18.8,19.12 20.96,16.96 20.96,14.32 C20.88,11.68 18.8,9.52 16.16,9.52"/>
  </g>
</svg>
