<svg xmlns="http://www.w3.org/2000/svg" width="32" height="32" viewBox="0 0 32 32">
  <g fill="none" fill-rule="evenodd">
    <path fill="#30A9E5" d="M1,3 L10,3 L10,3 C10.5522847,3 11,3.44771525 11,4 L11,9 L0,9 L0,4 L0,4 C-6.76353751e-17,3.44771525 0.44771525,3 1,3 Z"/>
    <path fill="#30A9E5" d="M0,6 L30,6 L30,6 C31.1045695,6 32,6.8954305 32,8 L32,9 L0,9 L0,6 Z"/>
    <path fill="#00BFB3" d="M19,22 L22,22 L16,16 L10,22 L13,22 L13,29 L19,29 L19,22 Z M0,11 L32,11 L32,28 C32,28.5522847 31.5522847,29 31,29 L1,29 C0.44771525,29 6.76353751e-17,28.5522847 0,28 L0,11 Z"/>
    <rect width="32" height="2" y="9" fill="#0078A0"/>
  </g>
</svg>
