<svg xmlns="http://www.w3.org/2000/svg" width="32" height="32" viewBox="0 0 32 32">
  <g fill="none" transform="translate(1 3)">
    <rect width="21" height="7" x="9" y="11" fill="#00BFB3" rx="2"/>
    <rect width="21" height="7" x="9" y="20" fill="#00BFB3" rx="2"/>
    <circle cx="26.5" cy="23.5" r="1.5" fill="#0078A0"/>
    <circle cx="26.5" cy="14.5" r="1.5" fill="#0078A0"/>
    <rect width="2" height="4" x="11" y="12.5" fill="#0078A0" rx="1"/>
    <rect width="2" height="4" x="11" y="21.5" fill="#0078A0" rx="1"/>
    <rect width="2" height="4" x="14" y="12.5" fill="#0078A0" rx="1"/>
    <rect width="2" height="4" x="14" y="21.5" fill="#0078A0" rx="1"/>
    <path fill="#00A9E4" d="M7,19.9746 C4.201,19.7206 2,17.3636 2,14.4996 C2,11.6356 4.201,9.2796 7,9.0256 L7,8.9996 L9.031,8.9996 L9.196,8.2586 C10.002,4.6316 13.284,1.9996 17,1.9996 C21.071,1.9996 24.436,5.0596 24.931,8.9996 L26.949,8.9996 C26.446,3.9536 22.177,-0.0004 17,-0.0004 C12.641,-0.0004 8.76,2.8966 7.465,6.9996 C3.345,7.0186 0,10.3756 0,14.4996 C0,18.4666 3.097,21.7156 7,21.9746 L7,19.9746 Z"/>
  </g>
</svg>
