<svg xmlns="http://www.w3.org/2000/svg" width="32" height="32" viewBox="0 0 32 32">
  <g fill="none">
    <path fill="#00BFB3" d="M6 11.68C5.76 11.68 5.6 11.6 5.36 11.52 4.8 11.2 4.64 10.4 4.96 9.84 6 8.08 7.52 6.56 9.28 5.52 9.84 5.2 10.56 5.36 10.96 5.92 11.28 6.48 11.12 7.2 10.56 7.6 9.12 8.48 7.92 9.68 7.04 11.12 6.8 11.52 6.4 11.68 6 11.68zM10 28C9.76 28 9.6 27.92 9.36 27.84 5.44 25.44 3.12 21.28 3.12 16.72 3.12 16.08 3.68 15.52 4.32 15.52 4.96 15.52 5.52 16.08 5.52 16.72 5.52 20.48 7.44 23.84 10.64 25.84 11.2 26.16 11.36 26.96 11.04 27.52 10.8 27.76 10.4 28 10 28zM16.16 29.68C15.52 29.68 14.96 29.12 14.96 28.48 14.96 27.84 15.52 27.28 16.16 27.28 19.92 27.28 23.28 25.36 25.2 22.16 25.52 21.6 26.32 21.44 26.88 21.76 27.44 22.08 27.6 22.88 27.28 23.44 24.88 27.36 20.72 29.68 16.16 29.68zM28 17.84C27.36 17.84 26.8 17.28 26.8 16.64 26.8 12.88 24.88 9.52 21.76 7.6 21.2 7.28 21.04 6.48 21.36 5.92 21.68 5.36 22.48 5.2 23.04 5.52 26.96 7.92 29.28 12.08 29.28 16.64 29.2 17.28 28.64 17.84 28 17.84z"/>
    <circle cx="16.16" cy="28.48" r="3.52" fill="#07A5DE"/>
    <circle cx="4.24" cy="16.64" r="3.52" fill="#07A5DE"/>
    <circle cx="28" cy="16.64" r="3.52" fill="#07A5DE"/>
    <path fill="#07A5DE" d="M16.16 20.4C17.76 20.4 19.44 20.24 20.96 19.92 21.68 19.76 22.16 18.88 22.08 17.92 21.52 13.68 19.12 10.56 16.24 10.56 13.36 10.56 10.96 13.68 10.4 17.92 10.24 18.88 10.72 19.76 11.52 19.92 12.88 20.24 14.48 20.4 16.16 20.4M19.68 4.8C19.68 2.8 18.08 1.28 16.16 1.28 14.16 1.28 12.64 2.88 12.64 4.8 12.64 6.8 14.24 8.32 16.16 8.32 18.08 8.32 19.68 6.8 19.68 4.8"/>
    <path fill="#07A5DE" d="M16.16,9.52 C13.52,9.52 11.44,7.36 11.44,4.8 C11.44,2.24 13.6,0.08 16.16,0.08 C18.72,0.08 20.88,2.24 20.88,4.8 C20.88,7.36 18.72,9.52 16.16,9.52 Z M16.16,2.48 C14.88,2.48 13.84,3.52 13.84,4.8 C13.84,6.08 14.88,7.12 16.16,7.12 C17.44,7.12 18.48,6.08 18.48,4.8 C18.48,3.52 17.44,2.48 16.16,2.48 Z"/>
  </g>
</svg>
