<svg xmlns="http://www.w3.org/2000/svg" xmlns:xlink="http://www.w3.org/1999/xlink" width="16" height="16" viewBox="0 0 16 16">
  <defs>
    <path id="editor_code_block-a" d="M11.1199332,9.90890087 L13.5506829,7.85094929 C13.6615652,7.75707273 13.6618434,7.60746809 13.5506829,7.51335593 L11.1199332,5.45540435 C11.009405,5.36182754 11.009405,5.21010956 11.1199332,5.11653275 C11.2304615,5.02295594 11.4096632,5.02295594 11.5201914,5.11653275 L13.9509411,7.17448433 C14.2834408,7.45598944 14.2825982,7.90902921 13.9509411,8.18982089 L11.5201914,10.2477725 C11.4096632,10.3413493 11.2304615,10.3413493 11.1199332,10.2477725 C11.009405,10.1541957 11.009405,10.0024777 11.1199332,9.90890087 Z M9.25711713,2.54565856 C9.45974622,2.59243918 9.56501795,2.8858831 9.49224811,3.20108392 L7.38406484,12.3326289 C7.31129499,12.6478297 7.08804005,12.8654273 6.88541095,12.8186467 C6.68278186,12.771866 6.57751013,12.4784221 6.65027997,12.1632213 L8.75846324,3.03167633 C8.83123308,2.71647552 9.05448803,2.49887795 9.25711713,2.54565856 Z M5.08006677,9.90890087 C5.19059503,10.0024777 5.19059503,10.1541957 5.08006677,10.2477725 C4.96953852,10.3413493 4.79033682,10.3413493 4.67980856,10.2477725 L2.24905893,8.18982089 C1.91740183,7.90902921 1.91655915,7.45598944 2.24905893,7.17448433 L4.67980856,5.11653275 C4.79033682,5.02295594 4.96953852,5.02295594 5.08006677,5.11653275 C5.19059503,5.21010956 5.19059503,5.36182754 5.08006677,5.45540435 L2.64931714,7.51335593 C2.53815656,7.60746809 2.53843483,7.75707273 2.64931714,7.85094929 L5.08006677,9.90890087 Z"/>
  </defs>
  <g>
    <use xlink:href="#editor_code_block-a"/>
  </g>
</svg>
