<svg width="16" height="16" viewBox="0 0 16 16" xmlns="http://www.w3.org/2000/svg" xmlns:xlink="http://www.w3.org/1999/xlink">
	<path d="M12.535 12.493a.47.47 0 0 1 .468.468v2.564a.473.473 0 0 1-.466.475H3V0H12.595a.45.45 0 0 1 .398.463v2.565a.469.469 0 0 1-.468.467h-.065a.468.468 0 0 1-.467-.467V1H4v14h8.01l-.007-2.04c0-.257.21-.467.467-.467h.065zm-2.867-2.377l2.01-1.95a.52.52 0 0 0 0-.77l-2.01-1.95a.526.526 0 0 1 0-.77.598.598 0 0 1 .814 0l2.012 1.95a1.571 1.571 0 0 1 0 2.31l-2.012 1.95a.598.598 0 0 1-.814 0 .526.526 0 0 1 0-.77z" fill-rule="evenodd" />
</svg>
