<svg width="16" height="16" viewBox="0 0 16 16" xmlns="http://www.w3.org/2000/svg" xmlns:xlink="http://www.w3.org/1999/xlink">
	<path d="M2.014 10.777l-.043 2.8a.52.52 0 0 0 .544.544l2.8-.043a.526.526 0 0 1 .546.546.598.598 0 0 1-.575.575l-2.802.044A1.571 1.571 0 0 1 .85 13.609l.044-2.802a.598.598 0 0 1 .575-.575.526.526 0 0 1 .545.545zm12.064-5.461l.043-2.801a.52.52 0 0 0-.543-.544l-2.801.043a.526.526 0 0 1-.545-.545.598.598 0 0 1 .575-.575L13.609.85a1.571 1.571 0 0 1 1.634 1.634l-.044 2.802a.598.598 0 0 1-.575.575.526.526 0 0 1-.546-.545zm-9.724 7.038a.5.5 0 0 1-.708-.708l8-8a.5.5 0 0 1 .708.708l-8 8z" fill-rule="evenodd" />
</svg>
