<svg xmlns="http://www.w3.org/2000/svg" width="16" height="16" viewBox="0 0 16 16">
  <path d="M8,16 C3.581722,16 0,12.418278 0,8 C0,3.581722 3.581722,0 8,0 C12.418278,0 16,3.581722 16,8 C16,12.418278 12.418278,16 8,16 Z M8,14.9333333 C11.8291743,14.9333333 14.9333333,11.8291743 14.9333333,8 C14.9333333,4.17082573 11.8291743,1.06666667 8,1.06666667 C4.17082573,1.06666667 1.06666667,4.17082573 1.06666667,8 C1.06666667,11.8291743 4.17082573,14.9333333 8,14.9333333 Z M5.33333333,6.4 C4.7442296,6.4 4.26666667,5.92243707 4.26666667,5.33333333 C4.26666667,4.7442296 4.7442296,4.26666667 5.33333333,4.26666667 C5.92243707,4.26666667 6.4,4.7442296 6.4,5.33333333 C6.4,5.92243707 5.92243707,6.4 5.33333333,6.4 Z M10.6666667,6.4 C10.0775629,6.4 9.6,5.92243707 9.6,5.33333333 C9.6,4.7442296 10.0775629,4.26666667 10.6666667,4.26666667 C11.2557704,4.26666667 11.7333333,4.7442296 11.7333333,5.33333333 C11.7333333,5.92243707 11.2557704,6.4 10.6666667,6.4 Z M2.73931792,8.80206455 C2.59090177,8.54763686 2.6768411,8.2210674 2.93126879,8.07265125 C3.18569647,7.9242351 3.51226593,8.01017443 3.66068208,8.26460212 C4.81546391,10.2442281 6.24912175,11.2 8,11.2 C9.75087824,11.2 11.1845361,10.2442281 12.3393179,8.26460211 C12.4877341,8.01017443 12.8143035,7.9242351 13.0687312,8.07265126 C13.3231589,8.22106741 13.4090982,8.54763687 13.2606821,8.80206455 C11.926575,11.0891052 10.1602328,12.2666667 8,12.2666667 C5.83976714,12.2666667 4.07342499,11.0891052 2.73931792,8.80206455 Z"></path>
</svg>


