<svg xmlns="http://www.w3.org/2000/svg" width="16" height="16" viewBox="0 0 16 16">
  <path d="M12,9 C13.6568542,9 15,10.3431458 15,12 C15,13.6568542 13.6568542,15 12,15 C10.3431458,15 9,13.6568542 9,12 C9,10.3431458 10.3431458,9 12,9 Z M12,10 C10.8954305,10 10,10.8954305 10,12 C10,13.1045695 10.8954305,14 12,14 C13.1045695,14 14,13.1045695 14,12 C14,10.8954305 13.1045695,10 12,10 Z M4,2 C5.1045695,2 6,2.8954305 6,4 C6,5.1045695 5.1045695,6 4,6 C2.8954305,6 2,5.1045695 2,4 C2,2.8954305 2.8954305,2 4,2 Z M4,3 C3.44771525,3 3,3.44771525 3,4 C3,4.55228475 3.44771525,5 4,5 C4.55228475,5 5,4.55228475 5,4 C5,3.44771525 4.55228475,3 4,3 Z M4,8 C6.209139,8 8,9.790861 8,12 C8,14.209139 6.209139,16 4,16 C1.790861,16 -8.8817842e-16,14.209139 -8.8817842e-16,12 C-8.8817842e-16,9.790861 1.790861,8 4,8 Z M4,9 C2.34314575,9 1,10.3431458 1,12 C1,13.6568542 2.34314575,15 4,15 C5.65685425,15 7,13.6568542 7,12 C7,10.3431458 5.65685425,9 4,9 Z M12,0 C14.209139,0 16,1.790861 16,4 C16,6.209139 14.209139,8 12,8 C9.790861,8 8,6.209139 8,4 C8,1.790861 9.790861,0 12,0 Z M12,1 C10.3431458,1 9,2.34314575 9,4 C9,5.65685425 10.3431458,7 12,7 C13.6568542,7 15,5.65685425 15,4 C15,2.34314575 13.6568542,1 12,1 Z"/>
</svg>
