<svg xmlns="http://www.w3.org/2000/svg" xmlns:xlink="http://www.w3.org/1999/xlink" width="16" height="16" viewBox="0 0 16 16">
  <g>
    <path d="M11.192022,10.1448587 L13.4901613,8.35326545 C13.7486407,8.15664957 13.7486407,7.8442692 13.4901613,7.64673455 L11.192022,5.85514126 C10.9359927,5.65944415 10.9359927,5.34155118 11.192022,5.14677284 C11.4480514,4.95107572 11.8657836,4.95107572 12.1218129,5.14677284 L14.4211772,6.93836613 C15.1941655,7.527295 15.1917154,8.47454253 14.4211772,9.06163387 L12.1218129,10.8532272 C11.8657836,11.0489243 11.4480514,11.0489243 11.192022,10.8532272 C10.9359927,10.6584488 10.9359927,10.3405559 11.192022,10.1448587 Z M4.80797797,5.85514126 L2.50983868,7.64673455 C2.25135926,7.84335043 2.25135926,8.1557308 2.50983868,8.35326545 L4.80797797,10.1448587 C5.06400734,10.3405559 5.06400734,10.6584488 4.80797797,10.8532272 C4.55194859,11.0489243 4.13421645,11.0489243 3.87818707,10.8532272 L1.57882276,9.06163387 C0.805834545,8.472705 0.808284587,7.52545747 1.57882276,6.93836613 L3.87818707,5.14677284 C4.13421645,4.95107572 4.55194859,4.95107572 4.80797797,5.14677284 C5.06400734,5.34155118 5.06400734,5.65944415 4.80797797,5.85514126 Z M6.5,6 L9.5,6 C9.77614237,6 10,6.22385763 10,6.5 C10,6.77614237 9.77614237,7 9.5,7 L6.5,7 C6.22385763,7 6,6.77614237 6,6.5 C6,6.22385763 6.22385763,6 6.5,6 Z M6.5,9 L9.5,9 C9.77614237,9 10,9.22385763 10,9.5 C10,9.77614237 9.77614237,10 9.5,10 L6.5,10 C6.22385763,10 6,9.77614237 6,9.5 C6,9.22385763 6.22385763,9 6.5,9 Z"/>
  </g>
</svg>
