<svg xmlns="http://www.w3.org/2000/svg" width="32" height="32" viewBox="0 0 32 32">
  <g fill="none" fill-rule="evenodd">
    <path fill="#005571" fill-rule="nonzero" d="M14.4370732,16.1756098 C14.4370732,18.1907756 16.0706878,19.8243902 18.0858537,19.8243902 C20.1010195,19.8243902 21.7346341,18.1907756 21.7346341,16.1756098 C21.7346341,14.1604439 20.1010195,12.5268293 18.0858537,12.5268293 C16.0706878,12.5268293 14.4370732,14.1604439 14.4370732,16.1756098 Z"/>
    <path fill="#00BFB3" fill-rule="nonzero" d="M25.0243902,21.6195122 C23.5960864,20.8958668 21.9164477,20.8599771 20.4585366,21.5219512 C19.7102319,21.859119 18.8988057,22.0333761 18.0780488,22.0331707 C17.6325946,22.0312423 17.1887915,21.9788762 16.755122,21.8770732 C15.4487596,25.0851268 13.1156688,27.7695536 10.1209756,29.5102439 C16.7903482,33.3806265 25.2882778,31.7836333 30.097561,25.7560976 C28.7155213,24.0365089 26.986991,22.627092 25.0243902,21.6195122 Z"/>
    <path fill="#00A9E5" fill-rule="nonzero" d="M16.8917073,10.4390244 C17.2847297,10.3590035 17.6847679,10.3184767 18.0858537,10.3180488 C18.8291373,10.3173713 19.5656671,10.4591136 20.2556098,10.7356098 C21.6273435,11.2943051 23.169608,11.2575508 24.5131707,10.6341463 C26.686929,9.61875382 28.5977404,8.11654363 30.097561,6.24390244 C25.2918195,0.21428236 16.7949036,-1.38615276 10.124878,2.48195122 C13.2240134,4.28249198 15.6123457,7.09091729 16.8917073,10.4390244 Z"/>
    <path fill="#000" fill-rule="nonzero" d="M5.74243902,25.7560976 C7.64292683,23.5980488 7.79121951,23.6526829 9.4497561,22.4117073 C11.1082927,21.1707317 14.0312195,20.4019512 14.0312195,20.4019512 C12.831418,19.2489795 12.1790121,17.6398694 12.2371009,15.9768922 C12.2951896,14.3139149 13.0582827,12.754249 14.3356098,11.6878049 C10.9451299,10.8827799 7.92151792,8.96640607 5.74634146,6.24390244 C1.15398785,11.9373317 1.15398785,20.0626683 5.74634146,25.7560976 L5.74243902,25.7560976 Z"/>
    <path fill="#019B8F" fill-rule="nonzero" d="M10.1209756,29.5141463 C8.44060665,28.5444461 6.95573074,27.2699937 5.74243902,25.7560976 C7.63902439,23.5980488 7.79121951,23.6526829 9.4497561,22.4117073 C11.1082927,21.1707317 14.035122,20.4019512 14.035122,20.4019512 C14.7954173,21.1333992 15.7392624,21.6457723 16.7668293,21.884878 C15.460179,25.0937546 13.1272694,27.7793453 10.1326829,29.5219512 L10.1209756,29.5141463 Z"/>
    <path fill="#0078A0" fill-rule="nonzero" d="M5.74634146,6.24390244 C5.74634146,6.24390244 5.74634146,6.24390244 5.74634146,6.24390244 C7.92412592,8.95697473 10.9458368,10.8647731 14.3317073,11.6643902 C15.0692875,11.0484822 15.9471503,10.6236234 16.8878049,10.4273171 C15.6058492,7.08593614 13.2194219,4.2836398 10.124878,2.48585366 C8.44535313,3.45674494 6.96068243,4.73102113 5.74634146,6.24390244 Z"/>
  </g>
</svg>
