<svg xmlns="http://www.w3.org/2000/svg" width="32" height="32" viewBox="0 0 32 32">
  <g fill="none" transform="translate(2)">
    <path fill="#93C90E" d="M23.0243902,21.6195122 C21.5960864,20.8958668 19.9164477,20.8599771 18.4585366,21.5219512 C17.7102319,21.859119 16.8988057,22.0333761 16.0780488,22.0331707 C15.6325946,22.0312423 15.1887915,21.9788762 14.755122,21.8770732 C13.4487596,25.0851268 11.1156688,27.7695536 8.12097561,29.5102439 C14.7903482,33.3806265 23.2882778,31.7836333 28.097561,25.7560976 C26.7155213,24.0365089 24.986991,22.627092 23.0243902,21.6195122 Z"/>
    <path fill="#00A9E5" d="M14.8917073,10.4390244 C15.2847297,10.3590035 15.6847679,10.3184767 16.0858537,10.3180488 C16.8291373,10.3173713 17.5656671,10.4591136 18.2556098,10.7356098 C19.6273435,11.2943051 21.169608,11.2575508 22.5131707,10.6341463 C24.686929,9.61875382 26.5977404,8.11654363 28.097561,6.24390244 C23.2918195,0.21428236 14.7949036,-1.38615276 8.12487805,2.48195122 C11.2240134,4.28249198 13.6123457,7.09091729 14.8917073,10.4390244 Z"/>
    <path fill="#000" d="M3.74243902,25.7560976 C5.64292683,23.5980488 5.79121951,23.6526829 7.4497561,22.4117073 C9.10829268,21.1707317 12.0312195,20.4019512 12.0312195,20.4019512 C10.831418,19.2489795 10.1790121,17.6398694 10.2371009,15.9768922 C10.2951896,14.3139149 11.0582827,12.754249 12.3356098,11.6878049 C8.94512994,10.8827799 5.92151792,8.96640607 3.74634146,6.24390244 C-0.846012149,11.9373317 -0.846012149,20.0626683 3.74634146,25.7560976 L3.74243902,25.7560976 Z"/>
    <path fill="#74A300" d="M8.12097561,29.5141463 C6.44060665,28.5444461 4.95573074,27.2699937 3.74243902,25.7560976 C5.63902439,23.5980488 5.79121951,23.6526829 7.4497561,22.4117073 C9.10829268,21.1707317 12.035122,20.4019512 12.035122,20.4019512 C12.7954173,21.1333992 13.7392624,21.6457723 14.7668293,21.884878 C13.460179,25.0937546 11.1272694,27.7793453 8.13268293,29.5219512 L8.12097561,29.5141463 Z"/>
    <path fill="#0078A0" d="M3.74634146,6.24390244 C3.74634146,6.24390244 3.74634146,6.24390244 3.74634146,6.24390244 C5.92412592,8.95697473 8.94583685,10.8647731 12.3317073,11.6643902 C13.0692875,11.0484822 13.9471503,10.6236234 14.8878049,10.4273171 C13.6058492,7.08593614 11.2194219,4.2836398 8.12487805,2.48585366 C6.44535313,3.45674494 4.96068243,4.73102113 3.74634146,6.24390244 Z"/>
  </g>
</svg>
