<svg xmlns="http://www.w3.org/2000/svg" xmlns:xlink="http://www.w3.org/1999/xlink" width="16" height="16" viewBox="0 0 16 16">
  <path d="M4,8 L11,8 L11,7 L4,7 L4,8 Z M7.5,0 C11.6355882,0 15,3.36441176 15,7.5 C15,11.6355882 11.6355882,15 7.5,15 C3.36441176,15 0,11.6355882 0,7.5 C0,3.36441176 3.36441176,0 7.5,0 Z M7.5,0.882352941 C3.84529412,0.882352941 0.882352941,3.84529412 0.882352941,7.5 C0.882352941,11.1547059 3.84529412,14.1176471 7.5,14.1176471 C11.1547059,14.1176471 14.1176471,11.1547059 14.1176471,7.5 C14.1176471,3.84529412 11.1547059,0.882352941 7.5,0.882352941 Z"/>
</svg>
