<svg width="16" height="16" viewBox="0 0 16 16" xmlns="http://www.w3.org/2000/svg" xmlns:xlink="http://www.w3.org/1999/xlink">
	<path d="M11.5 11a.5.5 0 1 1 0 1 .5.5 0 0 1 0-1zm-2 0a.5.5 0 1 1 0 1 .5.5 0 0 1 0-1zm-2 0a.5.5 0 1 1 0 1 .5.5 0 0 1 0-1zm4-2a.5.5 0 1 1 0 1 .5.5 0 0 1 0-1zm-2 0a.5.5 0 1 1 0 1 .5.5 0 0 1 0-1zm2-1a.5.5 0 1 1 0-1 .5.5 0 0 1 0 1zm0-3a.5.5 0 1 1 0 1 .5.5 0 0 1 0-1zm-2 2a.5.5 0 1 1 0 1 .5.5 0 0 1 0-1zm-2 0a.5.5 0 1 1 0 1 .5.5 0 0 1 0-1zm0 2a.5.5 0 1 1 0 1 .5.5 0 0 1 0-1zm-2 2a.5.5 0 1 1 0 1 .5.5 0 0 1 0-1zm-2 0a.5.5 0 1 1 0 1 .5.5 0 0 1 0-1zm2-2a.5.5 0 1 1 0 1 .5.5 0 0 1 0-1zm6-6a.5.5 0 1 1 0 1 .5.5 0 0 1 0-1zm-2 2a.5.5 0 1 1 0 1 .5.5 0 0 1 0-1z" fill-rule="evenodd" />
</svg>
