<svg width="16" height="16" viewBox="0 0 16 16" xmlns="http://www.w3.org/2000/svg" xmlns:xlink="http://www.w3.org/1999/xlink">
	<path d="M4 6.81v6.38c0 .493.448.9.992.9h7.016c.543 0 .992-.406.992-.9V6.81c0-.493-.448-.9-.992-.9H4.992c-.543 0-.992.406-.992.9zM7 5v.91h3V5h2.008C13.108 5 14 5.818 14 6.81v6.38c0 1-.9 1.81-1.992 1.81H4.992C3.892 15 3 14.182 3 13.19V6.81C3 5.81 3.9 5 4.992 5H7zm1.997-3.552A.506.506 0 0 1 9 1.5v8a.5.5 0 0 1-1 0v-8a.51.51 0 0 1 0-.017L6.18 3.394a.52.52 0 0 1-.77 0 .617.617 0 0 1 0-.829L7.36.515a1.552 1.552 0 0 1 2.31 0l1.95 2.05c.214.229.214.601 0 .83a.52.52 0 0 1-.77 0L8.997 1.447z" fill-rule="nonzero" />
</svg>
