<svg xmlns="http://www.w3.org/2000/svg" width="16" height="16" viewBox="0 0 16 16">
  <path d="M10,7.5 L10,13.5 C10,13.7761424 9.77614237,14 9.5,14 C9.22385763,14 9,13.7761424 9,13.5 L9,8 L6,8 L6,13.5 C6,13.7761424 5.77614237,14 5.5,14 C5.22385763,14 5,13.7761424 5,13.5 L5,3 L2,3 L2,13.5 C2,13.7761424 1.77614237,14 1.5,14 C1.22385763,14 1,13.7761424 1,13.5 L1,2.5 C1,2.22385763 1.22385763,2 1.5,2 L5.5,2 C5.77614237,2 6,2.22385763 6,2.5 L6,7 L9,7 L9,4.5 C9,4.22385763 9.22385763,4 9.5,4 L13.5,4 C13.7761424,4 14,4.22385763 14,4.5 L14,13.5 C14,13.7761424 13.7761424,14 13.5,14 C13.2238576,14 13,13.7761424 13,13.5 L13,5 L10,5 L10,7.5 Z M0.5,16 C0.223857625,16 -4.30381884e-16,15.7761424 -4.1347304e-16,15.5 C-3.96564196e-16,15.2238576 0.223857625,15 0.5,15 L14.5,15 C14.7761424,15 15,15.2238576 15,15.5 C15,15.7761424 14.7761424,16 14.5,16 L0.5,16 Z"/>
</svg>
