<svg width="727" height="529" viewBox="0 0 727 529" fill="none" xmlns="http://www.w3.org/2000/svg">
<rect width="727" height="529" fill="white"/>
<g opacity="0.6">
<rect x="153" y="74" width="421" height="48" rx="4" fill="#98A2B3"/>
<rect x="245" y="146" width="237" height="24" rx="4" fill="#D3DAE6"/>
<rect x="204.5" y="194" width="318" height="24" rx="4" fill="#D3DAE6"/>
<rect x="222" y="242" width="283" height="24" rx="4" fill="#D3DAE6"/>
<rect x="297" y="290" width="133" height="24" rx="4" fill="#D3DAE6"/>
</g>
<rect x="267" y="393" width="194" height="62" rx="10" fill="#0077CC"/>
<path d="M342.15 421.435C341.613 417.557 338.63 415.307 334.761 415.307C330.201 415.307 326.767 418.631 326.767 424.273C326.767 429.906 330.159 433.239 334.761 433.239C338.912 433.239 341.664 430.554 342.15 427.222L338.963 427.205C338.562 429.25 336.892 430.401 334.804 430.401C331.974 430.401 329.946 428.278 329.946 424.273C329.946 420.335 331.957 418.145 334.812 418.145C336.934 418.145 338.596 419.347 338.963 421.435H342.15ZM344.909 433H347.995V425.304C347.995 423.642 349.248 422.466 350.944 422.466C351.463 422.466 352.111 422.56 352.375 422.645V419.807C352.094 419.756 351.608 419.722 351.267 419.722C349.767 419.722 348.515 420.574 348.037 422.091H347.901V419.909H344.909V433ZM359.681 433.256C362.733 433.256 364.829 431.764 365.375 429.489L362.494 429.165C362.076 430.273 361.054 430.852 359.724 430.852C357.73 430.852 356.409 429.54 356.383 427.298H365.502V426.352C365.502 421.759 362.741 419.739 359.52 419.739C355.77 419.739 353.324 422.491 353.324 426.531C353.324 430.639 355.735 433.256 359.681 433.256ZM356.392 425.219C356.485 423.548 357.721 422.142 359.562 422.142C361.335 422.142 362.528 423.438 362.545 425.219H356.392ZM371.88 433.264C373.934 433.264 375.161 432.301 375.723 431.202H375.826V433H378.792V424.239C378.792 420.778 375.971 419.739 373.473 419.739C370.721 419.739 368.607 420.966 367.925 423.352L370.806 423.761C371.113 422.866 371.982 422.099 373.49 422.099C374.922 422.099 375.706 422.832 375.706 424.119V424.17C375.706 425.057 374.777 425.099 372.468 425.347C369.928 425.619 367.499 426.378 367.499 429.327C367.499 431.901 369.382 433.264 371.88 433.264ZM372.681 430.997C371.394 430.997 370.473 430.409 370.473 429.276C370.473 428.091 371.505 427.597 372.885 427.401C373.695 427.29 375.314 427.085 375.715 426.761V428.304C375.715 429.761 374.539 430.997 372.681 430.997ZM388.431 419.909H385.848V416.773H382.763V419.909H380.905V422.295H382.763V429.574C382.746 432.037 384.536 433.247 386.854 433.179C387.732 433.153 388.337 432.983 388.669 432.872L388.15 430.46C387.979 430.503 387.63 430.58 387.246 430.58C386.471 430.58 385.848 430.307 385.848 429.062V422.295H388.431V419.909ZM396.666 433.256C399.717 433.256 401.814 431.764 402.359 429.489L399.478 429.165C399.061 430.273 398.038 430.852 396.708 430.852C394.714 430.852 393.393 429.54 393.368 427.298H402.487V426.352C402.487 421.759 399.725 419.739 396.504 419.739C392.754 419.739 390.308 422.491 390.308 426.531C390.308 430.639 392.72 433.256 396.666 433.256ZM393.376 425.219C393.47 423.548 394.706 422.142 396.547 422.142C398.319 422.142 399.512 423.438 399.529 425.219H393.376Z" fill="white"/>
</svg>
