<svg width="727" height="529" viewBox="0 0 727 529" fill="none" xmlns="http://www.w3.org/2000/svg">
<rect width="727" height="529" fill="#F5F7FA"/>
<g opacity="0.3">
<rect x="32" y="36" width="151" height="24" rx="4" fill="#D3DAE6"/>
<rect x="209" y="36" width="309" height="24" rx="4" fill="#D3DAE6"/>
<rect x="544" y="36" width="151" height="24" rx="4" fill="#D3DAE6"/>
<rect x="32" y="84" width="151" height="24" rx="4" fill="#D3DAE6"/>
<rect x="209" y="84" width="309" height="24" rx="4" fill="#D3DAE6"/>
<rect x="544" y="84" width="151" height="24" rx="4" fill="#D3DAE6"/>
<rect x="32" y="132" width="151" height="24" rx="4" fill="#D3DAE6"/>
<rect x="209" y="132" width="309" height="24" rx="4" fill="#D3DAE6"/>
<rect x="544" y="132" width="151" height="24" rx="4" fill="#D3DAE6"/>
<rect x="32" y="180" width="151" height="24" rx="4" fill="#D3DAE6"/>
<rect x="209" y="180" width="309" height="24" rx="4" fill="#D3DAE6"/>
<rect x="544" y="180" width="151" height="24" rx="4" fill="#D3DAE6"/>
<rect x="32" y="228" width="151" height="24" rx="4" fill="#D3DAE6"/>
<rect x="209" y="228" width="309" height="24" rx="4" fill="#D3DAE6"/>
<rect x="544" y="228" width="151" height="24" rx="4" fill="#D3DAE6"/>
<rect x="32" y="276" width="151" height="24" rx="4" fill="#D3DAE6"/>
<rect x="209" y="276" width="309" height="24" rx="4" fill="#D3DAE6"/>
<rect x="544" y="276" width="151" height="24" rx="4" fill="#D3DAE6"/>
<rect x="32" y="324" width="151" height="24" rx="4" fill="#D3DAE6"/>
<rect x="209" y="324" width="309" height="24" rx="4" fill="#D3DAE6"/>
<rect x="544" y="324" width="151" height="24" rx="4" fill="#D3DAE6"/>
<rect x="32" y="372" width="151" height="24" rx="4" fill="#D3DAE6"/>
<rect x="209" y="372" width="309" height="24" rx="4" fill="#D3DAE6"/>
<rect x="544" y="372" width="151" height="24" rx="4" fill="#D3DAE6"/>
<rect x="32" y="420" width="151" height="24" rx="4" fill="#D3DAE6"/>
<rect x="209" y="420" width="309" height="24" rx="4" fill="#D3DAE6"/>
<rect x="544" y="420" width="151" height="24" rx="4" fill="#D3DAE6"/>
<rect x="32" y="468" width="151" height="24" rx="4" fill="#D3DAE6"/>
<rect x="209" y="468" width="309" height="24" rx="4" fill="#D3DAE6"/>
<rect x="544" y="468" width="151" height="24" rx="4" fill="#D3DAE6"/>
</g>
<rect x="53.5" y="48.5" width="626" height="431" rx="3.5" fill="white" stroke="#D3DAE6"/>
<path d="M59 53H674V43H59V53ZM675 54V474H685V54H675ZM674 475H59V485H674V475ZM58 474V54H48V474H58ZM59 475C58.4477 475 58 474.552 58 474H48C48 480.075 52.9249 485 59 485V475ZM675 474C675 474.552 674.552 475 674 475V485C680.075 485 685 480.075 685 474H675ZM674 53C674.552 53 675 53.4477 675 54H685C685 47.9248 680.075 43 674 43V53ZM59 43C52.9249 43 48 47.9249 48 54H58C58 53.4477 58.4477 53 59 53V43Z" fill="#D3DAE6"/>
<g opacity="0.6">
<rect x="81" y="78" width="575" height="48" rx="4" fill="#98A2B3"/>
<rect x="81" y="150" width="441" height="24" rx="4" fill="#D3DAE6"/>
<rect x="81" y="198" width="373" height="24" rx="4" fill="#D3DAE6"/>
<rect x="81" y="246" width="441" height="24" rx="4" fill="#D3DAE6"/>
<rect x="81" y="294" width="373" height="24" rx="4" fill="#D3DAE6"/>
</g>
<rect x="462" y="394" width="194" height="62" rx="10" fill="#0077CC"/>
<path d="M525.252 434L526.692 429.696H533.255L534.704 434H538.079L531.925 416.545H528.022L521.877 434H525.252ZM527.545 427.156L529.906 420.125H530.042L532.403 427.156H527.545ZM545.553 434.256C548.843 434.256 550.94 432.304 551.161 429.526H548.212C547.948 430.932 546.934 431.741 545.579 431.741C543.653 431.741 542.408 430.131 542.408 427.455C542.408 424.812 543.678 423.227 545.579 423.227C547.062 423.227 547.974 424.182 548.212 425.443H551.161C550.948 422.605 548.732 420.739 545.536 420.739C541.701 420.739 539.281 423.509 539.281 427.506C539.281 431.469 541.641 434.256 545.553 434.256ZM560.232 420.909H557.649V417.773H554.564V420.909H552.706V423.295H554.564V430.574C554.547 433.037 556.337 434.247 558.655 434.179C559.533 434.153 560.138 433.983 560.47 433.872L559.95 431.46C559.78 431.503 559.43 431.58 559.047 431.58C558.271 431.58 557.649 431.307 557.649 430.062V423.295H560.232V420.909ZM562.812 434H565.897V420.909H562.812V434ZM564.363 419.051C565.343 419.051 566.144 418.301 566.144 417.381C566.144 416.452 565.343 415.702 564.363 415.702C563.374 415.702 562.573 416.452 562.573 417.381C562.573 418.301 563.374 419.051 564.363 419.051ZM574.78 434.256C578.615 434.256 581.053 431.554 581.053 427.506C581.053 423.449 578.615 420.739 574.78 420.739C570.945 420.739 568.507 423.449 568.507 427.506C568.507 431.554 570.945 434.256 574.78 434.256ZM574.797 431.784C572.675 431.784 571.635 429.892 571.635 427.497C571.635 425.102 572.675 423.185 574.797 423.185C576.885 423.185 577.925 425.102 577.925 427.497C577.925 429.892 576.885 431.784 574.797 431.784ZM586.756 426.33C586.756 424.438 587.898 423.347 589.526 423.347C591.12 423.347 592.075 424.395 592.075 426.142V434H595.16V425.665C595.168 422.528 593.379 420.739 590.677 420.739C588.717 420.739 587.37 421.676 586.773 423.134H586.62V420.909H583.671V434H586.756V426.33Z" fill="white"/>
<path d="M301.348 421.344H304.391C304.331 418.395 301.817 416.307 298.101 416.307C294.436 416.307 291.683 418.369 291.692 421.455C291.692 423.96 293.473 425.401 296.345 426.142L298.331 426.653C300.214 427.131 301.459 427.719 301.467 429.074C301.459 430.565 300.044 431.562 297.982 431.562C296.004 431.562 294.47 430.676 294.342 428.844H291.232C291.359 432.312 293.942 434.264 298.007 434.264C302.192 434.264 304.621 432.176 304.629 429.099C304.621 426.074 302.124 424.693 299.499 424.071L297.862 423.662C296.43 423.321 294.879 422.716 294.896 421.259C294.905 419.946 296.081 418.983 298.058 418.983C299.942 418.983 301.186 419.861 301.348 421.344ZM315.656 428.494C315.656 430.489 314.232 431.477 312.869 431.477C311.386 431.477 310.397 430.429 310.397 428.767V420.909H307.312V429.244C307.312 432.389 309.102 434.17 311.675 434.17C313.636 434.17 315.016 433.139 315.613 431.673H315.749V434H318.741V420.909H315.656V428.494ZM322.05 434H325.084V431.938H325.263C325.749 432.892 326.763 434.23 329.013 434.23C332.098 434.23 334.408 431.784 334.408 427.472C334.408 423.108 332.03 420.739 329.004 420.739C326.695 420.739 325.732 422.128 325.263 423.074H325.135V416.545H322.05V434ZM325.075 427.455C325.075 424.915 326.166 423.27 328.152 423.27C330.206 423.27 331.263 425.017 331.263 427.455C331.263 429.909 330.189 431.699 328.152 431.699C326.183 431.699 325.075 429.994 325.075 427.455ZM344.965 425.46H337.107V428H344.965V425.46ZM351.977 434.264C354.031 434.264 355.259 433.301 355.821 432.202H355.923V434H358.889V425.239C358.889 421.778 356.068 420.739 353.571 420.739C350.818 420.739 348.705 421.966 348.023 424.352L350.903 424.761C351.21 423.866 352.08 423.099 353.588 423.099C355.02 423.099 355.804 423.832 355.804 425.119V425.17C355.804 426.057 354.875 426.099 352.565 426.347C350.026 426.619 347.597 427.378 347.597 430.327C347.597 432.901 349.48 434.264 351.977 434.264ZM352.778 431.997C351.491 431.997 350.571 431.409 350.571 430.276C350.571 429.091 351.602 428.597 352.983 428.401C353.793 428.29 355.412 428.085 355.812 427.761V429.304C355.812 430.761 354.636 431.997 352.778 431.997ZM367.702 434.256C370.991 434.256 373.088 432.304 373.31 429.526H370.361C370.097 430.932 369.082 431.741 367.727 431.741C365.801 431.741 364.557 430.131 364.557 427.455C364.557 424.812 365.827 423.227 367.727 423.227C369.21 423.227 370.122 424.182 370.361 425.443H373.31C373.097 422.605 370.881 420.739 367.685 420.739C363.849 420.739 361.429 423.509 361.429 427.506C361.429 431.469 363.79 434.256 367.702 434.256ZM382.38 420.909H379.798V417.773H376.712V420.909H374.854V423.295H376.712V430.574C376.695 433.037 378.485 434.247 380.803 434.179C381.681 434.153 382.286 433.983 382.619 433.872L382.099 431.46C381.928 431.503 381.579 431.58 381.195 431.58C380.42 431.58 379.798 431.307 379.798 430.062V423.295H382.38V420.909ZM384.96 434H388.045V420.909H384.96V434ZM386.511 419.051C387.491 419.051 388.293 418.301 388.293 417.381C388.293 416.452 387.491 415.702 386.511 415.702C385.523 415.702 384.722 416.452 384.722 417.381C384.722 418.301 385.523 419.051 386.511 419.051ZM396.928 434.256C400.763 434.256 403.201 431.554 403.201 427.506C403.201 423.449 400.763 420.739 396.928 420.739C393.093 420.739 390.656 423.449 390.656 427.506C390.656 431.554 393.093 434.256 396.928 434.256ZM396.945 431.784C394.823 431.784 393.783 429.892 393.783 427.497C393.783 425.102 394.823 423.185 396.945 423.185C399.033 423.185 400.073 425.102 400.073 427.497C400.073 429.892 399.033 431.784 396.945 431.784ZM408.905 426.33C408.905 424.438 410.047 423.347 411.675 423.347C413.268 423.347 414.223 424.395 414.223 426.142V434H417.308V425.665C417.317 422.528 415.527 420.739 412.825 420.739C410.865 420.739 409.518 421.676 408.922 423.134H408.768V420.909H405.82V434H408.905V426.33Z" fill="#0077CC"/>
</svg>
