<svg width="727" height="529" viewBox="0 0 727 529" fill="none" xmlns="http://www.w3.org/2000/svg">
<rect width="727" height="529" fill="white"/>
<g opacity="0.6">
<rect x="34" y="135" width="646" height="24" rx="4" fill="#D3DAE6"/>
<rect x="34" y="183" width="646" height="24" rx="4" fill="#D3DAE6"/>
<rect x="34" y="231" width="646" height="24" rx="4" fill="#D3DAE6"/>
<rect x="34" y="279" width="646" height="24" rx="4" fill="#D3DAE6"/>
<rect x="34" y="327" width="646" height="24" rx="4" fill="#D3DAE6"/>
<rect x="34" y="375" width="373" height="24" rx="4" fill="#D3DAE6"/>
</g>
<rect x="34" y="425" width="194" height="62" rx="10" fill="#0077CC"/>
<path d="M114.453 452.344H117.496C117.436 449.395 114.922 447.307 111.206 447.307C107.542 447.307 104.789 449.369 104.797 452.455C104.797 454.96 106.578 456.401 109.451 457.142L111.436 457.653C113.32 458.131 114.564 458.719 114.573 460.074C114.564 461.565 113.15 462.562 111.087 462.562C109.11 462.562 107.576 461.676 107.448 459.844H104.337C104.465 463.312 107.047 465.264 111.113 465.264C115.297 465.264 117.726 463.176 117.735 460.099C117.726 457.074 115.229 455.693 112.604 455.071L110.968 454.662C109.536 454.321 107.985 453.716 108.002 452.259C108.01 450.946 109.186 449.983 111.164 449.983C113.047 449.983 114.292 450.861 114.453 452.344ZM124.184 465.264C126.238 465.264 127.466 464.301 128.028 463.202H128.13V465H131.096V456.239C131.096 452.778 128.275 451.739 125.778 451.739C123.025 451.739 120.912 452.966 120.23 455.352L123.11 455.761C123.417 454.866 124.287 454.099 125.795 454.099C127.227 454.099 128.011 454.832 128.011 456.119V456.17C128.011 457.057 127.082 457.099 124.772 457.347C122.233 457.619 119.804 458.378 119.804 461.327C119.804 463.901 121.687 465.264 124.184 465.264ZM124.985 462.997C123.699 462.997 122.778 462.409 122.778 461.276C122.778 460.091 123.809 459.597 125.19 459.401C126 459.29 127.619 459.085 128.02 458.761V460.304C128.02 461.761 126.843 462.997 124.985 462.997ZM145.423 451.909H142.142L139.125 461.634H138.988L135.98 451.909H132.69L137.352 465H140.761L145.423 451.909ZM152.908 465.256C155.959 465.256 158.056 463.764 158.601 461.489L155.721 461.165C155.303 462.273 154.28 462.852 152.951 462.852C150.956 462.852 149.635 461.54 149.61 459.298H158.729V458.352C158.729 453.759 155.968 451.739 152.746 451.739C148.996 451.739 146.55 454.491 146.55 458.531C146.55 462.639 148.962 465.256 152.908 465.256ZM149.618 457.219C149.712 455.548 150.948 454.142 152.789 454.142C154.561 454.142 155.755 455.438 155.772 457.219H149.618Z" fill="white"/>
<rect x="271" y="425" width="194" height="62" rx="10" fill="#BD271E"/>
<path d="M337.984 465C343.302 465 346.456 461.71 346.456 456.256C346.456 450.818 343.302 447.545 338.103 447.545H332.069V465H337.984ZM335.231 462.264V450.281H337.924C341.47 450.281 343.319 452.259 343.319 456.256C343.319 460.27 341.47 462.264 337.831 462.264H335.231ZM355.119 465.256C358.17 465.256 360.267 463.764 360.812 461.489L357.931 461.165C357.514 462.273 356.491 462.852 355.162 462.852C353.167 462.852 351.846 461.54 351.821 459.298H360.94V458.352C360.94 453.759 358.179 451.739 354.957 451.739C351.207 451.739 348.761 454.491 348.761 458.531C348.761 462.639 351.173 465.256 355.119 465.256ZM351.829 457.219C351.923 455.548 353.159 454.142 355 454.142C356.772 454.142 357.966 455.438 357.983 457.219H351.829ZM366.635 447.545H363.55V465H366.635V447.545ZM375.603 465.256C378.654 465.256 380.751 463.764 381.297 461.489L378.416 461.165C377.998 462.273 376.975 462.852 375.646 462.852C373.652 462.852 372.331 461.54 372.305 459.298H381.424V458.352C381.424 453.759 378.663 451.739 375.441 451.739C371.691 451.739 369.245 454.491 369.245 458.531C369.245 462.639 371.657 465.256 375.603 465.256ZM372.314 457.219C372.407 455.548 373.643 454.142 375.484 454.142C377.257 454.142 378.45 455.438 378.467 457.219H372.314ZM390.571 451.909H387.989V448.773H384.904V451.909H383.046V454.295H384.904V461.574C384.887 464.037 386.676 465.247 388.995 465.179C389.873 465.153 390.478 464.983 390.81 464.872L390.29 462.46C390.12 462.503 389.77 462.58 389.387 462.58C388.611 462.58 387.989 462.307 387.989 461.062V454.295H390.571V451.909ZM398.806 465.256C401.858 465.256 403.954 463.764 404.5 461.489L401.619 461.165C401.201 462.273 400.179 462.852 398.849 462.852C396.855 462.852 395.534 461.54 395.508 459.298H404.627V458.352C404.627 453.759 401.866 451.739 398.645 451.739C394.895 451.739 392.449 454.491 392.449 458.531C392.449 462.639 394.86 465.256 398.806 465.256ZM395.517 457.219C395.61 455.548 396.846 454.142 398.687 454.142C400.46 454.142 401.653 455.438 401.67 457.219H395.517Z" fill="white"/>
<rect opacity="0.6" x="34" y="42" width="428" height="62" rx="4" fill="#98A2B3"/>
<rect x="486" y="42" width="194" height="62" rx="10" fill="#0077CC"/>
<path d="M549.252 82L550.692 77.696H557.255L558.704 82H562.079L555.925 64.5455H552.022L545.877 82H549.252ZM551.545 75.1562L553.906 68.125H554.042L556.403 75.1562H551.545ZM569.553 82.2557C572.843 82.2557 574.94 80.304 575.161 77.5256H572.212C571.948 78.9318 570.934 79.7415 569.579 79.7415C567.653 79.7415 566.408 78.1307 566.408 75.4545C566.408 72.8125 567.678 71.2273 569.579 71.2273C571.062 71.2273 571.974 72.1818 572.212 73.4432H575.161C574.948 70.6051 572.732 68.7386 569.536 68.7386C565.701 68.7386 563.281 71.5085 563.281 75.5057C563.281 79.4688 565.641 82.2557 569.553 82.2557ZM584.232 68.9091H581.649V65.7727H578.564V68.9091H576.706V71.2955H578.564V78.5739C578.547 81.0369 580.337 82.2472 582.655 82.179C583.533 82.1534 584.138 81.983 584.47 81.8722L583.95 79.4602C583.78 79.5028 583.43 79.5795 583.047 79.5795C582.271 79.5795 581.649 79.3068 581.649 78.0625V71.2955H584.232V68.9091ZM586.812 82H589.897V68.9091H586.812V82ZM588.363 67.0511C589.343 67.0511 590.144 66.3011 590.144 65.3807C590.144 64.4517 589.343 63.7017 588.363 63.7017C587.374 63.7017 586.573 64.4517 586.573 65.3807C586.573 66.3011 587.374 67.0511 588.363 67.0511ZM598.78 82.2557C602.615 82.2557 605.053 79.554 605.053 75.5057C605.053 71.4489 602.615 68.7386 598.78 68.7386C594.945 68.7386 592.507 71.4489 592.507 75.5057C592.507 79.554 594.945 82.2557 598.78 82.2557ZM598.797 79.7841C596.675 79.7841 595.635 77.892 595.635 75.4972C595.635 73.1023 596.675 71.1847 598.797 71.1847C600.885 71.1847 601.925 73.1023 601.925 75.4972C601.925 77.892 600.885 79.7841 598.797 79.7841ZM610.756 74.3295C610.756 72.4375 611.898 71.3466 613.526 71.3466C615.12 71.3466 616.075 72.3949 616.075 74.142V82H619.16V73.6648C619.168 70.5284 617.379 68.7386 614.677 68.7386C612.717 68.7386 611.37 69.6761 610.773 71.1335H610.62V68.9091H607.671V82H610.756V74.3295Z" fill="white"/>
</svg>
