<svg width="1200" height="742" viewBox="0 0 1200 742" fill="none" xmlns="http://www.w3.org/2000/svg">
<rect width="1200" height="742" rx="4" fill="white"/>
<rect x="120" y="80" width="960" height="39.3333" rx="6" fill="#ECF1F9"/>
<rect x="120" y="129.333" width="960" height="39.3333" rx="6" fill="#ECF1F9"/>
<rect x="120" y="178.667" width="960" height="39.3333" rx="6" fill="#ECF1F9"/>
<rect x="120" y="228" width="960" height="39.3333" rx="6" fill="#ECF1F9"/>
<rect x="120" y="277.333" width="960" height="39.3333" rx="6" fill="#ECF1F9"/>
<rect x="120" y="326.667" width="960" height="39.3333" rx="6" fill="#ECF1F9"/>
<rect x="120" y="376" width="960" height="39.3333" rx="6" fill="#ECF1F9"/>
<rect x="120" y="425.333" width="960" height="39.3333" rx="6" fill="#ECF1F9"/>
<rect x="120" y="474.667" width="960" height="39.3333" rx="6" fill="#ECF1F9"/>
<rect x="120" y="524" width="960" height="39.3333" rx="6" fill="#ECF1F9"/>
<rect x="120" y="573.333" width="960" height="39.3333" rx="6" fill="#ECF1F9"/>
<rect x="120" y="622.667" width="960" height="39.3333" rx="6" fill="#ECF1F9"/>
<g filter="url(#filter0_ddd_1603_57)">
<path d="M326 169.667C326 167.089 328.089 165 330.667 165H869.333C871.911 165 874 167.089 874 169.667V570.333C874 572.911 871.911 575 869.333 575H330.667C328.089 575 326 572.911 326 570.333V169.667Z" fill="white" shape-rendering="crispEdges"/>
<rect x="376" y="210" width="448" height="30" rx="6" fill="#CAD3E2"/>
<rect x="376" y="250" width="279" height="30" rx="6" fill="#CAD3E2"/>
<rect x="376" y="300" width="448" height="30" rx="6" fill="#ECF1F9"/>
<rect x="376" y="340" width="448" height="30" rx="6" fill="#ECF1F9"/>
<rect x="376" y="380" width="448" height="30" rx="6" fill="#ECF1F9"/>
<rect x="376" y="420" width="169" height="30" rx="6" fill="#ECF1F9"/>
<path d="M600 134L629 165H571L600 134Z" fill="white"/>
<path d="M507.438 496.131C507.347 495.324 506.972 494.699 506.312 494.256C505.653 493.807 504.824 493.582 503.824 493.582C503.108 493.582 502.489 493.696 501.966 493.923C501.443 494.145 501.037 494.452 500.747 494.844C500.463 495.23 500.321 495.67 500.321 496.165C500.321 496.58 500.418 496.937 500.611 497.239C500.81 497.54 501.068 497.793 501.386 497.997C501.71 498.196 502.057 498.364 502.426 498.5C502.795 498.631 503.151 498.739 503.491 498.824L505.196 499.267C505.753 499.403 506.324 499.588 506.909 499.821C507.494 500.054 508.037 500.361 508.537 500.741C509.037 501.122 509.44 501.594 509.747 502.156C510.06 502.719 510.216 503.392 510.216 504.176C510.216 505.165 509.96 506.043 509.449 506.81C508.943 507.577 508.207 508.182 507.241 508.625C506.281 509.068 505.119 509.29 503.756 509.29C502.449 509.29 501.318 509.082 500.364 508.668C499.409 508.253 498.662 507.665 498.122 506.903C497.582 506.136 497.284 505.227 497.227 504.176H499.869C499.92 504.807 500.125 505.332 500.483 505.753C500.847 506.168 501.31 506.477 501.872 506.682C502.44 506.881 503.062 506.98 503.739 506.98C504.483 506.98 505.145 506.864 505.724 506.631C506.31 506.392 506.77 506.062 507.105 505.642C507.44 505.216 507.608 504.719 507.608 504.151C507.608 503.634 507.46 503.21 507.165 502.881C506.875 502.551 506.48 502.278 505.98 502.062C505.486 501.847 504.926 501.656 504.301 501.491L502.239 500.929C500.841 500.548 499.733 499.989 498.915 499.25C498.102 498.511 497.696 497.534 497.696 496.318C497.696 495.312 497.969 494.435 498.514 493.685C499.06 492.935 499.798 492.352 500.73 491.938C501.662 491.517 502.713 491.307 503.884 491.307C505.065 491.307 506.108 491.514 507.011 491.929C507.92 492.344 508.636 492.915 509.159 493.642C509.682 494.364 509.955 495.193 509.977 496.131H507.438ZM521.451 503.571V495.909H524.008V509H521.502V506.733H521.366C521.065 507.432 520.582 508.014 519.917 508.48C519.258 508.94 518.437 509.17 517.454 509.17C516.613 509.17 515.869 508.986 515.221 508.616C514.579 508.241 514.073 507.688 513.704 506.955C513.34 506.222 513.158 505.315 513.158 504.236V495.909H515.707V503.929C515.707 504.821 515.954 505.531 516.448 506.06C516.942 506.588 517.585 506.852 518.374 506.852C518.852 506.852 519.326 506.733 519.798 506.494C520.275 506.256 520.67 505.895 520.982 505.412C521.3 504.929 521.457 504.315 521.451 503.571ZM527.636 509V491.545H530.185V498.031H530.338C530.486 497.759 530.699 497.443 530.977 497.085C531.256 496.727 531.642 496.415 532.136 496.148C532.631 495.875 533.284 495.739 534.097 495.739C535.153 495.739 536.097 496.006 536.926 496.54C537.756 497.074 538.406 497.844 538.878 498.849C539.355 499.855 539.594 501.065 539.594 502.48C539.594 503.895 539.358 505.108 538.886 506.119C538.415 507.125 537.767 507.901 536.943 508.446C536.119 508.986 535.179 509.256 534.122 509.256C533.327 509.256 532.676 509.122 532.17 508.855C531.67 508.588 531.278 508.276 530.994 507.918C530.71 507.56 530.491 507.241 530.338 506.963H530.125V509H527.636ZM530.134 502.455C530.134 503.375 530.267 504.182 530.534 504.875C530.801 505.568 531.188 506.111 531.693 506.503C532.199 506.889 532.818 507.082 533.551 507.082C534.312 507.082 534.949 506.881 535.46 506.477C535.972 506.068 536.358 505.514 536.619 504.815C536.886 504.116 537.02 503.33 537.02 502.455C537.02 501.591 536.889 500.815 536.628 500.128C536.372 499.44 535.986 498.898 535.469 498.5C534.957 498.102 534.318 497.903 533.551 497.903C532.812 497.903 532.188 498.094 531.676 498.474C531.17 498.855 530.787 499.386 530.526 500.068C530.264 500.75 530.134 501.545 530.134 502.455ZM550.168 500.52V502.727H542.43V500.52H550.168ZM557.374 509.29C556.545 509.29 555.795 509.136 555.124 508.83C554.454 508.517 553.923 508.065 553.531 507.474C553.144 506.884 552.951 506.159 552.951 505.301C552.951 504.562 553.093 503.955 553.377 503.477C553.661 503 554.045 502.622 554.528 502.344C555.011 502.065 555.55 501.855 556.147 501.713C556.744 501.571 557.352 501.463 557.971 501.389C558.755 501.298 559.391 501.224 559.88 501.168C560.369 501.105 560.724 501.006 560.945 500.869C561.167 500.733 561.278 500.511 561.278 500.205V500.145C561.278 499.401 561.067 498.824 560.647 498.415C560.232 498.006 559.613 497.801 558.789 497.801C557.931 497.801 557.255 497.991 556.761 498.372C556.272 498.747 555.934 499.165 555.746 499.625L553.352 499.08C553.636 498.284 554.05 497.642 554.596 497.153C555.147 496.659 555.781 496.301 556.496 496.08C557.212 495.852 557.965 495.739 558.755 495.739C559.278 495.739 559.832 495.801 560.417 495.926C561.008 496.045 561.559 496.267 562.07 496.591C562.587 496.915 563.011 497.378 563.34 497.98C563.67 498.577 563.835 499.352 563.835 500.307V509H561.346V507.21H561.244C561.079 507.54 560.832 507.864 560.502 508.182C560.173 508.5 559.749 508.764 559.232 508.974C558.715 509.185 558.096 509.29 557.374 509.29ZM557.928 507.244C558.633 507.244 559.235 507.105 559.735 506.827C560.241 506.548 560.624 506.185 560.886 505.736C561.153 505.281 561.286 504.795 561.286 504.278V502.591C561.195 502.682 561.019 502.767 560.758 502.847C560.502 502.92 560.21 502.986 559.88 503.043C559.55 503.094 559.229 503.142 558.917 503.188C558.604 503.227 558.343 503.261 558.133 503.29C557.638 503.352 557.187 503.457 556.778 503.605C556.374 503.753 556.05 503.966 555.806 504.244C555.567 504.517 555.448 504.881 555.448 505.335C555.448 505.966 555.681 506.443 556.147 506.767C556.613 507.085 557.207 507.244 557.928 507.244ZM572.743 509.264C571.476 509.264 570.385 508.977 569.47 508.403C568.561 507.824 567.862 507.026 567.374 506.009C566.885 504.991 566.641 503.827 566.641 502.514C566.641 501.185 566.891 500.011 567.391 498.994C567.891 497.972 568.595 497.173 569.504 496.599C570.413 496.026 571.484 495.739 572.717 495.739C573.712 495.739 574.598 495.923 575.376 496.293C576.155 496.656 576.783 497.168 577.26 497.827C577.743 498.486 578.03 499.256 578.121 500.136H575.641C575.504 499.523 575.192 498.994 574.703 498.551C574.22 498.108 573.572 497.886 572.76 497.886C572.05 497.886 571.428 498.074 570.893 498.449C570.365 498.818 569.953 499.347 569.658 500.034C569.362 500.716 569.214 501.523 569.214 502.455C569.214 503.409 569.359 504.233 569.649 504.926C569.939 505.619 570.348 506.156 570.876 506.537C571.411 506.918 572.038 507.108 572.76 507.108C573.243 507.108 573.68 507.02 574.072 506.844C574.47 506.662 574.803 506.403 575.07 506.068C575.342 505.733 575.533 505.33 575.641 504.858H578.121C578.03 505.705 577.754 506.46 577.294 507.125C576.834 507.79 576.217 508.312 575.445 508.693C574.678 509.074 573.777 509.264 572.743 509.264ZM586.957 495.909V497.955H579.806V495.909H586.957ZM581.724 492.773H584.272V505.156C584.272 505.651 584.346 506.023 584.494 506.273C584.641 506.517 584.832 506.685 585.065 506.776C585.303 506.861 585.562 506.903 585.84 506.903C586.045 506.903 586.224 506.889 586.377 506.861C586.531 506.832 586.65 506.81 586.735 506.793L587.195 508.898C587.048 508.955 586.837 509.011 586.565 509.068C586.292 509.131 585.951 509.165 585.542 509.17C584.871 509.182 584.246 509.062 583.667 508.812C583.087 508.562 582.619 508.176 582.261 507.653C581.903 507.131 581.724 506.474 581.724 505.685V492.773ZM589.776 509V495.909H592.324V509H589.776ZM591.062 493.889C590.619 493.889 590.239 493.741 589.92 493.446C589.608 493.145 589.452 492.787 589.452 492.372C589.452 491.952 589.608 491.594 589.92 491.298C590.239 490.997 590.619 490.847 591.062 490.847C591.506 490.847 591.884 490.997 592.196 491.298C592.514 491.594 592.673 491.952 592.673 492.372C592.673 492.787 592.514 493.145 592.196 493.446C591.884 493.741 591.506 493.889 591.062 493.889ZM601.266 509.264C600.039 509.264 598.968 508.983 598.053 508.42C597.138 507.858 596.428 507.071 595.923 506.06C595.417 505.048 595.164 503.866 595.164 502.514C595.164 501.156 595.417 499.969 595.923 498.952C596.428 497.935 597.138 497.145 598.053 496.582C598.968 496.02 600.039 495.739 601.266 495.739C602.494 495.739 603.565 496.02 604.479 496.582C605.394 497.145 606.104 497.935 606.61 498.952C607.116 499.969 607.369 501.156 607.369 502.514C607.369 503.866 607.116 505.048 606.61 506.06C606.104 507.071 605.394 507.858 604.479 508.42C603.565 508.983 602.494 509.264 601.266 509.264ZM601.275 507.125C602.07 507.125 602.729 506.915 603.252 506.494C603.775 506.074 604.161 505.514 604.411 504.815C604.667 504.116 604.795 503.347 604.795 502.506C604.795 501.67 604.667 500.903 604.411 500.205C604.161 499.5 603.775 498.935 603.252 498.509C602.729 498.082 602.07 497.869 601.275 497.869C600.474 497.869 599.809 498.082 599.281 498.509C598.758 498.935 598.369 499.5 598.113 500.205C597.863 500.903 597.738 501.67 597.738 502.506C597.738 503.347 597.863 504.116 598.113 504.815C598.369 505.514 598.758 506.074 599.281 506.494C599.809 506.915 600.474 507.125 601.275 507.125ZM612.761 501.227V509H610.213V495.909H612.659V498.04H612.821C613.122 497.347 613.594 496.79 614.236 496.369C614.884 495.949 615.699 495.739 616.682 495.739C617.574 495.739 618.355 495.926 619.026 496.301C619.696 496.67 620.216 497.222 620.585 497.955C620.955 498.687 621.139 499.594 621.139 500.673V509H618.591V500.98C618.591 500.031 618.344 499.29 617.849 498.756C617.355 498.216 616.676 497.946 615.812 497.946C615.222 497.946 614.696 498.074 614.236 498.33C613.781 498.585 613.42 498.96 613.153 499.455C612.892 499.943 612.761 500.534 612.761 501.227Z" fill="#1750BA"/>
<rect x="656" y="470" width="168" height="60" rx="6" fill="#0B64DD"/>
<path d="M706.392 509H703.597L709.878 491.545H712.92L719.202 509H716.406L711.472 494.716H711.335L706.392 509ZM706.861 502.165H715.929V504.381H706.861V502.165ZM726.821 509.264C725.554 509.264 724.463 508.977 723.548 508.403C722.639 507.824 721.94 507.026 721.452 506.009C720.963 504.991 720.719 503.827 720.719 502.514C720.719 501.185 720.969 500.011 721.469 498.994C721.969 497.972 722.673 497.173 723.582 496.599C724.491 496.026 725.563 495.739 726.795 495.739C727.79 495.739 728.676 495.923 729.455 496.293C730.233 496.656 730.861 497.168 731.338 497.827C731.821 498.486 732.108 499.256 732.199 500.136H729.719C729.582 499.523 729.27 498.994 728.781 498.551C728.298 498.108 727.651 497.886 726.838 497.886C726.128 497.886 725.506 498.074 724.972 498.449C724.443 498.818 724.031 499.347 723.736 500.034C723.44 500.716 723.293 501.523 723.293 502.455C723.293 503.409 723.438 504.233 723.727 504.926C724.017 505.619 724.426 506.156 724.955 506.537C725.489 506.918 726.116 507.108 726.838 507.108C727.321 507.108 727.759 507.02 728.151 506.844C728.548 506.662 728.881 506.403 729.148 506.068C729.42 505.733 729.611 505.33 729.719 504.858H732.199C732.108 505.705 731.832 506.46 731.372 507.125C730.912 507.79 730.295 508.312 729.523 508.693C728.756 509.074 727.855 509.264 726.821 509.264ZM741.035 495.909V497.955H733.884V495.909H741.035ZM735.802 492.773H738.35V505.156C738.35 505.651 738.424 506.023 738.572 506.273C738.719 506.517 738.91 506.685 739.143 506.776C739.381 506.861 739.64 506.903 739.918 506.903C740.123 506.903 740.302 506.889 740.455 506.861C740.609 506.832 740.728 506.81 740.813 506.793L741.273 508.898C741.126 508.955 740.915 509.011 740.643 509.068C740.37 509.131 740.029 509.165 739.62 509.17C738.95 509.182 738.325 509.062 737.745 508.812C737.165 508.562 736.697 508.176 736.339 507.653C735.981 507.131 735.802 506.474 735.802 505.685V492.773ZM743.854 509V495.909H746.402V509H743.854ZM745.141 493.889C744.697 493.889 744.317 493.741 743.999 493.446C743.686 493.145 743.53 492.787 743.53 492.372C743.53 491.952 743.686 491.594 743.999 491.298C744.317 490.997 744.697 490.847 745.141 490.847C745.584 490.847 745.962 490.997 746.274 491.298C746.592 491.594 746.751 491.952 746.751 492.372C746.751 492.787 746.592 493.145 746.274 493.446C745.962 493.741 745.584 493.889 745.141 493.889ZM755.344 509.264C754.117 509.264 753.046 508.983 752.131 508.42C751.217 507.858 750.506 507.071 750.001 506.06C749.495 505.048 749.242 503.866 749.242 502.514C749.242 501.156 749.495 499.969 750.001 498.952C750.506 497.935 751.217 497.145 752.131 496.582C753.046 496.02 754.117 495.739 755.344 495.739C756.572 495.739 757.643 496.02 758.558 496.582C759.472 497.145 760.183 497.935 760.688 498.952C761.194 499.969 761.447 501.156 761.447 502.514C761.447 503.866 761.194 505.048 760.688 506.06C760.183 507.071 759.472 507.858 758.558 508.42C757.643 508.983 756.572 509.264 755.344 509.264ZM755.353 507.125C756.148 507.125 756.808 506.915 757.33 506.494C757.853 506.074 758.239 505.514 758.489 504.815C758.745 504.116 758.873 503.347 758.873 502.506C758.873 501.67 758.745 500.903 758.489 500.205C758.239 499.5 757.853 498.935 757.33 498.509C756.808 498.082 756.148 497.869 755.353 497.869C754.552 497.869 753.887 498.082 753.359 498.509C752.836 498.935 752.447 499.5 752.191 500.205C751.941 500.903 751.816 501.67 751.816 502.506C751.816 503.347 751.941 504.116 752.191 504.815C752.447 505.514 752.836 506.074 753.359 506.494C753.887 506.915 754.552 507.125 755.353 507.125ZM766.839 501.227V509H764.291V495.909H766.737V498.04H766.899C767.2 497.347 767.672 496.79 768.314 496.369C768.962 495.949 769.777 495.739 770.76 495.739C771.652 495.739 772.433 495.926 773.104 496.301C773.774 496.67 774.294 497.222 774.663 497.955C775.033 498.687 775.217 499.594 775.217 500.673V509H772.669V500.98C772.669 500.031 772.422 499.29 771.928 498.756C771.433 498.216 770.754 497.946 769.891 497.946C769.3 497.946 768.774 498.074 768.314 498.33C767.859 498.585 767.499 498.96 767.232 499.455C766.97 499.943 766.839 500.534 766.839 501.227Z" fill="white"/>
</g>
<defs>
<filter id="filter0_ddd_1603_57" x="266" y="74" width="668" height="561" filterUnits="userSpaceOnUse" color-interpolation-filters="sRGB">
<feFlood flood-opacity="0" result="BackgroundImageFix"/>
<feColorMatrix in="SourceAlpha" type="matrix" values="0 0 0 0 0 0 0 0 0 0 0 0 0 0 0 0 0 0 127 0" result="hardAlpha"/>
<feOffset/>
<feGaussianBlur stdDeviation="30"/>
<feComposite in2="hardAlpha" operator="out"/>
<feColorMatrix type="matrix" values="0 0 0 0 0.168627 0 0 0 0 0.223529 0 0 0 0 0.309804 0 0 0 0.12 0"/>
<feBlend mode="normal" in2="BackgroundImageFix" result="effect1_dropShadow_1603_57"/>
<feColorMatrix in="SourceAlpha" type="matrix" values="0 0 0 0 0 0 0 0 0 0 0 0 0 0 0 0 0 0 127 0" result="hardAlpha"/>
<feOffset/>
<feGaussianBlur stdDeviation="10"/>
<feComposite in2="hardAlpha" operator="out"/>
<feColorMatrix type="matrix" values="0 0 0 0 0.168627 0 0 0 0 0.223529 0 0 0 0 0.309804 0 0 0 0.12 0"/>
<feBlend mode="normal" in2="effect1_dropShadow_1603_57" result="effect2_dropShadow_1603_57"/>
<feColorMatrix in="SourceAlpha" type="matrix" values="0 0 0 0 0 0 0 0 0 0 0 0 0 0 0 0 0 0 127 0" result="hardAlpha"/>
<feOffset/>
<feGaussianBlur stdDeviation="1"/>
<feComposite in2="hardAlpha" operator="out"/>
<feColorMatrix type="matrix" values="0 0 0 0 0.168627 0 0 0 0 0.223529 0 0 0 0 0.309804 0 0 0 0.12 0"/>
<feBlend mode="normal" in2="effect2_dropShadow_1603_57" result="effect3_dropShadow_1603_57"/>
<feBlend mode="normal" in="SourceGraphic" in2="effect3_dropShadow_1603_57" result="shape"/>
</filter>
</defs>
</svg>
