<svg width="1200" height="742" viewBox="0 0 1200 742" fill="none" xmlns="http://www.w3.org/2000/svg">
<rect width="1200" height="742" rx="4" fill="white"/>
<rect x="120" y="232" width="610" height="40" rx="8" fill="#ECF1F9"/>
<rect x="120" y="282" width="610" height="40" rx="8" fill="#ECF1F9"/>
<rect x="120" y="332" width="610" height="40" rx="8" fill="#ECF1F9"/>
<rect x="120" y="382" width="610" height="40" rx="8" fill="#ECF1F9"/>
<rect x="120" y="432" width="610" height="40" rx="8" fill="#ECF1F9"/>
<rect x="120" y="482" width="400" height="40" rx="8" fill="#ECF1F9"/>
<rect x="120" y="82" width="960" height="40" rx="8" fill="#CAD3E2"/>
<rect x="120" y="132" width="583" height="40" rx="8" fill="#CAD3E2"/>
<rect x="790" y="232" width="290" height="290" rx="8" fill="#ECF1F9"/>
<path d="M727.886 618.295H724.341C724.205 617.538 723.951 616.871 723.58 616.295C723.208 615.72 722.754 615.231 722.216 614.83C721.678 614.428 721.076 614.125 720.409 613.92C719.75 613.716 719.049 613.614 718.307 613.614C716.966 613.614 715.765 613.951 714.705 614.625C713.652 615.299 712.818 616.288 712.205 617.591C711.598 618.894 711.295 620.485 711.295 622.364C711.295 624.258 711.598 625.856 712.205 627.159C712.818 628.462 713.655 629.447 714.716 630.114C715.777 630.78 716.97 631.114 718.295 631.114C719.03 631.114 719.727 631.015 720.386 630.818C721.053 630.614 721.655 630.314 722.193 629.92C722.731 629.527 723.186 629.045 723.557 628.477C723.936 627.902 724.197 627.242 724.341 626.5L727.886 626.511C727.697 627.655 727.33 628.708 726.784 629.67C726.246 630.625 725.553 631.451 724.705 632.148C723.864 632.837 722.902 633.371 721.818 633.75C720.735 634.129 719.553 634.318 718.273 634.318C716.258 634.318 714.462 633.841 712.886 632.886C711.311 631.924 710.068 630.549 709.159 628.761C708.258 626.973 707.807 624.841 707.807 622.364C707.807 619.879 708.261 617.746 709.17 615.966C710.08 614.178 711.322 612.807 712.898 611.852C714.473 610.89 716.265 610.409 718.273 610.409C719.508 610.409 720.659 610.587 721.727 610.943C722.803 611.292 723.769 611.807 724.625 612.489C725.481 613.163 726.189 613.989 726.75 614.966C727.311 615.936 727.689 617.045 727.886 618.295ZM736.895 634.386C735.789 634.386 734.789 634.182 733.895 633.773C733.001 633.356 732.293 632.754 731.77 631.966C731.255 631.178 730.997 630.212 730.997 629.068C730.997 628.083 731.187 627.273 731.565 626.636C731.944 626 732.455 625.496 733.099 625.125C733.743 624.754 734.463 624.473 735.259 624.284C736.054 624.095 736.865 623.951 737.69 623.852C738.736 623.731 739.584 623.633 740.236 623.557C740.887 623.473 741.361 623.341 741.656 623.159C741.952 622.977 742.099 622.682 742.099 622.273V622.193C742.099 621.201 741.819 620.432 741.259 619.886C740.705 619.341 739.88 619.068 738.781 619.068C737.637 619.068 736.736 619.322 736.077 619.83C735.425 620.33 734.974 620.886 734.724 621.5L731.531 620.773C731.91 619.712 732.463 618.856 733.19 618.205C733.925 617.545 734.77 617.068 735.724 616.773C736.679 616.47 737.683 616.318 738.736 616.318C739.433 616.318 740.171 616.402 740.952 616.568C741.74 616.727 742.474 617.023 743.156 617.455C743.846 617.886 744.41 618.504 744.849 619.307C745.289 620.102 745.509 621.136 745.509 622.409V634H742.19V631.614H742.054C741.834 632.053 741.505 632.485 741.065 632.909C740.626 633.333 740.062 633.686 739.372 633.966C738.683 634.246 737.857 634.386 736.895 634.386ZM737.634 631.659C738.573 631.659 739.376 631.473 740.043 631.102C740.717 630.731 741.228 630.246 741.577 629.648C741.933 629.042 742.111 628.394 742.111 627.705V625.455C741.99 625.576 741.755 625.689 741.406 625.795C741.065 625.894 740.675 625.981 740.236 626.057C739.796 626.125 739.368 626.189 738.952 626.25C738.535 626.303 738.187 626.348 737.906 626.386C737.247 626.47 736.645 626.61 736.099 626.807C735.562 627.004 735.13 627.288 734.804 627.659C734.486 628.023 734.327 628.508 734.327 629.114C734.327 629.955 734.637 630.591 735.259 631.023C735.88 631.447 736.671 631.659 737.634 631.659ZM753.432 623.636V634H750.034V616.545H753.295V619.386H753.511C753.913 618.462 754.542 617.72 755.398 617.159C756.261 616.598 757.348 616.318 758.659 616.318C759.848 616.318 760.89 616.568 761.784 617.068C762.678 617.561 763.371 618.295 763.864 619.273C764.356 620.25 764.602 621.458 764.602 622.898V634H761.205V623.307C761.205 622.042 760.875 621.053 760.216 620.341C759.557 619.621 758.652 619.261 757.5 619.261C756.712 619.261 756.011 619.432 755.398 619.773C754.792 620.114 754.311 620.614 753.955 621.273C753.606 621.924 753.432 622.712 753.432 623.636ZM776.511 634.352C774.822 634.352 773.367 633.97 772.148 633.205C770.936 632.432 770.004 631.367 769.352 630.011C768.701 628.655 768.375 627.102 768.375 625.352C768.375 623.58 768.708 622.015 769.375 620.659C770.042 619.295 770.981 618.231 772.193 617.466C773.405 616.701 774.833 616.318 776.477 616.318C777.803 616.318 778.985 616.564 780.023 617.057C781.061 617.542 781.898 618.223 782.534 619.102C783.178 619.981 783.561 621.008 783.682 622.182H780.375C780.193 621.364 779.777 620.659 779.125 620.068C778.481 619.477 777.617 619.182 776.534 619.182C775.587 619.182 774.758 619.432 774.045 619.932C773.341 620.424 772.792 621.129 772.398 622.045C772.004 622.955 771.807 624.03 771.807 625.273C771.807 626.545 772 627.644 772.386 628.568C772.773 629.492 773.318 630.208 774.023 630.716C774.735 631.223 775.572 631.477 776.534 631.477C777.178 631.477 777.761 631.36 778.284 631.125C778.814 630.883 779.258 630.538 779.614 630.091C779.977 629.644 780.231 629.106 780.375 628.477H783.682C783.561 629.606 783.193 630.614 782.58 631.5C781.966 632.386 781.144 633.083 780.114 633.591C779.091 634.098 777.89 634.352 776.511 634.352ZM794.838 634.352C793.118 634.352 791.637 633.985 790.395 633.25C789.16 632.508 788.205 631.466 787.531 630.125C786.865 628.777 786.531 627.197 786.531 625.386C786.531 623.598 786.865 622.023 787.531 620.659C788.205 619.295 789.145 618.231 790.349 617.466C791.562 616.701 792.978 616.318 794.599 616.318C795.584 616.318 796.539 616.481 797.463 616.807C798.387 617.133 799.217 617.644 799.952 618.341C800.687 619.038 801.266 619.943 801.69 621.057C802.115 622.163 802.327 623.508 802.327 625.091V626.295H788.452V623.75H798.997C798.997 622.856 798.815 622.064 798.452 621.375C798.088 620.678 797.577 620.129 796.918 619.727C796.266 619.326 795.501 619.125 794.622 619.125C793.668 619.125 792.834 619.36 792.122 619.83C791.418 620.292 790.872 620.898 790.486 621.648C790.107 622.39 789.918 623.197 789.918 624.068V626.057C789.918 627.223 790.122 628.216 790.531 629.034C790.948 629.852 791.527 630.477 792.27 630.909C793.012 631.333 793.88 631.545 794.872 631.545C795.516 631.545 796.103 631.455 796.634 631.273C797.164 631.083 797.622 630.803 798.009 630.432C798.395 630.061 798.69 629.602 798.895 629.057L802.111 629.636C801.853 630.583 801.391 631.413 800.724 632.125C800.065 632.83 799.236 633.379 798.236 633.773C797.243 634.159 796.111 634.352 794.838 634.352ZM809.494 610.727V634H806.097V610.727H809.494Z" fill="#1750BA"/>
<rect x="856" y="582" width="224" height="80" rx="8" fill="#0B64DD"/>
<path d="M945.75 616.841C945.629 615.765 945.129 614.932 944.25 614.341C943.371 613.742 942.265 613.443 940.932 613.443C939.977 613.443 939.152 613.595 938.455 613.898C937.758 614.193 937.216 614.602 936.83 615.125C936.451 615.64 936.261 616.227 936.261 616.886C936.261 617.439 936.39 617.917 936.648 618.318C936.913 618.72 937.258 619.057 937.682 619.33C938.114 619.595 938.576 619.818 939.068 620C939.561 620.174 940.034 620.318 940.489 620.432L942.761 621.023C943.504 621.205 944.265 621.451 945.045 621.761C945.826 622.072 946.549 622.481 947.216 622.989C947.883 623.496 948.42 624.125 948.83 624.875C949.246 625.625 949.455 626.523 949.455 627.568C949.455 628.886 949.114 630.057 948.432 631.08C947.758 632.102 946.777 632.909 945.489 633.5C944.208 634.091 942.659 634.386 940.841 634.386C939.098 634.386 937.591 634.11 936.318 633.557C935.045 633.004 934.049 632.22 933.33 631.205C932.61 630.182 932.212 628.97 932.136 627.568H935.659C935.727 628.409 936 629.11 936.477 629.67C936.962 630.223 937.58 630.636 938.33 630.909C939.087 631.174 939.917 631.307 940.818 631.307C941.811 631.307 942.693 631.152 943.466 630.841C944.246 630.523 944.86 630.083 945.307 629.523C945.754 628.955 945.977 628.292 945.977 627.534C945.977 626.845 945.78 626.28 945.386 625.841C945 625.402 944.473 625.038 943.807 624.75C943.148 624.462 942.402 624.208 941.568 623.989L938.818 623.239C936.955 622.731 935.477 621.985 934.386 621C933.303 620.015 932.761 618.712 932.761 617.091C932.761 615.75 933.125 614.58 933.852 613.58C934.58 612.58 935.564 611.803 936.807 611.25C938.049 610.689 939.451 610.409 941.011 610.409C942.587 610.409 943.977 610.686 945.182 611.239C946.394 611.792 947.348 612.553 948.045 613.523C948.742 614.485 949.106 615.591 949.136 616.841H945.75ZM958.457 634.386C957.351 634.386 956.351 634.182 955.457 633.773C954.563 633.356 953.855 632.754 953.332 631.966C952.817 631.178 952.56 630.212 952.56 629.068C952.56 628.083 952.749 627.273 953.128 626.636C953.507 626 954.018 625.496 954.662 625.125C955.306 624.754 956.026 624.473 956.821 624.284C957.616 624.095 958.427 623.951 959.253 623.852C960.298 623.731 961.147 623.633 961.798 623.557C962.45 623.473 962.923 623.341 963.219 623.159C963.514 622.977 963.662 622.682 963.662 622.273V622.193C963.662 621.201 963.382 620.432 962.821 619.886C962.268 619.341 961.442 619.068 960.344 619.068C959.2 619.068 958.298 619.322 957.639 619.83C956.988 620.33 956.537 620.886 956.287 621.5L953.094 620.773C953.473 619.712 954.026 618.856 954.753 618.205C955.488 617.545 956.332 617.068 957.287 616.773C958.241 616.47 959.245 616.318 960.298 616.318C960.995 616.318 961.734 616.402 962.514 616.568C963.302 616.727 964.037 617.023 964.719 617.455C965.408 617.886 965.973 618.504 966.412 619.307C966.851 620.102 967.071 621.136 967.071 622.409V634H963.753V631.614H963.616C963.397 632.053 963.067 632.485 962.628 632.909C962.188 633.333 961.624 633.686 960.935 633.966C960.245 634.246 959.42 634.386 958.457 634.386ZM959.196 631.659C960.135 631.659 960.938 631.473 961.605 631.102C962.279 630.731 962.791 630.246 963.139 629.648C963.495 629.042 963.673 628.394 963.673 627.705V625.455C963.552 625.576 963.317 625.689 962.969 625.795C962.628 625.894 962.238 625.981 961.798 626.057C961.359 626.125 960.931 626.189 960.514 626.25C960.098 626.303 959.749 626.348 959.469 626.386C958.81 626.47 958.207 626.61 957.662 626.807C957.124 627.004 956.692 627.288 956.366 627.659C956.048 628.023 955.889 628.508 955.889 629.114C955.889 629.955 956.2 630.591 956.821 631.023C957.442 631.447 958.234 631.659 959.196 631.659ZM985.903 616.545L979.574 634H975.938L969.597 616.545H973.244L977.665 629.977H977.847L982.256 616.545H985.903ZM996.026 634.352C994.306 634.352 992.825 633.985 991.582 633.25C990.348 632.508 989.393 631.466 988.719 630.125C988.052 628.777 987.719 627.197 987.719 625.386C987.719 623.598 988.052 622.023 988.719 620.659C989.393 619.295 990.332 618.231 991.537 617.466C992.749 616.701 994.166 616.318 995.787 616.318C996.772 616.318 997.726 616.481 998.651 616.807C999.575 617.133 1000.4 617.644 1001.14 618.341C1001.87 619.038 1002.45 619.943 1002.88 621.057C1003.3 622.163 1003.51 623.508 1003.51 625.091V626.295H989.639V623.75H1000.18C1000.18 622.856 1000 622.064 999.639 621.375C999.276 620.678 998.764 620.129 998.105 619.727C997.454 619.326 996.688 619.125 995.81 619.125C994.855 619.125 994.022 619.36 993.31 619.83C992.605 620.292 992.06 620.898 991.673 621.648C991.295 622.39 991.105 623.197 991.105 624.068V626.057C991.105 627.223 991.31 628.216 991.719 629.034C992.135 629.852 992.715 630.477 993.457 630.909C994.2 631.333 995.067 631.545 996.06 631.545C996.704 631.545 997.291 631.455 997.821 631.273C998.351 631.083 998.81 630.803 999.196 630.432C999.582 630.061 999.878 629.602 1000.08 629.057L1003.3 629.636C1003.04 630.583 1002.58 631.413 1001.91 632.125C1001.25 632.83 1000.42 633.379 999.423 633.773C998.431 634.159 997.298 634.352 996.026 634.352Z" fill="white"/>
</svg>
