<svg width="1200" height="742" viewBox="0 0 1200 742" fill="none" xmlns="http://www.w3.org/2000/svg">
<rect width="1200" height="742" rx="4" fill="white"/>
<rect x="120" y="232" width="610" height="40" rx="8" fill="#ECF1F9"/>
<rect x="120" y="282" width="610" height="40" rx="8" fill="#ECF1F9"/>
<rect x="120" y="332" width="610" height="40" rx="8" fill="#ECF1F9"/>
<rect x="120" y="382" width="610" height="40" rx="8" fill="#ECF1F9"/>
<rect x="120" y="432" width="610" height="40" rx="8" fill="#ECF1F9"/>
<rect x="120" y="482" width="401" height="40" rx="8" fill="#ECF1F9"/>
<rect x="120" y="82" width="960" height="40" rx="8" fill="#CAD3E2"/>
<rect x="120" y="132" width="583" height="40" rx="8" fill="#CAD3E2"/>
<rect x="120" y="582" width="224" height="80" rx="8" fill="#0B64DD"/>
<path d="M209.75 616.841C209.629 615.765 209.129 614.932 208.25 614.341C207.371 613.742 206.265 613.443 204.932 613.443C203.977 613.443 203.152 613.595 202.455 613.898C201.758 614.193 201.216 614.602 200.83 615.125C200.451 615.64 200.261 616.227 200.261 616.886C200.261 617.439 200.39 617.917 200.648 618.318C200.913 618.72 201.258 619.057 201.682 619.33C202.114 619.595 202.576 619.818 203.068 620C203.561 620.174 204.034 620.318 204.489 620.432L206.761 621.023C207.504 621.205 208.265 621.451 209.045 621.761C209.826 622.072 210.549 622.481 211.216 622.989C211.883 623.496 212.42 624.125 212.83 624.875C213.246 625.625 213.455 626.523 213.455 627.568C213.455 628.886 213.114 630.057 212.432 631.08C211.758 632.102 210.777 632.909 209.489 633.5C208.208 634.091 206.659 634.386 204.841 634.386C203.098 634.386 201.591 634.11 200.318 633.557C199.045 633.004 198.049 632.22 197.33 631.205C196.61 630.182 196.212 628.97 196.136 627.568H199.659C199.727 628.409 200 629.11 200.477 629.67C200.962 630.223 201.58 630.636 202.33 630.909C203.087 631.174 203.917 631.307 204.818 631.307C205.811 631.307 206.693 631.152 207.466 630.841C208.246 630.523 208.86 630.083 209.307 629.523C209.754 628.955 209.977 628.292 209.977 627.534C209.977 626.845 209.78 626.28 209.386 625.841C209 625.402 208.473 625.038 207.807 624.75C207.148 624.462 206.402 624.208 205.568 623.989L202.818 623.239C200.955 622.731 199.477 621.985 198.386 621C197.303 620.015 196.761 618.712 196.761 617.091C196.761 615.75 197.125 614.58 197.852 613.58C198.58 612.58 199.564 611.803 200.807 611.25C202.049 610.689 203.451 610.409 205.011 610.409C206.587 610.409 207.977 610.686 209.182 611.239C210.394 611.792 211.348 612.553 212.045 613.523C212.742 614.485 213.106 615.591 213.136 616.841H209.75ZM222.457 634.386C221.351 634.386 220.351 634.182 219.457 633.773C218.563 633.356 217.855 632.754 217.332 631.966C216.817 631.178 216.56 630.212 216.56 629.068C216.56 628.083 216.749 627.273 217.128 626.636C217.507 626 218.018 625.496 218.662 625.125C219.306 624.754 220.026 624.473 220.821 624.284C221.616 624.095 222.427 623.951 223.253 623.852C224.298 623.731 225.147 623.633 225.798 623.557C226.45 623.473 226.923 623.341 227.219 623.159C227.514 622.977 227.662 622.682 227.662 622.273V622.193C227.662 621.201 227.382 620.432 226.821 619.886C226.268 619.341 225.442 619.068 224.344 619.068C223.2 619.068 222.298 619.322 221.639 619.83C220.988 620.33 220.537 620.886 220.287 621.5L217.094 620.773C217.473 619.712 218.026 618.856 218.753 618.205C219.488 617.545 220.332 617.068 221.287 616.773C222.241 616.47 223.245 616.318 224.298 616.318C224.995 616.318 225.734 616.402 226.514 616.568C227.302 616.727 228.037 617.023 228.719 617.455C229.408 617.886 229.973 618.504 230.412 619.307C230.851 620.102 231.071 621.136 231.071 622.409V634H227.753V631.614H227.616C227.397 632.053 227.067 632.485 226.628 632.909C226.188 633.333 225.624 633.686 224.935 633.966C224.245 634.246 223.42 634.386 222.457 634.386ZM223.196 631.659C224.135 631.659 224.938 631.473 225.605 631.102C226.279 630.731 226.791 630.246 227.139 629.648C227.495 629.042 227.673 628.394 227.673 627.705V625.455C227.552 625.576 227.317 625.689 226.969 625.795C226.628 625.894 226.238 625.981 225.798 626.057C225.359 626.125 224.931 626.189 224.514 626.25C224.098 626.303 223.749 626.348 223.469 626.386C222.81 626.47 222.207 626.61 221.662 626.807C221.124 627.004 220.692 627.288 220.366 627.659C220.048 628.023 219.889 628.508 219.889 629.114C219.889 629.955 220.2 630.591 220.821 631.023C221.442 631.447 222.234 631.659 223.196 631.659ZM249.903 616.545L243.574 634H239.938L233.597 616.545H237.244L241.665 629.977H241.847L246.256 616.545H249.903ZM260.026 634.352C258.306 634.352 256.825 633.985 255.582 633.25C254.348 632.508 253.393 631.466 252.719 630.125C252.052 628.777 251.719 627.197 251.719 625.386C251.719 623.598 252.052 622.023 252.719 620.659C253.393 619.295 254.332 618.231 255.537 617.466C256.749 616.701 258.166 616.318 259.787 616.318C260.772 616.318 261.726 616.481 262.651 616.807C263.575 617.133 264.404 617.644 265.139 618.341C265.874 619.038 266.454 619.943 266.878 621.057C267.302 622.163 267.514 623.508 267.514 625.091V626.295H253.639V623.75H264.185C264.185 622.856 264.003 622.064 263.639 621.375C263.276 620.678 262.764 620.129 262.105 619.727C261.454 619.326 260.688 619.125 259.81 619.125C258.855 619.125 258.022 619.36 257.31 619.83C256.605 620.292 256.06 620.898 255.673 621.648C255.295 622.39 255.105 623.197 255.105 624.068V626.057C255.105 627.223 255.31 628.216 255.719 629.034C256.135 629.852 256.715 630.477 257.457 630.909C258.2 631.333 259.067 631.545 260.06 631.545C260.704 631.545 261.291 631.455 261.821 631.273C262.351 631.083 262.81 630.803 263.196 630.432C263.582 630.061 263.878 629.602 264.082 629.057L267.298 629.636C267.041 630.583 266.579 631.413 265.912 632.125C265.253 632.83 264.423 633.379 263.423 633.773C262.431 634.159 261.298 634.352 260.026 634.352Z" fill="white"/>
<path d="M409.886 618.295H406.341C406.205 617.538 405.951 616.871 405.58 616.295C405.208 615.72 404.754 615.231 404.216 614.83C403.678 614.428 403.076 614.125 402.409 613.92C401.75 613.716 401.049 613.614 400.307 613.614C398.966 613.614 397.765 613.951 396.705 614.625C395.652 615.299 394.818 616.288 394.205 617.591C393.598 618.894 393.295 620.485 393.295 622.364C393.295 624.258 393.598 625.856 394.205 627.159C394.818 628.462 395.655 629.447 396.716 630.114C397.777 630.78 398.97 631.114 400.295 631.114C401.03 631.114 401.727 631.015 402.386 630.818C403.053 630.614 403.655 630.314 404.193 629.92C404.731 629.527 405.186 629.045 405.557 628.477C405.936 627.902 406.197 627.242 406.341 626.5L409.886 626.511C409.697 627.655 409.33 628.708 408.784 629.67C408.246 630.625 407.553 631.451 406.705 632.148C405.864 632.837 404.902 633.371 403.818 633.75C402.735 634.129 401.553 634.318 400.273 634.318C398.258 634.318 396.462 633.841 394.886 632.886C393.311 631.924 392.068 630.549 391.159 628.761C390.258 626.973 389.807 624.841 389.807 622.364C389.807 619.879 390.261 617.746 391.17 615.966C392.08 614.178 393.322 612.807 394.898 611.852C396.473 610.89 398.265 610.409 400.273 610.409C401.508 610.409 402.659 610.587 403.727 610.943C404.803 611.292 405.769 611.807 406.625 612.489C407.481 613.163 408.189 613.989 408.75 614.966C409.311 615.936 409.689 617.045 409.886 618.295ZM418.895 634.386C417.789 634.386 416.789 634.182 415.895 633.773C415.001 633.356 414.293 632.754 413.77 631.966C413.255 631.178 412.997 630.212 412.997 629.068C412.997 628.083 413.187 627.273 413.565 626.636C413.944 626 414.455 625.496 415.099 625.125C415.743 624.754 416.463 624.473 417.259 624.284C418.054 624.095 418.865 623.951 419.69 623.852C420.736 623.731 421.584 623.633 422.236 623.557C422.887 623.473 423.361 623.341 423.656 623.159C423.952 622.977 424.099 622.682 424.099 622.273V622.193C424.099 621.201 423.819 620.432 423.259 619.886C422.705 619.341 421.88 619.068 420.781 619.068C419.637 619.068 418.736 619.322 418.077 619.83C417.425 620.33 416.974 620.886 416.724 621.5L413.531 620.773C413.91 619.712 414.463 618.856 415.19 618.205C415.925 617.545 416.77 617.068 417.724 616.773C418.679 616.47 419.683 616.318 420.736 616.318C421.433 616.318 422.171 616.402 422.952 616.568C423.74 616.727 424.474 617.023 425.156 617.455C425.846 617.886 426.41 618.504 426.849 619.307C427.289 620.102 427.509 621.136 427.509 622.409V634H424.19V631.614H424.054C423.834 632.053 423.505 632.485 423.065 632.909C422.626 633.333 422.062 633.686 421.372 633.966C420.683 634.246 419.857 634.386 418.895 634.386ZM419.634 631.659C420.573 631.659 421.376 631.473 422.043 631.102C422.717 630.731 423.228 630.246 423.577 629.648C423.933 629.042 424.111 628.394 424.111 627.705V625.455C423.99 625.576 423.755 625.689 423.406 625.795C423.065 625.894 422.675 625.981 422.236 626.057C421.796 626.125 421.368 626.189 420.952 626.25C420.535 626.303 420.187 626.348 419.906 626.386C419.247 626.47 418.645 626.61 418.099 626.807C417.562 627.004 417.13 627.288 416.804 627.659C416.486 628.023 416.327 628.508 416.327 629.114C416.327 629.955 416.637 630.591 417.259 631.023C417.88 631.447 418.671 631.659 419.634 631.659ZM435.432 623.636V634H432.034V616.545H435.295V619.386H435.511C435.913 618.462 436.542 617.72 437.398 617.159C438.261 616.598 439.348 616.318 440.659 616.318C441.848 616.318 442.89 616.568 443.784 617.068C444.678 617.561 445.371 618.295 445.864 619.273C446.356 620.25 446.602 621.458 446.602 622.898V634H443.205V623.307C443.205 622.042 442.875 621.053 442.216 620.341C441.557 619.621 440.652 619.261 439.5 619.261C438.712 619.261 438.011 619.432 437.398 619.773C436.792 620.114 436.311 620.614 435.955 621.273C435.606 621.924 435.432 622.712 435.432 623.636ZM458.511 634.352C456.822 634.352 455.367 633.97 454.148 633.205C452.936 632.432 452.004 631.367 451.352 630.011C450.701 628.655 450.375 627.102 450.375 625.352C450.375 623.58 450.708 622.015 451.375 620.659C452.042 619.295 452.981 618.231 454.193 617.466C455.405 616.701 456.833 616.318 458.477 616.318C459.803 616.318 460.985 616.564 462.023 617.057C463.061 617.542 463.898 618.223 464.534 619.102C465.178 619.981 465.561 621.008 465.682 622.182H462.375C462.193 621.364 461.777 620.659 461.125 620.068C460.481 619.477 459.617 619.182 458.534 619.182C457.587 619.182 456.758 619.432 456.045 619.932C455.341 620.424 454.792 621.129 454.398 622.045C454.004 622.955 453.807 624.03 453.807 625.273C453.807 626.545 454 627.644 454.386 628.568C454.773 629.492 455.318 630.208 456.023 630.716C456.735 631.223 457.572 631.477 458.534 631.477C459.178 631.477 459.761 631.36 460.284 631.125C460.814 630.883 461.258 630.538 461.614 630.091C461.977 629.644 462.231 629.106 462.375 628.477H465.682C465.561 629.606 465.193 630.614 464.58 631.5C463.966 632.386 463.144 633.083 462.114 633.591C461.091 634.098 459.89 634.352 458.511 634.352ZM476.838 634.352C475.118 634.352 473.637 633.985 472.395 633.25C471.16 632.508 470.205 631.466 469.531 630.125C468.865 628.777 468.531 627.197 468.531 625.386C468.531 623.598 468.865 622.023 469.531 620.659C470.205 619.295 471.145 618.231 472.349 617.466C473.562 616.701 474.978 616.318 476.599 616.318C477.584 616.318 478.539 616.481 479.463 616.807C480.387 617.133 481.217 617.644 481.952 618.341C482.687 619.038 483.266 619.943 483.69 621.057C484.115 622.163 484.327 623.508 484.327 625.091V626.295H470.452V623.75H480.997C480.997 622.856 480.815 622.064 480.452 621.375C480.088 620.678 479.577 620.129 478.918 619.727C478.266 619.326 477.501 619.125 476.622 619.125C475.668 619.125 474.834 619.36 474.122 619.83C473.418 620.292 472.872 620.898 472.486 621.648C472.107 622.39 471.918 623.197 471.918 624.068V626.057C471.918 627.223 472.122 628.216 472.531 629.034C472.948 629.852 473.527 630.477 474.27 630.909C475.012 631.333 475.88 631.545 476.872 631.545C477.516 631.545 478.103 631.455 478.634 631.273C479.164 631.083 479.622 630.803 480.009 630.432C480.395 630.061 480.69 629.602 480.895 629.057L484.111 629.636C483.853 630.583 483.391 631.413 482.724 632.125C482.065 632.83 481.236 633.379 480.236 633.773C479.243 634.159 478.111 634.352 476.838 634.352ZM491.494 610.727V634H488.097V610.727H491.494Z" fill="#1750BA"/>
<rect x="790" y="232" width="290" height="290" rx="8" fill="#ECF1F9"/>
</svg>
