<svg width="1200" height="742" viewBox="0 0 1200 742" fill="none" xmlns="http://www.w3.org/2000/svg">
<rect width="1200" height="742" rx="4" fill="white"/>
<rect x="488" y="521" width="224" height="80" rx="8" fill="#0B64DD"/>
<path d="M570.386 557.295H566.841C566.705 556.538 566.451 555.871 566.08 555.295C565.708 554.72 565.254 554.231 564.716 553.83C564.178 553.428 563.576 553.125 562.909 552.92C562.25 552.716 561.549 552.614 560.807 552.614C559.466 552.614 558.265 552.951 557.205 553.625C556.152 554.299 555.318 555.288 554.705 556.591C554.098 557.894 553.795 559.485 553.795 561.364C553.795 563.258 554.098 564.856 554.705 566.159C555.318 567.462 556.155 568.447 557.216 569.114C558.277 569.78 559.47 570.114 560.795 570.114C561.53 570.114 562.227 570.015 562.886 569.818C563.553 569.614 564.155 569.314 564.693 568.92C565.231 568.527 565.686 568.045 566.057 567.477C566.436 566.902 566.697 566.242 566.841 565.5L570.386 565.511C570.197 566.655 569.83 567.708 569.284 568.67C568.746 569.625 568.053 570.451 567.205 571.148C566.364 571.837 565.402 572.371 564.318 572.75C563.235 573.129 562.053 573.318 560.773 573.318C558.758 573.318 556.962 572.841 555.386 571.886C553.811 570.924 552.568 569.549 551.659 567.761C550.758 565.973 550.307 563.841 550.307 561.364C550.307 558.879 550.761 556.746 551.67 554.966C552.58 553.178 553.822 551.807 555.398 550.852C556.973 549.89 558.765 549.409 560.773 549.409C562.008 549.409 563.159 549.587 564.227 549.943C565.303 550.292 566.269 550.807 567.125 551.489C567.981 552.163 568.689 552.989 569.25 553.966C569.811 554.936 570.189 556.045 570.386 557.295ZM574.315 573V555.545H577.599V558.318H577.781C578.099 557.379 578.66 556.64 579.463 556.102C580.274 555.557 581.19 555.284 582.213 555.284C582.425 555.284 582.675 555.292 582.963 555.307C583.259 555.322 583.49 555.341 583.656 555.364V558.614C583.52 558.576 583.277 558.534 582.929 558.489C582.58 558.436 582.232 558.409 581.884 558.409C581.08 558.409 580.365 558.58 579.736 558.92C579.115 559.254 578.622 559.72 578.259 560.318C577.895 560.909 577.713 561.583 577.713 562.341V573H574.315ZM593.494 573.352C591.775 573.352 590.294 572.985 589.051 572.25C587.816 571.508 586.862 570.466 586.188 569.125C585.521 567.777 585.188 566.197 585.188 564.386C585.188 562.598 585.521 561.023 586.188 559.659C586.862 558.295 587.801 557.231 589.006 556.466C590.218 555.701 591.634 555.318 593.256 555.318C594.241 555.318 595.195 555.481 596.119 555.807C597.044 556.133 597.873 556.644 598.608 557.341C599.343 558.038 599.922 558.943 600.347 560.057C600.771 561.163 600.983 562.508 600.983 564.091V565.295H587.108V562.75H597.653C597.653 561.856 597.472 561.064 597.108 560.375C596.744 559.678 596.233 559.129 595.574 558.727C594.922 558.326 594.157 558.125 593.278 558.125C592.324 558.125 591.491 558.36 590.778 558.83C590.074 559.292 589.528 559.898 589.142 560.648C588.763 561.39 588.574 562.197 588.574 563.068V565.057C588.574 566.223 588.778 567.216 589.188 568.034C589.604 568.852 590.184 569.477 590.926 569.909C591.669 570.333 592.536 570.545 593.528 570.545C594.172 570.545 594.759 570.455 595.29 570.273C595.82 570.083 596.278 569.803 596.665 569.432C597.051 569.061 597.347 568.602 597.551 568.057L600.767 568.636C600.509 569.583 600.047 570.413 599.381 571.125C598.722 571.83 597.892 572.379 596.892 572.773C595.9 573.159 594.767 573.352 593.494 573.352ZM609.832 573.386C608.726 573.386 607.726 573.182 606.832 572.773C605.938 572.356 605.23 571.754 604.707 570.966C604.192 570.178 603.935 569.212 603.935 568.068C603.935 567.083 604.124 566.273 604.503 565.636C604.882 565 605.393 564.496 606.037 564.125C606.681 563.754 607.401 563.473 608.196 563.284C608.991 563.095 609.802 562.951 610.628 562.852C611.673 562.731 612.522 562.633 613.173 562.557C613.825 562.473 614.298 562.341 614.594 562.159C614.889 561.977 615.037 561.682 615.037 561.273V561.193C615.037 560.201 614.757 559.432 614.196 558.886C613.643 558.341 612.817 558.068 611.719 558.068C610.575 558.068 609.673 558.322 609.014 558.83C608.363 559.33 607.912 559.886 607.662 560.5L604.469 559.773C604.848 558.712 605.401 557.856 606.128 557.205C606.863 556.545 607.707 556.068 608.662 555.773C609.616 555.47 610.62 555.318 611.673 555.318C612.37 555.318 613.109 555.402 613.889 555.568C614.677 555.727 615.412 556.023 616.094 556.455C616.783 556.886 617.348 557.504 617.787 558.307C618.226 559.102 618.446 560.136 618.446 561.409V573H615.128V570.614H614.991C614.772 571.053 614.442 571.485 614.003 571.909C613.563 572.333 612.999 572.686 612.31 572.966C611.62 573.246 610.795 573.386 609.832 573.386ZM610.571 570.659C611.51 570.659 612.313 570.473 612.98 570.102C613.654 569.731 614.166 569.246 614.514 568.648C614.87 568.042 615.048 567.394 615.048 566.705V564.455C614.927 564.576 614.692 564.689 614.344 564.795C614.003 564.894 613.613 564.981 613.173 565.057C612.734 565.125 612.306 565.189 611.889 565.25C611.473 565.303 611.124 565.348 610.844 565.386C610.185 565.47 609.582 565.61 609.037 565.807C608.499 566.004 608.067 566.288 607.741 566.659C607.423 567.023 607.264 567.508 607.264 568.114C607.264 568.955 607.575 569.591 608.196 570.023C608.817 570.447 609.609 570.659 610.571 570.659ZM631.119 555.545V558.273H621.585V555.545H631.119ZM624.142 551.364H627.54V567.875C627.54 568.534 627.638 569.03 627.835 569.364C628.032 569.689 628.286 569.913 628.597 570.034C628.915 570.148 629.259 570.205 629.631 570.205C629.903 570.205 630.142 570.186 630.347 570.148C630.551 570.11 630.71 570.08 630.824 570.057L631.438 572.864C631.241 572.939 630.96 573.015 630.597 573.091C630.233 573.174 629.778 573.22 629.233 573.227C628.339 573.242 627.506 573.083 626.733 572.75C625.96 572.417 625.335 571.902 624.858 571.205C624.381 570.508 624.142 569.633 624.142 568.58V551.364ZM642.213 573.352C640.493 573.352 639.012 572.985 637.77 572.25C636.535 571.508 635.58 570.466 634.906 569.125C634.24 567.777 633.906 566.197 633.906 564.386C633.906 562.598 634.24 561.023 634.906 559.659C635.58 558.295 636.52 557.231 637.724 556.466C638.937 555.701 640.353 555.318 641.974 555.318C642.959 555.318 643.914 555.481 644.838 555.807C645.762 556.133 646.592 556.644 647.327 557.341C648.062 558.038 648.641 558.943 649.065 560.057C649.49 561.163 649.702 562.508 649.702 564.091V565.295H635.827V562.75H646.372C646.372 561.856 646.19 561.064 645.827 560.375C645.463 559.678 644.952 559.129 644.293 558.727C643.641 558.326 642.876 558.125 641.997 558.125C641.043 558.125 640.209 558.36 639.497 558.83C638.793 559.292 638.247 559.898 637.861 560.648C637.482 561.39 637.293 562.197 637.293 563.068V565.057C637.293 566.223 637.497 567.216 637.906 568.034C638.323 568.852 638.902 569.477 639.645 569.909C640.387 570.333 641.255 570.545 642.247 570.545C642.891 570.545 643.478 570.455 644.009 570.273C644.539 570.083 644.997 569.803 645.384 569.432C645.77 569.061 646.065 568.602 646.27 568.057L649.486 568.636C649.228 569.583 648.766 570.413 648.099 571.125C647.44 571.83 646.611 572.379 645.611 572.773C644.618 573.159 643.486 573.352 642.213 573.352Z" fill="white"/>
<rect x="405" y="281" width="389" height="40" rx="8" fill="#ECF1F9"/>
<rect x="341" y="331" width="517" height="40" rx="8" fill="#ECF1F9"/>
<rect x="341" y="381" width="517" height="40" rx="8" fill="#ECF1F9"/>
<rect x="476" y="431" width="247" height="40" rx="8" fill="#ECF1F9"/>
<rect x="341" y="141" width="517" height="40" rx="8" fill="#CAD3E2"/>
<rect x="409" y="191" width="381" height="40" rx="8" fill="#CAD3E2"/>
</svg>
