<svg width="300" height="200" viewBox="0 0 300 200" fill="none" xmlns="http://www.w3.org/2000/svg">
    <rect width="300" height="200" fill="var(--svg-fill-background)" />
    <rect x="40" y="30" width="170" height="40" rx="1" fill="var(--svg-fill-warning-background)" />
    <path
        d="M194.665 55.1271L187.669 42.9776C187.494 42.68 187.244 42.4332 186.945 42.2617C186.645 42.0902 186.306 42 185.961 42C185.616 42 185.276 42.0902 184.977 42.2617C184.677 42.4332 184.428 42.68 184.253 42.9776L177.257 55.1271C177.089 55.415 177 55.7425 177 56.0759C177 56.4094 177.089 56.7368 177.257 57.0247C177.429 57.3242 177.679 57.5723 177.979 57.7437C178.279 57.9151 178.619 58.0035 178.965 57.9999H192.957C193.302 58.0032 193.642 57.9146 193.942 57.7433C194.242 57.5719 194.491 57.3239 194.663 57.0247C194.831 56.7369 194.92 56.4096 194.921 56.0761C194.921 55.7427 194.833 55.4152 194.665 55.1271ZM193.555 56.3839C193.494 56.4879 193.406 56.5739 193.301 56.6329C193.196 56.692 193.077 56.722 192.957 56.7199H178.965C178.844 56.722 178.725 56.692 178.62 56.6329C178.515 56.5739 178.427 56.4879 178.366 56.3839C178.311 56.2904 178.282 56.1837 178.282 56.0751C178.282 55.9665 178.311 55.8598 178.366 55.7663L185.362 43.6168C185.425 43.5133 185.513 43.4276 185.618 43.3681C185.723 43.3087 185.842 43.2774 185.962 43.2774C186.083 43.2774 186.202 43.3087 186.307 43.3681C186.412 43.4276 186.5 43.5133 186.562 43.6168L193.558 55.7663C193.613 55.8601 193.642 55.9669 193.641 56.0756C193.64 56.1842 193.611 56.2907 193.555 56.3839ZM185.321 51.6V48.4C185.321 48.2303 185.388 48.0675 185.508 47.9474C185.628 47.8274 185.791 47.76 185.961 47.76C186.13 47.76 186.293 47.8274 186.413 47.9474C186.533 48.0675 186.601 48.2303 186.601 48.4V51.6C186.601 51.7697 186.533 51.9325 186.413 52.0525C186.293 52.1725 186.13 52.24 185.961 52.24C185.791 52.24 185.628 52.1725 185.508 52.0525C185.388 51.9325 185.321 51.7697 185.321 51.6ZM186.921 54.4799C186.921 54.6698 186.864 54.8554 186.759 55.0133C186.653 55.1711 186.504 55.2942 186.328 55.3668C186.153 55.4395 185.96 55.4585 185.773 55.4215C185.587 55.3844 185.416 55.293 185.282 55.1587C185.148 55.0245 185.056 54.8534 185.019 54.6672C184.982 54.481 185.001 54.288 185.074 54.1126C185.146 53.9371 185.27 53.7872 185.427 53.6817C185.585 53.5762 185.771 53.5199 185.961 53.5199C186.215 53.5199 186.46 53.6211 186.64 53.8011C186.82 53.9811 186.921 54.2253 186.921 54.4799Z"
        fill="var(--svg-fill-warning-text)" />
    <rect x="60" y="42" width="100" height="6" rx="1" fill="var(--svg-fill-warning)" />
    <rect x="60" y="53" width="50" height="6" rx="1" fill="var(--svg-fill-warning-decor)" />
    <path d="M40 31C40 30.4477 40.4477 30 41 30H42V70H41C40.4477 70 40 69.5523 40 69V31Z"
        fill="var(--svg-fill-warning-text)" />
    <path d="M90 81C90 80.4477 90.4477 80 91 80H259C259.552 80 260 80.4477 260 81V120H90V81Z"
        fill="var(--svg-fill-teal-background)" />
    <rect x="110" y="92" width="100" height="6" rx="1" fill="var(--svg-fill-teal)" />
    <rect x="110" y="103" width="50" height="6" rx="1" fill="var(--svg-fill-teal-decor)" />
    <path
        d="M240.512 97.7185C240.569 97.7756 240.615 97.8435 240.646 97.9182C240.677 97.9929 240.693 98.073 240.693 98.1538C240.693 98.2347 240.677 98.3148 240.646 98.3895C240.615 98.4642 240.569 98.5321 240.512 98.5892L236.205 102.897C236.147 102.954 236.08 103 236.005 103.03C235.93 103.061 235.85 103.077 235.769 103.077C235.688 103.077 235.608 103.061 235.534 103.03C235.459 103 235.391 102.954 235.334 102.897L233.488 101.051C233.372 100.935 233.307 100.779 233.307 100.615C233.307 100.452 233.372 100.295 233.488 100.18C233.603 100.065 233.76 99.9997 233.923 99.9997C234.086 99.9997 234.243 100.065 234.358 100.18L235.769 101.592L239.642 97.7185C239.699 97.6612 239.767 97.6159 239.841 97.5849C239.916 97.5539 239.996 97.538 240.077 97.538C240.158 97.538 240.238 97.5539 240.313 97.5849C240.387 97.6159 240.455 97.6612 240.512 97.7185ZM245 100C245 101.582 244.531 103.129 243.652 104.445C242.773 105.76 241.523 106.786 240.061 107.391C238.6 107.997 236.991 108.155 235.439 107.846C233.887 107.538 232.462 106.776 231.343 105.657C230.224 104.538 229.462 103.113 229.154 101.561C228.845 100.009 229.003 98.4003 229.609 96.9385C230.214 95.4767 231.24 94.2273 232.555 93.3482C233.871 92.4692 235.418 92 237 92C239.121 92.0022 241.155 92.8458 242.654 94.3456C244.154 95.8454 244.998 97.879 245 100ZM243.769 100C243.769 98.6612 243.372 97.3524 242.628 96.2392C241.885 95.126 240.827 94.2584 239.59 93.746C238.354 93.2337 236.992 93.0996 235.679 93.3608C234.366 93.622 233.16 94.2667 232.213 95.2134C231.267 96.1601 230.622 97.3663 230.361 98.6794C230.1 99.9925 230.234 101.354 230.746 102.59C231.258 103.827 232.126 104.885 233.239 105.628C234.352 106.372 235.661 106.769 237 106.769C238.795 106.767 240.515 106.053 241.784 104.784C243.053 103.515 243.767 101.795 243.769 100Z"
        fill="var(--svg-fill-teal-text)" />
    <path d="M90 81C90 80.4477 90.4477 80 91 80H92V120H91C90.4477 120 90 119.552 90 119V81Z"
        fill="var(--svg-fill-teal-text)" />
    <rect x="40" y="130" width="170" height="40" rx="1" fill="var(--svg-fill-lightestShade)" />
    <rect x="60" y="142" width="100" height="6" rx="1" fill="var(--svg-fill-lightShade)" />
    <path
        d="M60 154C60 153.448 60.4477 153 61 153H109C109.552 153 110 153.448 110 154V158C110 158.552 109.552 159 109 159H61C60.4477 159 60 158.552 60 158V154Z"
        fill="var(--svg-fill-mediumShade)" />
    <path
        d="M187 142C185.418 142 183.871 142.469 182.555 143.348C181.24 144.227 180.214 145.477 179.609 146.939C179.003 148.4 178.845 150.009 179.154 151.561C179.462 153.113 180.224 154.538 181.343 155.657C182.462 156.776 183.887 157.538 185.439 157.846C186.991 158.155 188.6 157.997 190.061 157.391C191.523 156.786 192.773 155.76 193.652 154.445C194.531 153.129 195 151.582 195 150C194.998 147.879 194.154 145.845 192.654 144.346C191.155 142.846 189.121 142.002 187 142ZM187 156.769C185.661 156.769 184.352 156.372 183.239 155.628C182.126 154.885 181.258 153.827 180.746 152.59C180.234 151.354 180.1 149.992 180.361 148.679C180.622 147.366 181.267 146.16 182.213 145.213C183.16 144.267 184.366 143.622 185.679 143.361C186.992 143.1 188.354 143.234 189.59 143.746C190.827 144.258 191.885 145.126 192.628 146.239C193.372 147.352 193.769 148.661 193.769 150C193.767 151.795 193.053 153.515 191.784 154.784C190.515 156.053 188.795 156.767 187 156.769ZM188.231 153.692C188.231 153.856 188.166 154.012 188.05 154.127C187.935 154.243 187.779 154.308 187.615 154.308C187.289 154.308 186.976 154.178 186.745 153.947C186.514 153.716 186.385 153.403 186.385 153.077V150C186.221 150 186.065 149.935 185.949 149.82C185.834 149.704 185.769 149.548 185.769 149.385C185.769 149.221 185.834 149.065 185.949 148.949C186.065 148.834 186.221 148.769 186.385 148.769C186.711 148.769 187.024 148.899 187.255 149.13C187.486 149.361 187.615 149.674 187.615 150V153.077C187.779 153.077 187.935 153.142 188.05 153.257C188.166 153.373 188.231 153.529 188.231 153.692ZM185.769 146.615C185.769 146.433 185.823 146.254 185.925 146.103C186.026 145.951 186.17 145.832 186.339 145.763C186.508 145.693 186.693 145.674 186.872 145.71C187.051 145.746 187.216 145.834 187.345 145.963C187.474 146.092 187.562 146.256 187.598 146.435C187.633 146.614 187.615 146.8 187.545 146.969C187.475 147.137 187.357 147.281 187.205 147.383C187.053 147.484 186.875 147.538 186.692 147.538C186.447 147.538 186.213 147.441 186.04 147.268C185.866 147.095 185.769 146.86 185.769 146.615Z"
        fill="var(--svg-fill-darkShade)" />
    <path d="M40 131C40 130.448 40.4477 130 41 130H42V170H41C40.4477 170 40 169.552 40 169V131Z"
        fill="var(--svg-fill-darkShade)" />
</svg>