<svg width="300" height="200" viewBox="0 0 300 200" fill="none" xmlns="http://www.w3.org/2000/svg">
    <rect width="300" height="200" fill="var(--svg-fill-background)" />
    <path
        d="M194 95H260V149C260 149.552 259.552 150 259 150H195C194.448 150 194 149.552 194 149V95Z"
        fill="var(--svg-fill-lightestShade)" />
    <rect x="204" y="105" width="46" height="8" rx="0.5" fill="var(--svg-fill-lightShade)" />
    <path
        d="M204 119.5C204 119.224 204.224 119 204.5 119H249.5C249.776 119 250 119.224 250 119.5V123.5C250 123.776 249.776 124 249.5 124H204.5C204.224 124 204 123.776 204 123.5V119.5Z"
        fill="var(--svg-fill-mediumShade)" />
    <path
        d="M204 127.5C204 127.224 204.224 127 204.5 127H249.5C249.776 127 250 127.224 250 127.5V131.5C250 131.776 249.776 132 249.5 132H204.5C204.224 132 204 131.776 204 131.5V127.5Z"
        fill="var(--svg-fill-mediumShade)" />
    <path
        d="M204 135.5C204 135.224 204.224 135 204.5 135H226.5C226.776 135 227 135.224 227 135.5V139.5C227 139.776 226.776 140 226.5 140H204.5C204.224 140 204 139.776 204 139.5V135.5Z"
        fill="var(--svg-fill-mediumShade)" />
    <path d="M194 51C194 50.4477 194.448 50 195 50H259C259.552 50 260 50.4477 260 51V95H194V51Z"
        fill="var(--svg-fill-warning-background)" />
    <path
        d="M226.494 73.04V70.72L231.054 67.8V67.56H223.134V66H232.494V68.56L227.934 71.48V71.72H228.734C229.267 71.72 229.781 71.8067 230.274 71.98C230.767 72.1533 231.201 72.4067 231.574 72.74C231.961 73.0733 232.267 73.4867 232.494 73.98C232.734 74.46 232.854 75.02 232.854 75.66V76.02C232.854 76.62 232.734 77.18 232.494 77.7C232.254 78.22 231.921 78.6733 231.494 79.06C231.067 79.4333 230.561 79.7333 229.974 79.96C229.401 80.1733 228.774 80.28 228.094 80.28C227.307 80.28 226.601 80.16 225.974 79.92C225.347 79.68 224.814 79.3533 224.374 78.94C223.934 78.5133 223.594 78.02 223.354 77.46C223.127 76.8867 223.014 76.28 223.014 75.64V74.56H224.694V75.52C224.694 76.0267 224.774 76.48 224.934 76.88C225.107 77.2667 225.341 77.6 225.634 77.88C225.941 78.1467 226.301 78.3533 226.714 78.5C227.127 78.6467 227.574 78.72 228.054 78.72C228.494 78.72 228.901 78.6467 229.274 78.5C229.661 78.3533 229.994 78.1533 230.274 77.9C230.554 77.6333 230.774 77.3267 230.934 76.98C231.094 76.62 231.174 76.24 231.174 75.84V75.72C231.174 74.88 230.907 74.2267 230.374 73.76C229.841 73.28 229.174 73.04 228.374 73.04H226.494Z"
        fill="var(--svg-fill-warning-text)" />
    <path
        d="M117 95H183V149C183 149.552 182.552 150 182 150H118C117.448 150 117 149.552 117 149V95Z"
        fill="var(--svg-fill-lightestShade)" />
    <rect x="127" y="105" width="46" height="8" rx="0.5" fill="var(--svg-fill-lightShade)" />
    <path
        d="M127 119.5C127 119.224 127.224 119 127.5 119H172.5C172.776 119 173 119.224 173 119.5V123.5C173 123.776 172.776 124 172.5 124H127.5C127.224 124 127 123.776 127 123.5V119.5Z"
        fill="var(--svg-fill-mediumShade)" />
    <path
        d="M127 127.5C127 127.224 127.224 127 127.5 127H172.5C172.776 127 173 127.224 173 127.5V131.5C173 131.776 172.776 132 172.5 132H127.5C127.224 132 127 131.776 127 131.5V127.5Z"
        fill="var(--svg-fill-mediumShade)" />
    <path
        d="M127 135.5C127 135.224 127.224 135 127.5 135H149.5C149.776 135 150 135.224 150 135.5V139.5C150 139.776 149.776 140 149.5 140H127.5C127.224 140 127 139.776 127 139.5V135.5Z"
        fill="var(--svg-fill-mediumShade)" />
    <path d="M117 51C117 50.4477 117.448 50 118 50H182C182.552 50 183 50.4477 183 51V95H117V51Z"
        fill="var(--svg-fill-primary-background)" />
    <path
        d="M154.88 78.44V80H145.4V77.6C145.4 76.96 145.507 76.4067 145.72 75.94C145.933 75.46 146.233 75.0533 146.62 74.72C147.02 74.3733 147.5 74.0867 148.06 73.86C148.62 73.6333 149.253 73.44 149.96 73.28C151.147 73.0133 152 72.6333 152.52 72.14C153.053 71.6467 153.32 71.04 153.32 70.32V70.2C153.32 69.84 153.26 69.4867 153.14 69.14C153.02 68.7933 152.833 68.48 152.58 68.2C152.327 67.92 152 67.7 151.6 67.54C151.213 67.3667 150.747 67.28 150.2 67.28C149.173 67.28 148.373 67.5933 147.8 68.22C147.24 68.8467 146.96 69.68 146.96 70.72V71.6H145.28V70.6C145.28 69.96 145.387 69.3467 145.6 68.76C145.813 68.1733 146.127 67.6533 146.54 67.2C146.953 66.7467 147.467 66.3867 148.08 66.12C148.693 65.8533 149.4 65.72 150.2 65.72C151.013 65.72 151.72 65.8467 152.32 66.1C152.92 66.34 153.42 66.6667 153.82 67.08C154.22 67.48 154.513 67.94 154.7 68.46C154.9 68.9667 155 69.4867 155 70.02V70.38C155 71.4467 154.667 72.36 154 73.12C153.333 73.8667 152.267 74.4 150.8 74.72C149.52 75 148.58 75.3733 147.98 75.84C147.38 76.2933 147.08 76.96 147.08 77.84V78.44H154.88Z"
        fill="var(--svg-fill-primary-text)" />
    <path d="M40 95H106V149C106 149.552 105.552 150 105 150H41C40.4477 150 40 149.552 40 149V95Z"
        fill="var(--svg-fill-lightestShade)" />
    <rect x="50" y="105" width="46" height="8" rx="0.5" fill="var(--svg-fill-lightShade)" />
    <path
        d="M50 119.5C50 119.224 50.2239 119 50.5 119H95.5C95.7761 119 96 119.224 96 119.5V123.5C96 123.776 95.7761 124 95.5 124H50.5C50.2239 124 50 123.776 50 123.5V119.5Z"
        fill="var(--svg-fill-mediumShade)" />
    <path
        d="M50 127.5C50 127.224 50.2239 127 50.5 127H95.5C95.7761 127 96 127.224 96 127.5V131.5C96 131.776 95.7761 132 95.5 132H50.5C50.2239 132 50 131.776 50 131.5V127.5Z"
        fill="var(--svg-fill-mediumShade)" />
    <path
        d="M50 135.5C50 135.224 50.2239 135 50.5 135H72.5C72.7761 135 73 135.224 73 135.5V139.5C73 139.776 72.7761 140 72.5 140H50.5C50.2239 140 50 139.776 50 139.5V135.5Z"
        fill="var(--svg-fill-mediumShade)" />
    <path d="M40 51C40 50.4477 40.4477 50 41 50H105C105.552 50 106 50.4477 106 51V95H40V51Z"
        fill="var(--svg-fill-teal-background)" />
    <g clipPath="url(#clip0_1377_21533)">
        <path
            d="M86.9486 50.0579L85.2695 50.0579C85.3274 50.2316 85.4432 50.3474 85.6169 50.4632C85.9643 50.6369 86.6012 50.4632 86.9486 50.0579Z"
            fill="var(--svg-fill-teal-decor)" />
        <path
            d="M105.361 66.3857C105.014 66.3278 104.724 66.6173 104.724 67.0226C104.724 67.37 104.898 67.6016 105.245 67.6016C105.361 67.6016 105.419 67.6016 105.477 67.6016L105.477 66.4436C105.477 66.3857 105.419 66.3857 105.361 66.3857Z"
            fill="var(--svg-fill-teal-decor)" />
        <path
            d="M79.5953 50.0576L79.0742 50.0576C79.0742 50.1155 79.0742 50.2313 79.1321 50.2892C79.1321 50.3471 79.3637 50.4629 79.4216 50.4629C79.4795 50.3471 79.6532 50.1734 79.5953 50.0576Z"
            fill="var(--svg-fill-teal-decor)" />
        <path
            d="M102.697 67.3709C102.697 67.0235 102.408 66.734 102.06 66.734C101.713 66.734 101.597 66.9656 101.597 67.313C101.597 67.6604 101.829 68.0078 102.176 68.0078C102.466 68.0078 102.755 67.7183 102.697 67.3709Z"
            fill="var(--svg-fill-teal-decor)" />
        <path
            d="M99.5129 57.1221C99.9761 57.1221 100.266 56.8326 100.266 56.2536C100.266 55.8483 100.092 55.5588 99.7445 55.5009C99.6287 55.5009 99.455 55.5588 99.3392 55.6167C99.5129 55.3851 99.6287 55.0956 99.5129 54.9219C99.2813 54.5745 98.9918 54.4008 98.5286 54.5166C98.1233 54.6324 98.0075 55.1535 98.1812 55.5588C98.297 55.8483 98.6444 55.9641 98.9918 55.8483C98.8181 56.022 98.6444 56.1957 98.6444 56.3115C98.6444 56.8326 98.9339 57.1221 99.5129 57.1221Z"
            fill="var(--svg-fill-teal-decor)" />
        <path
            d="M104.434 68.3548C104.608 68.239 105.129 68.0074 105.013 67.66C104.898 67.3126 104.376 67.4284 104.145 67.4284C103.855 67.4284 103.74 67.7758 103.855 68.0653C103.913 68.4127 104.145 68.5285 104.434 68.3548Z"
            fill="var(--svg-fill-teal-decor)" />
        <path
            d="M96.8498 55.6744C96.9077 55.385 96.6182 55.0376 96.3287 55.0376C95.9813 55.0376 95.8076 55.2692 95.8076 55.5586C95.8076 55.8481 95.9234 56.0218 96.2129 56.0797C96.5603 56.1376 96.8498 55.9639 96.8498 55.6744Z"
            fill="var(--svg-fill-teal-decor)" />
        <path
            d="M98.8177 64.8804C99.3388 64.9383 99.6862 64.5909 99.7441 64.0698C99.802 63.433 99.3967 62.9698 98.7019 62.9119C98.1808 62.854 97.6597 63.2593 97.5439 63.7803C97.5439 64.2435 98.1808 64.8225 98.8177 64.8804Z"
            fill="var(--svg-fill-teal-decor)" />
        <path
            d="M88.8013 64.5325C88.8013 64.7062 89.0908 64.8799 89.2066 64.8799C89.3224 64.8799 89.5539 64.7641 89.5539 64.6483C89.5539 64.4746 89.3802 64.3588 89.2644 64.3588C89.1487 64.243 88.8013 64.3588 88.8013 64.5325Z"
            fill="var(--svg-fill-teal-decor)" />
        <path
            d="M91.1753 64.243C91.1753 64.0693 90.8858 63.9535 90.77 63.9535C90.7121 63.9535 90.4805 64.0693 90.4805 64.1851C90.4805 64.3009 90.6542 64.4167 90.77 64.4746C90.8858 64.4746 91.1753 64.4167 91.1753 64.243Z"
            fill="var(--svg-fill-teal-decor)" />
        <path
            d="M104.029 59.0905C103.739 59.0905 103.392 59.4379 103.392 59.7274C103.392 60.3642 103.682 60.8274 104.087 60.7695C104.492 60.7695 104.955 60.1905 104.955 59.7852C104.955 59.4957 104.376 59.0326 104.029 59.0905Z"
            fill="var(--svg-fill-teal-decor)" />
        <path
            d="M105.361 59.3797C105.418 59.4376 105.476 59.5534 105.534 59.6113L105.534 58.5113C105.361 58.685 105.245 59.0902 105.361 59.3797Z"
            fill="var(--svg-fill-teal-decor)" />
        <path
            d="M92.2177 63.086C92.1019 62.8544 91.5808 62.9123 91.4071 63.0281C91.2913 63.0859 91.2334 63.3754 91.2913 63.607C91.3492 63.8386 91.5808 64.0123 91.8124 63.8386C91.9282 63.6649 92.2755 63.3175 92.2177 63.086Z"
            fill="var(--svg-fill-teal-decor)" />
        <path
            d="M101.597 52.8373C101.886 52.8373 102.292 52.7216 102.407 52.5479C102.581 52.3163 102.523 51.911 102.581 51.5057C102.813 51.5057 103.102 51.4478 103.218 51.2741C103.276 51.2162 103.392 51.1583 103.392 51.0425C103.507 50.6951 103.681 50.4056 103.681 50.0003L102.291 50.0003C102.349 50.2319 102.407 50.4635 102.465 50.6372C102.407 50.753 102.292 50.8688 102.234 51.0425C101.828 51.1583 101.423 51.1583 101.249 51.332C101.018 51.5057 100.902 51.8531 100.786 52.2005C100.786 52.6058 101.134 52.8952 101.597 52.8373Z"
            fill="var(--svg-fill-teal-decor)" />
        <path
            d="M105.534 51.2734L105.534 50.0575L105.361 50.0575C105.361 50.1154 105.303 50.1734 105.303 50.1734C105.129 50.6944 105.187 51.0418 105.534 51.2734Z"
            fill="var(--svg-fill-teal-decor)" />
        <path
            d="M93.0278 50.5789C93.0857 50.8105 93.3173 50.9263 93.6068 50.9842C93.6068 51.1 93.6068 51.2737 93.6068 51.3895C93.7226 51.7368 94.07 51.8526 94.4174 51.7368C94.7648 51.6211 94.8806 51.3316 94.7648 51.0421C94.7069 50.9263 94.649 50.8684 94.5911 50.7526C94.7648 50.5789 94.7648 50.3473 94.7069 50.0578L93.1436 50.0578C93.0278 50.2894 93.0278 50.4631 93.0278 50.5789Z"
            fill="var(--svg-fill-teal-decor)" />
        <path
            d="M104.318 65.9225C104.55 65.5172 104.55 65.1698 104.087 64.8803C103.739 64.9961 103.334 65.1698 103.508 65.633C103.624 65.9804 103.971 65.9804 104.318 65.9225Z"
            fill="var(--svg-fill-teal-decor)" />
        <path
            d="M96.2125 52.1427C96.8494 52.3743 96.9073 52.3743 97.3126 51.7374C97.1968 51.4479 97.0231 51.2163 96.9652 50.9268C96.7915 50.5215 96.2704 50.2321 95.8072 50.4057C95.5177 50.5215 95.2282 50.9268 95.344 51.2163C95.6335 51.5637 95.7493 51.969 96.2125 52.1427Z"
            fill="var(--svg-fill-teal-decor)" />
        <path
            d="M99.6866 53.0684C100.208 52.6052 100.15 52.0841 99.7446 51.563C100.208 50.9261 100.324 50.405 100.208 50.0576L96.8496 50.0576C96.9654 50.2313 97.1391 50.3471 97.3707 50.4629C97.9497 50.8103 98.5287 51.1577 99.1077 51.4472C98.5866 52.721 98.6445 52.8947 99.6866 53.0684Z"
            fill="var(--svg-fill-teal-decor)" />
        <path
            d="M97.7755 53.8209C98.0071 53.9946 98.2966 54.0525 98.5282 53.8209C98.7019 53.6472 98.8177 53.2998 98.8177 53.1261C98.7019 52.605 98.1808 52.7208 97.7755 52.6629C97.486 53.1261 97.3702 53.5314 97.7755 53.8209Z"
            fill="var(--svg-fill-teal-decor)" />
        <path
            d="M104.087 53.4157C104.434 53.2999 104.608 52.7789 104.434 52.1999C104.376 51.9104 103.855 51.6788 103.566 51.7946C103.16 51.9104 102.871 52.4315 102.929 52.7789C103.045 53.1842 103.739 53.5894 104.087 53.4157Z"
            fill="var(--svg-fill-teal-decor)" />
        <path
            d="M105.534 55.3843L105.534 53.0683C105.361 53.1262 105.187 53.242 105.129 53.3578C105.013 53.5315 105.013 53.7052 105.013 53.8789C104.782 53.821 104.55 53.8789 104.376 53.9947C104.203 54.1684 103.971 54.2842 103.855 54.4C103.566 54.0526 102.929 54.0526 102.639 54.2263C102.35 54.4 102.06 55.6158 102.234 56.079C102.639 56.3685 103.218 56.7159 103.797 57.0633C103.855 57.1212 104.087 57.0054 104.145 56.9475C104.434 56.7159 104.666 56.6001 105.071 56.658C105.245 56.658 105.419 56.6001 105.534 56.4843L105.534 55.3843Z"
            fill="var(--svg-fill-teal-decor)" />
        <path
            d="M105.187 63.8965C104.666 64.0702 104.376 64.5913 104.55 64.9966C104.724 65.4019 105.129 65.6914 105.476 65.6914L105.476 63.8965C105.418 63.8965 105.303 63.8965 105.187 63.8965Z"
            fill="var(--svg-fill-teal-decor)" />
        <path
            d="M101.424 64.5328C101.25 64.1275 100.845 64.0117 100.266 64.2433C99.8026 64.417 99.571 64.7644 99.7447 65.1118C99.8605 65.4013 100.729 65.8645 100.961 65.8066C101.424 65.575 101.597 65.0539 101.424 64.5328Z"
            fill="var(--svg-fill-teal-decor)" />
        <path
            d="M100.439 51.1576C100.324 51.2155 100.15 51.2734 100.15 51.4471C100.15 51.6208 100.324 51.6787 100.382 51.6787C100.497 51.6787 100.787 51.6208 100.787 51.3892C100.787 51.1576 100.497 51.1576 100.439 51.1576Z"
            fill="var(--svg-fill-teal-decor)" />
        <path
            d="M100.903 68.992C101.424 68.7604 101.655 68.1235 101.366 67.4287C101.134 66.8497 100.671 66.6181 100.092 66.8497C99.9762 66.9076 99.8025 66.9655 99.7446 67.0813C99.6288 66.5602 99.1077 66.0392 98.5866 65.9813C97.9497 65.9234 97.4286 66.4445 97.3707 67.255C97.3128 67.834 97.7181 68.2972 98.2971 68.413C98.6445 68.4709 99.0498 68.2972 99.3393 68.0077C99.3393 68.1235 99.3393 68.2972 99.3972 68.413C99.6867 68.8762 100.439 69.1657 100.903 68.992Z"
            fill="var(--svg-fill-teal-decor)" />
        <path
            d="M100.613 54.8059C100.382 54.9796 100.266 55.327 100.44 55.6165C100.555 55.7902 100.845 55.9639 101.019 55.9639C101.54 55.906 101.598 55.5007 101.655 55.0375C101.366 54.8059 101.019 54.5164 100.613 54.8059Z"
            fill="var(--svg-fill-teal-decor)" />
        <path
            d="M105.013 74.6654C104.897 74.897 105.129 75.1865 105.418 75.1865C105.476 75.1865 105.476 75.1865 105.534 75.1865L105.534 74.2022C105.302 74.2601 105.129 74.4917 105.013 74.6654Z"
            fill="var(--svg-fill-teal-decor)" />
        <path
            d="M103.855 89.082C104.203 89.082 104.492 88.8504 104.492 88.503C104.492 88.0977 104.261 87.8083 103.971 87.8083C103.624 87.8083 103.276 88.0399 103.276 88.3873C103.219 88.6767 103.508 89.082 103.855 89.082Z"
            fill="var(--svg-fill-teal-decor)" />
        <path
            d="M92.4492 88.0976C92.4492 88.445 92.9124 88.5029 93.0282 88.5029C93.2019 88.5029 93.4335 88.3292 93.4335 88.1555C93.5493 87.866 93.2598 87.6344 93.0282 87.6344C92.9124 87.6344 92.4492 87.7502 92.4492 88.0976Z"
            fill="var(--svg-fill-teal-decor)" />
        <path
            d="M98.8183 87.6929C98.992 87.8666 99.9183 87.3455 99.9762 87.056C100.034 86.7665 99.4551 86.5349 98.992 86.7086C98.5288 86.8244 98.7025 87.4613 98.8183 87.6929Z"
            fill="var(--svg-fill-teal-decor)" />
        <path
            d="M96.7336 85.7813C96.6178 85.5497 95.7493 85.4339 95.6335 85.7813C95.5177 86.0708 95.6914 86.476 95.923 86.5339C96.2704 86.7076 96.8494 86.0708 96.7336 85.7813Z"
            fill="var(--svg-fill-teal-decor)" />
        <path
            d="M105.419 85.2036C105.303 85.6089 105.419 85.9563 105.534 86.3037L105.534 84.8562C105.476 84.972 105.419 85.0878 105.419 85.2036Z"
            fill="var(--svg-fill-teal-decor)" />
        <path
            d="M98.0651 80.6284C98.0072 80.8021 98.2388 81.3232 98.5283 81.3232C98.8178 81.3232 99.1073 81.0916 99.1073 80.7442C99.1073 80.4548 98.8757 80.1653 98.5862 80.2811C98.3546 80.339 98.123 80.4547 98.0651 80.6284Z"
            fill="var(--svg-fill-teal-decor)" />
        <path
            d="M102.581 81.4395C103.102 81.4395 103.45 81.15 103.45 80.8026C103.45 80.2815 102.871 79.6446 102.408 79.7025C102.06 79.7025 101.713 80.1657 101.713 80.6288C101.713 81.092 102.002 81.4395 102.581 81.4395Z"
            fill="var(--svg-fill-teal-decor)" />
        <path
            d="M102.582 87.3448C102.697 87.4606 103.103 87.5185 103.276 87.4027C103.682 87.1711 103.682 86.5342 103.392 86.3026C103.103 86.071 102.524 86.1289 102.408 86.65C102.292 86.8237 102.466 87.1711 102.582 87.3448Z"
            fill="var(--svg-fill-teal-decor)" />
        <path
            d="M96.2707 94.1778C96.2128 94.062 95.9233 94.0041 95.8075 94.1199C95.6917 94.1778 95.6338 94.4673 95.6917 94.5831C95.7496 94.6989 96.0391 94.8726 96.2128 94.8147C96.3286 94.6989 96.3286 94.2357 96.2707 94.1778Z"
            fill="var(--svg-fill-teal-decor)" />
        <path
            d="M102.524 95.336C102.581 95.6834 102.871 95.915 103.218 95.915C103.508 95.8571 103.797 95.5676 103.739 95.2781C103.681 94.9307 103.392 94.6991 103.045 94.757C102.697 94.757 102.466 94.9886 102.524 95.336Z"
            fill="var(--svg-fill-teal-decor)" />
        <path
            d="M89.2643 73.7392C89.5538 73.9129 90.017 74.3761 90.4223 74.1445C90.8276 73.9129 90.5381 73.5655 90.596 73.3918C90.7118 72.8128 90.2486 72.1759 89.7854 72.1759C89.7275 72.1759 89.6696 72.1759 89.6117 72.2338C89.6117 72.1759 89.6117 72.1759 89.6117 72.118C89.6117 71.8864 89.1485 71.4811 88.8591 71.4811C88.5117 71.4811 88.2222 71.7127 88.2222 72.118C88.2222 72.4654 88.3959 72.697 88.7433 72.7549C88.8012 72.7549 88.917 72.7549 88.9749 72.697C88.917 72.7549 88.917 72.8128 88.8591 72.8707C88.7433 73.2181 88.9749 73.5655 89.2643 73.7392Z"
            fill="var(--svg-fill-teal-decor)" />
        <path
            d="M90.0171 66.6168C89.9013 66.4431 89.496 65.9799 89.2645 66.0957C89.0329 66.2115 89.0329 66.7326 89.0908 66.9642C89.0908 67.1958 89.4961 67.3116 89.7855 67.1958C90.0171 67.1379 90.1908 66.9063 90.0171 66.6168Z"
            fill="var(--svg-fill-teal-decor)" />
        <path
            d="M86.6595 61.0003C87.0648 60.8845 87.2385 60.595 87.1806 60.2476C87.0648 59.8423 86.4858 59.4949 86.0226 59.6107C85.6752 59.7265 85.4436 60.1318 85.5594 60.4792C85.6752 60.8845 86.2542 61.174 86.6595 61.0003Z"
            fill="var(--svg-fill-teal-decor)" />
        <path
            d="M92.9702 80.7441C92.9702 80.9757 93.1439 81.0915 93.3176 81.1494C93.4334 81.1494 93.8387 81.1494 93.8966 80.8599C93.9545 80.5704 93.5492 80.4546 93.4334 80.4546C93.2597 80.4546 92.9702 80.5125 92.9702 80.7441Z"
            fill="var(--svg-fill-teal-decor)" />
        <path
            d="M79.885 60.248C79.8271 60.1322 79.4797 60.0743 79.4218 60.0743C79.306 60.1322 79.1323 60.3059 79.1902 60.4217C79.2481 60.5954 79.4797 60.5954 79.5955 60.5954C79.7113 60.6533 79.9429 60.4217 79.885 60.248Z"
            fill="var(--svg-fill-teal-decor)" />
        <path
            d="M102.234 71.5967C102.466 72.0599 102.813 72.0599 102.755 72.2336C102.697 72.4073 102.408 72.7547 102.582 73.0442C102.755 73.3337 103.797 73.16 103.971 73.1021C103.971 73.1021 103.971 73.1021 104.029 73.0442C104.203 73.16 104.376 73.16 104.55 73.1021C104.724 73.1021 104.84 73.0442 104.898 72.9863C105.071 73.16 105.187 73.3916 105.477 73.3916L105.534 73.3916L105.534 71.5388C105.419 71.5967 105.245 71.6546 105.129 71.7125C105.013 71.3072 104.955 70.9019 104.84 70.5546C105.187 70.4388 105.361 70.3809 105.476 70.2651L105.476 69.6861C105.476 69.6861 105.477 69.6282 105.419 69.6282C105.419 69.6282 105.419 69.5703 105.476 69.5703L105.476 68.5281C105.303 68.3544 105.013 68.2965 104.782 68.2965C104.145 68.2965 103.913 68.586 103.913 69.2229C103.913 69.6861 104.203 70.0914 104.492 70.2072C104.029 70.2651 103.74 70.3809 103.624 70.6125C103.508 70.5546 103.45 70.5546 103.276 70.5546C102.639 70.4388 102.003 71.1336 102.234 71.5967Z"
            fill="var(--svg-fill-teal-decor)" />
        <path
            d="M100.439 70.4971C100.729 70.4971 101.018 70.2655 101.018 69.9181C101.018 69.5707 100.844 69.3391 100.497 69.2812C100.15 69.2233 99.8022 69.5128 99.8022 69.8602C99.8601 70.1497 100.15 70.4971 100.439 70.4971Z"
            fill="var(--svg-fill-teal-decor)" />
        <path
            d="M96.2129 54.6896C96.3287 54.8054 96.6182 54.8633 96.7919 54.8054C97.1393 54.6896 97.2551 54.3422 97.1393 54.0527C97.0235 53.5895 96.4445 53.5895 96.2129 53.6474C95.9813 53.7053 95.8655 54.3422 96.2129 54.6896Z"
            fill="var(--svg-fill-teal-decor)" />
        <path
            d="M96.7915 82.0183C97.2547 82.0762 97.5442 81.8446 97.4863 81.6131C97.4284 81.3815 97.2547 81.1499 97.0231 81.0341C96.7915 80.9183 96.4441 81.2657 96.502 81.5551C96.502 81.7288 96.7336 81.9025 96.7915 82.0183Z"
            fill="var(--svg-fill-teal-decor)" />
        <path
            d="M88.7432 80.9185C88.7432 81.0343 88.9169 81.208 89.0327 81.208C89.1485 81.208 89.438 81.1501 89.438 80.8606C89.438 80.5711 89.1485 80.5711 89.0327 80.5711C88.9169 80.629 88.7432 80.8027 88.7432 80.9185Z"
            fill="var(--svg-fill-teal-decor)" />
        <path
            d="M95.1705 68.4122C95.4021 68.6438 95.6916 68.6438 96.039 68.4122C96.3285 68.1806 96.4443 67.949 96.2706 67.6016C96.1548 67.37 95.9232 67.2543 95.6916 67.1964C95.9811 67.0806 96.1548 66.849 96.1548 66.6174C96.1548 66.2121 95.8074 65.7489 95.4021 65.5752C95.5179 65.6331 95.6916 65.5752 95.8074 65.5173C96.0969 65.4015 96.2706 64.9383 96.039 64.533C95.8653 64.4751 95.5758 64.3593 95.3442 64.4172C94.9968 64.4751 94.881 64.9383 94.9968 65.2857C95.0547 65.4015 95.1705 65.5173 95.2863 65.5173C95.1705 65.4594 95.1126 65.4594 94.9968 65.4594C94.6494 65.4594 94.2441 65.9226 94.2441 66.3279C94.2441 66.9069 94.5336 67.3121 95.1126 67.37C94.9389 67.5437 94.881 68.0648 95.1705 68.4122Z"
            fill="var(--svg-fill-teal-decor)" />
        <path
            d="M105.187 79.355C105.187 79.7603 105.303 80.1656 105.534 80.4551L105.534 78.7181C105.303 78.8339 105.187 79.0655 105.187 79.355Z"
            fill="var(--svg-fill-teal-decor)" />
        <path
            d="M94.5915 69.0492C94.302 69.0492 94.0125 69.2808 94.0704 69.5703C94.1283 69.744 94.2441 70.2072 94.5915 70.1493C94.9389 70.0914 95.0547 69.6861 95.1126 69.4545C95.1126 69.165 94.8231 69.0492 94.5915 69.0492Z"
            fill="var(--svg-fill-teal-decor)" />
        <path
            d="M103.913 75.2442C103.45 75.2442 102.929 75.5916 102.871 75.939C102.813 76.4022 103.334 77.0391 103.797 77.0391C104.087 77.0391 104.492 76.6338 104.492 76.1706C104.608 75.7074 104.318 75.3021 103.913 75.2442Z"
            fill="var(--svg-fill-teal-decor)" />
        <path
            d="M83.4746 70.1484C83.8798 70.0905 84.2851 70.2063 84.4009 69.7431C84.4588 69.4536 84.343 69.1641 84.0535 68.9904C83.8219 68.8746 83.5904 68.8746 83.4167 69.1062C83.0693 69.3957 83.243 69.7431 83.4746 70.1484Z"
            fill="var(--svg-fill-teal-decor)" />
        <path
            d="M86.8328 68.991C86.6012 69.0489 86.6012 69.3384 86.6591 69.3963C86.717 69.5121 86.8907 69.57 87.0065 69.6279C87.0644 69.6279 87.2381 69.3963 87.1802 69.3384C87.1223 69.2226 87.0065 68.9331 86.8328 68.991Z"
            fill="var(--svg-fill-teal-decor)" />
        <path
            d="M91.7544 75.4763C91.7544 75.5341 91.8123 75.5921 91.8123 75.65C92.0439 75.9395 92.1597 75.9395 92.4492 75.9395C92.7387 75.9395 92.9124 75.8236 92.9703 75.7657C92.8545 75.4763 92.9124 74.9552 92.565 74.8973C92.2176 74.7815 91.986 75.3026 91.7544 75.4763Z"
            fill="var(--svg-fill-teal-decor)" />
        <path
            d="M91.6961 68.8175C91.6382 68.8175 91.5803 68.8175 91.5224 68.8175C91.2329 68.9333 91.0013 69.3386 91.0592 69.6281C91.1171 69.9175 91.5224 70.0912 91.8119 69.9754C91.9856 69.9175 92.1593 69.7439 92.2172 69.5123C92.333 69.5702 92.4488 69.5702 92.5646 69.5702C92.6225 69.4544 92.8541 69.3386 92.912 69.1649C93.0278 68.7596 92.6804 68.2964 92.3909 68.2385C92.1593 68.2385 91.8119 68.528 91.6961 68.8175Z"
            fill="var(--svg-fill-teal-decor)" />
        <path
            d="M92.9125 74.7811C92.9704 75.0706 93.3757 75.3021 93.6072 75.1863C93.8967 75.0126 94.0704 74.7811 94.0125 74.4337C93.9547 74.1442 93.6072 73.9705 93.3178 74.0284C93.0283 74.0863 92.8546 74.4337 92.9125 74.7811Z"
            fill="var(--svg-fill-teal-decor)" />
        <path
            d="M93.6651 71.134C93.723 71.3077 93.8967 71.4235 93.9546 71.4814C94.4178 71.4814 94.6494 71.192 94.5915 70.9604C94.5336 70.7867 94.3599 70.5551 94.1862 70.5551C93.9546 70.4972 93.6072 70.8446 93.6651 71.134Z"
            fill="var(--svg-fill-teal-decor)" />
        <path
            d="M96.3864 70.7861L96.3864 70.844C96.039 71.1335 95.8074 71.5967 95.9232 71.8862C96.0969 72.2336 96.6759 72.4073 97.0812 72.2336C97.3128 72.1178 97.4865 71.8862 97.5444 71.6546C97.8339 71.4809 98.1234 71.1335 98.1234 70.844C98.1234 70.5545 97.8339 70.1492 97.5444 70.1492C96.9075 70.0335 96.3864 70.3229 96.3864 70.7861Z"
            fill="var(--svg-fill-teal-decor)" />
        <path
            d="M90.1909 62.1008C90.8278 61.8692 91.2331 61.2902 91.0594 60.7691C90.8857 60.1901 89.9593 59.669 89.4382 59.9006C88.9171 60.1322 88.5697 60.827 88.7434 61.3481C89.0329 61.8692 89.6698 62.2745 90.1909 62.1008Z"
            fill="var(--svg-fill-teal-decor)" />
        <path
            d="M97.8917 60.48C97.9496 60.0747 97.4864 59.7273 96.9074 59.7273C96.56 59.7273 96.3863 59.901 96.3863 60.2484C96.3284 60.7116 96.6758 61.1748 96.9653 61.1748C97.3706 61.1169 97.8338 60.7695 97.8917 60.48Z"
            fill="var(--svg-fill-teal-decor)" />
        <path
            d="M77.2792 64.9384C77.3371 65.1121 77.6266 65.0542 77.7424 65.0542C77.8003 65.0542 77.9161 64.8226 77.9161 64.7068C77.9161 64.591 77.6266 64.5331 77.5108 64.591C77.4529 64.591 77.2213 64.7647 77.2792 64.9384Z"
            fill="var(--svg-fill-teal-decor)" />
        <path
            d="M96.7915 61.6961C96.7915 62.1593 97.2547 62.5067 97.5442 62.4488C97.8337 62.3909 98.1811 61.9277 98.0074 61.4066C97.8916 61.1171 97.66 61.0013 97.3126 61.0592C97.0231 61.1171 96.7915 61.3487 96.7915 61.6961Z"
            fill="var(--svg-fill-teal-decor)" />
        <path
            d="M84.8646 64.2436C85.0962 64.7647 85.5593 64.9963 86.0804 64.7647C86.6015 64.5331 86.7752 63.9541 86.5436 63.433C86.3699 63.0277 85.733 62.7961 85.2698 63.0277C84.7488 63.2014 84.5751 63.6646 84.8646 64.2436Z"
            fill="var(--svg-fill-teal-decor)" />
        <path
            d="M92.9122 62.6228C93.0859 63.0281 93.7228 63.3176 94.186 63.2018C94.5334 63.086 94.7071 62.507 94.5334 62.0438C94.3018 61.4648 94.0123 61.2911 93.5491 61.4069C93.0859 61.5806 92.7385 62.2175 92.9122 62.6228Z"
            fill="var(--svg-fill-teal-decor)" />
        <path
            d="M93.4335 76.1709C93.4914 76.1709 93.6651 76.113 93.6651 76.0551C93.6651 75.9972 93.5493 75.9393 93.5493 75.8814C93.4914 75.9393 93.3756 75.9972 93.3756 76.0551C93.3177 76.0551 93.4335 76.1709 93.4335 76.1709Z"
            fill="var(--svg-fill-teal-decor)" />
        <path
            d="M97.2547 90.9344C97.1968 91.5713 97.8337 92.3818 98.3547 92.3818C98.8758 92.3818 99.339 91.9186 99.3969 91.3976C99.4548 90.7028 98.9337 90.1238 98.2968 90.1238C97.66 90.1238 97.2547 90.4133 97.2547 90.9344Z"
            fill="var(--svg-fill-teal-decor)" />
        <path
            d="M104.724 91.1658C104.666 91.05 104.492 90.8763 104.434 90.8763C104.318 90.8763 104.203 91.2237 104.203 91.3395C104.203 91.3974 104.376 91.5711 104.434 91.5711C104.492 91.5132 104.608 91.4553 104.666 91.3974L104.666 91.4553C104.608 91.8606 104.955 92.1501 105.534 92.208L105.534 90.5868C105.187 90.5289 104.84 90.7605 104.724 91.1658Z"
            fill="var(--svg-fill-teal-decor)" />
        <path
            d="M102.755 91.861C103.103 91.9189 103.392 91.7452 103.45 91.4557C103.508 91.282 103.45 90.9925 103.334 90.8767C103.103 90.5872 102.813 90.6451 102.234 90.9925C102.292 91.3399 102.234 91.7452 102.755 91.861Z"
            fill="var(--svg-fill-teal-decor)" />
        <path
            d="M69.8685 50.6948C70.158 50.6369 70.3896 50.3474 70.4475 50.0579L69 50.0579C69.0579 50.4053 69.5211 50.7527 69.8685 50.6948Z"
            fill="var(--svg-fill-teal-decor)" />
        <path
            d="M98.9336 60.3072C99.1073 60.7704 99.281 61.1757 100.034 61.1178C99.8021 61.3494 99.6863 61.523 99.5705 61.6388C99.2231 61.8125 99.1652 62.0441 99.2231 62.3915C99.3389 62.7389 99.5126 63.0863 99.9179 63.1442C100.902 63.26 101.307 63.2021 101.597 62.681C101.713 62.681 101.829 62.6231 102.002 62.5073C102.06 62.681 102.234 62.7389 102.465 62.681C102.813 62.5652 102.987 62.3336 102.871 62.0441C102.813 61.9283 102.639 61.6967 102.408 61.5809C102.697 61.4072 102.813 61.1757 102.697 60.8862C102.581 60.4809 102.06 60.3072 101.655 60.6546C101.308 60.9441 101.076 60.7704 100.671 60.6546C100.844 59.7861 100.555 59.3229 99.9179 59.3229C99.9179 59.1492 99.9758 58.9755 99.9758 58.8018C99.9758 58.5123 99.8021 58.3965 99.5126 58.3965C99.4547 58.4544 99.3389 58.5123 99.281 58.6281C99.2231 58.9755 99.0494 59.1492 98.8178 59.3808C98.7599 59.4387 98.7599 59.6124 98.8178 59.7282C98.8178 59.844 98.8178 60.0177 98.9336 60.3072Z"
            fill="var(--svg-fill-teal-decor)" />
        <path
            d="M97.8916 77.2132C97.4863 77.7343 97.4863 78.4291 98.0653 78.7765C98.7601 79.1818 99.3391 78.9502 99.6865 78.3712C100.15 77.6185 99.2812 77.2132 99.8023 76.8658C100.323 76.5184 100.381 77.0974 101.076 76.5185C101.713 75.9395 101.655 75.071 101.076 74.8973C100.497 74.7236 100.15 75.1289 100.034 75.071C99.9181 75.0131 99.5128 74.492 99.1075 74.8394C98.3548 75.5341 99.1075 76.0552 98.9917 76.2868C98.7022 76.6342 98.1232 76.8658 97.8916 77.2132Z"
            fill="var(--svg-fill-teal-decor)" />
        <path
            d="M95.8074 77.0395C96.1548 77.0974 96.618 76.5763 96.6759 76.0552C96.7338 75.592 96.4443 75.1868 96.039 75.1868C95.518 75.1289 94.939 75.592 94.939 75.9973C94.939 76.5184 95.3443 76.9816 95.8074 77.0395Z"
            fill="var(--svg-fill-teal-decor)" />
        <path
            d="M92.1017 82.4814C92.0438 82.9446 92.1596 83.2342 92.7386 83.1763C93.3176 83.1184 93.3176 82.2498 93.086 82.0761C92.8544 81.9024 92.1596 82.192 92.1017 82.4814Z"
            fill="var(--svg-fill-teal-decor)" />
        <path
            d="M99.0495 83.4657C98.6442 84.1026 98.8758 84.7395 99.5706 84.7974C99.9759 84.8553 100.439 84.8553 100.902 84.7974C101.365 84.7395 101.771 84.1026 101.771 83.6394C101.771 83.3499 101.655 83.1184 101.365 83.0605C100.671 82.9447 99.9759 82.9446 99.2811 83.2341C99.1653 83.292 99.0495 83.4657 99.0495 83.4657Z"
            fill="var(--svg-fill-teal-decor)" />
        <path
            d="M105.534 83.0033C105.129 83.0033 104.608 83.2928 104.608 83.6402C104.608 84.1034 105.071 84.6823 105.476 84.7402L105.534 84.7402L105.534 83.0033Z"
            fill="var(--svg-fill-teal-decor)" />
        <path
            d="M97.7178 84.7974C97.7757 84.8553 98.1231 84.9132 98.2389 84.7974C98.3547 84.6816 98.181 84.3921 98.0652 84.3342C97.9494 84.2763 97.7178 84.2763 97.6599 84.3342C97.5441 84.45 97.6599 84.6816 97.7178 84.7974Z"
            fill="var(--svg-fill-teal-decor)" />
        <path
            d="M97.0812 65.6912C97.197 66.0386 97.6023 66.1544 97.8918 66.0386C98.2392 65.8649 98.355 65.4596 98.2392 65.1701C98.0655 64.8806 97.6602 64.7069 97.4286 64.8806C97.1391 64.9385 96.9654 65.4017 97.0812 65.6912Z"
            fill="var(--svg-fill-teal-decor)" />
        <path
            d="M72.7052 50.5209C72.821 50.463 72.9368 50.1735 72.9368 50.0577L72.1841 50.0577L72.1841 50.1156C72.242 50.2314 72.5315 50.5788 72.7052 50.5209Z"
            fill="var(--svg-fill-teal-decor)" />
        <path
            d="M104.029 74.6079C104.203 74.4921 104.377 74.2026 104.319 74.0289C104.261 73.8552 103.972 73.7394 103.798 73.6236C103.335 73.7973 103.335 74.0289 103.393 74.2605C103.566 74.4921 103.798 74.7237 104.029 74.6079Z"
            fill="var(--svg-fill-teal-decor)" />
        <path
            d="M97.9493 58.2219C97.9493 58.1061 98.0072 58.0482 98.0072 57.9903L98.0651 57.9324C98.123 57.8166 98.2388 57.7587 98.4125 57.7008C98.7599 57.5271 98.8757 57.006 98.6441 56.6586C98.4125 56.3112 98.1809 56.3691 97.8914 56.4849C97.6598 56.6007 97.4282 56.7744 97.2545 56.7744C96.7334 56.7744 96.2123 56.7165 95.6333 56.6586C95.228 55.4427 94.8228 55.2111 93.8964 55.848C93.3753 56.1954 93.2595 56.8902 93.7806 57.2955C94.128 57.585 94.5912 57.7587 95.1702 58.0482C95.2281 58.6271 95.3439 59.264 95.9807 59.4956C96.7913 59.7851 97.7756 59.2061 97.9493 58.2219Z"
            fill="var(--svg-fill-teal-decor)" />
        <path
            d="M82.4904 50.1741C82.6062 50.1163 82.6641 50.1162 82.722 50.0584L81.4482 50.0584C81.7956 50.232 82.143 50.2899 82.4904 50.1741Z"
            fill="var(--svg-fill-teal-decor)" />
        <path
            d="M86.0805 53.0684C86.4858 53.0105 86.8911 53.1263 87.0069 52.6631C87.0648 52.3736 86.949 52.0841 86.6595 51.9104C86.4279 51.7946 86.1963 51.7946 86.0226 52.0262C85.6752 52.3736 85.8489 52.6631 86.0805 53.0684Z"
            fill="var(--svg-fill-teal-decor)" />
        <path
            d="M88.6277 52.1422C89.1488 51.9106 89.3225 51.5053 89.5541 51.0421C89.7278 50.6947 89.3804 50.3473 89.8436 50.2315C90.0173 50.1736 90.191 50.1157 90.3647 50.0578L88.1066 50.0578C87.9908 50.4631 87.5277 50.6947 87.5856 51.2158C87.6435 51.8527 88.1066 52.3738 88.6277 52.1422Z"
            fill="var(--svg-fill-teal-decor)" />
        <path
            d="M100.786 74.2025C100.844 74.3183 101.076 74.4341 101.192 74.3762C101.307 74.3762 101.597 74.0867 101.539 73.9709C101.481 73.8551 101.192 73.7972 101.134 73.8551C100.96 73.913 100.729 74.0288 100.786 74.2025Z"
            fill="var(--svg-fill-teal-decor)" />
        <path
            d="M104.376 63.1435C104.492 63.6646 104.666 63.9541 104.955 63.9541C105.129 63.9541 105.419 63.6646 105.534 63.3751L105.534 62.9698C105.361 62.7382 105.013 62.5645 104.782 62.5645C104.492 62.5645 104.318 62.854 104.376 63.1435Z"
            fill="var(--svg-fill-teal-decor)" />
        <path
            d="M78.6111 53.0682C78.5532 53.2419 78.7848 53.5892 78.9585 53.8208C79.0164 53.8787 79.0743 54.0524 79.3059 53.9366C79.5375 53.8208 79.7691 53.2997 79.5375 53.0103C79.3638 52.7208 78.7848 52.7208 78.6111 53.0682Z"
            fill="var(--svg-fill-teal-decor)" />
        <path
            d="M101.481 58.1057C101.481 58.6268 101.829 58.8584 102.466 58.8584C102.813 58.8584 103.218 58.4531 103.218 58.1636C103.218 57.7583 102.639 57.0056 102.292 57.0056C101.887 57.0635 101.481 57.5846 101.481 58.1057Z"
            fill="var(--svg-fill-teal-decor)" />
        <path
            d="M104.492 58.8587C104.782 58.685 105.013 58.2218 104.897 57.9323C104.782 57.7007 104.145 57.4691 103.855 57.5849C103.624 57.7007 103.508 58.2218 103.624 58.4534C103.739 58.8587 104.203 59.0324 104.492 58.8587Z"
            fill="var(--svg-fill-teal-decor)" />
        <path
            d="M99.3389 72.5229C99.3968 72.8703 99.6284 73.044 99.9179 73.1019C100.381 73.1598 100.902 72.8703 100.96 72.5808C101.076 71.944 100.439 71.5966 100.092 71.4808C99.8021 71.3071 99.281 72.0019 99.3389 72.5229Z"
            fill="var(--svg-fill-teal-decor)" />
        <path
            d="M95.228 73.392C95.228 73.7394 95.5175 73.8552 95.7491 73.7973C95.9228 73.7973 96.4439 73.6236 96.4439 73.392C96.4439 73.1604 95.9228 72.8709 95.7491 72.8709C95.4596 72.813 95.228 73.1025 95.228 73.392Z"
            fill="var(--svg-fill-teal-decor)" />
        <path
            d="M75.6007 50.9267C75.7165 51.2162 76.006 51.2741 76.2955 51.2162C76.527 51.1583 76.6428 50.9267 76.5849 50.6372C76.527 50.3477 76.2376 50.1739 76.006 50.2318C75.6586 50.3476 75.4849 50.6951 75.6007 50.9267Z"
            fill="var(--svg-fill-teal-decor)" />
        <path
            d="M75.6582 56.3693C75.6582 56.6588 75.9477 56.7745 76.2951 56.6588C76.6425 56.543 76.6425 56.3114 76.5267 56.0798C76.4109 55.9061 76.0635 55.5008 75.8898 55.6166C75.774 55.6745 75.6582 56.1956 75.6582 56.3693Z"
            fill="var(--svg-fill-teal-decor)" />
        <path
            d="M81.2163 57.7007C81.2742 57.9323 81.5058 58.0481 81.7953 57.8744C82.0269 57.7586 82.2006 57.527 82.0848 57.2954C81.969 57.1217 81.5637 56.7164 81.3321 56.7743C81.1005 56.8901 81.1584 57.527 81.2163 57.7007Z"
            fill="var(--svg-fill-teal-decor)" />
        <path
            d="M83.4169 56.9476C83.5327 57.3528 83.938 57.5266 84.2854 57.3529C84.5749 57.2371 84.7486 56.8318 84.6328 56.5423C84.517 56.2528 84.0538 56.0212 83.7064 56.1949C83.4169 56.3107 83.3011 56.6581 83.4169 56.9476Z"
            fill="var(--svg-fill-teal-decor)" />
        <path
            d="M89.4964 59.0327C89.8438 59.0906 90.1333 58.9748 90.2491 58.6274C90.307 58.5116 90.307 58.3379 90.2491 58.2221C90.0754 57.9905 89.7859 57.7589 89.5543 57.5273C89.6122 56.7746 89.3227 56.1956 88.8595 56.1377C88.3963 56.0798 87.7594 56.6588 87.7015 57.1799C87.6436 57.701 87.8752 57.8747 88.9753 58.0484C89.0332 58.5116 88.9753 58.9748 89.4964 59.0327Z"
            fill="var(--svg-fill-teal-decor)" />
        <path
            d="M93.2016 58.9741C93.3753 58.9162 93.549 58.6846 93.549 58.5109C93.6069 58.3951 93.4332 58.1056 93.3174 58.0477C92.97 57.874 92.6805 58.0477 92.5068 58.3951C92.6226 58.6846 92.7384 59.032 93.2016 58.9741Z"
            fill="var(--svg-fill-teal-decor)" />
        <path
            d="M83.7647 59.2641C83.7647 59.322 83.8805 59.3799 83.9384 59.3799C83.9963 59.322 84.1121 59.2641 84.0542 59.1483C83.9963 59.0325 83.8805 59.0325 83.8226 59.0904C83.7647 59.0904 83.7068 59.2062 83.7647 59.2641Z"
            fill="var(--svg-fill-teal-decor)" />
        <path
            d="M90.886 56.4265C91.0018 56.8318 91.5807 57.1213 92.0439 57.0055C92.3913 56.8897 92.6808 56.3686 92.565 55.9054C92.5071 55.6159 92.0439 55.3265 91.6965 55.3844C91.1176 55.558 90.7702 56.0212 90.886 56.4265Z"
            fill="var(--svg-fill-teal-decor)" />
        <path
            d="M85.2698 53.8797C85.2119 53.7639 84.8066 53.4744 84.6329 53.5323C84.4592 53.5902 84.4013 54.1113 84.4592 54.2271C84.6329 54.3429 84.9803 54.5745 85.0961 54.4587C85.2119 54.3429 85.3277 53.9955 85.2698 53.8797Z"
            fill="var(--svg-fill-teal-decor)" />
        <path
            d="M82.0274 54.3427C82.2011 54.6901 83.0117 55.1533 83.3012 55.0375C83.6486 54.8638 83.8223 54.2269 83.5907 53.7058C83.417 53.2427 82.9538 53.1269 82.4327 53.4164C82.0853 53.5322 81.9116 54.0532 82.0274 54.3427Z"
            fill="var(--svg-fill-teal-decor)" />
        <path
            d="M92.1597 57.2953C92.1597 57.5269 92.565 57.9322 92.9124 57.8743C93.2598 57.8164 93.4914 57.2953 93.2598 57.0058C93.144 56.89 92.7387 56.9479 92.4492 57.0058C92.3334 57.0058 92.1597 57.0058 92.1597 57.2953Z"
            fill="var(--svg-fill-teal-decor)" />
        <path
            d="M92.6809 55.4428C93.202 55.7902 93.6652 55.7323 93.9547 55.327C94.3021 54.8638 94.2442 54.3427 93.781 53.9374C93.3178 53.5321 92.8546 53.1268 92.4493 52.6057C92.1598 52.2004 91.523 51.9688 91.2335 52.1425C90.944 52.3741 91.0598 52.9531 91.2335 53.011C91.5809 53.3005 91.4072 53.59 91.4072 53.8795C91.4072 54.169 91.5809 54.4585 91.7545 54.6901C91.8703 54.8638 92.044 54.9796 92.1598 55.0954C92.3335 55.2112 92.5072 55.327 92.6809 55.4428Z"
            fill="var(--svg-fill-teal-decor)" />
        <path
            d="M88.4542 54.5745C88.6858 54.4587 88.9753 53.706 88.8595 53.4165C88.7437 53.0691 88.3963 53.0112 87.9331 53.1849C87.5857 53.3007 87.412 53.4744 87.3541 53.706C87.2962 53.5902 87.1225 53.4744 87.0067 53.5323C86.833 53.5902 86.833 53.8218 86.833 53.9376C86.833 54.0534 87.0646 54.285 87.2383 54.285C87.2962 54.285 87.3541 54.1692 87.3541 54.0534C87.3541 54.0534 87.3541 54.0534 87.3541 54.1113C87.5857 54.5166 88.0489 54.7482 88.4542 54.5745Z"
            fill="var(--svg-fill-teal-decor)" />
    </g>
    <path
        d="M72.38 78.44V66.74H72.14L69.84 72H68.18V71.88L70.8 66H74.06V78.44H78.02V80H68.42V78.44H72.38Z"
        fill="var(--svg-fill-teal-text)" />
    <defs>
        <clipPath id="clip0_1377_21533">
            <rect width="45" height="37" fill="var(--svg-fill-background)" transform="translate(69 95) rotate(-90)" />
        </clipPath>
    </defs>
</svg>