<svg width="300" height="200" viewBox="0 0 300 200" fill="none" xmlns="http://www.w3.org/2000/svg">
    <rect width="300" height="200" fill="var(--svg-fill-background)" />
    <rect x="40" y="30" width="220" height="140" rx="1" fill="var(--svg-fill-accent-background)" />
    <path
        d="M229.485 42.5967C230.241 42.4287 230.073 41.5049 229.737 41.253C229.485 41.085 228.897 41.169 228.645 41.5049C228.393 41.8409 228.645 42.1768 229.485 42.5967Z"
        fill="var(--svg-fill-accent-decor)" />
    <path
        d="M221.759 41.2535C221.591 41.4214 221.675 41.8413 221.843 42.0093C221.927 42.0932 222.01 42.0932 222.094 42.0932C221.926 42.1772 221.759 42.2612 221.759 42.3452C221.507 42.7651 221.759 43.5209 222.514 43.4369C223.27 43.2689 223.102 42.3452 222.766 42.0932C222.682 42.0093 222.514 42.0093 222.43 42.0093C222.514 41.9253 222.598 41.5894 222.514 41.4214C222.43 41.2535 222.01 41.0015 221.759 41.2535Z"
        fill="var(--svg-fill-accent-decor)" />
    <path
        d="M238.051 49.5669C238.219 49.5669 238.387 49.231 238.387 49.063C238.471 49.147 238.639 49.147 238.723 49.063C239.142 48.9791 239.226 48.8111 239.394 48.6431C239.562 48.4752 239.73 48.3072 239.814 47.8873C239.898 47.4674 239.73 46.7116 239.226 46.2917C238.723 45.9558 238.219 45.8718 237.715 46.0398C237.211 46.2077 237.043 46.7116 237.043 47.0475C237.043 47.3834 237.127 48.0553 237.547 48.3072C237.631 48.3912 237.715 48.3912 237.799 48.4752C237.715 48.5591 237.631 48.8111 237.631 48.8951C237.547 49.231 237.799 49.5669 238.051 49.5669Z"
        fill="var(--svg-fill-accent-decor)" />
    <path
        d="M214.201 43.437C214.537 43.7729 215.544 43.269 215.796 43.0171C215.964 42.8491 216.132 42.1773 215.88 41.8414C215.544 41.5054 214.872 41.7574 214.537 42.0093C214.201 42.0933 213.865 43.1011 214.201 43.437Z"
        fill="var(--svg-fill-accent-decor)" />
    <path
        d="M197.74 30.5877C197.656 30.5037 197.488 30.4197 197.321 30.5877C197.237 30.7557 197.321 30.9236 197.321 30.9236C197.405 31.0076 197.572 30.9236 197.656 30.9236C197.74 30.8396 197.824 30.6717 197.74 30.5877Z"
        fill="var(--svg-fill-accent-decor)" />
    <path
        d="M233.264 44.4442C233.264 45.1161 233.516 45.452 234.188 45.5359C234.86 45.6199 235.616 45.0321 235.7 44.2763C235.784 43.5204 235.364 43.3525 235.448 42.8486C235.532 42.5967 235.448 42.4287 235.28 42.2608C235.616 42.0928 235.867 41.7569 235.784 41.5049C235.7 41.085 234.86 40.5812 234.44 40.8331C234.104 41.085 233.852 41.337 233.936 41.6729C233.684 41.6729 233.348 41.7569 233.264 42.0928C233.012 42.7646 233.432 43.0166 233.6 43.1005C233.852 43.1845 234.02 43.6044 233.768 43.6044C233.432 43.6044 233.264 43.8564 233.264 44.4442Z"
        fill="var(--svg-fill-accent-decor)" />
    <path
        d="M212.185 32.2673C212.773 32.8551 213.445 32.8551 214.033 32.3512C214.537 31.8473 214.621 31.0915 214.285 30.7556C213.781 30.2517 212.605 30.2517 212.101 30.7556C211.597 31.0915 211.681 31.8474 212.185 32.2673Z"
        fill="var(--svg-fill-accent-decor)" />
    <path
        d="M210.338 38.3975C210.002 38.0616 209.498 38.0616 209.162 38.3135C208.742 38.6495 208.658 39.3213 209.078 39.7412C209.414 40.0771 210.086 40.0771 210.422 39.7412C210.59 39.4053 210.59 38.7334 210.338 38.3975Z"
        fill="var(--svg-fill-accent-decor)" />
    <path
        d="M226.041 40.4969C226.797 40.245 227.217 39.6571 227.385 38.9013C227.469 38.6494 227.385 38.3135 227.217 38.1455C226.629 37.3897 225.789 37.2217 224.866 37.7256C224.698 37.8096 224.53 37.8936 224.362 38.0615C224.194 37.7256 224.026 37.3897 223.774 37.1378C223.354 36.5499 223.018 36.4659 222.43 36.8018C221.842 37.0538 221.59 37.5577 221.674 38.1455C221.674 38.7334 222.178 39.0693 222.682 39.2372C223.018 39.3212 223.438 39.3212 223.858 39.3212C223.942 39.4892 224.026 39.6571 224.194 39.8251C224.614 40.4129 225.454 40.7488 226.041 40.4969Z"
        fill="var(--svg-fill-accent-decor)" />
    <path
        d="M242.585 63.1715C243.005 63.6754 243.677 63.7594 244.097 63.4234C244.433 63.0875 244.433 62.4997 244.097 62.1638C244.349 62.0798 244.601 61.9118 244.769 61.5759C245.021 61.24 245.273 60.9041 245.776 60.8201C246.448 60.6521 246.784 59.9803 246.952 59.4764C247.204 58.9725 246.868 58.1327 246.364 57.7968C246.28 57.7968 246.28 57.7128 246.196 57.7128C246.616 57.7128 247.036 57.6289 247.288 57.3769C247.708 56.957 247.624 56.2852 247.12 55.6973C246.7 55.1935 245.86 55.0255 245.524 55.3614C245.357 55.5294 245.189 55.7813 245.105 56.0333L245.021 56.0333C244.601 56.1172 244.013 56.873 244.181 57.209C244.265 57.4609 244.433 57.6289 244.685 57.7968C244.013 58.1327 243.761 58.7206 243.509 59.3924L243.425 59.4764C243.425 59.3924 243.425 59.3084 243.425 59.2245C243.341 58.8046 243.089 58.4687 242.669 58.5526C242.249 58.6366 241.913 59.0565 241.997 59.4764C242.081 59.9803 242.501 60.0643 242.921 59.9803L243.005 59.9803C242.249 60.4842 242.165 61.156 242.753 61.9118C242.669 61.9118 242.501 61.9958 242.417 62.0798C242.165 62.0798 242.249 62.7516 242.585 63.1715Z"
        fill="var(--svg-fill-accent-decor)" />
    <path
        d="M235.699 71.3179C235.951 71.4859 236.287 71.4858 236.539 71.5698C236.959 71.1499 236.959 70.5621 236.623 70.2262C236.287 69.8902 236.035 70.0582 235.783 70.3101C235.447 70.5621 235.363 71.066 235.699 71.3179Z"
        fill="var(--svg-fill-accent-decor)" />
    <path
        d="M235.111 61.324C235.363 61.7439 235.867 61.9119 236.287 61.66C236.539 61.576 236.707 61.24 236.791 60.9881C236.875 60.4842 236.539 60.2323 235.531 59.9804C235.195 60.3163 234.691 60.7362 235.111 61.324Z"
        fill="var(--svg-fill-accent-decor)" />
    <path
        d="M240.654 58.5533C240.318 58.1335 239.731 58.0495 239.395 58.3854C238.975 58.7213 238.891 59.3931 239.143 59.813C239.479 60.1489 240.066 60.2329 240.402 59.897C240.822 59.4771 240.906 58.8893 240.654 58.5533Z"
        fill="var(--svg-fill-accent-decor)" />
    <path
        d="M233.6 68.3789C233.516 68.2109 233.096 67.959 232.928 68.1269C232.76 68.2949 232.844 68.7148 232.928 68.8827C233.012 68.9667 233.348 69.1347 233.516 68.9667C233.684 68.7987 233.684 68.5468 233.6 68.3789Z"
        fill="var(--svg-fill-accent-decor)" />
    <path
        d="M243.593 70.7297C243.929 71.1496 244.433 71.2336 244.853 70.8977C245.273 70.5618 245.357 69.89 245.021 69.554C244.685 69.2181 244.181 69.2181 243.761 69.554C243.341 69.806 243.341 70.3098 243.593 70.7297Z"
        fill="var(--svg-fill-accent-decor)" />
    <path
        d="M233.851 48.8955C234.103 49.3994 235.363 49.3154 235.447 48.9795C235.531 48.6436 234.775 47.6359 234.271 47.8038C234.019 47.9718 233.767 48.5596 233.851 48.8955Z"
        fill="var(--svg-fill-accent-decor)" />
    <path
        d="M226.209 56.7893C226.209 56.6214 226.041 56.2855 225.789 56.2015C225.621 56.1175 225.285 56.3694 225.201 56.5374C225.117 56.7054 225.201 57.2092 225.453 57.2932C225.705 57.3772 226.209 56.9573 226.209 56.7893Z"
        fill="var(--svg-fill-accent-decor)" />
    <path
        d="M259.633 88.0299C259.549 88.1139 259.465 88.1139 259.381 88.1979C258.878 88.7857 258.794 89.4576 259.298 89.8775C259.298 89.8775 259.298 89.9614 259.381 89.9614C259.465 90.0454 259.549 90.1294 259.633 90.2134L259.633 88.0299Z"
        fill="var(--svg-fill-accent-decor)" />
    <path
        d="M229.905 46.964C229.737 46.796 229.149 46.3761 228.813 46.796C228.393 47.1319 228.813 47.6358 228.981 47.8037C229.149 47.9717 229.569 47.9717 229.821 47.8877C230.157 47.7197 230.157 47.2159 229.905 46.964Z"
        fill="var(--svg-fill-accent-decor)" />
    <path
        d="M233.852 57.713C234.44 57.629 234.943 57.0412 234.776 56.5373C234.608 56.1174 233.18 55.9494 232.844 56.3693C232.928 55.8655 232.844 55.3616 232.424 54.9417C231.836 54.2699 231.08 54.1859 230.493 54.6897C229.737 55.2776 229.569 56.7053 230.073 57.2931C230.661 57.881 231.584 57.881 232.172 57.3771C232.424 57.2091 232.592 56.9572 232.676 56.7053C232.76 57.1251 233.432 57.797 233.852 57.713Z"
        fill="var(--svg-fill-accent-decor)" />
    <path
        d="M258.122 89.0374C257.954 88.9534 257.534 88.9534 257.282 89.1214C257.114 89.2893 256.778 89.7932 256.946 90.0452C257.114 90.2971 257.786 90.1291 258.038 90.0452C258.374 89.9612 258.458 89.2893 258.122 89.0374Z"
        fill="var(--svg-fill-accent-decor)" />
    <path
        d="M231.752 34.4508C231.332 34.1988 230.828 34.2828 230.576 34.7027C230.408 34.9547 230.324 35.4585 230.492 35.6265C230.912 36.2144 231.416 36.0464 232.004 35.7944C232.256 35.2906 232.339 34.7027 231.752 34.4508Z"
        fill="var(--svg-fill-accent-decor)" />
    <path
        d="M241.242 40.4973C241.83 40.8332 242.585 40.7492 242.921 40.3293C243.341 39.7415 243.509 38.9857 243.005 38.4818C242.837 38.2299 242.417 38.0619 242.081 38.0619C241.83 38.0619 241.578 38.1459 241.326 38.2299C241.494 38.1459 241.746 37.4741 241.578 37.3061C241.41 37.1381 240.738 37.2221 240.654 37.3061C240.486 37.4741 240.318 37.9779 240.486 38.1459C240.57 38.3139 241.074 38.3138 241.242 38.2299C240.738 38.4818 240.402 38.9857 240.318 39.7415C240.57 39.9934 240.906 40.3294 241.242 40.4973Z"
        fill="var(--svg-fill-accent-decor)" />
    <path
        d="M229.905 39.0697C229.737 38.9857 229.485 38.9018 229.317 38.9858C229.233 39.0697 229.065 39.5736 229.149 39.6576C229.233 39.7416 229.737 39.6576 229.905 39.5736C229.905 39.4896 229.989 39.0697 229.905 39.0697Z"
        fill="var(--svg-fill-accent-decor)" />
    <path
        d="M225.622 37.2225C225.958 37.5584 226.461 37.5584 226.881 37.1385C227.301 36.7186 227.385 36.2148 227.049 35.9628C226.713 35.6269 225.79 35.6269 225.454 35.8788C225.202 36.2148 225.202 36.8866 225.622 37.2225Z"
        fill="var(--svg-fill-accent-decor)" />
    <path
        d="M232.676 36.2986C232.76 36.3826 233.096 36.6345 233.432 36.3826C233.683 36.1307 233.432 35.7948 233.348 35.7108C233.264 35.6268 232.844 35.6268 232.76 35.7108C232.592 35.8787 232.592 36.2146 232.676 36.2986Z"
        fill="var(--svg-fill-accent-decor)" />
    <path
        d="M236.035 38.146C236.287 37.8941 236.371 37.6421 236.371 37.3062C236.791 37.2222 237.211 37.0543 237.547 36.8023C237.967 36.5504 238.135 36.2145 238.303 35.7946C238.471 35.2907 238.303 34.7028 238.051 34.115C237.715 33.5271 237.883 32.8553 237.379 32.5194C236.623 32.0155 235.28 31.5116 234.104 32.4354C233.348 33.0233 233.096 33.6111 233.096 34.283C233.096 35.0388 234.104 35.2907 234.44 36.0465C234.608 36.3825 234.776 36.7184 235.028 36.8863C234.776 37.2222 234.776 37.6421 235.112 38.062C235.28 38.398 235.7 38.4819 236.035 38.146Z"
        fill="var(--svg-fill-accent-decor)" />
    <path
        d="M253.671 40.329C254.175 39.9931 254.259 39.5732 254.175 39.1533C254.427 38.8174 254.511 38.3975 254.427 38.0616C254.175 36.9699 253.251 36.382 252.327 36.634C251.572 36.8019 251.236 37.3058 251.236 37.9776C251.152 37.9776 251.068 37.9776 251.068 37.9776C250.396 38.1456 249.892 39.1533 250.06 39.9091C250.228 40.6649 251.236 41.3368 251.991 41.1688C252.495 41.0848 252.915 40.7489 253.167 40.329C253.251 40.413 253.503 40.413 253.671 40.329Z"
        fill="var(--svg-fill-accent-decor)" />
    <path
        d="M241.327 33.6948C241.327 33.7788 241.327 33.7788 241.327 33.8628C240.403 34.0308 239.899 34.7026 239.899 35.3744C239.899 36.1303 240.907 37.222 241.746 37.138C242.838 37.054 243.174 36.2982 243.258 35.6264C243.342 35.2905 243.174 34.7026 242.838 34.2827C242.922 34.1148 243.006 33.9468 242.838 33.7788C242.586 33.3589 241.83 33.6109 241.411 33.5269C241.411 33.5269 241.327 33.6109 241.327 33.6948Z"
        fill="var(--svg-fill-accent-decor)" />
    <path
        d="M240.15 69.3867C240.57 68.9668 240.57 68.379 240.234 68.043C239.899 67.7071 239.647 67.8751 239.395 68.127C239.059 68.379 238.975 68.8829 239.395 69.1348C239.563 69.3027 239.899 69.3867 240.15 69.3867Z"
        fill="var(--svg-fill-accent-decor)" />
    <path
        d="M258.374 55.278C257.618 55.5299 257.03 56.4537 257.198 57.2935C257.282 57.7974 258.122 58.2173 258.71 58.0493C259.214 57.9653 259.55 57.6294 259.718 57.2935L259.718 56.2018C259.382 55.5299 258.794 55.11 258.374 55.278Z"
        fill="var(--svg-fill-accent-decor)" />
    <path
        d="M239.982 41.841C239.73 41.841 239.562 42.009 239.646 42.2609C239.646 42.5128 239.814 42.6808 240.066 42.5968C240.318 42.5968 240.402 42.4288 240.402 42.1769C240.318 42.009 240.234 41.841 239.982 41.841Z"
        fill="var(--svg-fill-accent-decor)" />
    <path
        d="M247.288 63.0877C247.036 62.6678 246.281 62.4998 245.945 62.9197C245.777 63.1717 246.113 63.6755 246.281 64.0954C246.281 64.1794 246.449 64.4313 246.785 64.3474C247.12 64.2634 247.54 63.5076 247.288 63.0877Z"
        fill="var(--svg-fill-accent-decor)" />
    <path
        d="M251.236 75.6006C251.572 75.2647 251.656 74.6768 251.404 74.2569C251.152 73.921 250.732 73.837 250.396 74.0889C250.228 73.921 249.472 74.089 249.22 74.2569C248.884 74.4249 248.884 74.9287 249.22 75.2647C249.472 75.6006 249.724 75.5166 249.976 75.3486L249.976 75.4326C250.228 75.7686 250.9 75.8525 251.236 75.6006Z"
        fill="var(--svg-fill-accent-decor)" />
    <path
        d="M252.411 76.776C252.075 77.3639 252.411 78.6236 253.335 78.8755C253.923 79.0435 254.343 78.9595 254.678 78.7915C254.762 78.8755 254.762 78.9595 254.846 78.9595C255.434 79.7153 256.106 79.6313 256.862 79.2114C257.114 79.6313 257.198 80.3032 257.954 80.1352C258.374 80.0512 258.625 79.7153 258.625 79.2954C258.625 78.5396 258.038 78.5396 257.45 78.4556C257.45 78.1197 257.366 77.7838 257.366 77.5318C257.786 77.4479 258.206 77.4478 258.625 77.3639C258.793 77.028 258.961 76.776 258.961 76.4401C259.045 75.9362 258.542 75.0124 258.206 74.8445C257.702 74.6765 257.114 75.0124 256.778 75.6003C256.694 75.7683 256.526 76.0202 256.442 76.2721C255.854 76.2721 255.182 76.2721 254.762 76.6081C254.678 76.5241 254.594 76.4401 254.427 76.3561C254.007 75.9362 252.747 76.1882 252.411 76.776Z"
        fill="var(--svg-fill-accent-decor)" />
    <path
        d="M255.014 66.0266C254.93 66.2786 254.846 66.5305 254.93 66.6985C255.098 66.8664 255.77 66.7825 255.854 66.6145C256.022 66.4465 256.19 65.9427 256.022 65.7747C256.022 65.7747 255.938 65.7747 255.938 65.6907C256.022 65.6067 256.106 65.6067 256.19 65.5228C256.694 65.0189 256.862 64.4311 256.694 63.7592C256.778 63.8432 256.862 63.9272 257.03 63.8432C257.198 63.8432 257.282 63.5073 257.282 63.3393C257.282 63.2553 257.03 62.8354 256.778 62.9194C256.61 62.9194 256.526 63.2553 256.526 63.4233C256.442 63.2553 256.358 63.0874 256.19 62.9194C256.106 62.8354 256.106 62.8354 256.022 62.7515C256.526 62.8354 257.114 62.7515 257.45 62.4995C257.87 62.1636 257.87 61.4078 257.45 60.9039C256.946 60.3161 256.274 60.2321 255.518 60.8199C255.014 61.2398 254.846 61.9957 255.098 62.4155C255.182 62.4995 255.182 62.4995 255.266 62.5835C254.762 62.4995 254.175 62.6675 253.755 63.0034C253.587 63.1713 253.503 63.3393 253.419 63.5073C253.167 62.8354 252.327 62.0796 251.655 62.0796C250.983 61.9957 250.228 62.6675 250.06 63.5073C249.892 64.0951 249.892 64.515 249.22 64.767C248.716 64.9349 248.8 65.4388 248.968 65.9427C249.64 66.1946 250.06 65.9427 250.228 65.4388C250.899 65.5228 251.403 65.6067 251.907 65.6067C252.411 65.5228 252.915 65.0189 253.251 64.515C253.335 64.8509 253.503 65.1868 253.839 65.5228C254.343 65.7747 254.763 66.0266 255.014 66.0266Z"
        fill="var(--svg-fill-accent-decor)" />
    <path
        d="M247.876 53.7659C248.044 53.514 248.044 53.1781 247.96 52.8421C247.876 52.6742 247.54 52.5062 247.288 52.5062C246.785 52.5062 246.365 52.5902 245.861 52.6742C245.441 52.7582 245.357 53.0101 245.441 53.43C245.525 53.514 245.693 53.6819 245.777 53.6819C246.281 53.598 246.617 53.8499 246.953 54.0179C247.288 54.1858 247.708 53.9339 247.876 53.7659Z"
        fill="var(--svg-fill-accent-decor)" />
    <path
        d="M252.663 54.1858C252.747 54.1019 252.747 54.1019 252.831 54.0179C253.083 54.1859 253.419 54.2698 253.755 54.2698C254.511 54.1858 255.015 53.0941 254.847 52.0863C254.679 51.3305 254.091 50.9946 253.335 51.0786C252.999 51.1626 252.747 51.2466 252.495 51.4985C251.907 51.0786 251.152 51.0786 250.732 51.4145C249.976 52.0864 249.64 53.2621 250.144 53.9339C250.732 54.6057 252.075 54.6897 252.663 54.1858Z"
        fill="var(--svg-fill-accent-decor)" />
    <path
        d="M244.181 43.3526C244.433 44.4443 245.273 44.8642 246.197 44.6963C247.54 44.4443 247.037 43.1846 247.876 43.3526C248.716 43.5205 248.296 44.1924 249.304 44.3604C249.304 44.4443 249.304 44.6123 249.388 44.6963C249.556 45.1162 249.976 45.2001 250.396 45.0322C251.068 44.6963 251.403 44.2764 251.319 43.9405C251.319 43.8565 251.235 43.7725 251.152 43.6885C251.319 43.4366 251.403 43.1007 251.236 42.7647C250.816 42.0089 250.06 42.0089 250.06 41.841C250.06 41.673 250.144 40.6653 249.388 40.6653C247.96 40.4973 248.128 41.841 247.708 41.9249C247.372 42.0089 246.953 41.841 246.449 41.757C246.281 41.0851 245.861 40.7492 245.357 40.8332C244.853 40.9172 244.097 42.0089 244.181 42.5128C244.181 42.5968 244.265 42.7647 244.349 42.8487C244.181 42.9327 244.181 43.1846 244.181 43.3526Z"
        fill="var(--svg-fill-accent-decor)" />
    <path
        d="M236.791 52.2543C236.119 51.9184 235.615 52.7582 235.615 53.0941C235.615 53.43 237.127 53.8499 237.463 53.682C237.715 53.3461 237.463 52.5063 236.791 52.2543Z"
        fill="var(--svg-fill-accent-decor)" />
    <path
        d="M247.121 128.424C246.533 128.34 245.945 128.172 245.693 128.844C245.525 129.263 245.609 129.683 245.945 129.935C246.197 130.103 246.617 130.187 246.785 130.019C247.456 129.683 247.372 129.096 247.121 128.424Z"
        fill="var(--svg-fill-accent-decor)" />
    <path
        d="M259.465 29.9998C259.465 30.0838 259.549 30.0838 259.549 30.1677C259.381 30.0838 259.213 30.0838 259.129 29.9998L255.602 29.9998C256.022 30.4197 256.778 30.4197 256.862 30.6716C256.862 30.6716 256.862 30.7556 256.862 30.8396C256.526 30.9235 256.106 31.0915 255.77 31.3434C255.098 31.8473 255.014 32.7711 255.518 33.4429C255.938 34.0308 256.862 34.2827 257.618 34.1148C258.206 34.4507 258.961 34.5347 259.381 34.3667C259.465 34.3667 259.549 34.2827 259.633 34.2827L259.633 30.0838L259.465 30.0838L259.465 29.9998Z"
        fill="var(--svg-fill-accent-decor)" />
    <path
        d="M246.533 122.629C247.12 122.126 247.708 121.706 248.296 121.286C249.22 122.293 249.388 122.293 250.06 121.37C249.808 120.698 249.388 120.53 248.716 120.782C247.876 119.27 246.869 119.438 245.945 120.95C245.861 120.95 245.693 120.95 245.609 120.95C245.105 120.866 244.853 121.118 244.685 121.454C244.517 121.79 244.601 122.126 244.853 122.461C245.273 123.217 245.777 123.301 246.533 122.629Z"
        fill="var(--svg-fill-accent-decor)" />
    <path
        d="M259.465 111.04C258.877 110.704 258.961 110.284 258.877 109.78C259.213 109.696 259.465 109.613 259.717 109.445L259.717 107.093C259.297 106.589 258.793 106.673 258.29 107.177C257.786 107.681 257.282 108.185 257.87 109.109C257.366 108.941 257.114 108.941 256.946 108.773C256.526 108.437 256.106 108.437 255.77 108.773C255.35 109.109 255.014 109.529 255.182 110.116C255.686 111.964 256.19 112.216 258.038 111.964C258.038 111.964 258.122 111.964 258.206 111.964C257.954 112.048 257.702 112.132 257.534 112.216C257.198 112.384 257.114 112.804 257.366 113.14C257.702 113.476 258.122 113.56 258.458 113.308C258.626 113.14 258.71 112.804 258.793 112.468C259.213 112.72 259.549 112.72 259.801 112.552L259.801 111.124C259.549 111.124 259.549 111.04 259.465 111.04Z"
        fill="var(--svg-fill-accent-decor)" />
    <path
        d="M257.03 132.287C257.198 132.875 257.87 133.295 258.541 133.127C259.213 132.959 259.465 132.623 259.381 132.035C259.213 131.195 258.457 130.523 257.786 130.691C257.282 130.859 256.862 131.699 257.03 132.287Z"
        fill="var(--svg-fill-accent-decor)" />
    <path
        d="M247.96 115.071C248.548 115.659 249.556 115.491 250.312 114.735C250.9 114.063 250.9 113.307 250.312 112.719C249.64 112.048 248.38 112.132 247.792 112.803C247.372 113.391 247.456 114.567 247.96 115.071Z"
        fill="var(--svg-fill-accent-decor)" />
    <path
        d="M256.106 133.127C256.526 132.707 256.694 131.867 256.442 131.531C256.022 131.027 254.931 131.027 254.427 131.447C254.007 131.867 254.007 132.791 254.427 133.295C254.931 133.799 255.518 133.799 256.106 133.127Z"
        fill="var(--svg-fill-accent-decor)" />
    <path
        d="M242.586 121.705C242.334 121.957 242.166 122.377 242.502 122.629C242.754 122.797 243.257 122.881 243.425 122.713C243.593 122.545 243.593 122.041 243.677 121.789C243.173 121.285 242.838 121.453 242.586 121.705Z"
        fill="var(--svg-fill-accent-decor)" />
    <path
        d="M252.243 113.139C252.747 113.643 253.587 113.559 254.175 112.971C254.595 112.468 254.511 111.88 253.923 111.292C253.419 110.788 252.831 110.704 252.411 111.124C252.075 111.544 251.991 112.887 252.243 113.139Z"
        fill="var(--svg-fill-accent-decor)" />
    <path
        d="M241.158 110.368C240.822 110.788 240.906 111.712 241.41 112.132C241.83 112.551 242.67 112.467 243.09 111.964C243.51 111.46 243.593 111.04 243.174 110.62C242.586 109.948 241.578 109.864 241.158 110.368Z"
        fill="var(--svg-fill-accent-decor)" />
    <path
        d="M259.13 128.004C258.794 128.339 258.878 128.927 259.298 129.263C259.382 129.347 259.55 129.431 259.634 129.515L259.634 127.668C259.466 127.752 259.298 127.92 259.13 128.004Z"
        fill="var(--svg-fill-accent-decor)" />
    <path
        d="M255.686 157.145C255.77 157.816 256.274 158.068 257.114 157.984C257.701 157.9 258.373 157.229 258.289 156.809C258.205 156.137 257.366 155.465 256.694 155.633C256.106 155.717 255.602 156.473 255.686 157.145Z"
        fill="var(--svg-fill-accent-decor)" />
    <path
        d="M256.022 150.93C256.19 151.686 257.198 152.19 258.206 151.938C258.877 151.77 259.297 151.182 259.129 150.342C258.961 149.418 258.038 148.831 257.114 149.083C256.358 149.335 255.854 150.258 256.022 150.93Z"
        fill="var(--svg-fill-accent-decor)" />
    <path
        d="M250.984 148.494C250.564 148.746 250.396 149.166 250.648 149.502C250.732 149.754 251.068 150.09 251.32 150.09C251.991 150.174 252.327 149.67 252.411 148.998C251.907 148.662 251.571 148.158 250.984 148.494Z"
        fill="var(--svg-fill-accent-decor)" />
    <path
        d="M249.976 156.809C250.06 157.481 250.732 158.068 251.236 158.068C251.823 157.984 252.159 157.313 252.075 156.473C251.991 156.053 251.487 155.633 250.984 155.633C250.48 155.717 249.892 156.305 249.976 156.809Z"
        fill="var(--svg-fill-accent-decor)" />
    <path
        d="M249.555 136.234C249.975 136.738 250.899 136.822 251.319 136.486C251.739 136.15 251.655 135.31 251.067 134.638C250.815 134.302 250.059 134.302 249.723 134.554C249.303 135.058 249.22 135.898 249.555 136.234Z"
        fill="var(--svg-fill-accent-decor)" />
    <path
        d="M258.793 144.8C258.961 144.128 258.709 143.708 258.037 143.541C258.205 141.861 257.365 141.357 255.686 142.113C255.602 142.029 255.518 142.029 255.434 141.861C255.098 141.441 254.762 141.525 254.342 141.777C253.922 141.945 253.838 142.281 253.922 142.701C253.922 143.708 254.258 143.96 255.266 143.96C256.022 143.876 256.778 143.876 257.449 143.876C257.617 145.136 257.701 145.22 258.793 144.8Z"
        fill="var(--svg-fill-accent-decor)" />
    <path
        d="M251.991 134.806C252.327 134.722 252.495 134.387 252.327 134.135C252.243 133.883 251.823 133.799 251.655 133.799C251.487 133.883 251.235 133.967 251.235 134.303C251.235 134.638 251.571 134.974 251.991 134.806Z"
        fill="var(--svg-fill-accent-decor)" />
    <path
        d="M259.633 137.661C258.961 137.409 258.625 137.577 258.374 138.165C258.038 138.669 258.122 139.257 258.457 139.761C258.793 140.181 259.213 140.265 259.633 140.181L259.633 137.661Z"
        fill="var(--svg-fill-accent-decor)" />
    <path
        d="M253.335 141.608C253.251 140.936 252.831 140.852 252.495 140.936C252.159 141.02 251.739 141.272 251.907 141.692C251.991 141.944 252.411 142.28 252.663 142.28C252.915 142.112 253.167 141.776 253.335 141.608Z"
        fill="var(--svg-fill-accent-decor)" />
    <path
        d="M246.953 97.4354C247.288 97.3514 247.54 96.6796 247.205 96.2597C247.037 96.0918 246.701 96.0078 246.533 96.0918C246.281 96.1757 245.945 96.5116 245.945 96.6796C245.945 97.2675 246.701 97.5194 246.953 97.4354Z"
        fill="var(--svg-fill-accent-decor)" />
    <path
        d="M245.861 81.3112C245.693 81.4792 245.777 81.8151 245.861 81.8991C245.945 81.9831 246.448 82.235 246.616 82.067C246.784 81.8991 246.616 81.3952 246.532 81.3112C246.365 81.2273 246.029 81.1433 245.861 81.3112Z"
        fill="var(--svg-fill-accent-decor)" />
    <path
        d="M239.058 82.2351C239.142 82.319 239.478 82.403 239.562 82.2351C239.646 82.1511 239.562 81.8151 239.478 81.6472C239.394 81.5632 239.058 81.3952 238.89 81.5632C238.638 81.7312 238.89 82.0671 239.058 82.2351Z"
        fill="var(--svg-fill-accent-decor)" />
    <path
        d="M244.685 83.5784C245.021 83.9983 245.525 84.0823 245.945 83.7463C246.365 83.4104 246.449 82.8226 246.113 82.4866C245.861 82.1507 245.189 82.0667 244.769 82.3187C244.349 82.5706 244.349 83.1585 244.685 83.5784Z"
        fill="var(--svg-fill-accent-decor)" />
    <path
        d="M251.991 89.7933C252.327 89.9612 253.251 90.0452 253.503 89.2054C253.083 87.8617 254.175 87.9457 254.175 86.854C254.175 86.686 254.091 86.4341 254.091 86.3501L254.007 86.2661C254.175 86.2661 254.259 86.1821 254.343 86.0982C254.679 85.7622 254.595 85.0064 254.259 84.6705C253.923 84.3346 253.419 84.4186 253.083 84.7545C252.831 85.0064 252.747 85.3423 252.747 85.6783C252.495 85.7622 252.159 85.9302 251.907 86.2661C251.572 86.77 251.236 87.3579 250.984 87.9457C250.816 88.4496 251.404 89.4573 251.991 89.7933Z"
        fill="var(--svg-fill-accent-decor)" />
    <path
        d="M252.831 82.6548C252.747 82.4868 252.412 82.3189 252.076 82.2349C252.076 82.0669 252.076 81.9829 251.992 81.8989C251.74 81.647 250.984 82.0669 250.732 82.3188C250.396 82.5708 250.48 82.9907 250.816 83.2426C251.068 83.4106 251.32 83.4945 251.488 83.4106C251.572 83.4945 251.572 83.4945 251.656 83.5785C252.16 83.7465 252.999 82.9907 252.831 82.6548Z"
        fill="var(--svg-fill-accent-decor)" />
    <path
        d="M253.419 100.794C252.915 100.29 251.908 100.206 251.488 100.71C251.068 101.13 251.068 102.222 251.488 102.726C251.824 103.146 252.747 102.978 253.167 102.474C253.755 101.802 253.839 101.298 253.419 100.794Z"
        fill="var(--svg-fill-accent-decor)" />
    <path
        d="M236.707 84.2504C236.875 84.4184 237.295 84.2504 237.463 84.1664C237.547 84.0824 237.631 83.8305 237.547 83.6625C237.379 83.4946 237.127 83.4946 236.959 83.4946C236.875 83.6626 236.623 84.0824 236.707 84.2504Z"
        fill="var(--svg-fill-accent-decor)" />
    <path
        d="M238.05 77.1967C238.386 77.6166 238.89 77.7006 239.394 77.4486C239.73 77.2807 239.982 77.1127 240.318 77.1127C240.906 77.1127 241.41 76.8608 241.662 76.3569C241.829 75.937 241.242 74.8453 240.738 74.6773C240.234 74.5093 239.814 74.2574 239.31 74.8452C238.974 75.2651 238.638 75.685 238.302 76.021C237.882 76.3569 237.798 76.7768 238.05 77.1967Z"
        fill="var(--svg-fill-accent-decor)" />
    <path
        d="M257.282 84.6707C257.365 84.6707 257.365 84.6707 257.282 84.6707C257.198 85.0066 257.198 85.3425 257.365 85.4265C257.617 85.5105 258.037 85.4265 258.205 85.2586C258.373 85.0906 258.457 84.4188 258.289 84.2508C258.121 84.1668 257.785 84.1668 257.533 84.3348C257.869 83.8309 257.869 83.327 257.533 82.9071C257.953 82.4033 257.785 81.8154 257.114 81.2275C256.694 80.8916 255.938 80.8916 255.602 81.3115C255.266 81.6474 255.182 82.5712 255.35 83.0751C255.014 83.579 255.014 84.2508 255.266 84.5867C255.686 85.0066 256.862 85.0066 257.282 84.6707Z"
        fill="var(--svg-fill-accent-decor)" />
    <path
        d="M230.241 74.9289C230.157 74.8449 229.821 74.7609 229.737 74.8449C229.569 74.9289 229.653 75.2648 229.737 75.4328C229.737 75.5168 230.157 75.7687 230.324 75.6007C230.492 75.4328 230.324 75.0129 230.241 74.9289Z"
        fill="var(--svg-fill-accent-decor)" />
    <path
        d="M259.633 97.7709C259.297 97.9389 259.045 98.1908 258.961 98.6107C258.793 99.2825 258.877 99.9544 258.877 100.878C258.122 101.298 257.366 101.886 257.45 102.81C257.534 103.817 258.541 104.573 259.633 104.657L259.633 97.7709Z"
        fill="var(--svg-fill-accent-decor)" />
    <path
        d="M239.814 87.7777C239.646 88.1136 239.227 88.8694 239.478 89.1213C239.646 89.3733 240.57 89.0374 240.57 88.8694C240.738 88.5335 240.99 88.0296 240.654 87.6937C240.318 87.3578 239.982 87.6097 239.814 87.7777Z"
        fill="var(--svg-fill-accent-decor)" />
    <path
        d="M234.607 102.725C234.523 103.145 234.187 104.069 234.775 104.489C235.363 104.909 235.615 104.321 235.951 104.237C236.791 104.069 237.378 103.061 237.043 102.389C236.707 101.802 236.287 101.634 235.615 101.634C234.943 101.718 234.691 102.138 234.607 102.725Z"
        fill="var(--svg-fill-accent-decor)" />
    <path
        d="M241.158 102.558C240.822 102.81 240.822 103.398 241.158 103.734C241.494 104.07 242.166 104.154 242.502 103.818C242.754 103.566 242.838 102.894 242.502 102.642C242.166 102.39 241.494 102.306 241.158 102.558Z"
        fill="var(--svg-fill-accent-decor)" />
    <path
        d="M245.357 71.9056C244.769 71.7377 244.097 72.3255 244.013 72.9134C243.929 73.4172 244.265 74.173 244.769 74.425C245.441 74.6769 246.028 74.257 246.196 74.0051C246.784 74.5929 247.792 74.6769 248.38 74.1731C248.968 73.6692 249.136 72.9973 249.052 72.4095C249.388 72.5774 249.723 72.5774 250.143 72.4095C251.319 71.9896 251.739 71.0658 251.487 70.31C251.319 69.8061 250.647 69.3862 250.059 69.2183C250.311 68.8824 250.395 68.4625 250.059 68.1265C249.807 67.7906 249.136 67.7906 248.8 68.0426C248.38 68.3785 248.296 68.9663 248.632 69.3022C248.632 69.3862 248.716 69.3862 248.716 69.3862C248.128 69.8061 248.044 70.5619 248.128 71.0658L248.128 71.1498C247.624 70.8979 247.036 70.9818 246.448 71.4857C246.196 71.6537 246.028 71.9056 245.944 72.0736C245.776 72.1576 245.692 71.9896 245.357 71.9056Z"
        fill="var(--svg-fill-accent-decor)" />
    <path
        d="M244.349 88.6178C244.853 89.2057 245.945 89.2057 246.617 88.7018C247.037 88.3659 246.953 87.4421 246.533 86.9382C245.945 86.3504 245.273 86.3504 244.685 86.8543C244.014 87.4421 243.93 88.1979 244.349 88.6178Z"
        fill="var(--svg-fill-accent-decor)" />
    <path
        d="M239.31 96.5956C239.142 96.3437 238.722 96.5116 238.722 96.5956C238.638 96.7636 238.554 97.0155 238.638 97.1835C238.638 97.2675 239.058 97.3514 239.142 97.2675C239.226 97.0995 239.478 96.8476 239.31 96.5956Z"
        fill="var(--svg-fill-accent-decor)" />
    <path
        d="M250.228 86.9377C250.312 87.0217 250.48 87.1057 250.648 86.9377C250.732 86.7697 250.648 86.6018 250.564 86.6018C250.48 86.5178 250.312 86.6018 250.228 86.6858C250.228 86.6858 250.144 86.7697 250.228 86.9377Z"
        fill="var(--svg-fill-accent-decor)" />
    <path
        d="M253.083 97.2671C253.335 97.0152 253.419 96.5113 253.251 96.1754C253.419 95.5036 253.335 94.8317 252.915 94.4958C252.327 93.9079 251.152 93.9079 250.648 94.4958C250.06 95.0837 249.976 96.1754 250.48 96.7632C250.9 97.1831 251.404 97.4351 251.907 97.4351C252.327 97.603 252.747 97.603 253.083 97.2671Z"
        fill="var(--svg-fill-accent-decor)" />
    <path
        d="M248.548 132.455C248.464 132.455 248.212 132.791 248.296 132.875C248.38 133.043 248.548 133.295 248.716 133.295C248.884 133.295 249.219 133.211 249.219 132.791C249.219 132.371 248.8 132.455 248.548 132.455Z"
        fill="var(--svg-fill-accent-decor)" />
    <path
        d="M244.936 67.5386C245.356 68.0425 246.532 68.0425 247.12 67.5386C247.624 67.1187 247.624 66.5308 247.12 65.943C246.532 65.2711 245.944 65.2712 245.272 65.859C244.769 66.3629 244.601 67.2027 244.936 67.5386Z"
        fill="var(--svg-fill-accent-decor)" />
    <path
        d="M241.578 80.7234C241.746 81.0593 242.082 81.2273 242.502 80.9754C242.838 80.7234 243.09 80.1356 242.754 79.8836C242.502 79.7157 241.83 79.2958 241.494 79.6317C241.158 79.9676 241.494 80.4715 241.578 80.7234Z"
        fill="var(--svg-fill-accent-decor)" />
    <path
        d="M232.089 77.2802C231.669 77.9521 232.425 78.5399 233.013 78.5399C233.517 78.5399 233.349 78.6239 233.684 79.1278C234.02 79.6317 234.608 80.1355 235.28 79.3797C235.952 78.6239 235.616 77.5322 235.028 76.9443C234.44 76.2725 232.677 76.4404 232.089 77.2802Z"
        fill="var(--svg-fill-accent-decor)" />
    <path
        d="M248.549 90.8846C248.465 90.8006 248.297 90.7166 248.129 90.8846C247.961 91.0525 248.045 91.2205 248.129 91.2205C248.213 91.3045 248.381 91.2205 248.465 91.2205C248.549 91.1365 248.633 90.9686 248.549 90.8846Z"
        fill="var(--svg-fill-accent-decor)" />
    <path
        d="M254.006 69.1342C253.754 69.4701 253.586 69.89 253.586 70.3099C253.586 70.8977 253.838 71.3176 254.342 71.8215C254.846 72.2414 254.846 72.9132 255.518 73.1652C256.358 73.4171 257.785 73.5011 258.709 72.1574C259.213 71.4016 259.297 70.7298 259.129 70.0579C258.877 69.3021 257.869 69.3861 257.365 68.7983C257.282 68.7143 257.198 68.6303 257.03 68.5463C257.282 68.3783 257.449 68.2104 257.533 67.7905C257.533 67.3706 257.366 66.9507 256.862 66.9507C256.526 66.9507 256.022 67.0347 255.854 67.2866C255.602 67.5386 255.686 67.7905 255.77 68.0424C255.014 68.0424 254.426 68.5463 254.006 69.1342Z"
        fill="var(--svg-fill-accent-decor)" />
    <path
        d="M249.724 91.4729C250.144 91.8928 250.648 91.9768 250.984 91.6409C251.488 91.221 251.572 90.2132 251.152 89.7933C250.816 89.3734 250.144 89.3734 249.724 89.7093C249.304 90.1292 249.304 90.969 249.724 91.4729Z"
        fill="var(--svg-fill-accent-decor)" />
    <path
        d="M255.014 94.748C255.182 94.748 255.434 94.6641 255.518 94.4961C255.686 94.0762 255.854 93.6563 256.022 93.1524C257.114 92.7325 257.618 92.0607 257.45 91.4729C257.198 90.885 256.106 90.3811 255.434 90.6331C254.679 90.885 254.595 91.3049 255.098 92.8165C254.511 93.0685 253.923 93.2364 254.175 93.9922C254.175 94.4961 254.511 94.748 255.014 94.748Z"
        fill="var(--svg-fill-accent-decor)" />
    <path
        d="M258.374 94.2443C257.954 94.6642 257.954 95.5879 258.374 96.1758C258.625 96.5117 259.213 96.5957 259.633 96.4277L259.633 94.2443C259.129 93.9923 258.709 93.9083 258.374 94.2443Z"
        fill="var(--svg-fill-accent-decor)" />
    <path
        d="M244.349 91.053C243.761 91.7249 243.845 92.3967 244.433 92.9846C245.021 93.4885 245.861 93.4045 246.448 92.8166C246.868 92.3127 246.784 91.305 246.196 90.8851C245.693 90.2972 244.937 90.3812 244.349 91.053Z"
        fill="var(--svg-fill-accent-decor)" />
    <path
        d="M235.784 92.9002C236.12 93.4041 236.204 93.9919 236.875 93.9079C237.379 93.824 237.631 93.488 237.631 92.9842C237.631 92.5643 237.463 92.3123 237.127 92.1444C236.54 91.8924 236.12 92.3123 235.784 92.9002Z"
        fill="var(--svg-fill-accent-decor)" />
    <path
        d="M227.889 45.7041C227.889 46.04 228.225 46.04 228.309 46.04C228.477 46.04 228.897 45.8721 228.897 45.6201C228.897 45.3682 228.477 45.2842 228.309 45.3682C228.141 45.3682 227.805 45.4522 227.889 45.7041Z"
        fill="var(--svg-fill-accent-decor)" />
    <path
        d="M231.669 51.9186C230.913 52.2545 230.409 52.9263 230.577 53.3462C230.661 53.7661 230.997 53.9341 231.417 53.9341C232.172 53.9341 232.424 53.6822 232.592 52.8424C233.096 52.5064 233.6 52.2545 234.104 51.9186C234.524 51.5827 234.356 50.9108 233.852 50.8268C233.264 50.8268 232.508 50.5749 231.92 50.9948C231.836 51.3307 231.753 51.5827 231.669 51.9186Z"
        fill="var(--svg-fill-accent-decor)" />
    <path
        d="M241.998 46.4596C242.25 46.7955 242.838 46.7955 243.174 46.5436C243.51 46.2916 243.51 45.7877 243.174 45.5358C242.922 45.3678 242.502 45.1999 242.334 45.2839C242.082 45.3679 241.746 46.1237 241.998 46.4596Z"
        fill="var(--svg-fill-accent-decor)" />
    <path
        d="M239.394 50.995C239.73 51.4989 240.234 52.0028 240.738 52.3387C241.242 52.7586 242.334 52.5906 242.838 52.0867C243.173 51.7508 243.257 51.4149 243.005 51.079C242.418 50.2392 241.746 49.4834 240.738 49.0635C240.57 48.9795 240.318 48.9795 240.234 48.9795C239.142 49.2314 238.723 50.1552 239.394 50.995Z"
        fill="var(--svg-fill-accent-decor)" />
    <path
        d="M243.425 99.3667C243.761 99.6187 244.181 99.7026 244.349 99.2827C244.517 99.0308 244.853 98.191 244.601 98.023C244.349 97.8551 243.593 98.107 243.341 98.275C243.005 98.4429 243.089 99.1148 243.425 99.3667Z"
        fill="var(--svg-fill-accent-decor)" />
    <path
        d="M243.005 55.5292C243.677 55.3612 243.929 54.8574 243.761 54.0176C243.593 53.3458 243.089 53.0938 242.25 53.3457C241.662 53.5137 241.326 53.8496 241.41 54.3535C241.578 54.8574 242.585 55.6132 243.005 55.5292Z"
        fill="var(--svg-fill-accent-decor)" />
    <path
        d="M225.202 65.8587C225.706 66.4465 227.301 66.5305 227.889 66.1106C228.561 65.6067 228.561 64.431 227.973 63.7592C227.385 63.1713 226.125 63.0034 225.538 63.5912C224.866 64.1791 224.698 65.2708 225.202 65.8587Z"
        fill="var(--svg-fill-accent-decor)" />
    <path
        d="M237.547 64.6832C237.967 65.1871 238.471 65.2711 238.89 64.9352C239.31 64.5993 239.562 63.4236 239.31 63.0876C238.89 62.4998 238.135 62.4998 237.463 63.0037C237.043 63.2556 237.043 64.0114 237.547 64.6832Z"
        fill="var(--svg-fill-accent-decor)" />
    <path
        d="M239.73 56.7054C239.73 56.9573 240.066 57.3772 240.318 57.4612C240.99 57.7131 241.662 57.0413 241.662 56.4534C241.662 55.9495 240.99 55.3617 240.318 55.7816C239.982 55.8656 239.73 56.3694 239.73 56.7054Z"
        fill="var(--svg-fill-accent-decor)" />
    <path
        d="M235.867 54.9419C235.783 54.774 235.615 54.438 235.363 54.438C235.111 54.438 235.111 54.9419 235.111 55.0259C235.195 55.1938 235.363 55.3618 235.615 55.3618C235.867 55.2778 235.867 55.0259 235.867 54.9419Z"
        fill="var(--svg-fill-accent-decor)" />
    <path
        d="M255.267 119.438C255.603 119.774 256.946 119.522 257.366 119.102C257.618 118.766 257.618 118.01 257.282 117.675C256.695 117.087 255.939 117.087 255.519 117.507C254.931 118.01 254.847 119.018 255.267 119.438Z"
        fill="var(--svg-fill-accent-decor)" />
    <path
        d="M258.878 118.514C258.542 118.85 258.458 119.522 258.794 119.858C258.962 120.026 259.298 120.11 259.634 120.11L259.634 118.262C259.382 118.178 259.13 118.262 258.878 118.514Z"
        fill="var(--svg-fill-accent-decor)" />
    <path
        d="M256.862 124.728C257.45 125.316 258.374 125.232 258.962 124.561C259.802 123.721 259.802 122.881 258.962 122.041C258.962 122.041 258.878 121.957 258.794 121.957C258.794 121.873 258.794 121.873 258.878 121.789C258.962 121.117 258.71 120.697 258.122 120.362C257.534 120.026 257.114 120.194 256.694 120.613C256.359 120.949 255.603 121.537 255.855 122.125C255.939 122.377 256.107 122.461 256.275 122.545C256.107 123.301 256.275 124.225 256.862 124.728Z"
        fill="var(--svg-fill-accent-decor)" />
    <path
        d="M250.984 119.354C251.236 119.522 251.824 120.026 252.244 119.69C252.663 119.27 252.16 118.682 251.992 118.347C251.824 118.011 251.32 118.011 250.984 118.347C250.564 118.682 250.564 119.102 250.984 119.354Z"
        fill="var(--svg-fill-accent-decor)" />
    <path
        d="M251.067 125.904C250.563 126.492 250.647 127.5 251.235 128.004C251.823 128.508 252.915 128.34 253.587 127.584C253.755 127.416 253.839 127.164 253.922 126.996C254.09 127.164 254.342 127.332 254.678 127.332C255.098 127.332 255.434 126.912 255.434 126.408C255.35 125.988 254.93 125.653 254.426 125.653C254.09 125.653 253.839 125.904 253.755 126.072C253.671 125.988 253.587 125.821 253.503 125.737C252.747 125.065 251.739 125.149 251.067 125.904Z"
        fill="var(--svg-fill-accent-decor)" />
    <path
        d="M241.662 118.263C241.494 118.179 241.158 117.927 241.074 118.095C240.906 118.262 240.99 118.598 241.074 118.766C241.158 118.934 241.662 119.102 241.83 118.934C241.998 118.766 241.746 118.346 241.662 118.263Z"
        fill="var(--svg-fill-accent-decor)" />
    <path
        d="M258.458 164.367C258.29 164.451 258.122 164.535 257.954 164.703C257.786 164.367 257.618 164.031 257.45 163.779C257.03 163.191 256.694 163.107 256.106 163.443C255.519 163.695 255.267 164.199 255.267 164.787C255.267 165.375 255.687 165.711 256.274 165.879C256.61 165.963 257.03 165.963 257.45 166.047C257.534 166.215 257.618 166.383 257.786 166.55C258.206 167.138 259.046 167.558 259.634 167.306L259.634 164.199C259.298 164.115 258.878 164.199 258.458 164.367Z"
        fill="var(--svg-fill-accent-decor)" />
    <path
        d="M256.359 168.65C256.107 168.482 255.519 168.566 255.267 168.902C255.015 169.322 255.267 170.078 256.023 169.994C256.778 169.826 256.694 168.902 256.359 168.65Z"
        fill="var(--svg-fill-accent-decor)" />
    <path
        d="M216.216 30.3358C216.3 31.0076 216.972 31.5955 217.56 31.5115C218.064 31.4275 218.484 30.7557 218.4 29.9999L216.3 29.9999C216.216 30.0839 216.216 30.2518 216.216 30.3358Z"
        fill="var(--svg-fill-accent-decor)" />
    <path
        d="M252.915 137.577C252.915 137.745 253.167 138.165 253.419 138.165C253.671 138.165 253.755 137.745 253.671 137.577C253.587 137.409 253.503 136.989 253.251 137.073C253.083 137.073 252.915 137.409 252.915 137.577Z"
        fill="var(--svg-fill-accent-decor)" />
    <path
        d="M245.273 107.177C245.105 107.597 245.273 108.017 245.777 108.268C246.197 108.52 246.701 108.52 246.953 108.101C247.457 107.513 247.037 106.589 246.785 106.421C246.533 106.253 245.525 106.505 245.273 107.177Z"
        fill="var(--svg-fill-accent-decor)" />
    <path
        d="M249.388 106.253C249.724 106.505 250.396 106.505 250.816 106.002C250.732 105.75 250.816 105.33 250.564 104.994C250.312 104.574 249.556 104.658 249.22 105.078C248.968 105.414 249.052 105.918 249.388 106.253Z"
        fill="var(--svg-fill-accent-decor)" />
    <path
        d="M256.19 106.673C256.526 106.337 256.526 106.001 256.19 105.581C255.854 105.161 255.434 105.077 255.014 105.245C254.343 105.497 254.259 106.337 254.511 106.757C254.762 107.177 255.686 107.177 256.19 106.673Z"
        fill="var(--svg-fill-accent-decor)" />
    <path
        d="M256.442 98.7791C256.61 98.947 257.03 99.031 257.282 98.947C257.45 98.947 257.702 98.6111 257.786 98.3592C257.786 97.7713 257.366 97.5194 256.778 97.5194C256.442 97.9393 256.022 98.2752 256.442 98.7791Z"
        fill="var(--svg-fill-accent-decor)" />
    <path
        d="M249.22 99.8705C249.472 100.038 250.143 100.29 250.395 100.038C250.647 99.7865 250.227 99.1147 249.976 98.9467C249.808 98.8627 249.388 98.9467 249.136 99.1147C248.968 99.2826 248.884 99.6185 249.22 99.8705Z"
        fill="var(--svg-fill-accent-decor)" />
    <path
        d="M235.364 109.276C235.7 109.528 236.204 109.612 236.539 109.36C236.875 109.108 236.959 108.52 236.623 108.184C236.371 107.848 235.784 107.848 235.448 108.184C235.112 108.352 235.028 109.024 235.364 109.276Z"
        fill="var(--svg-fill-accent-decor)" />
    <path
        d="M237.882 117.087C238.134 117.339 238.47 117.339 238.722 117.087C238.974 116.835 238.89 116.499 238.638 116.331C238.386 116.163 238.05 116.331 237.966 116.415C237.798 116.499 237.63 116.835 237.882 117.087Z"
        fill="var(--svg-fill-accent-decor)" />
    <path
        d="M234.524 117.507C234.692 117.591 234.944 117.675 235.112 117.591C235.196 117.507 235.532 117.171 235.28 116.919C235.028 116.583 234.692 116.919 234.524 117.087C234.524 117.087 234.524 117.423 234.524 117.507Z"
        fill="var(--svg-fill-accent-decor)" />
    <path
        d="M251.404 109.192C251.656 108.856 251.656 108.184 251.32 107.933C250.984 107.681 250.312 107.681 249.976 108.016C249.64 108.352 249.64 109.024 249.976 109.276C250.396 109.696 251.068 109.612 251.404 109.192Z"
        fill="var(--svg-fill-accent-decor)" />
    <path
        d="M237.799 41.0856C238.135 40.8336 237.883 40.3297 237.715 40.1618C237.547 39.9938 237.295 39.8258 236.959 39.9938C236.707 40.2458 236.791 40.5817 236.875 40.7496C237.043 40.9176 237.463 41.2535 237.799 41.0856Z"
        fill="var(--svg-fill-accent-decor)" />
    <path
        d="M259.297 63.5075C258.794 63.9274 258.626 65.355 259.129 65.9429C259.297 66.1109 259.465 66.2788 259.633 66.3628L259.633 63.2556C259.465 63.4235 259.381 63.4235 259.297 63.5075Z"
        fill="var(--svg-fill-accent-decor)" />
    <path
        d="M254.09 45.3676C254.678 45.0316 254.51 44.5278 254.258 44.0239C253.586 43.856 253.083 44.0239 252.831 44.7797C253.166 45.2836 253.502 45.7035 254.09 45.3676Z"
        fill="var(--svg-fill-accent-decor)" />
    <path
        d="M240.822 44.5284C240.738 44.1925 239.982 44.1925 239.73 44.5284C239.562 44.7804 239.562 45.1163 239.562 45.2842C239.982 45.7881 240.486 45.9561 240.738 45.6202C240.822 45.2842 240.99 44.8643 240.822 44.5284Z"
        fill="var(--svg-fill-accent-decor)" />
    <path
        d="M243.341 44.5286C243.257 44.3606 242.837 44.2767 242.669 44.3606C242.501 44.4446 242.501 44.8645 242.669 45.0325C242.753 45.2004 243.089 45.2844 243.257 45.1165C243.425 44.9485 243.425 44.6965 243.341 44.5286Z"
        fill="var(--svg-fill-accent-decor)" />
    <path
        d="M233.18 32.3511C233.432 32.603 233.768 32.603 234.02 32.3511C234.272 32.0152 234.44 31.6793 234.104 31.2594C233.852 30.9234 233.18 30.9234 232.928 31.1754C232.676 31.4273 232.844 31.9312 233.18 32.3511Z"
        fill="var(--svg-fill-accent-decor)" />
    <path
        d="M238.051 38.7333C238.471 38.7333 238.891 38.2294 238.807 37.6416C238.555 37.5576 238.219 37.3056 237.883 37.3056C237.463 37.3056 237.295 37.6416 237.379 38.0614C237.463 38.3974 237.547 38.8173 238.051 38.7333Z"
        fill="var(--svg-fill-accent-decor)" />
    <path
        d="M216.216 37.6422C216.468 37.7262 216.888 37.5582 217.14 37.3903C217.476 37.2223 217.56 36.8024 217.224 36.4665C216.888 36.2145 216.552 35.9626 216.132 36.2985C215.796 36.5505 215.88 37.4743 216.216 37.6422Z"
        fill="var(--svg-fill-accent-decor)" />
    <path
        d="M229.653 31.0917C230.157 30.9237 230.493 30.6718 230.66 30.3358C230.912 30.5878 231.248 30.5878 231.584 30.4198C231.836 30.3358 231.92 30.1679 232.004 29.9999L228.309 29.9999C228.393 30.7557 229.065 31.2596 229.653 31.0917Z"
        fill="var(--svg-fill-accent-decor)" />
    <path
        d="M244.77 46.9637C244.938 47.3836 245.525 47.7195 245.945 47.6355C246.869 47.3835 247.373 46.8797 247.205 46.2918C247.037 45.7879 246.113 45.284 245.525 45.452C245.022 45.62 244.602 46.5438 244.77 46.9637Z"
        fill="var(--svg-fill-accent-decor)" />
    <path
        d="M259.466 44.2765C258.878 43.9406 258.206 43.8566 257.954 43.6047C257.87 43.4367 257.786 43.2687 257.786 43.1008C258.038 43.3527 258.458 43.4367 259.046 43.2687C259.214 43.1847 259.466 43.1008 259.549 43.0168L259.549 40.8333C259.549 40.9173 259.549 41.0013 259.466 41.0853C259.046 40.8333 258.542 40.6654 258.122 40.6654C258.122 40.6654 258.122 40.6654 258.122 40.5814C257.534 39.7416 256.106 39.7416 255.854 40.4974C255.77 40.8333 255.77 41.0852 255.77 41.2532C255.602 41.1692 255.435 41.1692 255.267 41.1692C254.763 41.2532 254.427 41.6731 254.427 42.177C254.427 42.4289 254.595 42.5969 254.763 42.6809C255.015 43.1848 255.77 43.7726 256.022 43.7726C256.274 43.7726 257.03 43.6046 257.03 44.1925C257.114 44.6124 256.862 45.1163 257.03 45.5362C256.946 45.5362 256.946 45.5362 256.862 45.5362C256.442 45.7041 256.19 46.0401 256.19 46.46C255.938 46.376 255.602 46.376 255.351 46.46C255.015 46.5439 254.931 47.1318 255.183 47.4677C255.519 47.8876 255.938 47.8876 256.19 47.6357C256.274 47.5517 256.442 47.2998 256.526 47.1318C256.694 47.2158 256.946 47.2998 257.198 47.2158C257.534 47.1318 257.786 46.8799 257.87 46.544C258.206 46.8799 258.71 47.1318 259.13 46.9639C259.298 46.8799 259.382 46.8799 259.466 46.7959L259.466 44.2765C259.549 44.2765 259.549 44.3605 259.466 44.2765Z"
        fill="var(--svg-fill-accent-decor)" />
    <path
        d="M253.419 47.6355C253.923 47.2156 254.091 46.4598 253.755 46.0399C253.335 45.536 252.411 45.368 251.991 45.704C251.404 46.1239 251.32 47.2996 251.739 47.8035C252.075 48.1394 252.915 48.0554 253.419 47.6355Z"
        fill="var(--svg-fill-accent-decor)" />
    <path
        d="M248.968 49.0631C248.968 49.8189 249.304 50.3228 249.64 50.3228C250.06 50.3228 250.732 49.6509 250.732 49.231C250.732 48.8951 250.06 48.3072 249.64 48.3072C249.22 48.3072 248.968 48.6432 248.968 49.0631Z"
        fill="var(--svg-fill-accent-decor)" />
    <path
        d="M259.633 35.9627C259.549 35.8787 259.465 35.8787 259.381 35.7947C258.71 35.6267 258.206 36.1306 258.122 36.7185C257.954 36.3826 257.87 36.1306 257.786 35.7107C257.786 35.4588 257.366 35.2068 257.114 35.1229C256.694 34.9549 256.274 34.7869 255.938 34.535C255.434 34.2831 254.763 34.451 254.511 34.8709C254.091 35.5427 254.175 36.0466 254.846 36.4665C255.014 36.5505 255.098 36.6345 255.266 36.6345C255.098 36.9704 255.182 37.3903 255.35 37.6423C255.518 37.8102 255.854 37.8942 256.106 37.8942C256.19 38.2301 256.442 38.3981 256.694 38.4821C257.198 38.65 257.618 38.3981 258.038 37.9782C258.29 37.7262 258.374 37.4743 258.374 37.2224C258.626 37.4743 259.129 37.6423 259.549 37.5583C259.633 37.5583 259.633 37.5583 259.633 37.4743L259.633 35.9627Z"
        fill="var(--svg-fill-accent-decor)" />
    <path
        d="M247.876 31.1751C247.709 31.427 247.792 31.679 247.792 31.8469C248.212 32.2668 248.8 32.3508 248.968 32.0149C249.136 31.763 249.136 31.427 249.052 31.1751C248.884 30.7552 248.128 30.8392 247.876 31.1751Z"
        fill="var(--svg-fill-accent-decor)" />
    <path
        d="M247.792 30.0838C247.876 30.0838 247.876 29.9998 247.876 29.9998L246.533 29.9998C246.533 30.0838 246.533 30.1677 246.617 30.1677C246.785 30.3357 247.456 30.2517 247.792 30.0838Z"
        fill="var(--svg-fill-accent-decor)" />
    <path
        d="M242.334 30.8394C242.838 30.8394 243.09 30.5034 243.09 29.9996L241.662 29.9996C241.662 30.5034 241.914 30.8394 242.334 30.8394Z"
        fill="var(--svg-fill-accent-decor)" />
    <path
        d="M249.975 31.1753C250.395 31.3433 250.899 31.0914 251.067 30.9234C251.403 30.7554 251.319 30.4195 251.067 30.1676C251.151 30.0836 251.151 30.0836 251.235 29.9996L248.38 29.9996C248.464 30.3355 248.632 30.5875 248.8 30.8394C249.136 31.1753 249.556 31.3433 249.975 31.1753Z"
        fill="var(--svg-fill-accent-decor)" />
    <path
        d="M248.296 37.6423C249.052 37.5584 249.555 36.6346 249.388 35.7948C249.22 35.039 248.128 34.5351 247.12 34.787C246.364 34.955 245.944 35.7108 246.196 36.4666C246.532 37.7263 246.952 37.8103 248.296 37.6423Z"
        fill="var(--svg-fill-accent-decor)" />
    <path
        d="M243.845 39.3211C244.181 39.741 245.189 39.657 245.693 39.2371C246.196 38.8172 246.364 38.1454 245.945 37.6415C245.441 37.0537 244.433 36.8857 244.013 37.3056C243.509 37.8095 243.425 38.8172 243.845 39.3211Z"
        fill="var(--svg-fill-accent-decor)" />
    <path
        d="M244.349 32.3515C244.433 32.7714 244.349 33.1073 244.769 33.4432C245.273 33.7791 246.112 33.4432 246.364 32.8554C246.448 32.6034 246.532 32.2675 246.448 31.9316C247.036 31.7636 247.372 31.2598 247.204 30.7559C247.12 30.336 246.616 30.0001 246.196 30.0841C245.861 30.1681 245.525 30.504 245.441 30.9239C245.105 30.9239 244.769 31.0078 244.601 31.1758C244.265 31.5117 244.265 31.9316 244.349 32.3515Z"
        fill="var(--svg-fill-accent-decor)" />
    <path
        d="M240.486 30.9236C240.654 30.7556 240.822 30.4197 240.822 29.9998L237.967 29.9998C238.051 30.2518 238.135 30.5037 238.303 30.6716C238.723 31.2595 240.066 31.3435 240.486 30.9236Z"
        fill="var(--svg-fill-accent-decor)" />
    <path
        d="M258.457 49.9026C258.373 49.8186 258.373 49.7346 258.29 49.6507C257.702 48.8948 256.778 48.8948 255.938 49.5667C255.098 50.3225 255.014 51.1623 255.602 51.8341C255.854 52.0861 256.19 52.338 256.61 52.422C256.946 53.0099 257.786 53.3458 258.709 53.1778C258.961 53.1778 259.129 53.0098 259.381 52.9259L259.381 53.0098C259.381 53.4297 259.297 53.9336 259.633 54.2695L259.633 50.5744C259.381 50.2385 258.961 49.9866 258.457 49.9026Z"
        fill="var(--svg-fill-accent-decor)" />
    <path
        d="M216.048 33.8633C216.384 34.1992 216.888 34.1992 217.224 33.8633C217.644 33.4434 217.728 32.8556 217.308 32.5196C216.972 32.1837 216.3 32.1837 215.964 32.5196C215.628 32.8556 215.628 33.5274 216.048 33.8633Z"
        fill="var(--svg-fill-accent-decor)" />
    <path
        d="M221.591 30.4198C221.171 30.9237 221.087 31.6795 221.423 32.0994C221.842 32.5193 222.934 32.6033 223.354 32.2673C223.522 32.0994 223.522 31.7635 223.522 31.4275C224.11 31.2596 224.614 30.6717 224.614 30.2518C224.614 30.1678 224.614 30.0839 224.53 30.0839L222.01 30.0839C222.01 30.1678 221.926 30.2518 221.926 30.2518C221.843 30.2518 221.675 30.3358 221.591 30.4198Z"
        fill="var(--svg-fill-accent-decor)" />
    <path
        d="M259.298 74.9287C259.214 75.0127 259.214 75.3486 259.298 75.4326C259.382 75.5166 259.55 75.5166 259.718 75.5166L259.718 74.6768C259.466 74.7608 259.382 74.9287 259.298 74.9287Z"
        fill="var(--svg-fill-accent-decor)" />
    <path
        d="M245.609 80.1353C245.945 80.4712 246.449 80.4712 246.869 80.1353C247.289 79.7154 247.373 79.1275 246.953 78.7916C246.617 78.4557 245.861 78.5397 245.525 78.8756C245.273 79.1275 245.273 79.7994 245.609 80.1353Z"
        fill="var(--svg-fill-accent-decor)" />
    <path
        d="M208.91 34.4504C209.246 34.8703 209.75 34.9543 210.17 34.6184C210.506 34.3665 210.589 33.7786 210.338 33.4427C210.002 33.0228 209.498 33.0228 209.078 33.2748C208.658 33.6107 208.574 34.0306 208.91 34.4504Z"
        fill="var(--svg-fill-accent-decor)" />
    <path
        d="M195.557 36.4662C195.557 37.0541 196.313 37.306 196.565 37.222C196.901 37.1381 197.153 36.4662 196.733 35.9623C196.565 35.7944 196.229 35.7104 196.061 35.7944C195.809 35.9623 195.557 36.2983 195.557 36.4662Z"
        fill="var(--svg-fill-accent-decor)" />
    <path
        d="M252.579 79.4634C252.579 79.2955 252.243 78.9596 252.075 78.9596C251.739 78.9596 251.32 79.1275 251.236 79.3794C250.984 79.8833 251.404 80.1353 251.739 80.3872C252.327 80.3032 252.663 80.0513 252.579 79.4634Z"
        fill="var(--svg-fill-accent-decor)" />
    <path
        d="M201.268 36.7178C201.604 37.1377 202.192 37.1377 202.612 36.7178C202.948 36.3819 202.948 35.794 202.612 35.4581C202.192 35.0382 201.604 34.9542 201.268 35.3741C200.848 35.71 200.848 36.2979 201.268 36.7178Z"
        fill="var(--svg-fill-accent-decor)" />
    <path
        d="M228.309 35.3748C228.393 35.3748 228.477 35.3748 228.561 35.3748L228.561 35.2908C228.981 35.0389 229.148 34.619 229.065 34.0311C228.981 33.3593 228.225 32.5195 227.637 32.6035C226.881 32.6875 226.293 33.5273 226.377 34.2831C226.545 34.9549 227.469 35.5428 228.309 35.3748Z"
        fill="var(--svg-fill-accent-decor)" />
    <path
        d="M253.923 56.2854C254.091 56.4533 254.259 56.6213 254.511 56.7053C254.259 56.7893 254.175 57.0412 254.091 57.3771C254.007 57.881 254.175 58.3009 254.595 58.4689C255.183 58.8048 255.602 58.3009 256.106 57.881C255.938 57.4611 255.854 57.0412 255.603 56.7893C255.854 56.7893 256.106 56.6213 256.274 56.5373C256.862 56.0335 256.946 54.7738 256.442 54.1019C255.938 53.5141 255.015 53.4301 254.427 53.934C253.587 54.6058 253.335 55.6975 253.923 56.2854Z"
        fill="var(--svg-fill-accent-decor)" />
    <path
        d="M242.586 50.1555C242.754 50.7434 243.677 51.0793 244.433 50.9114C245.105 50.7434 245.357 50.1555 245.105 49.3157C244.937 48.8119 244.265 48.392 243.845 48.476C243.258 48.6439 242.418 49.7356 242.586 50.1555Z"
        fill="var(--svg-fill-accent-decor)" />
    <path
        d="M248.297 56.7891C248.381 57.293 248.717 57.377 249.22 57.377C249.892 57.293 250.396 56.6211 250.312 56.2012C250.228 55.6974 249.472 55.1095 249.052 55.1935C248.465 55.1935 248.129 55.9493 248.297 56.7891Z"
        fill="var(--svg-fill-accent-decor)" />
    <path
        d="M251.151 58.4691C251.739 59.2249 252.495 59.4769 252.998 59.057C253.334 58.7211 253.502 57.6294 253.166 57.2934C252.83 56.9575 251.823 56.9575 251.235 57.3774C250.899 57.6294 250.815 58.0492 251.151 58.4691Z"
        fill="var(--svg-fill-accent-decor)" />
    <path
        d="M247.541 51.0784C248.045 50.5745 248.129 49.3148 247.709 48.8949C247.373 48.559 246.533 48.643 246.029 49.0629C245.441 49.6508 245.441 50.2386 245.945 50.8264C246.449 51.4143 247.121 51.4983 247.541 51.0784Z"
        fill="var(--svg-fill-accent-decor)" />
    <path
        d="M258.122 66.2791C258.373 66.1951 258.457 65.7752 258.457 65.6073C258.457 65.4393 258.206 65.1874 257.954 65.1874C257.702 65.1874 257.618 65.5233 257.618 65.6912C257.618 65.9432 257.954 66.3631 258.122 66.2791Z"
        fill="var(--svg-fill-accent-decor)" />
    <path
        d="M249.892 60.1488C250.228 60.5687 250.9 60.5687 251.236 60.2328C251.572 59.8969 251.572 59.141 251.236 58.8051C250.9 58.4692 250.312 58.3852 249.976 58.7211C249.556 59.141 249.556 59.8129 249.892 60.1488Z"
        fill="var(--svg-fill-accent-decor)" />
    <path
        d="M259.129 62.2476C259.297 62.4155 259.465 62.4995 259.633 62.4995L259.633 60.8199C259.465 60.8199 259.213 60.9039 259.129 61.0719C258.793 61.3238 258.793 61.9116 259.129 62.2476Z"
        fill="var(--svg-fill-accent-decor)" />
    <path
        d="M251.067 33.6953C250.648 34.0312 250.648 35.123 250.984 35.6268C251.319 36.0467 252.327 35.9628 252.747 35.6268C252.831 35.5429 252.915 35.4589 252.915 35.2909C253.419 35.1229 253.671 34.5351 253.587 34.0312C253.587 33.9472 253.503 33.9472 253.503 33.8633C254.259 33.6113 254.847 32.7715 254.679 32.0157C254.511 31.1759 253.671 30.5041 252.915 30.672C252.159 30.756 251.235 32.1837 251.487 32.9395C251.571 33.2754 251.823 33.5273 252.075 33.6953C251.655 33.4434 251.319 33.4434 251.067 33.6953Z"
        fill="var(--svg-fill-accent-decor)" />
    <path
        d="M259.465 58.3848C259.381 58.5527 259.465 58.8887 259.633 59.0566L259.633 58.2168C259.549 58.3008 259.549 58.3848 259.465 58.3848Z"
        fill="var(--svg-fill-accent-decor)" />
    <rect x="87" y="67" width="126" height="66" fill="var(--svg-fill-background)" />
    <rect x="87" y="67" width="126" height="66" stroke="var(--svg-fill-background)" stroke-width="6" />
    <path
        d="M90 71C90 70.4477 90.4477 70 91 70H125C125.552 70 126 70.4477 126 71V85.6667C126 86.219 125.552 86.6667 125 86.6667H91C90.4477 86.6667 90 86.219 90 85.6667V71Z"
        fill="var(--svg-fill-lightShade)" />
    <rect x="131" y="70" width="79" height="16.6667" rx="1" fill="var(--svg-fill-lightestShade)" />
    <rect x="90" y="91.6665" width="57.5" height="16.6667" rx="1" fill="var(--svg-fill-lightestShade)" />
    <rect x="152.5" y="91.6665" width="57.5" height="16.6667" rx="1" fill="var(--svg-fill-mediumShade)" />
    <path
        d="M90 114.333C90 113.781 90.4477 113.333 91 113.333H168C168.552 113.333 169 113.781 169 114.333V129C169 129.552 168.552 130 168 130H91C90.4477 130 90 129.552 90 129V114.333Z"
        fill="var(--svg-fill-lightShade)" />
    <rect x="174" y="113.333" width="36" height="16.6667" rx="1" fill="var(--svg-fill-lightestShade)" />
    <path
        d="M80.3536 100.354C80.5488 100.158 80.5488 99.8417 80.3536 99.6464L77.1716 96.4645C76.9763 96.2692 76.6597 96.2692 76.4645 96.4645C76.2692 96.6597 76.2692 96.9763 76.4645 97.1716L79.2929 100L76.4645 102.828C76.2692 103.024 76.2692 103.34 76.4645 103.536C76.6597 103.731 76.9763 103.731 77.1716 103.536L80.3536 100.354ZM44.6464 99.6464C44.4512 99.8417 44.4512 100.158 44.6464 100.354L47.8284 103.536C48.0237 103.731 48.3403 103.731 48.5355 103.536C48.7308 103.34 48.7308 103.024 48.5355 102.828L45.7071 100L48.5355 97.1716C48.7308 96.9763 48.7308 96.6597 48.5355 96.4645C48.3403 96.2692 48.0237 96.2692 47.8284 96.4645L44.6464 99.6464ZM80 99.5H45V100.5H80V99.5Z"
        fill="var(--svg-fill-accent-text)" />
    <path
        d="M149.646 60.3536C149.842 60.5488 150.158 60.5488 150.354 60.3536L153.536 57.1716C153.731 56.9763 153.731 56.6597 153.536 56.4645C153.34 56.2692 153.024 56.2692 152.828 56.4645L150 59.2929L147.172 56.4645C146.976 56.2692 146.66 56.2692 146.464 56.4645C146.269 56.6597 146.269 56.9763 146.464 57.1716L149.646 60.3536ZM150.354 34.6464C150.158 34.4512 149.842 34.4512 149.646 34.6464L146.464 37.8284C146.269 38.0237 146.269 38.3403 146.464 38.5355C146.66 38.7308 146.976 38.7308 147.172 38.5355L150 35.7071L152.828 38.5355C153.024 38.7308 153.34 38.7308 153.536 38.5355C153.731 38.3403 153.731 38.0237 153.536 37.8284L150.354 34.6464ZM150.5 60L150.5 35L149.5 35L149.5 60H150.5Z"
        fill="var(--svg-fill-accent-text)" />
    <path
        d="M149.646 165.354C149.842 165.549 150.158 165.549 150.354 165.354L153.536 162.172C153.731 161.976 153.731 161.66 153.536 161.464C153.34 161.269 153.024 161.269 152.828 161.464L150 164.293L147.172 161.464C146.976 161.269 146.66 161.269 146.464 161.464C146.269 161.66 146.269 161.976 146.464 162.172L149.646 165.354ZM150.354 139.646C150.158 139.451 149.842 139.451 149.646 139.646L146.464 142.828C146.269 143.024 146.269 143.34 146.464 143.536C146.66 143.731 146.976 143.731 147.172 143.536L150 140.707L152.828 143.536C153.024 143.731 153.34 143.731 153.536 143.536C153.731 143.34 153.731 143.024 153.536 142.828L150.354 139.646ZM150.5 165L150.5 140L149.5 140L149.5 165H150.5Z"
        fill="var(--svg-fill-accent-text)" />
    <path
        d="M255.354 100.354C255.549 100.158 255.549 99.8417 255.354 99.6464L252.172 96.4645C251.976 96.2692 251.66 96.2692 251.464 96.4645C251.269 96.6597 251.269 96.9763 251.464 97.1716L254.293 100L251.464 102.828C251.269 103.024 251.269 103.34 251.464 103.536C251.66 103.731 251.976 103.731 252.172 103.536L255.354 100.354ZM219.646 99.6464C219.451 99.8417 219.451 100.158 219.646 100.354L222.828 103.536C223.024 103.731 223.34 103.731 223.536 103.536C223.731 103.34 223.731 103.024 223.536 102.828L220.707 100L223.536 97.1716C223.731 96.9763 223.731 96.6597 223.536 96.4645C223.34 96.2692 223.024 96.2692 222.828 96.4645L219.646 99.6464ZM255 99.5H220V100.5H255V99.5Z"
        fill="var(--svg-fill-accent-text)" />
</svg>