<svg width="300" height="200" viewBox="0 0 300 200" fill="none" xmlns="http://www.w3.org/2000/svg">
    <rect width="300" height="200" fill="--svg-fill-background" />
    <rect x="40" y="30" width="220" height="140" rx="1" fill="var(--svg-fill-lightestShade)" />
    <path
        d="M230.959 169.871L228.343 169.871C228.433 169.6 228.614 169.42 228.884 169.239C229.426 168.969 230.418 169.239 230.959 169.871Z"
        fill="var(--svg-fill-lightShade)" />
    <path
        d="M259.64 144.436C259.098 144.527 258.647 144.076 258.647 143.444C258.647 142.903 258.918 142.542 259.459 142.542C259.64 142.542 259.73 142.542 259.82 142.542L259.82 144.346C259.82 144.436 259.73 144.436 259.64 144.436Z"
        fill="var(--svg-fill-lightShade)" />
    <path
        d="M219.505 169.871L218.693 169.871C218.693 169.78 218.693 169.6 218.783 169.51C218.783 169.42 219.144 169.239 219.234 169.239C219.324 169.42 219.595 169.69 219.505 169.871Z"
        fill="var(--svg-fill-lightShade)" />
    <path
        d="M255.49 142.903C255.49 143.444 255.04 143.895 254.498 143.895C253.957 143.895 253.777 143.534 253.777 142.993C253.777 142.452 254.138 141.911 254.679 141.911C255.13 141.911 255.581 142.362 255.49 142.903Z"
        fill="var(--svg-fill-lightShade)" />
    <path
        d="M250.53 158.867C251.252 158.867 251.703 159.318 251.703 160.22C251.703 160.851 251.432 161.302 250.891 161.392C250.71 161.392 250.44 161.302 250.26 161.212C250.53 161.572 250.71 162.023 250.53 162.294C250.169 162.835 249.718 163.106 248.997 162.925C248.366 162.745 248.185 161.933 248.456 161.302C248.636 160.851 249.177 160.671 249.718 160.851C249.448 160.58 249.177 160.31 249.177 160.129C249.177 159.318 249.628 158.867 250.53 158.867Z"
        fill="var(--svg-fill-lightShade)" />
    <path
        d="M258.196 141.37C258.467 141.55 259.278 141.911 259.098 142.452C258.918 142.993 258.106 142.813 257.745 142.813C257.294 142.813 257.114 142.272 257.294 141.821C257.384 141.28 257.745 141.099 258.196 141.37Z"
        fill="var(--svg-fill-lightShade)" />
    <path
        d="M246.381 161.122C246.471 161.573 246.02 162.114 245.57 162.114C245.028 162.114 244.758 161.754 244.758 161.303C244.758 160.852 244.938 160.581 245.389 160.491C245.93 160.401 246.381 160.671 246.381 161.122Z"
        fill="var(--svg-fill-lightShade)" />
    <path
        d="M249.447 146.782C250.259 146.692 250.8 147.233 250.89 148.045C250.98 149.037 250.349 149.759 249.267 149.849C248.455 149.939 247.643 149.308 247.463 148.496C247.463 147.774 248.455 146.872 249.447 146.782Z"
        fill="var(--svg-fill-lightShade)" />
    <path
        d="M233.845 147.322C233.845 147.052 234.296 146.781 234.476 146.781C234.656 146.781 235.017 146.962 235.017 147.142C235.017 147.413 234.747 147.593 234.566 147.593C234.386 147.773 233.845 147.593 233.845 147.322Z"
        fill="var(--svg-fill-lightShade)" />
    <path
        d="M237.543 147.774C237.543 148.044 237.092 148.225 236.911 148.225C236.821 148.225 236.46 148.044 236.46 147.864C236.46 147.684 236.731 147.503 236.911 147.413C237.092 147.413 237.543 147.503 237.543 147.774Z"
        fill="var(--svg-fill-lightShade)" />
    <path
        d="M257.564 155.8C257.113 155.8 256.572 155.259 256.572 154.808C256.572 153.816 257.023 153.095 257.655 153.185C258.286 153.185 259.007 154.087 259.007 154.718C259.007 155.169 258.105 155.891 257.564 155.8Z"
        fill="var(--svg-fill-lightShade)" />
    <path
        d="M259.639 155.35C259.729 155.26 259.819 155.079 259.91 154.989L259.91 156.703C259.639 156.432 259.459 155.801 259.639 155.35Z"
        fill="var(--svg-fill-lightShade)" />
    <path
        d="M239.166 149.578C238.986 149.939 238.174 149.848 237.903 149.668C237.723 149.578 237.633 149.127 237.723 148.766C237.813 148.405 238.174 148.135 238.535 148.405C238.715 148.676 239.256 149.217 239.166 149.578Z"
        fill="var(--svg-fill-lightShade)" />
    <path
        d="M253.776 165.541C254.227 165.541 254.859 165.722 255.039 165.992C255.31 166.353 255.219 166.984 255.31 167.616C255.67 167.616 256.121 167.706 256.302 167.976C256.392 168.067 256.572 168.157 256.572 168.337C256.753 168.878 257.023 169.329 257.023 169.961L254.859 169.961C254.949 169.6 255.039 169.239 255.129 168.968C255.039 168.788 254.859 168.608 254.768 168.337C254.137 168.157 253.506 168.157 253.235 167.886C252.874 167.616 252.694 167.074 252.514 166.533C252.514 165.902 253.055 165.451 253.776 165.541Z"
        fill="var(--svg-fill-lightShade)" />
    <path
        d="M259.91 167.976L259.91 169.87L259.639 169.87C259.639 169.78 259.549 169.69 259.549 169.69C259.279 168.878 259.369 168.337 259.91 167.976Z"
        fill="var(--svg-fill-lightShade)" />
    <path
        d="M240.429 169.058C240.519 168.698 240.88 168.517 241.331 168.427C241.331 168.247 241.331 167.976 241.331 167.796C241.511 167.255 242.052 167.074 242.593 167.255C243.134 167.435 243.315 167.886 243.134 168.337C243.044 168.517 242.954 168.607 242.864 168.788C243.134 169.058 243.134 169.419 243.044 169.87L240.609 169.87C240.429 169.509 240.429 169.239 240.429 169.058Z"
        fill="var(--svg-fill-lightShade)" />
    <path
        d="M258.016 145.159C258.377 145.79 258.377 146.331 257.655 146.782C257.114 146.602 256.483 146.331 256.753 145.61C256.934 145.069 257.475 145.069 258.016 145.159Z"
        fill="var(--svg-fill-lightShade)" />
    <path
        d="M245.389 166.623C246.381 166.262 246.471 166.262 247.102 167.255C246.922 167.705 246.651 168.066 246.561 168.517C246.291 169.148 245.479 169.599 244.757 169.329C244.306 169.148 243.855 168.517 244.036 168.066C244.487 167.525 244.667 166.894 245.389 166.623Z"
        fill="var(--svg-fill-lightShade)" />
    <path
        d="M250.8 165.181C251.612 165.902 251.522 166.714 250.89 167.526C251.612 168.518 251.792 169.329 251.612 169.871L246.381 169.871C246.561 169.6 246.832 169.42 247.193 169.239C248.094 168.698 248.996 168.157 249.898 167.706C249.087 165.722 249.177 165.451 250.8 165.181Z"
        fill="var(--svg-fill-lightShade)" />
    <path
        d="M247.824 164.008C248.185 163.737 248.636 163.647 248.997 164.008C249.267 164.279 249.448 164.82 249.448 165.09C249.267 165.902 248.455 165.722 247.824 165.812C247.373 165.09 247.193 164.459 247.824 164.008Z"
        fill="var(--svg-fill-lightShade)" />
    <path
        d="M257.655 164.639C258.196 164.819 258.467 165.631 258.196 166.533C258.106 166.984 257.294 167.345 256.843 167.164C256.212 166.984 255.761 166.172 255.851 165.631C256.032 165 257.114 164.368 257.655 164.639Z"
        fill="var(--svg-fill-lightShade)" />
    <path
        d="M259.91 161.573L259.91 165.181C259.639 165.091 259.368 164.91 259.278 164.73C259.098 164.459 259.098 164.189 259.098 163.918C258.737 164.008 258.376 163.918 258.106 163.738C257.835 163.467 257.474 163.287 257.294 163.106C256.843 163.648 255.851 163.648 255.4 163.377C254.949 163.106 254.498 161.212 254.769 160.491C255.4 160.04 256.302 159.499 257.204 158.958C257.294 158.867 257.655 159.048 257.745 159.138C258.196 159.499 258.557 159.679 259.188 159.589C259.459 159.589 259.729 159.679 259.91 159.86L259.91 161.573Z"
        fill="var(--svg-fill-lightShade)" />
    <path
        d="M259.369 148.314C258.557 148.044 258.106 147.232 258.377 146.601C258.647 145.97 259.278 145.519 259.82 145.519L259.82 148.314C259.729 148.314 259.549 148.314 259.369 148.314Z"
        fill="var(--svg-fill-lightShade)" />
    <path
        d="M253.506 147.323C253.236 147.955 252.604 148.135 251.702 147.774C250.981 147.504 250.62 146.963 250.891 146.422C251.071 145.971 252.424 145.249 252.785 145.339C253.506 145.7 253.777 146.512 253.506 147.323Z"
        fill="var(--svg-fill-lightShade)" />
    <path
        d="M251.973 168.157C251.793 168.067 251.522 167.977 251.522 167.706C251.522 167.435 251.793 167.345 251.883 167.345C252.064 167.345 252.515 167.435 252.515 167.796C252.515 168.157 252.064 168.157 251.973 168.157Z"
        fill="var(--svg-fill-lightShade)" />
    <path
        d="M252.695 140.378C253.506 140.739 253.867 141.731 253.416 142.813C253.055 143.715 252.334 144.076 251.432 143.715C251.252 143.625 250.981 143.535 250.891 143.354C250.711 144.166 249.899 144.978 249.087 145.068C248.095 145.158 247.283 144.347 247.193 143.084C247.103 142.182 247.734 141.46 248.636 141.28C249.177 141.19 249.809 141.46 250.26 141.911C250.26 141.731 250.26 141.46 250.35 141.28C250.801 140.559 251.973 140.108 252.695 140.378Z"
        fill="var(--svg-fill-lightShade)" />
    <path
        d="M252.244 162.475C251.883 162.204 251.703 161.663 251.974 161.212C252.154 160.941 252.605 160.671 252.875 160.671C253.687 160.761 253.777 161.392 253.868 162.114C253.417 162.475 252.875 162.926 252.244 162.475Z"
        fill="var(--svg-fill-lightShade)" />
    <path
        d="M259.098 131.54C258.917 131.179 259.278 130.728 259.729 130.728C259.819 130.728 259.819 130.728 259.909 130.728L259.909 132.261C259.549 132.171 259.278 131.81 259.098 131.54Z"
        fill="var(--svg-fill-lightShade)" />
    <path
        d="M257.294 109.083C257.835 109.083 258.286 109.443 258.286 109.984C258.286 110.616 257.925 111.067 257.474 111.067C256.933 111.067 256.392 110.706 256.392 110.165C256.302 109.714 256.753 109.083 257.294 109.083Z"
        fill="var(--svg-fill-lightShade)" />
    <path
        d="M239.527 110.616C239.527 110.075 240.248 109.985 240.429 109.985C240.699 109.985 241.06 110.255 241.06 110.526C241.24 110.977 240.79 111.338 240.429 111.338C240.248 111.338 239.527 111.157 239.527 110.616Z"
        fill="var(--svg-fill-lightShade)" />
    <path
        d="M249.448 111.247C249.719 110.976 251.162 111.788 251.252 112.239C251.342 112.69 250.44 113.051 249.719 112.78C248.997 112.6 249.268 111.608 249.448 111.247Z"
        fill="var(--svg-fill-lightShade)" />
    <path
        d="M246.2 114.223C246.02 114.584 244.667 114.764 244.487 114.223C244.306 113.772 244.577 113.141 244.938 113.05C245.479 112.78 246.381 113.772 246.2 114.223Z"
        fill="var(--svg-fill-lightShade)" />
    <path
        d="M259.729 115.124C259.549 114.493 259.729 113.952 259.909 113.411L259.909 115.665C259.819 115.485 259.729 115.305 259.729 115.124Z"
        fill="var(--svg-fill-lightShade)" />
    <path
        d="M248.275 122.25C248.185 121.979 248.546 121.167 248.997 121.167C249.448 121.167 249.899 121.528 249.899 122.069C249.899 122.52 249.538 122.971 249.087 122.791C248.726 122.701 248.365 122.52 248.275 122.25Z"
        fill="var(--svg-fill-lightShade)" />
    <path
        d="M259.278 98.0792C259.278 97.8087 259.729 97.5381 259.91 97.5381C259.91 97.5381 259.91 97.5381 260 97.5381L260 98.44C259.729 98.44 259.278 98.2596 259.278 98.0792Z"
        fill="var(--svg-fill-lightShade)" />
    <path
        d="M252.153 97.4483C251.251 97.4483 250.259 96.5464 250.259 95.7346C250.259 94.6524 250.981 93.7505 251.883 93.7505C252.694 93.7505 253.957 94.9229 254.047 95.7346C254.047 96.5464 253.145 97.4483 252.153 97.4483Z"
        fill="var(--svg-fill-lightShade)" />
    <path
        d="M256.392 84.19C256.302 84.4605 255.851 85.1821 255.58 85.1821C255.31 85.0919 254.949 84.4605 254.949 84.0998C254.859 83.6488 255.31 83.3783 255.851 83.4685C256.392 83.4685 256.482 83.8292 256.392 84.19Z"
        fill="var(--svg-fill-lightShade)" />
    <path
        d="M255.31 120.987C256.122 120.987 256.663 121.438 256.663 121.979C256.663 122.791 255.761 123.783 255.039 123.693C254.498 123.693 253.957 122.972 253.957 122.25C253.957 121.528 254.408 120.987 255.31 120.987Z"
        fill="var(--svg-fill-lightShade)" />
    <path
        d="M255.311 111.788C255.491 111.608 256.122 111.518 256.393 111.698C257.024 112.059 257.024 113.051 256.573 113.412C256.122 113.772 255.22 113.682 255.04 112.87C254.86 112.6 255.13 112.059 255.311 111.788Z"
        fill="var(--svg-fill-lightShade)" />
    <path
        d="M245.479 101.145C245.389 101.326 244.938 101.416 244.758 101.235C244.577 101.145 244.487 100.694 244.577 100.514C244.668 100.334 245.119 100.063 245.389 100.153C245.569 100.334 245.569 101.055 245.479 101.145Z"
        fill="var(--svg-fill-lightShade)" />
    <path
        d="M255.22 99.3418C255.31 98.8007 255.761 98.4399 256.302 98.4399C256.753 98.5301 257.204 98.9811 257.114 99.432C257.024 99.9732 256.573 100.334 256.032 100.244C255.49 100.244 255.13 99.883 255.22 99.3418Z"
        fill="var(--svg-fill-lightShade)" />
    <path
        d="M234.566 132.983C235.017 132.712 235.739 131.991 236.37 132.351C237.001 132.712 236.55 133.253 236.641 133.524C236.821 134.426 236.1 135.418 235.378 135.418C235.288 135.418 235.198 135.418 235.107 135.328C235.107 135.418 235.107 135.418 235.107 135.508C235.107 135.869 234.386 136.5 233.935 136.5C233.394 136.5 232.943 136.139 232.943 135.508C232.943 134.967 233.213 134.606 233.755 134.516C233.845 134.516 234.025 134.516 234.115 134.606C234.025 134.516 234.025 134.426 233.935 134.336C233.755 133.794 234.115 133.253 234.566 132.983Z"
        fill="var(--svg-fill-lightShade)" />
    <path
        d="M235.739 144.076C235.558 144.347 234.927 145.068 234.566 144.888C234.206 144.708 234.206 143.896 234.296 143.535C234.296 143.174 234.927 142.994 235.378 143.174C235.739 143.264 236.009 143.625 235.739 144.076Z"
        fill="var(--svg-fill-lightShade)" />
    <path
        d="M230.508 152.824C231.139 153.004 231.41 153.455 231.32 153.996C231.139 154.628 230.238 155.169 229.516 154.988C228.975 154.808 228.614 154.177 228.794 153.635C228.975 153.004 229.877 152.553 230.508 152.824Z"
        fill="var(--svg-fill-lightShade)" />
    <path
        d="M240.338 122.07C240.338 121.709 240.608 121.529 240.879 121.438C241.059 121.438 241.691 121.438 241.781 121.889C241.871 122.34 241.24 122.521 241.059 122.521C240.789 122.521 240.338 122.431 240.338 122.07Z"
        fill="var(--svg-fill-lightShade)" />
    <path
        d="M219.955 153.997C219.865 154.178 219.324 154.268 219.234 154.268C219.053 154.178 218.783 153.907 218.873 153.727C218.963 153.456 219.324 153.456 219.504 153.456C219.685 153.366 220.045 153.727 219.955 153.997Z"
        fill="var(--svg-fill-lightShade)" />
    <path
        d="M254.769 136.32C255.129 135.599 255.67 135.599 255.58 135.328C255.49 135.058 255.039 134.516 255.31 134.066C255.58 133.615 257.204 133.885 257.474 133.975C257.474 133.975 257.474 133.975 257.564 134.066C257.835 133.885 258.106 133.885 258.376 133.975C258.647 133.975 258.827 134.066 258.917 134.156C259.188 133.885 259.368 133.524 259.819 133.524L259.909 133.524L259.909 136.41C259.729 136.32 259.458 136.23 259.278 136.14C259.098 136.771 259.008 137.403 258.827 137.944C259.368 138.124 259.639 138.214 259.819 138.395L259.819 139.297C259.819 139.297 259.819 139.387 259.729 139.387C259.729 139.387 259.729 139.477 259.819 139.477L259.819 141.1C259.549 141.371 259.098 141.461 258.737 141.461C257.745 141.461 257.384 141.01 257.384 140.018C257.384 139.297 257.835 138.665 258.286 138.485C257.564 138.395 257.114 138.214 256.933 137.853C256.753 137.944 256.663 137.944 256.392 137.944C255.4 138.124 254.408 137.042 254.769 136.32Z"
        fill="var(--svg-fill-lightShade)" />
    <path
        d="M251.973 138.034C252.424 138.034 252.875 138.394 252.875 138.936C252.875 139.477 252.604 139.837 252.063 139.928C251.522 140.018 250.981 139.567 250.981 139.026C251.071 138.575 251.522 138.034 251.973 138.034Z"
        fill="var(--svg-fill-lightShade)" />
    <path
        d="M245.389 162.656C245.57 162.475 246.021 162.385 246.291 162.475C246.832 162.656 247.013 163.197 246.832 163.648C246.652 164.369 245.75 164.369 245.389 164.279C245.029 164.189 244.848 163.197 245.389 162.656Z"
        fill="var(--svg-fill-lightShade)" />
    <path
        d="M246.291 120.086C247.013 119.996 247.463 120.356 247.373 120.717C247.283 121.078 247.013 121.439 246.652 121.619C246.291 121.799 245.75 121.258 245.84 120.807C245.84 120.537 246.201 120.266 246.291 120.086Z"
        fill="var(--svg-fill-lightShade)" />
    <path
        d="M233.754 121.8C233.754 121.619 234.025 121.349 234.205 121.349C234.386 121.349 234.837 121.439 234.837 121.89C234.837 122.341 234.386 122.341 234.205 122.341C234.025 122.25 233.754 121.98 233.754 121.8Z"
        fill="var(--svg-fill-lightShade)" />
    <path
        d="M243.765 141.28C244.126 140.919 244.577 140.919 245.118 141.28C245.569 141.641 245.749 142.001 245.479 142.543C245.299 142.903 244.938 143.084 244.577 143.174C245.028 143.354 245.299 143.715 245.299 144.076C245.299 144.707 244.757 145.429 244.126 145.699C244.306 145.609 244.577 145.699 244.757 145.789C245.208 145.97 245.479 146.691 245.118 147.323C244.848 147.413 244.397 147.593 244.036 147.503C243.495 147.413 243.314 146.691 243.495 146.15C243.585 145.97 243.765 145.789 243.946 145.789C243.765 145.88 243.675 145.88 243.495 145.88C242.954 145.88 242.322 145.158 242.322 144.527C242.322 143.625 242.773 142.993 243.675 142.903C243.405 142.633 243.314 141.821 243.765 141.28Z"
        fill="var(--svg-fill-lightShade)" />
    <path
        d="M259.369 124.234C259.369 123.603 259.549 122.971 259.91 122.521L259.91 125.226C259.549 125.046 259.369 124.685 259.369 124.234Z"
        fill="var(--svg-fill-lightShade)" />
    <path
        d="M242.864 140.288C242.413 140.288 241.962 139.927 242.052 139.477C242.142 139.206 242.323 138.484 242.864 138.575C243.405 138.665 243.585 139.296 243.676 139.657C243.676 140.108 243.225 140.288 242.864 140.288Z"
        fill="var(--svg-fill-lightShade)" />
    <path
        d="M257.385 130.638C256.663 130.638 255.851 130.097 255.761 129.555C255.671 128.834 256.483 127.842 257.204 127.842C257.655 127.842 258.287 128.473 258.287 129.195C258.467 129.916 258.016 130.547 257.385 130.638Z"
        fill="var(--svg-fill-lightShade)" />
    <path
        d="M225.548 138.575C226.179 138.665 226.81 138.485 226.991 139.206C227.081 139.657 226.9 140.108 226.449 140.379C226.089 140.559 225.728 140.559 225.457 140.198C224.916 139.747 225.187 139.206 225.548 138.575Z"
        fill="var(--svg-fill-lightShade)" />
    <path
        d="M230.778 140.379C230.417 140.289 230.417 139.838 230.508 139.747C230.598 139.567 230.868 139.477 231.049 139.387C231.139 139.387 231.41 139.747 231.319 139.838C231.229 140.018 231.049 140.469 230.778 140.379Z"
        fill="var(--svg-fill-lightShade)" />
    <path
        d="M238.445 130.277C238.445 130.187 238.535 130.097 238.535 130.007C238.896 129.556 239.076 129.556 239.527 129.556C239.978 129.556 240.249 129.736 240.339 129.826C240.158 130.277 240.249 131.089 239.707 131.179C239.166 131.359 238.806 130.548 238.445 130.277Z"
        fill="var(--svg-fill-lightShade)" />
    <path
        d="M238.354 140.649C238.264 140.649 238.174 140.649 238.084 140.649C237.633 140.468 237.272 139.837 237.362 139.386C237.452 138.935 238.084 138.665 238.535 138.845C238.805 138.935 239.076 139.206 239.166 139.567C239.346 139.476 239.527 139.476 239.707 139.476C239.797 139.657 240.158 139.837 240.248 140.108C240.429 140.739 239.887 141.461 239.436 141.551C239.076 141.551 238.535 141.1 238.354 140.649Z"
        fill="var(--svg-fill-lightShade)" />
    <path
        d="M240.248 131.359C240.338 130.908 240.97 130.548 241.331 130.728C241.781 130.999 242.052 131.359 241.962 131.901C241.872 132.351 241.331 132.622 240.88 132.532C240.429 132.442 240.158 131.901 240.248 131.359Z"
        fill="var(--svg-fill-lightShade)" />
    <path
        d="M241.421 137.042C241.511 136.771 241.782 136.591 241.872 136.5C242.594 136.5 242.954 136.951 242.864 137.312C242.774 137.583 242.503 137.944 242.233 137.944C241.872 138.034 241.331 137.493 241.421 137.042Z"
        fill="var(--svg-fill-lightShade)" />
    <path
        d="M245.66 137.583L245.66 137.492C245.118 137.041 244.758 136.32 244.938 135.869C245.209 135.328 246.111 135.057 246.742 135.328C247.103 135.508 247.373 135.869 247.463 136.23C247.914 136.5 248.365 137.041 248.365 137.492C248.365 137.943 247.914 138.575 247.463 138.575C246.471 138.755 245.66 138.304 245.66 137.583Z"
        fill="var(--svg-fill-lightShade)" />
    <path
        d="M236.009 151.111C237.001 151.472 237.633 152.374 237.362 153.185C237.092 154.087 235.648 154.899 234.837 154.538C234.025 154.177 233.484 153.095 233.754 152.283C234.205 151.472 235.198 150.84 236.009 151.111Z"
        fill="var(--svg-fill-lightShade)" />
    <path
        d="M248.005 153.636C248.095 154.267 247.373 154.808 246.472 154.808C245.93 154.808 245.66 154.538 245.66 153.997C245.57 153.275 246.111 152.554 246.562 152.554C247.193 152.644 247.915 153.185 248.005 153.636Z"
        fill="var(--svg-fill-lightShade)" />
    <path
        d="M215.897 146.692C215.987 146.421 216.438 146.512 216.619 146.512C216.709 146.512 216.889 146.872 216.889 147.053C216.889 147.233 216.438 147.323 216.258 147.233C216.168 147.233 215.807 146.962 215.897 146.692Z"
        fill="var(--svg-fill-lightShade)" />
    <path
        d="M246.292 151.742C246.292 151.02 247.013 150.479 247.464 150.569C247.915 150.66 248.456 151.381 248.186 152.193C248.005 152.644 247.644 152.824 247.103 152.734C246.652 152.644 246.292 152.283 246.292 151.742Z"
        fill="var(--svg-fill-lightShade)" />
    <path
        d="M227.712 147.774C228.073 146.963 228.795 146.602 229.606 146.963C230.418 147.323 230.689 148.225 230.328 149.037C230.057 149.668 229.065 150.029 228.344 149.668C227.532 149.398 227.261 148.676 227.712 147.774Z"
        fill="var(--svg-fill-lightShade)" />
    <path
        d="M240.248 150.299C240.519 149.668 241.511 149.217 242.232 149.398C242.773 149.578 243.044 150.48 242.773 151.201C242.413 152.103 241.962 152.374 241.24 152.193C240.519 151.923 239.978 150.931 240.248 150.299Z"
        fill="var(--svg-fill-lightShade)" />
    <path
        d="M241.06 129.194C241.15 129.194 241.421 129.285 241.421 129.375C241.421 129.465 241.241 129.555 241.241 129.645C241.15 129.555 240.97 129.465 240.97 129.375C240.88 129.375 241.06 129.194 241.06 129.194Z"
        fill="var(--svg-fill-lightShade)" />
    <path
        d="M247.012 106.197C246.922 105.205 247.914 103.942 248.726 103.942C249.537 103.942 250.259 104.663 250.349 105.475C250.439 106.557 249.628 107.459 248.635 107.459C247.643 107.459 247.012 107.008 247.012 106.197Z"
        fill="var(--svg-fill-lightShade)" />
    <path
        d="M258.647 105.836C258.557 106.016 258.286 106.287 258.196 106.287C258.016 106.287 257.835 105.746 257.835 105.565C257.835 105.475 258.106 105.204 258.196 105.204C258.286 105.295 258.467 105.385 258.557 105.475L258.557 105.385C258.467 104.754 259.008 104.303 259.91 104.212L259.91 106.738C259.369 106.828 258.828 106.467 258.647 105.836Z"
        fill="var(--svg-fill-lightShade)" />
    <path
        d="M255.581 104.753C256.122 104.663 256.573 104.934 256.663 105.384C256.753 105.655 256.663 106.106 256.483 106.286C256.122 106.737 255.671 106.647 254.769 106.106C254.859 105.565 254.769 104.934 255.581 104.753Z"
        fill="var(--svg-fill-lightShade)" />
    <path
        d="M204.353 168.879C204.804 168.969 205.165 169.42 205.255 169.871L203 169.871C203.09 169.33 203.812 168.789 204.353 168.879Z"
        fill="var(--svg-fill-lightShade)" />
    <path
        d="M255.49 70.6617C255.49 70.8421 255.13 71.0224 254.949 71.0224C254.859 71.0224 254.408 70.842 254.498 70.5715C254.588 70.3009 255.039 70.2107 255.22 70.3009C255.31 70.2107 255.49 70.4813 255.49 70.6617Z"
        fill="var(--svg-fill-lightShade)" />
    <path
        d="M259.368 77.1555C259.188 77.1555 258.917 76.8849 258.917 76.7045C258.917 76.434 259.278 76.3438 259.459 76.3438C259.549 76.3438 259.819 76.434 259.91 76.6143L259.91 77.0653C259.729 77.0653 259.459 77.1555 259.368 77.1555Z"
        fill="var(--svg-fill-lightShade)" />
    <path
        d="M249.628 153.906C249.898 153.185 250.169 152.553 251.342 152.643C250.981 152.283 250.8 152.012 250.62 151.832C250.079 151.561 249.989 151.2 250.079 150.659C250.259 150.118 250.53 149.577 251.161 149.487C252.694 149.306 253.326 149.397 253.777 150.208C253.957 150.208 254.137 150.298 254.408 150.479C254.498 150.208 254.769 150.118 255.129 150.208C255.671 150.389 255.941 150.749 255.761 151.2C255.671 151.381 255.4 151.742 255.039 151.922C255.49 152.192 255.671 152.553 255.49 153.004C255.31 153.635 254.498 153.906 253.867 153.365C253.326 152.914 252.965 153.185 252.334 153.365C252.604 154.718 252.153 155.439 251.161 155.439C251.161 155.71 251.251 155.98 251.251 156.251C251.251 156.702 250.981 156.882 250.53 156.882C250.44 156.792 250.259 156.702 250.169 156.522C250.079 155.98 249.808 155.71 249.448 155.349C249.357 155.259 249.357 154.988 249.448 154.808C249.448 154.628 249.448 154.357 249.628 153.906Z"
        fill="var(--svg-fill-lightShade)" />
    <path
        d="M248.005 127.572C247.373 126.76 247.373 125.678 248.275 125.137C249.358 124.506 250.259 124.866 250.801 125.768C251.522 126.941 250.169 127.572 250.981 128.113C251.793 128.654 251.883 127.753 252.965 128.654C253.957 129.556 253.867 130.909 252.965 131.18C252.063 131.45 251.522 130.819 251.342 130.909C251.161 130.999 250.53 131.811 249.899 131.27C248.726 130.188 249.899 129.376 249.718 129.015C249.267 128.474 248.365 128.113 248.005 127.572Z"
        fill="var(--svg-fill-lightShade)" />
    <path
        d="M244.758 127.842C245.299 127.752 246.021 128.564 246.111 129.376C246.201 130.097 245.75 130.728 245.119 130.728C244.307 130.819 243.405 130.097 243.405 129.466C243.405 128.654 244.037 127.933 244.758 127.842Z"
        fill="var(--svg-fill-lightShade)" />
    <path
        d="M238.986 119.364C238.896 118.643 239.076 118.192 239.978 118.282C240.88 118.372 240.88 119.725 240.519 119.996C240.159 120.266 239.076 119.815 238.986 119.364Z"
        fill="var(--svg-fill-lightShade)" />
    <path
        d="M249.808 117.831C249.177 116.839 249.538 115.847 250.62 115.757C251.251 115.666 251.973 115.666 252.694 115.757C253.416 115.847 254.047 116.839 254.047 117.56C254.047 118.011 253.867 118.372 253.416 118.462C252.334 118.643 251.251 118.643 250.169 118.192C249.989 118.102 249.808 117.831 249.808 117.831Z"
        fill="var(--svg-fill-lightShade)" />
    <path
        d="M259.91 118.552C259.279 118.552 258.467 118.101 258.467 117.56C258.467 116.839 259.189 115.937 259.82 115.847L259.91 115.847L259.91 118.552Z"
        fill="var(--svg-fill-lightShade)" />
    <path
        d="M247.734 115.757C247.824 115.667 248.366 115.577 248.546 115.757C248.726 115.937 248.456 116.388 248.275 116.478C248.095 116.569 247.734 116.569 247.644 116.478C247.464 116.298 247.644 115.937 247.734 115.757Z"
        fill="var(--svg-fill-lightShade)" />
    <path
        d="M246.743 145.519C246.923 144.978 247.554 144.798 248.005 144.978C248.546 145.249 248.727 145.88 248.546 146.331C248.276 146.782 247.644 147.053 247.284 146.782C246.833 146.692 246.562 145.97 246.743 145.519Z"
        fill="var(--svg-fill-lightShade)" />
    <path
        d="M208.772 169.149C208.953 169.239 209.133 169.69 209.133 169.871L207.96 169.871L207.96 169.781C208.051 169.6 208.502 169.059 208.772 169.149Z"
        fill="var(--svg-fill-lightShade)" />
    <path
        d="M257.565 131.63C257.836 131.81 258.106 132.261 258.016 132.531C257.926 132.802 257.475 132.982 257.205 133.163C256.483 132.892 256.483 132.531 256.573 132.171C256.844 131.81 257.205 131.449 257.565 131.63Z"
        fill="var(--svg-fill-lightShade)" />
    <path
        d="M248.094 157.154C248.094 157.334 248.185 157.424 248.185 157.514L248.275 157.605C248.365 157.785 248.545 157.875 248.816 157.965C249.357 158.236 249.537 159.048 249.177 159.589C248.816 160.13 248.455 160.04 248.004 159.859C247.643 159.679 247.283 159.408 247.012 159.408C246.2 159.408 245.389 159.499 244.487 159.589C243.855 161.483 243.224 161.844 241.781 160.852C240.969 160.31 240.789 159.228 241.601 158.597C242.142 158.146 242.863 157.875 243.765 157.424C243.855 156.522 244.036 155.53 245.028 155.17C246.291 154.719 247.824 155.62 248.094 157.154Z"
        fill="var(--svg-fill-lightShade)" />
    <path
        d="M224.014 169.689C224.194 169.779 224.285 169.779 224.375 169.869L222.391 169.869C222.932 169.599 223.473 169.509 224.014 169.689Z"
        fill="var(--svg-fill-lightShade)" />
    <path
        d="M229.606 165.181C230.237 165.271 230.869 165.09 231.049 165.812C231.139 166.263 230.959 166.714 230.508 166.984C230.147 167.165 229.787 167.165 229.516 166.804C228.975 166.263 229.245 165.812 229.606 165.181Z"
        fill="var(--svg-fill-lightShade)" />
    <path
        d="M233.575 166.623C234.386 166.984 234.657 167.615 235.018 168.337C235.288 168.878 234.747 169.419 235.469 169.6C235.739 169.69 236.01 169.78 236.28 169.87L232.763 169.87C232.582 169.239 231.861 168.878 231.951 168.066C232.041 167.074 232.763 166.263 233.575 166.623Z"
        fill="var(--svg-fill-lightShade)" />
    <path
        d="M252.514 132.261C252.604 132.08 252.965 131.9 253.145 131.99C253.326 131.99 253.777 132.441 253.687 132.622C253.596 132.802 253.145 132.892 253.055 132.802C252.785 132.712 252.424 132.531 252.514 132.261Z"
        fill="var(--svg-fill-lightShade)" />
    <path
        d="M258.106 149.487C258.286 148.676 258.557 148.225 259.008 148.225C259.278 148.225 259.729 148.676 259.909 149.127L259.909 149.758C259.639 150.119 259.098 150.389 258.737 150.389C258.286 150.389 258.015 149.938 258.106 149.487Z"
        fill="var(--svg-fill-lightShade)" />
    <path
        d="M217.972 165.181C217.881 164.911 218.242 164.369 218.513 164.009C218.603 163.918 218.693 163.648 219.054 163.828C219.415 164.009 219.775 164.82 219.415 165.271C219.144 165.722 218.242 165.722 217.972 165.181Z"
        fill="var(--svg-fill-lightShade)" />
    <path
        d="M253.597 157.333C253.597 156.521 254.138 156.161 255.13 156.161C255.671 156.161 256.302 156.792 256.302 157.243C256.302 157.874 255.4 159.047 254.859 159.047C254.228 158.957 253.597 158.145 253.597 157.333Z"
        fill="var(--svg-fill-lightShade)" />
    <path
        d="M258.286 156.161C258.737 156.432 259.098 157.153 258.918 157.604C258.737 157.965 257.745 158.326 257.294 158.145C256.934 157.965 256.753 157.153 256.934 156.792C257.114 156.161 257.835 155.891 258.286 156.161Z"
        fill="var(--svg-fill-lightShade)" />
    <path
        d="M250.259 134.877C250.349 134.336 250.71 134.065 251.161 133.975C251.882 133.885 252.694 134.336 252.784 134.787C252.965 135.779 251.972 136.32 251.431 136.5C250.98 136.771 250.169 135.689 250.259 134.877Z"
        fill="var(--svg-fill-lightShade)" />
    <path
        d="M243.856 133.524C243.856 132.982 244.307 132.802 244.668 132.892C244.938 132.892 245.75 133.163 245.75 133.524C245.75 133.884 244.938 134.335 244.668 134.335C244.217 134.425 243.856 133.975 243.856 133.524Z"
        fill="var(--svg-fill-lightShade)" />
    <path
        d="M213.282 168.517C213.462 168.066 213.913 167.976 214.364 168.066C214.725 168.156 214.905 168.517 214.815 168.968C214.725 169.419 214.274 169.69 213.913 169.599C213.372 169.419 213.101 168.878 213.282 168.517Z"
        fill="var(--svg-fill-lightShade)" />
    <path
        d="M213.372 160.04C213.372 159.589 213.823 159.408 214.364 159.589C214.905 159.769 214.905 160.13 214.724 160.491C214.544 160.761 214.003 161.392 213.732 161.212C213.552 161.122 213.372 160.31 213.372 160.04Z"
        fill="var(--svg-fill-lightShade)" />
    <path
        d="M222.03 157.965C222.12 157.605 222.481 157.424 222.932 157.695C223.293 157.875 223.563 158.236 223.383 158.597C223.202 158.867 222.571 159.498 222.21 159.408C221.85 159.228 221.94 158.236 222.03 157.965Z"
        fill="var(--svg-fill-lightShade)" />
    <path
        d="M225.457 159.138C225.638 158.506 226.269 158.236 226.81 158.506C227.261 158.687 227.532 159.318 227.351 159.769C227.171 160.22 226.449 160.581 225.908 160.31C225.457 160.13 225.277 159.589 225.457 159.138Z"
        fill="var(--svg-fill-lightShade)" />
    <path
        d="M234.927 155.891C235.468 155.801 235.919 155.981 236.1 156.522C236.19 156.703 236.19 156.973 236.1 157.153C235.829 157.514 235.378 157.875 235.017 158.236C235.108 159.408 234.657 160.31 233.935 160.4C233.214 160.49 232.222 159.589 232.131 158.777C232.041 157.965 232.402 157.695 234.116 157.424C234.206 156.703 234.116 155.981 234.927 155.891Z"
        fill="var(--svg-fill-lightShade)" />
    <path
        d="M240.699 155.982C240.97 156.072 241.241 156.433 241.241 156.703C241.331 156.884 241.06 157.334 240.88 157.425C240.339 157.695 239.888 157.425 239.617 156.884C239.798 156.433 239.978 155.891 240.699 155.982Z"
        fill="var(--svg-fill-lightShade)" />
    <path
        d="M225.999 155.53C225.999 155.44 226.179 155.35 226.269 155.35C226.36 155.44 226.54 155.53 226.45 155.71C226.36 155.891 226.179 155.891 226.089 155.801C225.999 155.801 225.909 155.62 225.999 155.53Z"
        fill="var(--svg-fill-lightShade)" />
    <path
        d="M237.091 159.95C237.272 159.319 238.173 158.868 238.895 159.048C239.436 159.229 239.887 160.04 239.707 160.762C239.617 161.213 238.895 161.664 238.354 161.574C237.452 161.303 236.911 160.582 237.091 159.95Z"
        fill="var(--svg-fill-lightShade)" />
    <path
        d="M228.343 163.917C228.253 164.098 227.622 164.549 227.351 164.459C227.081 164.368 226.991 163.557 227.081 163.376C227.351 163.196 227.892 162.835 228.073 163.015C228.253 163.196 228.434 163.737 228.343 163.917Z"
        fill="var(--svg-fill-lightShade)" />
    <path
        d="M223.293 163.197C223.564 162.656 224.826 161.934 225.277 162.115C225.818 162.385 226.089 163.377 225.728 164.189C225.458 164.911 224.736 165.091 223.924 164.64C223.383 164.46 223.113 163.648 223.293 163.197Z"
        fill="var(--svg-fill-lightShade)" />
    <path
        d="M239.077 158.597C239.077 158.236 239.708 157.605 240.249 157.695C240.79 157.785 241.151 158.597 240.79 159.048C240.61 159.228 239.979 159.138 239.528 159.048C239.347 159.048 239.077 159.048 239.077 158.597Z"
        fill="var(--svg-fill-lightShade)" />
    <path
        d="M239.888 161.482C240.7 160.941 241.421 161.031 241.872 161.663C242.413 162.384 242.323 163.196 241.601 163.827C240.88 164.459 240.158 165.09 239.527 165.902C239.076 166.533 238.084 166.894 237.633 166.623C237.182 166.262 237.363 165.36 237.633 165.27C238.174 164.819 237.904 164.368 237.904 163.917C237.904 163.466 238.174 163.015 238.445 162.655C238.625 162.384 238.896 162.204 239.076 162.023C239.347 161.843 239.617 161.663 239.888 161.482Z"
        fill="var(--svg-fill-lightShade)" />
    <path
        d="M233.304 162.836C233.664 163.016 234.115 164.188 233.935 164.639C233.755 165.18 233.213 165.271 232.492 165C231.951 164.82 231.68 164.549 231.59 164.188C231.5 164.369 231.229 164.549 231.049 164.459C230.778 164.369 230.778 164.008 230.778 163.828C230.778 163.647 231.139 163.286 231.41 163.286C231.5 163.286 231.59 163.467 231.59 163.647C231.59 163.647 231.59 163.647 231.59 163.557C231.951 162.926 232.672 162.565 233.304 162.836Z"
        fill="var(--svg-fill-lightShade)" />
    <path
        d="M70 51C70 50.4477 70.4477 50 71 50H166C166.552 50 167 50.4477 167 51V54C167 54.5523 166.552 55 166 55H71C70.4477 55 70 54.5523 70 54V51Z"
        fill="var(--svg-fill-mediumShade)" />
    <rect x="70.5" y="60.5" width="76.5" height="19" rx="1" fill="var(--svg-fill-teal-decor)" stroke="var(--svg-fill-teal)" />
    <rect x="153" y="60.5" width="76.5" height="19" rx="1" stroke="var(--svg-fill-darkShade)" />
    <path d="M212 68.5L216 72.5L220 68.5" stroke="var(--svg-fill-darkShade)" stroke-linecap="round" />
    <path
        d="M70 91C70 90.4477 70.4477 90 71 90H126C126.552 90 127 90.4477 127 91V94C127 94.5523 126.552 95 126 95H71C70.4477 95 70 94.5523 70 94V91Z"
        fill="var(--svg-fill-mediumShade)" />
    <rect x="70.5" y="100.5" width="159" height="19" rx="1" stroke="var(--svg-fill-darkShade)" />
    <path
        d="M131.62 110.403L128.399 109.622L128.86 108.197L131.978 109.426L131.765 106H133.286L133.038 109.475L136.139 108.254L136.6 109.703L133.337 110.468L135.524 113.105L134.277 114L132.448 111.046L130.637 113.927L129.39 113.064L131.62 110.403Z"
        fill="var(--svg-fill-darkShade)" />
    <path
        d="M119.27 110.403L116.049 109.622L116.51 108.197L119.628 109.426L119.415 106H120.935L120.688 109.475L123.789 108.254L124.25 109.703L120.987 110.468L123.174 113.105L121.926 114L120.098 111.046L118.287 113.927L117.04 113.064L119.27 110.403Z"
        fill="var(--svg-fill-darkShade)" />
    <path
        d="M106.92 110.403L103.7 109.622L104.161 108.197L107.279 109.426L107.066 106H108.586L108.339 109.475L111.44 108.254L111.901 109.703L108.638 110.468L110.825 113.105L109.577 114L107.749 111.046L105.938 113.927L104.691 113.064L106.92 110.403Z"
        fill="var(--svg-fill-darkShade)" />
    <path
        d="M94.5704 110.403L91.3496 109.622L91.8109 108.197L94.9292 109.426L94.7156 106H96.2363L95.9885 109.475L99.0897 108.254L99.551 109.703L96.2875 110.468L98.4746 113.105L97.2273 114L95.399 111.046L93.5879 113.927L92.3406 113.064L94.5704 110.403Z"
        fill="var(--svg-fill-darkShade)" />
    <path
        d="M82.2208 110.403L79 109.622L79.4613 108.197L82.5796 109.426L82.366 106H83.8867L83.6389 109.475L86.7401 108.254L87.2014 109.703L83.9379 110.468L86.125 113.105L84.8777 114L83.0494 111.046L81.2383 113.927L79.991 113.064L82.2208 110.403Z"
        fill="var(--svg-fill-darkShade)" />
    <rect x="70" y="130" width="77" height="20" rx="1" fill="var(--svg-fill-teal)" />
    <rect x="85" y="137" width="47" height="6" rx="1" fill="--svg-fill-background" />
</svg>