<svg width="300" height="200" viewBox="0 0 300 200" fill="none" xmlns="http://www.w3.org/2000/svg">
    <rect width="300" height="200" fill="var(--svg-fill-background)" />
    <rect x="157" y="135" width="80" height="10" rx="5" fill="var(--svg-fill-teal)" />
    <path
        d="M260 135.625C260 135.791 259.934 135.95 259.817 136.067C259.7 136.184 259.541 136.25 259.375 136.25C259.209 136.25 259.05 136.184 258.933 136.067C258.816 135.95 258.75 135.791 258.75 135.625V132.134L253.568 137.317C253.451 137.434 253.292 137.5 253.126 137.5C252.96 137.5 252.801 137.434 252.684 137.317C252.566 137.2 252.5 137.041 252.5 136.875C252.5 136.709 252.566 136.55 252.684 136.433L257.866 131.25H254.375C254.209 131.25 254.05 131.184 253.933 131.067C253.816 130.95 253.75 130.791 253.75 130.625C253.75 130.459 253.816 130.3 253.933 130.183C254.05 130.066 254.209 130 254.375 130H259.375C259.541 130 259.7 130.066 259.817 130.183C259.934 130.3 260 130.459 260 130.625V135.625ZM256.875 137.5C256.709 137.5 256.55 137.566 256.433 137.683C256.316 137.8 256.25 137.959 256.25 138.125V143.75H246.25V133.75H251.875C252.041 133.75 252.2 133.684 252.317 133.567C252.434 133.45 252.5 133.291 252.5 133.125C252.5 132.959 252.434 132.8 252.317 132.683C252.2 132.566 252.041 132.5 251.875 132.5H246.25C245.918 132.5 245.601 132.632 245.366 132.866C245.132 133.101 245 133.418 245 133.75V143.75C245 144.082 245.132 144.399 245.366 144.634C245.601 144.868 245.918 145 246.25 145H256.25C256.582 145 256.899 144.868 257.134 144.634C257.368 144.399 257.5 144.082 257.5 143.75V138.125C257.5 137.959 257.434 137.8 257.317 137.683C257.2 137.566 257.041 137.5 256.875 137.5Z"
        fill="var(--svg-fill-teal-text)" />
    <rect x="68" y="40" width="80" height="10" rx="5" fill="var(--svg-fill-primary-text)" />
    <path
        d="M46.4286 44.2857H55C55.1894 44.2857 55.3711 44.361 55.5051 44.4949C55.639 44.6289 55.7143 44.8106 55.7143 45C55.7143 45.1894 55.639 45.3711 55.5051 45.5051C55.3711 45.639 55.1894 45.7143 55 45.7143H46.4286C46.2391 45.7143 46.0574 45.639 45.9235 45.5051C45.7895 45.3711 45.7143 45.1894 45.7143 45C45.7143 44.8106 45.7895 44.6289 45.9235 44.4949C46.0574 44.361 46.2391 44.2857 46.4286 44.2857ZM48.5714 48.5714H45C44.0528 48.5714 43.1444 48.1952 42.4746 47.5254C41.8048 46.8556 41.4286 45.9472 41.4286 45C41.4286 44.0528 41.8048 43.1444 42.4746 42.4746C43.1444 41.8048 44.0528 41.4286 45 41.4286H48.5714C48.7609 41.4286 48.9425 41.3533 49.0765 41.2194C49.2105 41.0854 49.2857 40.9037 49.2857 40.7143C49.2857 40.5248 49.2105 40.3432 49.0765 40.2092C48.9425 40.0753 48.7609 40 48.5714 40H45C43.6739 40 42.4021 40.5268 41.4645 41.4645C40.5268 42.4021 40 43.6739 40 45C40 46.3261 40.5268 47.5979 41.4645 48.5355C42.4021 49.4732 43.6739 50 45 50H48.5714C48.7609 50 48.9425 49.9247 49.0765 49.7908C49.2105 49.6568 49.2857 49.4752 49.2857 49.2857C49.2857 49.0963 49.2105 48.9146 49.0765 48.7806C48.9425 48.6467 48.7609 48.5714 48.5714 48.5714ZM56.4286 40H52.8571C52.6677 40 52.486 40.0753 52.3521 40.2092C52.2181 40.3432 52.1429 40.5248 52.1429 40.7143C52.1429 40.9037 52.2181 41.0854 52.3521 41.2194C52.486 41.3533 52.6677 41.4286 52.8571 41.4286H56.4286C57.3758 41.4286 58.2842 41.8048 58.954 42.4746C59.6237 43.1444 60 44.0528 60 45C60 45.9472 59.6237 46.8556 58.954 47.5254C58.2842 48.1952 57.3758 48.5714 56.4286 48.5714H52.8571C52.6677 48.5714 52.486 48.6467 52.3521 48.7806C52.2181 48.9146 52.1429 49.0963 52.1429 49.2857C52.1429 49.4752 52.2181 49.6568 52.3521 49.7908C52.486 49.9247 52.6677 50 52.8571 50H56.4286C57.7547 50 59.0264 49.4732 59.9641 48.5355C60.9018 47.5979 61.4286 46.3261 61.4286 45C61.4286 43.6739 60.9018 42.4021 59.9641 41.4645C59.0264 40.5268 57.7547 40 56.4286 40Z"
        fill="var(--svg-fill-primary-text)" />
    <rect x="40" y="150" width="80" height="10" rx="1" fill="var(--svg-fill-lightShade)" />
    <rect x="40" y="120" width="195" height="10" rx="1" fill="var(--svg-fill-lightShade)" />
    <path
        d="M40 140C40 137.239 42.2386 135 45 135H145C147.761 135 150 137.239 150 140C150 142.761 147.761 145 145 145H45C42.2386 145 40 142.761 40 140Z"
        fill="var(--svg-fill-mediumShade)" />
    <rect x="85" y="65" width="175" height="40" rx="1" fill="var(--svg-fill-lightShade)" />
    <circle cx="60" cy="85" r="20" fill="var(--svg-fill-lightShade)" />
</svg>