<svg width="300" height="200" viewBox="0 0 300 200" fill="none" xmlns="http://www.w3.org/2000/svg">
    <rect width="300" height="200" fill="var(--svg-fill-background)" />
    <path d="M40 31C40 30.4477 40.4477 30 41 30H166C166.552 30 167 30.4477 167 31V93H40V31Z"
        fill="var(--svg-fill-primary-background)" />
    <rect x="60" y="42" width="87" height="10" rx="1" fill="var(--svg-fill-primary-text)" />
    <rect x="60" y="60" width="87" height="5" rx="0.5" fill="var(--svg-fill-primary)" />
    <rect x="60" y="68" width="87" height="5" rx="0.5" fill="var(--svg-fill-primary)" />
    <rect x="60" y="76" width="43" height="5" rx="0.5" fill="var(--svg-fill-primary)" />
    <rect x="45" y="108" width="127" height="62" rx="1" fill="var(--svg-fill-lightestShade)" />
    <g clipPath="url(#clip0_1377_21531)">
        <path
            d="M171.695 145.494L171.695 143.296C171.469 143.372 171.318 143.523 171.167 143.751C170.941 144.205 171.167 145.039 171.695 145.494Z"
            fill="var(--svg-fill-lightShade)" />
        <path
            d="M150.412 169.592C150.488 169.138 150.11 168.759 149.582 168.759C149.129 168.759 148.827 168.986 148.827 169.441C148.827 169.592 148.827 169.668 148.827 169.744L150.337 169.744C150.412 169.744 150.412 169.668 150.412 169.592Z"
            fill="var(--svg-fill-lightShade)" />
        <path
            d="M171.696 135.869L171.696 135.187C171.62 135.187 171.469 135.187 171.394 135.262C171.318 135.262 171.167 135.565 171.167 135.641C171.318 135.717 171.545 135.944 171.696 135.869Z"
            fill="var(--svg-fill-lightShade)" />
        <path
            d="M149.129 166.106C149.581 166.106 149.959 165.727 149.959 165.272C149.959 164.818 149.657 164.666 149.204 164.666C148.751 164.666 148.298 164.969 148.298 165.424C148.298 165.803 148.676 166.182 149.129 166.106Z"
            fill="var(--svg-fill-lightShade)" />
        <path
            d="M162.487 161.938C162.487 162.544 162.865 162.923 163.619 162.923C164.148 162.923 164.525 162.696 164.601 162.241C164.601 162.09 164.525 161.862 164.45 161.711C164.751 161.938 165.129 162.09 165.355 161.938C165.808 161.635 166.035 161.256 165.884 160.65C165.733 160.119 165.053 159.968 164.525 160.195C164.148 160.347 163.997 160.801 164.148 161.256C163.921 161.029 163.695 160.801 163.544 160.801C162.865 160.801 162.487 161.18 162.487 161.938Z"
            fill="var(--svg-fill-lightShade)" />
        <path
            d="M147.846 168.38C147.997 168.608 148.299 169.29 148.751 169.138C149.204 168.987 149.053 168.305 149.053 168.001C149.053 167.623 148.6 167.471 148.223 167.623C147.77 167.698 147.619 168.001 147.846 168.38Z"
            fill="var(--svg-fill-lightShade)" />
        <path
            d="M164.375 158.452C164.752 158.528 165.205 158.149 165.205 157.77C165.205 157.315 164.903 157.088 164.526 157.088C164.148 157.088 163.922 157.239 163.846 157.618C163.771 158.073 163.997 158.452 164.375 158.452Z"
            fill="var(--svg-fill-lightShade)" />
        <path
            d="M152.375 161.029C152.299 161.711 152.752 162.165 153.432 162.241C154.262 162.317 154.865 161.786 154.941 160.877C155.016 160.195 154.488 159.513 153.809 159.361C153.205 159.361 152.45 160.195 152.375 161.029Z"
            fill="var(--svg-fill-lightShade)" />
        <path
            d="M152.827 147.918C152.601 147.918 152.375 148.297 152.375 148.448C152.375 148.6 152.525 148.903 152.676 148.903C152.903 148.903 153.054 148.676 153.054 148.524C153.205 148.373 153.054 147.918 152.827 147.918Z"
            fill="var(--svg-fill-lightShade)" />
        <path
            d="M153.205 151.026C153.431 151.026 153.582 150.647 153.582 150.495C153.582 150.419 153.431 150.116 153.28 150.116C153.129 150.116 152.978 150.344 152.903 150.495C152.903 150.647 152.978 151.026 153.205 151.026Z"
            fill="var(--svg-fill-lightShade)" />
        <path
            d="M159.922 167.849C159.922 167.47 159.469 167.016 159.091 167.016C158.261 167.016 157.657 167.395 157.733 167.925C157.733 168.456 158.488 169.062 159.016 169.062C159.393 169.062 159.997 168.304 159.922 167.849Z"
            fill="var(--svg-fill-lightShade)" />
        <path
            d="M159.545 169.592C159.469 169.668 159.318 169.744 159.243 169.82L160.677 169.82C160.45 169.592 159.922 169.441 159.545 169.592Z"
            fill="var(--svg-fill-lightShade)" />
        <path
            d="M154.714 152.389C155.016 152.237 154.941 151.555 154.79 151.328C154.714 151.176 154.337 151.1 154.035 151.176C153.733 151.252 153.507 151.555 153.733 151.858C153.96 152.01 154.412 152.465 154.714 152.389Z"
            fill="var(--svg-fill-lightShade)" />
        <path
            d="M168.073 164.666C168.073 165.045 168.224 165.576 168.45 165.727C168.752 165.955 169.28 165.879 169.808 165.955C169.808 166.258 169.884 166.637 170.11 166.788C170.186 166.864 170.261 167.016 170.412 167.016C170.865 167.167 171.242 167.395 171.771 167.395L171.771 165.576C171.469 165.652 171.167 165.727 170.941 165.803C170.79 165.727 170.639 165.576 170.412 165.5C170.261 164.97 170.261 164.439 170.035 164.212C169.808 163.909 169.356 163.757 168.903 163.605C168.374 163.605 167.997 164.06 168.073 164.666Z"
            fill="var(--svg-fill-lightShade)" />
        <path
            d="M170.11 169.82L171.695 169.82L171.695 169.593C171.62 169.593 171.544 169.517 171.544 169.517C170.865 169.289 170.412 169.365 170.11 169.82Z"
            fill="var(--svg-fill-lightShade)" />
        <path
            d="M171.016 153.45C170.714 153.526 170.563 153.829 170.488 154.208C170.337 154.208 170.111 154.208 169.96 154.208C169.507 154.36 169.356 154.814 169.507 155.269C169.658 155.724 170.035 155.875 170.412 155.724C170.563 155.648 170.639 155.572 170.79 155.496C171.016 155.724 171.318 155.724 171.695 155.648L171.695 153.602C171.394 153.45 171.167 153.45 171.016 153.45Z"
            fill="var(--svg-fill-lightShade)" />
        <path
            d="M151.017 168.229C151.545 168.532 151.998 168.532 152.375 167.926C152.224 167.471 151.998 166.94 151.394 167.168C150.941 167.319 150.941 167.774 151.017 168.229Z"
            fill="var(--svg-fill-lightShade)" />
        <path
            d="M168.978 157.618C168.676 158.452 168.676 158.528 169.507 159.058C169.884 158.907 170.186 158.679 170.563 158.603C171.092 158.376 171.469 157.694 171.243 157.088C171.092 156.709 170.563 156.33 170.186 156.481C169.733 156.86 169.205 157.012 168.978 157.618Z"
            fill="var(--svg-fill-lightShade)" />
        <path
            d="M167.771 162.166C168.375 162.848 169.054 162.772 169.733 162.241C170.563 162.848 171.243 162.999 171.696 162.848L171.696 158.452C171.469 158.604 171.318 158.831 171.167 159.134C170.714 159.892 170.262 160.65 169.884 161.408C168.224 160.726 167.997 160.801 167.771 162.166Z"
            fill="var(--svg-fill-lightShade)" />
        <path
            d="M166.79 159.665C166.564 159.968 166.488 160.347 166.79 160.65C167.016 160.877 167.469 161.029 167.696 161.029C168.375 160.877 168.224 160.195 168.299 159.665C167.696 159.286 167.167 159.134 166.79 159.665Z"
            fill="var(--svg-fill-lightShade)" />
        <path
            d="M167.318 167.926C167.468 168.38 168.148 168.608 168.902 168.38C169.28 168.305 169.582 167.623 169.431 167.244C169.28 166.713 168.601 166.334 168.148 166.41C167.619 166.562 167.091 167.471 167.318 167.926Z"
            fill="var(--svg-fill-lightShade)" />
        <path
            d="M164.752 169.82L167.771 169.82C167.695 169.593 167.544 169.365 167.393 169.289C167.167 169.138 166.94 169.138 166.714 169.138C166.789 168.835 166.714 168.532 166.563 168.304C166.337 168.077 166.186 167.774 166.035 167.622C166.488 167.243 166.488 166.41 166.261 166.031C166.035 165.652 164.45 165.273 163.846 165.5C163.469 166.031 163.016 166.789 162.563 167.546C162.488 167.622 162.639 167.925 162.714 168.001C163.016 168.38 163.167 168.683 163.091 169.214C163.091 169.441 163.167 169.668 163.318 169.82L164.752 169.82Z"
            fill="var(--svg-fill-lightShade)" />
        <path
            d="M153.657 169.366C153.431 168.683 152.751 168.305 152.223 168.532C151.695 168.759 151.317 169.29 151.317 169.744L153.657 169.744C153.657 169.669 153.657 169.517 153.657 169.366Z"
            fill="var(--svg-fill-lightShade)" />
        <path
            d="M152.828 164.439C153.356 164.212 153.507 163.681 153.205 162.924C152.979 162.317 152.526 162.014 152.073 162.242C151.696 162.393 151.092 163.53 151.168 163.833C151.469 164.439 152.149 164.667 152.828 164.439Z"
            fill="var(--svg-fill-lightShade)" />
        <path
            d="M170.262 163.151C170.186 163 170.111 162.772 169.884 162.772C169.658 162.772 169.583 163 169.583 163.076C169.583 163.227 169.658 163.606 169.96 163.606C170.262 163.606 170.262 163.227 170.262 163.151Z"
            fill="var(--svg-fill-lightShade)" />
        <path
            d="M147.016 163.757C147.318 164.439 148.148 164.742 149.054 164.363C149.809 164.06 150.11 163.454 149.809 162.696C149.733 162.544 149.658 162.317 149.507 162.241C150.186 162.09 150.865 161.408 150.941 160.726C151.016 159.892 150.337 159.21 149.28 159.134C148.526 159.058 147.922 159.589 147.771 160.347C147.695 160.801 147.922 161.332 148.299 161.711C148.148 161.711 147.922 161.711 147.771 161.787C147.167 162.166 146.79 163.151 147.016 163.757Z"
            fill="var(--svg-fill-lightShade)" />
        <path
            d="M165.507 163.379C165.28 163.076 164.827 162.924 164.45 163.151C164.223 163.303 163.997 163.682 163.997 163.909C164.073 164.591 164.601 164.667 165.205 164.743C165.507 164.364 165.884 163.909 165.507 163.379Z"
            fill="var(--svg-fill-lightShade)" />
        <path
            d="M139.62 169.138C139.318 168.986 138.94 169.289 138.94 169.668C138.94 169.744 138.94 169.744 138.94 169.82L140.223 169.82C140.148 169.516 139.846 169.289 139.62 169.138Z"
            fill="var(--svg-fill-lightShade)" />
        <path
            d="M120.828 167.622C120.828 168.077 121.13 168.456 121.582 168.456C122.111 168.456 122.488 168.153 122.488 167.774C122.488 167.319 122.186 166.864 121.733 166.864C121.356 166.788 120.828 167.167 120.828 167.622Z"
            fill="var(--svg-fill-lightShade)" />
        <path
            d="M122.11 152.692C121.657 152.692 121.582 153.299 121.582 153.45C121.582 153.678 121.808 153.981 122.035 153.981C122.412 154.132 122.714 153.753 122.714 153.45C122.714 153.299 122.563 152.692 122.11 152.692Z"
            fill="var(--svg-fill-lightShade)" />
        <path
            d="M122.638 161.029C122.412 161.256 123.091 162.469 123.468 162.545C123.846 162.62 124.147 161.863 123.921 161.256C123.77 160.65 122.94 160.877 122.638 161.029Z"
            fill="var(--svg-fill-lightShade)" />
        <path
            d="M125.129 158.301C125.43 158.149 125.581 157.012 125.129 156.861C124.751 156.709 124.223 156.937 124.147 157.24C123.921 157.694 124.751 158.452 125.129 158.301Z"
            fill="var(--svg-fill-lightShade)" />
        <path
            d="M125.883 169.668C125.355 169.517 124.902 169.668 124.449 169.82L126.336 169.82C126.185 169.744 126.034 169.668 125.883 169.668Z"
            fill="var(--svg-fill-lightShade)" />
        <path
            d="M131.846 160.044C131.619 159.968 130.94 160.271 130.94 160.65C130.94 161.029 131.242 161.408 131.695 161.408C132.072 161.408 132.449 161.105 132.298 160.726C132.223 160.423 132.072 160.12 131.846 160.044Z"
            fill="var(--svg-fill-lightShade)" />
        <path
            d="M111.619 169.289C111.393 169.289 111.167 169.668 111.167 169.82C111.167 169.82 111.167 169.82 111.167 169.895L111.921 169.895C111.921 169.668 111.77 169.289 111.619 169.289Z"
            fill="var(--svg-fill-lightShade)" />
        <path
            d="M111.091 163.302C111.091 162.545 110.336 161.711 109.657 161.711C108.751 161.711 107.997 162.317 107.997 163.075C107.997 163.757 108.978 164.818 109.657 164.894C110.336 164.894 111.091 164.136 111.091 163.302Z"
            fill="var(--svg-fill-lightShade)" />
        <path
            d="M99.9967 166.864C100.223 166.788 100.827 166.409 100.827 166.182C100.751 165.954 100.223 165.651 99.9212 165.651C99.5438 165.576 99.3174 165.954 99.3929 166.409C99.3929 166.864 99.6948 166.94 99.9967 166.864Z"
            fill="var(--svg-fill-lightShade)" />
        <path
            d="M130.789 165.954C130.789 166.636 131.166 167.091 131.619 167.091C132.299 167.091 133.129 166.333 133.053 165.727C133.053 165.272 132.449 164.817 131.846 164.817C131.242 164.817 130.789 165.196 130.789 165.954Z"
            fill="var(--svg-fill-lightShade)" />
        <path
            d="M123.091 165.955C122.94 166.107 122.865 166.637 123.016 166.864C123.318 167.395 124.148 167.395 124.45 167.016C124.752 166.637 124.676 165.879 123.997 165.728C123.771 165.576 123.318 165.803 123.091 165.955Z"
            fill="var(--svg-fill-lightShade)" />
        <path
            d="M114.185 157.695C114.336 157.619 114.412 157.24 114.261 157.089C114.185 156.937 113.808 156.861 113.657 156.937C113.506 157.013 113.28 157.392 113.355 157.619C113.506 157.771 114.11 157.771 114.185 157.695Z"
            fill="var(--svg-fill-lightShade)" />
        <path
            d="M112.676 165.879C112.223 165.955 111.921 166.333 111.921 166.788C111.997 167.167 112.374 167.546 112.752 167.47C113.204 167.394 113.506 167.016 113.431 166.561C113.431 166.106 113.129 165.803 112.676 165.879Z"
            fill="var(--svg-fill-lightShade)" />
        <path
            d="M140.827 148.524C140.601 148.903 139.997 149.509 140.299 150.04C140.601 150.57 141.054 150.192 141.28 150.267C142.035 150.419 142.865 149.813 142.865 149.206C142.865 149.131 142.865 149.055 142.79 148.979C142.865 148.979 142.865 148.979 142.941 148.979C143.243 148.979 143.771 148.373 143.771 147.994C143.771 147.539 143.469 147.16 142.941 147.16C142.488 147.16 142.186 147.388 142.11 147.842C142.11 147.918 142.11 148.07 142.186 148.145C142.11 148.07 142.035 148.07 141.96 147.994C141.507 147.842 141.054 148.145 140.827 148.524Z"
            fill="var(--svg-fill-lightShade)" />
        <path
            d="M150.11 149.51C150.337 149.358 150.941 148.827 150.79 148.524C150.639 148.221 149.959 148.221 149.657 148.297C149.356 148.297 149.205 148.827 149.356 149.206C149.431 149.51 149.733 149.737 150.11 149.51Z"
            fill="var(--svg-fill-lightShade)" />
        <path
            d="M157.431 145.114C157.582 145.645 157.959 145.872 158.412 145.796C158.94 145.645 159.393 144.887 159.242 144.28C159.091 143.826 158.563 143.523 158.11 143.674C157.582 143.826 157.204 144.584 157.431 145.114Z"
            fill="var(--svg-fill-lightShade)" />
        <path
            d="M131.695 153.374C131.393 153.374 131.242 153.601 131.167 153.829C131.167 153.98 131.167 154.511 131.544 154.587C131.922 154.662 132.073 154.132 132.073 153.98C132.073 153.753 131.997 153.374 131.695 153.374Z"
            fill="var(--svg-fill-lightShade)" />
        <path
            d="M158.412 136.247C158.563 136.171 158.639 135.716 158.639 135.64C158.563 135.489 158.337 135.262 158.186 135.337C157.96 135.413 157.96 135.716 157.96 135.868C157.884 136.019 158.186 136.322 158.412 136.247Z"
            fill="var(--svg-fill-lightShade)" />
        <path
            d="M143.62 165.5C143.017 165.803 143.017 166.258 142.79 166.182C142.564 166.106 142.111 165.728 141.734 165.955C141.356 166.182 141.583 167.546 141.658 167.774C141.658 167.774 141.658 167.774 141.734 167.849C141.583 168.077 141.583 168.304 141.658 168.532C141.658 168.759 141.734 168.91 141.809 168.986C141.583 169.214 141.281 169.365 141.281 169.744L141.281 169.82L143.696 169.82C143.62 169.668 143.545 169.441 143.469 169.289C143.998 169.138 144.526 169.062 144.979 168.91C145.13 169.365 145.205 169.592 145.356 169.744L146.111 169.744C146.111 169.744 146.186 169.744 146.186 169.668C146.186 169.668 146.262 169.668 146.262 169.744L147.62 169.744C147.847 169.517 147.922 169.138 147.922 168.835C147.922 168.001 147.545 167.698 146.715 167.698C146.111 167.698 145.583 168.077 145.432 168.456C145.356 167.849 145.205 167.471 144.903 167.319C144.979 167.167 144.979 167.092 144.979 166.864C145.13 166.031 144.224 165.197 143.62 165.5Z"
            fill="var(--svg-fill-lightShade)" />
        <path
            d="M145.054 163.151C145.054 163.53 145.356 163.909 145.808 163.909C146.261 163.909 146.563 163.682 146.639 163.227C146.714 162.772 146.337 162.317 145.884 162.317C145.507 162.393 145.054 162.772 145.054 163.151Z"
            fill="var(--svg-fill-lightShade)" />
        <path
            d="M165.658 157.618C165.507 157.77 165.431 158.149 165.507 158.376C165.658 158.831 166.11 158.982 166.488 158.831C167.092 158.679 167.092 157.921 167.016 157.618C166.941 157.315 166.11 157.163 165.658 157.618Z"
            fill="var(--svg-fill-lightShade)" />
        <path
            d="M130.035 158.377C129.96 158.983 130.262 159.362 130.563 159.286C130.865 159.21 131.167 158.983 131.318 158.68C131.469 158.377 131.016 157.922 130.639 157.998C130.413 157.998 130.186 158.301 130.035 158.377Z"
            fill="var(--svg-fill-lightShade)" />
        <path
            d="M131.469 147.842C131.318 147.842 131.092 148.069 131.092 148.221C131.092 148.372 131.167 148.751 131.545 148.751C131.922 148.751 131.922 148.372 131.922 148.221C131.846 148.069 131.62 147.842 131.469 147.842Z"
            fill="var(--svg-fill-lightShade)" />
        <path
            d="M147.77 156.255C147.468 156.558 147.468 156.937 147.77 157.391C148.072 157.77 148.374 157.922 148.827 157.694C149.129 157.543 149.28 157.24 149.355 156.937C149.506 157.316 149.808 157.543 150.11 157.543C150.638 157.543 151.242 157.088 151.469 156.558C151.393 156.709 151.469 156.937 151.544 157.088C151.695 157.467 152.299 157.694 152.827 157.391C152.902 157.164 153.053 156.785 152.978 156.482C152.902 156.027 152.299 155.876 151.846 156.027C151.695 156.103 151.544 156.255 151.544 156.406C151.619 156.255 151.619 156.179 151.619 156.027C151.619 155.572 151.016 155.042 150.487 155.042C149.733 155.042 149.204 155.421 149.129 156.179C148.902 155.951 148.223 155.876 147.77 156.255Z"
            fill="var(--svg-fill-lightShade)" />
        <path
            d="M133.506 169.365C132.978 169.365 132.45 169.517 132.072 169.82L134.336 169.82C134.185 169.517 133.884 169.365 133.506 169.365Z"
            fill="var(--svg-fill-lightShade)" />
        <path
            d="M146.94 155.497C146.94 155.118 146.639 154.739 146.261 154.814C146.035 154.89 145.431 155.042 145.506 155.497C145.582 155.951 146.11 156.103 146.412 156.179C146.79 156.179 146.94 155.8 146.94 155.497Z"
            fill="var(--svg-fill-lightShade)" />
        <path
            d="M138.865 167.698C138.865 167.092 138.412 166.41 137.959 166.334C137.356 166.258 136.525 166.94 136.525 167.546C136.525 167.925 137.054 168.456 137.657 168.456C138.261 168.607 138.79 168.229 138.865 167.698Z"
            fill="var(--svg-fill-lightShade)" />
        <path
            d="M145.506 140.946C145.582 141.477 145.431 142.007 146.035 142.159C146.412 142.235 146.789 142.083 147.016 141.704C147.167 141.401 147.167 141.098 146.865 140.87C146.488 140.416 146.035 140.643 145.506 140.946Z"
            fill="var(--svg-fill-lightShade)" />
        <path
            d="M147.017 145.342C146.941 145.039 146.564 145.039 146.488 145.114C146.337 145.19 146.262 145.418 146.187 145.569C146.187 145.645 146.488 145.872 146.564 145.796C146.715 145.721 147.092 145.569 147.017 145.342Z"
            fill="var(--svg-fill-lightShade)" />
        <path
            d="M138.564 151.783C138.488 151.783 138.413 151.859 138.337 151.859C137.96 152.162 137.96 152.314 137.96 152.693C137.96 153.072 138.111 153.299 138.186 153.375C138.564 153.223 139.243 153.299 139.318 152.844C139.469 152.389 138.79 152.086 138.564 151.783Z"
            fill="var(--svg-fill-lightShade)" />
        <path
            d="M147.242 151.708C147.242 151.632 147.242 151.556 147.242 151.48C147.091 151.101 146.563 150.798 146.186 150.874C145.808 150.95 145.582 151.48 145.733 151.859C145.808 152.087 146.035 152.314 146.337 152.39C146.261 152.541 146.261 152.693 146.261 152.844C146.412 152.92 146.563 153.223 146.789 153.299C147.318 153.451 147.922 152.996 147.997 152.617C147.997 152.314 147.62 151.859 147.242 151.708Z"
            fill="var(--svg-fill-lightShade)" />
        <path
            d="M139.469 153.299C139.092 153.374 138.79 153.905 138.941 154.208C139.167 154.587 139.469 154.814 139.922 154.739C140.299 154.663 140.525 154.208 140.45 153.829C140.375 153.45 139.922 153.223 139.469 153.299Z"
            fill="var(--svg-fill-lightShade)" />
        <path
            d="M144.223 154.285C143.997 154.361 143.846 154.588 143.771 154.664C143.771 155.27 144.148 155.573 144.45 155.497C144.676 155.422 144.978 155.194 144.978 154.967C145.054 154.664 144.601 154.209 144.223 154.285Z"
            fill="var(--svg-fill-lightShade)" />
        <path
            d="M144.676 157.846L144.6 157.846C144.223 157.391 143.619 157.088 143.242 157.24C142.789 157.467 142.563 158.225 142.789 158.755C142.94 159.058 143.242 159.286 143.544 159.362C143.77 159.741 144.223 160.119 144.6 160.119C144.978 160.119 145.506 159.741 145.506 159.362C145.657 158.528 145.28 157.846 144.676 157.846Z"
            fill="var(--svg-fill-lightShade)" />
        <path
            d="M155.997 149.737C156.299 150.571 157.054 151.101 157.733 150.874C158.488 150.646 159.167 149.434 158.865 148.752C158.563 148.07 157.657 147.615 156.978 147.842C156.299 148.221 155.771 149.055 155.997 149.737Z"
            fill="var(--svg-fill-lightShade)" />
        <path
            d="M158.11 159.817C158.639 159.892 159.091 159.286 159.091 158.528C159.091 158.074 158.865 157.846 158.412 157.846C157.808 157.77 157.205 158.225 157.205 158.604C157.28 159.135 157.733 159.741 158.11 159.817Z"
            fill="var(--svg-fill-lightShade)" />
        <path
            d="M152.299 132.837C152.073 132.913 152.148 133.292 152.148 133.444C152.148 133.519 152.45 133.671 152.601 133.671C152.752 133.671 152.828 133.292 152.752 133.14C152.752 133.065 152.526 132.761 152.299 132.837Z"
            fill="var(--svg-fill-lightShade)" />
        <path
            d="M156.525 158.377C155.921 158.377 155.468 158.983 155.544 159.362C155.619 159.741 156.223 160.196 156.902 159.968C157.28 159.817 157.431 159.514 157.355 159.059C157.28 158.68 156.978 158.377 156.525 158.377Z"
            fill="var(--svg-fill-lightShade)" />
        <path
            d="M153.205 142.766C152.526 143.069 152.224 143.675 152.526 144.357C152.828 145.039 153.582 145.266 154.262 144.963C154.79 144.736 155.092 143.902 154.79 143.296C154.563 142.614 153.96 142.387 153.205 142.766Z"
            fill="var(--svg-fill-lightShade)" />
        <path
            d="M155.319 153.299C154.79 153.526 154.413 154.36 154.564 154.966C154.715 155.421 155.469 155.648 156.073 155.421C156.828 155.118 157.054 154.739 156.903 154.132C156.677 153.526 155.847 153.071 155.319 153.299Z"
            fill="var(--svg-fill-lightShade)" />
        <path
            d="M137.657 153.981C137.657 154.057 137.733 154.284 137.808 154.284C137.884 154.284 137.959 154.132 138.035 154.132C137.959 154.057 137.884 153.905 137.808 153.905C137.808 153.829 137.657 153.981 137.657 153.981Z"
            fill="var(--svg-fill-lightShade)" />
        <path
            d="M118.412 158.982C117.582 158.907 116.525 159.74 116.525 160.422C116.525 161.104 117.129 161.711 117.808 161.786C118.714 161.862 119.469 161.18 119.469 160.346C119.469 159.513 119.091 158.982 118.412 158.982Z"
            fill="var(--svg-fill-lightShade)" />
        <path
            d="M118.11 168.759C118.261 168.683 118.488 168.456 118.488 168.38C118.488 168.229 118.035 168.077 117.884 168.077C117.809 168.077 117.582 168.305 117.582 168.38C117.658 168.456 117.733 168.608 117.809 168.683L117.733 168.683C117.205 168.608 116.827 169.062 116.752 169.82L118.865 169.82C118.941 169.365 118.639 168.911 118.11 168.759Z"
            fill="var(--svg-fill-lightShade)" />
        <path
            d="M117.204 166.183C117.129 166.638 117.355 167.017 117.733 167.092C117.959 167.168 118.337 167.092 118.487 166.941C118.865 166.638 118.789 166.259 118.336 165.501C117.884 165.577 117.355 165.501 117.204 166.183Z"
            fill="var(--svg-fill-lightShade)" />
        <path
            d="M170.866 123.137C170.941 123.516 171.319 123.819 171.696 123.895L171.696 122C171.243 122.076 170.79 122.682 170.866 123.137Z"
            fill="var(--svg-fill-lightShade)" />
        <path
            d="M88.6759 166.106C88.8268 166.106 88.9778 165.803 88.9778 165.652C88.9778 165.576 88.8268 165.197 88.6004 165.273C88.374 165.348 88.2985 165.727 88.374 165.879C88.2985 165.955 88.5249 166.106 88.6759 166.106Z"
            fill="var(--svg-fill-lightShade)" />
        <path
            d="M94.1099 169.365C94.1099 169.214 93.8835 168.986 93.7326 168.986C93.5062 168.986 93.4307 169.289 93.4307 169.441C93.4307 169.517 93.5062 169.744 93.6571 169.82L94.0345 169.82C94.0345 169.668 94.1099 169.441 94.1099 169.365Z"
            fill="var(--svg-fill-lightShade)" />
        <path
            d="M158.336 161.18C157.732 161.407 157.204 161.635 157.28 162.62C156.978 162.317 156.751 162.165 156.6 162.014C156.374 161.559 156.072 161.483 155.619 161.559C155.166 161.711 154.714 161.938 154.638 162.468C154.487 163.757 154.563 164.287 155.242 164.666C155.242 164.818 155.317 164.969 155.468 165.197C155.242 165.272 155.166 165.5 155.242 165.803C155.393 166.258 155.695 166.485 156.072 166.333C156.223 166.258 156.525 166.03 156.676 165.727C156.902 166.106 157.204 166.258 157.581 166.106C158.11 165.954 158.336 165.272 157.883 164.742C157.506 164.287 157.732 163.984 157.883 163.454C159.015 163.681 159.619 163.302 159.619 162.468C159.846 162.468 160.072 162.544 160.298 162.544C160.676 162.544 160.827 162.317 160.827 161.938C160.751 161.862 160.676 161.711 160.525 161.635C160.072 161.559 159.846 161.332 159.544 161.029C159.468 160.953 159.242 160.953 159.091 161.029C158.94 161.029 158.714 161.029 158.336 161.18Z"
            fill="var(--svg-fill-lightShade)" />
        <path
            d="M136.3 159.817C135.62 159.286 134.715 159.286 134.262 160.044C133.734 160.953 134.036 161.711 134.79 162.166C135.771 162.772 136.3 161.635 136.753 162.317C137.205 163 136.451 163.075 137.205 163.985C137.96 164.818 139.092 164.743 139.319 163.985C139.545 163.227 139.017 162.772 139.092 162.621C139.168 162.469 139.847 161.939 139.394 161.408C138.488 160.423 137.809 161.408 137.507 161.256C137.054 160.878 136.753 160.12 136.3 159.817Z"
            fill="var(--svg-fill-lightShade)" />
        <path
            d="M136.526 157.088C136.45 157.543 137.13 158.149 137.809 158.225C138.413 158.3 138.941 157.922 138.941 157.391C139.016 156.709 138.413 155.951 137.884 155.951C137.205 155.951 136.601 156.482 136.526 157.088Z"
            fill="var(--svg-fill-lightShade)" />
        <path
            d="M129.431 152.238C128.827 152.162 128.45 152.314 128.525 153.072C128.601 153.83 129.733 153.83 129.959 153.527C130.186 153.223 129.808 152.314 129.431 152.238Z"
            fill="var(--svg-fill-lightShade)" />
        <path
            d="M128.148 161.332C127.318 160.802 126.488 161.105 126.412 162.014C126.337 162.545 126.337 163.151 126.412 163.757C126.488 164.364 127.318 164.894 127.921 164.894C128.299 164.894 128.601 164.743 128.676 164.364C128.827 163.454 128.827 162.545 128.45 161.635C128.374 161.484 128.148 161.332 128.148 161.332Z"
            fill="var(--svg-fill-lightShade)" />
        <path
            d="M128.752 169.82C128.752 169.289 128.375 168.607 127.922 168.607C127.318 168.607 126.563 169.214 126.488 169.744L126.488 169.82L128.752 169.82Z"
            fill="var(--svg-fill-lightShade)" />
        <path
            d="M126.412 159.589C126.337 159.665 126.261 160.119 126.412 160.271C126.563 160.422 126.941 160.195 127.016 160.044C127.092 159.892 127.092 159.589 127.016 159.513C126.865 159.362 126.563 159.513 126.412 159.589Z"
            fill="var(--svg-fill-lightShade)" />
        <path
            d="M151.318 158.755C150.865 158.907 150.714 159.438 150.865 159.816C151.092 160.271 151.62 160.423 151.997 160.271C152.375 160.044 152.601 159.513 152.375 159.21C152.299 158.831 151.695 158.604 151.318 158.755Z"
            fill="var(--svg-fill-lightShade)" />
        <path
            d="M171.092 126.85C171.167 127.002 171.545 127.153 171.696 127.153L171.696 126.168L171.62 126.168C171.469 126.244 171.016 126.623 171.092 126.85Z"
            fill="var(--svg-fill-lightShade)" />
        <path
            d="M139.695 167.849C139.846 168.077 140.223 168.304 140.45 168.228C140.676 168.153 140.827 167.774 140.978 167.546C140.752 166.94 140.45 166.94 140.148 167.016C139.846 167.243 139.544 167.546 139.695 167.849Z"
            fill="var(--svg-fill-lightShade)" />
        <path
            d="M161.054 159.892C161.205 159.892 161.28 159.967 161.356 159.967L161.431 160.043C161.582 160.119 161.657 160.271 161.733 160.498C161.959 160.953 162.639 161.104 163.091 160.801C163.544 160.498 163.469 160.195 163.318 159.816C163.167 159.513 162.94 159.21 162.94 158.982C162.94 158.3 163.016 157.618 163.091 156.86C164.676 156.33 164.978 155.799 164.148 154.587C163.695 153.905 162.79 153.753 162.261 154.435C161.884 154.89 161.657 155.496 161.28 156.254C160.525 156.33 159.695 156.481 159.393 157.315C159.016 158.376 159.771 159.664 161.054 159.892Z"
            fill="var(--svg-fill-lightShade)" />
        <path
            d="M171.544 139.658C171.619 139.81 171.619 139.885 171.695 139.961L171.695 138.294C171.468 138.749 171.393 139.203 171.544 139.658Z"
            fill="var(--svg-fill-lightShade)" />
        <path
            d="M167.771 144.356C167.846 144.887 167.696 145.417 168.299 145.569C168.677 145.645 169.054 145.493 169.28 145.114C169.431 144.811 169.431 144.508 169.13 144.281C168.677 143.826 168.299 144.053 167.771 144.356Z"
            fill="var(--svg-fill-lightShade)" />
        <path
            d="M168.978 147.691C169.28 148.373 169.808 148.6 170.412 148.903C170.865 149.131 171.318 148.676 171.469 149.282C171.544 149.51 171.62 149.737 171.695 149.964L171.695 147.009C171.167 146.857 170.865 146.251 170.186 146.327C169.356 146.403 168.676 147.009 168.978 147.691Z"
            fill="var(--svg-fill-lightShade)" />
        <path
            d="M140.223 163.606C140.072 163.681 139.921 163.985 139.997 164.136C139.997 164.288 140.374 164.667 140.525 164.591C140.676 164.515 140.751 164.136 140.676 164.06C140.6 163.833 140.449 163.53 140.223 163.606Z"
            fill="var(--svg-fill-lightShade)" />
        <path
            d="M154.639 168.304C153.959 168.455 153.582 168.683 153.582 169.061C153.582 169.289 153.959 169.668 154.337 169.819L154.865 169.819C155.167 169.592 155.393 169.137 155.393 168.834C155.393 168.455 155.016 168.228 154.639 168.304Z"
            fill="var(--svg-fill-lightShade)" />
        <path
            d="M167.771 134.58C167.545 134.504 167.092 134.808 166.79 135.035C166.715 135.111 166.488 135.187 166.639 135.49C166.79 135.793 167.469 136.096 167.847 135.793C168.224 135.565 168.224 134.808 167.771 134.58Z"
            fill="var(--svg-fill-lightShade)" />
        <path
            d="M161.204 164.515C160.525 164.515 160.223 164.969 160.223 165.803C160.223 166.258 160.751 166.788 161.128 166.788C161.657 166.788 162.638 166.03 162.638 165.576C162.562 165.045 161.883 164.515 161.204 164.515Z"
            fill="var(--svg-fill-lightShade)" />
        <path
            d="M160.223 168.456C160.45 168.835 161.053 169.138 161.431 168.986C161.733 168.835 162.035 168.001 161.884 167.622C161.733 167.319 161.053 167.168 160.751 167.319C160.223 167.471 159.997 168.077 160.223 168.456Z"
            fill="var(--svg-fill-lightShade)" />
        <path
            d="M142.412 161.711C141.96 161.787 141.733 162.09 141.658 162.469C141.582 163.075 141.96 163.757 142.337 163.833C143.167 163.984 143.62 163.151 143.771 162.696C143.997 162.317 143.092 161.635 142.412 161.711Z"
            fill="var(--svg-fill-lightShade)" />
        <path
            d="M141.28 156.33C140.827 156.33 140.676 156.709 140.751 157.012C140.751 157.24 140.978 157.922 141.28 157.922C141.582 157.922 141.959 157.24 141.959 157.012C142.034 156.633 141.657 156.33 141.28 156.33Z"
            fill="var(--svg-fill-lightShade)" />
        <path
            d="M170.563 130.64C170.185 130.791 170.11 131.17 170.185 131.549C170.261 131.852 170.563 132.004 170.94 131.928C171.318 131.852 171.544 131.473 171.469 131.17C171.318 130.715 170.865 130.488 170.563 130.64Z"
            fill="var(--svg-fill-lightShade)" />
        <path
            d="M163.468 130.715C163.091 130.715 162.94 131.094 163.091 131.548C163.242 132.003 163.544 132.003 163.846 131.852C164.072 131.7 164.6 131.245 164.45 131.018C164.374 130.866 163.695 130.715 163.468 130.715Z"
            fill="var(--svg-fill-lightShade)" />
        <path
            d="M161.733 137.991C161.431 138.066 161.281 138.37 161.507 138.748C161.658 139.052 161.96 139.279 162.262 139.127C162.488 138.976 163.016 138.445 162.941 138.142C162.79 137.839 161.96 137.915 161.733 137.991Z"
            fill="var(--svg-fill-lightShade)" />
        <path
            d="M162.714 140.871C162.186 141.022 161.96 141.553 162.186 142.007C162.337 142.386 162.865 142.614 163.243 142.462C163.62 142.31 163.922 141.704 163.695 141.249C163.545 140.871 163.092 140.719 162.714 140.871Z"
            fill="var(--svg-fill-lightShade)" />
        <path
            d="M159.998 148.828C159.922 149.282 160.073 149.661 160.526 149.813C160.677 149.889 160.903 149.889 161.054 149.813C161.356 149.586 161.658 149.207 161.96 148.904C162.941 148.979 163.696 148.6 163.771 147.994C163.847 147.388 163.092 146.554 162.413 146.478C161.733 146.403 161.507 146.706 161.281 148.146C160.677 148.222 160.073 148.146 159.998 148.828Z"
            fill="var(--svg-fill-lightShade)" />
        <path
            d="M160.073 153.678C160.149 153.905 160.451 154.133 160.677 154.133C160.828 154.208 161.205 153.981 161.281 153.83C161.507 153.375 161.281 152.996 160.828 152.769C160.451 152.92 159.998 153.072 160.073 153.678Z"
            fill="var(--svg-fill-lightShade)" />
        <path
            d="M159.695 141.325C159.62 141.325 159.544 141.477 159.544 141.553C159.62 141.628 159.695 141.78 159.846 141.704C159.997 141.628 159.997 141.477 159.922 141.401C159.922 141.325 159.771 141.25 159.695 141.325Z"
            fill="var(--svg-fill-lightShade)" />
        <path
            d="M163.394 150.646C162.866 150.798 162.489 151.556 162.639 152.162C162.79 152.617 163.47 152.996 164.073 152.844C164.451 152.768 164.828 152.162 164.753 151.707C164.526 150.949 163.923 150.495 163.394 150.646Z"
            fill="var(--svg-fill-lightShade)" />
        <path
            d="M166.714 143.295C166.865 143.22 167.242 142.689 167.167 142.462C167.091 142.234 166.412 142.159 166.261 142.234C166.11 142.462 165.808 142.917 165.959 143.068C166.11 143.22 166.563 143.371 166.714 143.295Z"
            fill="var(--svg-fill-lightShade)" />
        <path
            d="M166.111 139.052C165.658 139.279 165.054 140.34 165.205 140.719C165.432 141.174 166.262 141.401 166.941 141.098C167.545 140.87 167.696 140.264 167.319 139.582C167.168 139.127 166.488 138.9 166.111 139.052Z"
            fill="var(--svg-fill-lightShade)" />
        <path
            d="M162.261 152.314C161.959 152.314 161.431 152.845 161.506 153.3C161.582 153.754 162.261 154.058 162.638 153.754C162.789 153.603 162.714 153.072 162.638 152.693C162.638 152.542 162.638 152.314 162.261 152.314Z"
            fill="var(--svg-fill-lightShade)" />
        <path
            d="M164.677 152.996C164.224 153.679 164.299 154.285 164.828 154.664C165.431 155.118 166.111 155.043 166.639 154.436C167.167 153.83 167.696 153.224 168.375 152.693C168.903 152.314 169.205 151.481 168.979 151.102C168.677 150.723 167.922 150.875 167.847 151.102C167.469 151.557 167.092 151.329 166.714 151.329C166.337 151.329 165.96 151.557 165.658 151.784C165.431 151.936 165.281 152.163 165.13 152.314C164.979 152.542 164.828 152.769 164.677 152.996Z"
            fill="var(--svg-fill-lightShade)" />
        <path
            d="M165.809 147.464C165.96 147.767 166.941 148.146 167.318 147.994C167.771 147.843 167.847 147.388 167.62 146.782C167.469 146.327 167.243 146.1 166.941 146.024C167.092 145.948 167.243 145.721 167.167 145.569C167.092 145.342 166.79 145.342 166.639 145.342C166.488 145.342 166.186 145.645 166.186 145.872C166.186 145.948 166.337 146.024 166.488 146.024C166.488 146.024 166.488 146.024 166.413 146.024C165.884 146.327 165.583 146.933 165.809 147.464Z"
            fill="var(--svg-fill-lightShade)" />
    </g>
    <rect x="182.5" y="35.5" width="77" height="28" rx="1" stroke="var(--svg-fill-darkShade)" />
    <rect x="182.5" y="69.5" width="77" height="28" rx="1" stroke="var(--svg-fill-darkShade)" />
    <path
        d="M182 109C182 108.448 182.448 108 183 108H259C259.552 108 260 108.448 260 109V169C260 169.552 259.552 170 259 170H183C182.448 170 182 169.552 182 169V109Z"
        fill="var(--svg-fill-mediumShade)" />
    <path
        d="M172 36C172 35.4477 171.552 35 171 35H167V92C167 92.5523 166.552 93 166 93H45V97C45 97.5523 45.4477 98 46 98H171C171.552 98 172 97.5523 172 97V36Z"
        fill="var(--svg-fill-primary)" />
    <defs>
        <clipPath id="clip0_1377_21531">
            <rect width="88" height="48" fill="var(--svg-fill-background)" transform="translate(84 122)" />
        </clipPath>
    </defs>
</svg>