<svg width="301" height="200" viewBox="0 0 301 200" fill="none" xmlns="http://www.w3.org/2000/svg">
    <rect width="300" height="200" transform="translate(0.5)" fill="var(--svg-fill-background)" />
    <rect x="40" y="40" width="220" height="10" rx="1" fill="var(--svg-fill-lightestShade)" />
    <path
        d="M105 56C105 55.4477 105.448 55 106 55H259C259.552 55 260 55.4477 260 56V74C260 74.5523 259.552 75 259 75H106C105.448 75 105 74.5523 105 74V56Z"
        fill="var(--svg-fill-lightShade)" />
    <path
        d="M40 136C40 135.448 40.4477 135 41 135H259C259.552 135 260 135.448 260 136V144C260 144.552 259.552 145 259 145H41C40.4477 145 40 144.552 40 144V136Z"
        fill="var(--svg-fill-lightShade)" />
    <rect x="41" y="150" width="138" height="10" rx="1" fill="var(--svg-fill-lightestShade)" />
    <rect x="40" y="80" width="139" height="50" rx="1" fill="var(--svg-fill-warning-background)" />
    <rect x="40" y="55" width="60" height="20" rx="1" fill="var(--svg-fill-mediumShade)" />
    <path
        d="M40.0787 105.475L40.0787 107.769C40.316 107.69 40.4742 107.532 40.6325 107.294C40.8698 106.82 40.6325 105.949 40.0787 105.475Z"
        fill="var(--svg-fill-warning-decor)" />
    <path
        d="M62.3889 80.3163C62.3098 80.791 62.7053 81.1865 63.2591 81.1865C63.7338 81.1865 64.0503 80.9492 64.0503 80.4745C64.0503 80.3163 64.0503 80.2372 64.0503 80.1581L62.468 80.1581C62.3889 80.1581 62.3889 80.2372 62.3889 80.3163Z"
        fill="var(--svg-fill-warning-decor)" />
    <path
        d="M40.0785 115.522L40.0785 116.234C40.1576 116.234 40.3159 116.234 40.395 116.155C40.4741 116.155 40.6323 115.839 40.6323 115.76C40.4741 115.681 40.2368 115.443 40.0785 115.522Z"
        fill="var(--svg-fill-warning-decor)" />
    <path
        d="M63.7342 83.9558C63.2595 83.9558 62.864 84.3514 62.864 84.8261C62.864 85.3008 63.1804 85.459 63.6551 85.459C64.1298 85.459 64.6045 85.1425 64.6045 84.6678C64.6045 84.2723 64.2089 83.8767 63.7342 83.9558Z"
        fill="var(--svg-fill-warning-decor)" />
    <path
        d="M49.731 88.307C49.731 87.6741 49.3354 87.2785 48.5442 87.2785C47.9905 87.2785 47.5949 87.5159 47.5158 87.9905C47.5158 88.1488 47.5949 88.3861 47.674 88.5443C47.3575 88.307 46.962 88.1488 46.7246 88.307C46.2499 88.6234 46.0126 89.019 46.1708 89.6519C46.3291 90.2057 47.0411 90.3639 47.5949 90.1266C47.9904 89.9684 48.1487 89.4937 47.9904 89.019C48.2278 89.2564 48.4651 89.4937 48.6233 89.4937C49.3354 89.4937 49.731 89.0981 49.731 88.307Z"
        fill="var(--svg-fill-warning-decor)" />
    <path
        d="M65.0789 81.5823C64.9207 81.345 64.6043 80.633 64.1296 80.7912C63.6549 80.9494 63.8131 81.6614 63.8131 81.9779C63.8131 82.3734 64.2878 82.5317 64.6834 82.3734C65.1581 82.2943 65.3163 81.9779 65.0789 81.5823Z"
        fill="var(--svg-fill-warning-decor)" />
    <path
        d="M47.7528 91.9461C47.3573 91.867 46.8826 92.2625 46.8826 92.6581C46.8826 93.1328 47.199 93.3701 47.5946 93.3701C47.9902 93.3701 48.2275 93.2119 48.3066 92.8163C48.3857 92.3416 48.1484 91.9461 47.7528 91.9461Z"
        fill="var(--svg-fill-warning-decor)" />
    <path
        d="M60.3317 89.2566C60.4109 88.5445 59.9362 88.0699 59.2241 87.9907C58.3539 87.9116 57.721 88.4654 57.6419 89.4148C57.5628 90.1268 58.1166 90.8388 58.8286 90.9971C59.4615 90.9971 60.2526 90.1268 60.3317 89.2566Z"
        fill="var(--svg-fill-warning-decor)" />
    <path
        d="M59.8573 102.943C60.0947 102.943 60.332 102.548 60.332 102.39C60.332 102.231 60.1738 101.915 60.0156 101.915C59.7782 101.915 59.62 102.152 59.62 102.31C59.4618 102.469 59.62 102.943 59.8573 102.943Z"
        fill="var(--svg-fill-warning-decor)" />
    <path
        d="M59.4619 99.6996C59.2245 99.6996 59.0663 100.095 59.0663 100.253C59.0663 100.332 59.2245 100.649 59.3828 100.649C59.541 100.649 59.6992 100.412 59.7783 100.253C59.7783 100.095 59.6992 99.6996 59.4619 99.6996Z"
        fill="var(--svg-fill-warning-decor)" />
    <path
        d="M52.4207 82.1361C52.4207 82.5317 52.8954 83.0063 53.291 83.0063C54.1612 83.0063 54.7941 82.6108 54.715 82.057C54.715 81.5032 53.9239 80.8703 53.3701 80.8703C52.9745 80.8703 52.3416 81.6614 52.4207 82.1361Z"
        fill="var(--svg-fill-warning-decor)" />
    <path
        d="M52.8159 80.3167C52.895 80.2376 53.0532 80.1584 53.1323 80.0793L51.6292 80.0793C51.8665 80.3167 52.4203 80.4749 52.8159 80.3167Z"
        fill="var(--svg-fill-warning-decor)" />
    <path
        d="M57.8795 98.2754C57.5631 98.4336 57.6422 99.1457 57.8004 99.383C57.8795 99.5412 58.2751 99.6203 58.5915 99.5412C58.908 99.4621 59.1453 99.1457 58.908 98.8292C58.6706 98.671 58.196 98.1963 57.8795 98.2754Z"
        fill="var(--svg-fill-warning-decor)" />
    <path
        d="M43.8761 85.4593C43.8761 85.0637 43.7179 84.5099 43.4806 84.3517C43.1641 84.1144 42.6103 84.1935 42.0565 84.1144C42.0565 83.7979 41.9774 83.4024 41.7401 83.2441C41.661 83.165 41.5819 83.0068 41.4236 83.0068C40.949 82.8486 40.5534 82.6112 39.9996 82.6112L39.9996 84.51C40.316 84.4308 40.6325 84.3517 40.8698 84.2726C41.0281 84.3517 41.1863 84.5099 41.4236 84.5891C41.5819 85.1429 41.5819 85.6966 41.8192 85.934C42.0565 86.2504 42.5312 86.4087 43.0059 86.5669C43.5597 86.5669 43.9553 86.0922 43.8761 85.4593Z"
        fill="var(--svg-fill-warning-decor)" />
    <path
        d="M41.7402 80.0788L40.0788 80.0788L40.0788 80.3162C40.1579 80.3162 40.2371 80.3953 40.2371 80.3953C40.9491 80.6326 41.4238 80.5535 41.7402 80.0788Z"
        fill="var(--svg-fill-warning-decor)" />
    <path
        d="M40.791 97.168C41.1075 97.0889 41.2657 96.7724 41.3448 96.3768C41.503 96.3768 41.7404 96.3768 41.8986 96.3768C42.3733 96.2186 42.5315 95.7439 42.3733 95.2692C42.2151 94.7946 41.8195 94.6363 41.4239 94.7946C41.2657 94.8737 41.1866 94.9528 41.0284 95.0319C40.791 94.7946 40.4746 94.7946 40.079 94.8737L40.079 97.0097C40.3954 97.168 40.6328 97.168 40.791 97.168Z"
        fill="var(--svg-fill-warning-decor)" />
    <path
        d="M61.7557 81.7404C61.2019 81.424 60.7273 81.424 60.3317 82.0569C60.4899 82.5316 60.7273 83.0853 61.3601 82.848C61.8348 82.6898 61.8348 82.2151 61.7557 81.7404Z"
        fill="var(--svg-fill-warning-decor)" />
    <path
        d="M42.9273 92.8166C43.2438 91.9464 43.2437 91.8673 42.3735 91.3135C41.9779 91.4717 41.6615 91.709 41.2659 91.7882C40.7121 92.0255 40.3166 92.7375 40.5539 93.3704C40.7121 93.766 41.2659 94.1616 41.6615 94.0033C42.1362 93.6078 42.69 93.4495 42.9273 92.8166Z"
        fill="var(--svg-fill-warning-decor)" />
    <path
        d="M44.1929 88.0697C43.56 87.3577 42.8479 87.4368 42.1359 87.9906C41.2656 87.3577 40.5536 87.1995 40.0789 87.3577L40.0789 91.9463C40.3163 91.7881 40.4745 91.5507 40.6327 91.2343C41.1074 90.4431 41.5821 89.652 41.9777 88.8609C43.7182 89.5729 43.9555 89.4938 44.1929 88.0697Z"
        fill="var(--svg-fill-warning-decor)" />
    <path
        d="M45.221 90.6806C45.4583 90.3642 45.5374 89.9686 45.221 89.6521C44.9836 89.4148 44.5089 89.2566 44.2716 89.2566C43.5596 89.4148 43.7178 90.1268 43.6387 90.6806C44.2716 91.0762 44.8254 91.2344 45.221 90.6806Z"
        fill="var(--svg-fill-warning-decor)" />
    <path
        d="M44.6677 82.0571C44.5095 81.5824 43.7975 81.345 43.0063 81.5824C42.6107 81.6615 42.2943 82.3735 42.4525 82.7691C42.6107 83.3229 43.3228 83.7184 43.7975 83.6393C44.3513 83.4811 44.905 82.5317 44.6677 82.0571Z"
        fill="var(--svg-fill-warning-decor)" />
    <path
        d="M47.3575 80.0795L44.1929 80.0795C44.2721 80.3168 44.4303 80.5542 44.5885 80.6333C44.8259 80.7915 45.0632 80.7915 45.3005 80.7915C45.2214 81.108 45.3005 81.4244 45.4587 81.6618C45.6961 81.8991 45.8543 82.2156 46.0125 82.3738C45.5379 82.7694 45.5379 83.6396 45.7752 84.0352C46.0126 84.4308 47.6739 84.8263 48.3068 84.589C48.7024 84.0352 49.1771 83.2441 49.6518 82.4529C49.7309 82.3738 49.5727 82.0573 49.4935 81.9782C49.1771 81.5827 49.0189 81.2662 49.098 80.7124C49.098 80.4751 49.0189 80.2377 48.8606 80.0795L47.3575 80.0795Z"
        fill="var(--svg-fill-warning-decor)" />
    <path
        d="M58.9874 80.5539C59.2248 81.2659 59.9368 81.6615 60.4906 81.4242C61.0444 81.1868 61.4399 80.633 61.4399 80.1583L58.9874 80.1583C58.9874 80.2375 58.9874 80.3957 58.9874 80.5539Z"
        fill="var(--svg-fill-warning-decor)" />
    <path
        d="M59.8572 85.6962C59.3034 85.9336 59.1452 86.4874 59.4616 87.2785C59.699 87.9114 60.1737 88.2279 60.6484 87.9905C61.0439 87.8323 61.6768 86.6456 61.5977 86.3291C61.2813 85.6962 60.5692 85.4589 59.8572 85.6962Z"
        fill="var(--svg-fill-warning-decor)" />
    <path
        d="M41.5819 87.041C41.661 87.1992 41.7401 87.4365 41.9775 87.4365C42.2148 87.4365 42.2939 87.1992 42.2939 87.1201C42.2939 86.9618 42.2148 86.5663 41.8984 86.5663C41.5819 86.5663 41.5819 86.9618 41.5819 87.041Z"
        fill="var(--svg-fill-warning-decor)" />
    <path
        d="M65.9494 86.4082C65.633 85.6962 64.7627 85.3798 63.8133 85.7753C63.0222 86.0918 62.7057 86.7247 63.0222 87.5158C63.1013 87.6741 63.1804 87.9114 63.3387 87.9905C62.6266 88.1487 61.9146 88.8608 61.8355 89.5728C61.7564 90.443 62.4684 91.1551 63.576 91.2342C64.3671 91.3133 65.0001 90.7595 65.1583 89.9684C65.2374 89.4937 65 88.9399 64.6045 88.5443C64.7627 88.5443 65.0001 88.5443 65.1583 88.4652C65.7912 88.0696 66.1868 87.0411 65.9494 86.4082Z"
        fill="var(--svg-fill-warning-decor)" />
    <path
        d="M46.5662 86.8037C46.8035 87.1201 47.2782 87.2783 47.6738 87.041C47.9111 86.8828 48.1484 86.4872 48.1484 86.2499C48.0693 85.5378 47.5155 85.4587 46.8826 85.3796C46.5662 85.7752 46.1706 86.2499 46.5662 86.8037Z"
        fill="var(--svg-fill-warning-decor)" />
    <path
        d="M73.702 80.7914C74.0185 80.9496 74.4141 80.6332 74.4141 80.2376C74.4141 80.1585 74.4141 80.1585 74.4141 80.0794L73.0691 80.0794C73.1483 80.3958 73.4647 80.6332 73.702 80.7914Z"
        fill="var(--svg-fill-warning-decor)" />
    <path
        d="M93.4019 82.3735C93.4019 81.8989 93.0854 81.5033 92.6107 81.5033C92.0569 81.5033 91.6614 81.8197 91.6614 82.2153C91.6614 82.69 91.9778 83.1647 92.4525 83.1647C92.8481 83.2438 93.4019 82.8482 93.4019 82.3735Z"
        fill="var(--svg-fill-warning-decor)" />
    <path
        d="M92.0566 97.959C92.5313 97.959 92.6104 97.3261 92.6104 97.1678C92.6104 96.9305 92.373 96.614 92.1357 96.614C91.7401 96.4558 91.4236 96.8514 91.4236 97.1678C91.4236 97.3261 91.5819 97.959 92.0566 97.959Z"
        fill="var(--svg-fill-warning-decor)" />
    <path
        d="M91.5029 89.2561C91.7403 89.0187 91.0283 87.7529 90.6327 87.6738C90.2371 87.5947 89.9206 88.3858 90.158 89.0187C90.3162 89.6516 91.1865 89.4143 91.5029 89.2561Z"
        fill="var(--svg-fill-warning-decor)" />
    <path
        d="M88.8921 92.1047C88.5757 92.2629 88.4175 93.4496 88.8921 93.6078C89.2877 93.7661 89.8415 93.5287 89.9206 93.2123C90.1579 92.7376 89.2877 91.9464 88.8921 92.1047Z"
        fill="var(--svg-fill-warning-decor)" />
    <path
        d="M88.1013 80.2377C88.6551 80.3959 89.1298 80.2377 89.6045 80.0795L87.6267 80.0795C87.7849 80.1586 87.9431 80.2377 88.1013 80.2377Z"
        fill="var(--svg-fill-warning-decor)" />
    <path
        d="M81.8509 90.2852C82.0883 90.3643 82.8003 90.0478 82.8003 89.6523C82.8003 89.2567 82.4838 88.8611 82.0092 88.8611C81.6136 88.8611 81.218 89.1776 81.3762 89.5731C81.4554 89.8896 81.6136 90.206 81.8509 90.2852Z"
        fill="var(--svg-fill-warning-decor)" />
    <path
        d="M103.054 80.6328C103.291 80.6328 103.528 80.2372 103.528 80.079C103.528 80.079 103.528 80.079 103.528 79.9999L102.737 79.9999C102.737 80.2372 102.895 80.6328 103.054 80.6328Z"
        fill="var(--svg-fill-warning-decor)" />
    <path
        d="M103.607 86.8831C103.607 87.6742 104.399 88.5444 105.111 88.5444C106.06 88.5444 106.851 87.9115 106.851 87.1204C106.851 86.4084 105.823 85.3008 105.111 85.2217C104.399 85.2217 103.607 86.0128 103.607 86.8831Z"
        fill="var(--svg-fill-warning-decor)" />
    <path
        d="M115.237 83.165C115 83.2441 114.367 83.6397 114.367 83.877C114.446 84.1143 115 84.4308 115.316 84.4308C115.712 84.5099 115.949 84.1143 115.87 83.6397C115.87 83.165 115.554 83.0859 115.237 83.165Z"
        fill="var(--svg-fill-warning-decor)" />
    <path
        d="M82.9585 84.1141C82.9585 83.402 82.5629 82.9274 82.0882 82.9274C81.3762 82.9274 80.506 83.7185 80.5851 84.3514C80.5851 84.8261 81.218 85.3008 81.8509 85.3008C82.4838 85.3008 82.9585 84.9052 82.9585 84.1141Z"
        fill="var(--svg-fill-warning-decor)" />
    <path
        d="M91.028 84.1138C91.1862 83.9556 91.2653 83.4018 91.1071 83.1644C90.7907 82.6106 89.9204 82.6106 89.6039 83.0062C89.2875 83.4018 89.3666 84.1929 90.0786 84.3511C90.316 84.5094 90.7907 84.272 91.028 84.1138Z"
        fill="var(--svg-fill-warning-decor)" />
    <path
        d="M100.364 92.7374C100.206 92.8165 100.127 93.2121 100.285 93.3703C100.364 93.5285 100.76 93.6076 100.918 93.5285C101.076 93.4494 101.313 93.0538 101.234 92.8165C101.076 92.6583 100.443 92.6583 100.364 92.7374Z"
        fill="var(--svg-fill-warning-decor)" />
    <path
        d="M101.946 84.1935C102.421 84.1143 102.737 83.7188 102.737 83.2441C102.658 82.8485 102.263 82.453 101.867 82.5321C101.392 82.6112 101.076 83.0068 101.155 83.4814C101.155 83.9561 101.471 84.2726 101.946 84.1935Z"
        fill="var(--svg-fill-warning-decor)" />
    <path
        d="M72.4365 102.31C72.6739 101.915 73.3068 101.282 72.9903 100.728C72.6739 100.174 72.1992 100.57 71.9619 100.491C71.1707 100.332 70.3005 100.965 70.3005 101.598C70.3005 101.677 70.3005 101.757 70.3796 101.836C70.3005 101.836 70.3005 101.836 70.2214 101.836C69.9049 101.836 69.3511 102.469 69.3511 102.864C69.3511 103.339 69.6676 103.734 70.2214 103.734C70.6961 103.734 71.0125 103.497 71.0916 103.022C71.0916 102.943 71.0916 102.785 71.0125 102.706C71.0916 102.785 71.1707 102.785 71.2498 102.864C71.7245 103.022 72.1992 102.706 72.4365 102.31Z"
        fill="var(--svg-fill-warning-decor)" />
    <path
        d="M62.7054 101.282C62.468 101.44 61.8351 101.994 61.9934 102.311C62.1516 102.627 62.8636 102.627 63.1801 102.548C63.4965 102.548 63.6547 101.994 63.4965 101.598C63.4174 101.282 63.1009 101.045 62.7054 101.282Z"
        fill="var(--svg-fill-warning-decor)" />
    <path
        d="M55.0318 105.87C54.8736 105.316 54.478 105.079 54.0033 105.158C53.4495 105.316 52.9748 106.108 53.133 106.74C53.2913 107.215 53.8451 107.532 54.3198 107.373C54.8736 107.215 55.2691 106.424 55.0318 105.87Z"
        fill="var(--svg-fill-warning-decor)" />
    <path
        d="M82.0092 97.2471C82.3256 97.2471 82.4839 97.0097 82.563 96.7724C82.563 96.6142 82.563 96.0604 82.1674 95.9813C81.7719 95.9021 81.6136 96.4559 81.6136 96.6142C81.6136 96.8515 81.6927 97.2471 82.0092 97.2471Z"
        fill="var(--svg-fill-warning-decor)" />
    <path
        d="M54.0032 115.127C53.845 115.206 53.7658 115.681 53.7658 115.76C53.8449 115.918 54.0823 116.155 54.2405 116.076C54.4778 115.997 54.4778 115.681 54.4778 115.522C54.557 115.364 54.2405 115.048 54.0032 115.127Z"
        fill="var(--svg-fill-warning-decor)" />
    <path
        d="M69.5089 84.5888C70.1418 84.2724 70.1418 83.7977 70.3792 83.8768C70.6165 83.9559 71.0912 84.3515 71.4868 84.1142C71.8823 83.8768 71.645 82.4528 71.5659 82.2154C71.5659 82.2154 71.5659 82.2154 71.4868 82.1363C71.645 81.899 71.645 81.6616 71.5659 81.4243C71.5659 81.187 71.4868 81.0287 71.4076 80.9496C71.645 80.7123 71.9614 80.5541 71.9614 80.1585L71.9614 80.0794L69.4298 80.0794C69.5089 80.2376 69.588 80.4749 69.6671 80.6332C69.1133 80.7914 68.5595 80.8705 68.0849 81.0287C67.9266 80.554 67.8475 80.3167 67.6893 80.1585L66.8982 80.1585C66.8982 80.1585 66.819 80.1585 66.819 80.2376C66.819 80.2376 66.7399 80.2376 66.7399 80.1585L65.3159 80.1585C65.0785 80.3958 64.9994 80.7914 64.9994 81.1078C64.9994 81.9781 65.395 82.2946 66.2653 82.2946C66.8982 82.2946 67.4519 81.899 67.6102 81.5034C67.6893 82.1363 67.8475 82.5319 68.164 82.6901C68.0849 82.8483 68.0849 82.9275 68.0849 83.1648C67.9266 84.035 68.876 84.9053 69.5089 84.5888Z"
        fill="var(--svg-fill-warning-decor)" />
    <path
        d="M68.0059 87.0414C68.0059 86.6458 67.6894 86.2502 67.2147 86.2502C66.74 86.2502 66.4236 86.4876 66.3445 86.9623C66.2654 87.4369 66.6609 87.9116 67.1356 87.9116C67.5312 87.8325 68.0059 87.4369 68.0059 87.0414Z"
        fill="var(--svg-fill-warning-decor)" />
    <path
        d="M46.4079 92.8161C46.5661 92.6579 46.6452 92.2623 46.5661 92.025C46.4079 91.5503 45.9332 91.3921 45.5376 91.5503C44.9047 91.7085 44.9047 92.4997 44.9838 92.8161C45.063 93.1326 45.9332 93.2908 46.4079 92.8161Z"
        fill="var(--svg-fill-warning-decor)" />
    <path
        d="M83.7494 92.0254C83.8285 91.3925 83.5121 90.9969 83.1956 91.076C82.8792 91.1551 82.5627 91.3925 82.4045 91.7089C82.2463 92.0254 82.7209 92.5 83.1165 92.4209C83.3538 92.4209 83.5912 92.1045 83.7494 92.0254Z"
        fill="var(--svg-fill-warning-decor)" />
    <path
        d="M82.2465 103.022C82.4048 103.022 82.6421 102.785 82.6421 102.627C82.6421 102.469 82.563 102.073 82.1674 102.073C81.7719 102.073 81.7719 102.469 81.7719 102.627C81.851 102.785 82.0883 103.022 82.2465 103.022Z"
        fill="var(--svg-fill-warning-decor)" />
    <path
        d="M65.1582 94.2405C65.4746 93.9241 65.4746 93.5285 65.1582 93.0538C64.8417 92.6582 64.5252 92.5 64.0506 92.7373C63.7341 92.8956 63.5759 93.212 63.4968 93.5285C63.3385 93.1329 63.0221 92.8956 62.7056 92.8956C62.1518 92.8956 61.5189 93.3703 61.2816 93.9241C61.3607 93.7658 61.2816 93.5285 61.2025 93.3703C61.0443 92.9747 60.4113 92.7373 59.8575 93.0538C59.7784 93.2911 59.6202 93.6867 59.6993 94.0032C59.7784 94.4779 60.4113 94.6361 60.886 94.4779C61.0442 94.3987 61.2025 94.2405 61.2025 94.0823C61.1234 94.2405 61.1234 94.3196 61.1234 94.4779C61.1234 94.9525 61.7563 95.5063 62.3101 95.5063C63.1012 95.5063 63.655 95.1108 63.7341 94.3196C63.9714 94.557 64.6835 94.6361 65.1582 94.2405Z"
        fill="var(--svg-fill-warning-decor)" />
    <path
        d="M80.1106 80.5537C80.6644 80.5537 81.2182 80.3955 81.6138 80.079L79.2404 80.079C79.3986 80.3955 79.7151 80.5537 80.1106 80.5537Z"
        fill="var(--svg-fill-warning-decor)" />
    <path
        d="M66.0281 95.0317C66.0281 95.4273 66.3446 95.8228 66.7402 95.7437C66.9775 95.6646 67.6104 95.5064 67.5313 95.0317C67.4522 94.557 66.8984 94.3988 66.5819 94.3197C66.1863 94.3197 66.0281 94.7152 66.0281 95.0317Z"
        fill="var(--svg-fill-warning-decor)" />
    <path
        d="M74.4933 82.2945C74.4933 82.9274 74.968 83.6394 75.4426 83.7186C76.0756 83.7977 76.9458 83.0856 76.9458 82.4527C76.9458 82.0572 76.392 81.5034 75.7591 81.5034C75.1262 81.3452 74.5724 81.7407 74.4933 82.2945Z"
        fill="var(--svg-fill-warning-decor)" />
    <path
        d="M67.5313 110.221C67.4521 109.668 67.6104 109.114 66.9774 108.955C66.5819 108.876 66.1863 109.035 65.949 109.43C65.7907 109.747 65.7907 110.063 66.1072 110.3C66.5027 110.775 66.9774 110.538 67.5313 110.221Z"
        fill="var(--svg-fill-warning-decor)" />
    <path
        d="M65.9491 105.633C66.0282 105.949 66.4238 105.949 66.5029 105.87C66.6611 105.791 66.7402 105.554 66.8193 105.395C66.8193 105.316 66.5029 105.079 66.4238 105.158C66.2655 105.237 65.87 105.395 65.9491 105.633Z"
        fill="var(--svg-fill-warning-decor)" />
    <path
        d="M74.8099 98.9082C74.8891 98.9082 74.9682 98.8291 75.0473 98.8291C75.4429 98.5126 75.4429 98.3544 75.4429 97.9588C75.4429 97.5633 75.2846 97.3259 75.2055 97.2468C74.8099 97.405 74.0979 97.3259 74.0188 97.8006C73.8606 98.2753 74.5726 98.5917 74.8099 98.9082Z"
        fill="var(--svg-fill-warning-decor)" />
    <path
        d="M65.7114 98.9877C65.7114 99.0668 65.7114 99.1459 65.7114 99.225C65.8697 99.6206 66.4235 99.937 66.819 99.8579C67.2146 99.7788 67.4519 99.225 67.2937 98.8294C67.2146 98.5921 66.9773 98.3547 66.6608 98.2756C66.7399 98.1174 66.7399 97.9592 66.7399 97.8009C66.5817 97.7218 66.4235 97.4054 66.1861 97.3263C65.6323 97.168 64.9994 97.6427 64.9203 98.0383C64.9203 98.3547 65.3159 98.8294 65.7114 98.9877Z"
        fill="var(--svg-fill-warning-decor)" />
    <path
        d="M73.8607 97.3262C74.2562 97.247 74.5727 96.6932 74.4144 96.3768C74.1771 95.9812 73.8607 95.7439 73.386 95.823C72.9904 95.9021 72.7531 96.3768 72.8322 96.7724C72.9113 97.1679 73.386 97.4053 73.8607 97.3262Z"
        fill="var(--svg-fill-warning-decor)" />
    <path
        d="M68.8764 96.2974C69.1137 96.2183 69.272 95.9809 69.3511 95.9018C69.3511 95.2689 68.9555 94.9525 68.6391 95.0316C68.4017 95.1107 68.0853 95.348 68.0853 95.5854C68.0061 95.9018 68.4808 96.3765 68.8764 96.2974Z"
        fill="var(--svg-fill-warning-decor)" />
    <path
        d="M68.4017 92.5793L68.4808 92.5793C68.8764 93.054 69.5093 93.3705 69.9049 93.2123C70.3796 92.9749 70.6169 92.1838 70.3795 91.63C70.2213 91.3135 69.9049 91.0762 69.5884 90.9971C69.3511 90.6015 68.8764 90.2059 68.4808 90.2059C68.0852 90.2059 67.5315 90.6015 67.5315 90.9971C67.3732 91.8673 67.7688 92.5793 68.4017 92.5793Z"
        fill="var(--svg-fill-warning-decor)" />
    <path
        d="M56.5346 101.044C56.2181 100.174 55.427 99.6203 54.715 99.8577C53.9238 100.095 53.2118 101.361 53.5282 102.073C53.8447 102.785 54.7941 103.26 55.5061 103.022C56.2181 102.627 56.7719 101.756 56.5346 101.044Z"
        fill="var(--svg-fill-warning-decor)" />
    <path
        d="M54.3197 90.5222C53.7659 90.4431 53.2912 91.076 53.2912 91.8671C53.2912 92.3418 53.5285 92.5792 54.0032 92.5792C54.6361 92.6583 55.269 92.1836 55.269 91.788C55.1899 91.2342 54.7152 90.6013 54.3197 90.5222Z"
        fill="var(--svg-fill-warning-decor)" />
    <path
        d="M60.4112 118.687C60.6485 118.608 60.5694 118.212 60.5694 118.054C60.5694 117.975 60.2529 117.816 60.0947 117.816C59.9364 117.816 59.8573 118.212 59.9365 118.37C59.9365 118.449 60.1738 118.766 60.4112 118.687Z"
        fill="var(--svg-fill-warning-decor)" />
    <path
        d="M55.981 92.0254C56.6139 92.0254 57.0886 91.3925 57.0094 90.9969C56.9303 90.6013 56.2974 90.1266 55.5854 90.364C55.1898 90.5222 55.0316 90.8387 55.1107 91.3134C55.1898 91.7089 55.5063 92.0254 55.981 92.0254Z"
        fill="var(--svg-fill-warning-decor)" />
    <path
        d="M59.4617 108.323C60.1737 108.006 60.4902 107.373 60.1737 106.661C59.8573 105.949 59.0661 105.712 58.3541 106.028C57.8003 106.266 57.4838 107.136 57.8003 107.769C58.0376 108.481 58.6705 108.718 59.4617 108.323Z"
        fill="var(--svg-fill-warning-decor)" />
    <path
        d="M57.2465 97.326C57.8003 97.0887 58.1958 96.2184 58.0376 95.5855C57.8794 95.1108 57.0882 94.8735 56.4553 95.1108C55.6642 95.4273 55.4268 95.8228 55.5851 96.4557C55.8224 97.0887 56.6927 97.5633 57.2465 97.326Z"
        fill="var(--svg-fill-warning-decor)" />
    <path
        d="M75.7593 96.6141C75.7593 96.5349 75.6801 96.2976 75.601 96.2976C75.5219 96.2976 75.4428 96.4558 75.3637 96.4558C75.4428 96.5349 75.5219 96.6932 75.601 96.6932C75.601 96.7723 75.7593 96.6141 75.7593 96.6141Z"
        fill="var(--svg-fill-warning-decor)" />
    <path
        d="M95.9333 91.3924C96.8035 91.4715 97.9111 90.6013 97.9111 89.8893C97.9111 89.1772 97.2782 88.5443 96.5662 88.4652C95.6168 88.3861 94.8257 89.0981 94.8257 89.9684C94.8257 90.8386 95.2213 91.3924 95.9333 91.3924Z"
        fill="var(--svg-fill-warning-decor)" />
    <path
        d="M96.2493 81.1869C96.0911 81.266 95.8537 81.5034 95.8537 81.5825C95.8537 81.7407 96.3284 81.8989 96.4866 81.8989C96.5657 81.8989 96.8031 81.6616 96.8031 81.5825C96.724 81.5034 96.6449 81.3451 96.5657 81.266L96.6449 81.266C97.1987 81.3451 97.5942 80.8705 97.6733 80.0793L95.4581 80.0793C95.379 80.554 95.6955 81.0287 96.2493 81.1869Z"
        fill="var(--svg-fill-warning-decor)" />
    <path
        d="M97.1992 83.8764C97.2783 83.4017 97.041 83.0061 96.6454 82.927C96.408 82.8479 96.0125 82.927 95.8542 83.0852C95.4587 83.4017 95.5378 83.7972 96.0125 84.5884C96.4872 84.5093 97.041 84.5884 97.1992 83.8764Z"
        fill="var(--svg-fill-warning-decor)" />
    <path
        d="M40.9488 128.813C40.8697 128.418 40.4741 128.101 40.0786 128.022L40.0786 130C40.5533 129.921 41.0279 129.288 40.9488 128.813Z"
        fill="var(--svg-fill-warning-decor)" />
    <path
        d="M127.104 83.9558C126.946 83.9558 126.788 84.2722 126.788 84.4304C126.788 84.5096 126.946 84.9051 127.183 84.826C127.421 84.7469 127.5 84.3513 127.421 84.1931C127.5 84.114 127.262 83.9558 127.104 83.9558Z"
        fill="var(--svg-fill-warning-decor)" />
    <path
        d="M121.408 80.5541C121.408 80.7124 121.645 80.9497 121.804 80.9497C122.041 80.9497 122.12 80.6332 122.12 80.475C122.12 80.3959 122.041 80.1586 121.883 80.0794L121.487 80.0794C121.487 80.2377 121.408 80.475 121.408 80.5541Z"
        fill="var(--svg-fill-warning-decor)" />
    <path
        d="M54.0823 89.0983C54.7152 88.861 55.269 88.6237 55.1899 87.5952C55.5063 87.9116 55.7437 88.0699 55.9019 88.2281C56.1393 88.7028 56.4557 88.7819 56.9304 88.7028C57.4051 88.5446 57.8798 88.3072 57.9589 87.7534C58.1171 86.4085 58.038 85.8547 57.3259 85.4591C57.3259 85.3009 57.2468 85.1427 57.0886 84.9053C57.326 84.8262 57.4051 84.5889 57.3259 84.2724C57.1677 83.7977 56.8513 83.5604 56.4557 83.7186C56.2975 83.7977 55.981 84.0351 55.8228 84.3515C55.5855 83.956 55.269 83.7977 54.8734 83.956C54.3196 84.1142 54.0823 84.8262 54.557 85.38C54.9525 85.8547 54.7152 86.1711 54.557 86.7249C53.3703 86.4876 52.7374 86.8832 52.7374 87.7534C52.5 87.7534 52.2627 87.6743 52.0253 87.6743C51.6298 87.6743 51.4715 87.9116 51.4715 88.3072C51.5507 88.3863 51.6298 88.5446 51.788 88.6237C52.2627 88.7028 52.5 88.9401 52.8165 89.2566C52.8956 89.3357 53.1329 89.3357 53.2912 89.2566C53.4494 89.2566 53.6867 89.2566 54.0823 89.0983Z"
        fill="var(--svg-fill-warning-decor)" />
    <path
        d="M77.1829 90.522C77.8949 91.0758 78.8443 91.0758 79.319 90.2846C79.8728 89.3353 79.5563 88.5442 78.7652 88.0695C77.7367 87.4366 77.1829 88.6233 76.7082 87.9112C76.2335 87.1992 77.0247 87.1201 76.2335 86.1707C75.4424 85.3005 74.2557 85.3796 74.0183 86.1707C73.781 86.9619 74.3348 87.4366 74.2557 87.5948C74.1766 87.753 73.4645 88.3068 73.9392 88.8606C74.8886 89.8891 75.6006 88.8606 75.9171 89.0188C76.3917 89.4144 76.7082 90.2055 77.1829 90.522Z"
        fill="var(--svg-fill-warning-decor)" />
    <path
        d="M76.9456 93.3699C77.0247 92.8953 76.3127 92.2624 75.6007 92.1832C74.9678 92.1041 74.414 92.4997 74.414 93.0535C74.3349 93.7655 74.9678 94.5566 75.5216 94.5566C76.2336 94.5566 76.8665 94.0028 76.9456 93.3699Z"
        fill="var(--svg-fill-warning-decor)" />
    <path
        d="M84.3824 98.4334C85.0153 98.5125 85.4109 98.3543 85.3318 97.5632C85.2527 96.772 84.0659 96.772 83.8286 97.0885C83.5912 97.4049 83.9868 98.3543 84.3824 98.4334Z"
        fill="var(--svg-fill-warning-decor)" />
    <path
        d="M85.7275 88.9404C86.5978 89.4942 87.468 89.1777 87.5471 88.2284C87.6262 87.6746 87.6262 87.0417 87.5471 86.4087C87.468 85.7758 86.5978 85.222 85.9649 85.222C85.5693 85.222 85.2528 85.3803 85.1737 85.7758C85.0155 86.7252 85.0155 87.6746 85.4111 88.6239C85.4902 88.7822 85.7275 88.9404 85.7275 88.9404Z"
        fill="var(--svg-fill-warning-decor)" />
    <path
        d="M85.0944 80.0789C85.0944 80.6327 85.4899 81.3447 85.9646 81.3447C86.5975 81.3447 87.3887 80.7118 87.4678 80.158L87.4678 80.0789L85.0944 80.0789Z"
        fill="var(--svg-fill-warning-decor)" />
    <path
        d="M87.5468 90.7594C87.6259 90.6803 87.7051 90.2056 87.5468 90.0474C87.3886 89.8892 86.9931 90.1265 86.9139 90.2848C86.8348 90.443 86.8348 90.7594 86.9139 90.8386C87.0722 90.9968 87.3886 90.8385 87.5468 90.7594Z"
        fill="var(--svg-fill-warning-decor)" />
    <path
        d="M61.4396 91.6296C61.9143 91.4714 62.0725 90.9176 61.9143 90.522C61.677 90.0474 61.1232 89.8891 60.7276 90.0474C60.332 90.2847 60.0947 90.8385 60.332 91.155C60.4112 91.5505 61.0441 91.7879 61.4396 91.6296Z"
        fill="var(--svg-fill-warning-decor)" />
    <path
        d="M40.7119 124.937C40.6328 124.779 40.2372 124.62 40.079 124.62L40.079 125.649L40.1581 125.649C40.3163 125.57 40.791 125.174 40.7119 124.937Z"
        fill="var(--svg-fill-warning-decor)" />
    <path
        d="M73.6234 82.1358C73.4652 81.8985 73.0696 81.6611 72.8323 81.7402C72.595 81.8193 72.4367 82.2149 72.2785 82.4523C72.5159 83.0852 72.8323 83.0852 73.1488 83.0061C73.4652 82.7687 73.7817 82.4523 73.6234 82.1358Z"
        fill="var(--svg-fill-warning-decor)" />
    <path
        d="M51.2341 90.4435C51.0759 90.4435 50.9968 90.3643 50.9177 90.3643L50.8386 90.2852C50.6803 90.2061 50.6012 90.0479 50.5221 89.8105C50.2848 89.3359 49.5727 89.1776 49.098 89.4941C48.6233 89.8105 48.7025 90.127 48.8607 90.5226C49.0189 90.839 49.2563 91.1555 49.2563 91.3928C49.2563 92.1048 49.1771 92.8169 49.098 93.608C47.4366 94.1618 47.1202 94.7156 47.9904 95.9814C48.4651 96.6934 49.4145 96.8517 49.9683 96.1396C50.3639 95.6649 50.6012 95.032 50.9968 94.2409C51.7879 94.1618 52.6582 94.0036 52.9746 93.1333C53.3702 92.0257 52.5791 90.6808 51.2341 90.4435Z"
        fill="var(--svg-fill-warning-decor)" />
    <path
        d="M40.2375 111.567C40.1584 111.408 40.1584 111.329 40.0793 111.25L40.0793 112.991C40.3166 112.516 40.3957 112.041 40.2375 111.567Z"
        fill="var(--svg-fill-warning-decor)" />
    <path
        d="M44.1929 106.661C44.1138 106.107 44.272 105.554 43.6391 105.395C43.2435 105.316 42.8479 105.475 42.6106 105.87C42.4524 106.187 42.4523 106.503 42.7688 106.74C43.2435 107.215 43.6391 106.978 44.1929 106.661Z"
        fill="var(--svg-fill-warning-decor)" />
    <path
        d="M42.9274 103.18C42.6109 102.468 42.0571 102.231 41.4242 101.915C40.9495 101.677 40.4748 102.152 40.3166 101.519C40.2375 101.282 40.1584 101.044 40.0792 100.807L40.0792 103.892C40.633 104.051 40.9495 104.684 41.6615 104.605C42.5318 104.525 43.2438 103.892 42.9274 103.18Z"
        fill="var(--svg-fill-warning-decor)" />
    <path
        d="M73.0693 86.5667C73.2275 86.4876 73.3857 86.1711 73.3066 86.0129C73.3066 85.8547 72.911 85.4591 72.7528 85.5382C72.5946 85.6174 72.5155 86.0129 72.5946 86.092C72.6737 86.3294 72.8319 86.6458 73.0693 86.5667Z"
        fill="var(--svg-fill-warning-decor)" />
    <path
        d="M57.9588 81.6616C58.6708 81.5034 59.0664 81.266 59.0664 80.8705C59.0664 80.6331 58.6708 80.2375 58.2753 80.0793L57.7215 80.0793C57.405 80.3167 57.1677 80.7913 57.1677 81.1078C57.1677 81.5034 57.5633 81.7407 57.9588 81.6616Z"
        fill="var(--svg-fill-warning-decor)" />
    <path
        d="M44.1927 116.867C44.43 116.946 44.9047 116.63 45.2212 116.392C45.3003 116.313 45.5376 116.234 45.3794 115.918C45.2212 115.601 44.5091 115.285 44.1136 115.601C43.718 115.839 43.718 116.63 44.1927 116.867Z"
        fill="var(--svg-fill-warning-decor)" />
    <path
        d="M51.076 85.6172C51.788 85.6172 52.1045 85.1425 52.1045 84.2723C52.1045 83.7976 51.5507 83.2438 51.1551 83.2438C50.6013 83.2438 49.5729 84.0349 49.5729 84.5096C49.652 85.0634 50.364 85.6172 51.076 85.6172Z"
        fill="var(--svg-fill-warning-decor)" />
    <path
        d="M52.1046 81.5032C51.8673 81.1076 51.2344 80.7911 50.8388 80.9494C50.5224 81.1076 50.2059 81.9778 50.3641 82.3734C50.5224 82.6899 51.2344 82.8481 51.5508 82.6899C52.1046 82.5317 52.342 81.8987 52.1046 81.5032Z"
        fill="var(--svg-fill-warning-decor)" />
    <path
        d="M70.7749 88.5447C71.2495 88.4656 71.4869 88.1491 71.566 87.7536C71.6451 87.1206 71.2495 86.4086 70.854 86.3295C69.9837 86.1713 69.5091 87.0415 69.3509 87.5162C69.1135 87.9118 70.0629 88.6238 70.7749 88.5447Z"
        fill="var(--svg-fill-warning-decor)" />
    <path
        d="M71.9619 94.1616C72.4366 94.1616 72.5948 93.766 72.5157 93.4496C72.5157 93.2122 72.2784 92.5002 71.9619 92.5002C71.6455 92.5002 71.2499 93.2122 71.2499 93.4496C71.1708 93.8452 71.5664 94.1616 71.9619 94.1616Z"
        fill="var(--svg-fill-warning-decor)" />
    <path
        d="M41.2658 120.981C41.6614 120.823 41.7405 120.427 41.6614 120.032C41.5823 119.715 41.2658 119.557 40.8702 119.636C40.4747 119.715 40.2373 120.111 40.3164 120.427C40.4747 120.902 40.9494 121.139 41.2658 120.981Z"
        fill="var(--svg-fill-warning-decor)" />
    <path
        d="M48.7025 120.902C49.0981 120.902 49.2563 120.506 49.0981 120.032C48.9398 119.557 48.6234 119.557 48.3069 119.715C48.0696 119.873 47.5158 120.348 47.674 120.585C47.7531 120.744 48.4652 120.902 48.7025 120.902Z"
        fill="var(--svg-fill-warning-decor)" />
    <path
        d="M50.5219 113.307C50.8384 113.228 50.9966 112.912 50.7593 112.516C50.601 112.2 50.2846 111.962 49.9681 112.12C49.7308 112.279 49.177 112.832 49.2561 113.149C49.4143 113.465 50.2846 113.386 50.5219 113.307Z"
        fill="var(--svg-fill-warning-decor)" />
    <path
        d="M49.4932 110.301C50.047 110.142 50.2844 109.589 50.047 109.114C49.8888 108.718 49.335 108.481 48.9394 108.639C48.5439 108.798 48.2274 109.43 48.4648 109.905C48.623 110.301 49.0977 110.459 49.4932 110.301Z"
        fill="var(--svg-fill-warning-decor)" />
    <path
        d="M52.3414 101.994C52.4205 101.519 52.2623 101.124 51.7876 100.965C51.6294 100.886 51.3921 100.886 51.2338 100.965C50.9174 101.203 50.6009 101.598 50.2845 101.915C49.256 101.836 48.4648 102.231 48.3857 102.864C48.3066 103.497 49.0977 104.367 49.8098 104.446C50.5218 104.525 50.7591 104.209 50.9965 102.706C51.6294 102.627 52.2623 102.706 52.3414 101.994Z"
        fill="var(--svg-fill-warning-decor)" />
    <path
        d="M52.2623 96.9305C52.1832 96.6932 51.8667 96.4558 51.6294 96.4558C51.4711 96.3767 51.0756 96.6141 50.9964 96.7723C50.7591 97.247 50.9965 97.6425 51.4711 97.8799C51.8667 97.7217 52.3414 97.5634 52.2623 96.9305Z"
        fill="var(--svg-fill-warning-decor)" />
    <path
        d="M52.6582 109.826C52.7373 109.826 52.8164 109.667 52.8164 109.588C52.7373 109.509 52.6582 109.351 52.5 109.43C52.3418 109.509 52.3418 109.667 52.4209 109.747C52.4209 109.826 52.5791 109.905 52.6582 109.826Z"
        fill="var(--svg-fill-warning-decor)" />
    <path
        d="M48.7811 100.095C49.3349 99.9369 49.7305 99.1458 49.5723 98.5129C49.414 98.0382 48.702 97.6426 48.0691 97.8009C47.6735 97.88 47.278 98.5129 47.3571 98.9876C47.5944 99.7787 48.2273 100.253 48.7811 100.095Z"
        fill="var(--svg-fill-warning-decor)" />
    <path
        d="M45.3005 107.769C45.1423 107.848 44.7467 108.402 44.8258 108.639C44.9049 108.877 45.617 108.956 45.7752 108.877C45.9334 108.639 46.2499 108.165 46.0916 108.006C45.9334 107.848 45.4587 107.69 45.3005 107.769Z"
        fill="var(--svg-fill-warning-decor)" />
    <path
        d="M45.9331 112.199C46.4078 111.962 47.0407 110.854 46.8824 110.459C46.6451 109.984 45.7748 109.747 45.0628 110.063C44.4299 110.3 44.2717 110.933 44.6673 111.645C44.8255 112.12 45.5375 112.357 45.9331 112.199Z"
        fill="var(--svg-fill-warning-decor)" />
    <path
        d="M49.9683 98.354C50.2848 98.354 50.8386 97.8002 50.7594 97.3255C50.6803 96.8508 49.9683 96.5344 49.5727 96.8508C49.4145 97.0091 49.4936 97.5629 49.5727 97.9584C49.5727 98.1167 49.5727 98.354 49.9683 98.354Z"
        fill="var(--svg-fill-warning-decor)" />
    <path
        d="M47.4368 97.6421C47.9115 96.93 47.8324 96.2971 47.2786 95.9016C46.6457 95.4269 45.9337 95.506 45.3799 96.1389C44.8261 96.7718 44.2723 97.4047 43.5603 97.9585C43.0065 98.3541 42.69 99.2243 42.9274 99.6199C43.2438 100.015 44.035 99.8572 44.1141 99.6199C44.5096 99.1452 44.9052 99.3826 45.3008 99.3826C45.6964 99.3826 46.0919 99.1452 46.4084 98.9079C46.6457 98.7497 46.804 98.5123 46.9622 98.3541C47.1204 98.1167 47.2786 97.8794 47.4368 97.6421Z"
        fill="var(--svg-fill-warning-decor)" />
    <path
        d="M46.2499 103.418C46.0916 103.101 45.0632 102.706 44.6676 102.864C44.1929 103.022 44.1138 103.497 44.3511 104.13C44.5094 104.604 44.7467 104.842 45.0632 104.921C44.9049 105 44.7467 105.237 44.8258 105.395C44.9049 105.633 45.2214 105.633 45.3796 105.633C45.5379 105.633 45.8543 105.316 45.8543 105.079C45.8543 105 45.6961 104.921 45.5378 104.921C45.5378 104.921 45.5378 104.921 45.617 104.921C46.1708 104.604 46.4872 103.971 46.2499 103.418Z"
        fill="var(--svg-fill-warning-decor)" />
    <rect x="199" y="80" width="61" height="50" rx="1" fill="var(--svg-fill-warning-background)" />
    <path
        d="M188.646 123.354C188.842 123.549 189.158 123.549 189.354 123.354L192.536 120.172C192.731 119.976 192.731 119.66 192.536 119.464C192.34 119.269 192.024 119.269 191.828 119.464L189 122.293L186.172 119.464C185.976 119.269 185.66 119.269 185.464 119.464C185.269 119.66 185.269 119.976 185.464 120.172L188.646 123.354ZM189.354 86.6464C189.158 86.4512 188.842 86.4512 188.646 86.6464L185.464 89.8284C185.269 90.0237 185.269 90.3403 185.464 90.5355C185.66 90.7308 185.976 90.7308 186.172 90.5355L189 87.7071L191.828 90.5355C192.024 90.7308 192.34 90.7308 192.536 90.5355C192.731 90.3403 192.731 90.0237 192.536 89.8284L189.354 86.6464ZM189.5 123V87H188.5V123H189.5Z"
        fill="var(--svg-fill-warning-text)" />
    <path
        d="M138.062 102.08H139.842L136.922 106.8V107.04L140.082 112H138.262L135.562 107.64H135.202L132.502 112H130.682L133.842 107.04V106.8L130.922 102.08H132.702L135.202 106.2H135.562L138.062 102.08ZM150.308 102.08H152.088L149.168 106.8V107.04L152.328 112H150.508L147.808 107.64H147.448L144.748 112H142.928L146.088 107.04V106.8L143.168 102.08H144.948L147.448 106.2H147.808L150.308 102.08ZM155.494 110.56H159.094V99.44H155.614V98H160.654V110.56H164.254V112H155.494V110.56Z"
        fill="var(--svg-fill-warning-text)" />
</svg>