<svg width="300" height="200" viewBox="0 0 300 200" fill="none" xmlns="http://www.w3.org/2000/svg">
    <rect width="300" height="200" fill="var(--svg-fill-background)" />
    <rect x="40" y="30" width="220" height="140" rx="1" fill="var(--svg-fill-lightestShade)" />
    <path
        d="M69.5 51C69.5 50.4477 69.9477 50 70.5 50H183.5C184.052 50 184.5 50.4477 184.5 51V89C184.5 89.5523 184.052 90 183.5 90H70.5C69.9477 90 69.5 89.5523 69.5 89V51Z"
        fill="var(--svg-fill-lightShade)" />
    <path
        d="M184.397 70.3799L184.397 72.2153C184.207 72.152 184.081 72.0255 183.954 71.8356C183.764 71.4558 183.954 70.7596 184.397 70.3799Z"
        fill="var(--svg-fill-mediumShade)" />
    <path
        d="M166.549 50.253C166.612 50.6328 166.296 50.9492 165.853 50.9492C165.473 50.9492 165.22 50.7593 165.22 50.3796C165.22 50.253 165.22 50.1897 165.22 50.1264L166.486 50.1264C166.549 50.1264 166.549 50.1897 166.549 50.253Z"
        fill="var(--svg-fill-mediumShade)" />
    <path
        d="M184.397 78.4177L184.397 78.9873C184.334 78.9873 184.207 78.9873 184.144 78.924C184.081 78.924 183.954 78.6709 183.954 78.6076C184.081 78.5443 184.271 78.3544 184.397 78.4177Z"
        fill="var(--svg-fill-mediumShade)" />
    <path
        d="M165.473 53.1646C165.852 53.1646 166.169 53.4811 166.169 53.8609C166.169 54.2406 165.916 54.3672 165.536 54.3672C165.156 54.3672 164.776 54.114 164.776 53.7343C164.776 53.4178 165.093 53.1014 165.473 53.1646Z"
        fill="var(--svg-fill-mediumShade)" />
    <path
        d="M176.675 56.6454C176.675 56.1391 176.992 55.8226 177.625 55.8226C178.068 55.8226 178.384 56.0125 178.447 56.3922C178.447 56.5188 178.384 56.7087 178.321 56.8353C178.574 56.6454 178.89 56.5188 179.08 56.6454C179.46 56.8986 179.65 57.215 179.523 57.7213C179.397 58.1644 178.827 58.291 178.384 58.1011C178.068 57.9745 177.941 57.5948 178.068 57.215C177.878 57.4049 177.688 57.5948 177.561 57.5948C176.992 57.5948 176.675 57.2783 176.675 56.6454Z"
        fill="var(--svg-fill-mediumShade)" />
    <path
        d="M164.397 51.2659C164.523 51.076 164.777 50.5064 165.156 50.633C165.536 50.7595 165.409 51.3291 165.409 51.5823C165.409 51.8988 165.03 52.0253 164.713 51.8988C164.334 51.8355 164.207 51.5823 164.397 51.2659Z"
        fill="var(--svg-fill-mediumShade)" />
    <path
        d="M178.258 59.5571C178.574 59.4938 178.954 59.8102 178.954 60.1267C178.954 60.5064 178.701 60.6963 178.384 60.6963C178.068 60.6963 177.878 60.5697 177.815 60.2533C177.752 59.8735 177.941 59.5571 178.258 59.5571Z"
        fill="var(--svg-fill-mediumShade)" />
    <path
        d="M168.195 57.4055C168.132 56.8358 168.511 56.4561 169.081 56.3928C169.777 56.3295 170.283 56.7725 170.347 57.532C170.41 58.1017 169.967 58.6713 169.397 58.7979C168.891 58.7979 168.258 58.1017 168.195 57.4055Z"
        fill="var(--svg-fill-mediumShade)" />
    <path
        d="M168.574 68.3545C168.384 68.3545 168.194 68.038 168.194 67.9115C168.194 67.7849 168.321 67.5317 168.447 67.5317C168.637 67.5317 168.764 67.7216 168.764 67.8482C168.891 67.9748 168.764 68.3545 168.574 68.3545Z"
        fill="var(--svg-fill-mediumShade)" />
    <path
        d="M168.891 65.7595C169.081 65.7595 169.207 66.076 169.207 66.2026C169.207 66.2659 169.081 66.519 168.954 66.519C168.828 66.519 168.701 66.3292 168.638 66.2026C168.638 66.076 168.701 65.7595 168.891 65.7595Z"
        fill="var(--svg-fill-mediumShade)" />
    <path
        d="M174.523 51.7091C174.523 52.0255 174.144 52.4053 173.827 52.4053C173.131 52.4053 172.625 52.0888 172.688 51.6458C172.688 51.2027 173.321 50.6964 173.764 50.6964C174.08 50.6964 174.587 51.3293 174.523 51.7091Z"
        fill="var(--svg-fill-mediumShade)" />
    <path
        d="M174.207 50.2532C174.144 50.19 174.017 50.1267 173.954 50.0634L175.157 50.0634C174.967 50.2532 174.524 50.3798 174.207 50.2532Z"
        fill="var(--svg-fill-mediumShade)" />
    <path
        d="M170.157 64.6202C170.41 64.7468 170.347 65.3164 170.22 65.5063C170.157 65.6329 169.84 65.6962 169.587 65.6329C169.334 65.5696 169.144 65.3164 169.334 65.0633C169.524 64.9367 169.904 64.5569 170.157 64.6202Z"
        fill="var(--svg-fill-mediumShade)" />
    <path
        d="M181.359 54.3674C181.359 54.0509 181.486 53.6079 181.676 53.4813C181.929 53.2914 182.372 53.3547 182.815 53.2914C182.815 53.0382 182.878 52.7218 183.068 52.5952C183.131 52.5319 183.195 52.4053 183.321 52.4053C183.701 52.2788 184.017 52.0889 184.46 52.0889L184.46 53.6079C184.207 53.5446 183.954 53.4813 183.764 53.418C183.638 53.4813 183.511 53.6079 183.321 53.6711C183.195 54.1142 183.195 54.5572 183.005 54.7471C182.815 55.0003 182.435 55.1268 182.055 55.2534C181.612 55.2534 181.296 54.8737 181.359 54.3674Z"
        fill="var(--svg-fill-mediumShade)" />
    <path
        d="M183.068 50.0631L184.397 50.0631L184.397 50.253C184.334 50.253 184.27 50.3162 184.27 50.3162C183.701 50.5061 183.321 50.4428 183.068 50.0631Z"
        fill="var(--svg-fill-mediumShade)" />
    <path
        d="M183.827 63.7344C183.574 63.6711 183.448 63.4179 183.384 63.1015C183.258 63.1015 183.068 63.1015 182.941 63.1015C182.562 62.9749 182.435 62.5951 182.562 62.2154C182.688 61.8356 183.005 61.7091 183.321 61.8356C183.448 61.8989 183.511 61.9622 183.638 62.0255C183.827 61.8356 184.081 61.8356 184.397 61.8989L184.397 63.6078C184.144 63.7344 183.954 63.7344 183.827 63.7344Z"
        fill="var(--svg-fill-mediumShade)" />
    <path
        d="M167.056 51.3922C167.499 51.1391 167.879 51.1391 168.195 51.6454C168.068 52.0251 167.879 52.4682 167.372 52.2783C166.993 52.1517 166.993 51.772 167.056 51.3922Z"
        fill="var(--svg-fill-mediumShade)" />
    <path
        d="M182.119 60.2535C181.865 59.5573 181.865 59.494 182.562 59.051C182.878 59.1775 183.131 59.3674 183.448 59.4307C183.891 59.6206 184.207 60.1902 184.017 60.6965C183.891 61.013 183.448 61.3294 183.131 61.2029C182.751 60.8864 182.308 60.7598 182.119 60.2535Z"
        fill="var(--svg-fill-mediumShade)" />
    <path
        d="M181.106 56.4559C181.612 55.8863 182.182 55.9496 182.752 56.3926C183.448 55.8863 184.017 55.7597 184.397 55.8863L184.397 59.5571C184.207 59.4305 184.081 59.2407 183.954 58.9875C183.574 58.3546 183.195 57.7217 182.878 57.0888C181.486 57.6584 181.296 57.5951 181.106 56.4559Z"
        fill="var(--svg-fill-mediumShade)" />
    <path
        d="M180.283 58.5443C180.093 58.2911 180.03 57.9747 180.283 57.7215C180.473 57.5316 180.853 57.4051 181.043 57.4051C181.612 57.5316 181.486 58.1013 181.549 58.5443C181.043 58.8607 180.6 58.9873 180.283 58.5443Z"
        fill="var(--svg-fill-mediumShade)" />
    <path
        d="M180.726 51.6455C180.852 51.2658 181.422 51.0759 182.055 51.2658C182.371 51.3291 182.625 51.8987 182.498 52.2152C182.371 52.6582 181.802 52.9747 181.422 52.9114C180.979 52.7848 180.536 52.0253 180.726 51.6455Z"
        fill="var(--svg-fill-mediumShade)" />
    <path
        d="M178.574 50.0636L181.106 50.0636C181.043 50.2535 180.916 50.4433 180.79 50.5066C180.6 50.6332 180.41 50.6332 180.22 50.6332C180.283 50.8864 180.22 51.1396 180.093 51.3294C179.903 51.5193 179.777 51.7725 179.65 51.899C180.03 52.2155 180.03 52.9117 179.84 53.2282C179.65 53.5446 178.321 53.8611 177.815 53.6712C177.498 53.2282 177.119 52.5952 176.739 51.9623C176.676 51.899 176.802 51.6459 176.866 51.5826C177.119 51.2661 177.245 51.013 177.182 50.5699C177.182 50.3801 177.245 50.1902 177.372 50.0636L178.574 50.0636Z"
        fill="var(--svg-fill-mediumShade)" />
    <path
        d="M169.27 50.4429C169.08 51.0126 168.511 51.329 168.068 51.1391C167.625 50.9493 167.308 50.5062 167.308 50.1265L169.27 50.1265C169.27 50.1898 169.27 50.3164 169.27 50.4429Z"
        fill="var(--svg-fill-mediumShade)" />
    <path
        d="M168.575 54.5571C169.018 54.747 169.144 55.19 168.891 55.8229C168.701 56.3292 168.321 56.5824 167.942 56.3925C167.625 56.2659 167.119 55.3166 167.182 55.0634C167.435 54.5571 168.005 54.3672 168.575 54.5571Z"
        fill="var(--svg-fill-mediumShade)" />
    <path
        d="M183.195 55.6328C183.131 55.7593 183.068 55.9492 182.878 55.9492C182.688 55.9492 182.625 55.7593 182.625 55.696C182.625 55.5695 182.688 55.253 182.941 55.253C183.195 55.253 183.195 55.5695 183.195 55.6328Z"
        fill="var(--svg-fill-mediumShade)" />
    <path
        d="M163.701 55.1264C163.954 54.5568 164.65 54.3036 165.41 54.6201C166.042 54.8732 166.296 55.3796 166.042 56.0125C165.979 56.139 165.916 56.3289 165.789 56.3922C166.359 56.5188 166.929 57.0884 166.992 57.658C167.055 58.3542 166.486 58.9239 165.599 58.9872C164.967 59.0504 164.46 58.6074 164.334 57.9745C164.27 57.5947 164.46 57.1517 164.777 56.8352C164.65 56.8352 164.46 56.8353 164.334 56.772C163.827 56.4555 163.511 55.6327 163.701 55.1264Z"
        fill="var(--svg-fill-mediumShade)" />
    <path
        d="M179.207 55.4428C179.017 55.696 178.638 55.8226 178.321 55.6327C178.131 55.5061 177.941 55.1897 177.941 54.9998C178.005 54.4302 178.448 54.3669 178.954 54.3036C179.207 54.62 179.524 54.9998 179.207 55.4428Z"
        fill="var(--svg-fill-mediumShade)" />
    <path
        d="M157.498 50.6332C157.245 50.7598 156.929 50.5066 156.929 50.1902C156.929 50.1269 156.929 50.1269 156.929 50.0636L158.005 50.0636C157.941 50.3168 157.688 50.5066 157.498 50.6332Z"
        fill="var(--svg-fill-mediumShade)" />
    <path
        d="M141.739 51.899C141.739 51.5193 141.992 51.2028 142.372 51.2028C142.815 51.2028 143.131 51.456 143.131 51.7724C143.131 52.1522 142.878 52.5319 142.498 52.5319C142.182 52.5952 141.739 52.2788 141.739 51.899Z"
        fill="var(--svg-fill-mediumShade)" />
    <path
        d="M142.815 64.3672C142.435 64.3672 142.372 63.8609 142.372 63.7343C142.372 63.5444 142.562 63.2912 142.752 63.2912C143.068 63.1647 143.321 63.4811 143.321 63.7343C143.321 63.8609 143.195 64.3672 142.815 64.3672Z"
        fill="var(--svg-fill-mediumShade)" />
    <path
        d="M143.258 57.405C143.068 57.2151 143.637 56.2024 143.954 56.1391C144.27 56.0759 144.523 56.7088 144.334 57.2151C144.207 57.7214 143.511 57.5315 143.258 57.405Z"
        fill="var(--svg-fill-mediumShade)" />
    <path
        d="M145.346 59.6839C145.599 59.8105 145.726 60.7599 145.346 60.8865C145.03 61.013 144.587 60.8232 144.523 60.57C144.334 60.1903 145.03 59.5573 145.346 59.6839Z"
        fill="var(--svg-fill-mediumShade)" />
    <path
        d="M145.979 50.1902C145.536 50.3168 145.156 50.1902 144.776 50.0637L146.359 50.0637C146.232 50.127 146.105 50.1902 145.979 50.1902Z"
        fill="var(--svg-fill-mediumShade)" />
    <path
        d="M150.979 58.228C150.789 58.2913 150.22 58.0382 150.22 57.7217C150.22 57.4053 150.473 57.0888 150.853 57.0888C151.169 57.0888 151.486 57.342 151.359 57.6584C151.296 57.9116 151.169 58.1647 150.979 58.228Z"
        fill="var(--svg-fill-mediumShade)" />
    <path
        d="M134.017 50.5063C133.828 50.5063 133.638 50.1899 133.638 50.0633C133.638 50.0633 133.638 50.0633 133.638 50L134.271 50C134.271 50.1899 134.144 50.5063 134.017 50.5063Z"
        fill="var(--svg-fill-mediumShade)" />
    <path
        d="M133.574 55.5063C133.574 56.1393 132.942 56.8354 132.372 56.8354C131.612 56.8354 130.979 56.3291 130.979 55.6962C130.979 55.1266 131.802 54.2405 132.372 54.1772C132.942 54.1772 133.574 54.8101 133.574 55.5063Z"
        fill="var(--svg-fill-mediumShade)" />
    <path
        d="M124.27 52.532C124.46 52.5953 124.967 52.9117 124.967 53.1016C124.903 53.2915 124.46 53.5446 124.207 53.5446C123.891 53.6079 123.701 53.2915 123.764 52.9117C123.764 52.532 124.017 52.4687 124.27 52.532Z"
        fill="var(--svg-fill-mediumShade)" />
    <path
        d="M150.093 53.2914C150.093 52.7217 150.41 52.342 150.789 52.342C151.359 52.342 152.055 52.9749 151.992 53.4812C151.992 53.861 151.486 54.2407 150.979 54.2407C150.473 54.2407 150.093 53.9243 150.093 53.2914Z"
        fill="var(--svg-fill-mediumShade)" />
    <path
        d="M143.638 53.2909C143.511 53.1643 143.448 52.7212 143.574 52.5314C143.828 52.0883 144.524 52.0883 144.777 52.4048C145.03 52.7212 144.967 53.3541 144.397 53.4807C144.207 53.6073 143.828 53.4174 143.638 53.2909Z"
        fill="var(--svg-fill-mediumShade)" />
    <path
        d="M136.169 60.1899C136.295 60.2532 136.359 60.5697 136.232 60.6962C136.169 60.8228 135.852 60.8861 135.726 60.8228C135.599 60.7595 135.409 60.4431 135.473 60.2532C135.599 60.1266 136.105 60.1266 136.169 60.1899Z"
        fill="var(--svg-fill-mediumShade)" />
    <path
        d="M134.903 53.3546C134.524 53.2913 134.271 52.9748 134.271 52.5951C134.334 52.2786 134.65 51.9622 134.967 52.0255C135.346 52.0888 135.6 52.4052 135.536 52.785C135.536 53.1647 135.283 53.4179 134.903 53.3546Z"
        fill="var(--svg-fill-mediumShade)" />
    <path
        d="M158.511 67.8481C158.321 67.5316 157.815 67.0253 158.068 66.5822C158.321 66.1392 158.701 66.4557 158.891 66.3924C159.524 66.2658 160.22 66.7721 160.22 67.2784C160.22 67.3417 160.22 67.405 160.157 67.4683C160.22 67.4683 160.22 67.4683 160.283 67.4683C160.536 67.4683 160.979 67.9747 160.979 68.2911C160.979 68.6709 160.726 68.9873 160.283 68.9873C159.903 68.9873 159.65 68.7974 159.587 68.4177C159.587 68.3544 159.587 68.2278 159.65 68.1645C159.587 68.2278 159.524 68.2278 159.46 68.2911C159.081 68.4177 158.701 68.1645 158.511 67.8481Z"
        fill="var(--svg-fill-mediumShade)" />
    <path
        d="M166.296 67.0254C166.486 67.152 166.992 67.595 166.865 67.8482C166.739 68.1014 166.169 68.1014 165.916 68.0381C165.663 68.0381 165.536 67.595 165.663 67.2786C165.726 67.0254 165.979 66.8356 166.296 67.0254Z"
        fill="var(--svg-fill-mediumShade)" />
    <path
        d="M172.435 70.6962C172.561 70.2532 172.878 70.0633 173.257 70.1266C173.7 70.2531 174.08 70.8861 173.954 71.3924C173.827 71.7721 173.384 72.0253 173.004 71.8987C172.561 71.7721 172.245 71.1392 172.435 70.6962Z"
        fill="var(--svg-fill-mediumShade)" />
    <path
        d="M150.853 63.7979C150.6 63.7979 150.473 63.608 150.41 63.4181C150.41 63.2915 150.41 62.8485 150.726 62.7852C151.043 62.7219 151.169 63.1649 151.169 63.2915C151.169 63.4814 151.106 63.7979 150.853 63.7979Z"
        fill="var(--svg-fill-mediumShade)" />
    <path
        d="M173.258 78.1015C173.384 78.1648 173.448 78.5445 173.448 78.6078C173.384 78.7344 173.195 78.9243 173.068 78.861C172.878 78.7977 172.878 78.5445 172.878 78.4179C172.815 78.2914 173.068 78.0382 173.258 78.1015Z"
        fill="var(--svg-fill-mediumShade)" />
    <path
        d="M160.853 53.671C160.347 53.4178 160.347 53.0381 160.157 53.1014C159.967 53.1647 159.587 53.4811 159.271 53.2912C158.954 53.1014 159.144 51.9621 159.208 51.7723C159.208 51.7723 159.208 51.7723 159.271 51.709C159.144 51.5191 159.144 51.3292 159.208 51.1393C159.208 50.9495 159.271 50.8229 159.334 50.7596C159.144 50.5697 158.891 50.4431 158.891 50.1267L158.891 50.0634L160.916 50.0634C160.853 50.19 160.79 50.3799 160.727 50.5064C161.17 50.633 161.613 50.6963 161.992 50.8229C162.119 50.4431 162.182 50.2533 162.309 50.1267L162.942 50.1267C162.942 50.1267 163.005 50.1267 163.005 50.19C163.005 50.19 163.068 50.19 163.068 50.1267L164.208 50.1267C164.397 50.3166 164.461 50.633 164.461 50.8862C164.461 51.5824 164.144 51.8355 163.448 51.8355C162.942 51.8355 162.499 51.5191 162.372 51.2026C162.309 51.709 162.182 52.0254 161.929 52.152C161.992 52.2786 161.992 52.3419 161.992 52.5317C162.119 53.2279 161.359 53.9241 160.853 53.671Z"
        fill="var(--svg-fill-mediumShade)" />
    <path
        d="M162.056 55.6329C162.056 55.3164 162.309 55 162.689 55C163.068 55 163.321 55.1899 163.385 55.5696C163.448 55.9494 163.132 56.3291 162.752 56.3291C162.435 56.2658 162.056 55.9494 162.056 55.6329Z"
        fill="var(--svg-fill-mediumShade)" />
    <path
        d="M179.334 60.253C179.207 60.1264 179.144 59.81 179.207 59.6201C179.334 59.2403 179.714 59.1138 180.03 59.2403C180.537 59.3669 180.537 59.9998 180.473 60.253C180.41 60.5062 179.714 60.6328 179.334 60.253Z"
        fill="var(--svg-fill-mediumShade)" />
    <path
        d="M149.461 59.6204C149.397 59.1141 149.65 58.7976 149.904 58.8609C150.157 58.9242 150.41 59.1141 150.536 59.3672C150.663 59.6204 150.283 60.0001 149.967 59.9368C149.777 59.9368 149.587 59.6837 149.461 59.6204Z"
        fill="var(--svg-fill-mediumShade)" />
    <path
        d="M150.663 68.418C150.537 68.418 150.347 68.2281 150.347 68.1015C150.347 67.9749 150.41 67.6585 150.726 67.6585C151.043 67.6585 151.043 67.9749 151.043 68.1015C150.98 68.2281 150.79 68.418 150.663 68.418Z"
        fill="var(--svg-fill-mediumShade)" />
    <path
        d="M164.333 61.3926C164.08 61.1394 164.08 60.823 164.333 60.4432C164.587 60.1268 164.84 60.0002 165.22 60.1901C165.473 60.3167 165.599 60.5698 165.663 60.823C165.789 60.5065 166.042 60.3167 166.295 60.3167C166.738 60.3167 167.245 60.6964 167.435 61.1394C167.371 61.0129 167.435 60.823 167.498 60.6964C167.625 60.38 168.131 60.1901 168.574 60.4432C168.637 60.6331 168.764 60.9496 168.701 61.2027C168.637 61.5825 168.131 61.7091 167.751 61.5825C167.625 61.5192 167.498 61.3926 167.498 61.266C167.561 61.3926 167.561 61.4559 167.561 61.5825C167.561 61.9622 167.055 62.4053 166.612 62.4053C165.979 62.4053 165.536 62.0888 165.473 61.4559C165.283 61.6458 164.713 61.7091 164.333 61.3926Z"
        fill="var(--svg-fill-mediumShade)" />
    <path
        d="M152.371 50.4429C151.928 50.4429 151.485 50.3163 151.169 50.0631L153.068 50.0631C152.941 50.3163 152.688 50.4429 152.371 50.4429Z"
        fill="var(--svg-fill-mediumShade)" />
    <path
        d="M163.638 62.0253C163.638 62.3417 163.384 62.6582 163.068 62.5949C162.878 62.5316 162.372 62.405 162.435 62.0253C162.498 61.6455 162.941 61.5189 163.195 61.4556C163.511 61.4556 163.638 61.7721 163.638 62.0253Z"
        fill="var(--svg-fill-mediumShade)" />
    <path
        d="M156.865 51.8354C156.865 52.3417 156.486 52.9114 156.106 52.9747C155.6 53.0379 154.903 52.4683 154.903 51.962C154.903 51.6455 155.346 51.2025 155.853 51.2025C156.359 51.0759 156.802 51.3924 156.865 51.8354Z"
        fill="var(--svg-fill-mediumShade)" />
    <path
        d="M162.435 74.1771C162.498 73.734 162.372 73.291 162.878 73.1644C163.195 73.1011 163.511 73.2277 163.701 73.5441C163.827 73.7973 163.827 74.0505 163.574 74.2403C163.258 74.6201 162.878 74.4302 162.435 74.1771Z"
        fill="var(--svg-fill-mediumShade)" />
    <path
        d="M163.701 70.5064C163.638 70.7596 163.321 70.7596 163.258 70.6963C163.131 70.633 163.068 70.4431 163.005 70.3165C163.005 70.2532 163.258 70.0634 163.321 70.1267C163.448 70.1899 163.764 70.3165 163.701 70.5064Z"
        fill="var(--svg-fill-mediumShade)" />
    <path
        d="M156.612 65.1265C156.549 65.1265 156.486 65.0632 156.422 65.0632C156.106 64.81 156.106 64.6834 156.106 64.367C156.106 64.0505 156.233 63.8606 156.296 63.7974C156.612 63.9239 157.182 63.8606 157.245 64.2404C157.372 64.6201 156.802 64.8733 156.612 65.1265Z"
        fill="var(--svg-fill-mediumShade)" />
    <path
        d="M163.891 65.19C163.891 65.2533 163.891 65.3166 163.891 65.3799C163.764 65.6964 163.321 65.9495 163.005 65.8862C162.688 65.8229 162.499 65.3799 162.625 65.0634C162.688 64.8736 162.878 64.6837 163.131 64.6204C163.068 64.4938 163.068 64.3672 163.068 64.2407C163.195 64.1774 163.321 63.9242 163.511 63.8609C163.954 63.7343 164.461 64.1141 164.524 64.4305C164.524 64.6837 164.207 65.0634 163.891 65.19Z"
        fill="var(--svg-fill-mediumShade)" />
    <path
        d="M157.372 63.8609C157.055 63.7976 156.802 63.3546 156.929 63.1014C157.119 62.785 157.372 62.5951 157.752 62.6584C158.068 62.7217 158.258 63.1014 158.195 63.4179C158.131 63.7343 157.752 63.9242 157.372 63.8609Z"
        fill="var(--svg-fill-mediumShade)" />
    <path
        d="M161.359 63.0379C161.169 62.9746 161.043 62.7848 160.979 62.7215C160.979 62.2151 161.296 61.962 161.549 62.0253C161.739 62.0886 161.992 62.2784 161.992 62.4683C162.055 62.7215 161.676 63.1012 161.359 63.0379Z"
        fill="var(--svg-fill-mediumShade)" />
    <path
        d="M161.739 60.0633L161.676 60.0633C161.359 60.443 160.853 60.6962 160.536 60.5696C160.157 60.3797 159.967 59.7468 160.157 59.3038C160.283 59.0506 160.536 58.8607 160.789 58.7974C160.979 58.481 161.359 58.1645 161.676 58.1645C161.992 58.1645 162.435 58.481 162.435 58.7974C162.562 59.4937 162.245 60.0633 161.739 60.0633Z"
        fill="var(--svg-fill-mediumShade)" />
    <path
        d="M171.233 66.8356C171.486 66.1394 172.119 65.6964 172.688 65.8862C173.321 66.0761 173.891 67.0888 173.638 67.6584C173.384 68.228 172.625 68.6078 172.055 68.4179C171.486 68.1014 171.043 67.4052 171.233 66.8356Z"
        fill="var(--svg-fill-mediumShade)" />
    <path
        d="M173.005 58.4178C173.448 58.3545 173.827 58.8608 173.827 59.4937C173.827 59.8735 173.638 60.0633 173.258 60.0633C172.751 60.1266 172.245 59.7469 172.245 59.4304C172.308 58.9874 172.688 58.481 173.005 58.4178Z"
        fill="var(--svg-fill-mediumShade)" />
    <path
        d="M168.131 80.9494C167.941 80.8861 168.005 80.5697 168.005 80.4431C168.005 80.3798 168.258 80.2532 168.385 80.2532C168.511 80.2532 168.574 80.5696 168.511 80.6962C168.511 80.7595 168.321 81.0127 168.131 80.9494Z"
        fill="var(--svg-fill-mediumShade)" />
    <path
        d="M171.675 59.6201C171.169 59.6201 170.789 59.1138 170.853 58.7973C170.916 58.4809 171.422 58.1011 171.992 58.291C172.308 58.4176 172.435 58.6707 172.372 59.0505C172.308 59.3669 172.055 59.6201 171.675 59.6201Z"
        fill="var(--svg-fill-mediumShade)" />
    <path
        d="M168.891 72.6581C168.321 72.4049 168.068 71.8986 168.321 71.329C168.574 70.7594 169.207 70.5695 169.777 70.8227C170.22 71.0125 170.473 71.7087 170.22 72.2151C170.03 72.7847 169.524 72.9746 168.891 72.6581Z"
        fill="var(--svg-fill-mediumShade)" />
    <path
        d="M170.663 63.8609C170.22 63.671 169.903 62.9748 170.03 62.4685C170.157 62.0887 170.79 61.8989 171.296 62.0887C171.929 62.3419 172.119 62.6584 171.992 63.1647C171.802 63.671 171.106 64.0508 170.663 63.8609Z"
        fill="var(--svg-fill-mediumShade)" />
    <path
        d="M155.853 63.2911C155.853 63.2278 155.916 63.0379 155.979 63.0379C156.042 63.0379 156.106 63.1645 156.169 63.1645C156.106 63.2278 156.042 63.3543 155.979 63.3543C155.979 63.4176 155.853 63.2911 155.853 63.2911Z"
        fill="var(--svg-fill-mediumShade)" />
    <path
        d="M139.714 59.1141C139.017 59.1774 138.131 58.4812 138.131 57.9116C138.131 57.342 138.638 56.8357 139.207 56.7724C139.967 56.7091 140.6 57.2787 140.6 57.9749C140.6 58.6711 140.283 59.1141 139.714 59.1141Z"
        fill="var(--svg-fill-mediumShade)" />
    <path
        d="M139.461 50.9494C139.587 51.0127 139.777 51.2026 139.777 51.2659C139.777 51.3925 139.397 51.519 139.271 51.519C139.207 51.519 139.017 51.3292 139.017 51.2659C139.081 51.2026 139.144 51.076 139.207 51.0127L139.144 51.0127C138.701 51.076 138.385 50.6963 138.321 50.0634L140.093 50.0634C140.157 50.4431 139.904 50.8228 139.461 50.9494Z"
        fill="var(--svg-fill-mediumShade)" />
    <path
        d="M138.701 53.1013C138.637 52.7215 138.827 52.4051 139.144 52.3418C139.334 52.2785 139.65 52.3418 139.777 52.4684C140.093 52.7215 140.03 53.038 139.65 53.6709C139.27 53.6076 138.827 53.6709 138.701 53.1013Z"
        fill="var(--svg-fill-mediumShade)" />
    <path
        d="M183.701 89.0506C183.765 88.7342 184.081 88.481 184.397 88.4177L184.397 90C184.018 89.9367 183.638 89.4304 183.701 89.0506Z"
        fill="var(--svg-fill-mediumShade)" />
    <path
        d="M114.777 53.1646C114.903 53.1646 115.03 53.4178 115.03 53.5444C115.03 53.6077 114.903 53.9241 114.714 53.8608C114.524 53.7975 114.46 53.4811 114.524 53.3545C114.46 53.2912 114.65 53.1646 114.777 53.1646Z"
        fill="var(--svg-fill-mediumShade)" />
    <path
        d="M119.334 50.4433C119.334 50.5699 119.144 50.7598 119.017 50.7598C118.827 50.7598 118.764 50.5066 118.764 50.38C118.764 50.3167 118.827 50.1268 118.954 50.0636L119.271 50.0636C119.271 50.1901 119.334 50.38 119.334 50.4433Z"
        fill="var(--svg-fill-mediumShade)" />
    <path
        d="M173.194 57.2786C172.688 57.0887 172.245 56.8988 172.308 56.0761C172.055 56.3292 171.865 56.4558 171.738 56.5824C171.549 56.9621 171.295 57.0254 170.916 56.9621C170.536 56.8355 170.156 56.6457 170.093 56.2026C169.966 55.1267 170.03 54.6837 170.599 54.3672C170.599 54.2406 170.662 54.114 170.789 53.9242C170.599 53.8609 170.536 53.671 170.599 53.4178C170.726 53.0381 170.979 52.8482 171.295 52.9748C171.422 53.0381 171.675 53.228 171.802 53.4811C171.992 53.1647 172.245 53.0381 172.561 53.1647C173.004 53.2913 173.194 53.8609 172.814 54.3039C172.498 54.6837 172.688 54.9368 172.814 55.3799C173.764 55.19 174.27 55.5064 174.27 56.2026C174.46 56.2026 174.65 56.1393 174.84 56.1393C175.156 56.1393 175.283 56.3292 175.283 56.6457C175.219 56.709 175.156 56.8355 175.03 56.8988C174.65 56.9621 174.46 57.152 174.207 57.4052C174.143 57.4685 173.954 57.4685 173.827 57.4052C173.7 57.4052 173.511 57.4052 173.194 57.2786Z"
        fill="var(--svg-fill-mediumShade)" />
    <path
        d="M154.714 58.4178C154.144 58.8608 153.385 58.8608 153.005 58.2279C152.562 57.4684 152.815 56.8355 153.448 56.4558C154.271 55.9494 154.714 56.8988 155.094 56.3292C155.474 55.7596 154.841 55.6963 155.474 54.9368C156.106 54.2406 157.056 54.3039 157.246 54.9368C157.436 55.5697 156.993 55.9494 157.056 56.076C157.119 56.2026 157.689 56.6456 157.309 57.0887C156.549 57.9115 155.98 57.0887 155.727 57.2153C155.347 57.5317 155.094 58.1646 154.714 58.4178Z"
        fill="var(--svg-fill-mediumShade)" />
    <path
        d="M154.904 60.6961C154.84 60.3164 155.41 59.8101 155.98 59.7468C156.486 59.6835 156.929 59.9999 156.929 60.443C156.992 61.0126 156.486 61.6455 156.043 61.6455C155.473 61.6455 154.967 61.2025 154.904 60.6961Z"
        fill="var(--svg-fill-mediumShade)" />
    <path
        d="M148.954 64.7466C148.448 64.8099 148.131 64.6833 148.195 64.0504C148.258 63.4175 149.207 63.4175 149.397 63.6707C149.587 63.9239 149.271 64.6833 148.954 64.7466Z"
        fill="var(--svg-fill-mediumShade)" />
    <path
        d="M147.878 57.1521C147.182 57.5952 146.486 57.342 146.422 56.5825C146.359 56.1395 146.359 55.6331 146.422 55.1268C146.486 54.6205 147.182 54.1774 147.688 54.1774C148.005 54.1774 148.258 54.304 148.321 54.6205C148.448 55.38 148.448 56.1395 148.131 56.899C148.068 57.0255 147.878 57.1521 147.878 57.1521Z"
        fill="var(--svg-fill-mediumShade)" />
    <path
        d="M148.385 50.063C148.385 50.5061 148.068 51.0757 147.688 51.0757C147.182 51.0757 146.549 50.5694 146.486 50.1263L146.486 50.063L148.385 50.063Z"
        fill="var(--svg-fill-mediumShade)" />
    <path
        d="M146.423 58.6076C146.359 58.5444 146.296 58.1646 146.423 58.038C146.549 57.9115 146.866 58.1013 146.929 58.2279C146.992 58.3545 146.992 58.6076 146.929 58.6709C146.802 58.7975 146.549 58.6709 146.423 58.6076Z"
        fill="var(--svg-fill-mediumShade)" />
    <path
        d="M167.309 59.3036C166.929 59.177 166.802 58.734 166.929 58.4175C167.119 58.0378 167.562 57.9112 167.878 58.0378C168.195 58.2277 168.384 58.6707 168.195 58.9239C168.131 59.2403 167.625 59.4302 167.309 59.3036Z"
        fill="var(--svg-fill-mediumShade)" />
    <path
        d="M183.891 85.9494C183.954 85.8228 184.271 85.6963 184.397 85.6963L184.397 86.519L184.334 86.519C184.207 86.4558 183.828 86.1393 183.891 85.9494Z"
        fill="var(--svg-fill-mediumShade)" />
    <path
        d="M157.562 51.7086C157.688 51.5188 158.005 51.3289 158.194 51.3922C158.384 51.4555 158.511 51.7719 158.637 51.9618C158.448 52.4681 158.194 52.4681 157.941 52.4048C157.688 52.215 157.435 51.9618 157.562 51.7086Z"
        fill="var(--svg-fill-mediumShade)" />
    <path
        d="M175.473 58.3547C175.6 58.3547 175.663 58.2914 175.726 58.2914L175.79 58.2281C175.916 58.1648 175.979 58.0382 176.043 57.8483C176.233 57.4686 176.802 57.342 177.182 57.5952C177.562 57.8483 177.498 58.1015 177.372 58.4179C177.245 58.6711 177.055 58.9243 177.055 59.1142C177.055 59.6838 177.119 60.2534 177.182 60.8863C178.511 61.3293 178.764 61.7724 178.068 62.785C177.688 63.3546 176.929 63.4812 176.486 62.9116C176.169 62.5319 175.979 62.0255 175.663 61.3926C175.03 61.3293 174.334 61.2027 174.081 60.5065C173.764 59.6205 174.397 58.5445 175.473 58.3547Z"
        fill="var(--svg-fill-mediumShade)" />
    <path
        d="M184.27 75.2533C184.333 75.1268 184.333 75.0635 184.397 75.0002L184.397 76.3926C184.207 76.0128 184.143 75.6331 184.27 75.2533Z"
        fill="var(--svg-fill-mediumShade)" />
    <path
        d="M181.106 71.3289C181.169 70.8859 181.043 70.4428 181.549 70.3162C181.865 70.2529 182.182 70.3795 182.372 70.696C182.498 70.9492 182.498 71.2023 182.245 71.3922C181.865 71.7719 181.549 71.5821 181.106 71.3289Z"
        fill="var(--svg-fill-mediumShade)" />
    <path
        d="M182.118 68.5443C182.372 67.9747 182.815 67.7848 183.321 67.5316C183.701 67.3418 184.08 67.7215 184.207 67.2152C184.27 67.0253 184.334 66.8354 184.397 66.6455L184.397 69.1139C183.954 69.2405 183.701 69.7468 183.131 69.6835C182.435 69.6202 181.865 69.1139 182.118 68.5443Z"
        fill="var(--svg-fill-mediumShade)" />
    <path
        d="M158.005 55.2533C157.878 55.19 157.751 54.9368 157.815 54.8102C157.815 54.6837 158.131 54.3672 158.258 54.4305C158.384 54.4938 158.448 54.8102 158.384 54.8735C158.321 55.0634 158.194 55.3166 158.005 55.2533Z"
        fill="var(--svg-fill-mediumShade)" />
    <path
        d="M170.093 51.3292C169.523 51.2026 169.207 51.0127 169.207 50.6963C169.207 50.5064 169.523 50.1899 169.84 50.0634L170.283 50.0634C170.536 50.2532 170.726 50.633 170.726 50.8861C170.726 51.2026 170.41 51.3925 170.093 51.3292Z"
        fill="var(--svg-fill-mediumShade)" />
    <path
        d="M181.106 79.4935C180.916 79.5568 180.537 79.3036 180.283 79.1137C180.22 79.0505 180.03 78.9872 180.157 78.734C180.283 78.4808 180.853 78.2277 181.169 78.4808C181.486 78.6707 181.486 79.3036 181.106 79.4935Z"
        fill="var(--svg-fill-mediumShade)" />
    <path
        d="M175.599 54.4937C175.03 54.4937 174.776 54.1139 174.776 53.4177C174.776 53.038 175.219 52.5949 175.536 52.5949C175.979 52.5949 176.802 53.2278 176.802 53.6076C176.738 54.0506 176.169 54.4937 175.599 54.4937Z"
        fill="var(--svg-fill-mediumShade)" />
    <path
        d="M174.776 51.2026C174.966 50.8862 175.473 50.633 175.789 50.7596C176.042 50.8862 176.295 51.5824 176.169 51.8988C176.042 52.152 175.473 52.2786 175.219 52.152C174.776 52.0254 174.587 51.5191 174.776 51.2026Z"
        fill="var(--svg-fill-mediumShade)" />
    <path
        d="M159.84 56.836C159.461 56.7727 159.271 56.5195 159.207 56.203C159.144 55.6967 159.461 55.1271 159.777 55.0638C160.473 54.9372 160.853 55.6334 160.979 56.0132C161.169 56.3296 160.41 56.8992 159.84 56.836Z"
        fill="var(--svg-fill-mediumShade)" />
    <path
        d="M158.891 61.3291C158.511 61.3291 158.384 61.0126 158.448 60.7595C158.448 60.5696 158.638 60 158.891 60C159.144 60 159.46 60.5696 159.46 60.7595C159.524 61.0759 159.207 61.3291 158.891 61.3291Z"
        fill="var(--svg-fill-mediumShade)" />
    <path
        d="M183.447 82.7847C183.131 82.6581 183.068 82.3416 183.131 82.0252C183.194 81.772 183.447 81.6454 183.764 81.7087C184.08 81.772 184.27 82.0885 184.207 82.3416C184.08 82.7214 183.701 82.9113 183.447 82.7847Z"
        fill="var(--svg-fill-mediumShade)" />
    <path
        d="M177.498 82.7217C177.182 82.7217 177.055 82.4052 177.182 82.0255C177.308 81.6457 177.562 81.6457 177.815 81.7723C178.005 81.8989 178.448 82.2786 178.321 82.4685C178.258 82.5951 177.688 82.7217 177.498 82.7217Z"
        fill="var(--svg-fill-mediumShade)" />
    <path
        d="M176.043 76.6455C175.789 76.5822 175.663 76.3291 175.853 76.0126C175.979 75.7595 176.232 75.5696 176.486 75.6962C176.675 75.8228 177.118 76.2658 177.055 76.519C176.929 76.7721 176.232 76.7088 176.043 76.6455Z"
        fill="var(--svg-fill-mediumShade)" />
    <path
        d="M176.865 74.2406C176.422 74.114 176.233 73.6709 176.422 73.2912C176.549 72.9747 176.992 72.7849 177.309 72.9115C177.625 73.038 177.878 73.5444 177.688 73.9241C177.562 74.2406 177.182 74.3671 176.865 74.2406Z"
        fill="var(--svg-fill-mediumShade)" />
    <path
        d="M174.587 67.595C174.524 67.2152 174.65 66.8988 175.03 66.7722C175.156 66.7089 175.346 66.7089 175.473 66.7722C175.726 66.962 175.979 67.2785 176.232 67.5317C177.055 67.4684 177.688 67.7848 177.751 68.2912C177.815 68.7975 177.182 69.4937 176.612 69.557C176.043 69.6203 175.853 69.3671 175.663 68.1646C175.156 68.1013 174.65 68.1646 174.587 67.595Z"
        fill="var(--svg-fill-mediumShade)" />
    <path
        d="M174.651 63.5442C174.714 63.3543 174.967 63.1645 175.157 63.1645C175.283 63.1012 175.6 63.2911 175.663 63.4176C175.853 63.7974 175.663 64.1138 175.283 64.3037C174.967 64.1771 174.587 64.0505 174.651 63.5442Z"
        fill="var(--svg-fill-mediumShade)" />
    <path
        d="M174.334 73.8605C174.27 73.8605 174.207 73.7339 174.207 73.6706C174.27 73.6073 174.334 73.4808 174.46 73.544C174.587 73.6073 174.587 73.7339 174.523 73.7972C174.523 73.8605 174.397 73.9238 174.334 73.8605Z"
        fill="var(--svg-fill-mediumShade)" />
    <path
        d="M177.435 66.0763C176.992 65.9498 176.676 65.3168 176.803 64.8105C176.929 64.4308 177.499 64.1143 178.005 64.2409C178.322 64.3042 178.638 64.8105 178.575 65.1903C178.385 65.8232 177.878 66.2029 177.435 66.0763Z"
        fill="var(--svg-fill-mediumShade)" />
    <path
        d="M180.22 72.2152C180.346 72.2785 180.663 72.7215 180.599 72.9114C180.536 73.1013 179.966 73.1646 179.84 73.1013C179.713 72.9114 179.46 72.5317 179.587 72.4051C179.713 72.2785 180.093 72.1519 180.22 72.2152Z"
        fill="var(--svg-fill-mediumShade)" />
    <path
        d="M179.714 75.7593C179.334 75.5694 178.828 74.6833 178.954 74.3669C179.144 73.9871 179.84 73.7973 180.41 74.0504C180.916 74.2403 181.043 74.7466 180.727 75.3162C180.6 75.696 180.03 75.8859 179.714 75.7593Z"
        fill="var(--svg-fill-mediumShade)" />
    <path
        d="M176.486 64.6831C176.233 64.6831 175.79 64.2401 175.853 63.8603C175.916 63.4806 176.486 63.2274 176.802 63.4806C176.929 63.6071 176.865 64.0502 176.802 64.3666C176.802 64.4932 176.802 64.6831 176.486 64.6831Z"
        fill="var(--svg-fill-mediumShade)" />
    <path
        d="M178.511 64.1136C178.131 63.544 178.194 63.0377 178.637 62.7212C179.143 62.3415 179.713 62.4048 180.156 62.9111C180.599 63.4174 181.042 63.9238 181.612 64.3668C182.055 64.6833 182.308 65.3795 182.118 65.6959C181.865 66.0124 181.232 65.8858 181.169 65.6959C180.852 65.3162 180.536 65.506 180.219 65.506C179.903 65.506 179.587 65.3162 179.333 65.1263C179.143 64.9997 179.017 64.8099 178.89 64.6833C178.764 64.4934 178.637 64.3035 178.511 64.1136Z"
        fill="var(--svg-fill-mediumShade)" />
    <path
        d="M179.46 68.7342C179.587 68.481 180.41 68.1646 180.726 68.2912C181.106 68.4177 181.169 68.7975 180.979 69.3038C180.853 69.6836 180.663 69.8734 180.41 69.9367C180.536 70 180.663 70.1899 180.599 70.3165C180.536 70.5063 180.283 70.5063 180.156 70.5063C180.03 70.5063 179.777 70.2532 179.777 70.0633C179.777 70 179.903 69.9367 180.03 69.9367C180.03 69.9367 180.03 69.9367 179.967 69.9367C179.524 69.6836 179.27 69.1772 179.46 68.7342Z"
        fill="var(--svg-fill-mediumShade)" />
    <rect x="84.5" y="110" width="145" height="10" rx="1" fill="var(--svg-fill-primary)" />
    <rect x="69.5" y="110" width="10" height="10" rx="1" fill="var(--svg-fill-primary-text)" />
    <rect x="69.5" y="125" width="10" height="10" rx="1" fill="var(--svg-fill-primary)" />
    <rect x="69.5" y="95" width="10" height="10" rx="1" fill="var(--svg-fill-primary)" />
    <rect x="69.5" y="140" width="10" height="10" rx="1" fill="var(--svg-fill-primary)" />
    <rect x="84.5" y="125" width="145" height="10" rx="1" fill="var(--svg-fill-primary-decor)" />
    <rect x="84.5" y="95" width="145" height="10" rx="1" fill="var(--svg-fill-primary-decor)" />
    <rect x="84.5" y="140" width="70" height="10" rx="1" fill="var(--svg-fill-primary-decor)" />
    <circle cx="209" cy="70" r="20" fill="var(--svg-fill-lightShade)" />
</svg>