<svg width="300" height="200" viewBox="0 0 300 200" fill="none" xmlns="http://www.w3.org/2000/svg">
    <rect width="300" height="200" fill="var(--svg-fill-background)" />
    <rect x="40" y="30" width="220" height="140" rx="1" fill="var(--svg-fill-lightestShade)" />
    <rect x="70" y="50" width="115" height="40" rx="1" fill="var(--svg-fill-primary-background)" />
    <path
        d="M184.897 70.3799L184.897 72.2153C184.707 72.152 184.581 72.0255 184.454 71.8356C184.264 71.4558 184.454 70.7596 184.897 70.3799Z"
        fill="var(--svg-fill-primary-decor)" />
    <path
        d="M167.049 50.253C167.112 50.6328 166.796 50.9492 166.353 50.9492C165.973 50.9492 165.72 50.7593 165.72 50.3796C165.72 50.253 165.72 50.1897 165.72 50.1264L166.986 50.1264C167.049 50.1264 167.049 50.1897 167.049 50.253Z"
        fill="var(--svg-fill-primary-decor)" />
    <path
        d="M184.897 78.4177L184.897 78.9873C184.834 78.9873 184.707 78.9873 184.644 78.924C184.581 78.924 184.454 78.6709 184.454 78.6076C184.581 78.5443 184.771 78.3544 184.897 78.4177Z"
        fill="var(--svg-fill-primary-decor)" />
    <path
        d="M165.973 53.1646C166.352 53.1646 166.669 53.4811 166.669 53.8609C166.669 54.2406 166.416 54.3672 166.036 54.3672C165.656 54.3672 165.276 54.114 165.276 53.7343C165.276 53.4178 165.593 53.1014 165.973 53.1646Z"
        fill="var(--svg-fill-primary-decor)" />
    <path
        d="M177.175 56.6454C177.175 56.1391 177.492 55.8226 178.125 55.8226C178.568 55.8226 178.884 56.0125 178.947 56.3922C178.947 56.5188 178.884 56.7087 178.821 56.8353C179.074 56.6454 179.39 56.5188 179.58 56.6454C179.96 56.8986 180.15 57.215 180.023 57.7213C179.897 58.1644 179.327 58.291 178.884 58.1011C178.568 57.9745 178.441 57.5948 178.568 57.215C178.378 57.4049 178.188 57.5948 178.061 57.5948C177.492 57.5948 177.175 57.2783 177.175 56.6454Z"
        fill="var(--svg-fill-primary-decor)" />
    <path
        d="M164.897 51.2659C165.023 51.076 165.277 50.5064 165.656 50.633C166.036 50.7595 165.909 51.3291 165.909 51.5823C165.909 51.8988 165.53 52.0253 165.213 51.8988C164.834 51.8355 164.707 51.5823 164.897 51.2659Z"
        fill="var(--svg-fill-primary-decor)" />
    <path
        d="M178.758 59.5571C179.074 59.4938 179.454 59.8102 179.454 60.1267C179.454 60.5064 179.201 60.6963 178.884 60.6963C178.568 60.6963 178.378 60.5697 178.315 60.2533C178.252 59.8735 178.441 59.5571 178.758 59.5571Z"
        fill="var(--svg-fill-primary-decor)" />
    <path
        d="M168.695 57.4055C168.632 56.8358 169.011 56.4561 169.581 56.3928C170.277 56.3295 170.783 56.7725 170.847 57.532C170.91 58.1017 170.467 58.6713 169.897 58.7979C169.391 58.7979 168.758 58.1017 168.695 57.4055Z"
        fill="var(--svg-fill-primary-decor)" />
    <path
        d="M169.074 68.3545C168.884 68.3545 168.694 68.038 168.694 67.9115C168.694 67.7849 168.821 67.5317 168.947 67.5317C169.137 67.5317 169.264 67.7216 169.264 67.8482C169.391 67.9748 169.264 68.3545 169.074 68.3545Z"
        fill="var(--svg-fill-primary-decor)" />
    <path
        d="M169.391 65.7595C169.581 65.7595 169.707 66.076 169.707 66.2026C169.707 66.2659 169.581 66.519 169.454 66.519C169.328 66.519 169.201 66.3292 169.138 66.2026C169.138 66.076 169.201 65.7595 169.391 65.7595Z"
        fill="var(--svg-fill-primary-decor)" />
    <path
        d="M175.023 51.7091C175.023 52.0255 174.644 52.4053 174.327 52.4053C173.631 52.4053 173.125 52.0888 173.188 51.6458C173.188 51.2027 173.821 50.6964 174.264 50.6964C174.58 50.6964 175.087 51.3293 175.023 51.7091Z"
        fill="var(--svg-fill-primary-decor)" />
    <path
        d="M174.707 50.2532C174.644 50.19 174.517 50.1267 174.454 50.0634L175.657 50.0634C175.467 50.2532 175.024 50.3798 174.707 50.2532Z"
        fill="var(--svg-fill-primary-decor)" />
    <path
        d="M170.657 64.6202C170.91 64.7468 170.847 65.3164 170.72 65.5063C170.657 65.6329 170.34 65.6962 170.087 65.6329C169.834 65.5696 169.644 65.3164 169.834 65.0633C170.024 64.9367 170.404 64.5569 170.657 64.6202Z"
        fill="var(--svg-fill-primary-decor)" />
    <path
        d="M181.859 54.3674C181.859 54.0509 181.986 53.6079 182.176 53.4813C182.429 53.2914 182.872 53.3547 183.315 53.2914C183.315 53.0382 183.378 52.7218 183.568 52.5952C183.631 52.5319 183.695 52.4053 183.821 52.4053C184.201 52.2788 184.517 52.0889 184.96 52.0889L184.96 53.6079C184.707 53.5446 184.454 53.4813 184.264 53.418C184.138 53.4813 184.011 53.6079 183.821 53.6711C183.695 54.1142 183.695 54.5572 183.505 54.7471C183.315 55.0003 182.935 55.1268 182.555 55.2534C182.112 55.2534 181.796 54.8737 181.859 54.3674Z"
        fill="var(--svg-fill-primary-decor)" />
    <path
        d="M183.568 50.0631L184.897 50.0631L184.897 50.253C184.834 50.253 184.77 50.3162 184.77 50.3162C184.201 50.5061 183.821 50.4428 183.568 50.0631Z"
        fill="var(--svg-fill-primary-decor)" />
    <path
        d="M184.327 63.7344C184.074 63.6711 183.948 63.4179 183.884 63.1015C183.758 63.1015 183.568 63.1015 183.441 63.1015C183.062 62.9749 182.935 62.5951 183.062 62.2154C183.188 61.8356 183.505 61.7091 183.821 61.8356C183.948 61.8989 184.011 61.9622 184.138 62.0255C184.327 61.8356 184.581 61.8356 184.897 61.8989L184.897 63.6078C184.644 63.7344 184.454 63.7344 184.327 63.7344Z"
        fill="var(--svg-fill-primary-decor)" />
    <path
        d="M167.556 51.3922C167.999 51.1391 168.379 51.1391 168.695 51.6454C168.568 52.0251 168.379 52.4682 167.872 52.2783C167.493 52.1517 167.493 51.772 167.556 51.3922Z"
        fill="var(--svg-fill-primary-decor)" />
    <path
        d="M182.619 60.2535C182.365 59.5573 182.365 59.494 183.062 59.051C183.378 59.1775 183.631 59.3674 183.948 59.4307C184.391 59.6206 184.707 60.1902 184.517 60.6965C184.391 61.013 183.948 61.3294 183.631 61.2029C183.251 60.8864 182.808 60.7598 182.619 60.2535Z"
        fill="var(--svg-fill-primary-decor)" />
    <path
        d="M181.606 56.4559C182.112 55.8863 182.682 55.9496 183.252 56.3926C183.948 55.8863 184.517 55.7597 184.897 55.8863L184.897 59.5571C184.707 59.4305 184.581 59.2407 184.454 58.9875C184.074 58.3546 183.695 57.7217 183.378 57.0888C181.986 57.6584 181.796 57.5951 181.606 56.4559Z"
        fill="var(--svg-fill-primary-decor)" />
    <path
        d="M180.783 58.5443C180.593 58.2911 180.53 57.9747 180.783 57.7215C180.973 57.5316 181.353 57.4051 181.543 57.4051C182.112 57.5316 181.986 58.1013 182.049 58.5443C181.543 58.8607 181.1 58.9873 180.783 58.5443Z"
        fill="var(--svg-fill-primary-decor)" />
    <path
        d="M181.226 51.6455C181.352 51.2658 181.922 51.0759 182.555 51.2658C182.871 51.3291 183.125 51.8987 182.998 52.2152C182.871 52.6582 182.302 52.9747 181.922 52.9114C181.479 52.7848 181.036 52.0253 181.226 51.6455Z"
        fill="var(--svg-fill-primary-decor)" />
    <path
        d="M179.074 50.0636L181.606 50.0636C181.543 50.2535 181.416 50.4433 181.29 50.5066C181.1 50.6332 180.91 50.6332 180.72 50.6332C180.783 50.8864 180.72 51.1396 180.593 51.3294C180.403 51.5193 180.277 51.7725 180.15 51.899C180.53 52.2155 180.53 52.9117 180.34 53.2282C180.15 53.5446 178.821 53.8611 178.315 53.6712C177.998 53.2282 177.619 52.5952 177.239 51.9623C177.176 51.899 177.302 51.6459 177.366 51.5826C177.619 51.2661 177.745 51.013 177.682 50.5699C177.682 50.3801 177.745 50.1902 177.872 50.0636L179.074 50.0636Z"
        fill="var(--svg-fill-primary-decor)" />
    <path
        d="M169.77 50.4429C169.58 51.0126 169.011 51.329 168.568 51.1391C168.125 50.9493 167.808 50.5062 167.808 50.1265L169.77 50.1265C169.77 50.1898 169.77 50.3164 169.77 50.4429Z"
        fill="var(--svg-fill-primary-decor)" />
    <path
        d="M169.075 54.5571C169.518 54.747 169.644 55.19 169.391 55.8229C169.201 56.3292 168.821 56.5824 168.442 56.3925C168.125 56.2659 167.619 55.3166 167.682 55.0634C167.935 54.5571 168.505 54.3672 169.075 54.5571Z"
        fill="var(--svg-fill-primary-decor)" />
    <path
        d="M183.695 55.6328C183.631 55.7593 183.568 55.9492 183.378 55.9492C183.188 55.9492 183.125 55.7593 183.125 55.696C183.125 55.5695 183.188 55.253 183.441 55.253C183.695 55.253 183.695 55.5695 183.695 55.6328Z"
        fill="var(--svg-fill-primary-decor)" />
    <path
        d="M164.201 55.1264C164.454 54.5568 165.15 54.3036 165.91 54.6201C166.542 54.8732 166.796 55.3796 166.542 56.0125C166.479 56.139 166.416 56.3289 166.289 56.3922C166.859 56.5188 167.429 57.0884 167.492 57.658C167.555 58.3542 166.986 58.9239 166.099 58.9872C165.467 59.0504 164.96 58.6074 164.834 57.9745C164.77 57.5947 164.96 57.1517 165.277 56.8352C165.15 56.8352 164.96 56.8353 164.834 56.772C164.327 56.4555 164.011 55.6327 164.201 55.1264Z"
        fill="var(--svg-fill-primary-decor)" />
    <path
        d="M179.707 55.4428C179.517 55.696 179.138 55.8226 178.821 55.6327C178.631 55.5061 178.441 55.1897 178.441 54.9998C178.505 54.4302 178.948 54.3669 179.454 54.3036C179.707 54.62 180.024 54.9998 179.707 55.4428Z"
        fill="var(--svg-fill-primary-decor)" />
    <path
        d="M157.998 50.6332C157.745 50.7598 157.429 50.5066 157.429 50.1902C157.429 50.1269 157.429 50.1269 157.429 50.0636L158.505 50.0636C158.441 50.3168 158.188 50.5066 157.998 50.6332Z"
        fill="var(--svg-fill-primary-decor)" />
    <path
        d="M142.239 51.899C142.239 51.5193 142.492 51.2028 142.872 51.2028C143.315 51.2028 143.631 51.456 143.631 51.7724C143.631 52.1522 143.378 52.5319 142.998 52.5319C142.682 52.5952 142.239 52.2788 142.239 51.899Z"
        fill="var(--svg-fill-primary-decor)" />
    <path
        d="M143.315 64.3672C142.935 64.3672 142.872 63.8609 142.872 63.7343C142.872 63.5444 143.062 63.2912 143.252 63.2912C143.568 63.1647 143.821 63.4811 143.821 63.7343C143.821 63.8609 143.695 64.3672 143.315 64.3672Z"
        fill="var(--svg-fill-primary-decor)" />
    <path
        d="M143.758 57.405C143.568 57.2151 144.137 56.2024 144.454 56.1391C144.77 56.0759 145.023 56.7088 144.834 57.2151C144.707 57.7214 144.011 57.5315 143.758 57.405Z"
        fill="var(--svg-fill-primary-decor)" />
    <path
        d="M145.846 59.6839C146.099 59.8105 146.226 60.7599 145.846 60.8865C145.53 61.013 145.087 60.8232 145.023 60.57C144.834 60.1903 145.53 59.5573 145.846 59.6839Z"
        fill="var(--svg-fill-primary-decor)" />
    <path
        d="M146.479 50.1902C146.036 50.3168 145.656 50.1902 145.276 50.0637L146.859 50.0637C146.732 50.127 146.605 50.1902 146.479 50.1902Z"
        fill="var(--svg-fill-primary-decor)" />
    <path
        d="M151.479 58.228C151.289 58.2913 150.72 58.0382 150.72 57.7217C150.72 57.4053 150.973 57.0888 151.353 57.0888C151.669 57.0888 151.986 57.342 151.859 57.6584C151.796 57.9116 151.669 58.1647 151.479 58.228Z"
        fill="var(--svg-fill-primary-decor)" />
    <path
        d="M134.517 50.5063C134.328 50.5063 134.138 50.1899 134.138 50.0633C134.138 50.0633 134.138 50.0633 134.138 50L134.771 50C134.771 50.1899 134.644 50.5063 134.517 50.5063Z"
        fill="var(--svg-fill-primary-decor)" />
    <path
        d="M134.074 55.5063C134.074 56.1393 133.442 56.8354 132.872 56.8354C132.112 56.8354 131.479 56.3291 131.479 55.6962C131.479 55.1266 132.302 54.2405 132.872 54.1772C133.442 54.1772 134.074 54.8101 134.074 55.5063Z"
        fill="var(--svg-fill-primary-decor)" />
    <path
        d="M124.77 52.532C124.96 52.5953 125.467 52.9117 125.467 53.1016C125.403 53.2915 124.96 53.5446 124.707 53.5446C124.391 53.6079 124.201 53.2915 124.264 52.9117C124.264 52.532 124.517 52.4687 124.77 52.532Z"
        fill="var(--svg-fill-primary-decor)" />
    <path
        d="M150.593 53.2914C150.593 52.7217 150.91 52.342 151.289 52.342C151.859 52.342 152.555 52.9749 152.492 53.4812C152.492 53.861 151.986 54.2407 151.479 54.2407C150.973 54.2407 150.593 53.9243 150.593 53.2914Z"
        fill="var(--svg-fill-primary-decor)" />
    <path
        d="M144.138 53.2909C144.011 53.1643 143.948 52.7212 144.074 52.5314C144.328 52.0883 145.024 52.0883 145.277 52.4048C145.53 52.7212 145.467 53.3541 144.897 53.4807C144.707 53.6073 144.328 53.4174 144.138 53.2909Z"
        fill="var(--svg-fill-primary-decor)" />
    <path
        d="M136.669 60.1899C136.795 60.2532 136.859 60.5697 136.732 60.6962C136.669 60.8228 136.352 60.8861 136.226 60.8228C136.099 60.7595 135.909 60.4431 135.973 60.2532C136.099 60.1266 136.605 60.1266 136.669 60.1899Z"
        fill="var(--svg-fill-primary-decor)" />
    <path
        d="M135.403 53.3546C135.024 53.2913 134.771 52.9748 134.771 52.5951C134.834 52.2786 135.15 51.9622 135.467 52.0255C135.846 52.0888 136.1 52.4052 136.036 52.785C136.036 53.1647 135.783 53.4179 135.403 53.3546Z"
        fill="var(--svg-fill-primary-decor)" />
    <path
        d="M159.011 67.8481C158.821 67.5316 158.315 67.0253 158.568 66.5822C158.821 66.1392 159.201 66.4557 159.391 66.3924C160.024 66.2658 160.72 66.7721 160.72 67.2784C160.72 67.3417 160.72 67.405 160.657 67.4683C160.72 67.4683 160.72 67.4683 160.783 67.4683C161.036 67.4683 161.479 67.9747 161.479 68.2911C161.479 68.6709 161.226 68.9873 160.783 68.9873C160.403 68.9873 160.15 68.7974 160.087 68.4177C160.087 68.3544 160.087 68.2278 160.15 68.1645C160.087 68.2278 160.024 68.2278 159.96 68.2911C159.581 68.4177 159.201 68.1645 159.011 67.8481Z"
        fill="var(--svg-fill-primary-decor)" />
    <path
        d="M166.796 67.0254C166.986 67.152 167.492 67.595 167.365 67.8482C167.239 68.1014 166.669 68.1014 166.416 68.0381C166.163 68.0381 166.036 67.595 166.163 67.2786C166.226 67.0254 166.479 66.8356 166.796 67.0254Z"
        fill="var(--svg-fill-primary-decor)" />
    <path
        d="M172.935 70.6962C173.061 70.2532 173.378 70.0633 173.757 70.1266C174.2 70.2531 174.58 70.8861 174.454 71.3924C174.327 71.7721 173.884 72.0253 173.504 71.8987C173.061 71.7721 172.745 71.1392 172.935 70.6962Z"
        fill="var(--svg-fill-primary-decor)" />
    <path
        d="M151.353 63.7979C151.1 63.7979 150.973 63.608 150.91 63.4181C150.91 63.2915 150.91 62.8485 151.226 62.7852C151.543 62.7219 151.669 63.1649 151.669 63.2915C151.669 63.4814 151.606 63.7979 151.353 63.7979Z"
        fill="var(--svg-fill-primary-decor)" />
    <path
        d="M173.758 78.1015C173.884 78.1648 173.948 78.5445 173.948 78.6078C173.884 78.7344 173.695 78.9243 173.568 78.861C173.378 78.7977 173.378 78.5445 173.378 78.4179C173.315 78.2914 173.568 78.0382 173.758 78.1015Z"
        fill="var(--svg-fill-primary-decor)" />
    <path
        d="M161.353 53.671C160.847 53.4178 160.847 53.0381 160.657 53.1014C160.467 53.1647 160.087 53.4811 159.771 53.2912C159.454 53.1014 159.644 51.9621 159.708 51.7723C159.708 51.7723 159.708 51.7723 159.771 51.709C159.644 51.5191 159.644 51.3292 159.708 51.1393C159.708 50.9495 159.771 50.8229 159.834 50.7596C159.644 50.5697 159.391 50.4431 159.391 50.1267L159.391 50.0634L161.416 50.0634C161.353 50.19 161.29 50.3799 161.227 50.5064C161.67 50.633 162.113 50.6963 162.492 50.8229C162.619 50.4431 162.682 50.2533 162.809 50.1267L163.442 50.1267C163.442 50.1267 163.505 50.1267 163.505 50.19C163.505 50.19 163.568 50.19 163.568 50.1267L164.708 50.1267C164.897 50.3166 164.961 50.633 164.961 50.8862C164.961 51.5824 164.644 51.8355 163.948 51.8355C163.442 51.8355 162.999 51.5191 162.872 51.2026C162.809 51.709 162.682 52.0254 162.429 52.152C162.492 52.2786 162.492 52.3419 162.492 52.5317C162.619 53.2279 161.859 53.9241 161.353 53.671Z"
        fill="var(--svg-fill-primary-decor)" />
    <path
        d="M162.556 55.6329C162.556 55.3164 162.809 55 163.189 55C163.568 55 163.821 55.1899 163.885 55.5696C163.948 55.9494 163.632 56.3291 163.252 56.3291C162.935 56.2658 162.556 55.9494 162.556 55.6329Z"
        fill="var(--svg-fill-primary-decor)" />
    <path
        d="M179.834 60.253C179.707 60.1264 179.644 59.81 179.707 59.6201C179.834 59.2403 180.214 59.1138 180.53 59.2403C181.037 59.3669 181.037 59.9998 180.973 60.253C180.91 60.5062 180.214 60.6328 179.834 60.253Z"
        fill="var(--svg-fill-primary-decor)" />
    <path
        d="M149.961 59.6204C149.897 59.1141 150.15 58.7976 150.404 58.8609C150.657 58.9242 150.91 59.1141 151.036 59.3672C151.163 59.6204 150.783 60.0001 150.467 59.9368C150.277 59.9368 150.087 59.6837 149.961 59.6204Z"
        fill="var(--svg-fill-primary-decor)" />
    <path
        d="M151.163 68.418C151.037 68.418 150.847 68.2281 150.847 68.1015C150.847 67.9749 150.91 67.6585 151.226 67.6585C151.543 67.6585 151.543 67.9749 151.543 68.1015C151.48 68.2281 151.29 68.418 151.163 68.418Z"
        fill="var(--svg-fill-primary-decor)" />
    <path
        d="M164.833 61.3926C164.58 61.1394 164.58 60.823 164.833 60.4432C165.087 60.1268 165.34 60.0002 165.72 60.1901C165.973 60.3167 166.099 60.5698 166.163 60.823C166.289 60.5065 166.542 60.3167 166.795 60.3167C167.238 60.3167 167.745 60.6964 167.935 61.1394C167.871 61.0129 167.935 60.823 167.998 60.6964C168.125 60.38 168.631 60.1901 169.074 60.4432C169.137 60.6331 169.264 60.9496 169.201 61.2027C169.137 61.5825 168.631 61.7091 168.251 61.5825C168.125 61.5192 167.998 61.3926 167.998 61.266C168.061 61.3926 168.061 61.4559 168.061 61.5825C168.061 61.9622 167.555 62.4053 167.112 62.4053C166.479 62.4053 166.036 62.0888 165.973 61.4559C165.783 61.6458 165.213 61.7091 164.833 61.3926Z"
        fill="var(--svg-fill-primary-decor)" />
    <path
        d="M152.871 50.4429C152.428 50.4429 151.985 50.3163 151.669 50.0631L153.568 50.0631C153.441 50.3163 153.188 50.4429 152.871 50.4429Z"
        fill="var(--svg-fill-primary-decor)" />
    <path
        d="M164.138 62.0253C164.138 62.3417 163.884 62.6582 163.568 62.5949C163.378 62.5316 162.872 62.405 162.935 62.0253C162.998 61.6455 163.441 61.5189 163.695 61.4556C164.011 61.4556 164.138 61.7721 164.138 62.0253Z"
        fill="var(--svg-fill-primary-decor)" />
    <path
        d="M157.365 51.8354C157.365 52.3417 156.986 52.9114 156.606 52.9747C156.1 53.0379 155.403 52.4683 155.403 51.962C155.403 51.6455 155.846 51.2025 156.353 51.2025C156.859 51.0759 157.302 51.3924 157.365 51.8354Z"
        fill="var(--svg-fill-primary-decor)" />
    <path
        d="M162.935 74.1771C162.998 73.734 162.872 73.291 163.378 73.1644C163.695 73.1011 164.011 73.2277 164.201 73.5441C164.327 73.7973 164.327 74.0505 164.074 74.2403C163.758 74.6201 163.378 74.4302 162.935 74.1771Z"
        fill="var(--svg-fill-primary-decor)" />
    <path
        d="M164.201 70.5064C164.138 70.7596 163.821 70.7596 163.758 70.6963C163.631 70.633 163.568 70.4431 163.505 70.3165C163.505 70.2532 163.758 70.0634 163.821 70.1267C163.948 70.1899 164.264 70.3165 164.201 70.5064Z"
        fill="var(--svg-fill-primary-decor)" />
    <path
        d="M157.112 65.1265C157.049 65.1265 156.986 65.0632 156.922 65.0632C156.606 64.81 156.606 64.6834 156.606 64.367C156.606 64.0505 156.733 63.8606 156.796 63.7974C157.112 63.9239 157.682 63.8606 157.745 64.2404C157.872 64.6201 157.302 64.8733 157.112 65.1265Z"
        fill="var(--svg-fill-primary-decor)" />
    <path
        d="M164.391 65.19C164.391 65.2533 164.391 65.3166 164.391 65.3799C164.264 65.6964 163.821 65.9495 163.505 65.8862C163.188 65.8229 162.999 65.3799 163.125 65.0634C163.188 64.8736 163.378 64.6837 163.631 64.6204C163.568 64.4938 163.568 64.3672 163.568 64.2407C163.695 64.1774 163.821 63.9242 164.011 63.8609C164.454 63.7343 164.961 64.1141 165.024 64.4305C165.024 64.6837 164.707 65.0634 164.391 65.19Z"
        fill="var(--svg-fill-primary-decor)" />
    <path
        d="M157.872 63.8609C157.555 63.7976 157.302 63.3546 157.429 63.1014C157.619 62.785 157.872 62.5951 158.252 62.6584C158.568 62.7217 158.758 63.1014 158.695 63.4179C158.631 63.7343 158.252 63.9242 157.872 63.8609Z"
        fill="var(--svg-fill-primary-decor)" />
    <path
        d="M161.859 63.0379C161.669 62.9746 161.543 62.7848 161.479 62.7215C161.479 62.2151 161.796 61.962 162.049 62.0253C162.239 62.0886 162.492 62.2784 162.492 62.4683C162.555 62.7215 162.176 63.1012 161.859 63.0379Z"
        fill="var(--svg-fill-primary-decor)" />
    <path
        d="M162.239 60.0633L162.176 60.0633C161.859 60.443 161.353 60.6962 161.036 60.5696C160.657 60.3797 160.467 59.7468 160.657 59.3038C160.783 59.0506 161.036 58.8607 161.289 58.7974C161.479 58.481 161.859 58.1645 162.176 58.1645C162.492 58.1645 162.935 58.481 162.935 58.7974C163.062 59.4937 162.745 60.0633 162.239 60.0633Z"
        fill="var(--svg-fill-primary-decor)" />
    <path
        d="M171.733 66.8356C171.986 66.1394 172.619 65.6964 173.188 65.8862C173.821 66.0761 174.391 67.0888 174.138 67.6584C173.884 68.228 173.125 68.6078 172.555 68.4179C171.986 68.1014 171.543 67.4052 171.733 66.8356Z"
        fill="var(--svg-fill-primary-decor)" />
    <path
        d="M173.505 58.4178C173.948 58.3545 174.327 58.8608 174.327 59.4937C174.327 59.8735 174.138 60.0633 173.758 60.0633C173.251 60.1266 172.745 59.7469 172.745 59.4304C172.808 58.9874 173.188 58.481 173.505 58.4178Z"
        fill="var(--svg-fill-primary-decor)" />
    <path
        d="M168.631 80.9494C168.441 80.8861 168.505 80.5697 168.505 80.4431C168.505 80.3798 168.758 80.2532 168.885 80.2532C169.011 80.2532 169.074 80.5696 169.011 80.6962C169.011 80.7595 168.821 81.0127 168.631 80.9494Z"
        fill="var(--svg-fill-primary-decor)" />
    <path
        d="M172.175 59.6201C171.669 59.6201 171.289 59.1138 171.353 58.7973C171.416 58.4809 171.922 58.1011 172.492 58.291C172.808 58.4176 172.935 58.6707 172.872 59.0505C172.808 59.3669 172.555 59.6201 172.175 59.6201Z"
        fill="var(--svg-fill-primary-decor)" />
    <path
        d="M169.391 72.6581C168.821 72.4049 168.568 71.8986 168.821 71.329C169.074 70.7594 169.707 70.5695 170.277 70.8227C170.72 71.0125 170.973 71.7087 170.72 72.2151C170.53 72.7847 170.024 72.9746 169.391 72.6581Z"
        fill="var(--svg-fill-primary-decor)" />
    <path
        d="M171.163 63.8609C170.72 63.671 170.403 62.9748 170.53 62.4685C170.657 62.0887 171.29 61.8989 171.796 62.0887C172.429 62.3419 172.619 62.6584 172.492 63.1647C172.302 63.671 171.606 64.0508 171.163 63.8609Z"
        fill="var(--svg-fill-primary-decor)" />
    <path
        d="M156.353 63.2911C156.353 63.2278 156.416 63.0379 156.479 63.0379C156.542 63.0379 156.606 63.1645 156.669 63.1645C156.606 63.2278 156.542 63.3543 156.479 63.3543C156.479 63.4176 156.353 63.2911 156.353 63.2911Z"
        fill="var(--svg-fill-primary-decor)" />
    <path
        d="M140.214 59.1141C139.517 59.1774 138.631 58.4812 138.631 57.9116C138.631 57.342 139.138 56.8357 139.707 56.7724C140.467 56.7091 141.1 57.2787 141.1 57.9749C141.1 58.6711 140.783 59.1141 140.214 59.1141Z"
        fill="var(--svg-fill-primary-decor)" />
    <path
        d="M139.961 50.9494C140.087 51.0127 140.277 51.2026 140.277 51.2659C140.277 51.3925 139.897 51.519 139.771 51.519C139.707 51.519 139.517 51.3292 139.517 51.2659C139.581 51.2026 139.644 51.076 139.707 51.0127L139.644 51.0127C139.201 51.076 138.885 50.6963 138.821 50.0634L140.593 50.0634C140.657 50.4431 140.404 50.8228 139.961 50.9494Z"
        fill="var(--svg-fill-primary-decor)" />
    <path
        d="M139.201 53.1013C139.137 52.7215 139.327 52.4051 139.644 52.3418C139.834 52.2785 140.15 52.3418 140.277 52.4684C140.593 52.7215 140.53 53.038 140.15 53.6709C139.77 53.6076 139.327 53.6709 139.201 53.1013Z"
        fill="var(--svg-fill-primary-decor)" />
    <path
        d="M184.201 89.0506C184.265 88.7342 184.581 88.481 184.897 88.4177L184.897 90C184.518 89.9367 184.138 89.4304 184.201 89.0506Z"
        fill="var(--svg-fill-primary-decor)" />
    <path
        d="M115.277 53.1646C115.403 53.1646 115.53 53.4178 115.53 53.5444C115.53 53.6077 115.403 53.9241 115.214 53.8608C115.024 53.7975 114.96 53.4811 115.024 53.3545C114.96 53.2912 115.15 53.1646 115.277 53.1646Z"
        fill="var(--svg-fill-primary-decor)" />
    <path
        d="M119.834 50.4433C119.834 50.5699 119.644 50.7598 119.517 50.7598C119.327 50.7598 119.264 50.5066 119.264 50.38C119.264 50.3167 119.327 50.1268 119.454 50.0636L119.771 50.0636C119.771 50.1901 119.834 50.38 119.834 50.4433Z"
        fill="var(--svg-fill-primary-decor)" />
    <path
        d="M173.694 57.2786C173.188 57.0887 172.745 56.8988 172.808 56.0761C172.555 56.3292 172.365 56.4558 172.238 56.5824C172.049 56.9621 171.795 57.0254 171.416 56.9621C171.036 56.8355 170.656 56.6457 170.593 56.2026C170.466 55.1267 170.53 54.6837 171.099 54.3672C171.099 54.2406 171.162 54.114 171.289 53.9242C171.099 53.8609 171.036 53.671 171.099 53.4178C171.226 53.0381 171.479 52.8482 171.795 52.9748C171.922 53.0381 172.175 53.228 172.302 53.4811C172.492 53.1647 172.745 53.0381 173.061 53.1647C173.504 53.2913 173.694 53.8609 173.314 54.3039C172.998 54.6837 173.188 54.9368 173.314 55.3799C174.264 55.19 174.77 55.5064 174.77 56.2026C174.96 56.2026 175.15 56.1393 175.34 56.1393C175.656 56.1393 175.783 56.3292 175.783 56.6457C175.719 56.709 175.656 56.8355 175.53 56.8988C175.15 56.9621 174.96 57.152 174.707 57.4052C174.643 57.4685 174.454 57.4685 174.327 57.4052C174.2 57.4052 174.011 57.4052 173.694 57.2786Z"
        fill="var(--svg-fill-primary-decor)" />
    <path
        d="M155.214 58.4178C154.644 58.8608 153.885 58.8608 153.505 58.2279C153.062 57.4684 153.315 56.8355 153.948 56.4558C154.771 55.9494 155.214 56.8988 155.594 56.3292C155.974 55.7596 155.341 55.6963 155.974 54.9368C156.606 54.2406 157.556 54.3039 157.746 54.9368C157.936 55.5697 157.493 55.9494 157.556 56.076C157.619 56.2026 158.189 56.6456 157.809 57.0887C157.049 57.9115 156.48 57.0887 156.227 57.2153C155.847 57.5317 155.594 58.1646 155.214 58.4178Z"
        fill="var(--svg-fill-primary-decor)" />
    <path
        d="M155.404 60.6961C155.34 60.3164 155.91 59.8101 156.48 59.7468C156.986 59.6835 157.429 59.9999 157.429 60.443C157.492 61.0126 156.986 61.6455 156.543 61.6455C155.973 61.6455 155.467 61.2025 155.404 60.6961Z"
        fill="var(--svg-fill-primary-decor)" />
    <path
        d="M149.454 64.7466C148.948 64.8099 148.631 64.6833 148.695 64.0504C148.758 63.4175 149.707 63.4175 149.897 63.6707C150.087 63.9239 149.771 64.6833 149.454 64.7466Z"
        fill="var(--svg-fill-primary-decor)" />
    <path
        d="M148.378 57.1521C147.682 57.5952 146.986 57.342 146.922 56.5825C146.859 56.1395 146.859 55.6331 146.922 55.1268C146.986 54.6205 147.682 54.1774 148.188 54.1774C148.505 54.1774 148.758 54.304 148.821 54.6205C148.948 55.38 148.948 56.1395 148.631 56.899C148.568 57.0255 148.378 57.1521 148.378 57.1521Z"
        fill="var(--svg-fill-primary-decor)" />
    <path
        d="M148.885 50.063C148.885 50.5061 148.568 51.0757 148.188 51.0757C147.682 51.0757 147.049 50.5694 146.986 50.1263L146.986 50.063L148.885 50.063Z"
        fill="var(--svg-fill-primary-decor)" />
    <path
        d="M146.923 58.6076C146.859 58.5444 146.796 58.1646 146.923 58.038C147.049 57.9115 147.366 58.1013 147.429 58.2279C147.492 58.3545 147.492 58.6076 147.429 58.6709C147.302 58.7975 147.049 58.6709 146.923 58.6076Z"
        fill="var(--svg-fill-primary-decor)" />
    <path
        d="M167.809 59.3036C167.429 59.177 167.302 58.734 167.429 58.4175C167.619 58.0378 168.062 57.9112 168.378 58.0378C168.695 58.2277 168.884 58.6707 168.695 58.9239C168.631 59.2403 168.125 59.4302 167.809 59.3036Z"
        fill="var(--svg-fill-primary-decor)" />
    <path
        d="M184.391 85.9494C184.454 85.8228 184.771 85.6963 184.897 85.6963L184.897 86.519L184.834 86.519C184.707 86.4558 184.328 86.1393 184.391 85.9494Z"
        fill="var(--svg-fill-primary-decor)" />
    <path
        d="M158.062 51.7086C158.188 51.5188 158.505 51.3289 158.694 51.3922C158.884 51.4555 159.011 51.7719 159.137 51.9618C158.948 52.4681 158.694 52.4681 158.441 52.4048C158.188 52.215 157.935 51.9618 158.062 51.7086Z"
        fill="var(--svg-fill-primary-decor)" />
    <path
        d="M175.973 58.3547C176.1 58.3547 176.163 58.2914 176.226 58.2914L176.29 58.2281C176.416 58.1648 176.479 58.0382 176.543 57.8483C176.733 57.4686 177.302 57.342 177.682 57.5952C178.062 57.8483 177.998 58.1015 177.872 58.4179C177.745 58.6711 177.555 58.9243 177.555 59.1142C177.555 59.6838 177.619 60.2534 177.682 60.8863C179.011 61.3293 179.264 61.7724 178.568 62.785C178.188 63.3546 177.429 63.4812 176.986 62.9116C176.669 62.5319 176.479 62.0255 176.163 61.3926C175.53 61.3293 174.834 61.2027 174.581 60.5065C174.264 59.6205 174.897 58.5445 175.973 58.3547Z"
        fill="var(--svg-fill-primary-decor)" />
    <path
        d="M184.77 75.2533C184.833 75.1268 184.833 75.0635 184.897 75.0002L184.897 76.3926C184.707 76.0128 184.643 75.6331 184.77 75.2533Z"
        fill="var(--svg-fill-primary-decor)" />
    <path
        d="M181.606 71.3289C181.669 70.8859 181.543 70.4428 182.049 70.3162C182.365 70.2529 182.682 70.3795 182.872 70.696C182.998 70.9492 182.998 71.2023 182.745 71.3922C182.365 71.7719 182.049 71.5821 181.606 71.3289Z"
        fill="var(--svg-fill-primary-decor)" />
    <path
        d="M182.618 68.5443C182.872 67.9747 183.315 67.7848 183.821 67.5316C184.201 67.3418 184.58 67.7215 184.707 67.2152C184.77 67.0253 184.834 66.8354 184.897 66.6455L184.897 69.1139C184.454 69.2405 184.201 69.7468 183.631 69.6835C182.935 69.6202 182.365 69.1139 182.618 68.5443Z"
        fill="var(--svg-fill-primary-decor)" />
    <path
        d="M158.505 55.2533C158.378 55.19 158.251 54.9368 158.315 54.8102C158.315 54.6837 158.631 54.3672 158.758 54.4305C158.884 54.4938 158.948 54.8102 158.884 54.8735C158.821 55.0634 158.694 55.3166 158.505 55.2533Z"
        fill="var(--svg-fill-primary-decor)" />
    <path
        d="M170.593 51.3292C170.023 51.2026 169.707 51.0127 169.707 50.6963C169.707 50.5064 170.023 50.1899 170.34 50.0634L170.783 50.0634C171.036 50.2532 171.226 50.633 171.226 50.8861C171.226 51.2026 170.91 51.3925 170.593 51.3292Z"
        fill="var(--svg-fill-primary-decor)" />
    <path
        d="M181.606 79.4935C181.416 79.5568 181.037 79.3036 180.783 79.1137C180.72 79.0505 180.53 78.9872 180.657 78.734C180.783 78.4808 181.353 78.2277 181.669 78.4808C181.986 78.6707 181.986 79.3036 181.606 79.4935Z"
        fill="var(--svg-fill-primary-decor)" />
    <path
        d="M176.099 54.4937C175.53 54.4937 175.276 54.1139 175.276 53.4177C175.276 53.038 175.719 52.5949 176.036 52.5949C176.479 52.5949 177.302 53.2278 177.302 53.6076C177.238 54.0506 176.669 54.4937 176.099 54.4937Z"
        fill="var(--svg-fill-primary-decor)" />
    <path
        d="M175.276 51.2026C175.466 50.8862 175.973 50.633 176.289 50.7596C176.542 50.8862 176.795 51.5824 176.669 51.8988C176.542 52.152 175.973 52.2786 175.719 52.152C175.276 52.0254 175.087 51.5191 175.276 51.2026Z"
        fill="var(--svg-fill-primary-decor)" />
    <path
        d="M160.34 56.836C159.961 56.7727 159.771 56.5195 159.707 56.203C159.644 55.6967 159.961 55.1271 160.277 55.0638C160.973 54.9372 161.353 55.6334 161.479 56.0132C161.669 56.3296 160.91 56.8992 160.34 56.836Z"
        fill="var(--svg-fill-primary-decor)" />
    <path
        d="M159.391 61.3291C159.011 61.3291 158.884 61.0126 158.948 60.7595C158.948 60.5696 159.138 60 159.391 60C159.644 60 159.96 60.5696 159.96 60.7595C160.024 61.0759 159.707 61.3291 159.391 61.3291Z"
        fill="var(--svg-fill-primary-decor)" />
    <path
        d="M183.947 82.7847C183.631 82.6581 183.568 82.3416 183.631 82.0252C183.694 81.772 183.947 81.6454 184.264 81.7087C184.58 81.772 184.77 82.0885 184.707 82.3416C184.58 82.7214 184.201 82.9113 183.947 82.7847Z"
        fill="var(--svg-fill-primary-decor)" />
    <path
        d="M177.998 82.7217C177.682 82.7217 177.555 82.4052 177.682 82.0255C177.808 81.6457 178.062 81.6457 178.315 81.7723C178.505 81.8989 178.948 82.2786 178.821 82.4685C178.758 82.5951 178.188 82.7217 177.998 82.7217Z"
        fill="var(--svg-fill-primary-decor)" />
    <path
        d="M176.543 76.6455C176.289 76.5822 176.163 76.3291 176.353 76.0126C176.479 75.7595 176.732 75.5696 176.986 75.6962C177.175 75.8228 177.618 76.2658 177.555 76.519C177.429 76.7721 176.732 76.7088 176.543 76.6455Z"
        fill="var(--svg-fill-primary-decor)" />
    <path
        d="M177.365 74.2406C176.922 74.114 176.733 73.6709 176.922 73.2912C177.049 72.9747 177.492 72.7849 177.809 72.9115C178.125 73.038 178.378 73.5444 178.188 73.9241C178.062 74.2406 177.682 74.3671 177.365 74.2406Z"
        fill="var(--svg-fill-primary-decor)" />
    <path
        d="M175.087 67.595C175.024 67.2152 175.15 66.8988 175.53 66.7722C175.656 66.7089 175.846 66.7089 175.973 66.7722C176.226 66.962 176.479 67.2785 176.732 67.5317C177.555 67.4684 178.188 67.7848 178.251 68.2912C178.315 68.7975 177.682 69.4937 177.112 69.557C176.543 69.6203 176.353 69.3671 176.163 68.1646C175.656 68.1013 175.15 68.1646 175.087 67.595Z"
        fill="var(--svg-fill-primary-decor)" />
    <path
        d="M175.151 63.5442C175.214 63.3543 175.467 63.1645 175.657 63.1645C175.783 63.1012 176.1 63.2911 176.163 63.4176C176.353 63.7974 176.163 64.1138 175.783 64.3037C175.467 64.1771 175.087 64.0505 175.151 63.5442Z"
        fill="var(--svg-fill-primary-decor)" />
    <path
        d="M174.834 73.8605C174.77 73.8605 174.707 73.7339 174.707 73.6706C174.77 73.6073 174.834 73.4808 174.96 73.544C175.087 73.6073 175.087 73.7339 175.023 73.7972C175.023 73.8605 174.897 73.9238 174.834 73.8605Z"
        fill="var(--svg-fill-primary-decor)" />
    <path
        d="M177.935 66.0763C177.492 65.9498 177.176 65.3168 177.303 64.8105C177.429 64.4308 177.999 64.1143 178.505 64.2409C178.822 64.3042 179.138 64.8105 179.075 65.1903C178.885 65.8232 178.378 66.2029 177.935 66.0763Z"
        fill="var(--svg-fill-primary-decor)" />
    <path
        d="M180.72 72.2152C180.846 72.2785 181.163 72.7215 181.099 72.9114C181.036 73.1013 180.466 73.1646 180.34 73.1013C180.213 72.9114 179.96 72.5317 180.087 72.4051C180.213 72.2785 180.593 72.1519 180.72 72.2152Z"
        fill="var(--svg-fill-primary-decor)" />
    <path
        d="M180.214 75.7593C179.834 75.5694 179.328 74.6833 179.454 74.3669C179.644 73.9871 180.34 73.7973 180.91 74.0504C181.416 74.2403 181.543 74.7466 181.227 75.3162C181.1 75.696 180.53 75.8859 180.214 75.7593Z"
        fill="var(--svg-fill-primary-decor)" />
    <path
        d="M176.986 64.6831C176.733 64.6831 176.29 64.2401 176.353 63.8603C176.416 63.4806 176.986 63.2274 177.302 63.4806C177.429 63.6071 177.365 64.0502 177.302 64.3666C177.302 64.4932 177.302 64.6831 176.986 64.6831Z"
        fill="var(--svg-fill-primary-decor)" />
    <path
        d="M179.011 64.1136C178.631 63.544 178.694 63.0377 179.137 62.7212C179.643 62.3415 180.213 62.4048 180.656 62.9111C181.099 63.4174 181.542 63.9238 182.112 64.3668C182.555 64.6833 182.808 65.3795 182.618 65.6959C182.365 66.0124 181.732 65.8858 181.669 65.6959C181.352 65.3162 181.036 65.506 180.719 65.506C180.403 65.506 180.087 65.3162 179.833 65.1263C179.643 64.9997 179.517 64.8099 179.39 64.6833C179.264 64.4934 179.137 64.3035 179.011 64.1136Z"
        fill="var(--svg-fill-primary-decor)" />
    <path
        d="M179.96 68.7342C180.087 68.481 180.91 68.1646 181.226 68.2912C181.606 68.4177 181.669 68.7975 181.479 69.3038C181.353 69.6836 181.163 69.8734 180.91 69.9367C181.036 70 181.163 70.1899 181.099 70.3165C181.036 70.5063 180.783 70.5063 180.656 70.5063C180.53 70.5063 180.277 70.2532 180.277 70.0633C180.277 70 180.403 69.9367 180.53 69.9367C180.53 69.9367 180.53 69.9367 180.467 69.9367C180.024 69.6836 179.77 69.1772 179.96 68.7342Z"
        fill="var(--svg-fill-primary-decor)" />
    <path
        d="M85.4 67.08H88.52V63H90.08V67.08H93.92V68.52H90.08V74.96C90.08 75.36 90.26 75.56 90.62 75.56H93.44V77H90.06C89.6067 77 89.2333 76.8533 88.94 76.56C88.66 76.2667 88.52 75.8933 88.52 75.44V68.52H85.4V67.08ZM100.666 64.12C100.666 63.7333 100.799 63.4067 101.066 63.14C101.346 62.86 101.679 62.72 102.066 62.72C102.453 62.72 102.779 62.86 103.046 63.14C103.326 63.4067 103.466 63.7333 103.466 64.12C103.466 64.5067 103.326 64.84 103.046 65.12C102.779 65.3867 102.453 65.52 102.066 65.52C101.679 65.52 101.346 65.3867 101.066 65.12C100.799 64.84 100.666 64.5067 100.666 64.12ZM97.8261 75.56H101.306V68.52H98.1861V67.08H102.866V75.56H106.106V77H97.8261V75.56ZM109.092 67.08H112.212V63H113.772V67.08H117.612V68.52H113.772V74.96C113.772 75.36 113.952 75.56 114.312 75.56H117.132V77H113.752C113.299 77 112.926 76.8533 112.632 76.56C112.352 76.2667 112.212 75.8933 112.212 75.44V68.52H109.092V67.08ZM121.278 75.56H124.878V64.44H121.398V63H126.438V75.56H130.038V77H121.278V75.56ZM134.264 72.52C134.304 73.5067 134.611 74.3 135.184 74.9C135.758 75.5 136.558 75.8 137.584 75.8C138.051 75.8 138.458 75.7467 138.804 75.64C139.151 75.5333 139.444 75.3867 139.684 75.2C139.938 75.0133 140.138 74.8 140.284 74.56C140.444 74.3067 140.571 74.04 140.664 73.76L142.144 74.16C141.864 75.08 141.344 75.8333 140.584 76.42C139.838 76.9933 138.824 77.28 137.544 77.28C136.838 77.28 136.184 77.16 135.584 76.92C134.998 76.6667 134.491 76.3133 134.064 75.86C133.638 75.4067 133.304 74.8667 133.064 74.24C132.824 73.6133 132.704 72.92 132.704 72.16V71.68C132.704 70.9867 132.824 70.34 133.064 69.74C133.318 69.14 133.664 68.6267 134.104 68.2C134.544 67.76 135.058 67.42 135.644 67.18C136.244 66.9267 136.891 66.8 137.584 66.8C138.398 66.8 139.098 66.9533 139.684 67.26C140.284 67.5533 140.771 67.92 141.144 68.36C141.531 68.8 141.811 69.28 141.984 69.8C142.171 70.32 142.264 70.8 142.264 71.24V72.52H134.264ZM137.584 68.28C137.144 68.28 136.731 68.3533 136.344 68.5C135.971 68.6333 135.638 68.8267 135.344 69.08C135.064 69.3333 134.831 69.6333 134.644 69.98C134.471 70.3133 134.358 70.68 134.304 71.08H140.704C140.678 70.6533 140.571 70.2667 140.384 69.92C140.211 69.5733 139.978 69.28 139.684 69.04C139.404 68.8 139.078 68.6133 138.704 68.48C138.344 68.3467 137.971 68.28 137.584 68.28Z"
        fill="var(--svg-fill-primary-text)" />
    <circle cx="210" cy="70" r="20" fill="var(--svg-fill-lightShade)" />
    <rect x="85" y="110" width="145" height="10" rx="1" fill="var(--svg-fill-mediumShade)" />
    <rect x="70" y="110" width="10" height="10" rx="1" fill="var(--svg-fill-darkShade)" />
    <path
        d="M70 126C70 125.448 70.4477 125 71 125H79C79.5523 125 80 125.448 80 126V134C80 134.552 79.5523 135 79 135H71C70.4477 135 70 134.552 70 134V126Z"
        fill="var(--svg-fill-mediumShade)" />
    <path
        d="M70 96C70 95.4477 70.4477 95 71 95H79C79.5523 95 80 95.4477 80 96V104C80 104.552 79.5523 105 79 105H71C70.4477 105 70 104.552 70 104V96Z"
        fill="var(--svg-fill-mediumShade)" />
    <path
        d="M70 141C70 140.448 70.4477 140 71 140H79C79.5523 140 80 140.448 80 141V149C80 149.552 79.5523 150 79 150H71C70.4477 150 70 149.552 70 149V141Z"
        fill="var(--svg-fill-mediumShade)" />
    <path
        d="M85 126C85 125.448 85.4477 125 86 125H229C229.552 125 230 125.448 230 126V134C230 134.552 229.552 135 229 135H86C85.4477 135 85 134.552 85 134V126Z"
        fill="var(--svg-fill-lightShade)" />
    <path
        d="M85 96C85 95.4477 85.4477 95 86 95H229C229.552 95 230 95.4477 230 96V104C230 104.552 229.552 105 229 105H86C85.4477 105 85 104.552 85 104V96Z"
        fill="var(--svg-fill-lightShade)" />
    <path
        d="M85 141C85 140.448 85.4477 140 86 140H154C154.552 140 155 140.448 155 141V149C155 149.552 154.552 150 154 150H86C85.4477 150 85 149.552 85 149V141Z"
        fill="var(--svg-fill-lightShade)" />
</svg>