<svg width="300" height="200" viewBox="0 0 300 200" fill="none" xmlns="http://www.w3.org/2000/svg">
    <rect width="300" height="200" fill="var(--svg-fill-background)" />
    <rect x="40" y="107" width="189" height="50" rx="1" fill="var(--svg-fill-lightestShade)" />
    <rect x="60" y="119" width="120" height="10" rx="1" fill="var(--svg-fill-mediumShade)" />
    <path
        d="M60 135C60 134.448 60.4477 134 61 134H129C129.552 134 130 134.448 130 135V143C130 143.552 129.552 144 129 144H61C60.4477 144 60 143.552 60 143V135Z"
        fill="var(--svg-fill-lightShade)" />
    <path d="M229 124V140L237 132L229 124Z" fill="var(--svg-fill-lightestShade)" />
    <path
        d="M252 124C250.418 124 248.871 124.469 247.555 125.348C246.24 126.227 245.214 127.477 244.609 128.939C244.003 130.4 243.845 132.009 244.154 133.561C244.462 135.113 245.224 136.538 246.343 137.657C247.462 138.776 248.887 139.538 250.439 139.846C251.991 140.155 253.6 139.997 255.061 139.391C256.523 138.786 257.773 137.76 258.652 136.445C259.531 135.129 260 133.582 260 132C259.998 129.879 259.154 127.845 257.654 126.346C256.155 124.846 254.121 124.002 252 124ZM252 138.769C250.661 138.769 249.352 138.372 248.239 137.628C247.126 136.885 246.258 135.827 245.746 134.59C245.234 133.354 245.1 131.992 245.361 130.679C245.622 129.366 246.267 128.16 247.213 127.213C248.16 126.267 249.366 125.622 250.679 125.361C251.992 125.1 253.354 125.234 254.59 125.746C255.827 126.258 256.885 127.126 257.628 128.239C258.372 129.352 258.769 130.661 258.769 132C258.767 133.795 258.053 135.515 256.784 136.784C255.515 138.053 253.795 138.767 252 138.769ZM253.231 135.692C253.231 135.856 253.166 136.012 253.05 136.127C252.935 136.243 252.779 136.308 252.615 136.308C252.289 136.308 251.976 136.178 251.745 135.947C251.514 135.716 251.385 135.403 251.385 135.077V132C251.221 132 251.065 131.935 250.949 131.82C250.834 131.704 250.769 131.548 250.769 131.385C250.769 131.221 250.834 131.065 250.949 130.949C251.065 130.834 251.221 130.769 251.385 130.769C251.711 130.769 252.024 130.899 252.255 131.13C252.486 131.361 252.615 131.674 252.615 132V135.077C252.779 135.077 252.935 135.142 253.05 135.257C253.166 135.373 253.231 135.529 253.231 135.692ZM250.769 128.615C250.769 128.433 250.823 128.254 250.925 128.103C251.026 127.951 251.17 127.832 251.339 127.763C251.508 127.693 251.693 127.674 251.872 127.71C252.051 127.746 252.216 127.834 252.345 127.963C252.474 128.092 252.562 128.256 252.598 128.435C252.633 128.614 252.615 128.8 252.545 128.969C252.475 129.137 252.357 129.281 252.205 129.383C252.053 129.484 251.875 129.538 251.692 129.538C251.447 129.538 251.213 129.441 251.04 129.268C250.866 129.095 250.769 128.86 250.769 128.615Z"
        fill="var(--svg-fill-darkShade)" />
    <rect x="73" y="42" width="187" height="50" rx="1" fill="var(--svg-fill-accent-background)" />
    <rect x="93" y="55" width="120" height="10" rx="1" fill="var(--svg-fill-accent-text)" />
    <rect x="93" y="70" width="70" height="10" rx="1" fill="var(--svg-fill-accent-decor)" />
    <path d="M73 59V75L65 67L73 59Z" fill="var(--svg-fill-accent-background)" />
    <path
        d="M57.6646 72.1271L50.6687 59.9776C50.4939 59.68 50.2443 59.4332 49.9447 59.2617C49.6451 59.0902 49.3059 59 48.9607 59C48.6155 59 48.2763 59.0902 47.9767 59.2617C47.6772 59.4332 47.4276 59.68 47.2528 59.9776L40.2569 72.1271C40.0886 72.415 40 72.7425 40 73.0759C40 73.4094 40.0886 73.7368 40.2569 74.0247C40.4294 74.3242 40.6786 74.5723 40.9787 74.7437C41.2789 74.9151 41.6192 75.0035 41.9648 74.9999H55.9566C56.302 75.0032 56.642 74.9146 56.9418 74.7433C57.2417 74.5719 57.4906 74.3239 57.663 74.0247C57.8315 73.7369 57.9204 73.4096 57.9207 73.0761C57.921 72.7427 57.8326 72.4152 57.6646 72.1271ZM56.555 73.3839C56.4941 73.4879 56.4065 73.5739 56.3013 73.6329C56.1962 73.692 56.0772 73.722 55.9566 73.7199H41.9648C41.8443 73.722 41.7253 73.692 41.6201 73.6329C41.515 73.5739 41.4274 73.4879 41.3664 73.3839C41.3112 73.2904 41.2821 73.1837 41.2821 73.0751C41.2821 72.9665 41.3112 72.8598 41.3664 72.7663L48.3623 60.6168C48.4246 60.5133 48.5125 60.4276 48.6177 60.3681C48.7228 60.3087 48.8415 60.2774 48.9623 60.2774C49.0831 60.2774 49.2019 60.3087 49.307 60.3681C49.4122 60.4276 49.5001 60.5133 49.5623 60.6168L56.5582 72.7663C56.613 72.8601 56.6416 72.9669 56.641 73.0756C56.6405 73.1842 56.6108 73.2907 56.555 73.3839ZM48.3207 68.6V65.4C48.3207 65.2303 48.3882 65.0675 48.5082 64.9474C48.6282 64.8274 48.791 64.76 48.9607 64.76C49.1305 64.76 49.2933 64.8274 49.4133 64.9474C49.5333 65.0675 49.6007 65.2303 49.6007 65.4V68.6C49.6007 68.7697 49.5333 68.9325 49.4133 69.0525C49.2933 69.1725 49.1305 69.24 48.9607 69.24C48.791 69.24 48.6282 69.1725 48.5082 69.0525C48.3882 68.9325 48.3207 68.7697 48.3207 68.6ZM49.9207 71.4799C49.9207 71.6698 49.8644 71.8554 49.7589 72.0133C49.6535 72.1711 49.5035 72.2942 49.3281 72.3668C49.1527 72.4395 48.9597 72.4585 48.7735 72.4215C48.5872 72.3844 48.4162 72.293 48.2819 72.1587C48.1477 72.0245 48.0562 71.8534 48.0192 71.6672C47.9822 71.481 48.0012 71.288 48.0738 71.1126C48.1465 70.9371 48.2695 70.7872 48.4274 70.6817C48.5853 70.5762 48.7709 70.5199 48.9607 70.5199C49.2153 70.5199 49.4595 70.6211 49.6396 70.8011C49.8196 70.9811 49.9207 71.2253 49.9207 71.4799Z"
        fill="var(--svg-fill-accent-text)" />
</svg>